<?xml version="1.0" standalone="no"?>
<!DOCTYPE svg PUBLIC "-//W3C//DTD SVG 1.1//EN" "http://www.w3.org/Graphics/SVG/1.1/DTD/svg11.dtd" >
<svg xmlns="http://www.w3.org/2000/svg" xmlns:xlink="http://www.w3.org/1999/xlink" version="1.1">
<metadata>
Created by FontForge 20161003 at Wed May 16 12:43:28 2018
 By www-data
FTF Flama Copyright (c) Feliciano Type Foundry, 2004-2006. All rights reserved.
</metadata>
<defs>
<font id="Flama-Book" horiz-adv-x="500" >
  <font-face 
    font-family="Flama Book"
    font-weight="550"
    font-stretch="normal"
    units-per-em="1000"
    panose-1="2 0 5 3 0 0 0 2 0 4"
    ascent="800"
    descent="-200"
    x-height="502"
    cap-height="714"
    bbox="-43 -204 1054 944"
    underline-thickness="50"
    underline-position="-100"
    unicode-range="U+0020-FB02"
  />
<missing-glyph horiz-adv-x="822" 
d="M235 118l-40 40l185 185l-185 185l40 40l185 -185l185 185l40 -40l-185 -185l185 -185l-40 -40l-185 185zM55 -18v716h712v-716h-712zM115 42h592v596h-592v-596z" />
    <glyph glyph-name="fi" unicode="fi" horiz-adv-x="541" 
d="M117 0v442h-89v59h89v86c0 92 48 142 136 142c19 0 38 -2 55 -6v-65c-17 4 -29 5 -49 5c-38 0 -68 -19 -68 -72v-90h114v-59h-114v-442h-74zM394 0v502h74v-502h-74zM394 611v109h74v-109h-74z" />
    <glyph glyph-name="fl" unicode="fl" horiz-adv-x="615" 
d="M117 0v442h-89v59h89v86c0 92 48 142 136 142c19 0 38 -2 55 -6v-65c-17 4 -29 5 -49 5c-38 0 -68 -19 -68 -72v-90h114v-59h-114v-442h-74zM509 -6c-95 0 -114 71 -114 129v591h75v-594c0 -35 19 -62 64 -62c21 0 39 3 56 5v-57c-24 -8 -56 -12 -81 -12z" />
    <glyph glyph-name=".notdef" horiz-adv-x="822" 
d="M235 118l-40 40l185 185l-185 185l40 40l185 -185l185 185l40 -40l-185 -185l185 -185l-40 -40l-185 185zM55 -18v716h712v-716h-712zM115 42h592v596h-592v-596z" />
    <glyph glyph-name="space" unicode=" " horiz-adv-x="241" 
 />
    <glyph glyph-name="Eth" unicode="&#xd0;" horiz-adv-x="662" 
d="M79 0v341h-66v57h66v315h265c147 0 257 -87 257 -239v-229c0 -154 -116 -245 -256 -245h-266zM160 72h180c108 0 180 68 180 168v234c0 99 -68 168 -182 168h-178v-244h210v-57h-210v-269z" />
    <glyph glyph-name="eth" unicode="&#xf0;" horiz-adv-x="515" 
d="M258 -13c-124 0 -209 65 -209 197v125c0 128 88 202 201 205c11 1 36 -1 59 -11l-62 101l-107 -29l-16 49l93 26l-44 68l73 21l43 -70l113 30l15 -49l-98 -28c18 -27 39 -63 121 -192c18 -30 27 -75 27 -120v-118c0 -133 -87 -205 -209 -205zM258 51c93 0 132 54 132 142
v122c0 80 -35 139 -127 139c-88 0 -137 -55 -137 -143v-126c0 -80 40 -134 132 -134z" />
    <glyph glyph-name="Lslash" unicode="&#x141;" horiz-adv-x="562" 
d="M80 0v305l-66 -32v63l66 32v346h80v-309l160 77v-63l-160 -77v-270h370v-72h-450z" />
    <glyph glyph-name="lslash" unicode="&#x142;" horiz-adv-x="294" 
d="M189 -6c-96 0 -115 71 -115 129v220l-62 -31v59l62 30v313h75v-278l92 47v-59l-92 -46v-258c0 -35 19 -62 65 -62c20 0 37 3 55 5v-57c-25 -8 -56 -12 -80 -12z" />
    <glyph glyph-name="Scaron" unicode="&#x160;" horiz-adv-x="596" 
d="M301 -12c-130 0 -234 59 -267 171l74 27c28 -80 100 -127 197 -127c94 0 170 46 170 128c0 76 -47 107 -110 127l-135 38c-100 28 -158 80 -158 182c0 118 100 192 229 192c110 0 202 -41 239 -135l-70 -28c-31 61 -89 95 -170 95c-73 0 -148 -37 -148 -117
c0 -56 34 -95 118 -120l136 -38c84 -23 148 -75 148 -188c0 -122 -101 -207 -253 -207zM274 776l-88 160h67l57 -112l65 112h65l-94 -160h-72z" />
    <glyph glyph-name="scaron" unicode="&#x161;" horiz-adv-x="481" 
d="M241 -12c-82 0 -157 22 -204 80l51 42c40 -41 88 -62 152 -62c60 0 122 31 122 90c0 56 -35 72 -104 85l-58 12c-87 17 -141 57 -141 129c0 87 71 150 180 150c76 0 136 -18 175 -63l-51 -39c-32 28 -71 44 -128 44c-61 0 -103 -33 -103 -81s41 -64 109 -78l75 -16
c74 -16 123 -56 123 -130c0 -109 -101 -163 -198 -163zM198 578l-88 161h67l58 -112l64 112h66l-95 -161h-72z" />
    <glyph glyph-name="Yacute" unicode="&#xdd;" horiz-adv-x="582" 
d="M252 0v297l-231 416h89l183 -338l181 338h88l-232 -417v-296h-78zM265 780l95 160h87l-122 -160h-60z" />
    <glyph glyph-name="yacute" unicode="&#xfd;" horiz-adv-x="483" 
d="M91 -203c-16 0 -38 2 -61 7v64c21 -5 42 -8 62 -8c41 0 70 25 84 63l34 89l-189 490h81l145 -397h2l139 397h76l-218 -593c-30 -90 -91 -112 -155 -112zM221 572l95 160h87l-121 -160h-61z" />
    <glyph glyph-name="LF" horiz-adv-x="0" 
 />
    <glyph glyph-name="Thorn" unicode="&#xde;" horiz-adv-x="609" 
d="M79 0v713h81v-126h175c138 0 230 -84 230 -215c0 -119 -84 -216 -239 -216h-166v-156h-81zM160 224h148c109 0 177 49 177 149c0 93 -67 145 -160 145h-165v-294z" />
    <glyph glyph-name="thorn" unicode="&#xfe;" horiz-adv-x="536" 
d="M73 -194v908h74v-294h2c36 66 102 93 156 93c107 0 182 -67 182 -178v-154c0 -135 -93 -194 -191 -194c-63 0 -124 36 -146 93h-3v-274h-74zM285 51c61 0 126 37 126 123v158c0 67 -49 117 -128 117c-64 0 -136 -53 -136 -149v-107c0 -87 64 -142 138 -142z" />
    <glyph glyph-name="CR" horiz-adv-x="0" 
 />
    <glyph glyph-name="Zcaron" unicode="&#x17d;" horiz-adv-x="558" 
d="M33 0v64l378 581h-363v69h464v-61l-377 -581h381v-72h-483zM241 771l-88 159h67l58 -112l64 112h66l-95 -159h-72z" />
    <glyph glyph-name="zcaron" unicode="&#x17e;" horiz-adv-x="456" 
d="M36 0v56l283 385h-271v61h367v-57l-285 -383h290v-62h-384zM197 578l-89 160h67l58 -112l64 112h66l-95 -160h-71z" />
    <glyph glyph-name="onehalf" unicode="&#xbd;" 
 />
    <glyph glyph-name="onequarter" unicode="&#xbc;" 
 />
    <glyph glyph-name="onesuperior" unicode="&#xb9;" 
 />
    <glyph glyph-name="threequarters" unicode="&#xbe;" 
 />
    <glyph glyph-name="threesuperior" unicode="&#xb3;" 
 />
    <glyph glyph-name="twosuperior" unicode="&#xb2;" 
 />
    <glyph glyph-name="brokenbar" unicode="&#xa6;" horiz-adv-x="491" 
d="M221 -137v412h49v-412h-49zM221 345v380h49v-380h-49z" />
    <glyph glyph-name="minus" unicode="&#x2212;" horiz-adv-x="563" 
d="M30 291v52h503v-52h-503z" />
    <glyph glyph-name="multiply" unicode="&#xd7;" horiz-adv-x="563" 
d="M99 98l-36 37l182 184l-182 183l37 38l182 -184l181 183l37 -38l-180 -181l184 -180l-38 -40l-185 182z" />
    <glyph glyph-name="RS" horiz-adv-x="0" 
 />
    <glyph glyph-name="US" horiz-adv-x="0" 
 />
    <glyph glyph-name="exclam" unicode="!" horiz-adv-x="281" 
d="M118 198l-17 291v224h80v-224l-16 -291h-47zM99 0v117h82v-117h-82z" />
    <glyph glyph-name="quotedbl" unicode="&#x22;" horiz-adv-x="374" 
d="M87 495l-13 120v100h72v-100l-12 -120h-47zM241 495l-12 120v100h71v-100l-12 -120h-47z" />
    <glyph glyph-name="numbersign" unicode="#" horiz-adv-x="572" 
d="M97 -4l33 196h-106l9 49h105l43 237h-112l10 48h108l32 180h47l-30 -180h175l31 180h49l-31 -180h105l-7 -48h-106l-42 -237h108l-8 -49h-107l-34 -196h-49l33 196h-174l-32 -196h-50zM188 241h173l43 237h-175z" />
    <glyph glyph-name="dollar" unicode="$" horiz-adv-x="539" 
d="M246 -30v89c-99 7 -172 62 -196 143l66 25c25 -67 79 -104 159 -104c79 0 138 36 138 100s-50 86 -99 101c-19 6 -41 12 -110 31c-86 24 -124 71 -124 148c0 90 69 153 166 162v86h54v-86c81 -7 146 -42 175 -115l-64 -26c-26 52 -74 78 -140 78c-60 0 -117 -32 -117 -94
c0 -45 22 -71 93 -91l109 -29c77 -22 130 -63 130 -158c0 -91 -72 -162 -186 -170v-90h-54z" />
    <glyph glyph-name="percent" unicode="%" horiz-adv-x="773" 
d="M188 352c-75 0 -129 40 -129 120v133c0 84 60 121 130 121c71 0 133 -35 133 -122v-136c0 -78 -64 -116 -134 -116zM189 396c52 0 79 33 79 71v144c0 38 -26 71 -78 71c-51 0 -77 -31 -77 -71v-144c0 -41 25 -71 76 -71zM580 -11c-71 0 -130 36 -130 118v132
c0 85 61 124 131 124c71 0 134 -34 134 -121v-136c0 -79 -66 -117 -135 -117zM581 34c52 0 80 33 80 71v143c0 39 -27 72 -79 72c-51 0 -77 -31 -77 -72v-143c0 -43 25 -71 76 -71zM130 -8l465 731h53l-465 -731h-53z" />
    <glyph glyph-name="ampersand" unicode="&#x26;" horiz-adv-x="754" 
d="M296 -15c-142 0 -230 92 -230 202c0 78 52 168 187 211c-52 52 -92 110 -92 165c0 73 51 164 209 164c118 0 181 -73 181 -152c0 -99 -81 -161 -181 -192l179 -193c21 38 38 83 52 130l65 -9c-16 -63 -40 -116 -72 -170l132 -141h-104l-84 88
c-58 -62 -138 -103 -242 -103zM335 420c88 28 147 72 147 154c0 67 -59 96 -111 96c-81 0 -123 -45 -123 -103c0 -43 33 -83 61 -116c9 -10 18 -20 26 -31zM311 47c75 0 143 30 187 85l-208 226c-96 -29 -140 -100 -140 -164c0 -86 66 -147 161 -147z" />
    <glyph glyph-name="quotesingle" unicode="'" horiz-adv-x="221" 
d="M87 495l-13 120v100h72v-100l-12 -120h-47z" />
    <glyph glyph-name="parenleft" unicode="(" horiz-adv-x="316" 
d="M224 -188c-95 120 -135 336 -135 466c0 141 37 324 134 461h45c-75 -149 -113 -270 -113 -461c0 -165 38 -325 113 -466h-44z" />
    <glyph glyph-name="parenright" unicode=")" horiz-adv-x="316" 
d="M48 -188c74 141 113 301 113 466c0 191 -39 312 -113 461h44c98 -137 134 -320 134 -461c0 -130 -39 -347 -134 -466h-44z" />
    <glyph glyph-name="asterisk" unicode="*" horiz-adv-x="419" 
d="M122 422l-39 27l80 114l-122 72l23 38l122 -70v136h47v-136l122 70l24 -38l-123 -72l82 -114l-40 -27l-88 124z" />
    <glyph glyph-name="plus" unicode="+" horiz-adv-x="563" 
d="M256 65v226h-226v52h226v227h53v-227h224v-52h-224v-226h-53z" />
    <glyph glyph-name="comma" unicode="," horiz-adv-x="222" 
d="M77 -116l21 118h-27v115h81v-113l-35 -120h-40z" />
    <glyph glyph-name="hyphen" unicode="-" horiz-adv-x="357" 
d="M46 250v66h265v-66h-265z" />
    <glyph glyph-name="period" unicode="." horiz-adv-x="222" 
d="M71 0v117h81v-117h-81z" />
    <glyph glyph-name="slash" unicode="/" horiz-adv-x="342" 
d="M9 -109l259 836h58l-256 -836h-61z" />
    <glyph glyph-name="zero" unicode="0" horiz-adv-x="583" 
d="M293 -13c-125 0 -235 67 -235 205v326c0 137 111 208 236 208c127 0 231 -70 231 -208v-324c0 -134 -110 -207 -232 -207zM293 52c98 0 152 64 152 146v323c0 76 -55 141 -152 141s-154 -65 -154 -145v-321c0 -79 56 -144 154 -144z" />
    <glyph glyph-name="one" unicode="1" 
d="M49 0v59h174v584l-161 -27l-6 55l212 45h32v-657h163v-59h-414z" />
    <glyph glyph-name="two" unicode="2" horiz-adv-x="534" 
d="M72 0v51l200 229c69 78 117 153 117 262c0 69 -41 121 -130 121c-76 0 -130 -41 -130 -112v-24h-73v26c0 114 88 174 211 174c135 0 204 -79 204 -188c0 -138 -84 -237 -182 -347l-114 -125v-1h310v-66h-413z" />
    <glyph glyph-name="three" unicode="3" horiz-adv-x="550" 
d="M276 -13c-147 0 -216 78 -216 161v31h75v-24c0 -72 71 -104 144 -104c79 0 143 54 143 145c0 120 -105 139 -146 139h-83v66h81c78 0 131 43 131 133c0 94 -68 128 -129 128c-75 0 -135 -35 -135 -115v-15h-74v26c0 97 80 168 211 168c150 0 203 -98 203 -180
c0 -75 -32 -150 -116 -172v-3c74 -19 140 -79 140 -173c0 -135 -102 -211 -229 -211z" />
    <glyph glyph-name="four" unicode="4" horiz-adv-x="577" 
d="M358 0v197h-303v61l280 456h86l-284 -454h221v145l76 55v-200h99v-63h-99v-197h-76z" />
    <glyph glyph-name="five" unicode="5" horiz-adv-x="547" 
d="M272 -13c-144 0 -213 78 -213 156v36h75v-23c0 -69 67 -104 139 -104c71 0 146 38 146 170v25c0 98 -66 140 -140 140c-55 0 -100 -24 -133 -53l-71 10l22 370h365v-71h-301l-14 -241c54 38 104 51 161 51c93 0 192 -61 192 -190v-44c0 -157 -98 -232 -228 -232z" />
    <glyph glyph-name="six" unicode="6" horiz-adv-x="560" 
d="M278 -13c-130 0 -219 84 -219 206v329c0 128 99 204 227 204c127 0 207 -64 207 -167v-23h-75v14c0 72 -54 113 -134 113c-93 0 -144 -61 -144 -138v-162c40 58 112 91 180 91c101 0 181 -64 181 -161v-116c0 -122 -95 -190 -223 -190zM284 52c92 0 139 55 139 122v97
c0 90 -72 119 -134 119c-65 0 -149 -53 -149 -139v-63c0 -70 50 -136 144 -136z" />
    <glyph glyph-name="seven" unicode="7" horiz-adv-x="529" 
d="M146 0c13 251 121 499 254 642h-344v71h440v-57c-155 -166 -252 -381 -264 -656h-86z" />
    <glyph glyph-name="eight" unicode="8" horiz-adv-x="553" 
d="M275 -13c-129 0 -221 67 -221 183v39c0 73 50 132 115 156c-67 20 -106 80 -106 141v35c0 123 104 185 213 185c111 0 214 -54 214 -174c0 0 1 -33 0 -50c0 -57 -42 -116 -109 -136c66 -19 118 -79 118 -155v-37c0 -118 -96 -187 -224 -187zM276 49c82 0 143 46 143 130
v31c0 88 -76 123 -142 123c-71 0 -143 -37 -143 -122v-36c0 -76 65 -126 142 -126zM278 393c66 0 136 45 136 121v37c0 80 -71 114 -140 114c-66 0 -134 -42 -134 -118v-34c0 -84 76 -120 138 -120z" />
    <glyph glyph-name="nine" unicode="9" horiz-adv-x="562" 
d="M271 -12c-128 0 -205 64 -205 167v23h74v-15c0 -72 54 -112 134 -112c93 0 144 61 144 139v162c-37 -69 -111 -94 -180 -94c-101 0 -181 65 -181 163v110c0 123 95 195 224 195s217 -83 217 -204v-331c0 -128 -100 -203 -227 -203zM268 322c65 0 150 54 150 140v64
c0 70 -49 138 -144 138c-92 0 -140 -61 -140 -128v-93c0 -88 73 -121 134 -121z" />
    <glyph glyph-name="colon" unicode=":" horiz-adv-x="222" 
d="M71 0v117h81v-117h-81zM71 366v116h81v-116h-81z" />
    <glyph glyph-name="semicolon" unicode=";" horiz-adv-x="222" 
d="M77 -116l21 118h-27v115h81v-113l-35 -120h-40zM71 366v116h81v-116h-81z" />
    <glyph glyph-name="less" unicode="&#x3c;" horiz-adv-x="563" 
d="M489 90l-443 207v42l445 203l23 -47l-393 -176l391 -183z" />
    <glyph glyph-name="equal" unicode="=" horiz-adv-x="563" 
d="M30 196v51h503v-51h-503zM30 390v51h503v-51h-503z" />
    <glyph glyph-name="greater" unicode="&#x3e;" horiz-adv-x="563" 
d="M75 90l-23 46l391 183l-394 176l23 47l446 -203v-42z" />
    <glyph glyph-name="question" unicode="?" horiz-adv-x="525" 
d="M214 192v47c4 62 33 97 73 137c50 50 105 92 105 167c0 77 -52 120 -128 120c-56 0 -131 -27 -131 -110v-33h-70v31c0 120 99 174 208 174c119 0 196 -64 196 -178c2 -87 -49 -140 -98 -184c-38 -36 -82 -67 -85 -125v-46h-70zM207 0v117h82v-117h-82z" />
    <glyph glyph-name="at" unicode="@" horiz-adv-x="946" 
d="M492 -169c-52 0 -121 9 -168 25c-152 53 -271 179 -267 384c0 282 197 449 459 449c206 0 384 -138 384 -342c0 -227 -156 -318 -287 -318h-56l15 84h-3c-43 -67 -112 -96 -164 -96c-85 0 -140 46 -140 127c0 11 1 25 3 37c3 19 7 39 25 143c20 118 104 179 200 179
c54 0 114 -28 127 -88h3l15 82h61l-73 -425c108 3 218 90 218 279c0 176 -164 292 -333 292c-234 0 -402 -148 -402 -399c0 -189 109 -306 248 -348c38 -11 94 -18 145 -18c74 0 147 12 206 29l12 -40c-70 -26 -148 -36 -228 -36zM434 73c66 0 140 62 155 150l14 88
c2 10 3 19 3 27c0 78 -54 110 -111 110c-69 0 -123 -41 -137 -118l-24 -145c-1 -8 -3 -20 -3 -29c0 -53 40 -83 103 -83z" />
    <glyph glyph-name="A" unicode="A" horiz-adv-x="657" 
d="M26 0l267 715h75l263 -715h-85l-73 207h-291l-75 -207h-81zM205 275h245l-121 343h-1z" />
    <glyph glyph-name="B" unicode="B" horiz-adv-x="626" 
d="M79 0v714h274c124 0 204 -60 204 -177c0 -75 -44 -140 -124 -163v-1c95 -17 145 -90 145 -174c0 -134 -106 -199 -217 -199h-282zM160 69h184c87 0 153 43 153 134c0 90 -66 129 -154 129h-183v-263zM160 400h171c80 0 147 40 147 125s-61 120 -142 120h-176v-245z" />
    <glyph glyph-name="C" unicode="C" horiz-adv-x="639" 
d="M335 -13c-152 0 -273 83 -273 239v248c0 152 115 253 271 253c142 0 254 -83 254 -214v-36h-77v25c0 96 -75 153 -180 153c-104 0 -188 -66 -188 -180v-240c0 -108 81 -176 193 -176c104 0 175 57 175 153v15h77v-26c0 -135 -110 -214 -252 -214z" />
    <glyph glyph-name="D" unicode="D" horiz-adv-x="662" 
d="M79 0v713h265c147 0 257 -87 257 -239v-229c0 -154 -116 -245 -256 -245h-266zM160 72h180c108 0 180 68 180 168v234c0 99 -68 168 -182 168h-178v-570z" />
    <glyph glyph-name="E" unicode="E" horiz-adv-x="595" 
d="M79 0v714h458v-71h-377v-239h317v-71h-317v-261h379v-72h-460z" />
    <glyph glyph-name="F" unicode="F" horiz-adv-x="559" 
d="M79 0v714h449v-71h-368v-242h304v-71h-304v-330h-81z" />
    <glyph glyph-name="G" unicode="G" horiz-adv-x="659" 
d="M338 -13c-152 0 -273 83 -273 239v248c0 152 115 253 270 253c142 0 255 -78 255 -210v-34h-77v24c0 96 -75 148 -180 148c-104 0 -188 -66 -188 -180v-240c0 -108 81 -176 193 -176c104 0 178 56 178 152v80h-196v72h273v-162c0 -135 -108 -214 -255 -214z" />
    <glyph glyph-name="H" unicode="H" horiz-adv-x="681" 
d="M79 0v713h81v-309h361v309h81v-713h-81v333h-361v-333h-81z" />
    <glyph glyph-name="I" unicode="I" horiz-adv-x="504" 
d="M60 643v71h384v-71h-152v-572h152v-71h-384v71h151v572h-151z" />
    <glyph glyph-name="J" unicode="J" horiz-adv-x="582" 
d="M276 -12c-139 0 -230 71 -230 217v51h80v-39c0 -76 31 -157 159 -157c96 0 144 77 144 156v497h81v-499c0 -120 -78 -226 -234 -226z" />
    <glyph glyph-name="K" unicode="K" horiz-adv-x="636" 
d="M79 0v714h81v-374l345 374h98l-262 -281l281 -433h-94l-240 374l-128 -131v-243h-81z" />
    <glyph glyph-name="L" unicode="L" horiz-adv-x="561" 
d="M79 0v714h81v-642h368v-72h-449z" />
    <glyph glyph-name="M" unicode="M" horiz-adv-x="801" 
d="M79 0v713h99l224 -437h1l219 437h100v-713h-78v572h-2l-209 -407h-64l-209 406h-3v-571h-78z" />
    <glyph glyph-name="N" unicode="N" horiz-adv-x="685" 
d="M79 0v714h81l368 -574h2v574h77v-714h-79l-371 582h-2v-582h-76z" />
    <glyph glyph-name="O" unicode="O" horiz-adv-x="667" 
d="M335 -13c-149 0 -273 83 -273 239v243c0 162 124 258 271 258c152 0 272 -91 272 -247v-235c0 -161 -123 -258 -270 -258zM335 59c103 0 190 63 190 180v244c0 108 -80 172 -195 172c-104 0 -188 -67 -188 -185v-235c0 -109 81 -176 193 -176z" />
    <glyph glyph-name="P" unicode="P" horiz-adv-x="605" 
d="M79 0v713h256c138 0 230 -84 230 -214c0 -119 -84 -217 -239 -217h-166v-282h-81zM160 351h148c109 0 177 49 177 148c0 93 -67 146 -160 146h-165v-294z" />
    <glyph glyph-name="Q" unicode="Q" horiz-adv-x="667" 
d="M566 -98l-142 98c-28 -8 -58 -13 -89 -13c-149 0 -273 83 -273 239v243c0 162 124 258 271 258c152 0 272 -91 272 -247v-235c0 -93 -41 -164 -103 -208l118 -73zM335 59c103 0 190 63 190 180v244c0 108 -80 172 -195 172c-104 0 -188 -67 -188 -185v-235
c0 -109 81 -176 193 -176z" />
    <glyph glyph-name="R" unicode="R" horiz-adv-x="625" 
d="M79 0v714h253c136 0 233 -78 233 -213c0 -97 -56 -184 -174 -206l207 -295h-90l-201 288h-147v-288h-81zM160 355h154c108 0 171 47 171 147c0 99 -68 144 -173 144h-152v-291z" />
    <glyph glyph-name="S" unicode="S" horiz-adv-x="596" 
d="M301 -12c-130 0 -234 59 -267 171l74 27c28 -80 100 -127 197 -127c94 0 170 46 170 128c0 76 -47 107 -110 127l-135 38c-100 28 -158 80 -158 182c0 118 100 192 229 192c110 0 202 -41 239 -135l-70 -28c-31 61 -89 95 -170 95c-73 0 -148 -37 -148 -117
c0 -56 34 -95 118 -120l136 -38c84 -23 148 -75 148 -188c0 -122 -101 -207 -253 -207z" />
    <glyph glyph-name="T" unicode="T" horiz-adv-x="595" 
d="M258 0v644h-232v69h543v-69h-231v-644h-80z" />
    <glyph glyph-name="U" unicode="U" horiz-adv-x="674" 
d="M336 -12c-138 0 -263 73 -263 245v480h81v-466c0 -127 77 -186 184 -186c116 0 186 66 183 183v469h80v-475c1 -157 -107 -250 -265 -250z" />
    <glyph glyph-name="V" unicode="V" horiz-adv-x="585" 
d="M251 -4l-239 717h83l196 -605h1l199 605h83l-243 -717h-80z" />
    <glyph glyph-name="W" unicode="W" horiz-adv-x="871" 
d="M208 -4l-184 717h83l141 -589h1l152 589h72l149 -589h2l143 589h80l-185 -717h-76l-149 591h-2l-149 -591h-78z" />
    <glyph glyph-name="X" unicode="X" horiz-adv-x="568" 
d="M13 0l226 373l-206 340h92l161 -279l166 279h87l-208 -342l226 -371h-93l-180 304l-182 -304h-89z" />
    <glyph glyph-name="Y" unicode="Y" horiz-adv-x="582" 
d="M252 0v297l-231 416h89l183 -338l181 338h88l-232 -417v-296h-78z" />
    <glyph glyph-name="Z" unicode="Z" horiz-adv-x="558" 
d="M33 0v64l378 581h-363v69h464v-61l-377 -581h381v-72h-483z" />
    <glyph glyph-name="bracketleft" unicode="[" horiz-adv-x="372" 
d="M142 -193v969h204v-44h-138v-880h138v-45h-204z" />
    <glyph glyph-name="backslash" unicode="\" horiz-adv-x="342" 
d="M281 -109l-256 836h58l258 -836h-60z" />
    <glyph glyph-name="bracketright" unicode="]" horiz-adv-x="372" 
d="M26 -193v45h138v880h-138v44h204v-969h-204z" />
    <glyph glyph-name="asciicircum" unicode="^" horiz-adv-x="518" 
d="M115 160l109 430h79l100 -430h-66l-75 361l-82 -361h-65z" />
    <glyph glyph-name="underscore" unicode="_" 
d="M0 -120v50h500v-50h-500z" />
    <glyph glyph-name="grave" unicode="`" horiz-adv-x="309" 
d="M167 572l-121 160h87l95 -160h-61z" />
    <glyph glyph-name="a" unicode="a" horiz-adv-x="514" 
d="M212 -11c-94 0 -167 53 -167 146c0 109 99 151 186 151h143v70c0 72 -48 98 -120 98c-59 0 -119 -21 -119 -78v-17h-68v15c0 102 96 139 190 139c101 0 192 -35 192 -148v-243c0 -28 4 -102 7 -122h-73c-2 15 -4 58 -5 71h-2c-42 -69 -102 -82 -164 -82zM232 48
c100 0 142 56 142 135v48h-130c-64 0 -125 -17 -125 -92c0 -61 52 -91 113 -91z" />
    <glyph glyph-name="b" unicode="b" horiz-adv-x="536" 
d="M293 -13c-62 0 -124 36 -146 93h-3v-80h-71v713h74v-293h3c34 67 101 93 155 93c107 0 182 -68 182 -179v-153c0 -135 -95 -194 -194 -194zM285 51c61 0 126 37 126 123v160c0 67 -49 115 -128 115c-64 0 -136 -56 -136 -152v-104c0 -87 64 -142 138 -142z" />
    <glyph glyph-name="c" unicode="c" horiz-adv-x="489" 
d="M258 -13c-125 0 -210 73 -210 203v112c0 133 86 210 208 210c115 0 198 -65 198 -174v-13h-72v17c0 56 -42 108 -125 108s-132 -57 -132 -141v-121c0 -81 43 -137 133 -137c83 0 124 51 124 107v14h72v-11c0 -108 -80 -174 -196 -174z" />
    <glyph glyph-name="d" unicode="d" horiz-adv-x="537" 
d="M232 -13c-108 0 -183 68 -183 179v154c0 135 93 193 192 193c62 0 123 -35 145 -92h3v292h74v-713h-72v88h-2c-34 -70 -105 -101 -157 -101zM253 52c65 0 136 54 136 151v105c0 87 -63 142 -138 142c-61 0 -127 -37 -127 -123v-158c0 -67 50 -117 129 -117z" />
    <glyph glyph-name="e" unicode="e" horiz-adv-x="509" 
d="M264 -13c-123 0 -216 66 -216 204v106c0 138 94 215 215 215c111 0 199 -67 199 -197v-79h-337v-52c0 -82 56 -133 144 -133c58 0 100 30 127 64l57 -34c-45 -70 -117 -94 -189 -94zM125 288h263v29c0 76 -45 133 -129 133c-81 0 -134 -60 -134 -140v-22z" />
    <glyph glyph-name="f" unicode="f" horiz-adv-x="322" 
d="M117 0v442h-89v59h89v86c0 92 48 142 136 142c19 0 38 -2 55 -6v-65c-17 4 -29 5 -49 5c-38 0 -68 -19 -68 -72v-90h114v-59h-114v-442h-74z" />
    <glyph glyph-name="g" unicode="g" horiz-adv-x="533" 
d="M243 -204c-74 0 -148 30 -183 95l68 29c30 -44 70 -64 121 -64c87 0 141 56 141 145v96c-34 -65 -95 -91 -156 -91c-114 0 -183 68 -183 178v136c0 129 91 193 186 193c56 0 127 -29 153 -94v83h72v-491c0 -117 -72 -215 -219 -215zM255 66c65 0 135 44 135 147v100
c0 87 -68 136 -137 136c-61 0 -126 -37 -126 -124v-142c0 -67 47 -117 128 -117z" />
    <glyph glyph-name="h" unicode="h" horiz-adv-x="541" 
d="M73 0v714h74v-299h3c34 65 98 98 162 98c107 0 161 -70 161 -166v-347h-75v319c0 89 -42 129 -109 129c-76 0 -142 -57 -142 -152v-296h-74z" />
    <glyph glyph-name="i" unicode="i" horiz-adv-x="220" 
d="M73 0v502h74v-502h-74zM73 611v109h74v-109h-74z" />
    <glyph glyph-name="j" unicode="j" horiz-adv-x="240" 
d="M17 -202c-13 0 -30 1 -39 2v64c11 -1 28 -2 36 -2c54 0 74 30 74 83v557h75v-563c0 -93 -46 -141 -146 -141zM89 611v109h75v-109h-75z" />
    <glyph glyph-name="k" unicode="k" horiz-adv-x="497" 
d="M73 0v714h75v-459l225 247h90l-174 -186l188 -316h-84l-155 264l-90 -95v-169h-75z" />
    <glyph glyph-name="l" unicode="l" horiz-adv-x="294" 
d="M189 -6c-96 0 -115 71 -115 129v591h75v-594c0 -35 19 -62 65 -62c20 0 37 3 55 5v-57c-25 -8 -56 -12 -80 -12z" />
    <glyph glyph-name="m" unicode="m" horiz-adv-x="858" 
d="M72 0v502h72v-87h2c35 65 97 98 166 98c78 0 123 -45 142 -100h1c36 64 99 100 172 100c97 0 161 -61 161 -159v-354h-74v319c0 85 -38 129 -109 129c-75 0 -135 -62 -137 -144v-304h-74v321c-2 81 -37 127 -109 127c-63 0 -138 -50 -138 -145v-303h-75z" />
    <glyph glyph-name="n" unicode="n" horiz-adv-x="541" 
d="M73 0v502h72v-87h2c35 65 98 98 165 98c107 0 161 -70 161 -166v-347h-75v319c0 89 -42 129 -109 129c-76 0 -142 -57 -142 -152v-296h-74z" />
    <glyph glyph-name="o" unicode="o" horiz-adv-x="517" 
d="M261 -13c-123 0 -212 67 -212 194v130c0 132 96 201 209 201c124 0 211 -73 211 -200v-123c0 -131 -94 -202 -208 -202zM261 51c83 0 132 45 132 135v133c0 76 -45 130 -135 130c-83 0 -134 -49 -134 -134v-132c0 -79 48 -132 137 -132z" />
    <glyph glyph-name="p" unicode="p" horiz-adv-x="536" 
d="M73 -194v696h72v-82h2c36 66 104 93 158 93c107 0 182 -67 182 -178v-154c0 -135 -93 -194 -191 -194c-63 0 -124 36 -146 93h-3v-274h-74zM285 51c61 0 126 37 126 123v158c0 67 -49 117 -128 117c-64 0 -136 -53 -136 -149v-107c0 -87 64 -142 138 -142z" />
    <glyph glyph-name="q" unicode="q" horiz-adv-x="536" 
d="M390 -194v278h-2c-35 -68 -104 -97 -156 -97c-108 0 -183 68 -183 179v154c0 135 93 193 192 193c62 0 124 -35 146 -92h2v81h74v-696h-73zM253 52c65 0 136 54 136 151v105c0 87 -63 142 -138 142c-61 0 -127 -37 -127 -123v-158c0 -67 50 -117 129 -117z" />
    <glyph glyph-name="r" unicode="r" horiz-adv-x="376" 
d="M69 0v502h73v-101h2c40 80 115 109 180 109c13 0 26 -1 37 -3v-70c-17 3 -33 3 -46 3c-95 0 -169 -58 -171 -166v-274h-75z" />
    <glyph glyph-name="s" unicode="s" horiz-adv-x="481" 
d="M241 -12c-82 0 -157 22 -204 80l51 42c40 -41 88 -62 152 -62c60 0 122 31 122 90c0 56 -35 72 -104 85l-58 12c-87 17 -141 57 -141 129c0 87 71 150 180 150c76 0 136 -18 175 -63l-51 -39c-32 28 -71 44 -128 44c-61 0 -103 -33 -103 -81s41 -64 109 -78l75 -16
c74 -16 123 -56 123 -130c0 -109 -101 -163 -198 -163z" />
    <glyph glyph-name="t" unicode="t" horiz-adv-x="348" 
d="M232 -9c-66 0 -125 28 -125 114v336h-87v60h87v157h74v-157h139v-60h-139v-317c0 -50 26 -65 71 -65c26 0 49 4 73 9v-64c-31 -10 -72 -13 -93 -13z" />
    <glyph glyph-name="u" unicode="u" horiz-adv-x="538" 
d="M229 -12c-107 0 -161 72 -161 167v347h75v-319c0 -89 43 -128 110 -128c75 0 141 57 141 152v295h74v-502h-72v87h-2c-35 -66 -98 -99 -165 -99z" />
    <glyph glyph-name="v" unicode="v" horiz-adv-x="474" 
d="M199 -2l-181 504h80l139 -409h1l142 409h76l-183 -504h-74z" />
    <glyph glyph-name="w" unicode="w" horiz-adv-x="751" 
d="M178 -2l-157 504h78l118 -408h1l125 408h69l120 -407h2l120 407h78l-161 -504h-74l-120 407h-2l-123 -407h-74z" />
    <glyph glyph-name="x" unicode="x" horiz-adv-x="474" 
d="M17 0l177 262l-163 240h87l120 -184l121 184h85l-163 -239l176 -263h-85l-135 203l-135 -203h-85z" />
    <glyph glyph-name="y" unicode="y" horiz-adv-x="483" 
d="M91 -203c-16 0 -38 2 -61 7v64c21 -5 42 -8 62 -8c41 0 70 25 84 63l34 89l-189 490h81l145 -397h2l139 397h76l-218 -593c-30 -90 -91 -112 -155 -112z" />
    <glyph glyph-name="z" unicode="z" horiz-adv-x="456" 
d="M36 0v56l283 385h-271v61h367v-57l-285 -383h290v-62h-384z" />
    <glyph glyph-name="braceleft" unicode="{" horiz-adv-x="377" 
d="M224 -193c-45 0 -77 29 -77 85v355c0 39 -12 53 -45 57v52c38 7 45 19 45 48v288c0 56 32 85 77 85h123v-46h-113c-12 0 -19 -6 -19 -22v-293c0 -44 -16 -70 -49 -83v-4c37 -16 49 -35 49 -84v-369c0 -17 7 -22 19 -22h113v-47h-123z" />
    <glyph glyph-name="bar" unicode="|" horiz-adv-x="326" 
d="M132 -39v764h62v-764h-62z" />
    <glyph glyph-name="braceright" unicode="}" horiz-adv-x="377" 
d="M31 -193v47h112c11 0 19 5 19 22v369c0 49 12 68 49 84v4c-32 13 -49 39 -49 83v293c0 16 -8 22 -19 22h-112v46h123c44 0 77 -29 77 -85v-288c0 -29 7 -41 44 -48v-52c-33 -4 -44 -18 -44 -57v-355c0 -56 -33 -85 -77 -85h-123z" />
    <glyph glyph-name="asciitilde" unicode="~" horiz-adv-x="563" 
d="M76 262l-45 8c10 54 39 98 92 98c55 0 263 -36 319 -36c29 0 37 21 47 48l43 -9c-11 -56 -39 -100 -90 -100c-56 0 -269 37 -321 37c-27 0 -34 -17 -45 -46z" />
    <glyph glyph-name="Adieresis" unicode="&#xc4;" horiz-adv-x="657" 
d="M26 0l267 715h75l263 -715h-85l-73 207h-291l-75 -207h-81zM195 772v104h74v-104h-74zM205 275h245l-121 343h-1zM388 772v104h74v-104h-74z" />
    <glyph glyph-name="Aring" unicode="&#xc5;" horiz-adv-x="657" 
d="M332 751c-61 0 -93 42 -93 88c0 50 39 92 92 92c59 0 94 -37 94 -88s-40 -92 -93 -92zM332 785c29 0 53 21 53 56c0 33 -20 55 -54 55c-31 0 -52 -23 -52 -56c0 -35 26 -55 53 -55zM26 0l267 715h75l263 -715h-85l-73 207h-291l-75 -207h-81zM205 275h245l-121 343h-1z
" />
    <glyph glyph-name="Ccedilla" unicode="&#xc7;" horiz-adv-x="639" 
d="M344 -198c-35 0 -73 7 -101 17v41c30 -10 73 -18 96 -18c41 0 56 9 56 36c0 23 -19 33 -57 35l-31 1l15 73c-146 5 -260 87 -260 239v248c0 152 115 253 271 253c142 0 254 -83 254 -214v-36h-77v25c0 96 -75 153 -180 153c-104 0 -188 -66 -188 -180v-240
c0 -108 81 -176 193 -176c104 0 175 57 175 153v15h77v-26c0 -128 -97 -204 -227 -213l-9 -40c49 3 109 -12 109 -68c0 -49 -44 -78 -116 -78z" />
    <glyph glyph-name="Eacute" unicode="&#xc9;" horiz-adv-x="595" 
d="M79 0v714h458v-71h-377v-239h317v-71h-317v-261h379v-72h-460zM280 780l95 161h87l-121 -161h-61z" />
    <glyph glyph-name="Ntilde" unicode="&#xd1;" horiz-adv-x="685" 
d="M223 766l-45 9c9 56 38 102 93 102c56 0 106 -37 163 -37c29 0 37 22 48 48l43 -9c-11 -58 -40 -102 -91 -102c-57 0 -112 37 -165 37c-27 0 -34 -18 -46 -48zM79 0v714h81l368 -574h2v574h77v-714h-79l-371 582h-2v-582h-76z" />
    <glyph glyph-name="Odieresis" unicode="&#xd6;" horiz-adv-x="667" 
d="M335 -13c-149 0 -273 83 -273 239v243c0 162 124 258 271 258c152 0 272 -91 272 -247v-235c0 -161 -123 -258 -270 -258zM335 59c103 0 190 63 190 180v244c0 108 -80 172 -195 172c-104 0 -188 -67 -188 -185v-235c0 -109 81 -176 193 -176zM200 770v105h74v-105h-74z
M393 770v105h74v-105h-74z" />
    <glyph glyph-name="Udieresis" unicode="&#xdc;" horiz-adv-x="674" 
d="M336 -12c-138 0 -263 73 -263 245v480h81v-466c0 -127 77 -186 184 -186c116 0 186 66 183 183v469h80v-475c1 -157 -107 -250 -265 -250zM204 769v105h74v-105h-74zM397 769v105h74v-105h-74z" />
    <glyph glyph-name="aacute" unicode="&#xe1;" horiz-adv-x="514" 
d="M212 -11c-94 0 -167 53 -167 146c0 109 99 151 186 151h143v70c0 72 -48 98 -120 98c-59 0 -119 -21 -119 -78v-17h-68v15c0 102 96 139 190 139c101 0 192 -35 192 -148v-243c0 -28 4 -102 7 -122h-73c-2 15 -4 58 -5 71h-2c-42 -69 -102 -82 -164 -82zM232 48
c100 0 142 56 142 135v48h-130c-64 0 -125 -17 -125 -92c0 -61 52 -91 113 -91zM220 572l95 160h87l-121 -160h-61z" />
    <glyph glyph-name="agrave" unicode="&#xe0;" horiz-adv-x="514" 
d="M212 -11c-94 0 -167 53 -167 146c0 109 99 151 186 151h143v70c0 72 -48 98 -120 98c-59 0 -119 -21 -119 -78v-17h-68v15c0 102 96 139 190 139c101 0 192 -35 192 -148v-243c0 -28 4 -102 7 -122h-73c-2 15 -4 58 -5 71h-2c-42 -69 -102 -82 -164 -82zM232 48
c100 0 142 56 142 135v48h-130c-64 0 -125 -17 -125 -92c0 -61 52 -91 113 -91zM234 572l-122 160h87l95 -160h-60z" />
    <glyph glyph-name="acircumflex" unicode="&#xe2;" horiz-adv-x="514" 
d="M212 -11c-94 0 -167 53 -167 146c0 109 99 151 186 151h143v70c0 72 -48 98 -120 98c-59 0 -119 -21 -119 -78v-17h-68v15c0 102 96 139 190 139c101 0 192 -35 192 -148v-243c0 -28 4 -102 7 -122h-73c-2 15 -4 58 -5 71h-2c-42 -69 -102 -82 -164 -82zM232 48
c100 0 142 56 142 135v48h-130c-64 0 -125 -17 -125 -92c0 -61 52 -91 113 -91zM130 572l95 161h72l88 -161h-66l-58 112l-65 -112h-66z" />
    <glyph glyph-name="adieresis" unicode="&#xe4;" horiz-adv-x="514" 
d="M212 -11c-94 0 -167 53 -167 146c0 109 99 151 186 151h143v70c0 72 -48 98 -120 98c-59 0 -119 -21 -119 -78v-17h-68v15c0 102 96 139 190 139c101 0 192 -35 192 -148v-243c0 -28 4 -102 7 -122h-73c-2 15 -4 58 -5 71h-2c-42 -69 -102 -82 -164 -82zM232 48
c100 0 142 56 142 135v48h-130c-64 0 -125 -17 -125 -92c0 -61 52 -91 113 -91zM126 572v105h74v-105h-74zM318 572v105h74v-105h-74z" />
    <glyph glyph-name="atilde" unicode="&#xe3;" horiz-adv-x="514" 
d="M212 -11c-94 0 -167 53 -167 146c0 109 99 151 186 151h143v70c0 72 -48 98 -120 98c-59 0 -119 -21 -119 -78v-17h-68v15c0 102 96 139 190 139c101 0 192 -35 192 -148v-243c0 -28 4 -102 7 -122h-73c-2 15 -4 58 -5 71h-2c-42 -69 -102 -82 -164 -82zM127 576l-46 9
c11 56 39 102 94 102c56 0 107 -37 163 -37c29 0 37 22 47 49l45 -9c-12 -59 -40 -103 -92 -103c-57 0 -113 37 -166 37c-26 0 -33 -18 -45 -48zM232 48c100 0 142 56 142 135v48h-130c-64 0 -125 -17 -125 -92c0 -61 52 -91 113 -91z" />
    <glyph glyph-name="aring" unicode="&#xe5;" horiz-adv-x="514" 
d="M212 -11c-94 0 -167 53 -167 146c0 109 99 151 186 151h143v70c0 72 -48 98 -120 98c-59 0 -119 -21 -119 -78v-17h-68v15c0 102 96 139 190 139c101 0 192 -35 192 -148v-243c0 -28 4 -102 7 -122h-73c-2 15 -4 58 -5 71h-2c-42 -69 -102 -82 -164 -82zM261 566
c-62 0 -94 41 -94 87c0 50 39 92 92 92c60 0 94 -37 94 -88s-40 -91 -92 -91zM260 600c29 0 54 20 54 55c0 33 -21 55 -55 55c-31 0 -51 -23 -51 -56c0 -36 25 -54 52 -54zM232 48c100 0 142 56 142 135v48h-130c-64 0 -125 -17 -125 -92c0 -61 52 -91 113 -91z" />
    <glyph glyph-name="ccedilla" unicode="&#xe7;" horiz-adv-x="489" 
d="M267 -198c-34 0 -73 7 -100 17v41c29 -10 72 -18 95 -18c41 0 56 9 56 36c0 23 -19 33 -57 35l-31 1l15 73c-118 5 -197 77 -197 203v112c0 133 86 210 208 210c115 0 198 -65 198 -174v-13h-72v17c0 56 -42 108 -125 108s-132 -57 -132 -141v-121
c0 -81 43 -137 133 -137c83 0 124 51 124 107v14h72v-11c0 -99 -69 -163 -170 -173l-9 -40c49 3 109 -12 109 -68c0 -49 -45 -78 -117 -78z" />
    <glyph glyph-name="eacute" unicode="&#xe9;" horiz-adv-x="509" 
d="M264 -13c-123 0 -216 66 -216 204v106c0 138 94 215 215 215c111 0 199 -67 199 -197v-79h-337v-52c0 -82 56 -133 144 -133c58 0 100 30 127 64l57 -34c-45 -70 -117 -94 -189 -94zM125 288h263v29c0 76 -45 133 -129 133c-81 0 -134 -60 -134 -140v-22zM225 572l95 160
h87l-122 -160h-60z" />
    <glyph glyph-name="egrave" unicode="&#xe8;" horiz-adv-x="509" 
d="M264 -13c-123 0 -216 66 -216 204v106c0 138 94 215 215 215c111 0 199 -67 199 -197v-79h-337v-52c0 -82 56 -133 144 -133c58 0 100 30 127 64l57 -34c-45 -70 -117 -94 -189 -94zM125 288h263v29c0 76 -45 133 -129 133c-81 0 -134 -60 -134 -140v-22zM235 572
l-122 160h88l94 -160h-60z" />
    <glyph glyph-name="ecircumflex" unicode="&#xea;" horiz-adv-x="509" 
d="M264 -13c-123 0 -216 66 -216 204v106c0 138 94 215 215 215c111 0 199 -67 199 -197v-79h-337v-52c0 -82 56 -133 144 -133c58 0 100 30 127 64l57 -34c-45 -70 -117 -94 -189 -94zM125 288h263v29c0 76 -45 133 -129 133c-81 0 -134 -60 -134 -140v-22zM133 572l95 161
h71l89 -161h-67l-57 112l-65 -112h-66z" />
    <glyph glyph-name="edieresis" unicode="&#xeb;" horiz-adv-x="509" 
d="M264 -13c-123 0 -216 66 -216 204v106c0 138 94 215 215 215c111 0 199 -67 199 -197v-79h-337v-52c0 -82 56 -133 144 -133c58 0 100 30 127 64l57 -34c-45 -70 -117 -94 -189 -94zM125 288h263v29c0 76 -45 133 -129 133c-81 0 -134 -60 -134 -140v-22zM128 572v105h74
v-105h-74zM321 572v105h74v-105h-74z" />
    <glyph glyph-name="iacute" unicode="&#xed;" horiz-adv-x="220" 
d="M73 0v502h74v-502h-74zM84 572l96 160h87l-121 -160h-62z" />
    <glyph glyph-name="igrave" unicode="&#xec;" horiz-adv-x="220" 
d="M73 0v502h74v-502h-74zM79 572l-121 160h87l95 -160h-61z" />
    <glyph glyph-name="icircumflex" unicode="&#xee;" horiz-adv-x="220" 
d="M-18 572l96 161h72l87 -161h-66l-57 112l-65 -112h-67zM73 0v502h74v-502h-74z" />
    <glyph glyph-name="idieresis" unicode="&#xef;" horiz-adv-x="220" 
d="M-24 572v105h75v-105h-75zM73 0v502h74v-502h-74zM169 572v105h74v-105h-74z" />
    <glyph glyph-name="ntilde" unicode="&#xf1;" horiz-adv-x="541" 
d="M73 0v502h72v-87h2c35 65 98 98 165 98c107 0 161 -70 161 -166v-347h-75v319c0 89 -42 129 -109 129c-76 0 -142 -57 -142 -152v-296h-74zM152 576l-46 9c11 56 39 102 94 102c56 0 107 -37 163 -37c29 0 37 22 47 49l45 -9c-12 -59 -40 -103 -92 -103
c-57 0 -113 37 -166 37c-26 0 -33 -18 -45 -48z" />
    <glyph glyph-name="oacute" unicode="&#xf3;" horiz-adv-x="517" 
d="M261 -13c-123 0 -212 67 -212 194v130c0 132 96 201 209 201c124 0 211 -73 211 -200v-123c0 -131 -94 -202 -208 -202zM261 51c83 0 132 45 132 135v133c0 76 -45 130 -135 130c-83 0 -134 -49 -134 -134v-132c0 -79 48 -132 137 -132zM222 572l96 160h86l-121 -160h-61
z" />
    <glyph glyph-name="ograve" unicode="&#xf2;" horiz-adv-x="517" 
d="M261 -13c-123 0 -212 67 -212 194v130c0 132 96 201 209 201c124 0 211 -73 211 -200v-123c0 -131 -94 -202 -208 -202zM261 51c83 0 132 45 132 135v133c0 76 -45 130 -135 130c-83 0 -134 -49 -134 -134v-132c0 -79 48 -132 137 -132zM234 572l-121 160h86l96 -160h-61
z" />
    <glyph glyph-name="ocircumflex" unicode="&#xf4;" horiz-adv-x="517" 
d="M261 -13c-123 0 -212 67 -212 194v130c0 132 96 201 209 201c124 0 211 -73 211 -200v-123c0 -131 -94 -202 -208 -202zM261 51c83 0 132 45 132 135v133c0 76 -45 130 -135 130c-83 0 -134 -49 -134 -134v-132c0 -79 48 -132 137 -132zM132 572l94 161h72l88 -161h-66
l-58 112l-65 -112h-65z" />
    <glyph glyph-name="odieresis" unicode="&#xf6;" horiz-adv-x="517" 
d="M261 -13c-123 0 -212 67 -212 194v130c0 132 96 201 209 201c124 0 211 -73 211 -200v-123c0 -131 -94 -202 -208 -202zM261 51c83 0 132 45 132 135v133c0 76 -45 130 -135 130c-83 0 -134 -49 -134 -134v-132c0 -79 48 -132 137 -132zM126 572v105h74v-105h-74z
M318 572v105h74v-105h-74z" />
    <glyph glyph-name="otilde" unicode="&#xf5;" horiz-adv-x="517" 
d="M129 576l-45 9c10 56 39 102 94 102s106 -37 162 -37c30 0 38 22 48 49l44 -9c-11 -59 -40 -103 -91 -103c-57 0 -113 37 -165 37c-27 0 -34 -18 -47 -48zM261 -13c-123 0 -212 67 -212 194v130c0 132 96 201 209 201c124 0 211 -73 211 -200v-123
c0 -131 -94 -202 -208 -202zM261 51c83 0 132 45 132 135v133c0 76 -45 130 -135 130c-83 0 -134 -49 -134 -134v-132c0 -79 48 -132 137 -132z" />
    <glyph glyph-name="uacute" unicode="&#xfa;" horiz-adv-x="538" 
d="M229 -12c-107 0 -161 72 -161 167v347h75v-319c0 -89 43 -128 110 -128c75 0 141 57 141 152v295h74v-502h-72v87h-2c-35 -66 -98 -99 -165 -99zM239 572l96 160h86l-121 -160h-61z" />
    <glyph glyph-name="ugrave" unicode="&#xf9;" horiz-adv-x="538" 
d="M229 -12c-107 0 -161 72 -161 167v347h75v-319c0 -89 43 -128 110 -128c75 0 141 57 141 152v295h74v-502h-72v87h-2c-35 -66 -98 -99 -165 -99zM245 572l-121 160h87l95 -160h-61z" />
    <glyph glyph-name="ucircumflex" unicode="&#xfb;" horiz-adv-x="538" 
d="M229 -12c-107 0 -161 72 -161 167v347h75v-319c0 -89 43 -128 110 -128c75 0 141 57 141 152v295h74v-502h-72v87h-2c-35 -66 -98 -99 -165 -99zM146 572l95 161h72l88 -161h-67l-57 112l-65 -112h-66z" />
    <glyph glyph-name="udieresis" unicode="&#xfc;" horiz-adv-x="538" 
d="M229 -12c-107 0 -161 72 -161 167v347h75v-319c0 -89 43 -128 110 -128c75 0 141 57 141 152v295h74v-502h-72v87h-2c-35 -66 -98 -99 -165 -99zM138 572v105h73v-105h-73zM330 572v105h74v-105h-74z" />
    <glyph glyph-name="dagger" unicode="&#x2020;" horiz-adv-x="552" 
d="M245 -164v638h-205v56h205v186h62v-186h206v-56h-206v-638h-62z" />
    <glyph glyph-name="degree" unicode="&#xb0;" horiz-adv-x="358" 
d="M179 513c-64 0 -109 47 -109 106c0 60 47 110 109 110c64 0 111 -50 111 -108c0 -61 -50 -108 -111 -108zM179 549c40 0 72 31 72 70c0 40 -31 74 -72 74c-39 0 -70 -33 -70 -74c0 -39 31 -70 70 -70z" />
    <glyph glyph-name="cent" unicode="&#xa2;" horiz-adv-x="530" 
d="M249 -86v101c-107 8 -176 73 -176 187v144c0 117 71 186 176 194v92h54v-92c98 -9 161 -67 161 -158v-24h-71v22c0 50 -39 99 -119 99s-127 -54 -127 -132v-141c0 -76 42 -129 129 -129c80 0 117 49 117 98v23h71v-23c0 -93 -62 -152 -161 -160v-101h-54z" />
    <glyph glyph-name="sterling" unicode="&#xa3;" horiz-adv-x="581" 
d="M58 0v65h82v270h-74v50h74v150c0 141 98 191 199 191c109 0 183 -60 183 -168v-28h-76v32c0 65 -48 100 -114 100c-63 0 -116 -37 -116 -118v-159h216v-50h-216v-270h323l-16 -65h-465z" />
    <glyph glyph-name="section" unicode="&#xa7;" horiz-adv-x="567" 
d="M284 -90c-91 0 -196 35 -196 143v32h64v-19c0 -64 55 -99 137 -99s134 40 134 96c0 59 -48 73 -93 88l-98 29c-73 23 -128 63 -128 137c0 49 25 99 87 130c-62 30 -87 64 -87 121c0 80 61 146 189 146c116 0 187 -53 187 -144v-27h-63v25c0 53 -46 89 -126 89
c-69 0 -120 -28 -120 -86c0 -45 43 -66 83 -80c18 -7 38 -14 103 -39c64 -23 130 -56 130 -133c0 -52 -26 -99 -86 -128c61 -24 90 -64 89 -120c0 -92 -77 -161 -206 -161zM336 218c53 16 85 49 85 92s-42 64 -79 77l-90 30c-41 -14 -80 -48 -80 -96c0 -45 51 -69 85 -79z
" />
    <glyph glyph-name="bullet" unicode="&#x2022;" horiz-adv-x="387" 
d="M194 262c-57 0 -102 46 -102 103c0 56 45 102 102 102s102 -46 102 -102c0 -57 -45 -103 -102 -103z" />
    <glyph glyph-name="paragraph" unicode="&#xb6;" horiz-adv-x="621" 
d="M262 -90v323c-136 8 -189 118 -189 238c0 122 78 242 197 242h296v-47h-74v-756h-52v756h-127v-756h-51z" />
    <glyph glyph-name="germandbls" unicode="&#xdf;" horiz-adv-x="598" 
d="M352 -11c-38 0 -87 5 -116 17v62c37 -11 74 -16 99 -16c80 0 143 50 143 132c0 111 -113 144 -193 144v56h27c77 29 121 94 121 159c0 79 -54 126 -139 126c-96 0 -144 -74 -144 -135v-534h-78v525c0 116 87 202 226 202c131 0 212 -73 212 -177
c0 -73 -39 -145 -123 -178v-2c127 -29 171 -112 171 -189c0 -115 -94 -193 -206 -192z" />
    <glyph glyph-name="registered" unicode="&#xae;" horiz-adv-x="527" 
d="M187 404v248h96c50 0 87 -27 87 -74c0 -35 -20 -63 -59 -73c12 -17 27 -35 68 -101h-44l-65 97h-43v-97h-40zM268 314c-131 0 -210 96 -210 211c0 120 87 213 210 213c128 0 212 -92 212 -213c0 -115 -85 -211 -212 -211zM268 347c90 0 175 67 175 178
c0 113 -80 183 -175 183s-173 -69 -173 -183c0 -112 83 -178 173 -178zM227 532h48c33 0 54 14 54 44c0 29 -22 44 -55 44h-47v-88z" />
    <glyph glyph-name="copyright" unicode="&#xa9;" horiz-adv-x="938" 
d="M469 74c-120 0 -199 65 -199 194v147c0 124 81 198 200 198c117 0 192 -62 192 -162v-28h-68v25c0 53 -32 105 -123 105s-128 -64 -128 -140v-144c0 -78 36 -136 128 -136c90 0 123 56 123 103v27h68v-25c0 -101 -76 -164 -193 -164zM467 -63c-254 0 -401 177 -401 410
c0 224 164 407 401 407c248 0 405 -183 405 -407c0 -223 -155 -410 -405 -410zM470 -22c194 0 351 145 351 369c0 232 -165 366 -354 366c-192 0 -350 -139 -350 -366c0 -233 156 -369 353 -369z" />
    <glyph glyph-name="trademark" unicode="&#x2122;" horiz-adv-x="660" 
d="M330 411v308h54l80 -160l80 160h53v-308h-42v234l-76 -153h-31l-76 152v-233h-42zM143 411v267h-95v41h235v-41h-94v-267h-46z" />
    <glyph glyph-name="acute" unicode="&#xb4;" horiz-adv-x="309" 
d="M76 572l95 160h87l-122 -160h-60z" />
    <glyph glyph-name="dieresis" unicode="&#xa8;" horiz-adv-x="446" 
d="M90 572v105h74v-105h-74zM283 572v105h74v-105h-74z" />
    <glyph glyph-name="notequal" unicode="&#x2260;" horiz-adv-x="560" 
d="M220 71l-45 16l43 109h-189v51h209l57 143h-266v51h287l44 107l45 -16l-37 -91h164v-51h-184l-57 -143h241v-51h-261z" />
    <glyph glyph-name="AE" unicode="&#xc6;" horiz-adv-x="985" 
d="M21 0l402 714h504v-71h-377v-239h318v-71h-318v-261h379v-72h-460v202h-249l-114 -202h-85zM253 270h216v380z" />
    <glyph glyph-name="Oslash" unicode="&#xd8;" horiz-adv-x="667" 
d="M135 -42l-45 24l43 75c-45 40 -71 96 -71 169v243c0 162 124 258 271 258c62 0 117 -15 162 -44l37 65l44 -23l-41 -72c45 -42 70 -100 70 -173v-235c0 -161 -123 -258 -270 -258c-61 0 -116 15 -161 42zM335 59c103 0 190 63 190 180v244c0 39 -11 72 -32 98l-280 -487
c32 -23 75 -35 122 -35zM175 131l282 488c-33 22 -76 36 -127 36c-104 0 -188 -67 -188 -185v-235c0 -42 12 -77 33 -104z" />
    <glyph glyph-name="infinity" unicode="&#x221e;" 
 />
    <glyph glyph-name="plusminus" unicode="&#xb1;" horiz-adv-x="563" 
d="M256 151v215h-226v51h226v214h53v-214h224v-51h-224v-215h-53zM30 15v52h503v-52h-503z" />
    <glyph glyph-name="lessequal" unicode="&#x2264;" horiz-adv-x="563" 
d="M489 161l-443 208v42l445 202l23 -46l-393 -177l391 -182zM30 15v52h503v-52h-503z" />
    <glyph glyph-name="greaterequal" unicode="&#x2265;" horiz-adv-x="563" 
d="M75 161l-24 47l391 182l-393 177l23 46l446 -202v-42zM30 15v52h503v-52h-503z" />
    <glyph glyph-name="yen" unicode="&#xa5;" horiz-adv-x="586" 
d="M252 0v274h-215v55h211l-227 384h89l183 -320l181 320h88l-227 -384h213v-55h-218v-274h-78z" />
    <glyph glyph-name="mu" unicode="&#xb5;" 
 />
    <glyph glyph-name="partialdiff" unicode="&#x2202;" horiz-adv-x="515" 
d="M258 -13c-124 0 -209 65 -209 197v125c0 128 88 202 201 205c11 1 36 -1 59 -11l-136 215l73 21c45 -70 67 -106 194 -309c18 -30 27 -75 27 -120v-118c0 -133 -87 -205 -209 -205zM258 51c93 0 132 54 132 142v122c0 80 -35 139 -127 139c-88 0 -137 -55 -137 -143v-126
c0 -80 40 -134 132 -134z" />
    <glyph glyph-name="summation" unicode="&#x2211;" 
 />
    <glyph glyph-name="product" unicode="&#x220f;" 
 />
    <glyph glyph-name="pi" unicode="&#x3c0;" horiz-adv-x="822" 
d="M44 0v715h734v-715h-734z" />
    <glyph glyph-name="integral" unicode="&#x222b;" 
 />
    <glyph glyph-name="ordfeminine" unicode="&#xaa;" horiz-adv-x="393" 
d="M168 375c-56 0 -109 30 -109 93c0 92 94 106 147 106h64v42c0 44 -27 66 -70 66c-38 0 -73 -17 -73 -56v-13h-53v13c0 68 62 97 132 97c64 0 123 -28 123 -101v-161c0 -26 1 -59 3 -78h-55l-3 47c-27 -42 -72 -55 -106 -55zM184 419c42 0 85 27 85 75v44h-62
c-42 0 -89 -7 -89 -63c0 -37 30 -56 66 -56zM75 270v52h256v-52h-256z" />
    <glyph glyph-name="ordmasculine" unicode="&#xba;" horiz-adv-x="396" 
d="M198 375c-83 0 -136 42 -136 132v81c0 89 57 135 136 135c84 0 138 -44 138 -135v-81c0 -89 -59 -132 -138 -132zM198 420c57 0 78 34 78 88v83c0 48 -20 85 -77 85c-56 0 -78 -37 -78 -88v-82c0 -50 19 -86 77 -86zM71 270v52h257v-52h-257z" />
    <glyph glyph-name="Omega" unicode="&#x2126;" 
 />
    <glyph glyph-name="ae" unicode="&#xe6;" horiz-adv-x="835" 
d="M590 -13c-89 0 -160 34 -193 107c-43 -90 -124 -105 -185 -105c-94 0 -167 53 -167 146c0 109 99 151 186 151h143v70c0 72 -48 98 -120 98c-59 0 -119 -21 -119 -78v-17h-68v15c0 102 96 139 190 139c73 0 140 -20 167 -77c36 49 95 76 165 76c110 0 199 -67 199 -197
v-79h-337v-52c0 -82 56 -133 144 -133c57 0 100 30 127 64l58 -35c-48 -71 -118 -93 -190 -93zM232 48c99 0 141 56 142 134v49h-130c-64 0 -125 -17 -125 -92c0 -61 52 -91 113 -91zM451 288h263v29c0 76 -45 133 -129 133c-80 0 -133 -59 -134 -137v-25z" />
    <glyph glyph-name="oslash" unicode="&#xf8;" horiz-adv-x="517" 
d="M109 -48l-42 20l40 66c-37 33 -58 80 -58 143v130c0 132 96 201 209 201c47 0 87 -10 120 -30l38 62l42 -21l-42 -68c33 -35 53 -83 53 -143v-123c0 -131 -94 -202 -208 -202c-43 0 -83 9 -115 26zM261 51c83 0 132 45 132 135v133c0 26 -6 51 -18 70l-193 -319
c21 -13 47 -19 79 -19zM149 104l193 322c-21 14 -48 23 -84 23c-83 0 -134 -49 -134 -134v-132c0 -32 8 -59 25 -79z" />
    <glyph glyph-name="questiondown" unicode="&#xbf;" horiz-adv-x="525" 
d="M259 -186c-119 0 -196 63 -196 178c0 95 66 150 125 206c32 29 56 58 59 103v45h70v-46c-4 -62 -33 -97 -73 -137c-50 -49 -105 -91 -105 -167c0 -78 52 -120 127 -120c57 0 131 26 131 109v34h70v-31c0 -120 -98 -174 -208 -174zM242 423v116h82v-116h-82z" />
    <glyph glyph-name="exclamdown" unicode="&#xa1;" horiz-adv-x="281" 
d="M100 -175v224l16 293h49l15 -293v-224h-80zM100 423v116h81v-116h-81z" />
    <glyph glyph-name="logicalnot" unicode="&#xac;" horiz-adv-x="623" 
d="M501 85v201h-478v52h537v-253h-59z" />
    <glyph glyph-name="radical" unicode="&#x221a;" 
 />
    <glyph glyph-name="florin" unicode="&#x192;" horiz-adv-x="354" 
d="M81 -193l62 583h-102l7 59h101l14 138c10 92 64 141 150 141c20 0 37 -3 56 -6l-7 -64c-16 4 -30 5 -49 5c-38 0 -69 -19 -75 -72l-15 -142h107l-6 -59h-107l-61 -583h-75z" />
    <glyph glyph-name="approxequal" unicode="&#x2248;" 
 />
    <glyph glyph-name="Delta" unicode="&#x2206;" 
 />
    <glyph glyph-name="guillemotleft" unicode="&#xab;" horiz-adv-x="558" 
d="M242 79l-194 189l193 190l37 -34l-137 -156l138 -156zM472 79l-193 189l192 190l38 -34l-137 -156l138 -156z" />
    <glyph glyph-name="guillemotright" unicode="&#xbb;" horiz-adv-x="550" 
d="M87 79l-38 34l138 156l-138 155l39 34l191 -189zM318 79l-38 34l138 156l-138 155l39 34l191 -189z" />
    <glyph glyph-name="ellipsis" unicode="&#x2026;" horiz-adv-x="704" 
d="M79 0v117h81v-117h-81zM311 0v117h82v-117h-82zM544 0v117h81v-117h-81z" />
    <glyph glyph-name="uni00A0" unicode="&#xa0;" horiz-adv-x="241" 
 />
    <glyph glyph-name="Agrave" unicode="&#xc0;" horiz-adv-x="657" 
d="M26 0l267 715h75l263 -715h-85l-73 207h-291l-75 -207h-81zM205 275h245l-121 343h-1zM303 777l-121 161h87l95 -161h-61z" />
    <glyph glyph-name="Atilde" unicode="&#xc3;" horiz-adv-x="657" 
d="M200 766l-45 9c9 56 38 102 93 102c56 0 106 -37 163 -37c29 0 37 22 48 48l43 -9c-10 -58 -40 -102 -91 -102c-57 0 -112 37 -165 37c-27 0 -34 -18 -46 -48zM26 0l267 715h75l263 -715h-85l-73 207h-291l-75 -207h-81zM205 275h245l-121 343h-1z" />
    <glyph glyph-name="Otilde" unicode="&#xd5;" horiz-adv-x="667" 
d="M205 766l-45 9c9 56 38 102 93 102c56 0 107 -37 163 -37c30 0 37 22 48 48l43 -9c-11 -58 -39 -102 -91 -102c-57 0 -113 37 -165 37c-27 0 -34 -18 -46 -48zM335 -13c-149 0 -273 83 -273 239v243c0 162 124 258 271 258c152 0 272 -91 272 -247v-235
c0 -161 -123 -258 -270 -258zM335 59c103 0 190 63 190 180v244c0 108 -80 172 -195 172c-104 0 -188 -67 -188 -185v-235c0 -109 81 -176 193 -176z" />
    <glyph glyph-name="OE" unicode="&#x152;" horiz-adv-x="1041" 
d="M330 -13c-150 0 -268 83 -268 239v243c0 162 118 258 265 258c82 0 157 -28 199 -80v67h457v-71h-377v-239h318v-71h-318v-261h379v-72h-459v74c-42 -54 -115 -87 -196 -87zM335 59c103 0 190 63 190 180v244c0 108 -80 172 -195 172c-104 0 -188 -67 -188 -185v-235
c0 -109 81 -176 193 -176z" />
    <glyph glyph-name="oe" unicode="&#x153;" horiz-adv-x="854" 
d="M261 -13c-123 0 -212 67 -212 194v130c0 132 96 201 209 201c81 0 142 -31 174 -90c36 58 99 90 176 90c111 0 199 -67 199 -197v-79h-337v-55c0 -80 58 -130 144 -130c58 0 101 30 128 64l57 -33c-48 -72 -117 -95 -189 -95c-80 0 -145 31 -180 90
c-34 -58 -95 -90 -169 -90zM261 51c82 0 132 49 132 137v131c0 76 -45 130 -135 130c-83 0 -134 -49 -134 -134v-132c0 -79 48 -132 137 -132zM470 288h263v29c0 76 -44 133 -129 133c-81 0 -134 -60 -134 -140v-22z" />
    <glyph glyph-name="endash" unicode="&#x2013;" horiz-adv-x="525" 
d="M32 259v55h462v-55h-462z" />
    <glyph glyph-name="emdash" unicode="&#x2014;" horiz-adv-x="829" 
d="M32 259v55h766v-55h-766z" />
    <glyph glyph-name="quotedblleft" unicode="&#x201c;" horiz-adv-x="378" 
d="M71 486v113l34 119h41l-21 -117h27v-115h-81zM225 486v113l35 119h40l-21 -117h27v-115h-81z" />
    <glyph glyph-name="quotedblright" unicode="&#x201d;" horiz-adv-x="378" 
d="M79 486l21 116h-28v116h82v-113l-34 -119h-41zM232 486l21 116h-27v116h81v-113l-34 -119h-41z" />
    <glyph glyph-name="quoteleft" unicode="&#x2018;" horiz-adv-x="225" 
d="M71 486v113l34 119h41l-21 -117h27v-115h-81z" />
    <glyph glyph-name="quoteright" unicode="&#x2019;" horiz-adv-x="226" 
d="M79 486l22 116h-28v116h81v-113l-34 -119h-41z" />
    <glyph glyph-name="divide" unicode="&#xf7;" horiz-adv-x="563" 
d="M242 92v104h79v-104h-79zM32 291v52h499v-52h-499zM242 437v105h79v-105h-79z" />
    <glyph glyph-name="lozenge" unicode="&#x25ca;" 
 />
    <glyph glyph-name="ydieresis" unicode="&#xff;" horiz-adv-x="483" 
d="M91 -203c-16 0 -38 2 -61 7v64c21 -5 42 -8 62 -8c41 0 70 25 84 63l34 89l-189 490h81l145 -397h2l139 397h76l-218 -593c-30 -90 -91 -112 -155 -112zM104 572v105h74v-105h-74zM297 572v105h73v-105h-73z" />
    <glyph glyph-name="Ydieresis" unicode="&#x178;" horiz-adv-x="582" 
d="M252 0v297l-231 416h89l183 -338l181 338h88l-232 -417v-296h-78zM161 759v105h74v-105h-74zM353 759v105h74v-105h-74z" />
    <glyph glyph-name="fraction" unicode="&#x2044;" horiz-adv-x="402" 
d="M-43 -37l439 764h58l-439 -764h-58z" />
    <glyph glyph-name="Euro" unicode="&#x20ac;" horiz-adv-x="715" 
d="M408 -13c-151 0 -254 83 -254 239v24h-101v49h101v109h-101v48h101v26c0 145 107 245 259 245c142 0 248 -83 248 -214v-36h-78v25c0 96 -75 153 -180 153c-102 0 -169 -66 -169 -175v-24h267v-48h-267v-109h267v-49h-267v-19c0 -106 64 -172 174 -172
c105 0 175 57 175 153v15h78v-26c0 -135 -110 -214 -253 -214z" />
    <glyph glyph-name="guilsinglleft" unicode="&#x2039;" horiz-adv-x="328" 
d="M242 79l-194 189l193 190l37 -34l-137 -156l138 -156z" />
    <glyph glyph-name="guilsinglright" unicode="&#x203a;" horiz-adv-x="328" 
d="M87 79l-38 34l138 156l-138 155l39 34l191 -189z" />
    <glyph glyph-name="daggerdbl" unicode="&#x2021;" horiz-adv-x="552" 
d="M245 -164v191h-205v55h205v392h-205v56h205v186h62v-186h206v-56h-206v-392h206v-55h-206v-191h-62z" />
    <glyph glyph-name="periodcentered" unicode="&#xb7;" horiz-adv-x="222" 
d="M71 366v116h81v-116h-81z" />
    <glyph glyph-name="quotesinglbase" unicode="&#x201a;" horiz-adv-x="225" 
d="M79 -116l21 118h-28v115h82v-113l-34 -120h-41z" />
    <glyph glyph-name="quotedblbase" unicode="&#x201e;" horiz-adv-x="378" 
d="M79 -116l21 118h-28v115h82v-113l-34 -120h-41zM232 -116l21 118h-27v115h81v-113l-34 -120h-41z" />
    <glyph glyph-name="perthousand" unicode="&#x2030;" horiz-adv-x="1111" 
d="M188 352c-75 0 -129 40 -129 120v133c0 84 60 121 130 121c71 0 133 -35 133 -122v-136c0 -78 -64 -116 -134 -116zM189 396c52 0 79 33 79 71v144c0 38 -26 71 -78 71c-51 0 -77 -31 -77 -71v-144c0 -41 25 -71 76 -71zM580 -11c-71 0 -130 36 -130 118v132
c0 85 61 124 131 124c71 0 134 -34 134 -121v-136c0 -79 -66 -117 -135 -117zM581 34c52 0 80 33 80 71v143c0 39 -27 72 -79 72c-51 0 -77 -31 -77 -72v-143c0 -43 25 -71 76 -71zM919 -11c-71 0 -130 36 -130 118v132c0 85 61 124 132 124c70 0 133 -34 133 -121v-136
c0 -79 -66 -117 -135 -117zM920 34c52 0 79 33 79 71v143c0 39 -26 72 -78 72s-78 -31 -78 -72v-143c0 -43 25 -71 77 -71zM130 -8l465 731h53l-465 -731h-53z" />
    <glyph glyph-name="Acircumflex" unicode="&#xc2;" horiz-adv-x="657" 
d="M26 0l267 715h75l263 -715h-85l-73 207h-291l-75 -207h-81zM202 780l94 160h72l88 -160h-67l-57 112l-65 -112h-65zM205 275h245l-121 343h-1z" />
    <glyph glyph-name="Ecircumflex" unicode="&#xca;" horiz-adv-x="595" 
d="M79 0v714h458v-71h-377v-239h317v-71h-317v-261h379v-72h-460zM189 779l95 160h72l88 -160h-67l-57 112l-65 -112h-66z" />
    <glyph glyph-name="Aacute" unicode="&#xc1;" horiz-adv-x="657" 
d="M26 0l267 715h75l263 -715h-85l-73 207h-291l-75 -207h-81zM205 275h245l-121 343h-1zM304 780l96 160h86l-121 -160h-61z" />
    <glyph glyph-name="Edieresis" unicode="&#xcb;" horiz-adv-x="595" 
d="M79 0v714h458v-71h-377v-239h317v-71h-317v-261h379v-72h-460zM186 770v105h74v-105h-74zM378 770v105h74v-105h-74z" />
    <glyph glyph-name="Egrave" unicode="&#xc8;" horiz-adv-x="595" 
d="M79 0v714h458v-71h-377v-239h317v-71h-317v-261h379v-72h-460zM294 780l-122 160h88l95 -160h-61z" />
    <glyph glyph-name="Iacute" unicode="&#xcd;" horiz-adv-x="504" 
d="M60 643v71h384v-71h-152v-572h152v-71h-384v71h151v572h-151zM223 783l95 160h87l-122 -160h-60z" />
    <glyph glyph-name="Icircumflex" unicode="&#xce;" horiz-adv-x="504" 
d="M60 643v71h384v-71h-152v-572h152v-71h-384v71h151v572h-151zM125 783l95 161h72l87 -161h-66l-57 112l-65 -112h-66z" />
    <glyph glyph-name="Idieresis" unicode="&#xcf;" horiz-adv-x="504" 
d="M60 643v71h384v-71h-152v-572h152v-71h-384v71h151v572h-151zM118 783v105h74v-105h-74zM311 783v105h74v-105h-74z" />
    <glyph glyph-name="Igrave" unicode="&#xcc;" horiz-adv-x="504" 
d="M60 643v71h384v-71h-152v-572h152v-71h-384v71h151v572h-151zM219 783l-121 160h87l95 -160h-61z" />
    <glyph glyph-name="Oacute" unicode="&#xd3;" horiz-adv-x="667" 
d="M335 -13c-149 0 -273 83 -273 239v243c0 162 124 258 271 258c152 0 272 -91 272 -247v-235c0 -161 -123 -258 -270 -258zM335 59c103 0 190 63 190 180v244c0 108 -80 172 -195 172c-104 0 -188 -67 -188 -185v-235c0 -109 81 -176 193 -176zM306 779l95 160h87
l-121 -160h-61z" />
    <glyph glyph-name="Ocircumflex" unicode="&#xd4;" horiz-adv-x="667" 
d="M335 -13c-149 0 -273 83 -273 239v243c0 162 124 258 271 258c152 0 272 -91 272 -247v-235c0 -161 -123 -258 -270 -258zM335 59c103 0 190 63 190 180v244c0 108 -80 172 -195 172c-104 0 -188 -67 -188 -185v-235c0 -109 81 -176 193 -176zM206 780l95 161h72l87 -161
h-66l-57 112l-66 -112h-65z" />
    <glyph glyph-name="apple" horiz-adv-x="1009" 
d="M627 -77l-154 3l-18 -2l-6 7c21 6 28 7 40 11c46 15 52 47 55 60c4 36 10 126 14 219c-35 -1 -69 -2 -98 -3l2 11l97 6c5 92 9 183 10 219l39 23c-58 3 -119 5 -178 7c-1 -50 -5 -105 -7 -139c-11 -209 -138 -276 -193 -276c-41 0 -125 28 -150 42l23 37
c13 -3 112 -48 158 -47c64 1 127 102 124 199c1 23 3 102 5 185c-20 0 -40 1 -61 1c-76 0 -154 -64 -154 -147c11 -25 37 -49 77 -67c0 -7 -11 -32 -16 -37c-56 24 -70 67 -73 96c0 99 83 172 197 192h31c2 68 4 133 5 166l40 18c-76 3 -156 8 -243 8
c-76 0 -154 -62 -154 -145c12 -25 38 -46 78 -63c0 -6 -18 -32 -21 -37c-57 24 -71 66 -74 96c0 99 100 165 188 187c114 0 217 -8 343 -11c24 0 38 -1 62 -2c9 0 32 -1 40 -1c17 -1 22 1 33 3c8 6 18 18 22 27l8 -3c-5 -13 -18 -29 -24 -34c-39 -20 -67 -29 -113 -29
s-93 2 -140 4c-5 -25 -4 -114 -7 -135c-1 -14 -1 -32 -2 -50c122 -4 263 -14 396 -14c-6 -1 113 -5 155 15l4 -6c-70 -31 -135 -43 -224 -43c-44 0 -94 1 -147 3c-5 -34 -11 -165 -13 -187c0 -13 -1 -31 -2 -53l147 10h4l4 -3l-35 -52l-7 4l23 35c-40 -3 -88 -6 -137 -9
c-4 -67 -10 -154 -13 -193c-3 -22 -31 -64 -55 -75l1 -1c52 9 114 4 165 8v-1c0 -13 -13 -33 -28 -35c-11 -2 -25 -2 -43 -2z" />
    <glyph glyph-name="Ograve" unicode="&#xd2;" horiz-adv-x="667" 
d="M335 -13c-149 0 -273 83 -273 239v243c0 162 124 258 271 258c152 0 272 -91 272 -247v-235c0 -161 -123 -258 -270 -258zM335 59c103 0 190 63 190 180v244c0 108 -80 172 -195 172c-104 0 -188 -67 -188 -185v-235c0 -109 81 -176 193 -176zM310 779l-121 160h86
l96 -160h-61z" />
    <glyph glyph-name="Uacute" unicode="&#xda;" horiz-adv-x="674" 
d="M336 -12c-138 0 -263 73 -263 245v480h81v-466c0 -127 77 -186 184 -186c116 0 186 66 183 183v469h80v-475c1 -157 -107 -250 -265 -250zM309 780l95 160h87l-122 -160h-60z" />
    <glyph glyph-name="Ucircumflex" unicode="&#xdb;" horiz-adv-x="674" 
d="M336 -12c-138 0 -263 73 -263 245v480h81v-466c0 -127 77 -186 184 -186c116 0 186 66 183 183v469h80v-475c1 -157 -107 -250 -265 -250zM210 780l95 160h72l88 -160h-67l-57 112l-65 -112h-66z" />
    <glyph glyph-name="Ugrave" unicode="&#xd9;" horiz-adv-x="674" 
d="M336 -12c-138 0 -263 73 -263 245v480h81v-466c0 -127 77 -186 184 -186c116 0 186 66 183 183v469h80v-475c1 -157 -107 -250 -265 -250zM315 780l-122 160h88l94 -160h-60z" />
    <glyph glyph-name="dotlessi" unicode="&#x131;" horiz-adv-x="220" 
d="M73 0v502h74v-502h-74z" />
    <glyph glyph-name="circumflex" unicode="&#x2c6;" horiz-adv-x="392" 
d="M69 572l95 161h72l87 -161h-66l-57 112l-65 -112h-66z" />
    <glyph glyph-name="tilde" unicode="&#x2dc;" horiz-adv-x="453" 
d="M102 576l-45 9c10 56 39 102 94 102s106 -37 162 -37c30 0 38 22 48 49l44 -9c-11 -59 -40 -103 -91 -103c-57 0 -113 37 -165 37c-27 0 -34 -18 -47 -48z" />
    <glyph glyph-name="macron" unicode="&#xaf;" horiz-adv-x="417" 
d="M54 605v65h310v-65h-310z" />
    <glyph glyph-name="breve" unicode="&#x2d8;" horiz-adv-x="381" 
d="M192 590c-79 0 -148 52 -149 140h55c5 -52 37 -87 98 -87c50 0 87 35 91 87h55c-3 -97 -82 -140 -150 -140z" />
    <glyph glyph-name="dotaccent" unicode="&#x2d9;" horiz-adv-x="219" 
d="M72 599v107h76v-107h-76z" />
    <glyph glyph-name="ring" unicode="&#x2da;" horiz-adv-x="310" 
d="M159 566c-61 0 -93 41 -93 87c0 50 39 92 91 92c60 0 95 -37 95 -88s-40 -91 -93 -91zM159 600c28 0 53 20 53 55c0 33 -20 55 -55 55c-30 0 -51 -23 -51 -56c0 -36 25 -54 53 -54z" />
    <glyph glyph-name="cedilla" unicode="&#xb8;" horiz-adv-x="392" 
d="M184 -198c-34 0 -73 7 -100 17v41c29 -10 72 -18 95 -18c41 0 56 9 56 36c0 23 -19 33 -57 35l-31 1l20 92h38l-13 -58c49 3 109 -12 109 -68c0 -49 -45 -78 -117 -78z" />
    <glyph glyph-name="hungarumlaut" unicode="&#x2dd;" horiz-adv-x="432" 
d="M51 578l81 175h89l-111 -175h-59zM214 578l82 175h89l-110 -175h-61z" />
    <glyph glyph-name="ogonek" unicode="&#x2db;" horiz-adv-x="400" 
d="M211 -194c-63 0 -108 28 -108 79c0 65 67 107 132 131l30 -10c-60 -28 -101 -62 -101 -107c0 -38 25 -59 70 -59c13 0 35 4 49 7v-30c-21 -6 -52 -11 -72 -11z" />
    <glyph glyph-name="caron" unicode="&#x2c7;" horiz-adv-x="390" 
d="M157 584l-87 159h66l57 -112l66 112h65l-95 -159h-72z" />
    <glyph glyph-name="currency" unicode="&#xa4;" horiz-adv-x="715" 
d="M408 -13c-151 0 -254 83 -254 239v24h-101v49h101v109h-101v48h101v26c0 145 107 245 259 245c142 0 248 -83 248 -214v-36h-78v25c0 96 -75 153 -180 153c-102 0 -169 -66 -169 -175v-24h267v-48h-267v-109h267v-49h-267v-19c0 -106 64 -172 174 -172
c105 0 175 57 175 153v15h78v-26c0 -135 -110 -214 -253 -214z" />
    <glyph glyph-name="uni00AD" unicode="&#xad;" horiz-adv-x="357" 
d="M46 250v66h265v-66h-265z" />
    </font>
</defs>
</svg>
