<?xml version="1.0" standalone="no"?>
<!DOCTYPE svg PUBLIC "-//W3C//DTD SVG 1.1//EN" "http://www.w3.org/Graphics/SVG/1.1/DTD/svg11.dtd" >
<svg xmlns="http://www.w3.org/2000/svg" xmlns:xlink="http://www.w3.org/1999/xlink" version="1.1">
<metadata>
Created by FontForge 20161003 at Wed May 16 12:43:36 2018
 By www-data
FTF Flama Copyright (c) Feliciano Type Foundry, 2004-2006. All rights reserved.
</metadata>
<defs>
<font id="Flama-Extrabold" horiz-adv-x="500" >
  <font-face 
    font-family="Flama Extrabold"
    font-weight="750"
    font-stretch="normal"
    units-per-em="1000"
    panose-1="2 0 5 3 4 0 0 2 0 4"
    ascent="800"
    descent="-200"
    x-height="533"
    cap-height="713"
    bbox="-64 -200 1214 986"
    underline-thickness="50"
    underline-position="-100"
    stemh="160"
    stemv="187"
    unicode-range="U+0020-FB02"
  />
<missing-glyph horiz-adv-x="822" 
d="M235 118l-40 40l185 185l-185 185l40 40l185 -185l185 185l40 -40l-185 -185l185 -185l-40 -40l-185 185zM55 -18v716h712v-716h-712zM115 42h592v596h-592v-596z" />
    <glyph glyph-name="fi" unicode="fi" horiz-adv-x="675" 
d="M87 0v392h-67v132h67v50c0 115 87 157 175 157c31 0 67 0 103 -11v-119c-15 2 -38 4 -54 4c-22 0 -39 -12 -39 -36v-45h96v-132h-96v-392h-185zM438 0v533h186v-533h-186zM438 589v135h186v-135h-186z" />
    <glyph glyph-name="fl" unicode="fl" horiz-adv-x="727" 
d="M87 0v392h-67v132h67v50c0 115 87 157 175 157c31 0 67 0 103 -11v-119c-15 2 -38 4 -54 4c-22 0 -39 -12 -39 -36v-45h96v-132h-96v-392h-185zM594 -11c-105 0 -161 61 -161 145v579h188v-530c0 -23 5 -39 40 -39c12 0 26 2 43 4v-141c-32 -10 -72 -18 -110 -18z" />
    <glyph glyph-name=".notdef" horiz-adv-x="822" 
d="M235 118l-40 40l185 185l-185 185l40 40l185 -185l185 185l40 -40l-185 -185l185 -185l-40 -40l-185 185zM55 -18v716h712v-716h-712zM115 42h592v596h-592v-596z" />
    <glyph glyph-name="space" unicode=" " horiz-adv-x="243" 
 />
    <glyph glyph-name="Eth" unicode="&#xd0;" horiz-adv-x="711" 
d="M70 0v313h-56v106h56v294h307c161 0 296 -77 296 -247v-206c0 -181 -139 -260 -294 -260h-309zM271 160h94c64 0 106 44 106 102v191c0 61 -46 100 -111 100h-89v-134h119v-106h-119v-153z" />
    <glyph glyph-name="eth" unicode="&#xf0;" horiz-adv-x="587" 
d="M293 -12c-126 0 -260 52 -260 217v85c0 125 71 210 190 222h14l-30 42l-95 -25l-45 87l78 21l-56 76l192 34l44 -61l105 28l45 -87l-90 -25l124 -172c25 -34 45 -81 45 -136v-86c0 -160 -138 -220 -261 -220zM294 124c47 0 71 31 71 77v104c0 45 -28 78 -72 78
c-47 0 -71 -34 -71 -81v-103c0 -45 23 -75 72 -75z" />
    <glyph glyph-name="Lslash" unicode="&#x141;" horiz-adv-x="628" 
d="M71 0v298l-57 -18v108l57 18v307h201v-245l103 34v-108l-103 -34v-200h335v-160h-536z" />
    <glyph glyph-name="lslash" unicode="&#x142;" horiz-adv-x="355" 
d="M222 -11c-105 0 -161 61 -161 145v165l-47 -15v106l47 15v308h187v-251l70 22v-106l-70 -22v-173c0 -23 6 -39 41 -39c12 0 26 2 43 4v-141c-32 -10 -72 -18 -110 -18z" />
    <glyph glyph-name="Scaron" unicode="&#x160;" horiz-adv-x="638" 
d="M319 -12c-122 0 -226 23 -309 105l110 128c41 -43 113 -81 185 -81c45 0 98 12 98 54c0 39 -32 51 -71 61l-125 34c-97 26 -168 89 -168 198c0 133 111 238 280 238c129 0 204 -29 272 -91l-117 -121c-35 37 -99 58 -148 58s-89 -14 -89 -55c0 -37 41 -46 93 -60l108 -30
c110 -29 175 -95 175 -198c0 -167 -152 -240 -294 -240zM250 776l-114 191h132l53 -95l56 95h130l-121 -191h-136z" />
    <glyph glyph-name="scaron" unicode="&#x161;" horiz-adv-x="552" 
d="M275 -12c-97 0 -174 11 -253 72l86 115c39 -32 99 -60 155 -60c32 0 72 6 72 34c0 26 -23 34 -52 40c-4 1 -9 0 -106 26c-84 22 -134 65 -134 144c0 103 90 186 231 186c105 0 159 -18 226 -63l-97 -106c-36 29 -88 44 -125 44c-42 0 -63 -11 -63 -34
c0 -25 35 -30 63 -35l98 -21c97 -21 149 -80 149 -154c0 -133 -137 -188 -250 -188zM211 600l-114 191h132l53 -94l56 94h130l-121 -191h-136z" />
    <glyph glyph-name="Yacute" unicode="&#xdd;" horiz-adv-x="664" 
d="M231 0v280l-233 433h209l133 -272l129 272h196l-233 -434v-279h-201zM280 761l89 181h175l-142 -181h-122z" />
    <glyph glyph-name="yacute" unicode="&#xfd;" horiz-adv-x="577" 
d="M159 -192c-33 0 -65 5 -89 10v139c23 -5 47 -7 68 -7c27 0 49 12 56 32l9 24l-194 527h199l97 -321h4l97 321h170l-201 -573c-40 -115 -125 -152 -216 -152zM237 594l89 182h175l-142 -182h-122z" />
    <glyph glyph-name="LF" horiz-adv-x="375" 
 />
    <glyph glyph-name="Thorn" unicode="&#xde;" horiz-adv-x="678" 
d="M56 0v713h201v-124h138c168 0 252 -98 252 -217c0 -112 -71 -228 -251 -228h-139v-144h-201zM257 284h102c58 0 92 36 92 81c0 48 -33 81 -92 81h-102v-162z" />
    <glyph glyph-name="thorn" unicode="&#xfe;" horiz-adv-x="610" 
d="M51 -187v900h187v-245h1c40 50 99 77 152 77c121 0 186 -75 186 -192v-177c0 -113 -93 -189 -209 -189c-48 0 -100 24 -128 58h-2v-232h-187zM316 118c36 0 74 23 74 77v132c0 51 -34 78 -73 78c-38 0 -79 -16 -79 -88v-122c0 -57 43 -77 78 -77z" />
    <glyph glyph-name="CR" horiz-adv-x="375" 
 />
    <glyph glyph-name="Zcaron" unicode="&#x17d;" horiz-adv-x="642" 
d="M36 0v124l321 431h-309v158h555v-137l-306 -416h305v-160h-566zM267 771l-113 191h131l53 -95l57 95h130l-121 -191h-137z" />
    <glyph glyph-name="zcaron" unicode="&#x17e;" horiz-adv-x="544" 
d="M37 0v118l242 278h-233v137h459l-1 -120l-237 -273h240v-140h-470zM210 600l-114 191h132l53 -95l56 95h130l-121 -191h-136z" />
    <glyph glyph-name="onehalf" unicode="&#xbd;" 
 />
    <glyph glyph-name="onequarter" unicode="&#xbc;" 
 />
    <glyph glyph-name="onesuperior" unicode="&#xb9;" 
 />
    <glyph glyph-name="threequarters" unicode="&#xbe;" 
 />
    <glyph glyph-name="threesuperior" unicode="&#xb3;" 
 />
    <glyph glyph-name="twosuperior" unicode="&#xb2;" 
 />
    <glyph glyph-name="brokenbar" unicode="&#xa6;" horiz-adv-x="498" 
d="M194 -137v413h111v-413h-111zM194 348v377h111v-377h-111z" />
    <glyph glyph-name="minus" unicode="&#x2212;" horiz-adv-x="592" 
d="M43 263v107h506v-107h-506z" />
    <glyph glyph-name="multiply" unicode="&#xd7;" horiz-adv-x="569" 
d="M112 59l-76 78l176 182l-180 182l77 78l180 -182l177 182l76 -78l-176 -181l178 -182l-77 -78l-178 181z" />
    <glyph glyph-name="RS" horiz-adv-x="375" 
 />
    <glyph glyph-name="US" horiz-adv-x="375" 
 />
    <glyph glyph-name="exclam" unicode="!" horiz-adv-x="315" 
d="M103 234l-43 231v248h195v-248l-43 -231h-109zM64 0v183h187v-183h-187z" />
    <glyph glyph-name="quotedbl" unicode="&#x22;" horiz-adv-x="497" 
d="M89 405l-23 174v143h150v-143l-22 -174h-105zM304 405l-23 174v143h150v-143l-22 -174h-105z" />
    <glyph glyph-name="numbersign" unicode="#" horiz-adv-x="625" 
d="M113 -1l26 169h-117l17 105h113l29 184h-121l16 102h116l24 156h94l-20 -156h120l22 156h95l-23 -156h113l-14 -102h-113l-27 -184h117l-13 -105h-119l-24 -169h-95l24 169h-121l-25 -169h-94zM248 273h119l28 184h-121z" />
    <glyph glyph-name="dollar" unicode="$" horiz-adv-x="601" 
d="M248 -42v71c-84 7 -158 34 -218 92l101 119c39 -39 99 -72 161 -72c40 0 82 10 82 44c0 31 -27 40 -52 47l-121 33c-88 24 -146 83 -146 178c0 103 74 187 193 208v69h127v-68c72 -8 125 -33 174 -79l-108 -113c-33 35 -88 52 -131 52c-42 0 -73 -13 -73 -45
c0 -28 26 -36 54 -42l118 -32c100 -27 158 -85 158 -178c0 -122 -90 -188 -192 -208v-76h-127z" />
    <glyph glyph-name="percent" unicode="%" horiz-adv-x="874" 
d="M204 313c-75 0 -162 32 -162 129v152c0 96 83 131 160 131c76 0 162 -35 162 -134v-149c0 -93 -87 -129 -160 -129zM203 406c29 0 41 19 41 37v155c0 19 -15 35 -41 35c-27 0 -41 -16 -41 -35v-156c0 -19 12 -36 41 -36zM672 -11c-75 0 -162 33 -162 130v152
c0 96 83 131 160 131s162 -34 162 -133v-150c0 -93 -87 -130 -160 -130zM671 83c29 0 41 19 41 38v155c0 18 -14 34 -41 34s-41 -15 -41 -34v-157c0 -19 12 -36 41 -36zM156 -9l467 728h98l-466 -728h-99z" />
    <glyph glyph-name="ampersand" unicode="&#x26;" horiz-adv-x="833" 
d="M290 -18c-137 0 -255 77 -255 213c0 101 87 170 176 200c-33 34 -72 89 -72 136c0 115 85 195 262 195c136 0 226 -70 226 -172c0 -94 -66 -149 -147 -179l91 -101c9 26 10 39 20 84l156 -15c-13 -80 -39 -132 -73 -178l150 -166h-251l-52 56c-60 -45 -143 -73 -231 -73z
M410 453c37 16 67 53 67 98c0 31 -31 53 -63 53c-45 0 -65 -24 -65 -57c0 -20 22 -48 40 -70c8 -9 15 -17 21 -24zM333 118c44 0 73 13 99 37l-142 157c-45 -25 -57 -70 -57 -102c0 -49 34 -92 100 -92z" />
    <glyph glyph-name="quotesingle" unicode="'" horiz-adv-x="282" 
d="M89 405l-23 174v143h150v-143l-22 -174h-105z" />
    <glyph glyph-name="parenleft" unicode="(" horiz-adv-x="355" 
d="M235 -194c-91 111 -152 306 -152 479c0 164 55 347 152 467h81c-68 -170 -92 -286 -92 -467c0 -161 30 -327 92 -479h-81z" />
    <glyph glyph-name="parenright" unicode=")" horiz-adv-x="355" 
d="M39 -194c62 152 92 318 92 479c0 181 -24 297 -92 467h82c96 -120 151 -303 151 -467c0 -173 -61 -368 -152 -479h-81z" />
    <glyph glyph-name="asterisk" unicode="*" horiz-adv-x="484" 
d="M154 347l-83 54l84 121l-129 71l50 81l116 -62v132h101v-132l114 62l51 -81l-131 -71l87 -121l-84 -54l-88 124z" />
    <glyph glyph-name="plus" unicode="+" horiz-adv-x="592" 
d="M242 36v227h-227v107h227v228h109v-228h227v-107h-227v-227h-109z" />
    <glyph glyph-name="comma" unicode="," horiz-adv-x="295" 
d="M84 -141l34 142h-64v181h187v-171l-71 -152h-86z" />
    <glyph glyph-name="hyphen" unicode="-" horiz-adv-x="363" 
d="M30 222v150h303v-150h-303z" />
    <glyph glyph-name="period" unicode="." horiz-adv-x="295" 
d="M54 0v183h187v-183h-187z" />
    <glyph glyph-name="slash" unicode="/" horiz-adv-x="365" 
d="M-25 -112l265 839h131l-262 -839h-134z" />
    <glyph glyph-name="zero" unicode="0" horiz-adv-x="631" 
d="M317 -12c-129 0 -280 56 -280 225v284c0 165 143 228 278 228c132 0 279 -63 279 -232v-279c0 -162 -149 -226 -277 -226zM317 144c53 0 77 37 77 73v287c0 37 -29 66 -78 66s-78 -30 -78 -68v-287c0 -37 26 -71 79 -71z" />
    <glyph glyph-name="one" unicode="1" horiz-adv-x="533" 
d="M57 0v133h130v418l-126 -7l-12 130l233 47h93v-588h118v-133h-436z" />
    <glyph glyph-name="two" unicode="2" horiz-adv-x="602" 
d="M64 0l-3 118l140 147c46 52 85 86 145 196c10 12 16 24 16 51c0 34 -16 65 -68 65c-51 0 -69 -36 -69 -81v-22h-181v39c0 141 111 214 263 214c164 0 247 -93 247 -217c0 -117 -110 -214 -184 -292l-56 -59v-2h246v-157h-496z" />
    <glyph glyph-name="three" unicode="3" horiz-adv-x="609" 
d="M293 -12c-163 0 -251 71 -251 205v25h185v-19c0 -44 28 -61 81 -61c41 0 69 30 69 79c0 61 -64 73 -93 73h-49v133h50c52 0 85 15 85 75c0 49 -34 71 -71 71c-54 0 -69 -26 -69 -61v-16h-183v25c0 123 96 208 256 208c161 0 253 -81 253 -200c0 -78 -42 -137 -106 -158
v-5c74 -19 127 -79 127 -161c0 -161 -161 -213 -284 -213z" />
    <glyph glyph-name="four" unicode="4" horiz-adv-x="623" 
d="M342 0v144h-308v141l261 429h216l-277 -421h108v75l186 127v-202h69v-149h-69v-144h-186z" />
    <glyph glyph-name="five" unicode="5" horiz-adv-x="603" 
d="M300 -12c-147 0 -257 66 -257 182v47h183v-16c0 -35 26 -61 78 -61c49 0 74 28 74 82v46c0 42 -33 67 -77 67c-32 0 -55 -17 -70 -34l-170 21l19 391h445v-158h-294l-5 -132c46 31 98 42 151 42c87 0 193 -46 193 -175v-87c0 -143 -132 -215 -270 -215z" />
    <glyph glyph-name="six" unicode="6" horiz-adv-x="617" 
d="M308 -12c-140 0 -270 77 -270 217v300c0 143 134 220 279 220c155 0 255 -71 255 -194v-35h-185v19c0 41 -30 60 -72 60c-48 0 -76 -28 -76 -69v-104c42 30 95 52 161 52c116 0 184 -70 184 -163v-97c0 -137 -132 -206 -276 -206zM314 139c51 0 79 29 79 64v65
c0 49 -48 62 -79 62c-33 0 -75 -19 -75 -80v-43c0 -39 27 -68 75 -68z" />
    <glyph glyph-name="seven" unicode="7" horiz-adv-x="603" 
d="M120 0c3 196 121 428 239 555h-316v158h524v-134c-103 -97 -246 -314 -246 -579h-201z" />
    <glyph glyph-name="eight" unicode="8" horiz-adv-x="615" 
d="M308 -12c-155 0 -272 54 -272 197v37c0 64 38 114 84 138c-45 20 -74 75 -74 124v39c0 131 120 202 260 202s262 -64 262 -197c0 0 1 -15 0 -45c0 -55 -32 -101 -73 -123c45 -20 85 -75 85 -132v-47c0 -124 -122 -193 -272 -193zM307 129c46 0 78 22 78 64v33
c0 48 -40 65 -78 65c-40 0 -77 -17 -77 -56v-44c0 -40 34 -62 77 -62zM308 423c44 0 76 22 76 62v34c0 47 -39 64 -78 64s-75 -19 -75 -57v-43c0 -40 34 -60 77 -60z" />
    <glyph glyph-name="nine" unicode="9" horiz-adv-x="616" 
d="M302 -13c-154 0 -254 72 -254 194v36h185v-19c0 -41 30 -60 72 -60c48 0 76 28 76 69v110c-37 -44 -95 -59 -161 -59c-116 0 -184 71 -184 164v97c0 137 132 206 276 206c140 0 270 -77 270 -217v-301c0 -143 -135 -220 -280 -220zM302 384c33 0 79 22 79 83v43
c0 39 -27 69 -75 69c-51 0 -79 -29 -79 -64v-67c0 -48 43 -64 75 -64z" />
    <glyph glyph-name="colon" unicode=":" horiz-adv-x="295" 
d="M54 0v183h187v-183h-187zM54 347v183h187v-183h-187z" />
    <glyph glyph-name="semicolon" unicode=";" horiz-adv-x="295" 
d="M84 -141l34 142h-64v181h187v-171l-71 -152h-86zM54 347v183h187v-183h-187z" />
    <glyph glyph-name="less" unicode="&#x3c;" horiz-adv-x="592" 
d="M504 57l-465 219v83l463 220l48 -99l-348 -162l351 -163z" />
    <glyph glyph-name="equal" unicode="=" horiz-adv-x="592" 
d="M15 148v107h563v-107h-563zM15 366v108h563v-108h-563z" />
    <glyph glyph-name="greater" unicode="&#x3e;" horiz-adv-x="592" 
d="M89 57l-50 98l352 163l-349 162l48 99l463 -220v-83z" />
    <glyph glyph-name="question" unicode="?" horiz-adv-x="564" 
d="M185 231v30c0 58 20 89 60 126c42 37 110 73 110 125c0 37 -28 64 -68 64s-82 -19 -82 -61v-25l-166 -1v35c0 137 128 199 255 199c156 0 242 -76 242 -200c0 -81 -42 -130 -92 -166c-34 -25 -93 -48 -93 -95v-31h-166zM173 0v183h187v-183h-187z" />
    <glyph glyph-name="at" unicode="@" horiz-adv-x="953" 
d="M492 -174c-49 0 -122 7 -166 21c-161 51 -282 188 -281 390c0 276 211 455 477 455c196 0 387 -121 387 -334c0 -173 -123 -298 -258 -320h-148l10 52h-3c-34 -36 -85 -63 -137 -63c-79 0 -134 39 -134 121c0 13 1 26 3 38c9 49 17 98 27 147c17 93 95 156 189 156
c39 0 91 -13 114 -47h1l7 39h152l-64 -363c84 25 150 107 150 234c0 183 -156 264 -310 264c-238 0 -369 -166 -369 -379c0 -140 79 -249 192 -299c43 -19 106 -31 162 -31c106 0 174 13 281 45l21 -70c-79 -34 -174 -56 -303 -56zM451 141c44 0 73 30 80 71l19 105
c1 5 1 10 1 15c0 33 -27 51 -59 51c-41 0 -67 -34 -74 -73l-18 -101c-1 -5 -2 -10 -2 -16c0 -31 21 -52 53 -52z" />
    <glyph glyph-name="A" unicode="A" horiz-adv-x="731" 
d="M8 0l247 714h226l243 -714h-204l-38 124h-246l-39 -124h-189zM282 276h153l-75 245h-3z" />
    <glyph glyph-name="B" unicode="B" horiz-adv-x="700" 
d="M57 0v713h392c142 0 209 -78 209 -179c0 -69 -34 -139 -110 -165v-3c79 -21 122 -90 122 -163c0 -109 -78 -203 -215 -203h-398zM258 155h129c51 0 77 32 77 70c0 39 -28 65 -79 65h-127v-135zM258 434h125c52 0 76 32 76 69c0 35 -27 60 -76 60h-125v-129z" />
    <glyph glyph-name="C" unicode="C" horiz-adv-x="676" 
d="M348 -12c-158 0 -310 75 -310 263v212c0 178 148 262 307 262c139 0 298 -67 298 -235v-39h-189v20c0 65 -55 94 -105 94c-60 0 -109 -32 -109 -102v-210c0 -66 43 -105 110 -105c50 0 104 30 104 95v20h189v-41c0 -167 -155 -234 -295 -234z" />
    <glyph glyph-name="D" unicode="D" horiz-adv-x="697" 
d="M56 0v713h307c161 0 296 -77 296 -247v-206c0 -181 -140 -260 -294 -260h-309zM257 160h94c63 0 106 44 106 102v191c0 61 -47 100 -111 100h-89v-393z" />
    <glyph glyph-name="E" unicode="E" horiz-adv-x="645" 
d="M56 0v713h540v-159h-339v-117h277v-158h-277v-119h340v-160h-541z" />
    <glyph glyph-name="F" unicode="F" horiz-adv-x="618" 
d="M56 0v713h536v-159h-335v-126h271v-159h-271v-269h-201z" />
    <glyph glyph-name="G" unicode="G" horiz-adv-x="677" 
d="M348 -12c-159 0 -310 75 -310 263v212c0 178 148 262 307 262c139 0 302 -64 302 -233v-28h-189v15c0 65 -55 92 -105 92c-60 0 -113 -32 -113 -102v-216c0 -66 43 -109 110 -109c59 0 104 27 104 92v19h-124v138h317v-171c0 -167 -159 -234 -299 -234z" />
    <glyph glyph-name="H" unicode="H" horiz-adv-x="720" 
d="M56 0v713h201v-265h206v265h202v-713h-202v274h-206v-274h-201z" />
    <glyph glyph-name="I" unicode="I" horiz-adv-x="313" 
d="M56 0v713h201v-713h-201z" />
    <glyph glyph-name="J" unicode="J" horiz-adv-x="650" 
d="M320 -12c-180 0 -290 63 -290 244v34h193v-29c0 -45 16 -89 89 -89c64 0 84 47 84 93v472h201v-466c0 -155 -104 -259 -277 -259z" />
    <glyph glyph-name="K" unicode="K" horiz-adv-x="702" 
d="M56 0v713h201v-319l228 319h203l-211 -289l219 -424h-216l-149 289l-74 -89v-200h-201z" />
    <glyph glyph-name="L" unicode="L" horiz-adv-x="614" 
d="M56 0v713h201v-553h335v-160h-536z" />
    <glyph glyph-name="M" unicode="M" horiz-adv-x="861" 
d="M56 0v713h252l125 -329h2l123 329h248v-713h-184v444h-2l-122 -341h-133l-124 340h-2v-443h-183z" />
    <glyph glyph-name="N" unicode="N" horiz-adv-x="744" 
d="M56 0v713h195l252 -361h2v361h184v-713h-184l-264 385h-2v-385h-183z" />
    <glyph glyph-name="O" unicode="O" horiz-adv-x="698" 
d="M350 -12c-162 0 -312 72 -312 269v194c0 187 149 274 308 274c161 0 314 -77 314 -273v-190c0 -195 -157 -274 -310 -274zM350 149c60 0 108 37 108 107v203c0 69 -52 106 -110 106c-62 0 -108 -33 -108 -107v-199c0 -71 43 -110 110 -110z" />
    <glyph glyph-name="P" unicode="P" horiz-adv-x="678" 
d="M56 0v713h339c168 0 252 -106 252 -232c0 -120 -71 -244 -251 -244h-139v-237h-201zM257 387h102c58 0 92 38 92 86c0 50 -33 86 -92 86h-102v-172z" />
    <glyph glyph-name="Q" unicode="Q" horiz-adv-x="698" 
d="M567 -127l-190 116c-5 -1 -10 -1 -27 -1c-162 0 -312 72 -312 269v194c0 187 149 274 308 274c161 0 314 -77 314 -273v-190c0 -87 -31 -151 -79 -195l98 -38zM350 149c60 0 108 37 108 107v203c0 69 -52 106 -110 106c-62 0 -108 -33 -108 -107v-199
c0 -71 43 -110 110 -110z" />
    <glyph glyph-name="R" unicode="R" horiz-adv-x="690" 
d="M56 0v713h327c176 0 261 -100 261 -226c0 -87 -41 -171 -131 -211l157 -276h-221l-128 244h-64v-244h-201zM257 387h99c59 0 92 37 92 86c0 50 -32 86 -91 86h-100v-172z" />
    <glyph glyph-name="S" unicode="S" horiz-adv-x="638" 
d="M319 -12c-122 0 -226 23 -309 105l110 128c41 -43 113 -81 185 -81c45 0 98 12 98 54c0 39 -32 51 -71 61l-125 34c-97 26 -168 89 -168 198c0 133 111 238 280 238c129 0 204 -29 272 -91l-117 -121c-35 37 -99 58 -148 58s-89 -14 -89 -55c0 -37 41 -46 93 -60l108 -30
c110 -29 175 -95 175 -198c0 -167 -152 -240 -294 -240z" />
    <glyph glyph-name="T" unicode="T" horiz-adv-x="650" 
d="M224 0v555h-200v158h603v-158h-200v-555h-203z" />
    <glyph glyph-name="U" unicode="U" horiz-adv-x="717" 
d="M355 -13c-188 0 -302 86 -302 269v457h201v-447c0 -76 42 -118 110 -118c64 0 104 42 104 118v447h196v-451c0 -182 -141 -275 -309 -275z" />
    <glyph glyph-name="V" unicode="V" horiz-adv-x="669" 
d="M227 -2l-223 715h203l130 -492h3l135 492h191l-230 -715h-209z" />
    <glyph glyph-name="W" unicode="W" horiz-adv-x="964" 
d="M187 -2l-178 715h199l92 -403h3l99 403h179l93 -403h1l91 403h189l-177 -715h-190l-107 425h-3l-110 -425h-181z" />
    <glyph glyph-name="X" unicode="X" horiz-adv-x="674" 
d="M-2 0l216 370l-199 343h217l115 -213l114 213h200l-201 -347l216 -366h-217l-130 232l-124 -232h-207z" />
    <glyph glyph-name="Y" unicode="Y" horiz-adv-x="664" 
d="M231 0v280l-233 433h209l133 -272l129 272h196l-233 -434v-279h-201z" />
    <glyph glyph-name="Z" unicode="Z" horiz-adv-x="642" 
d="M36 0v124l321 431h-309v158h555v-137l-306 -416h305v-160h-566z" />
    <glyph glyph-name="bracketleft" unicode="[" horiz-adv-x="352" 
d="M81 -195v969h257v-85h-105v-801h104v-83h-256z" />
    <glyph glyph-name="backslash" unicode="\" horiz-adv-x="365" 
d="M258 -112l-262 839h132l264 -839h-134z" />
    <glyph glyph-name="bracketright" unicode="]" horiz-adv-x="352" 
d="M15 -195v83h104v801h-105v85h258v-969h-257z" />
    <glyph glyph-name="asciicircum" unicode="^" horiz-adv-x="578" 
d="M95 121l128 496h140l119 -496h-120l-73 358l-75 -358h-119z" />
    <glyph glyph-name="underscore" unicode="_" 
d="M0 -157v123h500v-123h-500z" />
    <glyph glyph-name="grave" unicode="`" horiz-adv-x="338" 
d="M179 594l-141 182h175l88 -182h-122z" />
    <glyph glyph-name="a" unicode="a" horiz-adv-x="589" 
d="M199 -12c-98 0 -172 54 -172 154c0 136 150 176 259 176h69v38c0 37 -25 61 -74 61c-53 0 -71 -29 -71 -55v-13h-165v21c0 115 117 174 249 174c125 0 247 -53 247 -190v-235c0 -49 7 -109 9 -119h-175c0 2 -1 10 -6 65h-5c-43 -65 -118 -77 -165 -77zM279 118
c42 0 76 27 76 74v32h-58c-47 0 -82 -12 -82 -54c0 -29 16 -52 64 -52z" />
    <glyph glyph-name="b" unicode="b" horiz-adv-x="610" 
d="M367 -13c-48 0 -98 21 -130 61h-3v-48h-183v713h187v-242h2c38 50 93 74 146 74c121 0 191 -75 191 -192v-177c0 -113 -94 -189 -210 -189zM317 118c39 0 73 26 73 80v130c0 51 -34 77 -73 77c-38 0 -79 -17 -79 -88v-122c0 -57 45 -77 79 -77z" />
    <glyph glyph-name="c" unicode="c" horiz-adv-x="569" 
d="M295 -13c-126 0 -262 60 -262 219v107c0 161 135 232 261 232c129 0 251 -67 251 -194v-28h-180v18c0 48 -31 68 -69 68c-43 0 -74 -24 -74 -75v-135c0 -48 28 -76 75 -76c38 0 68 20 68 68v17h180v-33c0 -127 -121 -188 -250 -188z" />
    <glyph glyph-name="d" unicode="d" horiz-adv-x="610" 
d="M225 -12c-121 0 -192 74 -192 192v176c0 113 88 189 205 189c48 0 101 -19 133 -56h2v224h186v-713h-182v64h-4c-36 -48 -95 -76 -148 -76zM295 128c37 0 78 23 78 84v126c0 56 -44 76 -79 76c-36 0 -74 -25 -74 -85v-121c0 -52 36 -80 75 -80z" />
    <glyph glyph-name="e" unicode="e" horiz-adv-x="572" 
d="M300 -13c-135 0 -267 61 -267 220v96c0 168 134 242 266 242c125 0 239 -74 239 -220v-103h-317v-18c0 -57 59 -78 108 -78c48 0 124 24 149 39l48 -113c-61 -42 -142 -65 -226 -65zM221 324h144v19c0 47 -31 71 -72 71c-40 0 -72 -26 -72 -73v-17z" />
    <glyph glyph-name="f" unicode="f" horiz-adv-x="387" 
d="M87 0v392h-67v132h67v50c0 115 87 157 175 157c31 0 67 0 103 -11v-119c-15 2 -38 4 -54 4c-22 0 -39 -12 -39 -36v-45h96v-132h-96v-392h-185z" />
    <glyph glyph-name="g" unicode="g" horiz-adv-x="613" 
d="M280 -197c-87 3 -164 19 -233 63l73 117c47 -26 103 -39 152 -39c72 0 105 41 105 100v46h-3c-40 -47 -86 -62 -141 -62c-124 0 -194 73 -194 190v133c0 113 91 194 207 194c49 0 106 -20 135 -58h2v46h180v-476c0 -165 -114 -252 -283 -254zM301 165c37 0 76 21 76 82
v85c0 57 -46 76 -80 76c-37 0 -71 -24 -71 -84v-82c0 -51 33 -77 75 -77z" />
    <glyph glyph-name="h" unicode="h" horiz-adv-x="617" 
d="M51 0v713h187v-252h2c41 58 95 84 163 84c83 0 169 -48 169 -163v-382h-186v312c0 42 -14 89 -74 89c-40 0 -74 -33 -74 -99v-302h-187z" />
    <glyph glyph-name="i" unicode="i" horiz-adv-x="289" 
d="M51 0v533h187v-533h-187zM51 589v135h187v-135h-187z" />
    <glyph glyph-name="j" unicode="j" horiz-adv-x="304" 
d="M75 -193c-33 0 -50 3 -76 7v134c6 -1 22 -2 30 -2c28 0 39 16 39 41v546h187v-560c0 -114 -83 -166 -180 -166zM68 589v135h187v-135h-187z" />
    <glyph glyph-name="k" unicode="k" horiz-adv-x="588" 
d="M52 0v713h186v-384l151 204h188l-144 -190l143 -343h-201l-87 220l-50 -61v-159h-186z" />
    <glyph glyph-name="l" unicode="l" horiz-adv-x="341" 
d="M208 -11c-106 0 -161 61 -161 145v579h187v-530c0 -23 6 -39 40 -39c13 0 27 2 44 4v-141c-32 -10 -72 -18 -110 -18z" />
    <glyph glyph-name="m" unicode="m" horiz-adv-x="948" 
d="M51 0v533h183v-72h2c41 58 97 84 166 84c61 0 126 -22 154 -85h2c42 58 102 85 174 85c79 0 169 -44 169 -160v-385h-186v313c0 39 -11 88 -73 88c-41 0 -72 -36 -72 -97v-304h-187v312c0 39 -10 89 -73 89c-34 0 -72 -30 -72 -96v-305h-187z" />
    <glyph glyph-name="n" unicode="n" horiz-adv-x="617" 
d="M51 0v533h183v-68h2c42 55 98 80 167 80c83 0 169 -48 169 -163v-382h-186v312c0 42 -14 89 -74 89c-40 0 -74 -33 -74 -99v-302h-187z" />
    <glyph glyph-name="o" unicode="o" horiz-adv-x="588" 
d="M295 -12c-127 0 -262 53 -262 216v112c0 159 131 229 258 229c128 0 264 -62 264 -225v-111c0 -160 -139 -221 -260 -221zM295 124c45 0 71 29 71 75v132c0 45 -30 77 -72 77c-45 0 -72 -31 -72 -80v-131c0 -45 25 -73 73 -73z" />
    <glyph glyph-name="p" unicode="p" horiz-adv-x="610" 
d="M51 -187v720h183v-65h2c39 50 97 77 150 77c121 0 191 -75 191 -192v-177c0 -113 -93 -189 -209 -189c-48 0 -100 24 -128 58h-2v-232h-187zM316 118c36 0 74 23 74 77v132c0 51 -34 78 -73 78c-38 0 -79 -16 -79 -88v-122c0 -57 43 -77 78 -77z" />
    <glyph glyph-name="q" unicode="q" horiz-adv-x="610" 
d="M374 -187v250h-2c-41 -50 -94 -75 -146 -75c-121 0 -193 74 -193 191v174c0 119 88 192 205 192c48 0 103 -21 139 -62h2v51h180v-721h-185zM295 128c37 0 78 23 78 84v126c0 56 -44 76 -79 76c-36 0 -74 -25 -74 -85v-121c0 -52 36 -80 75 -80z" />
    <glyph glyph-name="r" unicode="r" horiz-adv-x="456" 
d="M50 0v533h183v-88h1c27 49 89 96 156 96c16 0 40 -1 57 -5v-157c-29 4 -68 7 -82 7c-57 0 -129 -17 -129 -106v-280h-186z" />
    <glyph glyph-name="s" unicode="s" horiz-adv-x="552" 
d="M275 -12c-97 0 -174 11 -253 72l86 115c39 -32 99 -60 155 -60c32 0 72 6 72 34c0 26 -23 34 -52 40c-4 1 -9 0 -106 26c-84 22 -134 65 -134 144c0 103 90 186 231 186c105 0 159 -18 226 -63l-97 -106c-36 29 -88 44 -125 44c-42 0 -63 -11 -63 -34
c0 -25 35 -30 63 -35l98 -21c97 -21 149 -80 149 -154c0 -133 -137 -188 -250 -188z" />
    <glyph glyph-name="t" unicode="t" horiz-adv-x="407" 
d="M252 -11c-81 0 -166 33 -166 152v250h-66v133h66v145h186v-145h111v-133h-111v-202c0 -24 10 -43 44 -43c23 0 43 1 64 5v-142c-43 -13 -89 -20 -128 -20z" />
    <glyph glyph-name="u" unicode="u" horiz-adv-x="625" 
d="M222 -12c-83 0 -169 49 -169 164v381h186v-312c0 -42 14 -89 74 -89c41 0 74 33 74 100v301h187v-533h-183v77h-2c-41 -59 -98 -89 -167 -89z" />
    <glyph glyph-name="v" unicode="v" horiz-adv-x="572" 
d="M194 -2l-189 535h199l93 -322h5l95 322h170l-182 -535h-191z" />
    <glyph glyph-name="w" unicode="w" horiz-adv-x="866" 
d="M173 -2l-167 535h191l74 -298h5l79 298h175l80 -297h4l76 297h172c-44 -136 -85 -270 -168 -535h-169l-88 325h-3l-89 -325h-172z" />
    <glyph glyph-name="x" unicode="x" horiz-adv-x="570" 
d="M6 1l170 273l-162 259h201l83 -143l83 143h172l-161 -258l173 -274h-202l-93 156l-90 -156h-174z" />
    <glyph glyph-name="y" unicode="y" horiz-adv-x="577" 
d="M159 -192c-33 0 -65 5 -89 10v139c23 -5 47 -7 68 -7c27 0 49 12 56 32l9 24l-194 527h199l97 -321h4l97 321h170l-201 -573c-40 -115 -125 -152 -216 -152z" />
    <glyph glyph-name="z" unicode="z" horiz-adv-x="544" 
d="M37 0v118l242 278h-233v137h459l-1 -120l-237 -273h240v-140h-470z" />
    <glyph glyph-name="braceleft" unicode="{" horiz-adv-x="367" 
d="M206 -194c-65 0 -110 42 -110 128v274c0 49 -8 65 -45 69v83c44 8 45 18 45 53v234c0 86 45 128 110 128h147v-84h-78c-11 0 -22 -5 -22 -23v-229c0 -64 -15 -99 -62 -117v-6c52 -21 62 -45 62 -115v-288c0 -19 11 -23 22 -23h78v-84h-147z" />
    <glyph glyph-name="bar" unicode="|" horiz-adv-x="328" 
d="M95 -40v765h138v-765h-138z" />
    <glyph glyph-name="braceright" unicode="}" horiz-adv-x="360" 
d="M14 -194v84h79c11 0 22 4 22 23v288c0 70 10 94 62 115v6c-47 18 -62 53 -62 117v229c0 18 -11 23 -22 23h-79v84h148c65 0 110 -42 110 -128v-234c0 -35 1 -45 45 -53v-83c-37 -4 -45 -20 -45 -69v-274c0 -86 -45 -128 -110 -128h-148z" />
    <glyph glyph-name="asciitilde" unicode="~" horiz-adv-x="592" 
d="M103 226l-78 16c13 81 49 152 132 152c63 0 220 -34 283 -34c30 0 39 21 51 50l76 -18c-12 -76 -41 -151 -127 -151c-63 0 -222 34 -285 34c-30 0 -39 -12 -52 -49z" />
    <glyph glyph-name="Adieresis" unicode="&#xc4;" horiz-adv-x="731" 
d="M8 0l247 714h226l243 -714h-204l-38 124h-246l-39 -124h-189zM282 276h153l-75 245h-3zM173 769v161h152v-161h-152zM405 769v161h152v-161h-152z" />
    <glyph glyph-name="Aring" unicode="&#xc5;" horiz-adv-x="731" 
d="M8 0l247 714h226l243 -714h-204l-38 124h-246l-39 -124h-189zM282 276h153l-75 245h-3zM365 754c-69 0 -122 43 -122 113c0 69 56 119 122 119c69 0 123 -40 123 -112c0 -68 -57 -120 -123 -120zM365 817c29 0 53 23 53 53c0 32 -21 54 -53 54c-31 0 -52 -22 -52 -54
c0 -29 24 -53 52 -53z" />
    <glyph glyph-name="Ccedilla" unicode="&#xc7;" horiz-adv-x="676" 
d="M348 -12c-158 0 -310 75 -310 263v212c0 178 148 262 307 262c139 0 298 -67 298 -235v-39h-189v20c0 65 -55 94 -105 94c-60 0 -109 -32 -109 -102v-210c0 -66 43 -105 110 -105c50 0 104 30 104 95v20h189v-41c0 -167 -155 -234 -295 -234zM350 -200
c-30 0 -74 3 -113 13v67c36 -9 80 -15 104 -15c31 0 41 9 41 22c0 19 -24 19 -40 20l-51 3l28 103h70l-14 -54c52 1 128 -8 128 -70c0 -61 -72 -89 -153 -89z" />
    <glyph glyph-name="Eacute" unicode="&#xc9;" horiz-adv-x="645" 
d="M251 774l90 184h187l-146 -184h-131zM50 0v713h555v-173h-331v-98h262v-172h-262v-96h331v-174h-555z" />
    <glyph glyph-name="Ntilde" unicode="&#xd1;" horiz-adv-x="744" 
d="M56 0v713h195l252 -361h2v361h184v-713h-184l-264 385h-2v-385h-183zM244 772l-80 17c13 84 50 159 134 159c64 0 121 -36 185 -36c31 0 40 22 53 52l75 -18c-11 -80 -40 -158 -128 -158c-64 0 -123 35 -187 35c-30 0 -39 -12 -52 -51z" />
    <glyph glyph-name="Odieresis" unicode="&#xd6;" horiz-adv-x="698" 
d="M350 -12c-162 0 -312 72 -312 269v194c0 187 149 274 308 274c161 0 314 -77 314 -273v-190c0 -195 -157 -274 -310 -274zM350 149c60 0 108 37 108 107v203c0 69 -52 106 -110 106c-62 0 -108 -33 -108 -107v-199c0 -71 43 -110 110 -110zM157 772v161h152v-161h-152z
M388 772v161h152v-161h-152z" />
    <glyph glyph-name="Udieresis" unicode="&#xdc;" horiz-adv-x="717" 
d="M355 -13c-188 0 -302 86 -302 269v457h201v-447c0 -76 42 -118 110 -118c64 0 104 42 104 118v447h196v-451c0 -182 -141 -275 -309 -275zM177 770v161h152v-161h-152zM409 770v161h152v-161h-152z" />
    <glyph glyph-name="aacute" unicode="&#xe1;" horiz-adv-x="589" 
d="M199 -12c-98 0 -172 54 -172 154c0 136 150 176 259 176h69v38c0 37 -25 61 -74 61c-53 0 -71 -29 -71 -55v-13h-165v21c0 115 117 174 249 174c125 0 247 -53 247 -190v-235c0 -49 7 -109 9 -119h-175c0 2 -1 10 -6 65h-5c-43 -65 -118 -77 -165 -77zM279 118
c42 0 76 27 76 74v32h-58c-47 0 -82 -12 -82 -54c0 -29 16 -52 64 -52zM221 594l89 182h175l-142 -182h-122z" />
    <glyph glyph-name="agrave" unicode="&#xe0;" horiz-adv-x="589" 
d="M199 -12c-98 0 -172 54 -172 154c0 136 150 176 259 176h69v38c0 37 -25 61 -74 61c-53 0 -71 -29 -71 -55v-13h-165v21c0 115 117 174 249 174c125 0 247 -53 247 -190v-235c0 -49 7 -109 9 -119h-175c0 2 -1 10 -6 65h-5c-43 -65 -118 -77 -165 -77zM279 118
c42 0 76 27 76 74v32h-58c-47 0 -82 -12 -82 -54c0 -29 16 -52 64 -52zM257 594l-142 182h175l89 -182h-122z" />
    <glyph glyph-name="acircumflex" unicode="&#xe2;" horiz-adv-x="589" 
d="M199 -12c-98 0 -172 54 -172 154c0 136 150 176 259 176h69v38c0 37 -25 61 -74 61c-53 0 -71 -29 -71 -55v-13h-165v21c0 115 117 174 249 174c125 0 247 -53 247 -190v-235c0 -49 7 -109 9 -119h-175c0 2 -1 10 -6 65h-5c-43 -65 -118 -77 -165 -77zM279 118
c42 0 76 27 76 74v32h-58c-47 0 -82 -12 -82 -54c0 -29 16 -52 64 -52zM105 590l121 191h137l113 -191h-131l-53 94l-57 -94h-130z" />
    <glyph glyph-name="adieresis" unicode="&#xe4;" horiz-adv-x="589" 
d="M199 -12c-98 0 -172 54 -172 154c0 136 150 176 259 176h69v38c0 37 -25 61 -74 61c-53 0 -71 -29 -71 -55v-13h-165v21c0 115 117 174 249 174c125 0 247 -53 247 -190v-235c0 -49 7 -109 9 -119h-175c0 2 -1 10 -6 65h-5c-43 -65 -118 -77 -165 -77zM279 118
c42 0 76 27 76 74v32h-58c-47 0 -82 -12 -82 -54c0 -29 16 -52 64 -52zM101 592v161h152v-161h-152zM332 592v161h152v-161h-152z" />
    <glyph glyph-name="atilde" unicode="&#xe3;" horiz-adv-x="589" 
d="M199 -12c-98 0 -172 54 -172 154c0 136 150 176 259 176h69v38c0 37 -25 61 -74 61c-53 0 -71 -29 -71 -55v-13h-165v21c0 115 117 174 249 174c125 0 247 -53 247 -190v-235c0 -49 7 -109 9 -119h-175c0 2 -1 10 -6 65h-5c-43 -65 -118 -77 -165 -77zM279 118
c42 0 76 27 76 74v32h-58c-47 0 -82 -12 -82 -54c0 -29 16 -52 64 -52zM143 585l-80 17c13 84 49 159 134 159c64 0 121 -36 184 -36c31 0 41 22 53 52l76 -18c-11 -80 -41 -158 -128 -158c-64 0 -124 35 -188 35c-30 0 -39 -12 -51 -51z" />
    <glyph glyph-name="aring" unicode="&#xe5;" horiz-adv-x="589" 
d="M199 -12c-98 0 -172 54 -172 154c0 136 150 176 259 176h69v38c0 37 -25 61 -74 61c-53 0 -71 -29 -71 -55v-13h-165v21c0 115 117 174 249 174c125 0 247 -53 247 -190v-235c0 -49 7 -109 9 -119h-175c0 2 -1 10 -6 65h-5c-43 -65 -118 -77 -165 -77zM279 118
c42 0 76 27 76 74v32h-58c-47 0 -82 -12 -82 -54c0 -29 16 -52 64 -52zM294 585c-69 0 -122 42 -122 112c0 69 56 119 122 119c69 0 123 -39 123 -112c0 -68 -57 -119 -123 -119zM294 648c29 0 53 22 53 53c0 32 -21 54 -53 54c-31 0 -52 -23 -52 -54c0 -30 24 -53 52 -53z
" />
    <glyph glyph-name="ccedilla" unicode="&#xe7;" horiz-adv-x="569" 
d="M295 -13c-126 0 -262 60 -262 219v107c0 161 135 232 261 232c129 0 251 -67 251 -194v-28h-180v18c0 48 -31 68 -69 68c-43 0 -74 -24 -74 -75v-135c0 -48 28 -76 75 -76c38 0 68 20 68 68v17h180v-33c0 -127 -121 -188 -250 -188zM296 -200c-30 0 -74 3 -113 13v67
c36 -9 80 -15 104 -15c31 0 41 9 41 22c0 19 -24 19 -40 20l-51 3l28 103h70l-14 -54c52 1 128 -8 128 -70c0 -61 -72 -89 -153 -89z" />
    <glyph glyph-name="eacute" unicode="&#xe9;" horiz-adv-x="572" 
d="M300 -13c-135 0 -267 61 -267 220v96c0 168 134 242 266 242c125 0 239 -74 239 -220v-103h-317v-18c0 -57 59 -78 108 -78c48 0 124 24 149 39l48 -113c-61 -42 -142 -65 -226 -65zM221 324h144v19c0 47 -31 71 -72 71c-40 0 -72 -26 -72 -73v-17zM226 594l89 182h175
l-142 -182h-122z" />
    <glyph glyph-name="egrave" unicode="&#xe8;" horiz-adv-x="572" 
d="M300 -13c-135 0 -267 61 -267 220v96c0 168 134 242 266 242c125 0 239 -74 239 -220v-103h-317v-18c0 -57 59 -78 108 -78c48 0 124 24 149 39l48 -113c-61 -42 -142 -65 -226 -65zM221 324h144v19c0 47 -31 71 -72 71c-40 0 -72 -26 -72 -73v-17zM252 594l-142 182h175
l89 -182h-122z" />
    <glyph glyph-name="ecircumflex" unicode="&#xea;" horiz-adv-x="572" 
d="M300 -13c-135 0 -267 61 -267 220v96c0 168 134 242 266 242c125 0 239 -74 239 -220v-103h-317v-18c0 -57 59 -78 108 -78c48 0 124 24 149 39l48 -113c-61 -42 -142 -65 -226 -65zM221 324h144v19c0 47 -31 71 -72 71c-40 0 -72 -26 -72 -73v-17zM109 590l121 191h136
l113 -191h-131l-53 94l-56 -94h-130z" />
    <glyph glyph-name="edieresis" unicode="&#xeb;" horiz-adv-x="572" 
d="M300 -13c-135 0 -267 61 -267 220v96c0 168 134 242 266 242c125 0 239 -74 239 -220v-103h-317v-18c0 -57 59 -78 108 -78c48 0 124 24 149 39l48 -113c-61 -42 -142 -65 -226 -65zM221 324h144v19c0 47 -31 71 -72 71c-40 0 -72 -26 -72 -73v-17zM107 592v161h152v-161
h-152zM338 592v161h152v-161h-152z" />
    <glyph glyph-name="iacute" unicode="&#xed;" horiz-adv-x="289" 
d="M51 0v533h187v-533h-187zM76 594l89 182h175l-142 -182h-122z" />
    <glyph glyph-name="igrave" unicode="&#xec;" horiz-adv-x="289" 
d="M51 0v533h187v-533h-187zM93 594l-143 182h176l89 -182h-122z" />
    <glyph glyph-name="icircumflex" unicode="&#xee;" horiz-adv-x="289" 
d="M51 0v533h187v-533h-187zM-37 590l121 191h137l113 -191h-131l-53 94l-57 -94h-130z" />
    <glyph glyph-name="idieresis" unicode="&#xef;" horiz-adv-x="289" 
d="M51 0v533h187v-533h-187zM-48 592v161h153v-161h-153zM184 592v161h152v-161h-152z" />
    <glyph glyph-name="ntilde" unicode="&#xf1;" horiz-adv-x="617" 
d="M51 0v533h183v-68h2c42 55 98 80 167 80c83 0 169 -48 169 -163v-382h-186v312c0 42 -14 89 -74 89c-40 0 -74 -33 -74 -99v-302h-187zM178 585l-80 17c13 84 50 159 134 159c64 0 121 -36 185 -36c31 0 40 22 53 52l75 -18c-11 -80 -40 -158 -128 -158
c-64 0 -123 35 -187 35c-30 0 -39 -12 -52 -51z" />
    <glyph glyph-name="oacute" unicode="&#xf3;" horiz-adv-x="588" 
d="M295 -12c-127 0 -262 53 -262 216v112c0 159 131 229 258 229c128 0 264 -62 264 -225v-111c0 -160 -139 -221 -260 -221zM295 124c45 0 71 29 71 75v132c0 45 -30 77 -72 77c-45 0 -72 -31 -72 -80v-131c0 -45 25 -73 73 -73zM221 594l88 182h175l-141 -182h-122z" />
    <glyph glyph-name="ograve" unicode="&#xf2;" horiz-adv-x="588" 
d="M295 -12c-127 0 -262 53 -262 216v112c0 159 131 229 258 229c128 0 264 -62 264 -225v-111c0 -160 -139 -221 -260 -221zM295 124c45 0 71 29 71 75v132c0 45 -30 77 -72 77c-45 0 -72 -31 -72 -80v-131c0 -45 25 -73 73 -73zM248 594l-142 182h175l89 -182h-122z" />
    <glyph glyph-name="ocircumflex" unicode="&#xf4;" horiz-adv-x="588" 
d="M295 -12c-127 0 -262 53 -262 216v112c0 159 131 229 258 229c128 0 264 -62 264 -225v-111c0 -160 -139 -221 -260 -221zM295 124c45 0 71 29 71 75v132c0 45 -30 77 -72 77c-45 0 -72 -31 -72 -80v-131c0 -45 25 -73 73 -73zM113 590l121 191h136l114 -191h-132l-53 94
l-56 -94h-130z" />
    <glyph glyph-name="odieresis" unicode="&#xf6;" horiz-adv-x="588" 
d="M295 -12c-127 0 -262 53 -262 216v112c0 159 131 229 258 229c128 0 264 -62 264 -225v-111c0 -160 -139 -221 -260 -221zM295 124c45 0 71 29 71 75v132c0 45 -30 77 -72 77c-45 0 -72 -31 -72 -80v-131c0 -45 25 -73 73 -73zM102 592v161h152v-161h-152zM333 592v161
h152v-161h-152z" />
    <glyph glyph-name="otilde" unicode="&#xf5;" horiz-adv-x="588" 
d="M295 -12c-127 0 -262 53 -262 216v112c0 159 131 229 258 229c128 0 264 -62 264 -225v-111c0 -160 -139 -221 -260 -221zM295 124c45 0 71 29 71 75v132c0 45 -30 77 -72 77c-45 0 -72 -31 -72 -80v-131c0 -45 25 -73 73 -73zM150 585l-80 17c14 84 50 159 135 159
c63 0 121 -36 184 -36c31 0 40 22 53 52l76 -18c-12 -80 -41 -158 -129 -158c-63 0 -123 35 -187 35c-30 0 -39 -12 -52 -51z" />
    <glyph glyph-name="uacute" unicode="&#xfa;" horiz-adv-x="625" 
d="M222 -12c-83 0 -169 49 -169 164v381h186v-312c0 -42 14 -89 74 -89c41 0 74 33 74 100v301h187v-533h-183v77h-2c-41 -59 -98 -89 -167 -89zM260 594l89 182h175l-142 -182h-122z" />
    <glyph glyph-name="ugrave" unicode="&#xf9;" horiz-adv-x="625" 
d="M222 -12c-83 0 -169 49 -169 164v381h186v-312c0 -42 14 -89 74 -89c41 0 74 33 74 100v301h187v-533h-183v77h-2c-41 -59 -98 -89 -167 -89zM256 594l-142 182h175l89 -182h-122z" />
    <glyph glyph-name="ucircumflex" unicode="&#xfb;" horiz-adv-x="625" 
d="M222 -12c-83 0 -169 49 -169 164v381h186v-312c0 -42 14 -89 74 -89c41 0 74 33 74 100v301h187v-533h-183v77h-2c-41 -59 -98 -89 -167 -89zM133 590l121 191h136l113 -191h-131l-53 94l-56 -94h-130z" />
    <glyph glyph-name="udieresis" unicode="&#xfc;" horiz-adv-x="625" 
d="M222 -12c-83 0 -169 49 -169 164v381h186v-312c0 -42 14 -89 74 -89c41 0 74 33 74 100v301h187v-533h-183v77h-2c-41 -59 -98 -89 -167 -89zM120 592v161h152v-161h-152zM352 592v161h152v-161h-152z" />
    <glyph glyph-name="dagger" unicode="&#x2020;" horiz-adv-x="575" 
d="M229 -156v597h-204v102h204v175h117v-175h205v-102h-205v-597h-117z" />
    <glyph glyph-name="degree" unicode="&#xb0;" horiz-adv-x="349" 
d="M175 496c-81 0 -128 58 -128 120c0 67 55 125 128 125c79 0 128 -56 128 -120c0 -70 -59 -125 -128 -125zM175 564c28 0 51 23 51 53c0 28 -19 56 -51 56c-29 0 -49 -24 -49 -56c0 -30 22 -53 49 -53z" />
    <glyph glyph-name="cent" unicode="&#xa2;" horiz-adv-x="585" 
d="M242 -80v91c-103 16 -195 78 -195 206v113c0 130 91 199 195 218v79h128v-79c101 -17 182 -78 182 -180v-28h-174v16c0 48 -33 70 -71 70c-46 0 -78 -26 -78 -78v-135c0 -49 30 -79 79 -79c38 0 70 22 70 70v16h174v-35c0 -101 -81 -158 -182 -174v-91h-128z" />
    <glyph glyph-name="sterling" unicode="&#xa3;" horiz-adv-x="638" 
d="M44 0v150h80v143h-58v106h58v113c0 162 138 213 249 213c114 0 226 -60 226 -193v-48h-164v30c0 38 -22 63 -64 63c-41 0 -62 -31 -62 -63v-115h168v-106h-168v-143h302l-32 -150h-535z" />
    <glyph glyph-name="section" unicode="&#xa7;" horiz-adv-x="552" 
d="M269 -88c-91 0 -214 36 -214 164v36h127v-20c0 -36 26 -68 94 -68c69 0 95 36 95 60c0 35 -37 45 -66 54c-10 3 -71 21 -96 28c-76 22 -143 66 -143 155c0 47 18 88 54 119c-36 26 -55 61 -55 113c0 102 81 170 215 170c121 0 210 -54 210 -164v-33h-123v27
c0 27 -25 60 -92 60c-55 0 -80 -24 -80 -53c0 -25 54 -39 74 -46c18 -6 83 -30 91 -33c62 -22 138 -54 138 -147c0 -48 -16 -92 -53 -122c35 -27 55 -64 55 -115c0 -105 -88 -185 -231 -185zM327 266c32 12 43 33 43 50c0 19 -15 31 -50 42c0 0 -39 12 -79 23
c-30 -11 -45 -27 -45 -54c0 -25 45 -36 64 -41c3 -1 33 -9 67 -20z" />
    <glyph glyph-name="bullet" unicode="&#x2022;" horiz-adv-x="464" 
d="M233 192c-95 0 -171 78 -171 171c0 95 76 171 171 171c94 0 170 -76 170 -171c0 -93 -76 -171 -170 -171z" />
    <glyph glyph-name="paragraph" unicode="&#xb6;" horiz-adv-x="621" 
d="M249 -90v299c-137 14 -189 130 -189 249c0 126 82 255 210 255h309v-86h-46v-717h-106v717h-73v-717h-105z" />
    <glyph glyph-name="germandbls" unicode="&#xdf;" horiz-adv-x="667" 
d="M418 -12c-44 0 -95 5 -127 17v143c16 -5 48 -10 64 -10c53 0 83 27 83 71c0 52 -49 79 -126 79v132h25c37 16 65 53 65 96c0 48 -26 77 -78 77c-55 0 -86 -41 -86 -92v-501h-187v481c0 113 70 245 278 245c143 0 262 -64 262 -194c0 -63 -34 -122 -101 -142v-5
c93 -32 147 -104 147 -189c0 -129 -105 -209 -219 -208z" />
    <glyph glyph-name="registered" unicode="&#xae;" horiz-adv-x="537" 
d="M175 406v245h112c59 0 88 -34 88 -77c0 -31 -14 -59 -43 -74l51 -94h-78l-41 83h-18v-83h-71zM268 298c-141 0 -226 103 -226 225s94 224 226 224c139 0 228 -102 228 -224s-92 -225 -228 -225zM268 348c86 0 167 67 167 175s-77 176 -167 176s-165 -67 -165 -176
c0 -108 79 -175 165 -175zM246 540h31c18 0 29 12 29 28c0 15 -11 28 -28 28h-32v-56z" />
    <glyph glyph-name="copyright" unicode="&#xa9;" horiz-adv-x="928" 
d="M469 77c-108 0 -216 50 -216 182v175c0 123 105 180 214 180c97 0 210 -45 210 -163v-51h-145v38c0 38 -27 55 -61 55c-41 0 -64 -21 -64 -61v-172c0 -40 22 -63 64 -63c34 0 61 20 61 55v44h145v-56c0 -117 -112 -163 -208 -163zM463 -63c-257 0 -408 187 -408 410
s168 407 408 407c250 0 411 -184 411 -407s-165 -410 -411 -410zM463 15c163 0 314 129 314 332c0 204 -147 333 -314 333c-171 0 -311 -127 -311 -333s148 -332 311 -332z" />
    <glyph glyph-name="trademark" unicode="&#x2122;" horiz-adv-x="697" 
d="M340 405v318h116l40 -122l39 122h116v-318h-88v167l-37 -117h-62l-37 116v-166h-87zM127 405v237h-82v81h260v-81h-82v-237h-96z" />
    <glyph glyph-name="acute" unicode="&#xb4;" horiz-adv-x="338" 
d="M40 594l88 182h175l-141 -182h-122z" />
    <glyph glyph-name="dieresis" unicode="&#xa8;" horiz-adv-x="487" 
d="M51 592v161h152v-161h-152zM283 592v161h152v-161h-152z" />
    <glyph glyph-name="notequal" unicode="&#x2260;" horiz-adv-x="592" 
d="M199 18l-84 33l53 97h-153v107h214l59 111h-273v108h333l62 112l83 -33l-43 -79h128v-108h-189l-59 -111h248v-107h-309z" />
    <glyph glyph-name="AE" unicode="&#xc6;" horiz-adv-x="1059" 
d="M5 0l345 713h660v-159h-339v-117h277v-158h-277v-119h340v-160h-541v130h-200l-62 -130h-203zM336 281h134v288z" />
    <glyph glyph-name="Oslash" unicode="&#xd8;" horiz-adv-x="698" 
d="M132 -51l-70 39l51 77c-46 43 -75 105 -75 192v194c0 187 149 274 308 274c64 0 126 -11 178 -38l46 69l66 -41l-48 -74c44 -43 72 -106 72 -189v-190c0 -195 -157 -274 -310 -274c-61 0 -120 10 -170 33zM244 261l139 289c-41 10 -83 -2 -97 -44c-30 0 -46 -15 -46 -136
c0 -5 2 -10 4 -109zM350 149c60 0 108 37 108 107v156c0 5 -1 10 -3 31l-176 -272c18 -15 42 -22 71 -22z" />
    <glyph glyph-name="infinity" unicode="&#x221e;" 
 />
    <glyph glyph-name="plusminus" unicode="&#xb1;" horiz-adv-x="592" 
d="M242 176v188h-227v108h227v188h109v-188h227v-108h-227v-188h-109zM15 0v108h563v-108h-563z" />
    <glyph glyph-name="lessequal" unicode="&#x2264;" horiz-adv-x="592" 
d="M511 172l-472 205v83l470 205l49 -99l-356 -147l358 -148zM15 0v108h563v-108h-563z" />
    <glyph glyph-name="greaterequal" unicode="&#x2265;" horiz-adv-x="592" 
d="M81 172l-49 99l359 148l-357 147l49 99l470 -205v-83zM15 0v108h563v-108h-563z" />
    <glyph glyph-name="yen" unicode="&#xa5;" horiz-adv-x="664" 
d="M231 0v247h-184v103h153l-202 363h209l133 -258l129 258h196l-201 -363h153v-103h-185v-247h-201z" />
    <glyph glyph-name="mu" unicode="&#xb5;" 
 />
    <glyph glyph-name="partialdiff" unicode="&#x2202;" horiz-adv-x="587" 
d="M293 -12c-126 0 -260 52 -260 217v85c0 132 90 204 195 223h9l-148 200l211 8l209 -291c25 -34 45 -81 45 -136v-86c0 -160 -138 -220 -261 -220zM294 124c47 0 71 31 71 77v104c0 45 -28 78 -72 78c-47 0 -71 -34 -71 -81v-103c0 -45 23 -75 72 -75z" />
    <glyph glyph-name="summation" unicode="&#x2211;" 
 />
    <glyph glyph-name="product" unicode="&#x220f;" 
 />
    <glyph glyph-name="pi" unicode="&#x3c0;" horiz-adv-x="822" 
d="M44 0v715h734v-715h-734z" />
    <glyph glyph-name="integral" unicode="&#x222b;" 
 />
    <glyph glyph-name="ordfeminine" unicode="&#xaa;" horiz-adv-x="446" 
d="M162 365c-61 0 -112 32 -112 98c0 99 111 117 179 117h31v22c0 22 -14 39 -44 39c-32 0 -43 -20 -43 -37v-11h-112v17c0 75 77 115 166 115c79 0 159 -35 159 -124v-150c0 -34 4 -68 6 -78h-118l-4 42c-28 -41 -81 -50 -108 -50zM215 451c16 0 44 13 44 43v24h-25
c-32 0 -56 -6 -56 -35c0 -18 9 -32 37 -32zM73 206v108h309v-108h-309z" />
    <glyph glyph-name="ordmasculine" unicode="&#xba;" horiz-adv-x="448" 
d="M224 365c-84 0 -172 34 -172 144v73c0 105 84 150 171 150c85 0 173 -38 173 -148v-74c0 -106 -91 -145 -172 -145zM224 457c31 0 43 20 43 48v86c0 28 -15 49 -42 49c-31 0 -44 -22 -44 -52v-84c0 -29 12 -47 43 -47zM73 206v108h309v-108h-309z" />
    <glyph glyph-name="Omega" unicode="&#x2126;" 
 />
    <glyph glyph-name="ae" unicode="&#xe6;" horiz-adv-x="897" 
d="M621 -13c-91 0 -180 28 -228 95c-58 -90 -149 -94 -194 -94c-98 0 -172 54 -172 154c0 136 150 176 259 176h69v38c0 37 -25 61 -74 61c-53 0 -71 -29 -71 -55v-13h-165v21c0 115 117 174 249 174c62 0 122 -12 166 -42c47 29 103 43 160 43c125 0 239 -74 239 -220v-103
h-317v-18c0 -57 59 -78 108 -78c47 0 124 24 149 39l49 -113c-64 -43 -144 -65 -227 -65zM279 118c42 0 76 27 76 74v32h-58c-47 0 -82 -12 -82 -54c0 -29 16 -52 64 -52zM542 324h143v19c0 47 -31 71 -71 71s-72 -26 -72 -73v-17z" />
    <glyph glyph-name="oslash" unicode="&#xf8;" horiz-adv-x="588" 
d="M119 -48l-64 34l44 63c-40 34 -66 84 -66 155v112c0 159 131 229 258 229c49 0 99 -9 141 -29l40 56l61 -35l-41 -60c38 -36 63 -88 63 -157v-111c0 -160 -139 -221 -260 -221c-46 0 -93 6 -134 23zM223 221l93 177c-29 6 -55 -5 -64 -34c-21 0 -30 -16 -30 -84
c0 -3 0 -5 1 -59zM295 124l42 42c21 0 29 15 29 80c0 3 0 6 -1 56l-114 -166c10 -8 26 -12 44 -12z" />
    <glyph glyph-name="questiondown" unicode="&#xbf;" horiz-adv-x="564" 
d="M277 -172c-155 0 -241 76 -241 202c0 84 49 134 105 176c29 20 79 43 79 85v30h167v-30c0 -57 -20 -89 -61 -126c-36 -32 -109 -69 -109 -125c0 -37 28 -64 68 -64c39 0 82 19 82 61v26h166v-35c0 -137 -128 -200 -256 -200zM212 369v183h187v-183h-187z" />
    <glyph glyph-name="exclamdown" unicode="&#xa1;" horiz-adv-x="315" 
d="M60 -162v249l43 232h109l43 -232v-249h-195zM64 369v183h187v-183h-187z" />
    <glyph glyph-name="logicalnot" unicode="&#xac;" horiz-adv-x="684" 
d="M517 122v168h-502v111h606v-279h-104z" />
    <glyph glyph-name="radical" unicode="&#x221a;" 
 />
    <glyph glyph-name="florin" unicode="&#x192;" horiz-adv-x="407" 
d="M50 -180l51 530h-83l9 109h84l11 115c11 115 103 156 191 156c30 0 66 0 103 -11l-12 -118c-15 2 -37 4 -53 4c-23 0 -40 -12 -43 -36l-12 -110h97l-10 -109h-96l-52 -530h-185z" />
    <glyph glyph-name="approxequal" unicode="&#x2248;" 
 />
    <glyph glyph-name="Delta" unicode="&#x2206;" 
 />
    <glyph glyph-name="guillemotleft" unicode="&#xab;" horiz-adv-x="631" 
d="M245 47l-227 213l227 216l83 -74l-123 -142l125 -142zM530 47l-228 213l227 216l83 -74l-123 -142l125 -142z" />
    <glyph glyph-name="guillemotright" unicode="&#xbb;" horiz-adv-x="627" 
d="M102 47l-84 72l124 142l-123 141l83 74l228 -215zM386 47l-84 72l124 142l-123 141l83 74l228 -215z" />
    <glyph glyph-name="ellipsis" unicode="&#x2026;" horiz-adv-x="821" 
d="M64 0v183h187v-183h-187zM317 0v183h187v-183h-187zM570 0v183h187v-183h-187z" />
    <glyph glyph-name="uni00A0" unicode="&#xa0;" horiz-adv-x="243" 
 />
    <glyph glyph-name="Agrave" unicode="&#xc0;" horiz-adv-x="731" 
d="M8 0l247 714h226l243 -714h-204l-38 124h-246l-39 -124h-189zM282 276h153l-75 245h-3zM315 769l-142 182h175l89 -182h-122z" />
    <glyph glyph-name="Atilde" unicode="&#xc3;" horiz-adv-x="731" 
d="M8 0l247 714h226l243 -714h-204l-38 124h-246l-39 -124h-189zM282 276h153l-75 245h-3zM222 754l-80 18c13 84 50 159 134 159c64 0 121 -37 185 -37c30 0 40 22 52 53l76 -19c-11 -79 -40 -157 -128 -157c-64 0 -123 35 -188 35c-29 0 -39 -13 -51 -52z" />
    <glyph glyph-name="Otilde" unicode="&#xd5;" horiz-adv-x="698" 
d="M350 -12c-162 0 -312 72 -312 269v194c0 187 149 274 308 274c161 0 314 -77 314 -273v-190c0 -195 -157 -274 -310 -274zM350 149c60 0 108 37 108 107v203c0 69 -52 106 -110 106c-62 0 -108 -33 -108 -107v-199c0 -71 43 -110 110 -110zM205 757l-80 17
c14 84 50 159 135 159c63 0 121 -36 184 -36c31 0 40 22 53 52l76 -18c-12 -80 -41 -158 -129 -158c-63 0 -123 35 -187 35c-30 0 -39 -12 -52 -51z" />
    <glyph glyph-name="OE" unicode="&#x152;" horiz-adv-x="1047" 
d="M328 -12c-161 0 -290 72 -290 269v194c0 187 128 274 287 274c45 0 99 -13 133 -35v23h540v-159h-339v-117h277v-158h-277v-119h340v-160h-541v22c-34 -21 -86 -34 -130 -34zM350 149c60 0 108 37 108 107v203c0 69 -52 106 -110 106c-62 0 -108 -33 -108 -107v-199
c0 -71 43 -110 110 -110z" />
    <glyph glyph-name="oe" unicode="&#x153;" horiz-adv-x="911" 
d="M295 -13c-127 0 -262 54 -262 217v112c0 159 131 229 258 229c62 0 126 -15 174 -49c48 33 108 49 169 49c124 0 239 -74 239 -220v-103h-317v-18c0 -57 59 -78 107 -78s125 24 149 39l49 -112c-64 -44 -143 -66 -226 -66c-64 0 -127 15 -176 46
c-48 -31 -108 -46 -164 -46zM295 124c45 0 71 29 71 75v132c0 45 -30 77 -72 77c-45 0 -72 -31 -72 -80v-131c0 -45 25 -73 73 -73zM556 324h143v19c0 47 -31 71 -71 71s-72 -26 -72 -73v-17z" />
    <glyph glyph-name="endash" unicode="&#x2013;" horiz-adv-x="583" 
d="M26 260v112h531v-112h-531z" />
    <glyph glyph-name="emdash" unicode="&#x2014;" horiz-adv-x="983" 
d="M26 260v112h931v-112h-931z" />
    <glyph glyph-name="quotedblleft" unicode="&#x201c;" horiz-adv-x="549" 
d="M60 401v171l71 152h87l-34 -141h64v-182h-188zM301 401v171l71 152h87l-35 -141h64v-182h-187z" />
    <glyph glyph-name="quotedblright" unicode="&#x201d;" horiz-adv-x="549" 
d="M91 401l34 141h-64v182h187v-171l-71 -152h-86zM331 401l35 141h-64v182h187v-171l-71 -152h-87z" />
    <glyph glyph-name="quoteleft" unicode="&#x2018;" horiz-adv-x="308" 
d="M60 401v171l71 152h87l-34 -141h64v-182h-188z" />
    <glyph glyph-name="quoteright" unicode="&#x2019;" horiz-adv-x="308" 
d="M91 401l34 141h-64v182h187v-171l-71 -152h-86z" />
    <glyph glyph-name="divide" unicode="&#xf7;" horiz-adv-x="592" 
d="M216 41v152h160v-152h-160zM23 263v107h546v-107h-546zM216 441v152h160v-152h-160z" />
    <glyph glyph-name="lozenge" unicode="&#x25ca;" 
 />
    <glyph glyph-name="ydieresis" unicode="&#xff;" horiz-adv-x="577" 
d="M159 -192c-33 0 -65 5 -89 10v139c23 -5 47 -7 68 -7c27 0 49 12 56 32l9 24l-194 527h199l97 -321h4l97 321h170l-201 -573c-40 -115 -125 -152 -216 -152zM117 592v161h152v-161h-152zM348 592v161h152v-161h-152z" />
    <glyph glyph-name="Ydieresis" unicode="&#x178;" horiz-adv-x="664" 
d="M231 0v280l-233 433h209l133 -272l129 272h196l-233 -434v-279h-201zM152 767v161h152v-161h-152zM383 767v161h152v-161h-152z" />
    <glyph glyph-name="fraction" unicode="&#x2044;" horiz-adv-x="459" 
d="M-64 -37l457 764h120l-457 -764h-120z" />
    <glyph glyph-name="Euro" unicode="&#x20ac;" horiz-adv-x="750" 
d="M421 -12c-152 0 -284 70 -294 242v5h-84v93h84v63h-84v93h84v3c12 158 144 238 294 238c139 0 294 -67 294 -235v-39h-189v20c0 65 -54 94 -104 94c-51 0 -88 -26 -91 -79v-2h152v-93h-154v-63h154v-93h-153v-5c4 -52 34 -82 93 -82c50 0 103 30 103 95v20h189v-41
c0 -167 -155 -234 -294 -234z" />
    <glyph glyph-name="guilsinglleft" unicode="&#x2039;" horiz-adv-x="347" 
d="M245 47l-227 213l227 216l83 -74l-123 -142l125 -142z" />
    <glyph glyph-name="guilsinglright" unicode="&#x203a;" horiz-adv-x="347" 
d="M102 47l-84 72l124 142l-123 141l83 74l228 -215z" />
    <glyph glyph-name="daggerdbl" unicode="&#x2021;" horiz-adv-x="575" 
d="M229 -155v186h-205v102h205v308h-205v103h205v175h117v-175h205v-103h-205v-308h205v-102h-205v-186h-117z" />
    <glyph glyph-name="periodcentered" unicode="&#xb7;" horiz-adv-x="295" 
d="M54 315v183h187v-183h-187z" />
    <glyph glyph-name="quotesinglbase" unicode="&#x201a;" horiz-adv-x="309" 
d="M91 -141l34 142h-64v181h187v-171l-71 -152h-86z" />
    <glyph glyph-name="quotedblbase" unicode="&#x201e;" horiz-adv-x="549" 
d="M91 -141l34 142h-64v181h187v-171l-71 -152h-86zM331 -141l35 142h-64v181h187v-171l-71 -152h-87z" />
    <glyph glyph-name="perthousand" unicode="&#x2030;" horiz-adv-x="1256" 
d="M204 313c-75 0 -162 32 -162 129v152c0 96 83 131 160 131c76 0 162 -35 162 -134v-149c0 -93 -87 -129 -160 -129zM203 406c29 0 41 19 41 37v155c0 19 -15 35 -41 35c-27 0 -41 -16 -41 -35v-156c0 -19 12 -36 41 -36zM672 -11c-75 0 -162 33 -162 130v152
c0 96 83 131 160 131s162 -34 162 -133v-150c0 -93 -87 -130 -160 -130zM671 83c29 0 41 19 41 38v155c0 18 -14 34 -41 34s-41 -15 -41 -34v-157c0 -19 12 -36 41 -36zM1054 -11c-75 0 -162 33 -162 130v152c0 96 84 131 161 131c76 0 161 -34 161 -133v-150
c0 -93 -87 -130 -160 -130zM1053 83c29 0 41 19 41 38v155c0 18 -14 34 -41 34s-41 -15 -41 -34v-157c0 -19 12 -36 41 -36zM156 -9l467 728h98l-466 -728h-99z" />
    <glyph glyph-name="Acircumflex" unicode="&#xc2;" horiz-adv-x="731" 
d="M8 0l247 714h226l243 -714h-204l-38 124h-246l-39 -124h-189zM282 276h153l-75 245h-3zM180 777l121 191h136l114 -191h-132l-53 94l-56 -94h-130z" />
    <glyph glyph-name="Ecircumflex" unicode="&#xca;" horiz-adv-x="645" 
d="M56 0v713h540v-159h-339v-117h277v-158h-277v-119h340v-160h-541zM151 766l121 191h136l114 -191h-132l-53 95l-56 -95h-130z" />
    <glyph glyph-name="Aacute" unicode="&#xc1;" horiz-adv-x="731" 
d="M8 0l247 714h226l243 -714h-204l-38 124h-246l-39 -124h-189zM282 276h153l-75 245h-3zM298 768l89 181h175l-142 -181h-122z" />
    <glyph glyph-name="Edieresis" unicode="&#xcb;" horiz-adv-x="645" 
d="M56 0v713h540v-159h-339v-117h277v-158h-277v-119h340v-160h-541zM141 764v161h152v-161h-152zM372 764v161h152v-161h-152z" />
    <glyph glyph-name="Egrave" unicode="&#xc8;" horiz-adv-x="645" 
d="M56 0v713h540v-159h-339v-117h277v-158h-277v-119h340v-160h-541zM294 766l-142 182h175l89 -182h-122z" />
    <glyph glyph-name="Iacute" unicode="&#xcd;" horiz-adv-x="313" 
d="M50 0v713h224v-713h-224zM91 765l90 184h187l-146 -184h-131z" />
    <glyph glyph-name="Icircumflex" unicode="&#xce;" horiz-adv-x="313" 
d="M50 0v713h224v-713h-224zM-33 761l128 197h144l119 -197h-140l-55 93l-57 -93h-139z" />
    <glyph glyph-name="Idieresis" unicode="&#xcf;" horiz-adv-x="313" 
d="M50 0v713h224v-713h-224zM-40 764v171h163v-171h-163zM202 764v171h163v-171h-163z" />
    <glyph glyph-name="Igrave" unicode="&#xcc;" horiz-adv-x="313" 
d="M50 0v713h224v-713h-224zM115 765l-146 184h187l90 -184h-131z" />
    <glyph glyph-name="Oacute" unicode="&#xd3;" horiz-adv-x="698" 
d="M350 -12c-162 0 -312 72 -312 269v194c0 187 149 274 308 274c161 0 314 -77 314 -273v-190c0 -195 -157 -274 -310 -274zM350 149c60 0 108 37 108 107v203c0 69 -52 106 -110 106c-62 0 -108 -33 -108 -107v-199c0 -71 43 -110 110 -110zM279 772l88 182h175l-141 -182
h-122z" />
    <glyph glyph-name="Ocircumflex" unicode="&#xd4;" horiz-adv-x="698" 
d="M350 -12c-162 0 -312 72 -312 269v194c0 187 149 274 308 274c161 0 314 -77 314 -273v-190c0 -195 -157 -274 -310 -274zM350 149c60 0 108 37 108 107v203c0 69 -52 106 -110 106c-62 0 -108 -33 -108 -107v-199c0 -71 43 -110 110 -110zM163 767l121 191h137l113 -191
h-131l-54 95l-56 -95h-130z" />
    <glyph glyph-name="apple" horiz-adv-x="1009" 
d="M627 -77l-154 3l-18 -2l-6 7c21 6 28 7 40 11c46 15 52 47 55 60c4 36 10 126 14 219c-35 -1 -69 -2 -98 -3l2 11l97 6c5 92 9 183 10 219l39 23c-58 3 -119 5 -178 7c-1 -50 -5 -105 -7 -139c-11 -209 -138 -276 -193 -276c-41 0 -125 28 -150 42l23 37
c13 -3 112 -48 158 -47c64 1 127 102 124 199c1 23 3 102 5 185c-20 0 -40 1 -61 1c-76 0 -154 -64 -154 -147c11 -25 37 -49 77 -67c0 -7 -11 -32 -16 -37c-56 24 -70 67 -73 96c0 99 83 172 197 192h31c2 68 4 133 5 166l40 18c-76 3 -156 8 -243 8
c-76 0 -154 -62 -154 -145c12 -25 38 -46 78 -63c0 -6 -18 -32 -21 -37c-57 24 -71 66 -74 96c0 99 100 165 188 187c114 0 217 -8 343 -11c24 0 38 -1 62 -2c9 0 32 -1 40 -1c17 -1 22 1 33 3c8 6 18 18 22 27l8 -3c-5 -13 -18 -29 -24 -34c-39 -20 -67 -29 -113 -29
s-93 2 -140 4c-5 -25 -4 -114 -7 -135c-1 -14 -1 -32 -2 -50c122 -4 263 -14 396 -14c-6 -1 113 -5 155 15l4 -6c-70 -31 -135 -43 -224 -43c-44 0 -94 1 -147 3c-5 -34 -11 -165 -13 -187c0 -13 -1 -31 -2 -53l147 10h4l4 -3l-35 -52l-7 4l23 35c-40 -3 -88 -6 -137 -9
c-4 -67 -10 -154 -13 -193c-3 -22 -31 -64 -55 -75l1 -1c52 9 114 4 165 8v-1c0 -13 -13 -33 -28 -35c-11 -2 -25 -2 -43 -2z" />
    <glyph glyph-name="Ograve" unicode="&#xd2;" horiz-adv-x="698" 
d="M350 -12c-162 0 -312 72 -312 269v194c0 187 149 274 308 274c161 0 314 -77 314 -273v-190c0 -195 -157 -274 -310 -274zM350 149c60 0 108 37 108 107v203c0 69 -52 106 -110 106c-62 0 -108 -33 -108 -107v-199c0 -71 43 -110 110 -110zM306 774l-142 181h175l89 -181
h-122z" />
    <glyph glyph-name="Uacute" unicode="&#xda;" horiz-adv-x="717" 
d="M355 -13c-188 0 -302 86 -302 269v457h201v-447c0 -76 42 -118 110 -118c64 0 104 42 104 118v447h196v-451c0 -182 -141 -275 -309 -275zM301 766l89 182h175l-142 -182h-122z" />
    <glyph glyph-name="Ucircumflex" unicode="&#xdb;" horiz-adv-x="717" 
d="M355 -13c-188 0 -302 86 -302 269v457h201v-447c0 -76 42 -118 110 -118c64 0 104 42 104 118v447h196v-451c0 -182 -141 -275 -309 -275zM180 762l121 191h137l113 -191h-131l-54 94l-56 -94h-130z" />
    <glyph glyph-name="Ugrave" unicode="&#xd9;" horiz-adv-x="717" 
d="M355 -13c-188 0 -302 86 -302 269v457h201v-447c0 -76 42 -118 110 -118c64 0 104 42 104 118v447h196v-451c0 -182 -141 -275 -309 -275zM307 764l-142 181h175l89 -181h-122z" />
    <glyph glyph-name="dotlessi" unicode="&#x131;" horiz-adv-x="289" 
d="M51 0v533h187v-533h-187z" />
    <glyph glyph-name="circumflex" unicode="&#x2c6;" horiz-adv-x="417" 
d="M23 590l121 191h137l113 -191h-131l-54 94l-56 -94h-130z" />
    <glyph glyph-name="tilde" unicode="&#x2dc;" horiz-adv-x="508" 
d="M111 585l-80 17c13 84 49 159 134 159c64 0 121 -36 184 -36c31 0 41 22 53 52l76 -18c-11 -80 -41 -158 -128 -158c-64 0 -124 35 -188 35c-30 0 -39 -12 -51 -51z" />
    <glyph glyph-name="macron" unicode="&#xaf;" horiz-adv-x="464" 
d="M31 602v133h402v-133h-402z" />
    <glyph glyph-name="breve" unicode="&#x2d8;" horiz-adv-x="449" 
d="M224 589c-107 0 -195 75 -199 190h107c16 -52 41 -88 97 -88c43 0 79 32 85 88h109c-2 -127 -108 -190 -199 -190z" />
    <glyph glyph-name="dotaccent" unicode="&#x2d9;" horiz-adv-x="258" 
d="M53 592v161h152v-161h-152z" />
    <glyph glyph-name="ring" unicode="&#x2da;" horiz-adv-x="331" 
d="M165 585c-69 0 -122 42 -122 112c0 69 56 119 122 119c69 0 123 -39 123 -112c0 -68 -57 -119 -123 -119zM165 648c29 0 53 22 53 53c0 32 -21 54 -53 54c-31 0 -52 -23 -52 -54c0 -30 24 -53 52 -53z" />
    <glyph glyph-name="cedilla" unicode="&#xb8;" horiz-adv-x="369" 
d="M174 -200c-30 0 -74 3 -113 13v67c36 -9 80 -15 104 -15c31 0 41 9 41 22c0 19 -24 19 -40 20l-51 3l28 103h70l-14 -54c52 1 128 -8 128 -70c0 -61 -72 -89 -153 -89z" />
    <glyph glyph-name="hungarumlaut" unicode="&#x2dd;" horiz-adv-x="549" 
d="M45 590l87 180h162l-127 -180h-122zM257 590l87 180h162l-127 -180h-122z" />
    <glyph glyph-name="ogonek" unicode="&#x2db;" horiz-adv-x="400" 
d="M212 -198c-70 0 -128 23 -128 77c0 65 81 113 153 136l70 -15c-72 -27 -104 -60 -104 -98c0 -27 20 -38 42 -38c9 0 34 3 53 8v-60c-31 -7 -61 -10 -86 -10z" />
    <glyph glyph-name="caron" unicode="&#x2c7;" horiz-adv-x="387" 
d="M121 602l-113 192h131l54 -95l56 95h130l-121 -192h-137z" />
    <glyph glyph-name="currency" unicode="&#xa4;" horiz-adv-x="750" 
d="M421 -12c-152 0 -284 70 -294 242v5h-84v93h84v63h-84v93h84v3c12 158 144 238 294 238c139 0 294 -67 294 -235v-39h-189v20c0 65 -54 94 -104 94c-51 0 -88 -26 -91 -79v-2h152v-93h-154v-63h154v-93h-153v-5c4 -52 34 -82 93 -82c50 0 103 30 103 95v20h189v-41
c0 -167 -155 -234 -294 -234z" />
    <glyph glyph-name="uni00AD" unicode="&#xad;" horiz-adv-x="363" 
d="M30 222v150h303v-150h-303z" />
    </font>
</defs>
</svg>
