<?xml version="1.0" standalone="no"?>
<!DOCTYPE svg PUBLIC "-//W3C//DTD SVG 1.1//EN" "http://www.w3.org/Graphics/SVG/1.1/DTD/svg11.dtd" >
<svg xmlns="http://www.w3.org/2000/svg" xmlns:xlink="http://www.w3.org/1999/xlink" version="1.1">
<metadata>
Created by FontForge 20161003 at Wed May 16 12:43:52 2018
 By www-data
FTF Flama Copyright (c) Feliciano Type Foundry, 2004-2006. All rights reserved.
</metadata>
<defs>
<font id="Flama-LightItalic" horiz-adv-x="500" >
  <font-face 
    font-family="Flama Light Italic"
    font-weight="525"
    font-style="italic"
    font-stretch="normal"
    units-per-em="1000"
    panose-1="2 0 5 6 0 0 0 2 0 4"
    ascent="800"
    descent="-200"
    x-height="497"
    cap-height="713"
    bbox="-98 -208 1078 944"
    underline-thickness="50"
    underline-position="-100"
    unicode-range="U+0020-FB02"
  />
<missing-glyph horiz-adv-x="890" 
d="M235 118l-40 40l185 185l-185 185l40 40l185 -185l185 185l40 -40l-185 -185l185 -185l-40 -40l-185 185zM55 -18v716h712v-716h-712zM115 42h592v596h-592v-596z" />
    <glyph glyph-name="fi" unicode="fi" horiz-adv-x="524" 
d="M59 -179l110 630h-98l8 45h99l16 94c15 93 72 138 154 138c19 0 35 -1 52 -6l-8 -48c-16 5 -27 6 -48 6c-42 0 -83 -24 -94 -85l-16 -99h118l-8 -45h-119l-110 -619zM363 0l87 497h57l-88 -497h-56zM472 619l18 101h57l-19 -101h-56z" />
    <glyph glyph-name="fl" unicode="fl" horiz-adv-x="596" 
d="M59 -179l110 630h-98l8 45h99l16 94c15 93 72 138 154 138c19 0 35 -1 52 -6l-8 -48c-16 5 -27 6 -48 6c-42 0 -83 -24 -94 -85l-16 -99h118l-8 -45h-119l-110 -619zM481 -5c-63 0 -95 32 -95 85c0 12 2 25 4 37l105 597h57l-106 -601c-1 -5 -2 -16 -2 -22
c0 -33 24 -48 60 -48c19 0 43 3 58 5l-8 -43c-27 -7 -51 -10 -73 -10z" />
    <glyph glyph-name=".notdef" horiz-adv-x="890" 
d="M235 118l-40 40l185 185l-185 185l40 40l185 -185l185 185l40 -40l-185 -185l185 -185l-40 -40l-185 185zM55 -18v716h712v-716h-712zM115 42h592v596h-592v-596z" />
    <glyph glyph-name="space" unicode=" " horiz-adv-x="219" 
 />
    <glyph glyph-name="Eth" unicode="&#xd0;" horiz-adv-x="651" 
d="M50 0l60 346h-72l8 44h72l57 323h260c124 0 212 -62 212 -182c0 -16 -2 -33 -5 -51c-4 -25 -9 -55 -43 -247c-26 -146 -136 -233 -288 -233h-261zM119 53h196c129 0 206 83 223 178c4 26 9 56 43 247c2 14 6 30 6 44c0 85 -59 138 -166 138h-194l-49 -270h238l-8 -44
h-237z" />
    <glyph glyph-name="eth" unicode="&#xf0;" horiz-adv-x="502" 
d="M216 -13c-104 0 -174 46 -174 145c0 15 2 31 5 47c6 35 16 95 22 129c26 135 123 200 237 200c12 0 45 -2 74 -18l-55 125l-104 -29l-13 38l102 28l-33 69l53 15l32 -71l113 30l12 -37l-108 -29c18 -37 37 -86 84 -195c8 -18 13 -44 13 -68c0 -20 -3 -47 -6 -67
c-1 -6 -5 -26 -20 -110c-22 -126 -106 -202 -234 -202zM225 35c100 0 152 62 168 154l22 124c2 14 5 35 5 48c0 64 -35 101 -114 101c-99 0 -159 -51 -179 -154c-6 -26 -10 -55 -23 -129c-3 -13 -4 -27 -4 -38c0 -68 41 -106 125 -106z" />
    <glyph glyph-name="Lslash" unicode="&#x141;" horiz-adv-x="551" 
d="M50 0l54 311l-80 -35l8 50l81 35l62 353h61l-58 -324l181 78l-8 -49l-182 -79l-50 -287h378l-9 -53h-438z" />
    <glyph glyph-name="lslash" unicode="&#x142;" horiz-adv-x="273" 
d="M158 -5c-63 0 -95 32 -95 85c0 12 2 25 4 37l38 214l-79 -35l8 48l80 36l58 334h57l-55 -309l122 54l-8 -49l-122 -54l-43 -243c-1 -5 -2 -16 -2 -22c0 -33 24 -48 60 -48c19 0 43 3 58 5l-8 -43c-27 -7 -51 -10 -73 -10z" />
    <glyph glyph-name="Scaron" unicode="&#x160;" horiz-adv-x="586" 
d="M256 -12c-123 0 -212 56 -242 164l56 22c20 -85 93 -134 194 -134c103 0 201 52 201 153c0 67 -50 109 -165 150c-121 45 -183 93 -183 179c0 126 105 204 245 204c98 0 185 -34 219 -127l-50 -20c-31 65 -92 95 -173 95c-92 0 -180 -51 -180 -145c0 -53 48 -96 176 -145
c112 -42 171 -93 171 -174c0 -144 -118 -222 -269 -222zM357 778l-58 156h50l42 -118l89 118h52l-121 -156h-54z" />
    <glyph glyph-name="scaron" unicode="&#x161;" horiz-adv-x="451" 
d="M194 -12c-74 0 -142 20 -182 67l36 35c38 -35 86 -57 149 -57c67 0 146 26 146 106c0 45 -43 68 -110 93c-97 37 -143 64 -143 133c0 82 66 144 183 144c60 0 120 -14 159 -49l-34 -36c-29 21 -79 40 -132 40c-69 0 -123 -35 -123 -94c0 -41 34 -62 92 -85
c89 -36 163 -65 163 -138c0 -118 -107 -159 -204 -159zM262 576l-58 156h50l42 -118l89 118h52l-121 -156h-54z" />
    <glyph glyph-name="Yacute" unicode="&#xdd;" horiz-adv-x="573" 
d="M221 0l52 300l-155 413h65l129 -353l253 353h68l-301 -414l-52 -299h-59zM368 766l118 156h69l-138 -156h-49z" />
    <glyph glyph-name="yacute" unicode="&#xfd;" horiz-adv-x="475" 
d="M8 -206c-18 0 -36 2 -60 8l10 48c18 -4 40 -6 60 -6c44 0 84 29 108 71l52 97l-104 486h60l84 -417h2l214 417h60l-315 -591c-49 -92 -112 -113 -171 -113zM272 568l118 156h69l-138 -156h-49z" />
    <glyph glyph-name="Thorn" unicode="&#xde;" horiz-adv-x="592" 
d="M50 0l125 713h60l-23 -129h181c118 0 192 -65 192 -169c0 -163 -127 -256 -285 -256h-162l-28 -159h-60zM147 210h151c127 0 227 64 227 195c0 80 -61 129 -147 129h-174z" />
    <glyph glyph-name="thorn" unicode="&#xfe;" horiz-adv-x="522" 
d="M5 -195l160 909h57l-54 -307h3c45 71 117 102 180 102c90 0 148 -51 148 -129c0 -11 -1 -21 -3 -32c-4 -20 -7 -41 -32 -179c-22 -125 -119 -181 -214 -181c-60 0 -123 38 -134 101h-3l-51 -284h-57zM252 35c73 0 140 46 155 134c0 0 8 41 30 169c2 10 3 19 3 28
c0 62 -44 94 -116 94c-75 0 -158 -62 -176 -162l-18 -105c-2 -11 -3 -23 -3 -33c0 -80 57 -125 125 -125z" />
    <glyph glyph-name="Zcaron" unicode="&#x17d;" horiz-adv-x="544" 
d="M-17 0l9 47l496 615h-373l9 51h450c0 -3 -1 -6 -8 -46l-494 -614h386l-10 -53h-465zM330 774l-58 156h50l42 -118l89 118h52l-121 -156h-54z" />
    <glyph glyph-name="zcaron" unicode="&#x17e;" horiz-adv-x="447" 
d="M-2 0l8 42l356 409h-276l8 47h353l-8 -43l-357 -408h290l-9 -47h-365zM257 576l-58 156h50l42 -118l89 118h52l-121 -156h-54z" />
    <glyph glyph-name="onehalf" unicode="&#xbd;" 
 />
    <glyph glyph-name="onequarter" unicode="&#xbc;" 
 />
    <glyph glyph-name="onesuperior" unicode="&#xb9;" 
 />
    <glyph glyph-name="threequarters" unicode="&#xbe;" 
 />
    <glyph glyph-name="threesuperior" unicode="&#xb3;" 
 />
    <glyph glyph-name="twosuperior" unicode="&#xb2;" 
 />
    <glyph glyph-name="brokenbar" unicode="&#xa6;" horiz-adv-x="491" 
d="M179 -137l72 411h39l-72 -411h-39zM263 347l67 378h39l-67 -378h-39z" />
    <glyph glyph-name="minus" unicode="&#x2212;" horiz-adv-x="564" 
d="M59 295l7 43h493l-8 -43h-492z" />
    <glyph glyph-name="multiply" unicode="&#xd7;" horiz-adv-x="564" 
d="M453 107l-149 182l-210 -178l-27 33l210 179l-148 180l35 29l147 -181l206 177l28 -34l-206 -177l150 -181z" />
    <glyph glyph-name="exclam" unicode="!" horiz-adv-x="277" 
d="M123 199l34 256l45 258h61l-45 -260l-56 -254h-39zM76 0l19 105h61l-19 -105h-61z" />
    <glyph glyph-name="quotedbl" unicode="&#x22;" horiz-adv-x="354" 
d="M141 510l9 111l16 94h56l-16 -94l-30 -111h-35zM287 510l9 111l16 94h56l-17 -94l-29 -111h-35z" />
    <glyph glyph-name="numbersign" unicode="#" horiz-adv-x="566" 
d="M99 -4l39 198h-106l9 40h104l50 248h-109l8 38h107l37 183h38l-36 -183h188l36 183h38l-35 -183h104l-7 -38h-103l-51 -248h107l-7 -40h-106l-39 -198h-40l38 198h-186l-37 -198h-41zM185 234h185l51 248h-187z" />
    <glyph glyph-name="dollar" unicode="$" horiz-adv-x="535" 
d="M213 -35l18 97c-95 5 -159 52 -177 128l40 26c19 -70 75 -108 161 -108c91 0 166 45 166 128c0 55 -46 79 -99 98c-99 34 -187 58 -187 151c0 107 87 175 198 179l15 89h43l-15 -91c65 -7 120 -35 149 -92l-39 -32c-24 49 -79 78 -146 78c-74 0 -146 -43 -146 -124
c0 -34 32 -65 90 -84c29 -10 54 -20 83 -31c68 -26 116 -62 116 -134c0 -105 -86 -176 -210 -182l-17 -96h-43z" />
    <glyph glyph-name="percent" unicode="%" horiz-adv-x="761" 
d="M217 357c-66 0 -107 32 -107 92c0 9 1 17 2 27l24 131c14 82 78 119 147 119c61 0 110 -28 110 -92c0 -8 -1 -17 -3 -27l-24 -136c-13 -76 -81 -114 -149 -114zM224 393c56 0 94 36 101 77l24 143c1 5 2 11 2 15c0 35 -24 64 -74 64c-54 0 -90 -35 -98 -79l-25 -143
c-1 -6 -1 -11 -1 -17c0 -36 23 -60 71 -60zM537 -11c-62 0 -106 28 -106 89c0 8 0 16 2 25l23 131c15 83 79 123 148 123c62 0 111 -27 111 -92c0 -8 -1 -17 -3 -27l-24 -135c-14 -77 -82 -114 -151 -114zM545 24c57 0 93 36 101 78l25 142c1 6 2 10 2 15
c0 35 -25 64 -74 64c-56 0 -91 -34 -99 -79l-25 -142c-1 -6 -1 -12 -1 -18c0 -36 23 -60 71 -60zM119 -8l546 731h43l-545 -731h-44z" />
    <glyph glyph-name="ampersand" unicode="&#x26;" horiz-adv-x="684" 
d="M293 -14c-107 0 -217 57 -217 182c0 120 95 198 186 214l1 3c-64 26 -97 88 -97 139c0 134 105 203 238 203c90 0 181 -37 181 -131c0 -11 -1 -23 -3 -36h-53c1 7 1 20 1 28c0 68 -66 94 -139 94c-93 0 -168 -61 -168 -152c0 -70 70 -126 122 -126h363
c-1 -7 -1 -7 -8 -48h-105l-26 -147c-25 -137 -114 -223 -276 -223zM297 32c125 0 190 70 212 168l27 156h-216c-108 0 -182 -91 -182 -183c0 -93 80 -141 159 -141z" />
    <glyph glyph-name="quotesingle" unicode="'" horiz-adv-x="208" 
d="M145 510l9 111l16 94h56l-17 -94l-29 -111h-35z" />
    <glyph glyph-name="parenleft" unicode="(" horiz-adv-x="324" 
d="M185 -187c-45 81 -63 202 -63 300c0 227 84 465 225 627h39c-127 -168 -215 -403 -215 -641c0 -101 17 -198 50 -286h-36z" />
    <glyph glyph-name="parenright" unicode=")" horiz-adv-x="324" 
d="M-30 -187c132 183 215 417 215 646c0 104 -21 191 -50 279h35c46 -91 64 -198 64 -301c0 -211 -82 -445 -223 -624h-41z" />
    <glyph glyph-name="asterisk" unicode="*" horiz-adv-x="413" 
d="M154 429l-29 20l101 115l-110 74l25 31l112 -75l26 144h38l-26 -144l138 75l15 -31l-139 -75l63 -114l-34 -20l-69 124z" />
    <glyph glyph-name="plus" unicode="+" horiz-adv-x="564" 
d="M244 70l40 226h-225l7 42h226l40 226h43l-40 -226h224l-8 -42h-224l-40 -226h-43z" />
    <glyph glyph-name="comma" unicode="," horiz-adv-x="209" 
d="M34 -100l35 101h-20l18 105h63l-19 -104l-46 -102h-31z" />
    <glyph glyph-name="hyphen" unicode="-" horiz-adv-x="355" 
d="M51 257l9 53h256l-9 -53h-256z" />
    <glyph glyph-name="period" unicode="." horiz-adv-x="209" 
d="M49 0l19 106h62l-19 -106h-62z" />
    <glyph glyph-name="slash" unicode="/" horiz-adv-x="339" 
d="M12 -108l305 835h46l-303 -835h-48z" />
    <glyph glyph-name="zero" unicode="0" horiz-adv-x="578" 
d="M264 -13c-112 0 -204 54 -204 161c0 12 1 26 3 40c12 71 26 147 59 335c30 137 146 203 267 203c112 0 194 -56 194 -162c0 -13 -1 -26 -4 -41l-58 -325c-23 -136 -136 -211 -257 -211zM273 35c105 0 172 76 189 165l58 325c2 9 3 26 3 34c0 69 -50 119 -144 119
c-104 0 -181 -72 -197 -157l-58 -330c-2 -9 -3 -21 -3 -30c0 -80 57 -126 152 -126z" />
    <glyph glyph-name="one" unicode="1" horiz-adv-x="507" 
d="M26 0l7 45h181l108 614l-172 -33l4 44l215 45h21l-118 -670h168l-8 -45h-406z" />
    <glyph glyph-name="two" unicode="2" horiz-adv-x="521" 
d="M40 0l8 39l222 207c109 99 195 188 195 316c0 65 -49 118 -127 118c-86 0 -147 -51 -164 -148h-53c2 11 4 21 7 31c29 109 106 163 221 163c106 0 174 -65 174 -159c0 -164 -115 -257 -246 -382l-147 -132v-3h322l-9 -50h-403z" />
    <glyph glyph-name="three" unicode="3" horiz-adv-x="540" 
d="M226 -13c-113 0 -185 54 -185 133c0 16 4 37 7 52h57c-2 -12 -5 -28 -5 -41c0 -68 69 -96 137 -96c96 0 188 77 188 190c0 95 -89 124 -138 124h-67l8 43h65c92 0 174 66 174 179c0 74 -55 107 -119 107c-83 0 -159 -37 -174 -140h-54c0 5 1 8 3 21
c20 103 115 167 235 167c110 0 168 -61 168 -142c0 -79 -45 -184 -155 -210v-2c67 -18 116 -70 116 -143c0 -145 -126 -242 -261 -242z" />
    <glyph glyph-name="four" unicode="4" horiz-adv-x="572" 
d="M328 0l35 202h-304l9 49l366 463h63l-369 -462h244l27 156l65 51l-36 -207h104l-9 -50h-104l-35 -202h-56z" />
    <glyph glyph-name="five" unicode="5" horiz-adv-x="538" 
d="M234 -13c-112 0 -182 53 -182 130c0 18 3 38 7 55h57c-4 -11 -6 -27 -6 -40c0 -67 67 -96 132 -96c90 0 168 57 192 163c5 23 9 50 9 76c0 83 -55 122 -127 122c-56 0 -113 -26 -155 -57c-4 0 -9 2 -54 8c18 71 37 151 88 366h352l-9 -49h-305l-68 -283
c67 42 119 57 177 57c87 0 163 -51 163 -151c0 -30 -6 -64 -12 -92c-29 -136 -133 -209 -259 -209z" />
    <glyph glyph-name="six" unicode="6" horiz-adv-x="551" 
d="M254 -13c-108 0 -183 62 -183 161c0 13 1 26 4 41c12 63 48 275 60 338c23 123 126 199 248 199c99 0 178 -42 178 -132c0 -16 -3 -33 -6 -51h-56c4 19 5 28 5 37c0 65 -48 99 -127 99c-99 0 -167 -65 -183 -150l-31 -182c55 70 134 99 203 99c88 0 153 -45 153 -138
c0 -12 0 -16 -23 -142c-23 -121 -120 -179 -242 -179zM265 35c94 0 161 57 174 133c15 88 20 104 20 130c0 83 -63 104 -124 104c-74 0 -173 -59 -188 -141c-8 -52 -15 -80 -15 -104c0 -69 45 -122 133 -122z" />
    <glyph glyph-name="seven" unicode="7" horiz-adv-x="517" 
d="M147 0c60 254 169 499 347 657h-363l10 56h430l-7 -44c-203 -194 -298 -410 -357 -669h-60z" />
    <glyph glyph-name="eight" unicode="8" horiz-adv-x="544" 
d="M246 -13c-103 0 -187 48 -187 147c0 11 1 22 10 71c14 76 74 139 152 160c-61 18 -91 67 -91 119c0 13 2 26 8 60c22 121 133 182 239 182c92 0 180 -41 180 -140c0 -13 -4 -44 -11 -77c-10 -59 -65 -122 -143 -143c59 -17 101 -59 101 -130c0 -15 -4 -31 -10 -64
c-21 -121 -128 -185 -248 -185zM255 34c90 0 160 51 179 136c7 37 10 53 10 66c0 76 -60 106 -134 106c-76 0 -164 -42 -180 -134c-6 -33 -9 -48 -9 -62c0 -73 61 -112 134 -112zM319 385c70 0 158 47 172 129c8 46 10 56 10 64c0 69 -58 100 -135 100
c-72 0 -153 -46 -169 -127c-6 -34 -9 -49 -9 -63c0 -73 63 -103 131 -103z" />
    <glyph glyph-name="nine" unicode="9" horiz-adv-x="556" 
d="M239 -12c-99 0 -172 42 -172 131c0 17 3 34 6 52h56c-4 -19 -5 -29 -5 -38c0 -65 45 -99 124 -99c99 0 170 65 185 151c3 18 6 33 31 180c-51 -68 -133 -98 -203 -98c-84 0 -152 45 -152 138c0 8 0 16 21 136c21 121 122 185 244 185c108 0 182 -61 182 -160
c0 -14 -1 -27 -3 -41c-12 -64 -48 -276 -60 -339c-23 -123 -132 -198 -254 -198zM289 310c75 0 177 62 193 150c7 44 14 73 14 97c0 69 -45 122 -132 122c-95 0 -162 -57 -175 -133c-20 -113 -21 -112 -21 -130c0 -83 61 -106 121 -106z" />
    <glyph glyph-name="colon" unicode=":" horiz-adv-x="209" 
d="M42 0l19 105h63l-19 -105h-63zM108 372l18 105h62l-18 -105h-62z" />
    <glyph glyph-name="semicolon" unicode=";" horiz-adv-x="209" 
d="M30 -100l36 101h-21l19 104h62l-18 -103l-46 -102h-32zM111 372l19 105h62l-19 -105h-62z" />
    <glyph glyph-name="less" unicode="&#x3c;" horiz-adv-x="564" 
d="M460 94l-400 206l6 34l471 199l16 -40l-430 -179l358 -184z" />
    <glyph glyph-name="equal" unicode="=" horiz-adv-x="564" 
d="M31 204l7 41h492l-6 -41h-493zM64 393l7 41h493l-7 -41h-493z" />
    <glyph glyph-name="greater" unicode="&#x3e;" horiz-adv-x="564" 
d="M66 96l-19 35l426 189l-362 178l22 36l404 -200l-6 -34z" />
    <glyph glyph-name="question" unicode="?" horiz-adv-x="520" 
d="M207 190l8 46c14 65 54 104 104 145c60 52 133 103 133 195c0 65 -44 102 -117 102c-58 0 -142 -28 -162 -126c-1 -3 -2 -6 -4 -23h-54l5 27c23 124 123 169 229 169c101 0 162 -48 162 -136c0 -113 -72 -174 -136 -226c-49 -40 -96 -70 -106 -128l-8 -45h-54zM167 0
l19 105h63l-19 -105h-63z" />
    <glyph glyph-name="at" unicode="@" horiz-adv-x="948" 
d="M507 -166c-52 0 -116 9 -164 24c-152 52 -271 178 -267 383c0 274 194 447 456 447c212 0 384 -145 384 -347c0 -221 -159 -314 -287 -314h-45l17 95h-3c-47 -78 -119 -107 -173 -107c-87 0 -138 45 -138 123c0 11 1 25 3 36c2 14 5 28 25 154c22 122 109 179 200 179
c59 0 122 -32 132 -100h3l16 94h50l-76 -440c108 3 232 94 232 284c0 180 -166 305 -343 305c-241 0 -411 -159 -411 -406c0 -194 110 -311 251 -353c40 -12 94 -19 145 -19c75 0 147 12 201 27l8 -32c-67 -24 -143 -33 -216 -33zM445 60c79 0 157 71 174 169l13 81
c1 11 3 21 3 31c0 86 -57 122 -119 122c-74 0 -133 -44 -148 -128l-27 -156c-1 -8 -2 -22 -2 -33c0 -54 36 -86 106 -86z" />
    <glyph glyph-name="A" unicode="A" horiz-adv-x="652" 
d="M4 0l391 715h58l137 -715h-62l-41 226h-299l-122 -226h-62zM213 277h266l-67 365h-2z" />
    <glyph glyph-name="B" unicode="B" horiz-adv-x="614" 
d="M50 0l125 713h261c97 0 172 -53 172 -149c0 -97 -62 -173 -165 -191l-1 -2c83 -13 126 -76 126 -145c0 -154 -135 -226 -252 -226h-266zM119 52h192c97 0 196 49 196 170c0 81 -70 119 -148 119h-189zM179 393h182c88 0 184 45 184 160c0 75 -62 108 -133 108h-185z" />
    <glyph glyph-name="C" unicode="C" horiz-adv-x="632" 
d="M298 -13c-128 0 -228 66 -228 194c0 16 1 31 4 48c5 29 10 58 44 249c30 154 152 249 309 249c130 0 215 -67 215 -170c0 -15 -3 -42 -9 -75h-58c6 37 7 49 7 60c0 79 -60 130 -167 130c-123 0 -217 -82 -237 -195c-5 -29 -10 -58 -42 -244c-3 -14 -4 -28 -4 -41
c0 -96 71 -151 176 -151c120 0 200 69 218 163c0 1 0 2 3 16h57l-5 -28c-23 -122 -134 -205 -283 -205z" />
    <glyph glyph-name="D" unicode="D" horiz-adv-x="651" 
d="M50 0l125 713h260c124 0 212 -62 212 -182c0 -16 -2 -33 -5 -51c-4 -25 -9 -55 -43 -247c-26 -146 -136 -233 -288 -233h-261zM119 53h196c129 0 206 83 223 178c4 26 9 56 43 247c2 14 6 30 6 44c0 85 -59 138 -166 138h-194z" />
    <glyph glyph-name="E" unicode="E" horiz-adv-x="580" 
d="M50 0l125 713h444l-9 -53h-383l-47 -264h317l-9 -53h-318l-51 -290h385l-9 -53h-445z" />
    <glyph glyph-name="F" unicode="F" horiz-adv-x="548" 
d="M50 0l125 713h438l-9 -53h-377l-47 -266h308l-10 -53h-308l-59 -341h-61z" />
    <glyph glyph-name="G" unicode="G" horiz-adv-x="653" 
d="M298 -13c-127 0 -228 66 -228 194c0 15 2 37 5 53c5 29 10 58 43 244c25 144 150 249 307 249c131 0 217 -61 217 -168c0 -14 -4 -40 -10 -74h-57c6 37 8 52 8 63c0 80 -62 124 -168 124c-123 0 -217 -82 -237 -195c-5 -29 -10 -58 -42 -244c-3 -14 -4 -30 -4 -43
c0 -96 71 -149 176 -149c125 0 203 65 220 160l19 103h-201l9 55h259c-3 -19 -6 -37 -29 -167c-22 -122 -133 -205 -287 -205z" />
    <glyph glyph-name="H" unicode="H" horiz-adv-x="676" 
d="M50 0l125 713h61l-56 -317h391l55 317h61l-125 -713h-61l60 343h-391l-60 -343h-60z" />
    <glyph glyph-name="I" unicode="I" horiz-adv-x="508" 
d="M532 713l-10 -54h-156l-106 -605h156l-10 -54h-373l10 54h156l106 605h-156l10 54h373z" />
    <glyph glyph-name="J" unicode="J" horiz-adv-x="567" 
d="M224 -12c-113 0 -189 55 -189 161c0 31 7 67 13 101h57c-4 -27 -10 -54 -10 -83c0 -75 37 -125 142 -125c118 0 178 85 192 164l89 507h60l-90 -509c-22 -129 -116 -216 -264 -216z" />
    <glyph glyph-name="K" unicode="K" horiz-adv-x="619" 
d="M49 0l121 713h54l-11 -126l-45 -264l435 390h75l-319 -284l212 -429h-68l-190 388l-159 -139l-44 -249h-61z" />
    <glyph glyph-name="L" unicode="L" horiz-adv-x="551" 
d="M50 0l125 714h61l-117 -661h378l-9 -53h-438z" />
    <glyph glyph-name="M" unicode="M" horiz-adv-x="787" 
d="M50 0l125 713h72l162 -438h2l308 438h79l-126 -713h-59l107 608h-3l-296 -416h-49l-154 413h-3l-107 -605h-58z" />
    <glyph glyph-name="N" unicode="N" horiz-adv-x="674" 
d="M50 0l126 714h62l279 -611h3l108 611h57l-127 -714h-57l-282 618h-3l-109 -618h-57z" />
    <glyph glyph-name="O" unicode="O" horiz-adv-x="661" 
d="M300 -13c-125 0 -230 61 -230 190c0 13 1 30 4 45c6 30 11 59 44 249c28 155 157 256 311 256c130 0 229 -67 229 -193c0 -16 -2 -32 -5 -49c-5 -27 -9 -54 -43 -242c-27 -155 -156 -256 -310 -256zM309 41c117 0 219 78 240 196c5 28 10 57 44 249c3 14 4 29 4 41
c0 95 -68 145 -176 145c-123 0 -217 -71 -242 -202c-5 -29 -10 -58 -42 -237c-2 -15 -4 -29 -4 -43c0 -95 71 -149 176 -149z" />
    <glyph glyph-name="P" unicode="P" horiz-adv-x="592" 
d="M50 0l125 713h243c118 0 192 -74 192 -177c0 -161 -125 -247 -282 -247h-168l-50 -289h-60zM170 341h156c126 0 224 60 224 190c0 79 -59 131 -145 131h-178z" />
    <glyph glyph-name="Q" unicode="Q" horiz-adv-x="661" 
d="M521 -99l-132 98c-28 -8 -58 -12 -89 -12c-125 0 -230 61 -230 190c0 13 1 30 4 45c6 30 11 59 44 249c28 155 157 256 311 256c130 0 229 -67 229 -193c0 -16 -2 -32 -5 -49c-5 -27 -9 -54 -43 -242c-17 -98 -75 -175 -154 -218l111 -73zM309 41c117 0 219 78 240 196
c5 28 10 57 44 249c3 14 4 29 4 41c0 95 -68 145 -176 145c-123 0 -217 -71 -242 -202c-5 -29 -10 -58 -42 -237c-2 -15 -4 -29 -4 -43c0 -95 71 -149 176 -149z" />
    <glyph glyph-name="R" unicode="R" horiz-adv-x="614" 
d="M50 0l125 713h235c118 0 202 -57 202 -175c0 -126 -84 -222 -225 -236c38 -64 77 -130 160 -302h-68l-152 295h-166l-51 -295h-60zM171 346h161c129 0 220 60 220 189c0 88 -64 127 -163 127h-162z" />
    <glyph glyph-name="S" unicode="S" horiz-adv-x="586" 
d="M270 -12c-123 0 -212 56 -242 164l56 22c20 -85 93 -134 194 -134c103 0 201 52 201 153c0 67 -50 109 -165 150c-121 45 -183 93 -183 179c0 126 105 204 245 204c98 0 185 -34 219 -127l-50 -20c-31 65 -92 95 -173 95c-92 0 -180 -51 -180 -145c0 -53 48 -96 176 -145
c112 -42 171 -93 171 -174c0 -144 -118 -222 -269 -222z" />
    <glyph glyph-name="T" unicode="T" horiz-adv-x="594" 
d="M235 0l116 660h-241l9 53h543l-9 -53h-241l-116 -660h-61z" />
    <glyph glyph-name="U" unicode="U" horiz-adv-x="668" 
d="M299 -12c-108 0 -219 49 -219 187c0 17 1 35 4 53l87 485h60l-84 -471c-3 -18 -5 -36 -5 -51c0 -107 76 -149 165 -149c125 0 218 72 236 195l84 476h60c-11 -58 -21 -116 -86 -481c-24 -153 -140 -244 -302 -244z" />
    <glyph glyph-name="V" unicode="V" horiz-adv-x="580" 
d="M223 -2l-115 715h62l97 -632h3l323 632h62l-370 -715h-62z" />
    <glyph glyph-name="W" unicode="W" horiz-adv-x="862" 
d="M180 -2l-56 715h61l42 -619h2l267 619h59l47 -618h2l263 618h59l-310 -715h-59l-47 617h-3l-266 -617h-61z" />
    <glyph glyph-name="X" unicode="X" horiz-adv-x="556" 
d="M-17 0l290 373l-142 340h65l118 -295l224 295h67l-265 -342l158 -371h-67l-132 321l-247 -321h-69z" />
    <glyph glyph-name="Y" unicode="Y" horiz-adv-x="573" 
d="M221 0l52 300l-155 413h65l129 -353l253 353h68l-301 -414l-52 -299h-59z" />
    <glyph glyph-name="Z" unicode="Z" horiz-adv-x="544" 
d="M5 0l9 47l496 615h-373l9 51h450c0 -3 -1 -6 -8 -46l-494 -614h386l-10 -53h-465z" />
    <glyph glyph-name="bracketleft" unicode="[" horiz-adv-x="369" 
d="M77 -193l171 969h192l-7 -35h-139l-159 -897h140l-6 -37h-192z" />
    <glyph glyph-name="backslash" unicode="\" horiz-adv-x="339" 
d="M300 -108l-217 835h46l219 -835h-48z" />
    <glyph glyph-name="bracketright" unicode="]" horiz-adv-x="369" 
d="M-52 -193l7 37h139l158 897h-140l7 35h191l-171 -969h-191z" />
    <glyph glyph-name="asciicircum" unicode="^" horiz-adv-x="493" 
d="M116 172l103 409h63l94 -409h-53l-73 350l-81 -350h-53z" />
    <glyph glyph-name="underscore" unicode="_" 
d="M-35 -116l6 40h500l-7 -40h-499z" />
    <glyph glyph-name="grave" unicode="`" horiz-adv-x="297" 
d="M254 568l-120 156h68l100 -156h-48z" />
    <glyph glyph-name="a" unicode="a" horiz-adv-x="522" 
d="M193 -13c-92 0 -149 51 -149 133c0 12 1 24 4 36c2 15 5 31 29 165c23 127 114 188 213 188c60 0 127 -31 140 -99h3l16 87h55l-88 -497h-54l18 99h-3c-50 -78 -127 -112 -184 -112zM214 36c74 0 165 67 182 168l17 99c3 12 4 24 4 35c0 78 -56 123 -126 123
s-140 -45 -155 -132l-30 -169c-2 -9 -3 -18 -3 -27c0 -58 40 -97 111 -97z" />
    <glyph glyph-name="b" unicode="b" horiz-adv-x="521" 
d="M246 -13c-60 0 -121 40 -133 102h-3c-4 -19 -11 -50 -18 -89h-52l126 713h56l-54 -304h2c45 68 121 100 182 100c91 0 145 -52 145 -134c0 -12 -1 -24 -3 -37c-3 -16 -6 -32 -29 -163c-22 -128 -116 -188 -219 -188zM249 35c79 0 143 45 158 132l31 171c1 9 2 17 2 25
c0 65 -45 97 -114 97c-75 0 -163 -60 -179 -167l-18 -100c-2 -11 -2 -22 -2 -32c0 -80 55 -126 122 -126z" />
    <glyph glyph-name="c" unicode="c" horiz-adv-x="468" 
d="M213 -13c-104 0 -172 52 -172 145c0 37 5 63 26 171c24 125 106 206 232 206c102 0 163 -51 163 -131c0 -12 -2 -27 -6 -47h-54c3 18 4 29 4 37c0 46 -31 93 -115 93c-100 0 -150 -71 -166 -154c-17 -98 -24 -145 -24 -166c0 -68 45 -106 126 -106c82 0 132 43 168 73
l21 -37c-36 -39 -98 -84 -203 -84z" />
    <glyph glyph-name="d" unicode="d" horiz-adv-x="523" 
d="M192 -13c-92 0 -149 51 -149 133c0 12 1 24 3 36c3 15 6 31 30 165c23 128 114 188 213 188c60 0 126 -33 139 -99h2l54 304h56l-126 -714h-54l19 99h-3c-50 -78 -127 -112 -184 -112zM213 36c74 0 165 67 182 168l17 99c2 12 3 24 3 35c0 78 -53 123 -123 123
s-142 -45 -157 -132l-30 -169c-2 -9 -3 -18 -3 -27c0 -58 39 -97 111 -97z" />
    <glyph glyph-name="e" unicode="e" horiz-adv-x="494" 
d="M224 -13c-103 0 -181 47 -181 152c0 32 6 59 23 157c24 133 119 213 242 213c98 0 163 -51 163 -148c0 -26 -6 -58 -16 -120h-340c-12 -65 -14 -81 -14 -95c0 -71 52 -111 134 -111c74 0 133 33 165 56l20 -36c-53 -50 -128 -68 -196 -68zM122 281h285c7 43 8 57 8 71
c0 65 -34 109 -117 109c-96 0 -155 -74 -170 -146c-1 -3 -2 -6 -6 -34z" />
    <glyph glyph-name="f" unicode="f" horiz-adv-x="323" 
d="M59 -179l110 630h-98l8 45h99l16 94c15 93 72 138 154 138c19 0 35 -1 52 -6l-8 -48c-16 5 -27 6 -48 6c-42 0 -83 -24 -94 -85l-16 -99h118l-8 -45h-119l-110 -619z" />
    <glyph glyph-name="g" unicode="g" horiz-adv-x="521" 
d="M169 -208c-68 0 -127 26 -161 72l40 32c31 -39 80 -57 133 -57c92 0 162 58 178 152c1 8 3 16 20 114h-3c-45 -70 -115 -99 -178 -99c-92 0 -149 48 -149 133c0 11 2 24 4 39s6 32 28 154c21 119 112 178 208 178c51 0 128 -27 140 -102h3l16 89h54l-89 -505
c-22 -127 -119 -200 -244 -200zM221 51c75 0 158 56 178 164c18 105 18 115 18 123c0 86 -59 122 -125 122c-69 0 -139 -43 -155 -132c-28 -161 -28 -169 -28 -178c0 -59 38 -99 112 -99z" />
    <glyph glyph-name="h" unicode="h" horiz-adv-x="530" 
d="M39 0l126 714h57l-55 -311l2 -1c47 68 120 107 191 107c87 0 131 -54 131 -116c0 -12 -3 -28 -5 -40l-62 -353h-57l58 326c2 13 6 35 6 47c0 61 -39 86 -99 86c-83 0 -168 -72 -184 -165l-52 -294h-57z" />
    <glyph glyph-name="i" unicode="i" horiz-adv-x="201" 
d="M40 0l87 497h57l-88 -497h-56zM149 619l18 101h57l-19 -101h-56z" />
    <glyph glyph-name="j" unicode="j" horiz-adv-x="230" 
d="M-62 -205c-8 0 -26 0 -36 1l9 48c9 0 28 -1 35 -1c62 0 90 37 100 95l99 559h56l-100 -564c-16 -91 -68 -138 -163 -138zM166 619l18 101h57l-19 -101h-56z" />
    <glyph glyph-name="k" unicode="k" horiz-adv-x="481" 
d="M39 0l126 714h56l-84 -478l286 262h68l-206 -186l139 -312h-60l-121 274l-117 -103l-30 -171h-57z" />
    <glyph glyph-name="l" unicode="l" horiz-adv-x="273" 
d="M158 -5c-63 0 -95 32 -95 85c0 12 2 25 4 37l105 597h57l-106 -601c-1 -5 -2 -16 -2 -22c0 -33 24 -48 60 -48c19 0 43 3 58 5l-8 -43c-27 -7 -51 -10 -73 -10z" />
    <glyph glyph-name="m" unicode="m" horiz-adv-x="857" 
d="M40 0l87 497h54l-16 -94l3 -1c48 71 121 107 192 107c87 0 127 -54 127 -115c53 79 130 115 201 115c86 0 130 -54 130 -116c0 -12 -2 -28 -5 -40c-12 -74 -27 -155 -62 -353h-56l57 326c2 12 6 35 6 47c0 61 -39 86 -98 86c-82 0 -164 -69 -183 -160l-53 -299h-57
l58 326c2 12 6 35 6 47c0 61 -39 86 -99 86c-83 0 -167 -72 -183 -165l-53 -294h-56z" />
    <glyph glyph-name="n" unicode="n" horiz-adv-x="530" 
d="M40 0l87 497h54l-16 -94l3 -1c48 71 121 107 192 107c87 0 130 -54 130 -116c0 -12 -2 -29 -4 -40l-62 -353h-57l58 326c2 12 6 35 6 47c0 61 -39 86 -99 86c-83 0 -167 -72 -183 -165l-53 -294h-56z" />
    <glyph glyph-name="o" unicode="o" horiz-adv-x="503" 
d="M217 -13c-103 0 -174 47 -174 146c0 14 1 29 4 45c3 15 5 29 23 134c22 125 118 197 237 197c104 0 171 -52 171 -149c0 -14 -2 -30 -5 -47c-2 -13 -4 -27 -22 -129c-22 -125 -115 -197 -234 -197zM223 35c94 0 155 55 171 148l23 135c3 13 4 25 4 37
c0 66 -42 106 -123 106c-99 0 -156 -63 -170 -147l-24 -135c-2 -13 -4 -26 -3 -38c0 -65 41 -106 122 -106z" />
    <glyph glyph-name="p" unicode="p" horiz-adv-x="522" 
d="M5 -194l123 691h54l-16 -88h3c45 67 120 100 181 100c92 0 149 -51 149 -133c0 -11 -1 -23 -4 -35c-2 -16 -5 -32 -29 -166c-23 -128 -118 -187 -217 -187c-60 0 -121 38 -133 101h-3l-51 -283h-57zM249 35c70 0 143 45 159 133l30 168c1 9 2 18 2 27
c0 63 -44 97 -116 97c-74 0 -159 -63 -176 -164l-18 -102c-2 -11 -4 -23 -4 -33c0 -79 55 -126 123 -126z" />
    <glyph glyph-name="q" unicode="q" horiz-adv-x="523" 
d="M324 -197l51 288l-3 1c-52 -75 -125 -104 -180 -104c-93 0 -149 50 -149 133c0 11 1 23 3 35c3 16 6 32 29 166c23 127 114 187 213 187c60 0 128 -33 139 -101h2l17 90h56l-123 -695h-55zM213 36c74 0 164 67 182 169l17 99c2 11 3 24 3 35c0 79 -58 123 -126 123
c-69 0 -139 -47 -155 -135l-30 -171c-1 -8 -2 -15 -2 -22c0 -60 38 -98 111 -98z" />
    <glyph glyph-name="r" unicode="r" horiz-adv-x="365" 
d="M40 0l87 497h55l-19 -106h3c55 90 140 113 206 113c11 0 24 -1 33 -2l-10 -53c-15 2 -36 2 -47 2c-99 0 -181 -61 -203 -174l-49 -277h-56z" />
    <glyph glyph-name="s" unicode="s" horiz-adv-x="451" 
d="M194 -12c-74 0 -142 20 -182 67l36 35c38 -35 86 -57 149 -57c67 0 146 26 146 106c0 45 -43 68 -110 93c-97 37 -143 64 -143 133c0 82 66 144 183 144c60 0 120 -14 159 -49l-34 -36c-29 21 -79 40 -132 40c-69 0 -123 -35 -123 -94c0 -41 34 -62 92 -85
c89 -36 163 -65 163 -138c0 -118 -107 -159 -204 -159z" />
    <glyph glyph-name="t" unicode="t" horiz-adv-x="353" 
d="M193 -8c-52 0 -103 17 -103 80c0 9 0 17 2 26l62 352h-97l8 46h97l28 158h56l-28 -158h145l-8 -46h-145l-59 -338c-2 -8 -3 -15 -3 -22c0 -37 24 -48 68 -48c24 0 55 5 79 10l-8 -48c-34 -9 -69 -12 -94 -12z" />
    <glyph glyph-name="u" unicode="u" horiz-adv-x="528" 
d="M190 -12c-87 0 -130 50 -130 119c0 12 2 26 4 38l62 352h57l-58 -325c-2 -13 -5 -36 -5 -48c0 -65 38 -86 98 -86c83 0 167 73 184 166l52 293h56c-17 -97 -36 -205 -88 -497h-53l16 95h-3c-48 -71 -121 -107 -192 -107z" />
    <glyph glyph-name="v" unicode="v" horiz-adv-x="461" 
d="M173 -1l-107 513l62 -14l30 -136l56 -293l224 429h58l-266 -499h-57z" />
    <glyph glyph-name="w" unicode="w" horiz-adv-x="744" 
d="M145 -1l-66 499h58l50 -425h2l205 425h54l56 -424h3l202 424h60l-247 -499h-58l-55 425h-2l-203 -425h-59z" />
    <glyph glyph-name="x" unicode="x" horiz-adv-x="454" 
d="M-14 0l223 260l-121 238h61l97 -197l163 197h66l-204 -237l132 -261h-61l-108 217l-181 -217h-67z" />
    <glyph glyph-name="y" unicode="y" horiz-adv-x="475" 
d="M8 -206c-18 0 -36 2 -60 8l10 48c18 -4 40 -6 60 -6c44 0 84 29 108 71l52 97l-104 486h60l84 -417h2l214 417h60l-315 -591c-49 -92 -112 -113 -171 -113z" />
    <glyph glyph-name="z" unicode="z" horiz-adv-x="447" 
d="M2 0l8 42l356 409h-276l8 47h353l-8 -43l-357 -408h290l-9 -47h-365z" />
    <glyph glyph-name="braceleft" unicode="{" horiz-adv-x="375" 
d="M143 -192c-32 0 -55 17 -55 52c0 6 1 12 2 19l67 381c2 8 2 14 2 19c0 21 -12 31 -37 34l8 41c36 7 47 20 52 47l54 306c8 46 40 70 78 70h124l-7 -38h-117c-10 0 -19 -6 -22 -21l-54 -310c-7 -38 -28 -61 -58 -72v-3c23 -11 34 -24 34 -50c0 -6 0 -14 -2 -24l-69 -391
c-1 -3 -1 -6 -1 -8c0 -10 6 -13 15 -13h117l-7 -39h-124z" />
    <glyph glyph-name="bar" unicode="|" horiz-adv-x="325" 
d="M92 -39l135 764h43l-135 -764h-43z" />
    <glyph glyph-name="braceright" unicode="}" horiz-adv-x="374" 
d="M-45 -192l7 39h116c12 0 20 5 22 21l70 391c7 42 23 60 57 74v3c-19 9 -33 26 -33 51c0 6 0 13 1 21l55 310c1 3 1 6 1 8c0 10 -6 13 -15 13h-117l6 38h124c33 0 55 -17 55 -52c0 -6 0 -12 -1 -18l-54 -306c-1 -5 -2 -10 -2 -14c0 -17 11 -27 38 -33l-7 -41
c-33 -4 -48 -18 -54 -53l-67 -381c-9 -47 -41 -71 -79 -71h-123z" />
    <glyph glyph-name="asciitilde" unicode="~" horiz-adv-x="564" 
d="M72 268l-36 6c8 49 36 89 85 89c55 0 266 -38 322 -38c30 0 40 21 50 49l35 -7c-11 -52 -39 -91 -85 -91c-56 0 -273 39 -324 39c-30 0 -37 -21 -47 -47z" />
    <glyph glyph-name="Adieresis" unicode="&#xc4;" horiz-adv-x="652" 
d="M4 0l391 715h58l137 -715h-62l-41 226h-299l-122 -226h-62zM213 277h266l-67 365h-2zM300 784l17 96h57l-17 -96h-57zM490 784l17 96h57l-17 -96h-57z" />
    <glyph glyph-name="Aring" unicode="&#xc5;" horiz-adv-x="652" 
d="M4 0l391 715h58l137 -715h-62l-41 226h-299l-122 -226h-62zM213 277h266l-67 365h-2zM429 758c-49 0 -78 28 -78 68c0 55 46 105 102 105c48 0 79 -25 79 -68c0 -57 -47 -105 -103 -105zM431 786c32 0 68 26 68 71c0 29 -21 45 -50 45c-34 0 -64 -29 -64 -72
c0 -30 22 -44 46 -44z" />
    <glyph glyph-name="Ccedilla" unicode="&#xc7;" horiz-adv-x="632" 
d="M279 -13c-128 0 -228 66 -228 194c0 16 1 31 4 48c5 29 10 58 44 249c30 154 152 249 309 249c130 0 215 -67 215 -170c0 -15 -3 -42 -9 -75h-58c6 37 7 49 7 60c0 79 -60 130 -167 130c-123 0 -217 -82 -237 -195c-5 -29 -10 -58 -42 -244c-3 -14 -4 -28 -4 -41
c0 -96 71 -151 176 -151c120 0 200 69 218 163c0 1 0 2 3 16h57l-5 -28c-23 -122 -134 -205 -283 -205zM257 -198l-61 12c-11 0 -26 2 -32 16c16 -7 42 -12 60 9c40 -4 83 6 91 33c16 12 14 31 -20 39c0 7 -8 8 -33 8l4 49l28 37l3 -38l2 -23c43 0 86 -12 86 -54
c0 -4 0 -8 -1 -12c-8 -47 -54 -76 -127 -76z" />
    <glyph glyph-name="Eacute" unicode="&#xc9;" horiz-adv-x="585" 
d="M50 0l125 713h444l-9 -53h-383l-47 -264h317l-9 -53h-318l-51 -290h385l-9 -53h-445zM368 787l118 156h69l-138 -156h-49z" />
    <glyph glyph-name="Ntilde" unicode="&#xd1;" horiz-adv-x="674" 
d="M50 0l126 714h62l279 -611h3l108 611h57l-127 -714h-57l-282 618h-3l-109 -618h-57zM308 777l42 4c-21 5 -43 8 -74 2c17 50 50 89 99 89c56 0 102 -37 160 -37c29 0 45 19 61 50l31 -8c-21 -52 -55 -90 -101 -90c-57 0 -108 39 -160 39c-30 0 -44 -21 -58 -49z" />
    <glyph glyph-name="Odieresis" unicode="&#xd6;" horiz-adv-x="661" 
d="M300 -13c-125 0 -230 61 -230 190c0 13 1 30 4 45c6 30 11 59 44 249c28 155 157 256 311 256c130 0 229 -67 229 -193c0 -16 -2 -32 -5 -49c-5 -27 -9 -54 -43 -242c-27 -155 -156 -256 -310 -256zM309 41c117 0 219 78 240 196c5 28 10 57 44 249c3 14 4 29 4 41
c0 95 -68 145 -176 145c-123 0 -217 -71 -242 -202c-5 -29 -10 -58 -42 -237c-2 -15 -4 -29 -4 -43c0 -95 71 -149 176 -149zM315 785l17 96h57l-17 -96h-57zM505 785l17 96h57l-17 -96h-57z" />
    <glyph glyph-name="Udieresis" unicode="&#xdc;" horiz-adv-x="668" 
d="M299 -12c-108 0 -219 49 -219 187c0 17 1 35 4 53l87 485h60l-84 -471c-3 -18 -5 -36 -5 -51c0 -107 76 -149 165 -149c125 0 218 72 236 195l84 476h60c-11 -58 -21 -116 -86 -481c-24 -153 -140 -244 -302 -244zM312 786l17 96h57l-17 -96h-57zM502 786l17 96h57
l-17 -96h-57z" />
    <glyph glyph-name="aacute" unicode="&#xe1;" horiz-adv-x="522" 
d="M193 -13c-92 0 -149 51 -149 133c0 12 1 24 4 36c2 15 5 31 29 165c23 127 114 188 213 188c60 0 127 -31 140 -99h3l16 87h55l-88 -497h-54l18 99h-3c-50 -78 -127 -112 -184 -112zM214 36c74 0 165 67 182 168l17 99c3 12 4 24 4 35c0 78 -56 123 -126 123
s-140 -45 -155 -132l-30 -169c-2 -9 -3 -18 -3 -27c0 -58 40 -97 111 -97zM286 568l118 156h69l-138 -156h-49z" />
    <glyph glyph-name="agrave" unicode="&#xe0;" horiz-adv-x="522" 
d="M193 -13c-92 0 -149 51 -149 133c0 12 1 24 4 36c2 15 5 31 29 165c23 127 114 188 213 188c60 0 127 -31 140 -99h3l16 87h55l-88 -497h-54l18 99h-3c-50 -78 -127 -112 -184 -112zM214 36c74 0 165 67 182 168l17 99c3 12 4 24 4 35c0 78 -56 123 -126 123
s-140 -45 -155 -132l-30 -169c-2 -9 -3 -18 -3 -27c0 -58 40 -97 111 -97zM282 568l-120 156h68l100 -156h-48z" />
    <glyph glyph-name="acircumflex" unicode="&#xe2;" horiz-adv-x="522" 
d="M193 -13c-92 0 -149 51 -149 133c0 12 1 24 4 36c2 15 5 31 29 165c23 127 114 188 213 188c60 0 127 -31 140 -99h3l16 87h55l-88 -497h-54l18 99h-3c-50 -78 -127 -112 -184 -112zM214 36c74 0 165 67 182 168l17 99c3 12 4 24 4 35c0 78 -56 123 -126 123
s-140 -45 -155 -132l-30 -169c-2 -9 -3 -18 -3 -27c0 -58 40 -97 111 -97zM193 569l120 155h56l58 -155h-50l-43 115l-88 -115h-53z" />
    <glyph glyph-name="adieresis" unicode="&#xe4;" horiz-adv-x="522" 
d="M193 -13c-92 0 -149 51 -149 133c0 12 1 24 4 36c2 15 5 31 29 165c23 127 114 188 213 188c60 0 127 -31 140 -99h3l16 87h55l-88 -497h-54l18 99h-3c-50 -78 -127 -112 -184 -112zM214 36c74 0 165 67 182 168l17 99c3 12 4 24 4 35c0 78 -56 123 -126 123
s-140 -45 -155 -132l-30 -169c-2 -9 -3 -18 -3 -27c0 -58 40 -97 111 -97zM192 568l17 96h57l-17 -96h-57zM382 568l17 96h57l-17 -96h-57z" />
    <glyph glyph-name="atilde" unicode="&#xe3;" horiz-adv-x="522" 
d="M193 -13c-92 0 -149 51 -149 133c0 12 1 24 4 36c2 15 5 31 29 165c23 127 114 188 213 188c60 0 127 -31 140 -99h3l16 87h55l-88 -497h-54l18 99h-3c-50 -78 -127 -112 -184 -112zM214 36c74 0 165 67 182 168l17 99c3 12 4 24 4 35c0 78 -56 123 -126 123
s-140 -45 -155 -132l-30 -169c-2 -9 -3 -18 -3 -27c0 -58 40 -97 111 -97zM177 578l42 4c-21 5 -43 8 -74 2c17 50 50 89 99 89c56 0 102 -37 160 -37c29 0 45 19 61 50l31 -8c-21 -52 -55 -90 -101 -90c-57 0 -108 39 -160 39c-30 0 -44 -21 -58 -49z" />
    <glyph glyph-name="aring" unicode="&#xe5;" horiz-adv-x="522" 
d="M193 -13c-92 0 -149 51 -149 133c0 12 1 24 4 36c2 15 5 31 29 165c23 127 114 188 213 188c60 0 127 -31 140 -99h3l16 87h55l-88 -497h-54l18 99h-3c-50 -78 -127 -112 -184 -112zM214 36c74 0 165 67 182 168l17 99c3 12 4 24 4 35c0 78 -56 123 -126 123
s-140 -45 -155 -132l-30 -169c-2 -9 -3 -18 -3 -27c0 -58 40 -97 111 -97zM314 562c-49 0 -78 28 -78 68c0 55 46 105 102 105c48 0 79 -25 79 -68c0 -57 -47 -105 -103 -105zM316 590c32 0 68 26 68 71c0 29 -21 45 -50 45c-34 0 -64 -29 -64 -72c0 -30 22 -44 46 -44z" />
    <glyph glyph-name="ccedilla" unicode="&#xe7;" horiz-adv-x="470" 
d="M213 -13c-104 0 -172 52 -172 145c0 37 5 63 26 171c24 125 106 206 232 206c102 0 163 -51 163 -131c0 -12 -2 -27 -6 -47h-54c3 18 4 29 4 37c0 46 -31 93 -115 93c-100 0 -150 -71 -166 -154c-17 -98 -24 -145 -24 -166c0 -68 45 -106 126 -106c82 0 132 43 168 73
l21 -37c-36 -39 -98 -84 -203 -84zM189 -198l-61 12c-11 0 -26 2 -32 16c16 -7 42 -12 60 9c40 -4 83 6 91 33c16 12 14 31 -20 39c0 7 -8 8 -33 8l4 49l28 37l3 -38l2 -23c43 0 86 -12 86 -54c0 -4 0 -8 -1 -12c-8 -47 -54 -76 -127 -76z" />
    <glyph glyph-name="eacute" unicode="&#xe9;" horiz-adv-x="494" 
d="M224 -13c-103 0 -181 47 -181 152c0 32 6 59 23 157c24 133 119 213 242 213c98 0 163 -51 163 -148c0 -26 -6 -58 -16 -120h-340c-12 -65 -14 -81 -14 -95c0 -71 52 -111 134 -111c74 0 133 33 165 56l20 -36c-53 -50 -128 -68 -196 -68zM122 281h285c7 43 8 57 8 71
c0 65 -34 109 -117 109c-96 0 -155 -74 -170 -146c-1 -3 -2 -6 -6 -34zM284 568l118 156h69l-138 -156h-49z" />
    <glyph glyph-name="egrave" unicode="&#xe8;" horiz-adv-x="494" 
d="M224 -13c-103 0 -181 47 -181 152c0 32 6 59 23 157c24 133 119 213 242 213c98 0 163 -51 163 -148c0 -26 -6 -58 -16 -120h-340c-12 -65 -14 -81 -14 -95c0 -71 52 -111 134 -111c74 0 133 33 165 56l20 -36c-53 -50 -128 -68 -196 -68zM122 281h285c7 43 8 57 8 71
c0 65 -34 109 -117 109c-96 0 -155 -74 -170 -146c-1 -3 -2 -6 -6 -34zM295 568l-120 156h68l100 -156h-48z" />
    <glyph glyph-name="ecircumflex" unicode="&#xea;" horiz-adv-x="494" 
d="M224 -13c-103 0 -181 47 -181 152c0 32 6 59 23 157c24 133 119 213 242 213c98 0 163 -51 163 -148c0 -26 -6 -58 -16 -120h-340c-12 -65 -14 -81 -14 -95c0 -71 52 -111 134 -111c74 0 133 33 165 56l20 -36c-53 -50 -128 -68 -196 -68zM122 281h285c7 43 8 57 8 71
c0 65 -34 109 -117 109c-96 0 -155 -74 -170 -146c-1 -3 -2 -6 -6 -34zM205 569l120 155h56l58 -155h-50l-43 115l-88 -115h-53z" />
    <glyph glyph-name="edieresis" unicode="&#xeb;" horiz-adv-x="494" 
d="M224 -13c-103 0 -181 47 -181 152c0 32 6 59 23 157c24 133 119 213 242 213c98 0 163 -51 163 -148c0 -26 -6 -58 -16 -120h-340c-12 -65 -14 -81 -14 -95c0 -71 52 -111 134 -111c74 0 133 33 165 56l20 -36c-53 -50 -128 -68 -196 -68zM122 281h285c7 43 8 57 8 71
c0 65 -34 109 -117 109c-96 0 -155 -74 -170 -146c-1 -3 -2 -6 -6 -34zM194 568l17 96h57l-17 -96h-57zM384 568l17 96h57l-17 -96h-57z" />
    <glyph glyph-name="iacute" unicode="&#xed;" horiz-adv-x="208" 
d="M40 0l87 497h57l-88 -497h-56zM142 568l118 156h69l-138 -156h-49z" />
    <glyph glyph-name="igrave" unicode="&#xec;" horiz-adv-x="208" 
d="M40 0l87 497h57l-88 -497h-56zM137 568l-120 156h68l100 -156h-48z" />
    <glyph glyph-name="icircumflex" unicode="&#xee;" horiz-adv-x="208" 
d="M40 0l87 497h57l-88 -497h-56zM40 569l120 155h56l58 -155h-50l-43 115l-88 -115h-53z" />
    <glyph glyph-name="idieresis" unicode="&#xef;" horiz-adv-x="208" 
d="M40 0l87 497h57l-88 -497h-56zM37 568l17 96h57l-17 -96h-57zM227 568l17 96h57l-17 -96h-57z" />
    <glyph glyph-name="ntilde" unicode="&#xf1;" horiz-adv-x="530" 
d="M40 0l87 497h54l-16 -94l3 -1c48 71 121 107 192 107c87 0 130 -54 130 -116c0 -12 -2 -29 -4 -40l-62 -353h-57l58 326c2 12 6 35 6 47c0 61 -39 86 -99 86c-83 0 -167 -72 -183 -165l-53 -294h-56zM191 578l42 4c-21 5 -43 8 -74 2c17 50 50 89 99 89
c56 0 102 -37 160 -37c29 0 45 19 61 50l31 -8c-21 -52 -55 -90 -101 -90c-57 0 -108 39 -160 39c-30 0 -44 -21 -58 -49z" />
    <glyph glyph-name="oacute" unicode="&#xf3;" horiz-adv-x="503" 
d="M217 -13c-103 0 -174 47 -174 146c0 14 1 29 4 45c3 15 5 29 23 134c22 125 118 197 237 197c104 0 171 -52 171 -149c0 -14 -2 -30 -5 -47c-2 -13 -4 -27 -22 -129c-22 -125 -115 -197 -234 -197zM223 35c94 0 155 55 171 148l23 135c3 13 4 25 4 37
c0 66 -42 106 -123 106c-99 0 -156 -63 -170 -147l-24 -135c-2 -13 -4 -26 -3 -38c0 -65 41 -106 122 -106zM278 568l118 156h69l-138 -156h-49z" />
    <glyph glyph-name="ograve" unicode="&#xf2;" horiz-adv-x="503" 
d="M217 -13c-103 0 -174 47 -174 146c0 14 1 29 4 45c3 15 5 29 23 134c22 125 118 197 237 197c104 0 171 -52 171 -149c0 -14 -2 -30 -5 -47c-2 -13 -4 -27 -22 -129c-22 -125 -115 -197 -234 -197zM223 35c94 0 155 55 171 148l23 135c3 13 4 25 4 37
c0 66 -42 106 -123 106c-99 0 -156 -63 -170 -147l-24 -135c-2 -13 -4 -26 -3 -38c0 -65 41 -106 122 -106zM300 568l-120 156h68l100 -156h-48z" />
    <glyph glyph-name="ocircumflex" unicode="&#xf4;" horiz-adv-x="503" 
d="M217 -13c-103 0 -174 47 -174 146c0 14 1 29 4 45c3 15 5 29 23 134c22 125 118 197 237 197c104 0 171 -52 171 -149c0 -14 -2 -30 -5 -47c-2 -13 -4 -27 -22 -129c-22 -125 -115 -197 -234 -197zM223 35c94 0 155 55 171 148l23 135c3 13 4 25 4 37
c0 66 -42 106 -123 106c-99 0 -156 -63 -170 -147l-24 -135c-2 -13 -4 -26 -3 -38c0 -65 41 -106 122 -106zM202 569l120 155h56l58 -155h-50l-43 115l-88 -115h-53z" />
    <glyph glyph-name="odieresis" unicode="&#xf6;" horiz-adv-x="503" 
d="M217 -13c-103 0 -174 47 -174 146c0 14 1 29 4 45c3 15 5 29 23 134c22 125 118 197 237 197c104 0 171 -52 171 -149c0 -14 -2 -30 -5 -47c-2 -13 -4 -27 -22 -129c-22 -125 -115 -197 -234 -197zM223 35c94 0 155 55 171 148l23 135c3 13 4 25 4 37
c0 66 -42 106 -123 106c-99 0 -156 -63 -170 -147l-24 -135c-2 -13 -4 -26 -3 -38c0 -65 41 -106 122 -106zM192 568l17 96h57l-17 -96h-57zM382 568l17 96h57l-17 -96h-57z" />
    <glyph glyph-name="otilde" unicode="&#xf5;" horiz-adv-x="503" 
d="M217 -13c-103 0 -174 47 -174 146c0 14 1 29 4 45c3 15 5 29 23 134c22 125 118 197 237 197c104 0 171 -52 171 -149c0 -14 -2 -30 -5 -47c-2 -13 -4 -27 -22 -129c-22 -125 -115 -197 -234 -197zM223 35c94 0 155 55 171 148l23 135c3 13 4 25 4 37
c0 66 -42 106 -123 106c-99 0 -156 -63 -170 -147l-24 -135c-2 -13 -4 -26 -3 -38c0 -65 41 -106 122 -106zM176 578l42 4c-21 5 -43 8 -74 2c17 50 50 89 99 89c56 0 102 -37 160 -37c29 0 45 19 61 50l31 -8c-21 -52 -55 -90 -101 -90c-57 0 -108 39 -160 39
c-30 0 -44 -21 -58 -49z" />
    <glyph glyph-name="uacute" unicode="&#xfa;" horiz-adv-x="528" 
d="M190 -12c-87 0 -130 50 -130 119c0 12 2 26 4 38l62 352h57l-58 -325c-2 -13 -5 -36 -5 -48c0 -65 38 -86 98 -86c83 0 167 73 184 166l52 293h56c-17 -97 -36 -205 -88 -497h-53l16 95h-3c-48 -71 -121 -107 -192 -107zM292 568l118 156h69l-138 -156h-49z" />
    <glyph glyph-name="ugrave" unicode="&#xf9;" horiz-adv-x="528" 
d="M190 -12c-87 0 -130 50 -130 119c0 12 2 26 4 38l62 352h57l-58 -325c-2 -13 -5 -36 -5 -48c0 -65 38 -86 98 -86c83 0 167 73 184 166l52 293h56c-17 -97 -36 -205 -88 -497h-53l16 95h-3c-48 -71 -121 -107 -192 -107zM309 568l-120 156h68l100 -156h-48z" />
    <glyph glyph-name="ucircumflex" unicode="&#xfb;" horiz-adv-x="528" 
d="M190 -12c-87 0 -130 50 -130 119c0 12 2 26 4 38l62 352h57l-58 -325c-2 -13 -5 -36 -5 -48c0 -65 38 -86 98 -86c83 0 167 73 184 166l52 293h56c-17 -97 -36 -205 -88 -497h-53l16 95h-3c-48 -71 -121 -107 -192 -107zM212 569l120 155h56l58 -155h-50l-43 115
l-88 -115h-53z" />
    <glyph glyph-name="udieresis" unicode="&#xfc;" horiz-adv-x="528" 
d="M190 -12c-87 0 -130 50 -130 119c0 12 2 26 4 38l62 352h57l-58 -325c-2 -13 -5 -36 -5 -48c0 -65 38 -86 98 -86c83 0 167 73 184 166l52 293h56c-17 -97 -36 -205 -88 -497h-53l16 95h-3c-48 -71 -121 -107 -192 -107zM198 568l17 96h57l-17 -96h-57zM388 568l17 96h57
l-17 -96h-57z" />
    <glyph glyph-name="dagger" unicode="&#x2020;" horiz-adv-x="548" 
d="M188 -163l114 647h-209l7 43h210l33 188h49l-33 -188h209l-7 -43h-210l-114 -647h-49z" />
    <glyph glyph-name="degree" unicode="&#xb0;" horiz-adv-x="344" 
d="M226 515c-55 0 -91 37 -91 85c0 67 57 127 128 127c56 0 91 -38 91 -88c0 -68 -59 -124 -128 -124zM231 544c48 0 91 42 91 90c0 35 -23 63 -66 63c-46 0 -87 -42 -87 -91c0 -35 24 -62 62 -62z" />
    <glyph glyph-name="cent" unicode="&#xa2;" horiz-adv-x="523" 
d="M202 -85l18 102c-92 6 -143 56 -143 137c1 37 10 88 29 190c20 112 98 186 206 194l17 98h49l-18 -98c87 -8 132 -57 132 -125c0 -16 -4 -33 -7 -49h-53c2 13 5 23 5 38c0 44 -30 90 -111 90c-95 0 -150 -68 -164 -148c-4 -20 -8 -41 -25 -136c-2 -13 -3 -26 -3 -39
c0 -66 38 -108 117 -106c102 2 137 71 148 116c1 5 2 9 2 13h54c-2 -10 -4 -19 -6 -27c-21 -81 -80 -140 -180 -148l-18 -102h-49z" />
    <glyph glyph-name="sterling" unicode="&#xa3;" horiz-adv-x="574" 
d="M37 0l9 49h84l51 293h-76l6 39h77c3 17 6 34 28 158c24 134 117 187 224 187c91 0 150 -42 150 -125c0 -16 -1 -32 -8 -61h-53c6 27 7 42 7 53c0 59 -40 87 -108 87c-72 0 -137 -42 -154 -133c-3 -19 -6 -37 -29 -166h222l-6 -39h-222l-52 -293h327l-23 -49h-454z" />
    <glyph glyph-name="section" unicode="&#xa7;" horiz-adv-x="579" 
d="M232 -89c-79 0 -170 29 -170 112c0 16 4 33 7 50h43c-1 -11 -4 -22 -4 -33c0 -62 60 -89 132 -89c82 0 170 42 170 121c0 51 -42 74 -149 107c-66 20 -133 49 -133 120c0 56 29 108 123 153c-55 27 -78 57 -78 99c0 91 79 164 208 164c89 0 159 -35 159 -109
c0 -17 -5 -33 -8 -50h-43c2 12 5 25 5 38c0 55 -54 82 -121 82c-73 0 -152 -33 -152 -111c0 -44 38 -68 110 -95c119 -47 167 -78 167 -138c0 -59 -54 -120 -123 -146c54 -23 81 -57 81 -102c0 -109 -107 -173 -224 -173zM334 203c53 16 116 67 116 119
c0 42 -43 70 -163 111c-43 -19 -112 -65 -112 -125c0 -49 64 -79 159 -105z" />
    <glyph glyph-name="bullet" unicode="&#x2022;" horiz-adv-x="381" 
d="M206 268c-47 0 -79 34 -79 78c0 60 54 112 113 112c47 0 80 -33 80 -78c0 -59 -57 -112 -114 -112z" />
    <glyph glyph-name="paragraph" unicode="&#xb6;" horiz-adv-x="621" 
d="M215 -90l56 326c-135 7 -168 117 -147 236c22 123 120 241 238 241h293l-6 -37h-82l-135 -766h-39l134 766h-139l-135 -766h-38z" />
    <glyph glyph-name="germandbls" unicode="&#xdf;" horiz-adv-x="572" 
d="M-9 -175l123 695c22 137 127 207 248 207c105 0 181 -54 181 -143c0 -93 -50 -179 -165 -217v-4c102 -19 148 -82 148 -154c0 -128 -111 -219 -235 -219c-35 0 -87 4 -114 14l8 47c37 -9 68 -14 96 -14c95 0 184 69 184 167s-92 129 -178 132c1 2 1 6 8 42h25
c119 37 164 108 164 196c0 75 -55 109 -133 109c-98 0 -164 -72 -177 -150l-125 -702z" />
    <glyph glyph-name="registered" unicode="&#xae;" horiz-adv-x="525" 
d="M221 401l44 254h94c48 0 75 -23 75 -60c0 -43 -28 -80 -78 -90c13 -22 30 -47 57 -104h-38l-55 101h-47l-18 -101h-34zM285 315c-109 0 -176 73 -176 169c0 140 116 254 251 254c112 0 178 -69 178 -169c0 -133 -110 -254 -253 -254zM288 342c107 0 218 89 218 222
c0 93 -54 149 -150 149c-104 0 -215 -86 -215 -223c0 -92 65 -148 147 -148zM278 530h51c41 0 70 19 70 59c0 25 -19 38 -53 38h-51z" />
    <glyph glyph-name="copyright" unicode="&#xa9;" horiz-adv-x="938" 
d="M445 72c-105 0 -168 58 -168 147c0 16 3 32 32 193c23 124 112 200 232 200c106 0 163 -50 163 -127c0 -14 -2 -28 -7 -56h-53c3 21 6 31 6 43c0 45 -26 93 -116 93c-102 0 -154 -72 -169 -156c-17 -100 -30 -147 -30 -182c0 -66 34 -109 119 -109c109 0 146 67 156 113
c1 6 2 11 4 23h52c-1 -6 -3 -12 -6 -29c-18 -96 -99 -153 -215 -153zM420 -63c-219 0 -337 130 -337 318c0 263 209 499 481 499c217 0 340 -142 340 -328c0 -256 -208 -489 -484 -489zM423 -30c220 0 440 187 440 455c0 191 -134 295 -305 295c-214 0 -433 -181 -433 -458
c0 -188 119 -292 298 -292z" />
    <glyph glyph-name="trademark" unicode="&#x2122;" horiz-adv-x="647" 
d="M345 413l53 306h42l60 -165l118 165h41l-53 -306h-33l43 251l-113 -163h-24l-58 162l-44 -250h-32zM172 413l48 274h-99l5 32h233l-5 -32h-98l-49 -274h-35z" />
    <glyph glyph-name="acute" unicode="&#xb4;" horiz-adv-x="279" 
d="M138 568l118 156h69l-138 -156h-49z" />
    <glyph glyph-name="dieresis" unicode="&#xa8;" horiz-adv-x="402" 
d="M137 568l17 96h57l-17 -96h-57zM327 568l17 96h57l-17 -96h-57z" />
    <glyph glyph-name="notequal" unicode="&#x2260;" horiz-adv-x="560" 
d="M195 79l-37 14l65 111h-193l7 41h209l86 148h-269l7 41h286l61 105l35 -13l-54 -92h165l-7 -41h-181l-85 -148h240l-8 -41h-256z" />
    <glyph glyph-name="AE" unicode="&#xc6;" horiz-adv-x="951" 
d="M-18 0l533 713h474l-8 -50h-376l-48 -269h298l-9 -49h-298l-51 -295h375l-8 -50h-437l37 213h-258l-158 -213h-66zM240 261h233l71 406z" />
    <glyph glyph-name="Oslash" unicode="&#xd8;" horiz-adv-x="661" 
d="M87 -63l-30 23l65 87c-32 31 -52 74 -52 130c0 13 1 30 4 45c6 30 11 59 44 249c28 155 157 256 311 256c68 0 126 -19 166 -54l64 85l28 -23l-65 -88c23 -30 36 -68 36 -113c0 -16 -2 -32 -5 -49c-5 -27 -9 -54 -43 -242c-27 -155 -156 -256 -310 -256
c-56 0 -108 12 -147 37zM309 41c117 0 219 78 240 196c5 28 10 57 44 249c3 14 4 28 4 40c0 26 -6 48 -16 67l-391 -519c30 -21 71 -33 119 -33zM162 99l396 525c-29 31 -76 48 -137 48c-123 0 -217 -71 -242 -202c-5 -29 -10 -58 -42 -237c-2 -15 -5 -36 -5 -49
c0 -37 10 -63 30 -85z" />
    <glyph glyph-name="infinity" unicode="&#x221e;" 
 />
    <glyph glyph-name="plusminus" unicode="&#xb1;" horiz-adv-x="564" 
d="M246 153l38 218h-225l7 41h225l39 217h43l-39 -217h224l-7 -41h-224l-38 -218h-43zM-2 19l7 42h492l-8 -42h-491z" />
    <glyph glyph-name="lessequal" unicode="&#x2264;" horiz-adv-x="564" 
d="M479 169l-399 207l6 34l470 199l16 -40l-430 -180l359 -183zM1 19l7 42h492l-7 -42h-492z" />
    <glyph glyph-name="greaterequal" unicode="&#x2265;" horiz-adv-x="564" 
d="M76 167l-19 36l426 189l-361 178l21 36l405 -200l-6 -34zM0 19l7 42h492l-7 -42h-492z" />
    <glyph glyph-name="yen" unicode="&#xa5;" horiz-adv-x="576" 
d="M219 0l49 277h-198l7 40h190l-145 396h63l127 -357l254 357h63l-285 -396h188l-7 -40h-195l-49 -277h-62z" />
    <glyph glyph-name="mu" unicode="&#xb5;" 
 />
    <glyph glyph-name="partialdiff" unicode="&#x2202;" horiz-adv-x="502" 
d="M216 -13c-104 0 -174 46 -174 145c0 33 8 64 27 176c26 135 123 200 237 200c12 0 47 -2 74 -18l-103 231l51 15c44 -92 65 -141 135 -302c8 -18 14 -44 14 -68c0 -29 -7 -69 -27 -177c-22 -126 -106 -202 -234 -202zM225 35c100 0 152 62 168 154l22 124c2 14 5 35 5 48
c0 64 -39 101 -118 101c-93 0 -155 -51 -175 -154c-6 -26 -10 -55 -23 -129c-3 -13 -4 -27 -4 -38c0 -68 41 -106 125 -106z" />
    <glyph glyph-name="summation" unicode="&#x2211;" 
 />
    <glyph glyph-name="product" unicode="&#x220f;" 
 />
    <glyph glyph-name="pi" unicode="&#x3c0;" horiz-adv-x="773" 
d="M-5 0l125 713h658l-125 -713h-658z" />
    <glyph glyph-name="integral" unicode="&#x222b;" 
 />
    <glyph glyph-name="ordfeminine" unicode="&#xaa;" horiz-adv-x="384" 
d="M197 380c-47 0 -90 23 -90 73c0 100 101 120 163 120h67c7 40 10 55 10 64c0 38 -26 53 -65 53s-82 -16 -90 -59c0 -2 -1 -4 -2 -11h-41c0 1 1 3 2 10c13 65 80 92 142 92c53 0 98 -20 98 -75c0 -6 -1 -12 -2 -19c-14 -79 -30 -160 -39 -240h-39c1 8 4 26 6 49
c-35 -42 -81 -57 -120 -57zM215 412c51 0 101 35 110 89l7 43h-72c-45 0 -108 -11 -108 -80c0 -36 30 -52 63 -52zM91 286l9 39h239l-8 -39h-240z" />
    <glyph glyph-name="ordmasculine" unicode="&#xba;" horiz-adv-x="386" 
d="M223 380c-67 0 -110 29 -110 94c0 20 5 42 18 115c15 84 74 130 153 130c67 0 109 -30 109 -95c0 -19 -4 -43 -17 -117c-15 -82 -73 -127 -153 -127zM230 414c62 0 91 38 100 95c12 68 17 94 17 110c0 39 -19 64 -69 64c-62 0 -92 -39 -101 -93c-5 -32 -18 -80 -18 -111
c0 -41 21 -65 71 -65zM87 286l8 39h240l-9 -39h-239z" />
    <glyph glyph-name="Omega" unicode="&#x2126;" 
 />
    <glyph glyph-name="ae" unicode="&#xe6;" horiz-adv-x="822" 
d="M169 -13c-74 0 -141 38 -141 117c0 132 128 176 213 176h147c13 74 16 94 16 105c0 62 -49 78 -111 78c-58 0 -134 -21 -147 -104h-52c20 114 115 151 211 151c68 0 130 -29 149 -90c42 54 107 89 182 89c99 0 164 -51 164 -148c0 -26 -5 -58 -17 -120h-341
c-4 -33 -14 -63 -13 -95c1 -72 57 -111 139 -111c75 0 133 33 165 56l21 -36c-53 -50 -128 -68 -196 -68c-88 0 -160 37 -179 112c-51 -87 -146 -112 -210 -112zM451 281h284c7 43 9 57 9 71c0 65 -34 109 -118 109c-86 0 -148 -55 -165 -124c-1 -3 -1 -7 -10 -56zM193 33
c92 0 161 52 178 147l9 57h-134c-65 0 -162 -19 -162 -121c0 -58 48 -83 109 -83z" />
    <glyph glyph-name="oslash" unicode="&#xf8;" horiz-adv-x="503" 
d="M48 -57l-30 19l59 74c-23 24 -34 57 -34 97c0 14 1 29 4 45c3 15 5 29 23 134c22 125 118 197 237 197c51 0 92 -13 120 -38l59 73l28 -19l-62 -77c17 -25 26 -55 26 -88c0 -15 -2 -30 -5 -47c-2 -13 -4 -27 -22 -129c-22 -125 -115 -197 -234 -197c-45 0 -83 9 -112 27z
M223 35c94 0 154 55 171 148l23 135c2 13 4 26 4 38c0 14 -3 27 -8 43l-274 -342c21 -15 49 -22 84 -22zM116 84l276 344c-20 21 -51 33 -94 33c-99 0 -156 -63 -170 -147l-24 -135c-2 -13 -4 -27 -4 -39c0 -22 5 -41 16 -56z" />
    <glyph glyph-name="questiondown" unicode="&#xbf;" horiz-adv-x="520" 
d="M203 -198c-101 0 -163 48 -163 136c0 113 73 174 137 226c49 40 95 69 106 128l8 45h53l-8 -46c-13 -65 -54 -104 -103 -146c-61 -51 -134 -102 -134 -194c0 -65 44 -102 117 -102c60 0 146 29 162 119l5 30h53l-5 -27c-22 -124 -122 -169 -228 -169zM302 421l19 106h64
l-19 -106h-64z" />
    <glyph glyph-name="exclamdown" unicode="&#xa1;" horiz-adv-x="277" 
d="M45 -185l39 218l64 302h38l-42 -302l-38 -218h-61zM152 422l19 106h61l-18 -106h-62z" />
    <glyph glyph-name="logicalnot" unicode="&#xac;" horiz-adv-x="564" 
d="M453 107l-149 182l-210 -178l-27 33l210 179l-148 180l35 29l147 -181l206 177l28 -34l-206 -177l150 -181z" />
    <glyph glyph-name="radical" unicode="&#x221a;" 
 />
    <glyph glyph-name="florin" unicode="&#x192;" horiz-adv-x="357" 
d="M65 -194l105 601h-99l7 40h99l26 143c14 93 72 138 154 138c19 0 36 -2 53 -6l-9 -48c-16 5 -28 5 -49 5c-43 0 -82 -23 -93 -84l-26 -148h122l-7 -40h-122l-105 -601h-56z" />
    <glyph glyph-name="approxequal" unicode="&#x2248;" 
 />
    <glyph glyph-name="Delta" unicode="&#x2206;" 
 />
    <glyph glyph-name="guillemotleft" unicode="&#xab;" horiz-adv-x="546" 
d="M228 83l-154 185l218 186l25 -31l-172 -156l116 -159zM451 83l-154 185l217 186l26 -31l-172 -156l116 -159z" />
    <glyph glyph-name="guillemotright" unicode="&#xbb;" horiz-adv-x="546" 
d="M53 83l-26 32l173 155l-118 157l35 27l154 -185zM276 83l-26 32l173 155l-118 157l35 27l154 -185z" />
    <glyph glyph-name="ellipsis" unicode="&#x2026;" horiz-adv-x="694" 
d="M60 0l20 106h62l-20 -106h-62zM300 0l19 106h63l-20 -106h-62zM540 0l19 106h62l-19 -106h-62z" />
    <glyph glyph-name="uni00A0" horiz-adv-x="219" 
 />
    <glyph glyph-name="Agrave" unicode="&#xc0;" horiz-adv-x="652" 
d="M4 0l391 715h58l137 -715h-62l-41 226h-299l-122 -226h-62zM213 277h266l-67 365h-2zM400 782l-120 156h68l100 -156h-48z" />
    <glyph glyph-name="Atilde" unicode="&#xc3;" horiz-adv-x="652" 
d="M4 0l391 715h58l137 -715h-62l-41 226h-299l-122 -226h-62zM213 277h266l-67 365h-2zM282 776l42 4c-21 5 -43 8 -74 2c17 50 50 89 99 89c56 0 102 -37 160 -37c29 0 45 19 61 50l31 -8c-21 -52 -55 -90 -101 -90c-57 0 -108 39 -160 39c-30 0 -44 -21 -58 -49z" />
    <glyph glyph-name="Otilde" unicode="&#xd5;" horiz-adv-x="661" 
d="M300 -13c-125 0 -230 61 -230 190c0 13 1 30 4 45c6 30 11 59 44 249c28 155 157 256 311 256c130 0 229 -67 229 -193c0 -16 -2 -32 -5 -49c-5 -27 -9 -54 -43 -242c-27 -155 -156 -256 -310 -256zM309 41c117 0 219 78 240 196c5 28 10 57 44 249c3 14 4 29 4 41
c0 95 -68 145 -176 145c-123 0 -217 -71 -242 -202c-5 -29 -10 -58 -42 -237c-2 -15 -4 -29 -4 -43c0 -95 71 -149 176 -149zM296 777l42 4c-21 5 -43 8 -74 2c17 50 50 89 99 89c56 0 102 -37 160 -37c29 0 45 19 61 50l31 -8c-21 -52 -55 -90 -101 -90
c-57 0 -108 39 -160 39c-30 0 -44 -21 -58 -49z" />
    <glyph glyph-name="OE" unicode="&#x152;" horiz-adv-x="1038" 
d="M297 -13c-126 0 -227 61 -227 188c0 14 2 32 4 47c6 30 11 59 45 249c27 154 152 256 307 256c89 0 162 -33 193 -98l15 84h444l-9 -54h-384l-47 -263h318l-10 -53h-317l-52 -289h386l-9 -54h-445l17 96c-52 -68 -136 -109 -229 -109zM309 41c117 0 219 78 240 196
c5 28 10 57 44 249c3 14 4 28 4 40c0 95 -68 146 -176 146c-123 0 -217 -71 -242 -202c-5 -29 -10 -58 -41 -237c-3 -15 -5 -29 -5 -43c0 -95 71 -149 176 -149z" />
    <glyph glyph-name="oe" unicode="&#x153;" horiz-adv-x="843" 
d="M219 -13c-104 0 -175 47 -175 146c0 33 6 59 28 179c24 126 118 197 236 197c85 0 140 -35 157 -104c43 67 111 104 192 104c99 0 165 -52 165 -149c0 -25 -7 -57 -17 -119h-341c-11 -65 -13 -81 -13 -95c0 -71 51 -111 134 -111c74 0 132 33 164 56l21 -36
c-53 -50 -128 -68 -196 -68c-82 0 -147 30 -167 100c-40 -65 -107 -100 -188 -100zM224 35c96 0 155 56 171 150l23 133c3 13 4 25 4 37c0 66 -42 106 -123 106c-99 0 -155 -63 -170 -147l-23 -135c-3 -13 -5 -26 -4 -38c0 -65 41 -106 122 -106zM472 281h284
c8 43 9 57 9 71c0 65 -34 109 -117 109c-99 0 -160 -78 -176 -180z" />
    <glyph glyph-name="endash" unicode="&#x2013;" horiz-adv-x="524" 
d="M51 265l8 42h448l-7 -42h-449z" />
    <glyph glyph-name="emdash" unicode="&#x2014;" horiz-adv-x="829" 
d="M50 265l8 42h756l-7 -42h-757z" />
    <glyph glyph-name="quotedblleft" unicode="&#x201c;" horiz-adv-x="351" 
d="M89 512l18 104l47 101h31l-35 -100h20l-18 -105h-63zM230 512l19 104l46 101h31l-35 -100h20l-18 -105h-63z" />
    <glyph glyph-name="quotedblright" unicode="&#x201d;" horiz-adv-x="351" 
d="M101 511l36 101h-21l19 105h62l-18 -104l-46 -102h-32zM242 511l36 101h-21l19 105h62l-18 -104l-46 -102h-32z" />
    <glyph glyph-name="quoteleft" unicode="&#x2018;" horiz-adv-x="209" 
d="M89 512l18 104l47 101h31l-35 -100h20l-18 -105h-63z" />
    <glyph glyph-name="quoteright" unicode="&#x2019;" horiz-adv-x="209" 
d="M101 511l36 101h-21l19 105h62l-18 -104l-46 -102h-32z" />
    <glyph glyph-name="divide" unicode="&#xf7;" horiz-adv-x="564" 
d="M227 99l17 97h63l-17 -97h-63zM49 296l7 42h489l-7 -42h-489zM286 434l17 98h63l-17 -98h-63z" />
    <glyph glyph-name="lozenge" unicode="&#x25ca;" 
 />
    <glyph glyph-name="ydieresis" unicode="&#xff;" horiz-adv-x="475" 
d="M8 -206c-18 0 -36 2 -60 8l10 48c18 -4 40 -6 60 -6c44 0 84 29 108 71l52 97l-104 486h60l84 -417h2l214 417h60l-315 -591c-49 -92 -112 -113 -171 -113zM177 568l17 96h57l-17 -96h-57zM367 568l17 96h57l-17 -96h-57z" />
    <glyph glyph-name="Ydieresis" unicode="&#x178;" horiz-adv-x="573" 
d="M221 0l52 300l-155 413h65l129 -353l253 353h68l-301 -414l-52 -299h-59zM259 758l17 96h57l-17 -96h-57zM449 758l17 96h57l-17 -96h-57z" />
    <glyph glyph-name="fraction" unicode="&#x2044;" horiz-adv-x="446" 
d="M-40 -37l437 764h47l-437 -764h-47z" />
    <glyph glyph-name="Euro" unicode="&#x20ac;" horiz-adv-x="694" 
d="M350 -13c-127 0 -210 64 -210 191c0 17 1 36 9 77h-88l6 35h88l23 135h-91l7 34h90c35 173 131 268 288 268c130 0 215 -67 215 -170c0 -15 -3 -42 -10 -75h-57c6 37 7 49 7 60c0 79 -60 130 -168 130c-123 0 -193 -84 -215 -213h270l-7 -34h-268l-24 -135h272l-7 -35
h-271c-6 -37 -8 -52 -8 -66c0 -94 55 -148 159 -148c120 0 200 68 215 179h56c0 -5 -2 -10 -7 -35c-28 -120 -130 -198 -274 -198z" />
    <glyph glyph-name="guilsinglleft" unicode="&#x2039;" horiz-adv-x="323" 
d="M228 83l-154 185l218 186l25 -31l-172 -156l116 -159z" />
    <glyph glyph-name="guilsinglright" unicode="&#x203a;" horiz-adv-x="323" 
d="M53 83l-26 32l173 155l-118 157l35 27l154 -185z" />
    <glyph glyph-name="daggerdbl" unicode="&#x2021;" horiz-adv-x="548" 
d="M188 -163l33 191h-208l7 43h209l73 413h-209l7 43h210l33 188h49l-33 -188h209l-7 -43h-210l-73 -413h210l-8 -43h-209l-34 -191h-49z" />
    <glyph glyph-name="periodcentered" unicode="&#xb7;" horiz-adv-x="209" 
d="M104 362l19 106h62l-19 -106h-62z" />
    <glyph glyph-name="quotesinglbase" unicode="&#x201a;" horiz-adv-x="211" 
d="M34 -100l35 102h-20l18 104h62l-18 -104l-46 -102h-31z" />
    <glyph glyph-name="quotedblbase" unicode="&#x201e;" horiz-adv-x="350" 
d="M34 -100l36 102h-21l18 104h63l-19 -104l-46 -102h-31zM175 -100l36 102h-21l18 104h63l-18 -104l-47 -102h-31z" />
    <glyph glyph-name="perthousand" unicode="&#x2030;" horiz-adv-x="1091" 
d="M217 357c-65 0 -107 32 -107 92c0 9 0 17 2 27l23 131c15 80 76 119 147 119c61 0 111 -27 111 -92c0 -9 -1 -18 -3 -27l-24 -136c-13 -74 -79 -114 -149 -114zM224 393c53 0 93 33 100 77l25 143c1 5 2 11 2 15c0 38 -27 64 -74 64c-53 0 -90 -33 -98 -79l-25 -143
c-1 -6 -2 -11 -2 -17c0 -39 27 -60 72 -60zM537 -11c-61 0 -106 27 -106 88c0 9 0 18 2 26l23 131c14 80 75 123 147 123c61 0 112 -26 112 -92c0 -8 -1 -17 -3 -27l-24 -135c-14 -75 -80 -114 -151 -114zM545 24c54 0 92 34 100 78l26 142c1 6 1 10 1 15
c0 38 -27 64 -74 64c-53 0 -90 -33 -98 -79l-26 -142c-1 -6 -1 -12 -1 -18c0 -38 26 -60 72 -60zM868 -11c-61 0 -107 28 -107 89c0 8 0 17 2 25l23 131c14 81 76 123 148 123c61 0 111 -26 111 -92c0 -8 -1 -17 -3 -27l-24 -135c-14 -75 -80 -114 -150 -114zM875 24
c55 0 93 34 101 78l25 142c1 6 2 10 2 15c0 38 -28 64 -75 64c-53 0 -90 -33 -98 -79l-25 -142c-1 -6 -1 -12 -1 -18c0 -38 26 -60 71 -60zM119 -8l546 731h43l-545 -731h-44z" />
    <glyph glyph-name="Acircumflex" unicode="&#xc2;" horiz-adv-x="652" 
d="M4 0l391 715h58l137 -715h-62l-41 226h-299l-122 -226h-62zM213 277h266l-67 365h-2zM308 778l120 155h56l58 -155h-50l-43 115l-88 -115h-53z" />
    <glyph glyph-name="Ecircumflex" unicode="&#xca;" horiz-adv-x="585" 
d="M50 0l125 713h444l-9 -53h-383l-47 -264h317l-9 -53h-318l-51 -290h385l-9 -53h-445zM291 787l120 155h56l58 -155h-50l-43 115l-88 -115h-53z" />
    <glyph glyph-name="Aacute" unicode="&#xc1;" horiz-adv-x="652" 
d="M4 0l391 715h58l137 -715h-62l-41 226h-299l-122 -226h-62zM213 277h266l-67 365h-2zM405 786l118 156h69l-138 -156h-49z" />
    <glyph glyph-name="Edieresis" unicode="&#xcb;" horiz-adv-x="585" 
d="M50 0l125 713h444l-9 -53h-383l-47 -264h317l-9 -53h-318l-51 -290h385l-9 -53h-445zM282 785l17 96h57l-17 -96h-57zM472 785l17 96h57l-17 -96h-57z" />
    <glyph glyph-name="Egrave" unicode="&#xc8;" horiz-adv-x="585" 
d="M50 0l125 713h444l-9 -53h-383l-47 -264h317l-9 -53h-318l-51 -290h385l-9 -53h-445zM402 786l-120 156h68l100 -156h-48z" />
    <glyph glyph-name="Iacute" unicode="&#xcd;" horiz-adv-x="508" 
d="M532 713l-10 -54h-156l-106 -605h156l-10 -54h-373l10 54h156l106 605h-156l10 54h373zM334 786l118 156h69l-138 -156h-49z" />
    <glyph glyph-name="Icircumflex" unicode="&#xce;" horiz-adv-x="508" 
d="M532 713l-10 -54h-156l-106 -605h156l-10 -54h-373l10 54h156l106 605h-156l10 54h373zM242 788l120 155h56l58 -155h-50l-43 115l-88 -115h-53z" />
    <glyph glyph-name="Idieresis" unicode="&#xcf;" horiz-adv-x="508" 
d="M532 713l-10 -54h-156l-106 -605h156l-10 -54h-373l10 54h156l106 605h-156l10 54h373zM235 785l17 96h57l-17 -96h-57zM425 785l17 96h57l-17 -96h-57z" />
    <glyph glyph-name="Igrave" unicode="&#xcc;" horiz-adv-x="508" 
d="M532 713l-10 -54h-156l-106 -605h156l-10 -54h-373l10 54h156l106 605h-156l10 54h373zM325 784l-120 156h68l100 -156h-48z" />
    <glyph glyph-name="Oacute" unicode="&#xd3;" horiz-adv-x="661" 
d="M300 -13c-125 0 -230 61 -230 190c0 13 1 30 4 45c6 30 11 59 44 249c28 155 157 256 311 256c130 0 229 -67 229 -193c0 -16 -2 -32 -5 -49c-5 -27 -9 -54 -43 -242c-27 -155 -156 -256 -310 -256zM309 41c117 0 219 78 240 196c5 28 10 57 44 249c3 14 4 29 4 41
c0 95 -68 145 -176 145c-123 0 -217 -71 -242 -202c-5 -29 -10 -58 -42 -237c-2 -15 -4 -29 -4 -43c0 -95 71 -149 176 -149zM404 788l118 156h69l-138 -156h-49z" />
    <glyph glyph-name="Ocircumflex" unicode="&#xd4;" horiz-adv-x="661" 
d="M300 -13c-125 0 -230 61 -230 190c0 13 1 30 4 45c6 30 11 59 44 249c28 155 157 256 311 256c130 0 229 -67 229 -193c0 -16 -2 -32 -5 -49c-5 -27 -9 -54 -43 -242c-27 -155 -156 -256 -310 -256zM309 41c117 0 219 78 240 196c5 28 10 57 44 249c3 14 4 29 4 41
c0 95 -68 145 -176 145c-123 0 -217 -71 -242 -202c-5 -29 -10 -58 -42 -237c-2 -15 -4 -29 -4 -43c0 -95 71 -149 176 -149zM321 789l120 155h56l58 -155h-50l-43 115l-88 -115h-53z" />
    <glyph glyph-name="apple" horiz-adv-x="1009" 
d="M627 -77l-154 3l-18 -2l-6 7c21 6 28 7 40 11c46 15 52 47 55 60c4 36 10 126 14 219c-35 -1 -69 -2 -98 -3l2 11l97 6c5 92 9 183 10 219l39 23c-58 3 -119 5 -178 7c-1 -50 -5 -105 -7 -139c-11 -209 -138 -276 -193 -276c-41 0 -125 28 -150 42l23 37
c13 -3 112 -48 158 -47c64 1 127 102 124 199c1 23 3 102 5 185c-20 0 -40 1 -61 1c-76 0 -154 -64 -154 -147c11 -25 37 -49 77 -67c0 -7 -11 -32 -16 -37c-56 24 -70 67 -73 96c0 99 83 172 197 192h31c2 68 4 133 5 166l40 18c-76 3 -156 8 -243 8
c-76 0 -154 -62 -154 -145c12 -25 38 -46 78 -63c0 -6 -18 -32 -21 -37c-57 24 -71 66 -74 96c0 99 100 165 188 187c114 0 217 -8 343 -11c24 0 38 -1 62 -2c9 0 32 -1 40 -1c17 -1 22 1 33 3c8 6 18 18 22 27l8 -3c-5 -13 -18 -29 -24 -34c-39 -20 -67 -29 -113 -29
s-93 2 -140 4c-5 -25 -4 -114 -7 -135c-1 -14 -1 -32 -2 -50c122 -4 263 -14 396 -14c-6 -1 113 -5 155 15l4 -6c-70 -31 -135 -43 -224 -43c-44 0 -94 1 -147 3c-5 -34 -11 -165 -13 -187c0 -13 -1 -31 -2 -53l147 10h4l4 -3l-35 -52l-7 4l23 35c-40 -3 -88 -6 -137 -9
c-4 -67 -10 -154 -13 -193c-3 -22 -31 -64 -55 -75l1 -1c52 9 114 4 165 8v-1c0 -13 -13 -33 -28 -35c-11 -2 -25 -2 -43 -2z" />
    <glyph glyph-name="Ograve" unicode="&#xd2;" horiz-adv-x="661" 
d="M300 -13c-125 0 -230 61 -230 190c0 13 1 30 4 45c6 30 11 59 44 249c28 155 157 256 311 256c130 0 229 -67 229 -193c0 -16 -2 -32 -5 -49c-5 -27 -9 -54 -43 -242c-27 -155 -156 -256 -310 -256zM309 41c117 0 219 78 240 196c5 28 10 57 44 249c3 14 4 29 4 41
c0 95 -68 145 -176 145c-123 0 -217 -71 -242 -202c-5 -29 -10 -58 -42 -237c-2 -15 -4 -29 -4 -43c0 -95 71 -149 176 -149zM423 788l-120 156h68l100 -156h-48z" />
    <glyph glyph-name="Uacute" unicode="&#xda;" horiz-adv-x="668" 
d="M299 -12c-108 0 -219 49 -219 187c0 17 1 35 4 53l87 485h60l-84 -471c-3 -18 -5 -36 -5 -51c0 -107 76 -149 165 -149c125 0 218 72 236 195l84 476h60c-11 -58 -21 -116 -86 -481c-24 -153 -140 -244 -302 -244zM403 786l118 156h69l-138 -156h-49z" />
    <glyph glyph-name="Ucircumflex" unicode="&#xdb;" horiz-adv-x="668" 
d="M299 -12c-108 0 -219 49 -219 187c0 17 1 35 4 53l87 485h60l-84 -471c-3 -18 -5 -36 -5 -51c0 -107 76 -149 165 -149c125 0 218 72 236 195l84 476h60c-11 -58 -21 -116 -86 -481c-24 -153 -140 -244 -302 -244zM317 788l120 155h56l58 -155h-50l-43 115l-88 -115h-53z
" />
    <glyph glyph-name="Ugrave" unicode="&#xd9;" horiz-adv-x="668" 
d="M299 -12c-108 0 -219 49 -219 187c0 17 1 35 4 53l87 485h60l-84 -471c-3 -18 -5 -36 -5 -51c0 -107 76 -149 165 -149c125 0 218 72 236 195l84 476h60c-11 -58 -21 -116 -86 -481c-24 -153 -140 -244 -302 -244zM428 788l-120 156h68l100 -156h-48z" />
    <glyph glyph-name="dotlessi" unicode="&#x131;" horiz-adv-x="208" 
d="M40 0l87 497h57l-88 -497h-56z" />
    <glyph glyph-name="circumflex" unicode="&#x2c6;" horiz-adv-x="394" 
d="M128 569l120 155h56l58 -155h-50l-43 115l-88 -115h-53z" />
    <glyph glyph-name="tilde" unicode="&#x2dc;" horiz-adv-x="434" 
d="M148 578l42 4c-21 5 -43 8 -74 2c17 50 50 89 99 89c56 0 102 -37 160 -37c29 0 45 19 61 50l31 -8c-21 -52 -55 -90 -101 -90c-57 0 -108 39 -160 39c-30 0 -44 -21 -58 -49z" />
    <glyph glyph-name="macron" unicode="&#xaf;" horiz-adv-x="406" 
d="M124 606l8 52h295l-9 -52h-294z" />
    <glyph glyph-name="breve" unicode="&#x2d8;" horiz-adv-x="374" 
d="M254 593l-71 58c-34 3 -58 30 -51 73h45c-4 -52 19 -89 85 -89c54 0 101 37 115 89h44c-20 -92 -103 -131 -167 -131z" />
    <glyph glyph-name="dotaccent" unicode="&#x2d9;" horiz-adv-x="207" 
d="M89 603l18 100h62l-18 -100h-62z" />
    <glyph glyph-name="ring" unicode="&#x2da;" horiz-adv-x="302" 
d="M194 562c-49 0 -78 28 -78 68c0 55 46 105 102 105c48 0 79 -25 79 -68c0 -57 -47 -105 -103 -105zM196 590c32 0 68 26 68 71c0 29 -21 45 -50 45c-34 0 -64 -29 -64 -72c0 -30 22 -44 46 -44z" />
    <glyph glyph-name="cedilla" unicode="&#xb8;" horiz-adv-x="394" 
d="M143 -198l-61 12c-11 0 -26 2 -32 16c16 -7 42 -12 60 9c40 -4 83 6 91 33c16 12 14 31 -20 39c0 7 -8 8 -33 8l4 49l28 37l3 -38l2 -23c43 0 86 -12 86 -54c0 -4 0 -8 -1 -12c-8 -47 -54 -76 -127 -76z" />
    <glyph glyph-name="hungarumlaut" unicode="&#x2dd;" horiz-adv-x="410" 
d="M124 577l112 175h70l-131 -175h-51zM280 577l112 175h70l-131 -175h-51z" />
    <glyph glyph-name="ogonek" unicode="&#x2db;" horiz-adv-x="400" 
d="M151 -192c-49 0 -93 20 -93 64c0 76 88 122 147 145l25 -9c-65 -27 -126 -67 -126 -124c0 -31 22 -47 68 -47c17 0 42 3 56 6l-5 -24c-19 -6 -52 -11 -72 -11z" />
    <glyph glyph-name="caron" unicode="&#x2c7;" horiz-adv-x="302" 
d="M193 576l-58 156h50l42 -118l89 118h52l-121 -156h-54z" />
    <glyph glyph-name="nbspace" unicode="&#xa0;" horiz-adv-x="80" 
 />
    <glyph glyph-name="currency" unicode="&#xa4;" horiz-adv-x="694" 
d="M350 -13c-127 0 -210 64 -210 191c0 17 1 36 9 77h-88l6 35h88l23 135h-91l7 34h90c35 173 131 268 288 268c130 0 215 -67 215 -170c0 -15 -3 -42 -10 -75h-57c6 37 7 49 7 60c0 79 -60 130 -168 130c-123 0 -193 -84 -215 -213h270l-7 -34h-268l-24 -135h272l-7 -35
h-271c-6 -37 -8 -52 -8 -66c0 -94 55 -148 159 -148c120 0 200 68 215 179h56c0 -5 -2 -10 -7 -35c-28 -120 -130 -198 -274 -198z" />
    <glyph glyph-name="uni00AD" unicode="&#xad;" horiz-adv-x="355" 
d="M51 257l9 53h256l-9 -53h-256z" />
    </font>
</defs>
</svg>
