<?xml version="1.0" standalone="no"?>
<!DOCTYPE svg PUBLIC "-//W3C//DTD SVG 1.1//EN" "http://www.w3.org/Graphics/SVG/1.1/DTD/svg11.dtd" >
<svg xmlns="http://www.w3.org/2000/svg" xmlns:xlink="http://www.w3.org/1999/xlink" version="1.1">
<metadata>
Created by FontForge 20161003 at Wed May 16 12:26:44 2018
 By www-data
Font software Copyright 1992 Adobe Systems Incorporated. Typeface designs Copyright 2005 International Typeface Corporation. All rights reserved. "ITC" and "New Baskerville" are trademarks of International Typeface Corporation Registered in U.S. Patent and Trademark Office and may be registered in certain other jurisdictions.
</metadata>
<defs>
<font id="NewBaskervilleStd-Black" horiz-adv-x="551" >
  <font-face 
    font-family="ITC New Baskerville Std Blk"
    font-weight="900"
    font-stretch="normal"
    units-per-em="1000"
    panose-1="2 0 5 3 8 0 0 2 0 3"
    ascent="692"
    descent="-308"
    x-height="432"
    cap-height="660"
    bbox="-181 -281 1139 893"
    underline-thickness="50"
    underline-position="-100"
    stemh="44"
    stemv="120"
    unicode-range="U+0020-FB02"
  />
<missing-glyph horiz-adv-x="500" 
d="M12 0v665h475v-665h-475zM88 618l162 -243l161 243h-323zM60 575v-484c0 -1 161 242 161 242zM440 575l-162 -242l162 -243v485zM411 48l-161 242l-162 -242h323z" />
    <glyph glyph-name="f_i" unicode="fi" horiz-adv-x="612" 
d="M602 -2c-44 2 -87 4 -128 4c-45 0 -93 -2 -142 -4v43c44 3 45 15 45 66v233c0 37 -29 41 -62 41h-72v-275c0 -51 1 -63 45 -68v-40c-46 2 -92 4 -134 4c-44 0 -92 -2 -139 -4v43c57 1 65 8 65 74v266h-65v50h65v33c0 147 67 225 242 225c125 0 195 -45 195 -98
c0 -41 -31 -67 -64 -67c-54 0 -67 38 -90 84c-8 17 -31 32 -56 32c-57 0 -64 -69 -64 -150v-59h166c46 0 82 7 111 14h20v-331c0 -64 4 -73 62 -76v-40z" />
    <glyph glyph-name="f_l" unicode="fl" horiz-adv-x="609" 
d="M602 -2c-48 2 -95 4 -139 4c-43 0 -87 -2 -131 -4v44c36 1 45 7 45 76v444c-9 45 -37 64 -64 64c-24 0 -47 -15 -58 -38c-10 -21 -12 -59 -12 -110v-47h86v-50h-86v-275c0 -51 1 -63 45 -68v-40c-46 2 -92 4 -134 4c-44 0 -92 -2 -139 -4v43c57 1 65 8 65 74v266h-65v50
h65v21c0 147 67 224 242 224c31 0 59 -4 85 -9c63 5 95 16 118 25h15v-576c0 -65 4 -74 62 -76v-42z" />
    <glyph glyph-name=".notdef" horiz-adv-x="500" 
d="M12 0v665h475v-665h-475zM88 618l162 -243l161 243h-323zM60 575v-484c0 -1 161 242 161 242zM440 575l-162 -242l162 -243v485zM411 48l-161 242l-162 -242h323z" />
    <glyph glyph-name="space" unicode=" " horiz-adv-x="260" 
 />
    <glyph glyph-name="exclam" unicode="!" horiz-adv-x="319" 
d="M254 569c0 -76 -61 -174 -69 -349h-52c-8 176 -68 273 -68 349c0 58 34 100 94 100s95 -42 95 -100zM254 84c0 -53 -42 -95 -95 -95s-94 42 -94 95s41 94 94 94s95 -42 95 -94z" />
    <glyph glyph-name="quotedbl" unicode="&#x22;" horiz-adv-x="450" 
d="M384 600c0 -8 -3 -21 -5 -34c-11 -60 -25 -125 -37 -182h-50c-12 58 -25 125 -37 182c-3 13 -5 26 -5 34c0 39 20 69 67 69c43 0 67 -29 67 -69zM200 600c0 -8 -3 -21 -5 -34c-11 -60 -25 -125 -37 -182h-50c-12 58 -25 125 -37 182c-3 13 -5 26 -5 34c0 39 20 69 67 69
c43 0 67 -29 67 -69z" />
    <glyph glyph-name="numbersign" unicode="#" 
d="M528 481l-12 -81h-97l-19 -128h98l-13 -81h-97l-30 -191h-90l30 191h-88l-30 -191h-90l30 191h-97l13 81h96l19 128h-97l13 81h97l28 183h90l-28 -183h88l28 183h90l-28 -183h96zM329 400h-88l-19 -128h88z" />
    <glyph glyph-name="dollar" unicode="$" 
d="M506 187c0 -54 -17 -99 -53 -134c-45 -44 -98 -55 -158 -64v-84h-52v84c-159 7 -218 69 -218 127c0 42 26 69 63 69c38 0 59 -21 69 -60c13 -53 18 -82 86 -89v224c-109 54 -202 103 -202 214c0 79 44 142 114 169c32 12 64 16 88 19v72h52v-72c136 -13 197 -61 197 -123
c0 -37 -30 -65 -60 -65c-34 0 -57 23 -65 57c-10 44 -13 76 -72 84v-192c140 -60 211 -127 211 -236zM243 448v167c-54 -8 -83 -31 -83 -72c0 -43 30 -69 83 -95zM386 129c0 51 -44 75 -91 102v-195c63 10 91 39 91 93z" />
    <glyph glyph-name="percent" unicode="%" horiz-adv-x="788" 
d="M755 212c0 -125 -79 -245 -188 -245c-88 0 -156 58 -156 155c0 119 94 231 204 231c93 0 140 -61 140 -141zM655 702l-458 -757h-61l387 641c-23 -9 -49 -16 -82 -16c-26 0 -49 6 -65 10c1 -14 2 -34 2 -49c0 -97 -73 -239 -185 -239c-95 0 -162 68 -162 163
c0 102 90 226 203 226c25 0 50 -6 70 -18c50 -31 77 -56 135 -56c59 0 114 35 168 95h48zM711 211c0 58 -21 92 -56 92c-53 0 -115 -109 -115 -217c0 -54 26 -74 47 -74c65 0 124 113 124 199zM335 532c0 65 -22 100 -60 100c-58 0 -112 -132 -112 -218c0 -47 23 -72 50 -72
c59 0 122 110 122 190z" />
    <glyph glyph-name="ampersand" unicode="&#x26;" horiz-adv-x="818" 
d="M804 104c-46 -73 -121 -116 -197 -116c-95 0 -138 40 -193 89c-71 -56 -144 -90 -224 -90c-106 0 -158 69 -158 128c0 91 63 147 167 216c-36 56 -56 107 -56 161c0 98 69 177 188 177c97 0 165 -54 165 -129c0 -66 -42 -116 -123 -156c0 0 38 -45 120 -140
c58 99 109 176 196 176c62 0 103 -39 103 -87c0 -58 -39 -96 -83 -96c-42 0 -68 26 -72 51c-2 14 0 29 -16 29c-24 0 -41 -33 -90 -113c60 -74 116 -111 164 -111c33 0 52 20 72 42zM381 533c0 51 -23 86 -60 86c-25 0 -46 -20 -46 -55c0 -49 34 -96 68 -141
c26 34 38 69 38 110zM377 110c-66 67 -117 129 -150 180c-24 -22 -45 -43 -45 -78c0 -62 65 -134 122 -134c29 0 52 13 73 32z" />
    <glyph glyph-name="quoteright" unicode="&#x2019;" horiz-adv-x="301" 
d="M256 544c0 -89 -64 -165 -187 -222l-18 34c80 42 126 82 137 174c-18 -12 -38 -26 -63 -26c-41 0 -79 40 -79 84c0 49 37 92 92 92c65 0 118 -62 118 -136z" />
    <glyph glyph-name="parenleft" unicode="(" horiz-adv-x="324" 
d="M288 -186l-28 -24c-147 143 -224 284 -224 431c0 184 65 319 224 471l28 -25c-81 -119 -120 -236 -120 -400c0 -209 36 -330 120 -453z" />
    <glyph glyph-name="parenright" unicode=")" horiz-adv-x="324" 
d="M288 262c0 -185 -66 -320 -225 -472l-28 24c81 118 121 236 121 401c0 208 -37 330 -121 453l28 24c148 -143 225 -283 225 -430z" />
    <glyph glyph-name="asterisk" unicode="*" 
d="M470 377c0 -37 -28 -56 -52 -56c-49 0 -59 48 -92 80c-14 14 -33 27 -35 27v0c0 -73 37 -90 37 -130c0 -37 -23 -58 -52 -58s-53 20 -53 58s35 61 35 111v2v0c0 4 2 17 2 17c-1 0 -29 -17 -46 -38c-24 -30 -36 -69 -81 -69c-23 0 -53 19 -53 56c0 23 21 53 79 56
c55 3 84 17 84 19s-17 21 -95 24c-45 2 -68 28 -68 58c0 25 25 54 55 54c26 0 46 -19 62 -44c14 -22 29 -44 57 -60c2 -1 4 -4 6 -4v1c0 63 -38 85 -38 131c0 26 21 57 54 57c32 0 53 -30 53 -57c0 -43 -31 -63 -36 -106l-3 -25c8 0 34 18 64 63c17 25 35 44 61 44
c29 0 55 -28 55 -54c0 -40 -29 -56 -82 -58c-44 -2 -80 -18 -80 -21c0 -4 27 -19 83 -22c58 -3 79 -33 79 -56z" />
    <glyph glyph-name="plus" unicode="+" 
d="M502 189h-184v-189h-85v189h-184v84h184v185h85v-185h184v-84z" />
    <glyph glyph-name="comma" unicode="," horiz-adv-x="292" 
d="M252 36c0 -89 -67 -169 -194 -223l-16 34c84 41 127 78 140 156c-12 -7 -28 -14 -50 -14c-56 0 -90 47 -90 90c0 54 40 94 95 94c58 0 115 -57 115 -137z" />
    <glyph glyph-name="hyphen" unicode="-" horiz-adv-x="298" 
d="M273 158h-247v128h247v-128z" />
    <glyph glyph-name="period" unicode="." horiz-adv-x="292" 
d="M241 84c0 -53 -42 -95 -95 -95s-94 42 -94 95s41 94 94 94s95 -42 95 -94z" />
    <glyph glyph-name="slash" unicode="/" horiz-adv-x="526" 
d="M504 669l-405 -804h-77l405 804h77z" />
    <glyph glyph-name="zero" unicode="0" 
d="M514 332c0 -219 -111 -348 -236 -348c-132 0 -242 129 -242 347c0 189 101 333 238 333c151 0 240 -167 240 -332zM342 355c0 177 -17 259 -65 259c-53 0 -68 -85 -68 -314c0 -182 21 -267 69 -267c52 0 64 108 64 322z" />
    <glyph glyph-name="one" unicode="1" 
d="M478 -2c-57 2 -118 4 -183 4c-64 0 -128 -2 -187 -4v45c97 2 99 11 99 112v269c0 138 -5 143 -81 143h-18v44c79 2 147 9 235 54h37v-510v-11c0 -90 2 -97 98 -101v-45z" />
    <glyph glyph-name="two" unicode="2" 
d="M495 481c0 -157 -170 -200 -316 -345h314l-41 -196h-41v18c0 8 1 12 1 20c0 20 -18 22 -116 22h-147c-41 0 -84 -1 -128 -2c49 97 86 135 104 156c108 129 194 200 194 343c0 67 -35 117 -89 117c-40 0 -70 -35 -70 -81c0 -44 27 -65 50 -65c8 0 15 3 20 7c4 3 6 6 14 6
c4 0 5 -7 5 -13v-8c0 -33 -38 -80 -95 -80c-71 0 -113 63 -113 117c0 96 75 167 217 167c145 0 237 -75 237 -183z" />
    <glyph glyph-name="three" unicode="3" 
d="M495 215c0 -132 -123 -231 -280 -231c-125 0 -191 51 -191 102c0 37 27 65 62 65c31 0 53 -21 65 -47c14 -31 29 -71 70 -71c54 0 98 53 98 166c0 84 -28 130 -65 130c-49 0 -49 -74 -95 -74c-19 0 -35 15 -35 36c0 18 14 31 33 42c62 37 139 76 139 184
c0 59 -28 93 -72 93c-33 0 -61 -31 -61 -64c0 -24 15 -42 37 -42c15 0 21 11 30 11c7 0 7 -11 7 -18c0 -30 -36 -75 -92 -75c-51 0 -90 36 -90 90c0 77 83 152 220 152c119 0 187 -55 187 -125c0 -78 -67 -132 -193 -172c11 1 18 1 28 1h6c127 0 192 -62 192 -153z" />
    <glyph glyph-name="four" unicode="4" 
d="M535 -2c-43 2 -90 4 -139 4c-77 0 -154 -2 -225 -4v45c78 4 95 7 95 81v66h-255v64l319 404h106v-404h93v-64h-93v-66c0 -73 17 -77 99 -81v-45zM266 254v239l-192 -239h192z" />
    <glyph glyph-name="five" unicode="5" 
d="M502 222c0 -125 -109 -238 -288 -238c-116 0 -188 46 -188 105c0 34 30 62 64 62c23 0 48 -15 56 -32c25 -54 35 -86 78 -86c57 0 98 56 98 178c0 90 -37 134 -89 134c-42 0 -77 -22 -77 -55c0 -9 1 -13 1 -22c0 -25 -13 -39 -35 -39c-32 0 -36 24 -36 44v6l14 384h43
c48 -29 106 -42 158 -42c68 0 107 15 132 50h41c-25 -118 -109 -176 -241 -176c-35 0 -63 6 -85 9l-5 -146c37 33 83 56 164 56c91 0 195 -62 195 -192z" />
    <glyph glyph-name="six" unicode="6" 
d="M520 223c0 -132 -90 -239 -241 -239c-147 0 -242 105 -242 313c0 222 103 367 282 367c110 0 168 -46 168 -98c0 -36 -21 -64 -61 -64c-36 0 -62 29 -75 67c-10 29 -27 41 -54 41c-67 0 -75 -97 -84 -232c30 22 65 42 108 42c123 0 199 -86 199 -197zM344 206
c0 92 -10 149 -69 149c-23 0 -45 -18 -65 -44c-1 -37 -3 -74 -3 -103c0 -107 13 -175 68 -175c59 0 69 65 69 173z" />
    <glyph glyph-name="seven" unicode="7" 
d="M514 622c-69 -143 -115 -280 -137 -389c-25 -121 1 -254 -117 -254c-23 0 -51 11 -68 32s-17 41 -17 64v4c0 48 85 187 242 433h-182c-115 0 -110 -8 -136 -101h-45c11 63 31 165 60 303h44c-2 -10 -5 -26 -5 -35c0 -31 14 -32 67 -32h294v-25z" />
    <glyph glyph-name="eight" unicode="8" 
d="M512 193c0 -122 -97 -209 -245 -209s-233 84 -233 161c0 68 47 119 136 156c-77 44 -117 96 -117 178c0 110 89 185 226 185c129 0 210 -67 210 -148c0 -52 -35 -98 -110 -132c84 -46 133 -99 133 -191zM369 505c0 63 -42 109 -104 109c-43 0 -89 -22 -89 -74
c0 -76 77 -93 159 -134c20 29 34 54 34 99zM388 131c0 85 -88 106 -175 148c-36 -32 -54 -73 -54 -125c0 -63 41 -121 119 -121c66 0 110 43 110 98z" />
    <glyph glyph-name="nine" unicode="9" 
d="M513 351c0 -222 -102 -367 -281 -367c-111 0 -169 48 -169 99c0 36 21 64 61 64c35 0 63 -30 76 -68c10 -28 26 -41 53 -41c67 0 75 96 84 231c-31 -22 -65 -40 -107 -40c-124 0 -198 84 -198 195c0 132 87 240 238 240c147 0 243 -105 243 -313zM344 440
c0 107 -14 174 -68 174c-60 0 -68 -65 -68 -172c0 -91 7 -149 67 -149c22 0 45 16 66 43c1 36 3 73 3 104z" />
    <glyph glyph-name="colon" unicode=":" horiz-adv-x="292" 
d="M241 348c0 -53 -43 -94 -95 -94s-94 41 -94 94s42 95 94 95s95 -42 95 -95zM241 84c0 -53 -42 -95 -95 -95s-94 42 -94 95s41 94 94 94s95 -42 95 -94z" />
    <glyph glyph-name="semicolon" unicode=";" horiz-adv-x="292" 
d="M221 348c0 -52 -42 -94 -95 -94c-52 0 -94 41 -94 94c0 52 42 95 94 95s95 -42 95 -95zM233 36c0 -89 -66 -169 -193 -223l-17 34c84 41 128 78 141 156c-12 -7 -29 -14 -51 -14c-56 0 -90 47 -90 90c0 54 41 94 96 94c58 0 114 -57 114 -137z" />
    <glyph glyph-name="less" unicode="&#x3c;" 
d="M502 0l-453 189v84l453 185v-84l-369 -143l369 -147v-84z" />
    <glyph glyph-name="equal" unicode="=" 
d="M502 273h-453v84h453v-84zM502 105h-453v84h453v-84z" />
    <glyph glyph-name="greater" unicode="&#x3e;" 
d="M502 189l-453 -189v84l369 147l-369 143v84l453 -185v-84z" />
    <glyph glyph-name="question" unicode="?" horiz-adv-x="417" 
d="M385 441c0 -106 -65 -152 -194 -152h-35v-58h-47v195c26 -2 60 -7 97 -7c70 0 109 20 109 80c0 32 -30 67 -79 67c-41 0 -80 -23 -120 -23c-46 0 -73 24 -73 61c0 38 29 65 95 65c124 0 247 -108 247 -228zM231 84c0 -53 -42 -95 -95 -95s-94 42 -94 95s41 94 94 94
s95 -42 95 -94z" />
    <glyph glyph-name="at" unicode="@" horiz-adv-x="929" 
d="M881 334c0 -143 -93 -288 -268 -288c-50 0 -94 23 -106 82c-53 -50 -109 -82 -173 -82c-74 0 -119 47 -119 128c0 175 143 315 282 315c46 0 84 -22 103 -76l23 66h144l-89 -238c-17 -45 -41 -99 -41 -119c0 -17 8 -23 23 -23c94 0 166 124 166 237
c0 151 -94 278 -296 278c-219 0 -382 -148 -382 -385c0 -180 98 -309 324 -309c92 0 193 31 255 89l34 -34c-76 -67 -205 -114 -301 -114c-246 0 -422 127 -422 374c0 305 272 434 477 434c244 0 366 -136 366 -335zM565 377c0 24 -9 48 -40 48c-73 0 -164 -160 -164 -265
c0 -26 13 -50 45 -50c76 0 159 190 159 267z" />
    <glyph glyph-name="A" unicode="A" horiz-adv-x="662" 
d="M681 -2c-56 2 -117 4 -177 4c-64 0 -124 -2 -179 -4v46c49 1 72 12 72 41c0 13 -5 34 -11 49l-23 61h-194l-16 -42c-7 -19 -12 -33 -12 -57c0 -41 38 -49 76 -52v-46c-37 2 -78 4 -118 4c-42 0 -82 -2 -119 -4v46c60 15 78 34 122 138l200 472h64l208 -496
c32 -76 39 -102 107 -114v-46zM343 248l-75 196l-77 -196h152z" />
    <glyph glyph-name="B" unicode="B" horiz-adv-x="679" 
d="M645 175c0 -69 -32 -116 -99 -149c-49 -24 -89 -27 -129 -27h-43c-57 0 -109 3 -152 3c-51 0 -122 -2 -209 -4v46c75 2 94 9 94 104v361c0 95 -19 101 -94 104v47c65 -1 127 -4 180 -4c45 0 71 1 116 1c59 0 111 0 148 -7c98 -17 154 -76 154 -143
c0 -95 -69 -138 -188 -161c148 -15 222 -79 222 -171zM417 489c0 74 -33 114 -89 114c-37 0 -37 -6 -37 -32v-1v-198h32c55 0 94 42 94 117zM435 186c0 115 -71 131 -144 132v-176c0 -58 20 -89 62 -89c57 0 82 45 82 133z" />
    <glyph glyph-name="C" unicode="C" horiz-adv-x="706" 
d="M666 1h-52l-21 55c-57 -40 -121 -69 -212 -69c-213 0 -346 145 -346 346c0 160 129 336 356 336c92 0 142 -28 194 -68l16 58h52l4 -213h-56c-26 113 -97 161 -173 161c-114 0 -183 -106 -183 -283c0 -181 80 -273 186 -273c92 0 153 59 183 178h52v-228z" />
    <glyph glyph-name="D" unicode="D" horiz-adv-x="756" 
d="M720 315c0 -126 -56 -233 -152 -281c-57 -29 -118 -35 -188 -35c-75 0 -151 3 -226 3c-49 0 -97 -2 -141 -4v46c75 2 94 9 94 104v361c0 95 -19 101 -94 104v47c49 -1 102 -4 156 -4c62 0 119 4 168 4c249 0 383 -144 383 -345zM510 324c0 184 -57 282 -172 282
c-38 0 -40 -6 -40 -28v-10v-390v-3c0 -69 0 -122 71 -122c96 0 141 94 141 271z" />
    <glyph glyph-name="E" unicode="E" horiz-adv-x="634" 
d="M614 -2c-58 1 -119 2 -181 2h-230c-65 0 -130 -1 -190 -2v46c75 2 94 9 94 104v361c0 95 -19 101 -94 104v47c60 -1 123 -3 185 -3h204c55 0 112 2 168 3l8 -180h-47c-24 102 -51 123 -176 123c-52 0 -57 -6 -57 -36v-200c62 0 99 11 117 108h48v-271h-48
c-12 74 -27 109 -117 112v-161c0 -81 25 -101 116 -101c114 0 135 58 156 145h44v-201z" />
    <glyph glyph-name="F" unicode="F" horiz-adv-x="582" 
d="M580 479h-44c-22 100 -57 123 -176 123c-57 0 -62 -7 -62 -50v-185c70 0 100 11 119 107h49v-269h-49c-16 78 -21 107 -119 108v-128c0 -123 2 -138 106 -141v-46c-65 2 -133 4 -201 4s-133 -2 -190 -4v46c75 2 94 9 94 104v361c0 95 -19 101 -94 104v47
c69 -1 133 -4 187 -4h155c68 0 145 3 225 4v-181z" />
    <glyph glyph-name="G" unicode="G" horiz-adv-x="771" 
d="M758 244c-61 -4 -62 -21 -62 -74v-3v-115c-125 -8 -186 -65 -316 -65c-199 0 -345 128 -345 325c0 238 174 357 352 357c90 0 144 -28 193 -63l17 53h54v-221h-49c-27 115 -96 169 -178 169c-110 0 -179 -96 -179 -286c0 -186 57 -276 157 -276c70 0 105 36 105 111
c0 81 -27 87 -85 89v44c70 -1 128 -2 169 -2c56 0 113 1 167 2v-45z" />
    <glyph glyph-name="H" unicode="H" horiz-adv-x="835" 
d="M821 -2c-60 2 -124 4 -189 4c-67 0 -131 -2 -188 -4v46c75 3 93 9 93 104v159h-239v-159c0 -95 18 -102 93 -104v-46c-58 2 -120 4 -185 4c-66 0 -131 -2 -193 -4v46c75 2 94 9 94 104v361c0 95 -19 101 -94 104v47c56 -2 113 -4 169 -4h20c50 0 162 3 189 4v-47
c-75 -3 -93 -9 -93 -104v-144h239v144c0 93 -17 101 -93 104v47c62 -2 126 -4 186 -4c63 0 127 2 191 4v-47c-75 -3 -92 -9 -92 -104v-361c0 -95 17 -102 92 -104v-46z" />
    <glyph glyph-name="I" unicode="I" horiz-adv-x="404" 
d="M391 -2c-59 2 -123 4 -188 4c-67 0 -131 -2 -190 -4v46c75 2 94 9 94 104v361c0 95 -19 101 -94 104v47c62 -2 125 -4 188 -4s127 2 190 4v-47c-75 -3 -93 -9 -93 -104v-361c0 -95 18 -102 93 -104v-46z" />
    <glyph glyph-name="J" unicode="J" horiz-adv-x="391" 
d="M391 613c-75 -3 -93 -9 -93 -104v-465c0 -174 -72 -263 -238 -263c-124 0 -193 47 -193 112c0 40 33 75 77 75c42 0 69 -28 81 -80c6 -24 9 -53 42 -53c39 0 40 60 40 161v27v486c0 93 -18 101 -94 104v47c60 -2 124 -4 187 -4s127 2 191 4v-47z" />
    <glyph glyph-name="K" unicode="K" horiz-adv-x="767" 
d="M777 -2c-56 2 -116 4 -178 4c-64 0 -125 -2 -181 -4v46c40 3 59 4 59 31c0 18 -49 93 -144 211l-42 -48v-90c0 -98 14 -101 74 -104v-46c-51 2 -107 4 -164 4c-67 0 -131 -2 -188 -4v46c75 2 94 9 94 104v361c0 95 -19 101 -94 104v47c62 -2 126 -4 186 -4
c55 0 111 2 166 4v-47c-60 -2 -74 -11 -74 -104v-191l76 92c23 28 52 70 85 117c12 17 22 31 22 53c0 32 -31 33 -56 34v46c43 -2 87 -4 130 -4c40 0 83 2 125 4v-46c-88 -7 -102 -28 -177 -126l-50 -66c144 -167 215 -282 252 -327c30 -36 39 -47 79 -51v-46z" />
    <glyph glyph-name="L" unicode="L" horiz-adv-x="643" 
d="M633 195l-9 -197c-58 1 -119 2 -177 2h-241c-63 0 -129 -1 -193 -2v46c75 2 94 9 94 104v361c0 95 -19 101 -94 104v47c62 -2 126 -4 189 -4s126 2 189 4v-47c-75 -3 -93 -9 -93 -104v-314c0 -101 8 -141 115 -141c112 0 150 46 169 141h51z" />
    <glyph glyph-name="M" unicode="M" horiz-adv-x="910" 
d="M897 -2c-57 2 -119 4 -184 4c-64 0 -128 -2 -188 -4v46c75 2 94 9 94 104v327c-65 -153 -131 -320 -198 -477h-57l-204 483v-282c0 -110 6 -148 93 -155v-46c-37 2 -78 4 -119 4c-43 0 -86 -2 -123 -4v46c87 7 93 45 93 155v374c-17 32 -29 35 -93 41v46
c45 -2 92 -4 137 -4c42 0 87 2 132 4l179 -436c67 151 127 303 180 436c42 -2 84 -4 126 -4s88 2 132 4v-47c-75 -3 -94 -9 -94 -104v-361c0 -95 19 -102 94 -104v-46z" />
    <glyph glyph-name="N" unicode="N" horiz-adv-x="776" 
d="M768 613c-87 -7 -92 -44 -92 -155v-474h-78c-109 123 -179 215 -211 250l-227 249v-284c0 -111 6 -148 93 -155v-46c-38 2 -79 4 -120 4c-42 0 -85 -2 -122 -4v46c87 7 92 45 92 155v346c-38 47 -48 62 -99 69v46c40 -2 82 -4 123 -4c38 0 79 2 119 4
c57 -58 107 -113 131 -141l242 -285v224c0 111 -6 148 -93 155v47c40 -2 84 -4 125 -4c38 0 79 2 117 4v-47z" />
    <glyph glyph-name="O" unicode="O" horiz-adv-x="822" 
d="M787 333c0 -210 -166 -346 -369 -346c-231 0 -383 144 -383 343c0 182 147 339 378 339c219 0 374 -145 374 -336zM577 330c0 170 -64 285 -168 285c-112 0 -164 -96 -164 -283c0 -176 66 -292 172 -292c43 0 84 22 112 60c40 56 48 132 48 230z" />
    <glyph glyph-name="P" unicode="P" horiz-adv-x="667" 
d="M642 479c0 -49 -23 -101 -65 -133c-48 -37 -124 -51 -226 -51h-53v-110c0 -122 1 -138 103 -141v-46c-62 2 -127 4 -195 4s-134 -2 -193 -4v46c75 2 94 9 94 104v359c0 95 -19 103 -94 106v47c56 -2 112 -5 160 -5c46 0 96 2 144 2c84 0 147 -3 184 -12
c89 -21 141 -81 141 -166zM439 479c0 81 -33 124 -90 124c-49 0 -51 -5 -51 -47v-9v-198h28c76 0 113 44 113 130z" />
    <glyph glyph-name="Q" unicode="Q" horiz-adv-x="822" 
d="M856 -87c0 -97 -73 -189 -193 -189c-53 0 -125 25 -173 61c-77 58 -132 105 -190 105c-46 0 -92 -16 -118 -33c-12 -8 -22 -10 -34 -10c-18 0 -29 17 -29 33c0 48 54 30 260 115c-191 2 -344 144 -344 333c0 186 138 341 379 341c201 0 373 -145 373 -343
c0 -146 -77 -250 -239 -320c-60 -26 -136 -45 -224 -74c20 2 50 7 84 7c118 0 215 -61 313 -61c43 0 76 12 86 29s22 32 32 32c13 0 17 -14 17 -26zM577 326c0 186 -62 289 -168 289c-103 0 -164 -117 -164 -283c0 -42 7 -98 17 -143c23 -100 73 -151 151 -151
c96 0 164 98 164 288z" />
    <glyph glyph-name="R" unicode="R" horiz-adv-x="730" 
d="M739 -2c-35 2 -75 4 -113 4c-36 0 -76 -1 -114 -2l-120 174c-68 99 -70 115 -101 117v-143c0 -95 19 -101 94 -104v-46c-57 2 -119 4 -184 4c-64 0 -128 -2 -188 -4v46c75 2 94 9 94 104v359c0 95 -19 103 -94 106v47c62 -1 125 -4 184 -4c40 0 94 2 159 2
c96 0 166 -6 221 -45c41 -29 60 -71 60 -123c0 -86 -52 -150 -149 -163c170 -168 165 -278 251 -286v-43zM436 483c0 70 -33 122 -104 122c-37 0 -41 -6 -41 -47v-213h31c76 0 114 42 114 138z" />
    <glyph glyph-name="S" unicode="S" horiz-adv-x="559" 
d="M523 193c0 -119 -95 -206 -248 -206c-79 0 -132 23 -175 69l-13 -51h-55v212h55c26 -123 92 -177 166 -177c63 0 104 35 104 86c0 63 -47 86 -93 109l-46 23c-111 55 -167 114 -167 212c0 122 93 199 214 199c81 0 113 -17 157 -47l14 33h53v-191h-53
c-18 74 -45 148 -155 148c-53 0 -81 -32 -81 -72c0 -51 42 -75 101 -101l67 -30c104 -47 155 -126 155 -216z" />
    <glyph glyph-name="T" unicode="T" horiz-adv-x="684" 
d="M671 467h-47c-23 96 -70 132 -169 132c-13 0 -18 -12 -18 -33v-418c0 -95 21 -101 103 -104v-46c-63 2 -129 4 -198 4s-136 -2 -199 -4v46c84 3 103 9 103 104v418c0 24 -5 33 -23 33c-91 0 -140 -35 -164 -132h-48l7 193c100 -2 176 -3 228 -3h191c65 0 142 1 228 3z
" />
    <glyph glyph-name="U" unicode="U" horiz-adv-x="773" 
d="M773 613c-87 -7 -93 -45 -93 -155v-167c0 -108 -9 -185 -84 -244c-53 -42 -121 -60 -205 -60c-131 0 -228 46 -268 112c-28 47 -30 99 -30 166v244c0 95 -18 101 -93 104v47c62 -2 125 -4 188 -4s127 2 190 4v-47c-75 -3 -93 -9 -93 -104v-256c0 -98 10 -194 144 -194
c169 0 191 97 191 232v167c0 110 -5 148 -92 155v47c41 -2 84 -4 125 -4c38 0 80 2 120 4v-47z" />
    <glyph glyph-name="V" unicode="V" horiz-adv-x="665" 
d="M685 617c-78 -16 -86 -53 -128 -154c-103 -247 -167 -412 -194 -470h-60l-202 477c-45 106 -45 133 -121 147v43c59 -2 121 -4 180 -4c60 0 122 2 181 4v-43c-49 0 -74 -8 -74 -44c0 -16 10 -44 20 -70l112 -292c78 191 120 305 120 353c0 46 -39 49 -72 53v43
c40 -2 81 -4 121 -4c37 0 79 2 117 4v-43z" />
    <glyph glyph-name="W" unicode="W" horiz-adv-x="945" 
d="M942 611c-20 -3 -39 -6 -54 -28c-7 -9 -22 -71 -51 -152l-155 -438h-70l-134 404l-141 -404h-71l-166 481c-45 131 -45 126 -107 137v49c58 -2 119 -4 177 -4s119 2 178 4v-49c-38 -2 -82 -3 -82 -44c0 -30 18 -82 43 -157l58 -176c90 253 140 426 140 426h62l141 -431
c65 176 93 295 93 324c0 44 -30 54 -77 58v49c35 -2 75 -4 110 -4c34 0 72 2 106 4v-49z" />
    <glyph glyph-name="X" unicode="X" horiz-adv-x="732" 
d="M743 -2c-60 2 -124 4 -189 4c-67 0 -134 -2 -194 -4v46c41 2 62 7 62 31c0 21 -18 40 -40 71l-71 99l-31 -43c-41 -57 -70 -96 -70 -121c0 -29 26 -34 60 -37v-46c-40 2 -83 4 -127 4c-46 0 -90 -2 -130 -4v46c65 8 93 40 156 116l110 132l-164 225
c-47 64 -59 83 -113 95v48c60 -2 123 -4 183 -4s124 2 184 4v-48c-44 -2 -60 -8 -60 -33c0 -19 19 -47 51 -91l50 -68l27 38c41 57 65 85 65 119c0 26 -22 35 -65 35v48c45 -2 92 -4 137 -4c42 0 86 2 130 4v-48c-69 -7 -90 -18 -150 -95l-110 -142l127 -177
c97 -135 112 -146 172 -154v-46z" />
    <glyph glyph-name="Y" unicode="Y" horiz-adv-x="660" 
d="M680 613c-68 -8 -76 -32 -124 -116c0 0 -66 -126 -132 -229v-120c0 -95 19 -101 94 -104v-46c-59 2 -123 4 -188 4c-68 0 -132 -2 -190 -4v46c75 2 93 9 93 104v101l-140 265c-44 84 -53 92 -113 99v47c60 -2 122 -4 182 -4s123 2 183 4v-47c-33 -2 -64 -2 -64 -35
c0 -22 15 -50 28 -75l87 -173c33 56 78 137 78 138c22 39 38 80 38 101c0 31 -22 44 -59 44h-5v47c38 -2 80 -4 118 -4c36 0 77 2 114 4v-47z" />
    <glyph glyph-name="Z" unicode="Z" horiz-adv-x="589" 
d="M571 204l-12 -206c-87 2 -175 4 -262 4c-92 0 -187 -1 -279 -2v44l336 559c-168 0 -232 -3 -255 -129h-50l6 186c97 -2 182 -5 257 -5c80 0 167 2 259 2v-44l-333 -557h82c154 0 182 53 200 148h51z" />
    <glyph glyph-name="bracketleft" unicode="[" horiz-adv-x="324" 
d="M308 -195h-250v870h250v-44h-130v-782h130v-44z" />
    <glyph glyph-name="backslash" unicode="\" horiz-adv-x="526" 
d="M504 -135h-77l-405 804h77z" />
    <glyph glyph-name="bracketright" unicode="]" horiz-adv-x="324" 
d="M266 -195h-250v44h130v781h-130v44h250v-869z" />
    <glyph glyph-name="asciicircum" unicode="^" 
d="M505 298h-84l-145 278l-145 -278h-84l187 362h84z" />
    <glyph glyph-name="underscore" unicode="_" horiz-adv-x="500" 
d="M500 -125h-500v50h500v-50z" />
    <glyph glyph-name="quoteleft" unicode="&#x2018;" horiz-adv-x="301" 
d="M256 414c0 -48 -39 -92 -94 -92c-65 0 -116 62 -116 136c0 90 63 165 186 222l19 -35c-80 -42 -127 -80 -138 -172c19 13 38 25 63 25c40 0 80 -40 80 -84z" />
    <glyph glyph-name="a" unicode="a" horiz-adv-x="528" 
d="M539 49c-40 -38 -83 -60 -136 -60c-54 0 -84 18 -99 60c-46 -35 -94 -60 -156 -60c-67 0 -117 44 -117 101c0 98 91 130 273 199v37c0 42 -9 71 -49 71c-80 0 -48 -117 -129 -117c-48 0 -69 35 -69 65c0 59 67 97 207 97c191 0 196 -92 196 -164v-11v-185
c0 -11 9 -20 18 -20c11 0 24 13 35 23zM304 147v93c-63 -24 -111 -43 -111 -109c0 -35 15 -56 40 -56c5 0 40 7 53 21c17 19 18 13 18 51z" />
    <glyph glyph-name="b" unicode="b" horiz-adv-x="576" 
d="M547 221c0 -134 -95 -231 -222 -231c-60 0 -98 17 -136 53l-110 -53h-23v525v6c0 72 -1 97 -65 98v41c82 1 151 10 213 32h14v-299c34 32 72 49 119 49c127 0 210 -90 210 -221zM371 204c0 116 -24 177 -91 177c-43 0 -61 -34 -61 -97c0 -45 -1 -83 -1 -116
c0 -82 7 -124 61 -124s92 50 92 160z" />
    <glyph glyph-name="c" unicode="c" horiz-adv-x="470" 
d="M465 82c-52 -57 -107 -93 -208 -93c-141 0 -227 103 -227 222c0 138 106 232 251 232c122 0 178 -50 178 -105c0 -41 -28 -68 -63 -68c-37 0 -64 26 -79 74c-8 24 -11 45 -44 45c-45 0 -67 -59 -67 -171c0 -36 1 -72 14 -103c17 -40 51 -61 91 -61c52 0 82 24 115 61z
" />
    <glyph glyph-name="d" unicode="d" horiz-adv-x="608" 
d="M603 23c-67 -2 -135 -14 -202 -33h-14c-12 43 -11 64 -12 78c-32 -41 -73 -80 -148 -80c-119 0 -197 101 -197 216c0 147 85 238 210 238c66 0 102 -27 136 -63v136v14c0 66 -2 89 -70 90v41c80 1 149 8 219 32h14v-552c0 -63 5 -74 64 -77v-40zM371 207v55
c0 70 -21 111 -79 111c-62 0 -86 -56 -86 -162c0 -84 30 -137 85 -137c73 0 80 61 80 133z" />
    <glyph glyph-name="e" unicode="e" horiz-adv-x="515" 
d="M490 252c0 -25 -1 -27 -25 -27h-16h-246c3 -113 44 -171 122 -171c57 0 89 25 124 65l37 -32c-52 -68 -109 -98 -202 -98c-164 0 -254 90 -254 222c0 137 93 232 250 232c142 0 210 -89 210 -188v-3zM346 275c-1 78 -24 118 -69 118c-55 0 -69 -51 -74 -118h143z" />
    <glyph glyph-name="f" unicode="f" horiz-adv-x="378" 
d="M448 602c0 -40 -29 -63 -60 -63c-34 0 -57 22 -70 60c-8 22 -11 43 -40 43c-19 0 -34 -18 -34 -55v-156h111v-50h-111v-265c0 -71 29 -75 104 -75v-43c-54 2 -111 4 -167 4c-52 0 -108 -2 -165 -4v45c57 1 65 8 65 75v263h-82v50h82v39c0 58 4 109 31 148
c32 45 95 73 174 73c110 0 162 -37 162 -89z" />
    <glyph glyph-name="g" unicode="g" 
d="M574 395c0 -26 -19 -48 -46 -48c-19 0 -30 13 -49 29c-4 4 -12 9 -20 9c-2 0 -14 -6 -17 -7c19 -27 32 -54 32 -97c0 -90 -65 -147 -190 -151c-70 -2 -121 3 -121 -39c0 -26 31 -28 72 -28h23c24 0 37 1 61 1c142 0 211 -50 211 -163c0 -120 -98 -182 -273 -182
c-151 0 -239 50 -239 123c0 42 26 71 70 71c21 0 39 -10 49 -23c1 -2 2 -3 2 -4c0 -7 -24 -5 -24 -50c0 -30 36 -72 140 -72c90 0 134 34 134 85c0 71 -63 72 -189 76c-102 3 -157 43 -157 112c0 54 37 87 101 106c-76 19 -112 72 -112 143c0 97 75 157 220 157
c65 0 109 -10 158 -36c30 27 59 46 102 46c34 0 62 -22 62 -58zM308 286c0 70 -17 107 -54 107s-56 -36 -56 -109c0 -75 19 -113 53 -113c42 0 57 41 57 115z" />
    <glyph glyph-name="h" unicode="h" horiz-adv-x="590" 
d="M590 -2c-45 2 -89 4 -131 4c-43 0 -91 -2 -140 -4v45c44 3 45 15 45 66v157v6c0 54 -1 96 -56 96c-65 0 -76 -73 -76 -165v-95c0 -48 0 -63 45 -67v-43c-44 2 -86 4 -126 4c-45 0 -95 -2 -146 -4v45c56 2 64 11 64 75v397v12c0 68 -2 91 -64 92v41c79 1 146 8 214 32h13
v-323c36 48 71 72 157 72c31 0 64 -7 87 -22c47 -30 50 -78 50 -153v-150c0 -63 6 -73 64 -76v-42z" />
    <glyph glyph-name="i" unicode="i" horiz-adv-x="312" 
d="M231 588c0 -48 -40 -88 -88 -88s-88 39 -88 88s40 88 88 88c49 0 88 -39 88 -88zM307 -2c-48 2 -96 4 -140 4c-47 0 -99 -2 -151 -4v46c56 2 64 11 64 75v163c0 75 -1 91 -64 95v42c92 1 157 16 214 26h13v-327c0 -64 5 -75 64 -77v-43z" />
    <glyph glyph-name="j" unicode="j" horiz-adv-x="291" 
d="M221 588c0 -48 -41 -88 -89 -88s-87 39 -87 88s39 88 87 88c49 0 89 -39 89 -88zM235 -35c0 -159 -63 -242 -200 -242c-111 0 -170 41 -170 95c0 31 25 60 59 60c40 0 61 -30 68 -51c9 -29 15 -54 40 -54c41 0 41 40 41 97v412c0 75 -3 91 -68 95v42c90 1 157 15 217 26
h13v-480z" />
    <glyph glyph-name="k" unicode="k" horiz-adv-x="581" 
d="M587 1h-192l-125 194l-32 -31v-56v-2c0 -47 0 -62 48 -65v-43c-44 2 -87 4 -127 4c-45 0 -95 -2 -147 -4v45c55 2 64 10 64 75v397v12c0 68 -2 91 -64 92v41c78 1 143 8 212 32h14v-469l107 105c11 11 26 23 26 35c0 22 -25 25 -60 27v42c37 -1 79 -2 120 -2s82 1 118 2
v-42c-68 -4 -115 -42 -175 -100l137 -190c41 -57 51 -61 76 -64v-35z" />
    <glyph glyph-name="l" unicode="l" horiz-adv-x="301" 
d="M296 -2c-48 2 -97 4 -141 4c-48 0 -98 -2 -150 -4v44c56 2 64 11 64 76v397v12c0 68 -2 91 -64 92v41c78 1 146 8 214 32h13v-576c0 -65 6 -74 64 -76v-42z" />
    <glyph glyph-name="m" unicode="m" horiz-adv-x="878" 
d="M877 -2c-46 2 -91 4 -132 4c-43 0 -90 -2 -139 -4v44c44 3 46 16 46 67v171c0 52 -3 86 -49 86c-55 0 -74 -44 -74 -121v-138v-6c0 -45 1 -56 44 -61v-42c-41 2 -83 4 -120 4c-42 0 -87 -2 -132 -4v44c44 3 45 16 45 67v179c0 37 -3 75 -47 75c-45 0 -76 -39 -76 -128
v-128c0 -49 0 -63 45 -67v-42c-45 2 -90 4 -131 4c-44 0 -93 -2 -141 -4v44c56 2 64 10 64 74v165c0 75 -5 87 -67 89v43c78 4 143 17 200 32h12c7 -38 8 -63 9 -82c34 51 77 80 148 80c74 0 105 -33 124 -85c35 46 72 84 153 84c126 0 155 -62 155 -162v-165
c0 -66 7 -70 63 -75v-42z" />
    <glyph glyph-name="n" unicode="n" horiz-adv-x="602" 
d="M601 -2c-44 2 -89 4 -131 4c-44 0 -92 -2 -140 -4v46c45 3 45 17 45 66v158c0 64 -3 97 -57 97c-13 0 -30 -5 -41 -14c-32 -25 -34 -70 -34 -136v-107c0 -48 0 -61 45 -66v-44c-45 2 -90 4 -131 4c-46 0 -94 -2 -141 -4v46c56 2 64 11 64 75v162c0 75 -5 87 -67 89v43
c57 2 132 14 198 32h13c4 -32 8 -57 9 -81c37 53 96 78 167 78c36 0 74 -12 98 -32c39 -31 39 -72 39 -132v-1v-3v-156c0 -64 6 -74 64 -77v-43z" />
    <glyph glyph-name="o" unicode="o" horiz-adv-x="569" 
d="M542 213c0 -132 -109 -225 -251 -225c-166 0 -261 103 -261 226c0 141 114 227 258 227c141 0 254 -99 254 -228zM366 214c0 119 -24 177 -80 177c-64 0 -80 -65 -80 -177c0 -120 20 -177 83 -177c56 0 77 63 77 177z" />
    <glyph glyph-name="p" unicode="p" horiz-adv-x="600" 
d="M571 227c0 -148 -98 -237 -191 -237c-67 0 -114 16 -145 54v-201c0 -69 8 -75 77 -77v-42c-62 1 -116 3 -158 3c-43 0 -92 -2 -145 -3v42c57 1 64 9 64 75v440c0 75 -6 87 -68 89v43c79 4 143 17 199 32h14c3 -16 7 -38 7 -54c0 -13 -1 -21 -1 -34c35 56 86 86 149 86
c116 0 198 -98 198 -216zM396 220c0 95 -28 143 -86 143c-60 0 -77 -64 -77 -157c0 -95 17 -147 76 -147c58 0 87 55 87 161z" />
    <glyph glyph-name="q" unicode="q" horiz-adv-x="578" 
d="M585 -276c-48 2 -98 3 -146 3c-49 0 -103 -1 -152 -3v42c63 1 71 8 71 75v205c-35 -36 -75 -56 -123 -56c-119 0 -205 88 -205 209c0 143 89 244 227 244c71 0 113 -27 151 -61l96 58h17v-597c0 -64 6 -74 64 -77v-42zM360 240v0v16c0 98 -18 133 -72 133
c-60 0 -82 -61 -82 -174c0 -91 13 -156 79 -156c73 0 75 75 75 181z" />
    <glyph glyph-name="r" unicode="r" horiz-adv-x="439" 
d="M440 370c0 -46 -29 -75 -67 -75c-19 0 -41 11 -50 26c-8 13 -13 28 -31 28c-27 0 -49 -43 -49 -122v-112c0 -66 6 -75 72 -77v-40c-51 2 -100 4 -146 4c-48 0 -100 -2 -153 -4v44c56 2 64 10 64 74v165c0 75 -5 87 -67 89v43c73 4 138 17 197 32h13c9 -46 9 -74 9 -90
c32 53 72 82 128 82c44 0 80 -32 80 -67z" />
    <glyph glyph-name="s" unicode="s" horiz-adv-x="436" 
d="M408 135c0 -80 -62 -146 -182 -146c-67 0 -103 10 -145 42l-13 -32h-43v143h43c24 -75 79 -104 132 -104c43 0 67 19 67 50c0 79 -234 36 -234 213c0 82 57 141 171 141c56 0 93 -21 119 -40l14 31h42v-127h-42c-29 60 -71 86 -116 86c-33 0 -56 -14 -56 -39
c0 -54 66 -43 154 -87c58 -29 89 -75 89 -131z" />
    <glyph glyph-name="t" unicode="t" horiz-adv-x="343" 
d="M352 76c-36 -53 -82 -86 -156 -86c-130 0 -131 77 -131 175v216h-55v47c90 13 132 55 170 146h47v-143h99v-50h-99v-237v-10c0 -44 1 -71 36 -71c23 0 36 20 50 40z" />
    <glyph glyph-name="u" unicode="u" horiz-adv-x="589" 
d="M584 22c-34 -3 -86 -3 -204 -34h-12c-8 42 -9 67 -10 85c-36 -60 -99 -84 -157 -84c-84 0 -136 47 -136 113v182v6c0 75 -1 99 -64 100v42c33 -1 67 -1 100 -1h17h17c31 0 62 0 92 1v-253c0 -68 4 -110 53 -110c48 0 78 52 78 140v93c0 76 -10 84 -63 88v42
c30 -1 62 -1 94 -1h17h17c33 0 66 0 98 1v-276v-26c0 -64 3 -65 63 -70v-38z" />
    <glyph glyph-name="v" unicode="v" horiz-adv-x="477" 
d="M495 390c-49 -10 -53 -22 -84 -86l-153 -314h-45l-138 297c-41 89 -42 99 -88 103v42c45 -2 95 -3 144 -3c48 0 96 2 140 3v-42c-30 -2 -50 -4 -50 -27c0 -9 5 -24 9 -33l70 -157l51 114c11 24 19 49 19 70c0 27 -26 31 -53 33v42c30 -2 61 -3 90 -3c31 0 62 2 88 3v-42z
" />
    <glyph glyph-name="w" unicode="w" horiz-adv-x="692" 
d="M704 390c-58 -11 -57 -46 -97 -143l-106 -257h-49l-99 247l-105 -247h-49l-130 306c-28 66 -37 86 -82 94v42c45 -2 95 -3 147 -3c51 0 100 2 144 3v-42c-33 -3 -60 -2 -60 -28c0 -14 6 -34 11 -48l49 -137l98 255h45l105 -265l39 106c12 32 20 61 20 80
c0 31 -32 35 -65 37v42c31 -2 61 -3 92 -3c32 0 63 2 92 3v-42z" />
    <glyph glyph-name="x" unicode="x" horiz-adv-x="547" 
d="M559 -2c-52 2 -102 4 -149 4c-51 0 -104 -2 -159 -4v39c24 1 48 -1 48 21c0 11 -11 28 -23 41l-50 55l-47 -46c-17 -16 -33 -34 -33 -49c0 -19 26 -20 47 -22v-39c-34 1 -67 4 -98 4c-37 0 -72 -3 -99 -4v39c53 10 88 37 133 84l64 67l-130 156c-37 44 -51 43 -76 46v42
c59 -1 113 -3 156 -3c46 0 98 2 152 3v-42c-25 -1 -48 1 -48 -20c0 -11 10 -24 19 -35l46 -58l45 51c12 13 24 27 24 39c0 20 -27 21 -46 23v42c31 -1 66 -2 96 -2c29 0 62 1 95 2v-42c-48 -4 -71 -26 -111 -69l-70 -75l133 -147c22 -25 34 -54 81 -62v-39z" />
    <glyph glyph-name="y" unicode="y" horiz-adv-x="476" 
d="M493 390c-33 -7 -44 -5 -86 -99l-116 -260c-51 -114 -94 -205 -128 -264c-15 -26 -49 -48 -78 -48c-41 0 -70 28 -70 60c0 41 28 64 80 72c29 4 57 1 91 70c9 18 20 42 32 64l-160 337c-26 55 -30 60 -71 68v42c45 -2 95 -3 144 -3c48 0 95 2 139 3v-42
c-33 0 -50 -4 -50 -28c0 -11 8 -30 15 -45l65 -150l43 98c16 37 27 72 27 94c0 29 -29 30 -53 31v42c30 -2 60 -3 89 -3c30 0 60 2 87 3v-42z" />
    <glyph glyph-name="z" unicode="z" horiz-adv-x="460" 
d="M437 155l-9 -157c-56 1 -112 2 -161 2h-248v36l227 348c-95 -2 -145 6 -169 -100h-46l10 148c82 -2 167 -3 249 -3c48 0 99 1 147 2v-35l-229 -349h14c134 0 143 17 171 108h44z" />
    <glyph glyph-name="braceleft" unicode="{" horiz-adv-x="352" 
d="M321 -163h-94c-72 0 -119 34 -119 137v162c0 48 -17 90 -76 95v47c60 7 76 26 76 96v144c0 94 27 151 119 151h91v-47h-34c-44 0 -56 -34 -56 -98v-138c0 -71 -23 -113 -90 -131c67 -22 90 -56 90 -119v-167c0 -55 17 -85 56 -85h37v-47z" />
    <glyph glyph-name="bar" unicode="|" horiz-adv-x="292" 
d="M189 -250h-85v1000h85v-1000z" />
    <glyph glyph-name="braceright" unicode="}" horiz-adv-x="352" 
d="M320 231c-59 -5 -76 -47 -76 -95v-162c0 -103 -47 -137 -119 -137h-94v47h37c39 0 56 30 56 85v167c0 63 23 97 90 119c-67 18 -90 60 -90 131v138c0 64 -12 98 -56 98h-34v47h91c92 0 119 -57 119 -151v-144c0 -70 16 -89 76 -96v-47z" />
    <glyph glyph-name="asciitilde" unicode="~" 
d="M532 278c-36 -65 -86 -133 -156 -133c-49 0 -118 45 -164 67c-15 7 -27 12 -34 12c-41 0 -72 -60 -93 -92l-66 49c36 59 79 134 159 134c47 0 117 -45 162 -67c16 -7 28 -12 36 -12c32 0 50 23 91 91z" />
    <glyph glyph-name="exclamdown" unicode="&#xa1;" horiz-adv-x="319" 
d="M254 347c0 -53 -42 -95 -95 -95s-94 42 -94 95s41 94 94 94s95 -41 95 -94zM253 -127c0 -57 -32 -101 -94 -101c-60 0 -92 44 -92 101c0 76 59 164 67 340h52c8 -175 67 -264 67 -340z" />
    <glyph glyph-name="cent" unicode="&#xa2;" 
d="M500 195c-49 -59 -104 -94 -216 -94c-16 0 -36 3 -49 6l-53 -126h-47l58 139c-96 44 -135 125 -135 206c0 132 105 229 250 229c23 0 48 -1 68 -3l47 113h46l-50 -124c51 -19 74 -49 74 -95c0 -22 -24 -57 -60 -57c-33 0 -47 20 -59 50l-101 -244c20 -20 41 -32 73 -32
c42 0 81 22 117 63zM348 489c-9 15 -17 26 -41 26c-48 0 -76 -60 -76 -175c0 -43 7 -74 14 -98z" />
    <glyph glyph-name="sterling" unicode="&#xa3;" 
d="M535 157c0 -85 -60 -174 -133 -174c-54 0 -85 32 -158 89c-38 -60 -87 -88 -138 -88c-58 0 -103 39 -103 96c0 60 49 98 104 98c42 0 64 -9 79 -14c-10 74 -27 116 -38 147h-116v54h101c-10 35 -21 69 -21 101c0 124 81 198 216 198c126 0 190 -59 190 -118
c0 -41 -34 -67 -69 -67c-37 0 -60 31 -65 73c-2 17 -3 67 -61 67c-41 0 -70 -26 -70 -73c0 -45 23 -102 43 -181h141v-54h-134c0 -12 1 -21 1 -33c0 -69 -14 -108 -24 -135c52 -12 93 -25 130 -25c93 0 93 58 113 58c8 0 12 -9 12 -19zM184 112c-22 10 -46 22 -75 22
c-34 0 -63 -20 -63 -58c0 -21 20 -52 61 -52c31 0 61 26 77 88z" />
    <glyph glyph-name="fraction" unicode="&#x2044;" horiz-adv-x="110" 
d="M291 664l-411 -680h-61l416 680h56z" />
    <glyph glyph-name="yen" unicode="&#xa5;" 
d="M565 613c-36 -4 -59 -17 -89 -71l-76 -140h112v-50h-142l-8 -15v-74h124v-49h-124v-66c0 -93 16 -102 83 -104v-46c-53 2 -109 4 -167 4c-60 0 -117 -2 -169 -4v46c67 2 82 11 82 104v66h-125v49h125v55l-16 34h-135v50h108l-55 112c-44 90 -55 91 -104 99v47
c53 -2 106 -4 158 -4s105 2 157 4v-47c-25 -2 -50 -2 -50 -35c0 -27 13 -43 27 -75l53 -124l64 122c13 25 24 44 24 68s-17 44 -52 44v47c32 -2 67 -4 99 -4c31 0 65 2 96 4v-47z" />
    <glyph glyph-name="florin" unicode="&#x192;" 
d="M546 618c0 -13 -13 -40 -54 -40c-53 0 -59 48 -67 84c-2 9 -9 14 -19 14c-33 0 -36 -66 -49 -190l-6 -56h106l-5 -54h-106l-18 -205c-10 -114 -19 -208 -51 -278c-32 -69 -98 -106 -179 -106c-89 0 -139 39 -139 95c0 32 23 56 59 56c27 0 52 -21 57 -60
c4 -26 5 -52 26 -52c30 0 44 31 51 112l39 438h-92l7 54h86l5 25c32 162 58 257 211 257c91 0 138 -32 138 -94z" />
    <glyph glyph-name="section" unicode="&#xa7;" 
d="M490 225c0 -57 -23 -95 -68 -135c40 -36 59 -77 59 -130c0 -90 -74 -169 -212 -169c-126 0 -207 59 -207 143c0 43 28 78 75 78c31 0 65 -30 65 -68c0 -11 -2 -26 -10 -36c-11 -14 -24 -26 -24 -33c0 -12 42 -34 99 -34c84 0 124 37 124 78c0 44 -26 69 -85 99l-97 50
c-97 50 -145 110 -145 188c0 55 26 99 78 130c-38 35 -57 75 -57 128c0 79 64 155 194 155c112 0 179 -58 179 -121c0 -43 -28 -73 -68 -73c-36 0 -67 28 -67 61c0 20 10 42 21 49c3 2 5 3 5 6c0 7 -34 24 -70 24c-74 0 -105 -36 -105 -61c0 -41 31 -69 105 -107l74 -38
c92 -47 137 -108 137 -184zM413 186c0 25 -9 26 -42 55c-13 12 -33 20 -47 28l-64 35c-31 17 -55 33 -71 45c-31 -14 -47 -32 -47 -51c0 -35 37 -56 98 -91l67 -38c21 -12 47 -29 71 -44c21 18 35 38 35 61z" />
    <glyph glyph-name="currency" unicode="&#xa4;" horiz-adv-x="520" 
d="M508 172l-66 -67l-81 79c-30 -18 -65 -28 -102 -28c-38 0 -73 11 -103 29l-76 -80l-67 67l76 80c-18 30 -28 65 -28 102c0 38 11 73 29 103l-77 79l67 68l79 -80c29 18 64 28 100 28c38 0 73 -10 103 -29l80 81l66 -68l-79 -80c18 -30 28 -65 28 -102
c0 -38 -11 -73 -28 -102zM365 354c0 59 -47 106 -106 106s-106 -47 -106 -106s47 -106 106 -106s106 47 106 106z" />
    <glyph glyph-name="quotesingle" unicode="'" horiz-adv-x="267" 
d="M200 600c0 -8 -3 -21 -5 -34c-11 -60 -25 -125 -37 -182h-50c-12 58 -25 125 -37 182c-3 13 -5 26 -5 34c0 39 20 69 67 69c43 0 67 -29 67 -69z" />
    <glyph glyph-name="quotedblleft" unicode="&#x201c;" horiz-adv-x="534" 
d="M489 414c0 -48 -39 -92 -94 -92c-65 0 -116 61 -116 136c0 90 63 165 186 222l19 -35c-81 -42 -127 -81 -138 -172c18 12 38 25 63 25c40 0 80 -40 80 -84zM256 414c0 -48 -39 -92 -94 -92c-65 0 -116 62 -116 136c0 90 63 165 186 222l19 -35
c-80 -42 -127 -80 -138 -172c19 13 38 25 63 25c40 0 80 -40 80 -84z" />
    <glyph glyph-name="guillemotleft" unicode="&#xab;" horiz-adv-x="518" 
d="M471 53c0 -8 -3 -15 -13 -15c-15 0 -37 22 -79 57c-47 40 -105 80 -165 125c175 134 219 186 241 186c5 0 14 -4 14 -11c0 -30 -44 -87 -114 -173c69 -82 116 -142 116 -169zM296 53c0 -7 -5 -15 -15 -15c-15 0 -36 22 -78 57c-47 40 -106 80 -165 125
c174 134 218 186 240 186c5 0 15 -4 15 -11c0 -29 -44 -86 -114 -173c69 -84 117 -143 117 -169z" />
    <glyph glyph-name="guilsinglleft" unicode="&#x2039;" horiz-adv-x="341" 
d="M296 53c0 -7 -5 -15 -15 -15c-15 0 -36 22 -78 57c-47 40 -106 80 -165 125c174 134 218 186 240 186c5 0 15 -4 15 -11c0 -29 -44 -86 -114 -173c69 -84 117 -143 117 -169z" />
    <glyph glyph-name="guilsinglright" unicode="&#x203a;" horiz-adv-x="341" 
d="M302 214c-49 -37 -120 -87 -206 -160c-12 -10 -25 -22 -37 -22c-10 0 -14 8 -14 15c0 26 47 86 117 170c-70 86 -115 142 -115 172c0 5 7 11 15 11c22 0 73 -59 240 -186z" />
    <glyph glyph-name="endash" unicode="&#x2013;" horiz-adv-x="500" 
d="M500 168h-500v108h500v-108z" />
    <glyph glyph-name="dagger" unicode="&#x2020;" 
d="M506 398c0 -25 -20 -51 -52 -51c-35 0 -62 35 -95 35c-20 0 -40 -12 -56 -37l60 -46c-14 -68 -56 -237 -61 -496h-33c-2 48 -3 187 -61 438c-3 11 -7 29 -17 58l57 46c-12 22 -33 38 -59 38c-30 0 -55 -32 -90 -32c-26 0 -52 18 -52 53c0 20 14 36 32 36
c15 0 32 -10 32 -31c0 -7 -7 -16 -7 -21c0 -3 6 -9 10 -9c11 0 20 15 22 22c9 24 25 42 45 42c19 0 36 -15 55 -35c3 -3 9 -12 16 -12c8 0 10 5 10 12c0 1 -10 20 -18 33c-12 20 -22 49 -22 74c0 23 9 41 24 57c4 5 12 12 12 19c0 9 -28 18 -28 42s15 36 39 36
c23 0 41 -15 41 -30c0 -13 -1 -21 -13 -33c-4 -4 -11 -9 -11 -16c0 -12 39 -32 39 -81c0 -52 -36 -88 -36 -108c0 -3 6 -7 9 -7c12 0 34 47 71 47c15 0 27 -10 35 -24c12 -21 21 -41 33 -41c9 0 9 4 9 11c0 1 -4 15 -4 23c0 16 14 27 28 27c23 0 36 -23 36 -39z" />
    <glyph glyph-name="daggerdbl" unicode="&#x2021;" 
d="M481 493c0 -30 -20 -50 -49 -50c-33 0 -70 33 -97 33h-14c-8 0 -17 0 -28 -3c16 -13 36 -29 52 -41c-16 -55 -34 -115 -52 -178h-35c-18 63 -35 123 -51 178c16 12 35 28 51 41c-11 3 -20 3 -28 3h-13c-27 0 -64 -34 -97 -34c-29 0 -50 21 -50 51c0 15 13 36 37 36
c9 0 27 -9 27 -28c0 -5 -2 -18 -2 -21c0 -5 4 -7 8 -7c23 0 15 57 60 57c12 0 23 -6 31 -9c1 19 3 39 17 58c3 4 12 18 12 20c0 10 -25 14 -25 41c0 11 11 29 41 29c27 0 41 -16 41 -29c0 -16 -10 -25 -21 -33c-2 -2 -5 -5 -5 -8c0 -2 8 -15 12 -20c14 -18 16 -40 17 -58
c8 3 19 9 31 9c15 0 30 -9 35 -21c9 -20 13 -36 25 -36c4 0 9 2 9 7c0 3 -2 16 -2 21c0 18 15 28 26 28c23 0 37 -20 37 -36zM481 -35c0 -15 -13 -36 -37 -36c-10 0 -26 8 -26 27c0 5 2 18 2 21c0 5 -4 8 -9 8c-23 0 -15 -56 -60 -56c-12 0 -23 4 -31 7
c-4 -60 -29 -67 -29 -78c0 -10 26 -13 26 -40c0 -11 -11 -30 -41 -30s-41 18 -41 30c0 16 9 24 21 33c2 2 4 4 4 7c0 2 -8 14 -12 20c-14 19 -16 40 -17 58c-8 -3 -19 -7 -31 -7c-15 0 -29 8 -34 20c-9 20 -15 36 -26 36c-5 0 -8 -3 -8 -8c0 -3 2 -16 2 -21
c0 -19 -17 -26 -27 -26c-24 0 -37 19 -37 35c0 30 21 51 50 51c34 0 70 -33 97 -33c5 0 11 -1 19 -1c6 0 14 1 22 3c-16 13 -35 28 -51 40c16 55 33 114 51 177h35c18 -63 36 -122 52 -177c-16 -12 -36 -27 -52 -40c8 -2 16 -3 23 -3s14 1 19 1c26 0 64 33 97 33
c29 0 49 -21 49 -51z" />
    <glyph glyph-name="periodcentered" unicode="&#xb7;" horiz-adv-x="275" 
d="M220 324c0 -45 -38 -81 -82 -81s-81 36 -81 81s37 80 81 80c45 0 82 -35 82 -80z" />
    <glyph glyph-name="paragraph" unicode="&#xb6;" 
d="M525 -196l-171 4v806h-59v-806l-176 -4v39c89 5 94 0 94 148v317c-40 1 -79 2 -116 27c-46 31 -66 83 -66 154c0 97 78 168 227 168c26 0 63 -3 104 -3s96 5 163 6v-40c-84 -5 -90 -1 -90 -148v-481c0 -146 5 -143 90 -148v-39z" />
    <glyph glyph-name="bullet" unicode="&#x2022;" horiz-adv-x="400" 
d="M372 321c0 -95 -78 -171 -175 -171c-90 0 -169 76 -169 171s79 170 175 170c91 0 169 -75 169 -170z" />
    <glyph glyph-name="quotesinglbase" unicode="&#x201a;" horiz-adv-x="301" 
d="M256 29c0 -89 -64 -165 -187 -222l-18 34c80 42 126 80 137 173c-16 -12 -37 -25 -63 -25c-41 0 -79 41 -79 84c0 49 37 92 92 92c65 0 118 -62 118 -136z" />
    <glyph glyph-name="quotedblbase" unicode="&#x201e;" horiz-adv-x="547" 
d="M501 29c0 -90 -63 -165 -186 -222l-18 34c79 42 126 80 137 173c-18 -12 -38 -25 -63 -25c-41 0 -80 41 -80 84c0 48 39 92 94 92c65 0 116 -62 116 -136zM256 29c0 -89 -64 -165 -187 -222l-18 34c80 42 126 80 137 173c-16 -12 -37 -25 -63 -25c-41 0 -79 41 -79 84
c0 49 37 92 92 92c65 0 118 -62 118 -136z" />
    <glyph glyph-name="quotedblright" unicode="&#x201d;" horiz-adv-x="534" 
d="M489 544c0 -90 -64 -165 -187 -222l-18 34c80 42 126 82 137 174c-18 -12 -38 -26 -63 -26c-40 0 -79 40 -79 84c0 48 37 92 92 92c65 0 118 -61 118 -136zM256 544c0 -89 -64 -165 -187 -222l-18 34c80 42 126 82 137 174c-18 -12 -38 -26 -63 -26c-41 0 -79 40 -79 84
c0 49 37 92 92 92c65 0 118 -62 118 -136z" />
    <glyph glyph-name="guillemotright" unicode="&#xbb;" horiz-adv-x="518" 
d="M478 220c-55 -41 -125 -92 -207 -161c-12 -10 -24 -21 -36 -21c-10 0 -14 8 -14 15c0 26 47 85 117 169c-70 86 -115 143 -115 173c0 5 8 11 15 11c22 0 73 -59 240 -186zM302 220c-52 -38 -122 -90 -206 -161c-12 -10 -25 -21 -37 -21c-10 0 -14 8 -14 15
c0 26 47 85 117 169c-70 86 -115 144 -115 173c0 5 8 11 15 11c18 0 53 -32 111 -84c31 -27 76 -61 129 -102z" />
    <glyph glyph-name="ellipsis" unicode="&#x2026;" horiz-adv-x="1000" 
d="M928 84c0 -53 -42 -95 -95 -95s-94 42 -94 95s41 94 94 94s95 -42 95 -94zM594 84c0 -53 -42 -95 -95 -95s-94 42 -94 95s41 94 94 94s95 -42 95 -94zM261 84c0 -53 -42 -95 -95 -95s-94 42 -94 95s41 94 94 94s95 -42 95 -94z" />
    <glyph glyph-name="perthousand" unicode="&#x2030;" horiz-adv-x="1172" 
d="M1139 212c0 -124 -78 -245 -187 -245c-88 0 -157 58 -157 155c0 119 94 231 204 231c93 0 140 -61 140 -141zM755 212c0 -125 -79 -245 -188 -245c-88 0 -156 58 -156 155c0 119 94 231 204 231c93 0 140 -61 140 -141zM655 702l-458 -757h-61l387 641
c-23 -9 -49 -16 -82 -16c-26 0 -49 6 -65 10c1 -14 2 -34 2 -49c0 -97 -73 -239 -185 -239c-95 0 -162 68 -162 163c0 102 90 226 203 226c25 0 50 -6 70 -18c50 -31 77 -56 135 -56c59 0 114 35 168 95h48zM1095 211c0 57 -21 92 -56 92c-53 0 -116 -109 -116 -217
c0 -54 28 -74 49 -74c66 0 123 114 123 199zM711 211c0 58 -21 92 -56 92c-53 0 -115 -109 -115 -217c0 -54 26 -74 47 -74c65 0 124 113 124 199zM335 532c0 65 -22 100 -60 100c-58 0 -112 -132 -112 -218c0 -47 23 -72 50 -72c59 0 122 110 122 190z" />
    <glyph glyph-name="questiondown" unicode="&#xbf;" horiz-adv-x="417" 
d="M375 347c0 -53 -42 -95 -95 -95c-52 0 -94 42 -94 95s41 94 94 94s95 -41 95 -94zM374 -163c0 -38 -30 -65 -96 -65c-126 0 -246 111 -246 229c0 106 64 153 193 153c9 0 25 -1 34 -1v58h49v-196c-26 2 -60 6 -97 6c-70 0 -111 -20 -111 -79c0 -33 32 -67 80 -67
c41 0 82 23 120 23c46 0 74 -24 74 -61z" />
    <glyph glyph-name="grave" unicode="`" horiz-adv-x="486" 
d="M303 508h-39l-130 69c-36 19 -56 30 -56 60c0 18 17 38 42 38c16 0 41 -19 66 -45z" />
    <glyph glyph-name="acute" unicode="&#xb4;" horiz-adv-x="486" 
d="M408 637c0 -30 -20 -41 -56 -60l-130 -69h-40l117 122c25 26 51 45 67 45c25 0 42 -19 42 -38z" />
    <glyph glyph-name="circumflex" unicode="&#x2c6;" horiz-adv-x="486" 
d="M385 506h-44l-99 91l-99 -91h-42l107 171h68z" />
    <glyph glyph-name="tilde" unicode="&#x2dc;" horiz-adv-x="486" 
d="M395 639c-19 -69 -53 -99 -110 -99c-9 0 -28 6 -42 12l-28 11c-14 6 -33 12 -41 12c-30 0 -40 -4 -56 -33l-28 3c5 22 11 45 35 69c30 29 55 30 81 30h5c8 0 28 -7 42 -13l26 -11c10 -4 26 -11 35 -11c15 0 37 0 53 33z" />
    <glyph glyph-name="macron" unicode="&#xaf;" horiz-adv-x="486" 
d="M387 557h-286v63h286v-63z" />
    <glyph glyph-name="breve" unicode="&#x2d8;" horiz-adv-x="486" 
d="M382 663c-3 -91 -69 -143 -136 -143c-82 0 -140 56 -143 143h31c16 -47 46 -66 112 -66c60 0 91 22 106 66h30z" />
    <glyph glyph-name="dotaccent" unicode="&#x2d9;" horiz-adv-x="486" 
d="M309 595c0 -35 -31 -65 -66 -65s-66 30 -66 65s30 64 66 64c35 0 66 -29 66 -64z" />
    <glyph glyph-name="dieresis" unicode="&#xa8;" horiz-adv-x="486" 
d="M398 595c0 -36 -31 -65 -66 -65s-66 30 -66 65s30 64 66 64c35 0 66 -28 66 -64zM220 595c0 -35 -31 -65 -66 -65s-66 30 -66 65s30 64 66 64c35 0 66 -29 66 -64z" />
    <glyph glyph-name="ring" unicode="&#x2da;" horiz-adv-x="486" 
d="M337 593c0 -56 -46 -100 -101 -100s-100 45 -100 100s45 102 100 102s101 -46 101 -102zM290 593c0 31 -25 57 -54 57s-52 -25 -52 -57s23 -54 52 -54s54 22 54 54z" />
    <glyph glyph-name="cedilla" unicode="&#xb8;" horiz-adv-x="486" 
d="M367 -136c0 -41 -43 -72 -85 -72c-66 0 -106 37 -106 61c0 22 12 31 23 31c15 0 25 -8 31 -22c4 -11 9 -33 39 -33c20 0 38 12 38 36c0 36 -40 43 -93 43l41 121h44l-30 -89c65 -5 98 -33 98 -76z" />
    <glyph glyph-name="hungarumlaut" unicode="&#x2dd;" horiz-adv-x="486" 
d="M455 637c0 -29 -25 -40 -54 -60l-99 -69h-39l93 122c20 27 40 45 58 45c23 0 41 -20 41 -38zM299 637c0 -29 -24 -40 -53 -60l-99 -69h-39l92 122c20 27 40 45 58 45c23 0 41 -22 41 -38z" />
    <glyph glyph-name="ogonek" unicode="&#x2db;" horiz-adv-x="486" 
d="M402 -114c-32 -23 -66 -41 -99 -41h-17c-15 0 -32 1 -49 9c-20 10 -36 29 -36 44c0 54 28 80 92 102h54c-56 -25 -65 -44 -65 -79c0 -9 11 -31 44 -31c31 0 45 8 65 18z" />
    <glyph glyph-name="caron" unicode="&#x2c7;" horiz-adv-x="486" 
d="M385 677l-107 -171h-68l-109 171h44l98 -91l100 91h42z" />
    <glyph glyph-name="emdash" unicode="&#x2014;" horiz-adv-x="1000" 
d="M1000 168h-1000v108h1000v-108z" />
    <glyph glyph-name="AE" unicode="&#xc6;" horiz-adv-x="882" 
d="M862 197l-6 -199c-64 1 -125 2 -181 2h-212c-64 0 -128 -1 -187 -2v46c76 3 93 11 93 104v125h-168l-52 -122c-10 -24 -20 -48 -20 -62c0 -35 31 -47 75 -51v-40c-35 2 -74 4 -111 4c-40 0 -79 -2 -113 -4v40c48 11 73 39 106 113l149 329c23 51 38 85 38 101
c0 26 -29 30 -87 31v48c91 -1 185 -2 277 -2h182c53 0 114 1 181 2l7 -180h-49c-18 82 -40 125 -158 125h-29c-42 0 -43 -2 -43 -32v-5v-201c8 0 13 -2 21 -2c66 0 86 50 99 110h47v-268h-47c-8 66 -32 105 -105 105h-15v-136c0 -84 9 -122 110 -122c106 0 136 54 151 143
h47zM369 327v260c0 9 -4 14 -13 14c-11 0 -15 -9 -22 -26l-109 -248h144z" />
    <glyph glyph-name="ordfeminine" unicode="&#xaa;" horiz-adv-x="367" 
d="M343 424c-24 -23 -51 -39 -86 -39c-31 0 -52 12 -62 37c-29 -21 -59 -36 -96 -36c-43 0 -75 28 -75 63c0 62 59 80 169 122v18c0 24 -2 44 -28 44c-48 0 -28 -71 -80 -71c-31 0 -44 23 -44 42c0 37 42 60 129 60c120 0 123 -56 123 -100v0v-7v-112c0 -5 5 -10 10 -10
c7 0 17 9 22 13zM195 472v1c0 4 -2 7 -2 11v53c-35 -13 -64 -24 -64 -64c0 -19 8 -33 23 -33c17 0 43 18 43 32z" />
    <glyph glyph-name="Lslash" unicode="&#x141;" horiz-adv-x="643" 
d="M633 195c-7 -120 -8 -185 -9 -197c-58 1 -119 2 -177 2h-241c-63 0 -129 -1 -193 -2v46c75 2 94 9 94 104v110l-81 -51v60l81 49v193c0 95 -19 101 -94 104v47c62 -2 126 -4 189 -4s126 2 189 4v-47c-75 -3 -93 -9 -93 -104v-93l131 76v-58l-131 -80v-159
c0 -101 8 -141 115 -141c112 0 150 46 169 141h51z" />
    <glyph glyph-name="Oslash" unicode="&#xd8;" horiz-adv-x="822" 
d="M787 332c0 -210 -166 -345 -369 -345c-65 0 -128 12 -185 36l-70 -105h-64l88 129c-98 63 -152 162 -152 282c0 182 147 340 378 340c58 0 120 -12 175 -35l59 88h63l-76 -113c97 -60 153 -163 153 -277zM526 546c-30 46 -66 69 -117 69c-112 0 -164 -97 -164 -284
c0 -60 10 -121 25 -162zM577 329c0 56 -10 119 -24 162l-257 -377c30 -48 70 -74 121 -74c43 0 84 22 112 60c40 56 48 131 48 229z" />
    <glyph glyph-name="OE" unicode="&#x152;" horiz-adv-x="1023" 
d="M1002 -2c-54 1 -109 2 -163 2h-233c-78 0 -156 -7 -235 -7c-65 0 -121 7 -179 38c-98 52 -157 161 -157 291c0 214 146 342 360 342c76 0 149 -7 209 -7h207c48 0 102 2 157 3l8 -179h-48c-16 90 -46 122 -166 122h-29c-32 0 -34 -3 -34 -31v-209h5c77 0 97 25 114 108
h45v-268h-45c-11 74 -32 107 -119 109v-149c0 -87 7 -109 115 -109c103 0 127 52 145 138h43v-194zM514 242v5v168c0 119 -2 195 -103 195c-116 0 -166 -85 -166 -280c0 -186 51 -283 162 -283c106 0 107 77 107 195z" />
    <glyph glyph-name="ordmasculine" unicode="&#xba;" horiz-adv-x="367" 
d="M344 523c0 -80 -68 -141 -157 -141c-103 0 -164 65 -164 141c0 86 73 141 163 141c89 0 158 -62 158 -141zM232 523c0 69 -14 104 -48 104c-38 0 -48 -38 -48 -104c0 -70 12 -104 50 -104c34 0 46 38 46 104z" />
    <glyph glyph-name="ae" unicode="&#xe6;" horiz-adv-x="753" 
d="M728 251c0 -12 -1 -27 -10 -27c-7 0 -12 1 -19 1h-250v-16c0 -104 43 -156 116 -156c52 0 86 22 121 59l35 -32c-54 -55 -104 -92 -193 -92c-87 0 -144 28 -190 87c-57 -49 -112 -85 -185 -85c-77 0 -123 49 -123 97c0 109 118 136 273 192c1 18 3 27 3 45
c0 47 -21 69 -57 69c-84 0 -39 -117 -135 -117c-31 0 -61 24 -61 64c0 58 66 103 187 103c66 0 107 -24 147 -56c38 37 85 56 152 56c98 0 189 -69 189 -192zM595 275c-1 78 -21 118 -73 118c-44 0 -69 -38 -71 -118h144zM321 118c-13 33 -20 69 -20 102v11
c-57 -19 -109 -36 -109 -94c0 -32 19 -61 52 -61c29 0 53 17 77 42z" />
    <glyph glyph-name="dotlessi" unicode="&#x131;" horiz-adv-x="312" 
d="M307 -2c-48 2 -96 4 -140 4c-47 0 -99 -2 -151 -4v46c56 2 64 11 64 75v163c0 75 -1 91 -64 95v42c92 1 157 16 214 26h13v-327c0 -64 5 -75 64 -77v-43z" />
    <glyph glyph-name="lslash" unicode="&#x142;" horiz-adv-x="310" 
d="M300 -2c-40 2 -80 4 -116 4c-44 0 -104 -1 -174 -4v44c56 2 64 12 64 76v181l-59 -45v56l59 47v158v12c0 68 -2 91 -64 92v41c78 1 145 8 213 32h13v-243l59 44v-56l-59 -45v-276c0 -63 6 -73 64 -76v-42z" />
    <glyph glyph-name="oslash" unicode="&#xf8;" horiz-adv-x="569" 
d="M541 214c0 -132 -108 -225 -250 -225c-42 0 -83 7 -118 20l-52 -78h-54l65 98c-65 42 -102 111 -102 186c0 141 114 227 258 227c34 0 71 -7 104 -20l55 82h54l-68 -102c70 -45 108 -111 108 -188zM346 351c-11 26 -34 41 -60 41c-64 0 -80 -65 -80 -177
c0 -22 1 -48 3 -70zM365 215c0 24 -3 54 -5 78l-138 -208c13 -31 35 -47 67 -47c56 0 76 63 76 177z" />
    <glyph glyph-name="oe" unicode="&#x153;" horiz-adv-x="837" 
d="M812 237c0 -7 -5 -12 -12 -12h-278v-13c0 -28 1 -58 14 -87c21 -47 65 -74 112 -74c52 0 85 23 119 64l37 -31c-51 -62 -108 -95 -182 -95c-84 0 -130 26 -183 67c-49 -44 -104 -67 -175 -67c-140 0 -238 103 -238 228s100 225 241 225c68 0 129 -25 172 -74
c42 44 85 75 170 75c129 0 203 -68 203 -206zM665 280c0 76 -27 113 -73 113c-44 0 -67 -40 -71 -118h144v5zM363 209c0 122 -27 183 -84 183c-65 0 -77 -72 -77 -180c0 -113 21 -174 79 -174c60 0 82 61 82 171z" />
    <glyph glyph-name="germandbls" unicode="&#xdf;" horiz-adv-x="610" 
d="M581 193c0 -127 -79 -206 -213 -206c-69 0 -119 35 -119 87c0 41 24 62 55 62c32 0 54 -24 54 -49v-3c0 -6 0 -15 -5 -22c-2 -3 -11 -15 -11 -20c0 -9 12 -10 20 -10c41 0 47 49 47 149c0 168 -36 187 -119 187h-19v46h10c73 0 85 35 85 112c0 78 -21 121 -70 121
c-73 0 -73 -74 -73 -208v-441c-36 2 -58 4 -94 4c-52 0 -80 -2 -132 -4v43c56 2 63 9 63 74v334c0 162 69 243 239 243c157 0 233 -69 233 -151c0 -70 -50 -121 -154 -139c38 -8 80 -16 118 -41c55 -36 85 -95 85 -168z" />
    <glyph glyph-name="onesuperior" unicode="&#xb9;" horiz-adv-x="374" 
d="M322 258c-40 1 -82 2 -123 2s-83 -1 -124 -2v33c61 1 63 4 63 54v9v158c0 77 0 81 -46 81h-17v32c51 1 99 5 156 32h27v-327c0 -36 12 -38 64 -39v-33z" />
    <glyph glyph-name="logicalnot" unicode="&#xac;" 
d="M502 105h-85v168h-368v84h453v-252z" />
    <glyph glyph-name="mu" unicode="&#xb5;" horiz-adv-x="589" 
d="M584 22c-34 -3 -86 -3 -204 -34h-12c-8 42 -9 67 -10 85c-36 -59 -97 -83 -154 -84l21 -85c6 -24 13 -51 13 -75c0 -50 -21 -99 -85 -99c-74 0 -88 51 -88 109v458c0 70 -3 92 -64 93v42c38 -1 80 -2 117 -2c36 0 74 1 109 2v-253c0 -68 4 -110 53 -110
c48 0 78 52 78 140v93c0 76 -10 84 -63 88v42c35 -1 74 -2 111 -2s78 1 115 2v-276v-26c0 -64 3 -65 63 -70v-38z" />
    <glyph glyph-name="trademark" unicode="&#x2122;" horiz-adv-x="1015" 
d="M992 270c-38 1 -80 2 -118 2c-41 0 -83 -1 -120 -2v33c47 2 59 3 59 58v170c-30 -66 -70 -154 -117 -261h-41l-120 264v-143c0 -67 2 -85 56 -88v-33c-24 1 -53 2 -77 2c-25 0 -54 -1 -79 -2v33c54 3 57 21 57 88v214c-13 21 -19 19 -57 22v33c27 -1 58 -2 88 -2
c27 0 60 1 86 2l108 -245c38 80 73 164 107 245c25 -1 57 -2 83 -2c29 0 59 1 85 2v-33c-46 -1 -59 -2 -59 -58v-208c0 -55 12 -56 59 -58v-33zM412 541h-36c-14 58 -46 79 -109 79v-259c0 -55 11 -56 64 -58v-33c-42 1 -86 2 -128 2s-84 -1 -126 -2v33c52 2 64 2 64 58v259
c-63 -1 -94 -17 -109 -79h-37l4 119l38 -1h333l38 1z" />
    <glyph glyph-name="Eth" unicode="&#xd0;" horiz-adv-x="756" 
d="M720 315c0 -132 -56 -233 -152 -281c-57 -29 -118 -35 -188 -35c-75 0 -151 3 -226 3c-49 0 -97 -2 -141 -4v46c75 2 94 9 94 104v169h-84v50h84v142c0 95 -19 101 -94 104v47c49 -1 102 -4 156 -4c62 0 119 4 168 4c249 0 383 -144 383 -345zM510 324
c0 184 -57 282 -172 282c-38 0 -40 -6 -40 -28v-10v-201h120v-50h-120v-139v-3c0 -69 0 -122 71 -122c96 0 141 94 141 271z" />
    <glyph glyph-name="onehalf" unicode="&#xbd;" horiz-adv-x="858" 
d="M817 87l-28 -122h-33v13c0 4 1 8 1 12c0 9 -13 10 -72 10h-96c-26 0 -58 -1 -89 -1c77 140 197 177 197 298c0 37 -22 65 -55 65c-24 0 -43 -19 -43 -44c0 -24 16 -35 30 -35c4 0 8 1 11 3s5 4 12 4c5 0 5 -8 5 -13v-2c0 -21 -27 -51 -65 -51c-48 0 -77 39 -77 72
c0 57 50 102 145 102c96 0 157 -45 157 -111c0 -95 -112 -122 -200 -200h200zM666 664l-412 -680h-62l417 680h57zM322 258c-40 1 -82 2 -123 2s-83 -1 -124 -2v33c61 1 63 4 63 54v9v158c0 77 0 81 -46 81h-17v32c51 1 99 5 156 32h27v-327c0 -36 12 -38 64 -39v-33z" />
    <glyph glyph-name="plusminus" unicode="&#xb1;" 
d="M502 254h-184v-124h-85v124h-184v84h184v120h85v-120h184v-84zM502 0h-453v84h453v-84z" />
    <glyph glyph-name="Thorn" unicode="&#xde;" horiz-adv-x="670" 
d="M642 353c0 -36 -14 -73 -38 -103c-47 -57 -128 -78 -253 -78h-53v-24c0 -93 18 -101 103 -104v-46c-62 2 -127 4 -195 4s-134 -2 -193 -4v46c75 2 94 9 94 104v356c0 95 -19 106 -94 109v47c62 -2 125 -4 188 -4c64 0 132 2 200 4v-47c-74 -1 -99 -9 -102 -84h18
c82 0 146 -3 184 -12c89 -21 141 -79 141 -164zM439 353c0 80 -33 122 -90 122c-49 0 -51 -4 -51 -47v-9v-193h28c76 0 113 41 113 127z" />
    <glyph glyph-name="onequarter" unicode="&#xbc;" horiz-adv-x="858" 
d="M843 -1c-30 1 -64 2 -96 2c-48 0 -99 -1 -147 -2v33c53 2 60 3 60 45v35h-164v42l210 241h74v-239h59v-44h-59v-35c0 -41 8 -43 63 -45v-33zM666 664l-412 -680h-62l417 680h57zM322 258c-40 1 -82 2 -123 2s-83 -1 -124 -2v33c61 1 63 4 63 54v9v158c0 77 0 81 -46 81
h-17v32c51 1 99 5 156 32h27v-327c0 -36 12 -38 64 -39v-33zM660 156v130l-113 -130h113z" />
    <glyph glyph-name="divide" unicode="&#xf7;" 
d="M340 397c0 -36 -29 -64 -64 -64s-65 29 -65 64s29 65 65 65c35 0 64 -29 64 -65zM502 189h-453v84h453v-84zM340 64c0 -36 -29 -64 -64 -64s-65 29 -65 64s29 65 65 65c35 0 64 -29 64 -65z" />
    <glyph glyph-name="brokenbar" unicode="&#xa6;" horiz-adv-x="292" 
d="M189 325h-85v350h85v-350zM189 -175h-85v350h85v-350z" />
    <glyph glyph-name="degree" unicode="&#xb0;" horiz-adv-x="355" 
d="M303 536c0 -70 -57 -126 -125 -126c-73 0 -126 59 -126 126c0 69 53 128 126 128c71 0 125 -59 125 -128zM247 536c0 42 -31 74 -69 74c-41 0 -70 -36 -70 -74c0 -40 33 -72 70 -72c35 0 69 29 69 72z" />
    <glyph glyph-name="thorn" unicode="&#xfe;" horiz-adv-x="586" 
d="M557 227c0 -147 -98 -237 -191 -237c-67 0 -114 16 -145 54v-201c0 -68 8 -75 77 -77v-42c-62 1 -116 3 -158 3c-44 0 -92 -2 -145 -3v42c56 1 63 9 63 75v674v18c0 63 -2 85 -63 86v41c82 1 151 10 213 32h13v-319c33 45 81 70 137 70c118 0 199 -98 199 -216zM381 220
c0 95 -27 143 -85 143c-60 0 -77 -62 -77 -157c0 -96 18 -147 76 -147s86 55 86 161z" />
    <glyph glyph-name="threequarters" unicode="&#xbe;" horiz-adv-x="858" 
d="M843 -1c-30 1 -64 2 -96 2c-48 0 -99 -1 -147 -2v33c53 2 60 3 60 45v35h-164v42l210 241h74v-239h59v-44h-59v-35c0 -41 8 -43 63 -45v-33zM666 664l-412 -680h-62l417 680h57zM332 389c0 -79 -78 -140 -184 -140c-84 0 -127 32 -127 64c0 24 19 42 43 42
c22 0 39 -15 46 -30c10 -21 19 -39 42 -39c33 0 60 29 60 94c0 46 -15 72 -38 72c-30 0 -30 -42 -62 -42c-13 0 -26 10 -26 24c0 12 12 22 23 28c44 24 88 45 88 105c0 33 -17 53 -43 53c-20 0 -36 -17 -36 -35c0 -12 7 -22 20 -22c8 0 13 6 20 6s8 -9 8 -14
c0 -19 -25 -47 -63 -47c-35 0 -62 24 -62 57c0 46 54 91 146 91c79 0 125 -32 125 -76c0 -43 -36 -74 -103 -98c84 -3 123 -36 123 -93zM660 156v130l-113 -130h113z" />
    <glyph glyph-name="twosuperior" unicode="&#xb2;" horiz-adv-x="374" 
d="M333 344l-29 -120h-31v25c0 9 -12 11 -72 11h-95c-29 0 -61 -2 -90 -2c77 140 197 176 197 297c0 36 -21 66 -55 66c-24 0 -43 -20 -43 -44s16 -35 30 -35c4 0 8 1 11 3s5 4 12 4c5 0 6 -12 6 -16c0 -21 -27 -49 -65 -49c-48 0 -77 39 -77 71c0 57 49 102 144 102
c97 0 157 -46 157 -111c0 -95 -111 -123 -200 -202h200z" />
    <glyph glyph-name="registered" unicode="&#xae;" horiz-adv-x="766" 
d="M729 329c0 -191 -155 -346 -346 -346s-346 155 -346 346s155 346 346 346s346 -155 346 -346zM649 329c0 147 -119 266 -266 266s-266 -119 -266 -266s119 -266 266 -266s266 119 266 266zM575 164h-83c-28 0 -44 14 -73 76s-34 69 -52 69h-7v-79c0 -24 7 -33 39 -33v-33
h-182v33c31 0 42 7 42 33v214c0 22 -13 26 -40 27v33h170c82 0 136 -23 136 -96c0 -40 -29 -60 -63 -73v-3c24 -6 41 -34 56 -62c32 -63 37 -71 57 -73v-33zM420 410c0 40 -4 61 -32 61h-12c-14 0 -16 -6 -16 -33v-85c7 -2 12 -3 19 -3c31 0 41 22 41 60z" />
    <glyph glyph-name="minus" unicode="&#x2212;" 
d="M502 189h-453v84h453v-84z" />
    <glyph glyph-name="eth" unicode="&#xf0;" horiz-adv-x="569" 
d="M542 223c0 -154 -119 -235 -251 -235c-166 0 -261 103 -261 226c0 141 114 227 258 227c15 0 29 -1 43 -3c-15 35 -31 65 -51 92l-120 -70l-25 43l112 65c-33 33 -73 60 -125 87l21 45c63 -19 124 -50 178 -89l127 73l25 -43l-110 -63c107 -93 179 -211 179 -355z
M366 214c0 119 -24 177 -80 177c-64 0 -80 -65 -80 -177c0 -120 20 -177 83 -177c56 0 77 63 77 177z" />
    <glyph glyph-name="multiply" unicode="&#xd7;" 
d="M475 89l-60 -60l-140 139l-139 -139l-60 60l139 139l-139 140l60 60l139 -139l140 139l60 -60l-139 -140z" />
    <glyph glyph-name="threesuperior" unicode="&#xb3;" horiz-adv-x="374" 
d="M332 389c0 -79 -78 -140 -184 -140c-84 0 -127 32 -127 64c0 24 19 42 43 42c22 0 39 -15 46 -30c10 -21 19 -39 42 -39c33 0 60 29 60 94c0 46 -15 72 -38 72c-30 0 -30 -42 -62 -42c-13 0 -26 10 -26 24c0 12 12 22 23 28c44 24 88 45 88 105c0 33 -17 53 -43 53
c-20 0 -36 -17 -36 -35c0 -12 7 -22 20 -22c8 0 13 6 20 6s8 -9 8 -14c0 -19 -25 -47 -63 -47c-35 0 -62 24 -62 57c0 46 54 91 146 91c79 0 125 -32 125 -76c0 -43 -36 -74 -103 -98c84 -3 123 -36 123 -93z" />
    <glyph glyph-name="copyright" unicode="&#xa9;" horiz-adv-x="766" 
d="M729 329c0 -191 -155 -346 -346 -346s-346 155 -346 346s155 346 346 346s346 -155 346 -346zM649 329c0 147 -119 266 -266 266s-266 -119 -266 -266s119 -266 266 -266s266 119 266 266zM550 243c-36 -79 -120 -88 -161 -88c-108 0 -190 66 -190 173
c0 117 88 185 210 185c33 0 92 -10 128 -28v-105h-50c-10 29 -20 57 -29 68c-12 13 -27 22 -52 22c-71 0 -89 -65 -89 -125c0 -73 28 -143 109 -143c36 0 62 21 84 56z" />
    <glyph glyph-name="Aacute" unicode="&#xc1;" horiz-adv-x="662" 
d="M681 -2c-56 2 -117 4 -177 4c-64 0 -124 -2 -179 -4v46c49 1 72 12 72 41c0 13 -5 34 -11 49l-23 61h-194l-16 -42c-7 -19 -12 -33 -12 -57c0 -41 38 -49 76 -52v-46c-37 2 -78 4 -118 4c-42 0 -82 -2 -119 -4v46c60 15 78 34 122 138l200 472h64l208 -496
c32 -76 39 -102 107 -114v-46zM343 248l-75 196l-77 -196h152zM512 824c0 -30 -20 -41 -56 -60l-130 -69h-40l117 122c25 26 51 45 67 45c25 0 42 -19 42 -38z" />
    <glyph glyph-name="Acircumflex" unicode="&#xc2;" horiz-adv-x="662" 
d="M681 -2c-56 2 -117 4 -177 4c-64 0 -124 -2 -179 -4v46c49 1 72 12 72 41c0 13 -5 34 -11 49l-23 61h-194l-16 -42c-7 -19 -12 -33 -12 -57c0 -41 38 -49 76 -52v-46c-37 2 -78 4 -118 4c-42 0 -82 -2 -119 -4v46c60 15 78 34 122 138l200 472h64l208 -496
c32 -76 39 -102 107 -114v-46zM343 248l-75 196l-77 -196h152zM472 697h-44l-99 91l-99 -91h-42l107 171h68z" />
    <glyph glyph-name="Adieresis" unicode="&#xc4;" horiz-adv-x="662" 
d="M681 -2c-56 2 -117 4 -177 4c-64 0 -124 -2 -179 -4v46c49 1 72 12 72 41c0 13 -5 34 -11 49l-23 61h-194l-16 -42c-7 -19 -12 -33 -12 -57c0 -41 38 -49 76 -52v-46c-37 2 -78 4 -118 4c-42 0 -82 -2 -119 -4v46c60 15 78 34 122 138l200 472h64l208 -496
c32 -76 39 -102 107 -114v-46zM343 248l-75 196l-77 -196h152zM492 782c0 -36 -31 -65 -66 -65s-66 30 -66 65s30 64 66 64c35 0 66 -28 66 -64zM314 782c0 -35 -31 -65 -66 -65s-66 30 -66 65s30 64 66 64c35 0 66 -29 66 -64z" />
    <glyph glyph-name="Agrave" unicode="&#xc0;" horiz-adv-x="662" 
d="M681 -2c-56 2 -117 4 -177 4c-64 0 -124 -2 -179 -4v46c49 1 72 12 72 41c0 13 -5 34 -11 49l-23 61h-194l-16 -42c-7 -19 -12 -33 -12 -57c0 -41 38 -49 76 -52v-46c-37 2 -78 4 -118 4c-42 0 -82 -2 -119 -4v46c60 15 78 34 122 138l200 472h64l208 -496
c32 -76 39 -102 107 -114v-46zM343 248l-75 196l-77 -196h152zM376 695h-39l-130 69c-36 19 -56 30 -56 60c0 18 17 38 42 38c16 0 41 -19 66 -45z" />
    <glyph glyph-name="Aring" unicode="&#xc5;" horiz-adv-x="662" 
d="M681 -2c-56 2 -117 4 -177 4c-64 0 -124 -2 -179 -4v46c49 1 72 12 72 41c0 13 -5 34 -11 49l-23 61h-194l-16 -42c-7 -19 -12 -33 -12 -57c0 -41 38 -49 76 -52v-46c-37 2 -78 4 -118 4c-42 0 -82 -2 -119 -4v46c60 15 78 34 122 138l200 472h64l208 -496
c32 -76 39 -102 107 -114v-46zM343 248l-75 196l-77 -196h152zM432 791c0 -56 -46 -100 -101 -100s-100 45 -100 100s45 102 100 102s101 -46 101 -102zM385 791c0 31 -25 57 -54 57s-52 -25 -52 -57s23 -54 52 -54s54 22 54 54z" />
    <glyph glyph-name="Atilde" unicode="&#xc3;" horiz-adv-x="662" 
d="M681 -2c-56 2 -117 4 -177 4c-64 0 -124 -2 -179 -4v46c49 1 72 12 72 41c0 13 -5 34 -11 49l-23 61h-194l-16 -42c-7 -19 -12 -33 -12 -57c0 -41 38 -49 76 -52v-46c-37 2 -78 4 -118 4c-42 0 -82 -2 -119 -4v46c60 15 78 34 122 138l200 472h64l208 -496
c32 -76 39 -102 107 -114v-46zM343 248l-75 196l-77 -196h152zM496 828c-19 -69 -53 -99 -110 -99c-9 0 -28 6 -42 12l-28 11c-14 6 -33 12 -41 12c-30 0 -40 -4 -56 -33l-28 3c5 22 11 45 35 69c30 29 55 30 81 30h5c8 0 28 -7 42 -13l26 -11c10 -4 26 -11 35 -11
c15 0 37 0 53 33z" />
    <glyph glyph-name="Ccedilla" unicode="&#xc7;" horiz-adv-x="706" 
d="M666 1h-52l-21 55c-63 -44 -125 -68 -212 -68l-15 -52h10c78 0 113 -37 113 -85c0 -41 -41 -82 -104 -82c-62 0 -114 31 -114 64c0 14 12 32 31 32c16 0 30 -10 34 -19c7 -14 15 -37 41 -37c25 0 42 20 42 43c0 34 -29 45 -72 45c-13 0 -31 -2 -43 -3l30 94
c-198 32 -299 163 -299 345c0 160 129 336 356 336c92 0 142 -28 194 -68l16 58h52c0 -18 -1 -40 -1 -59c0 -40 3 -92 5 -154h-56c-26 113 -97 161 -173 161c-114 0 -183 -106 -183 -283c0 -181 80 -273 186 -273c92 0 153 59 183 178h52c-1 -35 -3 -74 -3 -111
c0 -36 1 -76 3 -117z" />
    <glyph glyph-name="Eacute" unicode="&#xc9;" horiz-adv-x="634" 
d="M614 -2c-58 1 -119 2 -181 2h-230c-65 0 -130 -1 -190 -2v46c75 2 94 9 94 104v361c0 95 -19 101 -94 104v47c60 -1 123 -3 185 -3h204c55 0 112 2 168 3l8 -180h-47c-24 102 -51 123 -176 123c-52 0 -57 -6 -57 -36v-200c62 0 99 11 117 108h48v-271h-48
c-12 74 -27 109 -117 112v-161c0 -81 25 -101 116 -101c114 0 135 58 156 145h44v-201zM485 824c0 -30 -20 -41 -56 -60l-130 -69h-40l117 122c25 26 51 45 67 45c25 0 42 -19 42 -38z" />
    <glyph glyph-name="Ecircumflex" unicode="&#xca;" horiz-adv-x="634" 
d="M614 -2c-58 1 -119 2 -181 2h-230c-65 0 -130 -1 -190 -2v46c75 2 94 9 94 104v361c0 95 -19 101 -94 104v47c60 -1 123 -3 185 -3h204c55 0 112 2 168 3l8 -180h-47c-24 102 -51 123 -176 123c-52 0 -57 -6 -57 -36v-200c62 0 99 11 117 108h48v-271h-48
c-12 74 -27 109 -117 112v-161c0 -81 25 -101 116 -101c114 0 135 58 156 145h44v-201zM450 697h-44l-99 91l-99 -91h-42l107 171h68z" />
    <glyph glyph-name="Edieresis" unicode="&#xcb;" horiz-adv-x="634" 
d="M614 -2c-58 1 -119 2 -181 2h-230c-65 0 -130 -1 -190 -2v46c75 2 94 9 94 104v361c0 95 -19 101 -94 104v47c60 -1 123 -3 185 -3h204c55 0 112 2 168 3l8 -180h-47c-24 102 -51 123 -176 123c-52 0 -57 -6 -57 -36v-200c62 0 99 11 117 108h48v-271h-48
c-12 74 -27 109 -117 112v-161c0 -81 25 -101 116 -101c114 0 135 58 156 145h44v-201zM472 782c0 -36 -31 -65 -66 -65s-66 30 -66 65s30 64 66 64c35 0 66 -28 66 -64zM294 782c0 -35 -31 -65 -66 -65s-66 30 -66 65s30 64 66 64c35 0 66 -29 66 -64z" />
    <glyph glyph-name="Egrave" unicode="&#xc8;" horiz-adv-x="634" 
d="M614 -2c-58 1 -119 2 -181 2h-230c-65 0 -130 -1 -190 -2v46c75 2 94 9 94 104v361c0 95 -19 101 -94 104v47c60 -1 123 -3 185 -3h204c55 0 112 2 168 3l8 -180h-47c-24 102 -51 123 -176 123c-52 0 -57 -6 -57 -36v-200c62 0 99 11 117 108h48v-271h-48
c-12 74 -27 109 -117 112v-161c0 -81 25 -101 116 -101c114 0 135 58 156 145h44v-201zM375 695h-39l-130 69c-36 19 -56 30 -56 60c0 18 17 38 42 38c16 0 41 -19 66 -45z" />
    <glyph glyph-name="Iacute" unicode="&#xcd;" horiz-adv-x="404" 
d="M391 -2c-59 2 -123 4 -188 4c-67 0 -131 -2 -190 -4v46c75 2 94 9 94 104v361c0 95 -19 101 -94 104v47c62 -2 125 -4 188 -4s127 2 190 4v-47c-75 -3 -93 -9 -93 -104v-361c0 -95 18 -102 93 -104v-46zM357 824c0 -30 -20 -41 -56 -60l-130 -69h-40l117 122
c25 26 51 45 67 45c25 0 42 -19 42 -38z" />
    <glyph glyph-name="Icircumflex" unicode="&#xce;" horiz-adv-x="404" 
d="M391 -2c-59 2 -123 4 -188 4c-67 0 -131 -2 -190 -4v46c75 2 94 9 94 104v361c0 95 -19 101 -94 104v47c62 -2 125 -4 188 -4s127 2 190 4v-47c-75 -3 -93 -9 -93 -104v-361c0 -95 18 -102 93 -104v-46zM344 697h-44l-99 91l-99 -91h-42l107 171h68z" />
    <glyph glyph-name="Idieresis" unicode="&#xcf;" horiz-adv-x="404" 
d="M391 -2c-59 2 -123 4 -188 4c-67 0 -131 -2 -190 -4v46c75 2 94 9 94 104v361c0 95 -19 101 -94 104v47c62 -2 125 -4 188 -4s127 2 190 4v-47c-75 -3 -93 -9 -93 -104v-361c0 -95 18 -102 93 -104v-46zM357 782c0 -36 -31 -65 -66 -65s-66 30 -66 65s30 64 66 64
c35 0 66 -28 66 -64zM179 782c0 -35 -31 -65 -66 -65s-66 30 -66 65s30 64 66 64c35 0 66 -29 66 -64z" />
    <glyph glyph-name="Igrave" unicode="&#xcc;" horiz-adv-x="404" 
d="M391 -2c-59 2 -123 4 -188 4c-67 0 -131 -2 -190 -4v46c75 2 94 9 94 104v361c0 95 -19 101 -94 104v47c62 -2 125 -4 188 -4s127 2 190 4v-47c-75 -3 -93 -9 -93 -104v-361c0 -95 18 -102 93 -104v-46zM273 695h-39l-130 69c-36 19 -56 30 -56 60c0 18 17 38 42 38
c16 0 41 -19 66 -45z" />
    <glyph glyph-name="Ntilde" unicode="&#xd1;" horiz-adv-x="776" 
d="M768 613c-87 -7 -92 -44 -92 -155v-474h-78c-109 123 -179 215 -211 250l-227 249v-284c0 -111 6 -148 93 -155v-46c-38 2 -79 4 -120 4c-42 0 -85 -2 -122 -4v46c87 7 92 45 92 155v346c-38 47 -48 62 -99 69v46c40 -2 82 -4 123 -4c38 0 79 2 119 4
c57 -58 107 -113 131 -141l242 -285v224c0 111 -6 148 -93 155v47c40 -2 84 -4 125 -4c38 0 79 2 117 4v-47zM557 828c-19 -69 -53 -99 -110 -99c-9 0 -28 6 -42 12l-28 11c-14 6 -33 12 -41 12c-30 0 -40 -4 -56 -33l-28 3c5 22 11 45 35 69c30 29 55 30 81 30h5
c8 0 28 -7 42 -13l26 -11c10 -4 26 -11 35 -11c15 0 37 0 53 33z" />
    <glyph glyph-name="Oacute" unicode="&#xd3;" horiz-adv-x="822" 
d="M787 333c0 -210 -166 -346 -369 -346c-231 0 -383 144 -383 343c0 182 147 339 378 339c219 0 374 -145 374 -336zM577 330c0 170 -64 285 -168 285c-112 0 -164 -96 -164 -283c0 -176 66 -292 172 -292c43 0 84 22 112 60c40 56 48 132 48 230zM579 824
c0 -30 -20 -41 -56 -60l-130 -69h-40l117 122c25 26 51 45 67 45c25 0 42 -19 42 -38z" />
    <glyph glyph-name="Ocircumflex" unicode="&#xd4;" horiz-adv-x="822" 
d="M787 333c0 -210 -166 -346 -369 -346c-231 0 -383 144 -383 343c0 182 147 339 378 339c219 0 374 -145 374 -336zM577 330c0 170 -64 285 -168 285c-112 0 -164 -96 -164 -283c0 -176 66 -292 172 -292c43 0 84 22 112 60c40 56 48 132 48 230zM552 697h-44l-99 91
l-99 -91h-42l107 171h68z" />
    <glyph glyph-name="Odieresis" unicode="&#xd6;" horiz-adv-x="822" 
d="M787 333c0 -210 -166 -346 -369 -346c-231 0 -383 144 -383 343c0 182 147 339 378 339c219 0 374 -145 374 -336zM577 330c0 170 -64 285 -168 285c-112 0 -164 -96 -164 -283c0 -176 66 -292 172 -292c43 0 84 22 112 60c40 56 48 132 48 230zM566 782
c0 -36 -31 -65 -66 -65s-66 30 -66 65s30 64 66 64c35 0 66 -28 66 -64zM388 782c0 -35 -31 -65 -66 -65s-66 30 -66 65s30 64 66 64c35 0 66 -29 66 -64z" />
    <glyph glyph-name="Ograve" unicode="&#xd2;" horiz-adv-x="822" 
d="M787 333c0 -210 -166 -346 -369 -346c-231 0 -383 144 -383 343c0 182 147 339 378 339c219 0 374 -145 374 -336zM577 330c0 170 -64 285 -168 285c-112 0 -164 -96 -164 -283c0 -176 66 -292 172 -292c43 0 84 22 112 60c40 56 48 132 48 230zM468 695h-39l-130 69
c-36 19 -56 30 -56 60c0 18 17 38 42 38c16 0 41 -19 66 -45z" />
    <glyph glyph-name="Otilde" unicode="&#xd5;" horiz-adv-x="822" 
d="M787 333c0 -210 -166 -346 -369 -346c-231 0 -383 144 -383 343c0 182 147 339 378 339c219 0 374 -145 374 -336zM577 330c0 170 -64 285 -168 285c-112 0 -164 -96 -164 -283c0 -176 66 -292 172 -292c43 0 84 22 112 60c40 56 48 132 48 230zM577 828
c-19 -69 -53 -99 -110 -99c-9 0 -28 6 -42 12l-28 11c-14 6 -33 12 -41 12c-30 0 -40 -4 -56 -33l-28 3c5 22 11 45 35 69c30 29 55 30 81 30h5c8 0 28 -7 42 -13l26 -11c10 -4 26 -11 35 -11c15 0 37 0 53 33z" />
    <glyph glyph-name="Scaron" unicode="&#x160;" horiz-adv-x="559" 
d="M523 193c0 -119 -95 -206 -248 -206c-79 0 -132 23 -175 69l-13 -51h-55v212h55c26 -123 92 -177 166 -177c63 0 104 35 104 86c0 63 -47 86 -93 109l-46 23c-111 55 -167 114 -167 212c0 122 93 199 214 199c81 0 113 -17 157 -47l14 33h53v-191h-53
c-18 74 -45 148 -155 148c-53 0 -81 -32 -81 -72c0 -51 42 -75 101 -101l67 -30c104 -47 155 -126 155 -216zM409 868l-107 -171h-68l-109 171h44l98 -91l100 91h42z" />
    <glyph glyph-name="Uacute" unicode="&#xda;" horiz-adv-x="773" 
d="M773 613c-87 -7 -93 -45 -93 -155v-167c0 -108 -9 -185 -84 -244c-53 -42 -121 -60 -205 -60c-131 0 -228 46 -268 112c-28 47 -30 99 -30 166v244c0 95 -18 101 -93 104v47c62 -2 125 -4 188 -4s127 2 190 4v-47c-75 -3 -93 -9 -93 -104v-256c0 -98 10 -194 144 -194
c169 0 191 97 191 232v167c0 110 -5 148 -92 155v47c41 -2 84 -4 125 -4c38 0 80 2 120 4v-47zM554 824c0 -30 -20 -41 -56 -60l-130 -69h-40l117 122c25 26 51 45 67 45c25 0 42 -19 42 -38z" />
    <glyph glyph-name="Ucircumflex" unicode="&#xdb;" horiz-adv-x="773" 
d="M773 613c-87 -7 -93 -45 -93 -155v-167c0 -108 -9 -185 -84 -244c-53 -42 -121 -60 -205 -60c-131 0 -228 46 -268 112c-28 47 -30 99 -30 166v244c0 95 -18 101 -93 104v47c62 -2 125 -4 188 -4s127 2 190 4v-47c-75 -3 -93 -9 -93 -104v-256c0 -98 10 -194 144 -194
c169 0 191 97 191 232v167c0 110 -5 148 -92 155v47c41 -2 84 -4 125 -4c38 0 80 2 120 4v-47zM551 697h-44l-99 91l-99 -91h-42l107 171h68z" />
    <glyph glyph-name="Udieresis" unicode="&#xdc;" horiz-adv-x="773" 
d="M773 613c-87 -7 -93 -45 -93 -155v-167c0 -108 -9 -185 -84 -244c-53 -42 -121 -60 -205 -60c-131 0 -228 46 -268 112c-28 47 -30 99 -30 166v244c0 95 -18 101 -93 104v47c62 -2 125 -4 188 -4s127 2 190 4v-47c-75 -3 -93 -9 -93 -104v-256c0 -98 10 -194 144 -194
c169 0 191 97 191 232v167c0 110 -5 148 -92 155v47c41 -2 84 -4 125 -4c38 0 80 2 120 4v-47zM580 782c0 -36 -31 -65 -66 -65s-66 30 -66 65s30 64 66 64c35 0 66 -28 66 -64zM402 782c0 -35 -31 -65 -66 -65s-66 30 -66 65s30 64 66 64c35 0 66 -29 66 -64z" />
    <glyph glyph-name="Ugrave" unicode="&#xd9;" horiz-adv-x="773" 
d="M773 613c-87 -7 -93 -45 -93 -155v-167c0 -108 -9 -185 -84 -244c-53 -42 -121 -60 -205 -60c-131 0 -228 46 -268 112c-28 47 -30 99 -30 166v244c0 95 -18 101 -93 104v47c62 -2 125 -4 188 -4s127 2 190 4v-47c-75 -3 -93 -9 -93 -104v-256c0 -98 10 -194 144 -194
c169 0 191 97 191 232v167c0 110 -5 148 -92 155v47c41 -2 84 -4 125 -4c38 0 80 2 120 4v-47zM457 695h-39l-130 69c-36 19 -56 30 -56 60c0 18 17 38 42 38c16 0 41 -19 66 -45z" />
    <glyph glyph-name="Yacute" unicode="&#xdd;" horiz-adv-x="660" 
d="M680 613c-68 -8 -76 -32 -124 -116c0 0 -66 -126 -132 -229v-120c0 -95 19 -101 94 -104v-46c-59 2 -123 4 -188 4c-68 0 -132 -2 -190 -4v46c75 2 93 9 93 104v101l-140 265c-44 84 -53 92 -113 99v47c60 -2 122 -4 182 -4s123 2 183 4v-47c-33 -2 -64 -2 -64 -35
c0 -22 15 -50 28 -75l87 -173c33 56 78 137 78 138c22 39 38 80 38 101c0 31 -22 44 -59 44h-5v47c38 -2 80 -4 118 -4c36 0 77 2 114 4v-47zM498 824c0 -30 -20 -41 -56 -60l-130 -69h-40l117 122c25 26 51 45 67 45c25 0 42 -19 42 -38z" />
    <glyph glyph-name="Ydieresis" unicode="&#x178;" horiz-adv-x="660" 
d="M680 613c-68 -8 -76 -32 -124 -116c0 0 -66 -126 -132 -229v-120c0 -95 19 -101 94 -104v-46c-59 2 -123 4 -188 4c-68 0 -132 -2 -190 -4v46c75 2 93 9 93 104v101l-140 265c-44 84 -53 92 -113 99v47c60 -2 122 -4 182 -4s123 2 183 4v-47c-33 -2 -64 -2 -64 -35
c0 -22 15 -50 28 -75l87 -173c33 56 78 137 78 138c22 39 38 80 38 101c0 31 -22 44 -59 44h-5v47c38 -2 80 -4 118 -4c36 0 77 2 114 4v-47zM511 782c0 -36 -31 -65 -66 -65s-66 30 -66 65s30 64 66 64c35 0 66 -28 66 -64zM333 782c0 -35 -31 -65 -66 -65s-66 30 -66 65
s30 64 66 64c35 0 66 -29 66 -64z" />
    <glyph glyph-name="Zcaron" unicode="&#x17d;" horiz-adv-x="589" 
d="M571 204l-12 -206c-87 2 -175 4 -262 4c-92 0 -187 -1 -279 -2v44l336 559c-168 0 -232 -3 -255 -129h-50l6 186c97 -2 182 -5 257 -5c80 0 167 2 259 2v-44l-333 -557h82c154 0 182 53 200 148h51zM456 868l-107 -171h-68l-109 171h44l98 -91l100 91h42z" />
    <glyph glyph-name="aacute" unicode="&#xe1;" horiz-adv-x="528" 
d="M539 49c-40 -38 -83 -60 -136 -60c-54 0 -84 18 -99 60c-46 -35 -94 -60 -156 -60c-67 0 -117 44 -117 101c0 98 91 130 273 199v37c0 42 -9 71 -49 71c-80 0 -48 -117 -129 -117c-48 0 -69 35 -69 65c0 59 67 97 207 97c191 0 196 -92 196 -164v-11v-185
c0 -11 9 -20 18 -20c11 0 24 13 35 23zM304 147v93c-63 -24 -111 -43 -111 -109c0 -35 15 -56 40 -56c5 0 40 7 53 21c17 19 18 13 18 51zM429 637c0 -30 -20 -41 -56 -60l-130 -69h-40l117 122c25 26 51 45 67 45c25 0 42 -19 42 -38z" />
    <glyph glyph-name="acircumflex" unicode="&#xe2;" horiz-adv-x="528" 
d="M539 49c-40 -38 -83 -60 -136 -60c-54 0 -84 18 -99 60c-46 -35 -94 -60 -156 -60c-67 0 -117 44 -117 101c0 98 91 130 273 199v37c0 42 -9 71 -49 71c-80 0 -48 -117 -129 -117c-48 0 -69 35 -69 65c0 59 67 97 207 97c191 0 196 -92 196 -164v-11v-185
c0 -11 9 -20 18 -20c11 0 24 13 35 23zM304 147v93c-63 -24 -111 -43 -111 -109c0 -35 15 -56 40 -56c5 0 40 7 53 21c17 19 18 13 18 51zM406 506h-44l-99 91l-99 -91h-42l107 171h68z" />
    <glyph glyph-name="adieresis" unicode="&#xe4;" horiz-adv-x="528" 
d="M539 49c-40 -38 -83 -60 -136 -60c-54 0 -84 18 -99 60c-46 -35 -94 -60 -156 -60c-67 0 -117 44 -117 101c0 98 91 130 273 199v37c0 42 -9 71 -49 71c-80 0 -48 -117 -129 -117c-48 0 -69 35 -69 65c0 59 67 97 207 97c191 0 196 -92 196 -164v-11v-185
c0 -11 9 -20 18 -20c11 0 24 13 35 23zM304 147v93c-63 -24 -111 -43 -111 -109c0 -35 15 -56 40 -56c5 0 40 7 53 21c17 19 18 13 18 51zM427 595c0 -36 -31 -65 -66 -65s-66 30 -66 65s30 64 66 64c35 0 66 -28 66 -64zM249 595c0 -35 -31 -65 -66 -65s-66 30 -66 65
s30 64 66 64c35 0 66 -29 66 -64z" />
    <glyph glyph-name="agrave" unicode="&#xe0;" horiz-adv-x="528" 
d="M539 49c-40 -38 -83 -60 -136 -60c-54 0 -84 18 -99 60c-46 -35 -94 -60 -156 -60c-67 0 -117 44 -117 101c0 98 91 130 273 199v37c0 42 -9 71 -49 71c-80 0 -48 -117 -129 -117c-48 0 -69 35 -69 65c0 59 67 97 207 97c191 0 196 -92 196 -164v-11v-185
c0 -11 9 -20 18 -20c11 0 24 13 35 23zM304 147v93c-63 -24 -111 -43 -111 -109c0 -35 15 -56 40 -56c5 0 40 7 53 21c17 19 18 13 18 51zM325 508h-39l-130 69c-36 19 -56 30 -56 60c0 18 17 38 42 38c16 0 41 -19 66 -45z" />
    <glyph glyph-name="aring" unicode="&#xe5;" horiz-adv-x="528" 
d="M539 49c-40 -38 -83 -60 -136 -60c-54 0 -84 18 -99 60c-46 -35 -94 -60 -156 -60c-67 0 -117 44 -117 101c0 98 91 130 273 199v37c0 42 -9 71 -49 71c-80 0 -48 -117 -129 -117c-48 0 -69 35 -69 65c0 59 67 97 207 97c191 0 196 -92 196 -164v-11v-185
c0 -11 9 -20 18 -20c11 0 24 13 35 23zM304 147v93c-63 -24 -111 -43 -111 -109c0 -35 15 -56 40 -56c5 0 40 7 53 21c17 19 18 13 18 51zM362 593c0 -56 -46 -100 -101 -100s-100 45 -100 100s45 102 100 102s101 -46 101 -102zM315 593c0 31 -25 57 -54 57
s-52 -25 -52 -57s23 -54 52 -54s54 22 54 54z" />
    <glyph glyph-name="atilde" unicode="&#xe3;" horiz-adv-x="528" 
d="M539 49c-40 -38 -83 -60 -136 -60c-54 0 -84 18 -99 60c-46 -35 -94 -60 -156 -60c-67 0 -117 44 -117 101c0 98 91 130 273 199v37c0 42 -9 71 -49 71c-80 0 -48 -117 -129 -117c-48 0 -69 35 -69 65c0 59 67 97 207 97c191 0 196 -92 196 -164v-11v-185
c0 -11 9 -20 18 -20c11 0 24 13 35 23zM304 147v93c-63 -24 -111 -43 -111 -109c0 -35 15 -56 40 -56c5 0 40 7 53 21c17 19 18 13 18 51zM417 639c-19 -69 -53 -99 -110 -99c-9 0 -28 6 -42 12l-28 11c-14 6 -33 12 -41 12c-30 0 -40 -4 -56 -33l-28 3c5 22 11 45 35 69
c30 29 55 30 81 30h5c8 0 28 -7 42 -13l26 -11c10 -4 26 -11 35 -11c15 0 37 0 53 33z" />
    <glyph glyph-name="ccedilla" unicode="&#xe7;" horiz-adv-x="470" 
d="M465 82c-52 -57 -97 -85 -184 -93l-16 -49c65 -5 98 -33 98 -76c0 -41 -43 -72 -85 -72c-67 0 -107 37 -107 61c0 22 13 31 24 31c15 0 25 -8 30 -22c4 -11 8 -33 39 -33c19 0 38 12 38 36c0 36 -39 43 -92 43l27 81c-133 11 -207 112 -207 222c0 138 106 232 251 232
c122 0 178 -50 178 -105c0 -41 -28 -68 -63 -68c-37 0 -64 26 -79 74c-8 24 -11 45 -44 45c-45 0 -67 -59 -67 -171c0 -36 1 -72 14 -103c17 -40 51 -62 91 -62c52 0 82 25 115 62z" />
    <glyph glyph-name="eacute" unicode="&#xe9;" horiz-adv-x="515" 
d="M490 252c0 -25 -1 -27 -25 -27h-16h-246c3 -113 44 -171 122 -171c57 0 89 25 124 65l37 -32c-52 -68 -109 -98 -202 -98c-164 0 -254 90 -254 222c0 137 93 232 250 232c142 0 210 -89 210 -188v-3zM346 275c-1 78 -24 118 -69 118c-55 0 -69 -51 -74 -118h143zM436 637
c0 -30 -20 -41 -56 -60l-130 -69h-40l117 122c25 26 51 45 67 45c25 0 42 -19 42 -38z" />
    <glyph glyph-name="ecircumflex" unicode="&#xea;" horiz-adv-x="515" 
d="M490 252c0 -25 -1 -27 -25 -27h-16h-246c3 -113 44 -171 122 -171c57 0 89 25 124 65l37 -32c-52 -68 -109 -98 -202 -98c-164 0 -254 90 -254 222c0 137 93 232 250 232c142 0 210 -89 210 -188v-3zM346 275c-1 78 -24 118 -69 118c-55 0 -69 -51 -74 -118h143zM420 506
h-44l-99 91l-99 -91h-42l107 171h68z" />
    <glyph glyph-name="edieresis" unicode="&#xeb;" horiz-adv-x="515" 
d="M490 252c0 -25 -1 -27 -25 -27h-16h-246c3 -113 44 -171 122 -171c57 0 89 25 124 65l37 -32c-52 -68 -109 -98 -202 -98c-164 0 -254 90 -254 222c0 137 93 232 250 232c142 0 210 -89 210 -188v-3zM346 275c-1 78 -24 118 -69 118c-55 0 -69 -51 -74 -118h143zM433 595
c0 -36 -31 -65 -66 -65s-66 30 -66 65s30 64 66 64c35 0 66 -28 66 -64zM255 595c0 -35 -31 -65 -66 -65s-66 30 -66 65s30 64 66 64c35 0 66 -29 66 -64z" />
    <glyph glyph-name="egrave" unicode="&#xe8;" horiz-adv-x="515" 
d="M490 252c0 -25 -1 -27 -25 -27h-16h-246c3 -113 44 -171 122 -171c57 0 89 25 124 65l37 -32c-52 -68 -109 -98 -202 -98c-164 0 -254 90 -254 222c0 137 93 232 250 232c142 0 210 -89 210 -188v-3zM346 275c-1 78 -24 118 -69 118c-55 0 -69 -51 -74 -118h143zM333 508
h-39l-130 69c-36 19 -56 30 -56 60c0 18 17 38 42 38c16 0 41 -19 66 -45z" />
    <glyph glyph-name="iacute" unicode="&#xed;" horiz-adv-x="312" 
d="M307 -2c-48 2 -96 4 -140 4c-47 0 -99 -2 -151 -4v46c56 2 64 11 64 75v163c0 75 -1 91 -64 95v42c92 1 157 16 214 26h13v-327c0 -64 5 -75 64 -77v-43zM295 637c0 -30 -20 -41 -56 -60l-130 -69h-40l117 122c25 26 51 45 67 45c25 0 42 -19 42 -38z" />
    <glyph glyph-name="icircumflex" unicode="&#xee;" horiz-adv-x="312" 
d="M307 -2c-48 2 -96 4 -140 4c-47 0 -99 -2 -151 -4v46c56 2 64 11 64 75v163c0 75 -1 91 -64 95v42c92 1 157 16 214 26h13v-327c0 -64 5 -75 64 -77v-43zM288 506h-44l-99 91l-99 -91h-42l107 171h68z" />
    <glyph glyph-name="idieresis" unicode="&#xef;" horiz-adv-x="312" 
d="M307 -2c-48 2 -96 4 -140 4c-47 0 -99 -2 -151 -4v46c56 2 64 11 64 75v163c0 75 -1 91 -64 95v42c92 1 157 16 214 26h13v-327c0 -64 5 -75 64 -77v-43zM305 593c0 -36 -31 -65 -66 -65s-66 30 -66 65s30 64 66 64c35 0 66 -28 66 -64zM127 593c0 -35 -31 -65 -66 -65
s-66 30 -66 65s30 64 66 64c35 0 66 -29 66 -64z" />
    <glyph glyph-name="igrave" unicode="&#xec;" horiz-adv-x="312" 
d="M307 -2c-48 2 -96 4 -140 4c-47 0 -99 -2 -151 -4v46c56 2 64 11 64 75v163c0 75 -1 91 -64 95v42c92 1 157 16 214 26h13v-327c0 -64 5 -75 64 -77v-43zM243 508h-39l-130 69c-36 19 -56 30 -56 60c0 18 17 38 42 38c16 0 41 -19 66 -45z" />
    <glyph glyph-name="ntilde" unicode="&#xf1;" horiz-adv-x="602" 
d="M601 -2c-44 2 -89 4 -131 4c-44 0 -92 -2 -140 -4v46c45 3 45 17 45 66v158c0 64 -3 97 -57 97c-13 0 -30 -5 -41 -14c-32 -25 -34 -70 -34 -136v-107c0 -48 0 -61 45 -66v-44c-45 2 -90 4 -131 4c-46 0 -94 -2 -141 -4v46c56 2 64 11 64 75v162c0 75 -5 87 -67 89v43
c57 2 132 14 198 32h13c4 -32 8 -57 9 -81c37 53 96 78 167 78c36 0 74 -12 98 -32c39 -31 39 -72 39 -132v-1v-3v-156c0 -64 6 -74 64 -77v-43zM467 639c-19 -69 -53 -99 -110 -99c-9 0 -28 6 -42 12l-28 11c-14 6 -33 12 -41 12c-30 0 -40 -4 -56 -33l-28 3
c5 22 11 45 35 69c30 29 55 30 81 30h5c8 0 28 -7 42 -13l26 -11c10 -4 26 -11 35 -11c15 0 37 0 53 33z" />
    <glyph glyph-name="oacute" unicode="&#xf3;" horiz-adv-x="569" 
d="M542 213c0 -132 -109 -225 -251 -225c-166 0 -261 103 -261 226c0 141 114 227 258 227c141 0 254 -99 254 -228zM366 214c0 119 -24 177 -80 177c-64 0 -80 -65 -80 -177c0 -120 20 -177 83 -177c56 0 77 63 77 177zM449 637c0 -30 -20 -41 -56 -60l-130 -69h-40
l117 122c25 26 51 45 67 45c25 0 42 -19 42 -38z" />
    <glyph glyph-name="ocircumflex" unicode="&#xf4;" horiz-adv-x="569" 
d="M542 213c0 -132 -109 -225 -251 -225c-166 0 -261 103 -261 226c0 141 114 227 258 227c141 0 254 -99 254 -228zM366 214c0 119 -24 177 -80 177c-64 0 -80 -65 -80 -177c0 -120 20 -177 83 -177c56 0 77 63 77 177zM427 506h-44l-99 91l-99 -91h-42l107 171h68z" />
    <glyph glyph-name="odieresis" unicode="&#xf6;" horiz-adv-x="569" 
d="M542 213c0 -132 -109 -225 -251 -225c-166 0 -261 103 -261 226c0 141 114 227 258 227c141 0 254 -99 254 -228zM366 214c0 119 -24 177 -80 177c-64 0 -80 -65 -80 -177c0 -120 20 -177 83 -177c56 0 77 63 77 177zM440 595c0 -36 -31 -65 -66 -65s-66 30 -66 65
s30 64 66 64c35 0 66 -28 66 -64zM262 595c0 -35 -31 -65 -66 -65s-66 30 -66 65s30 64 66 64c35 0 66 -29 66 -64z" />
    <glyph glyph-name="ograve" unicode="&#xf2;" horiz-adv-x="569" 
d="M542 213c0 -132 -109 -225 -251 -225c-166 0 -261 103 -261 226c0 141 114 227 258 227c141 0 254 -99 254 -228zM366 214c0 119 -24 177 -80 177c-64 0 -80 -65 -80 -177c0 -120 20 -177 83 -177c56 0 77 63 77 177zM346 508h-39l-130 69c-36 19 -56 30 -56 60
c0 18 17 38 42 38c16 0 41 -19 66 -45z" />
    <glyph glyph-name="otilde" unicode="&#xf5;" horiz-adv-x="569" 
d="M542 213c0 -132 -109 -225 -251 -225c-166 0 -261 103 -261 226c0 141 114 227 258 227c141 0 254 -99 254 -228zM366 214c0 119 -24 177 -80 177c-64 0 -80 -65 -80 -177c0 -120 20 -177 83 -177c56 0 77 63 77 177zM451 639c-19 -69 -53 -99 -110 -99
c-9 0 -28 6 -42 12l-28 11c-14 6 -33 12 -41 12c-30 0 -40 -4 -56 -33l-28 3c5 22 11 45 35 69c30 29 55 30 81 30h5c8 0 28 -7 42 -13l26 -11c10 -4 26 -11 35 -11c15 0 37 0 53 33z" />
    <glyph glyph-name="scaron" unicode="&#x161;" horiz-adv-x="436" 
d="M408 135c0 -80 -62 -146 -182 -146c-67 0 -103 10 -145 42l-13 -32h-43v143h43c24 -75 79 -104 132 -104c43 0 67 19 67 50c0 79 -234 36 -234 213c0 82 57 141 171 141c56 0 93 -21 119 -40l14 31h42v-127h-42c-29 60 -71 86 -116 86c-33 0 -56 -14 -56 -39
c0 -54 66 -43 154 -87c58 -29 89 -75 89 -131zM347 677l-107 -171h-68l-109 171h44l98 -91l100 91h42z" />
    <glyph glyph-name="uacute" unicode="&#xfa;" horiz-adv-x="589" 
d="M584 22c-34 -3 -86 -3 -204 -34h-12c-8 42 -9 67 -10 85c-36 -60 -99 -84 -157 -84c-84 0 -136 47 -136 113v182v6c0 75 -1 99 -64 100v42c33 -1 67 -1 100 -1h17h17c31 0 62 0 92 1v-253c0 -68 4 -110 53 -110c48 0 78 52 78 140v93c0 76 -10 84 -63 88v42
c30 -1 62 -1 94 -1h17h17c33 0 66 0 98 1v-276v-26c0 -64 3 -65 63 -70v-38zM446 637c0 -30 -20 -41 -56 -60l-130 -69h-40l117 122c25 26 51 45 67 45c25 0 42 -19 42 -38z" />
    <glyph glyph-name="ucircumflex" unicode="&#xfb;" horiz-adv-x="589" 
d="M584 22c-34 -3 -86 -3 -204 -34h-12c-8 42 -9 67 -10 85c-36 -60 -99 -84 -157 -84c-84 0 -136 47 -136 113v182v6c0 75 -1 99 -64 100v42c33 -1 67 -1 100 -1h17h17c31 0 62 0 92 1v-253c0 -68 4 -110 53 -110c48 0 78 52 78 140v93c0 76 -10 84 -63 88v42
c30 -1 62 -1 94 -1h17h17c33 0 66 0 98 1v-276v-26c0 -64 3 -65 63 -70v-38zM424 506h-44l-99 91l-99 -91h-42l107 171h68z" />
    <glyph glyph-name="udieresis" unicode="&#xfc;" horiz-adv-x="589" 
d="M584 22c-34 -3 -86 -3 -204 -34h-12c-8 42 -9 67 -10 85c-36 -60 -99 -84 -157 -84c-84 0 -136 47 -136 113v182v6c0 75 -1 99 -64 100v42c33 -1 67 -1 100 -1h17h17c31 0 62 0 92 1v-253c0 -68 4 -110 53 -110c48 0 78 52 78 140v93c0 76 -10 84 -63 88v42
c30 -1 62 -1 94 -1h17h17c33 0 66 0 98 1v-276v-26c0 -64 3 -65 63 -70v-38zM434 595c0 -36 -31 -65 -66 -65s-66 30 -66 65s30 64 66 64c35 0 66 -28 66 -64zM256 595c0 -35 -31 -65 -66 -65s-66 30 -66 65s30 64 66 64c35 0 66 -29 66 -64z" />
    <glyph glyph-name="ugrave" unicode="&#xf9;" horiz-adv-x="589" 
d="M584 22c-34 -3 -86 -3 -204 -34h-12c-8 42 -9 67 -10 85c-36 -60 -99 -84 -157 -84c-84 0 -136 47 -136 113v182v6c0 75 -1 99 -64 100v42c33 -1 67 -1 100 -1h17h17c31 0 62 0 92 1v-253c0 -68 4 -110 53 -110c48 0 78 52 78 140v93c0 76 -10 84 -63 88v42
c30 -1 62 -1 94 -1h17h17c33 0 66 0 98 1v-276v-26c0 -64 3 -65 63 -70v-38zM356 508h-39l-130 69c-36 19 -56 30 -56 60c0 18 17 38 42 38c16 0 41 -19 66 -45z" />
    <glyph glyph-name="yacute" unicode="&#xfd;" horiz-adv-x="476" 
d="M493 390c-33 -7 -44 -5 -86 -99l-116 -260c-51 -114 -94 -205 -128 -264c-15 -26 -49 -48 -78 -48c-41 0 -70 28 -70 60c0 41 28 64 80 72c29 4 57 1 91 70c9 18 20 42 32 64l-160 337c-26 55 -30 60 -71 68v42c45 -2 95 -3 144 -3c48 0 95 2 139 3v-42
c-33 0 -50 -4 -50 -28c0 -11 8 -30 15 -45l65 -150l43 98c16 37 27 72 27 94c0 29 -29 30 -53 31v42c30 -2 60 -3 89 -3c30 0 60 2 87 3v-42zM415 637c0 -30 -20 -41 -56 -60l-130 -69h-40l117 122c25 26 51 45 67 45c25 0 42 -19 42 -38z" />
    <glyph glyph-name="ydieresis" unicode="&#xff;" horiz-adv-x="476" 
d="M493 390c-33 -7 -44 -5 -86 -99l-116 -260c-51 -114 -94 -205 -128 -264c-15 -26 -49 -48 -78 -48c-41 0 -70 28 -70 60c0 41 28 64 80 72c29 4 57 1 91 70c9 18 20 42 32 64l-160 337c-26 55 -30 60 -71 68v42c45 -2 95 -3 144 -3c48 0 95 2 139 3v-42
c-33 0 -50 -4 -50 -28c0 -11 8 -30 15 -45l65 -150l43 98c16 37 27 72 27 94c0 29 -29 30 -53 31v42c30 -2 60 -3 89 -3c30 0 60 2 87 3v-42zM419 595c0 -36 -31 -65 -66 -65s-66 30 -66 65s30 64 66 64c35 0 66 -28 66 -64zM241 595c0 -35 -31 -65 -66 -65s-66 30 -66 65
s30 64 66 64c35 0 66 -29 66 -64z" />
    <glyph glyph-name="zcaron" unicode="&#x17e;" horiz-adv-x="460" 
d="M437 155l-9 -157c-56 1 -112 2 -161 2h-248v36l227 348c-95 -2 -145 6 -169 -100h-46l10 148c82 -2 167 -3 249 -3c48 0 99 1 147 2v-35l-229 -349h14c134 0 143 17 171 108h44zM382 677l-107 -171h-68l-109 171h44l98 -91l100 91h42z" />
    <glyph glyph-name="uni00A0" unicode="&#xa0;" horiz-adv-x="260" 
 />
    <glyph glyph-name="uni00AD" unicode="&#xad;" horiz-adv-x="298" 
d="M273 158h-247v128h247v-128z" />
    <glyph glyph-name="uni02C9" unicode="&#x2c9;" horiz-adv-x="486" 
d="M387 557h-286v63h286v-63z" />
    <glyph glyph-name="uni03A9" unicode="&#x3a9;" horiz-adv-x="719" 
d="M677 0h-276v183c63 38 81 153 81 232c0 189 -62 251 -123 251c-91 0 -130 -105 -130 -249c0 -119 33 -218 95 -240v-177h-282v201h38c0 -41 -1 -100 81 -100h102v35c-107 31 -217 114 -217 281c0 164 117 295 313 295c209 0 314 -151 314 -294c0 -134 -89 -245 -211 -277
v-40h96c81 0 80 59 80 100h39v-201z" />
    <glyph glyph-name="uni03BC" unicode="&#x3bc;" horiz-adv-x="589" 
d="M584 22c-34 -3 -86 -3 -204 -34h-12c-8 42 -9 67 -10 85c-36 -59 -97 -83 -154 -84l21 -85c6 -24 13 -51 13 -75c0 -50 -21 -99 -85 -99c-74 0 -88 51 -88 109v458c0 70 -3 92 -64 93v42c38 -1 80 -2 117 -2c36 0 74 1 109 2v-253c0 -68 4 -110 53 -110
c48 0 78 52 78 140v93c0 76 -10 84 -63 88v42c35 -1 74 -2 111 -2s78 1 115 2v-276v-26c0 -64 3 -65 63 -70v-38z" />
    <glyph glyph-name="pi" unicode="&#x3c0;" horiz-adv-x="417" 
d="M406 125c-17 -90 -43 -137 -80 -137c-23 0 -39 13 -49 33c-20 35 -20 92 -20 124v217h-77v-143c0 -89 -10 -161 -33 -199c-13 -21 -29 -32 -50 -32c-19 0 -40 15 -40 46c0 21 10 41 30 50c34 17 36 69 36 158v120h-18c-29 0 -36 -14 -44 -57l-36 11c3 107 44 166 101 166
h260v-120h-72v-151c0 -46 1 -79 6 -99c6 -20 13 -30 23 -30c18 0 25 28 36 62z" />
    <glyph glyph-name="Euro" unicode="&#x20ac;" 
d="M512 1h-53l-11 36c-38 -48 -86 -52 -128 -52c-156 0 -228 133 -246 259h-65v50h60v6v12c0 17 1 34 3 52h-63v50h71c27 128 106 253 249 253c48 0 83 -16 115 -47l8 38h55c1 -99 1 -101 5 -202h-59c-10 62 -39 159 -107 159c-67 0 -93 -92 -101 -201h149v-50h-152v-12v-25
c0 -10 1 -22 1 -33h151v-50h-148c10 -100 39 -207 105 -207c48 0 92 50 102 181h59v-217z" />
    <glyph glyph-name="litre" unicode="&#x2113;" horiz-adv-x="295" 
d="M332 140c-18 -103 -59 -152 -137 -152c-40 0 -70 9 -97 34c-30 29 -45 84 -45 125v25c-8 -12 -31 -36 -43 -49l-24 39c15 15 51 49 67 71v214c0 134 60 265 176 265c67 0 96 -38 96 -102c0 -86 -29 -161 -60 -219c-13 -24 -33 -56 -48 -75v-176c0 -55 10 -76 27 -76
c20 0 33 29 43 89zM280 605c0 27 -6 56 -28 56c-24 0 -35 -41 -35 -127v-135c5 11 17 34 26 55c19 40 37 112 37 151z" />
    <glyph glyph-name="Omega" unicode="&#x2126;" horiz-adv-x="719" 
d="M677 0h-276v183c63 38 81 153 81 232c0 189 -62 251 -123 251c-91 0 -130 -105 -130 -249c0 -119 33 -218 95 -240v-177h-282v201h38c0 -41 -1 -100 81 -100h102v35c-107 31 -217 114 -217 281c0 164 117 295 313 295c209 0 314 -151 314 -294c0 -134 -89 -245 -211 -277
v-40h96c81 0 80 59 80 100h39v-201z" />
    <glyph glyph-name="estimated" unicode="&#x212e;" horiz-adv-x="599" 
d="M561 264h-408v-190c39 -40 88 -59 145 -59c83 0 155 44 201 124l27 -16c-58 -85 -122 -135 -228 -135c-160 0 -258 122 -258 276s97 276 257 276c165 0 257 -120 264 -276zM443 292v160c-41 42 -91 62 -147 62c-57 0 -104 -20 -143 -60v-162h290z" />
    <glyph glyph-name="partialdiff" unicode="&#x2202;" horiz-adv-x="487" 
d="M465 499c0 -73 -28 -198 -54 -261c-81 -198 -149 -250 -235 -250c-95 0 -157 65 -157 195c0 150 97 283 237 283c74 0 107 -48 118 -82h2c2 24 2 48 2 75c0 66 -30 175 -121 175c-51 0 -89 -23 -122 -59l-20 25c37 64 98 128 196 128c114 0 154 -92 154 -229zM368 330
c-8 32 -22 78 -68 78c-66 0 -125 -118 -125 -262c0 -64 28 -97 58 -97c67 0 116 154 135 281z" />
    <glyph glyph-name="Delta" unicode="&#x2206;" horiz-adv-x="538" 
d="M517 0h-496l193 712h116zM336 55l-112 442l-120 -442h232z" />
    <glyph glyph-name="product" unicode="&#x220f;" horiz-adv-x="634" 
d="M606 -131h-265v38h12c35 0 39 47 39 88v648h-152v-648c0 -41 3 -88 37 -88h13v-38h-262v38h12c35 0 38 47 38 88v579c0 43 -4 88 -37 88h-13v38h578v-38h-12c-35 0 -38 -45 -38 -88v-579c0 -42 4 -88 37 -88h13v-38z" />
    <glyph glyph-name="summation" unicode="&#x2211;" horiz-adv-x="453" 
d="M445 81l-15 -212h-423v45l183 338l-176 403v45h404l8 -173h-38c-8 95 -22 115 -68 115h-148l129 -306l-186 -341h220c55 0 63 26 71 90z" />
    <glyph glyph-name="uni2215" unicode="&#x2215;" horiz-adv-x="110" 
d="M291 664l-411 -680h-61l416 680h56z" />
    <glyph glyph-name="uni2219" unicode="&#x2219;" horiz-adv-x="275" 
d="M220 324c0 -45 -38 -81 -82 -81s-81 36 -81 81s37 80 81 80c45 0 82 -35 82 -80z" />
    <glyph glyph-name="radical" unicode="&#x221a;" horiz-adv-x="325" 
d="M319 728l-102 -740h-64l-102 317l-35 -24l-24 35l104 73l89 -297h2l91 636h41z" />
    <glyph glyph-name="infinity" unicode="&#x221e;" horiz-adv-x="623" 
d="M455 139c-70 0 -102 31 -131 81h-2c-33 -48 -77 -81 -150 -81c-77 0 -135 60 -135 138c0 81 55 144 133 144c73 0 107 -45 129 -83h2c35 57 81 83 149 83c76 0 136 -58 136 -140c0 -80 -57 -142 -131 -142zM457 371c-63 0 -85 -59 -109 -108c24 -53 57 -76 106 -76
c55 0 85 47 85 94c0 48 -25 90 -82 90zM172 371c-45 0 -88 -31 -88 -92c0 -51 28 -92 86 -92s84 68 106 110c-21 39 -51 74 -104 74z" />
    <glyph glyph-name="integral" unicode="&#x222b;" horiz-adv-x="250" 
d="M258 687c0 -17 -5 -48 -37 -48c-15 0 -25 4 -37 17c-8 9 -17 11 -25 11c-10 0 -16 -6 -16 -22c0 -34 17 -83 27 -128c13 -52 27 -173 27 -235s-1 -183 -14 -261c-10 -58 -19 -112 -35 -150c-17 -45 -44 -82 -90 -82c-38 0 -67 24 -67 59c0 25 13 49 44 49
c14 0 21 -6 32 -19c6 -7 16 -9 22 -9c10 0 17 7 17 26c0 25 -22 97 -35 162c-14 75 -19 165 -19 222s2 129 10 195c7 65 21 146 34 183c21 60 58 90 94 90c46 0 68 -28 68 -60z" />
    <glyph glyph-name="approxequal" unicode="&#x2248;" horiz-adv-x="552" 
d="M518 471c-20 -88 -65 -162 -141 -162c-40 0 -70 9 -125 37c-31 15 -60 27 -81 27c-39 0 -65 -14 -85 -80l-55 21c23 85 60 161 144 161c41 0 82 -18 112 -32c47 -25 68 -32 95 -32c42 0 62 24 81 80zM518 290c-20 -87 -65 -161 -141 -161c-40 0 -70 9 -125 36
c-31 16 -60 28 -81 28c-39 0 -65 -14 -85 -81l-55 22c23 85 60 161 144 161c41 0 82 -18 112 -32c47 -25 68 -32 95 -32c42 0 62 24 81 80z" />
    <glyph glyph-name="notequal" unicode="&#x2260;" horiz-adv-x="555" 
d="M496 173h-234l-73 -149h-91l73 149h-115v85h156l41 86h-197v85h238l72 146h91l-72 -146h111v-85h-152l-41 -86h193v-85z" />
    <glyph glyph-name="lessequal" unicode="&#x2264;" horiz-adv-x="552" 
d="M496 0h-440v85h440v-85zM496 122l-440 178v91l440 178v-92l-335 -131l335 -131v-93z" />
    <glyph glyph-name="greaterequal" unicode="&#x2265;" horiz-adv-x="552" 
d="M496 0h-440v85h440v-85zM496 299l-440 -177v92l335 130l-335 132v92l440 -177v-92z" />
    <glyph glyph-name="lozenge" unicode="&#x25ca;" horiz-adv-x="294" 
d="M316 349l-148 -361h-43l-147 361l148 363h42zM257 349l-110 279l-110 -279l110 -277z" />
    </font>
</defs>
</svg>
