<?xml version="1.0" standalone="no"?>
<!DOCTYPE svg PUBLIC "-//W3C//DTD SVG 1.1//EN" "http://www.w3.org/Graphics/SVG/1.1/DTD/svg11.dtd" >
<svg xmlns="http://www.w3.org/2000/svg" xmlns:xlink="http://www.w3.org/1999/xlink" version="1.1">
<metadata>
Created by FontForge 20161003 at Wed May 16 12:26:47 2018
 By www-data
Copyright 1985, 1987, 1990, 1994, 2001, 2002 Adobe Systems Incorporated. All Rights Reserved. ITC New Baskerville is a trademark of International Typeface Corporation.
</metadata>
<defs>
<font id="NewBaskervilleStd-Bold" horiz-adv-x="611" >
  <font-face 
    font-family="ITC New Baskerville Std"
    font-weight="700"
    font-stretch="normal"
    units-per-em="1000"
    panose-1="2 2 8 5 6 5 6 2 3 4"
    ascent="682"
    descent="-318"
    x-height="432"
    cap-height="660"
    bbox="-196 -270 1189 908"
    underline-thickness="50"
    underline-position="-100"
    stemh="40"
    stemv="131"
    unicode-range="U+0020-FB02"
  />
<missing-glyph horiz-adv-x="500" 
d="M0 0v700h500v-700h-500zM250 395l170 255h-340zM280 350l170 -255v510zM80 50h340l-170 255zM50 605v-510l170 255z" />
    <glyph glyph-name="f_i" unicode="fi" horiz-adv-x="620" 
d="M90 413v91c0 148 121 172 245 172c51 0 182 3 182 -75c0 -33 -19 -56 -53 -56c-31 0 -48 22 -58 48c-18 36 -37 43 -84 43c-81 0 -101 -33 -101 -110v-113h108c67 0 132 10 201 27v-317c0 -17 0 -62 12 -75c11 -12 38 -17 53 -18v-32c-42 1 -83 3 -125 4
c-45 -1 -89 -3 -134 -4v32c15 1 43 5 53 18s10 58 10 75v194c0 44 -16 56 -43 56h-135v-250c0 -68 -2 -90 72 -93v-32c-56 1 -113 3 -169 4c-35 -1 -71 -3 -106 -4v32c74 3 72 25 72 93v250h-67v40h67z" />
    <glyph glyph-name="f_l" unicode="fl" horiz-adv-x="580" 
d="M70 413v48c0 44 7 96 38 131c42 47 119 70 181 70c26 0 53 -4 79 -8l142 22v-553c0 -76 -1 -89 71 -93v-32c-45 1 -89 3 -134 4c-45 -1 -90 -3 -135 -4v32c72 3 67 28 67 93v443c-25 33 -51 56 -94 56c-90 0 -84 -97 -84 -162v-44h110v-43h-110v-250c0 -65 -5 -90 62 -93
v-32c-45 1 -87 3 -130 4c-45 -1 -90 -3 -135 -4v32c74 3 72 25 72 93v250h-67v40h67z" />
    <glyph glyph-name=".notdef" horiz-adv-x="500" 
d="M0 0v700h500v-700h-500zM250 395l170 255h-340zM280 350l170 -255v510zM80 50h340l-170 255zM50 605v-510l170 255z" />
    <glyph glyph-name="space" unicode=" " horiz-adv-x="260" 
 />
    <glyph glyph-name="exclam" unicode="!" horiz-adv-x="360" 
d="M201 211h-40c0 79 -5 146 -25 223l-19 75c-7 24 -13 51 -13 75c0 44 29 92 76 92c49 0 77 -48 77 -92c0 -24 -5 -51 -12 -75l-19 -75c-20 -77 -25 -144 -25 -223zM180 -7c-45 0 -81 37 -81 82s36 80 81 80c44 0 81 -34 81 -79s-35 -83 -81 -83z" />
    <glyph glyph-name="quotedbl" unicode="&#x22;" horiz-adv-x="555" 
d="M189 357h-46l-44 239c-7 36 27 80 67 80s74 -44 67 -80zM412 357h-46l-44 239c-7 36 27 80 67 80s74 -44 67 -80z" />
    <glyph glyph-name="numbersign" unicode="#" horiz-adv-x="520" 
d="M191 658h73l-32 -166h126l32 166h73l-32 -166h93v-74h-107l-29 -145h95v-74h-108l-38 -199h-71l38 199h-128l-38 -199h-73l38 199h-107v74h121l29 145h-92v74h105zM345 418h-127l-28 -145h127z" />
    <glyph glyph-name="dollar" unicode="$" horiz-adv-x="520" 
d="M237 431v189c-49 -3 -91 -39 -91 -90c0 -54 48 -81 91 -99zM287 250v-223c52 4 97 48 97 102c0 68 -46 92 -97 121zM237 660v74h50v-74c64 2 186 -40 186 -119c0 -28 -21 -54 -50 -54c-35 0 -49 27 -56 56c-12 47 -23 76 -80 77v-211c96 -52 197 -99 197 -226
c0 -126 -83 -182 -197 -196v-139h-50v139c-66 5 -201 26 -201 118c0 30 22 56 53 56c41 0 54 -34 62 -68c5 -22 7 -40 29 -53c18 -11 38 -13 57 -13v245l-70 39c-68 38 -116 82 -116 166c0 110 83 177 186 183z" />
    <glyph glyph-name="percent" unicode="%" horiz-adv-x="860" 
d="M599 -23c-88 0 -147 69 -147 154c0 113 88 224 208 224c83 0 132 -52 132 -133c0 -112 -67 -245 -193 -245zM625 17c83 0 127 142 127 208c0 36 -13 90 -58 90c-82 0 -124 -163 -124 -225c0 -32 17 -73 55 -73zM688 750l-480 -795h-53l419 691l-2 2
c-30 -15 -60 -25 -95 -25c-26 0 -52 6 -76 13c5 -17 9 -35 9 -54c0 -110 -68 -239 -191 -239c-84 0 -150 68 -150 150c0 106 84 230 198 230c33 0 52 -4 79 -21l48 -30c27 -16 43 -21 75 -21c75 0 136 43 182 99h37zM246 383c78 0 124 138 124 200c0 35 -11 100 -57 100
c-82 0 -126 -159 -126 -224c0 -35 19 -76 59 -76z" />
    <glyph glyph-name="ampersand" unicode="&#x26;" horiz-adv-x="800" 
d="M322 428l12 -17c36 36 55 82 55 133c0 41 -23 86 -69 86c-37 0 -61 -34 -61 -68c0 -50 34 -95 63 -134zM359 378l127 -154l62 92c35 53 83 99 150 99c49 0 89 -35 89 -85c0 -40 -31 -79 -74 -79c-36 0 -64 22 -67 59c0 13 -2 22 -17 22c-17 0 -30 -22 -39 -35l-71 -107
c47 -52 104 -111 166 -111c38 0 56 24 83 48l30 -28l-1 -2c-54 -61 -94 -110 -183 -110s-134 40 -193 97c-60 -59 -133 -97 -217 -97c-76 0 -158 52 -158 135c0 101 91 167 168 213c-32 53 -58 106 -58 169c0 99 74 172 173 172c73 0 147 -48 147 -128s-54 -130 -117 -170z
M388 115l-150 184c-31 -30 -62 -61 -62 -107c0 -61 52 -124 115 -124c39 0 70 21 97 47z" />
    <glyph glyph-name="quoteright" unicode="&#x2019;" horiz-adv-x="260" 
d="M61 365l-14 28c57 36 114 80 113 154c-14 -11 -30 -18 -49 -18c-43 0 -70 28 -70 71s32 76 76 76c66 0 102 -55 102 -116c0 -108 -77 -147 -158 -195z" />
    <glyph glyph-name="parenleft" unicode="(" horiz-adv-x="380" 
d="M342 -175l-22 -18l-5 5c-130 132 -218 240 -218 435c0 181 90 306 213 429l23 -21c-100 -119 -127 -253 -127 -404c0 -156 33 -304 136 -426z" />
    <glyph glyph-name="parenright" unicode=")" horiz-adv-x="380" 
d="M38 657l22 19l5 -5c131 -132 219 -240 219 -436c0 -180 -91 -305 -213 -428l-24 20c100 119 128 253 128 405c0 156 -34 304 -137 425z" />
    <glyph glyph-name="asterisk" unicode="*" horiz-adv-x="520" 
d="M172 555c12 -18 48 -70 73 -70c6 0 6 8 6 12c0 59 -39 87 -39 125c0 27 19 54 47 54c29 0 47 -27 47 -53c0 -39 -39 -67 -39 -126c0 -4 1 -12 6 -12c23 0 58 47 69 64c15 22 29 44 59 44c24 0 49 -23 49 -47c0 -15 -9 -30 -21 -39c-18 -12 -36 -12 -57 -13
c-23 -1 -37 -4 -59 -11c-5 -2 -30 -9 -30 -17s22 -16 28 -18c27 -10 37 -11 66 -12c30 -2 72 -13 72 -51c0 -28 -21 -48 -48 -48c-28 0 -45 25 -59 45c-10 16 -15 24 -29 37c-7 6 -29 26 -39 26c-7 0 -6 -13 -6 -17c0 -62 37 -83 37 -123c0 -28 -17 -50 -46 -50
s-46 22 -46 50c0 41 37 59 37 125c0 4 1 15 -6 15c-8 0 -27 -15 -33 -21c-17 -15 -23 -23 -35 -42c-14 -20 -30 -45 -58 -45c-26 0 -49 20 -49 46c0 40 40 51 73 53c27 1 33 2 59 10c7 2 34 11 34 20c0 7 -20 14 -24 15c-26 8 -38 12 -65 13c-18 1 -36 0 -52 10
c-15 9 -25 24 -25 42c0 24 24 47 48 47c27 0 41 -18 55 -38z" />
    <glyph glyph-name="plus" unicode="+" horiz-adv-x="520" 
d="M25 198v74h198v198h74v-198h198v-74h-198v-198h-74v198h-198z" />
    <glyph glyph-name="comma" unicode="," horiz-adv-x="280" 
d="M74 -171l-15 28c62 42 115 74 119 156c-15 -9 -27 -20 -45 -20c-42 0 -74 40 -74 81c0 49 31 81 81 81c67 0 95 -63 95 -121c0 -98 -76 -169 -161 -205z" />
    <glyph glyph-name="hyphen" unicode="-" horiz-adv-x="240" 
d="M236 171h-232v90h232v-90z" />
    <glyph glyph-name="period" unicode="." horiz-adv-x="280" 
d="M140 -7c-45 0 -81 37 -81 82s36 80 81 80c44 0 81 -34 81 -79s-35 -83 -81 -83z" />
    <glyph glyph-name="slash" unicode="/" horiz-adv-x="560" 
d="M517 676l-421 -811h-53l421 811h53z" />
    <glyph glyph-name="zero" unicode="0" horiz-adv-x="520" 
d="M260 -13c-160 0 -220 212 -220 342c0 129 57 347 220 347c164 0 220 -218 220 -347c0 -131 -59 -342 -220 -342zM335 330c0 80 6 306 -75 306s-75 -226 -75 -306c0 -90 -8 -303 75 -303s75 213 75 303z" />
    <glyph glyph-name="one" unicode="1" horiz-adv-x="520" 
d="M196 139v372c0 22 -3 44 -10 53c-16 20 -63 20 -85 20v36c74 8 138 19 204 56h22v-530c0 -23 0 -73 15 -92c15 -21 57 -19 79 -20v-36c-53 1 -111 3 -169 4c-50 -1 -99 -3 -149 -4v36c19 0 62 0 76 16c17 18 17 65 17 89z" />
    <glyph glyph-name="two" unicode="2" horiz-adv-x="520" 
d="M342 269l-98 -78c-25 -22 -55 -43 -72 -69h198c36 1 73 3 109 4l-37 -184h-35c1 12 1 24 2 36c2 22 -16 22 -33 22h-333c36 70 72 122 124 184l48 58c65 77 114 146 114 251c0 61 -22 143 -96 143c-51 0 -82 -48 -82 -97c0 -32 19 -71 55 -71c20 0 31 12 40 12
c6 0 9 -9 9 -15c0 -43 -50 -77 -90 -77c-66 0 -109 53 -109 117c0 114 111 171 211 171c114 0 215 -68 215 -192c0 -103 -65 -157 -140 -215z" />
    <glyph glyph-name="three" unicode="3" horiz-adv-x="520" 
d="M258 333c-26 0 -41 -16 -54 -35c-10 -14 -20 -30 -39 -30c-16 0 -32 14 -32 31c0 22 23 36 40 45c74 41 134 93 134 185c0 48 -22 107 -78 107c-39 0 -77 -38 -77 -80c0 -21 15 -43 37 -43c13 0 28 10 32 10c8 0 10 -12 10 -18c0 -41 -45 -68 -82 -68
c-48 0 -83 34 -83 82c0 103 119 157 207 157c79 0 165 -39 165 -131c0 -96 -89 -140 -164 -171l2 -2c13 1 26 1 39 2c89 0 166 -64 166 -155c0 -143 -138 -232 -271 -232c-60 0 -171 26 -171 103c0 31 25 56 55 56c38 0 53 -26 68 -57c16 -35 25 -62 69 -62
c81 0 97 110 97 171c0 46 -7 135 -70 135z" />
    <glyph glyph-name="four" unicode="4" horiz-adv-x="520" 
d="M497 192h-102v-46c0 -23 0 -73 18 -92c17 -17 57 -18 79 -20v-36c-54 1 -108 3 -162 4c-53 -1 -107 -3 -160 -4v36c18 1 61 2 75 16c19 18 19 65 19 89v53h-249v56l312 412h68v-412h102v-56zM69 248h195v254h-2z" />
    <glyph glyph-name="five" unicode="5" horiz-adv-x="520" 
d="M148 519l-6 -157c43 35 87 53 144 53c113 0 195 -80 195 -192c0 -152 -138 -236 -280 -236c-59 0 -167 19 -167 95c0 29 26 56 55 56c83 0 54 -111 138 -111c86 0 101 113 101 177c0 68 -17 146 -100 146c-29 0 -79 -20 -79 -56c0 -9 3 -18 3 -27c0 -17 -11 -32 -28 -32
c-27 0 -33 14 -33 39c1 23 3 47 4 70l10 324h31c40 -32 105 -43 154 -43c46 0 97 11 124 51h31c-19 -112 -111 -165 -219 -165c-27 0 -53 3 -78 8z" />
    <glyph glyph-name="six" unicode="6" horiz-adv-x="520" 
d="M183 387c29 29 72 42 111 42c117 0 188 -93 188 -206c0 -128 -92 -236 -223 -236c-174 0 -221 176 -221 320c0 177 66 369 271 369c56 0 141 -24 141 -95c0 -29 -27 -53 -55 -53c-30 0 -51 23 -62 48c-14 29 -21 60 -59 60c-89 0 -87 -185 -91 -249zM183 322v-106
c0 -57 0 -189 77 -189s77 118 77 172c0 55 2 174 -75 174c-34 0 -66 -20 -79 -51z" />
    <glyph glyph-name="seven" unicode="7" horiz-adv-x="520" 
d="M480 660v-38l-97 -228c-35 -100 -55 -188 -69 -293c-7 -53 -21 -114 -88 -114c-45 0 -70 31 -70 74c0 60 71 185 102 240l136 237h-184c-99 0 -105 -1 -132 -101h-38l56 285h37v-2c-2 -10 -6 -25 -6 -34c0 -24 19 -24 37 -26h316z" />
    <glyph glyph-name="eight" unicode="8" horiz-adv-x="520" 
d="M296 416l28 -13c32 27 44 70 44 109c0 72 -41 124 -113 124c-50 0 -99 -35 -99 -91c0 -75 84 -103 140 -129zM231 288l-24 10c-45 -36 -69 -86 -69 -143c0 -77 54 -128 129 -128c63 0 120 42 120 110c0 92 -86 122 -156 151zM360 383c76 -40 127 -102 127 -193
c0 -131 -112 -203 -233 -203c-104 0 -221 54 -221 175c0 78 70 130 136 156c-66 38 -112 95 -113 176c1 117 105 182 212 182c89 0 200 -48 200 -152c0 -70 -51 -112 -108 -141z" />
    <glyph glyph-name="nine" unicode="9" horiz-adv-x="520" 
d="M335 341l3 106c0 57 0 189 -77 189c-78 0 -78 -117 -78 -172s-2 -174 75 -174c34 0 66 20 77 51zM211 -13c-57 0 -140 24 -140 95c0 29 26 54 55 54s50 -24 61 -49c14 -29 21 -60 59 -60c89 0 89 185 92 249c-30 -29 -72 -42 -112 -42c-116 0 -188 94 -188 206
c0 128 92 236 223 236c174 0 221 -177 221 -320c0 -177 -66 -369 -271 -369z" />
    <glyph glyph-name="colon" unicode=":" horiz-adv-x="280" 
d="M140 273c-45 0 -81 37 -81 82s36 80 81 80c44 0 81 -34 81 -79s-35 -83 -81 -83zM140 -7c-45 0 -81 37 -81 82s36 80 81 80c44 0 81 -34 81 -79s-35 -83 -81 -83z" />
    <glyph glyph-name="semicolon" unicode=";" horiz-adv-x="280" 
d="M74 -171l-18 27l3 1c62 42 115 74 119 156c-15 -9 -27 -20 -45 -20c-42 0 -74 40 -74 81c0 49 31 81 81 81c67 0 95 -63 95 -121c0 -98 -76 -169 -161 -205zM140 273c-45 0 -81 37 -81 82s36 80 81 80c44 0 81 -34 81 -79s-35 -83 -81 -83z" />
    <glyph glyph-name="less" unicode="&#x3c;" horiz-adv-x="520" 
d="M23 190v90l475 190v-80l-386 -155l386 -155v-80z" />
    <glyph glyph-name="equal" unicode="=" horiz-adv-x="520" 
d="M25 377h470v-74h-470v74zM25 167h470v-74h-470v74z" />
    <glyph glyph-name="greater" unicode="&#x3e;" horiz-adv-x="520" 
d="M498 280v-90l-475 -190v80l386 155l-386 155v80z" />
    <glyph glyph-name="question" unicode="?" horiz-adv-x="400" 
d="M109 203v200c19 -1 41 -3 63 -3c54 0 129 9 129 79c0 49 -34 96 -86 96c-36 0 -69 -15 -105 -15c-32 0 -70 17 -70 54c0 41 45 54 79 54c125 0 241 -115 241 -240c0 -100 -81 -144 -171 -144c-13 0 -27 1 -40 1v-82h-40zM134 -7c-45 0 -81 37 -81 82s36 80 81 80
c44 0 81 -34 81 -79s-35 -83 -81 -83z" />
    <glyph glyph-name="at" unicode="@" horiz-adv-x="930" 
d="M545 207l40 176c2 28 -18 53 -47 53c-72 -7 -122 -187 -122 -250c0 -38 -2 -94 47 -94c49 2 73 76 82 115zM609 432l10 44h113l-77 -330c-4 -19 -12 -53 27 -61c65 -13 163 124 161 256c0 154 -106 293 -266 295c-215 0 -387 -183 -398 -394c-9 -207 113 -353 327 -349
c65 1 128 13 185 34l15 -34c-69 -25 -137 -40 -206 -40c-239 0 -452 146 -452 399c6 270 279 452 533 424c173 -20 302 -152 302 -331c0 -113 -80 -297 -212 -300c-82 -3 -100 36 -119 87c-34 -50 -58 -90 -144 -90c-99 0 -140 79 -137 167c0 125 116 273 247 277
c51 0 65 -16 91 -54z" />
    <glyph glyph-name="A" unicode="A" horiz-adv-x="640" 
d="M159 202l-12 -29c-9 -25 -24 -57 -24 -84c0 -49 46 -52 83 -55v-36c-42 1 -84 3 -126 4c-38 -1 -76 -3 -114 -4v36c82 1 111 97 137 159l198 476h48l206 -514c11 -27 31 -77 51 -97c18 -16 44 -21 68 -24v-36c-60 1 -120 3 -180 4c-52 -1 -105 -3 -157 -4v36
c30 4 83 2 83 45c0 16 -13 51 -19 66l-21 57h-221zM178 252h182l-88 230z" />
    <glyph glyph-name="B" unicode="B" horiz-adv-x="660" 
d="M262 322v-145c0 -66 0 -133 84 -133c79 0 107 62 107 133c0 101 -47 146 -148 146c-14 0 -29 -1 -43 -1zM15 -2v36c96 -3 94 44 94 126v338c0 82 2 129 -94 126v36c49 -1 95 -3 141 -4c54 1 108 3 162 4c107 -2 266 -21 266 -160c0 -98 -103 -137 -184 -148v-2
c101 -10 226 -49 226 -172c0 -166 -199 -182 -323 -180c-49 1 -99 3 -148 4c-46 -1 -91 -3 -140 -4zM262 594v-225h20c94 0 136 27 136 122c0 81 -35 123 -116 123c-16 1 -40 -1 -40 -20z" />
    <glyph glyph-name="C" unicode="C" horiz-adv-x="700" 
d="M622 3l-19 58c-58 -54 -139 -74 -217 -74c-198 0 -337 128 -337 329c0 205 146 353 350 353c72 0 132 -18 189 -63l15 57h43l9 -210h-44c-21 96 -86 166 -189 166c-155 0 -200 -165 -200 -292c0 -137 47 -288 206 -290c115 -2 176 86 194 191h40v-225h-40z" />
    <glyph glyph-name="D" unicode="D" horiz-adv-x="740" 
d="M262 581v-362c0 -30 0 -100 10 -126c13 -35 45 -49 81 -49c155 0 170 154 170 275c0 67 -9 148 -40 208c-36 68 -105 87 -177 87c-8 0 -33 -2 -40 -9c-4 -4 -4 -18 -4 -24zM15 -2v36c96 -3 94 44 94 126v338c0 82 2 129 -94 126v36h303c98 0 189 -19 265 -84
c79 -69 113 -160 113 -263c0 -92 -29 -175 -98 -238c-71 -64 -168 -79 -261 -77c-53 1 -106 3 -159 4c-54 -1 -109 -3 -163 -4z" />
    <glyph glyph-name="E" unicode="E" horiz-adv-x="620" 
d="M15 -2v36c96 -3 94 44 94 126v338c0 82 2 129 -94 126v36c57 -1 113 -3 170 -4c122 1 245 3 367 4l8 -176h-43c-17 99 -74 130 -170 130c-12 0 -76 0 -82 -11c-3 -5 -3 -49 -3 -57v-185c81 0 133 15 137 108h40c-1 -46 -3 -92 -4 -138c1 -41 3 -83 4 -124h-40
c-19 92 -45 108 -137 108v-117c0 -94 -3 -154 115 -154c113 0 157 34 182 147h40c-1 -38 -3 -75 -4 -113c1 -27 3 -53 4 -80c-138 1 -276 3 -414 4c-57 -1 -113 -3 -170 -4z" />
    <glyph glyph-name="F" unicode="F" horiz-adv-x="560" 
d="M261 544v-190h38c54 0 88 30 102 110h40c-1 -45 -3 -89 -4 -134c1 -43 3 -86 4 -129h-40c-6 62 -34 105 -98 107h-41v-148c0 -89 -1 -129 100 -126v-36c-59 1 -118 3 -177 4c-57 -1 -113 -3 -170 -4v36c96 -3 94 44 94 126v338c0 82 2 129 -94 126v36
c57 -1 113 -3 170 -4c124 1 247 3 371 4l9 -172h-40c-25 115 -100 126 -201 126c-70 0 -63 -2 -63 -70z" />
    <glyph glyph-name="G" unicode="G" horiz-adv-x="780" 
d="M586 607l16 56h42l9 -208h-44c-24 93 -84 164 -187 164c-160 0 -200 -170 -200 -299c0 -121 40 -283 191 -283c88 0 131 34 131 122c0 66 -14 79 -82 86v36h298v-36c-67 -3 -63 -31 -63 -86v-104c-68 -9 -87 -12 -150 -34c-57 -21 -98 -34 -160 -34
c-201 0 -338 127 -338 330c0 198 137 352 340 352c71 0 141 -16 197 -62z" />
    <glyph glyph-name="H" unicode="H" horiz-adv-x="820" 
d="M262 309v-149c0 -82 -2 -129 94 -126v-36c-59 1 -118 3 -177 4c-55 -1 -109 -3 -164 -4v36c96 -3 94 44 94 126v338c0 82 2 129 -94 126v36c54 -1 109 -3 163 -4c59 1 119 3 178 4v-36c-96 3 -94 -44 -94 -126v-139h296v139c0 82 1 129 -95 126v36c53 -1 105 -3 158 -4
c61 1 123 3 184 4v-36c-96 3 -94 -44 -94 -126v-338c0 -82 -2 -129 94 -126v-36c-58 1 -117 3 -175 4c-56 -1 -111 -3 -167 -4v36c96 -3 95 44 95 126v149h-296z" />
    <glyph glyph-name="I" unicode="I" horiz-adv-x="380" 
d="M114 160v336c0 83 3 130 -94 128v36c55 -1 109 -3 164 -4c59 1 119 3 177 4v-36c-97 1 -94 -46 -94 -128v-340c0 -82 -1 -124 94 -122v-36c-58 1 -117 3 -176 4c-55 -1 -110 -3 -165 -4v36c97 -3 94 44 94 126z" />
    <glyph glyph-name="J" unicode="J" horiz-adv-x="380" 
d="M20 624v36c50 -1 101 -3 151 -4c63 1 127 3 190 4v-36c-97 3 -94 -46 -94 -128v-465c0 -68 2 -148 -36 -206c-41 -62 -113 -87 -184 -87c-61 0 -163 19 -163 98c0 31 26 56 57 56c81 0 53 -104 112 -104c45 0 53 43 54 78c2 58 5 117 7 175v455c0 83 3 130 -94 128z" />
    <glyph glyph-name="K" unicode="K" horiz-adv-x="680" 
d="M323 297l-61 -64v-88c0 -84 -2 -105 90 -111v-36c-56 1 -114 3 -171 4c-55 -1 -110 -3 -166 -4v36c97 -1 94 44 94 126v336c0 83 3 130 -94 128v36c49 -1 98 -3 146 -4c62 1 123 3 185 4v-36c-19 0 -55 -5 -68 -21c-16 -19 -16 -66 -16 -91v-215l68 75
c31 34 149 171 149 211c0 36 -46 38 -71 41v36c40 -1 81 -3 121 -4c44 1 87 3 131 4v-36c-40 -7 -59 -9 -90 -37c-25 -22 -46 -50 -67 -76l-87 -107l227 -290c23 -29 55 -79 96 -80v-36c-57 1 -115 3 -172 4c-50 -1 -101 -3 -151 -4v36c18 1 68 1 68 29c0 25 -34 68 -49 87z
" />
    <glyph glyph-name="L" unicode="L" horiz-adv-x="620" 
d="M15 -2v36c96 -3 94 44 94 126v338c0 82 2 129 -94 126v36c53 -1 105 -3 158 -4c61 1 123 3 184 4v-36c-96 3 -95 -44 -95 -126v-291c0 -101 -2 -163 120 -163c113 0 162 32 190 145h43l-7 -191c-181 1 -363 3 -423 4c-57 -1 -113 -3 -170 -4z" />
    <glyph glyph-name="M" unicode="M" horiz-adv-x="880" 
d="M369 -2l-209 507h-2v-307c0 -32 0 -96 15 -124c16 -30 50 -37 80 -40v-36c-42 1 -83 3 -125 4c-38 -1 -75 -3 -113 -4v36c38 6 76 10 86 52c7 28 7 71 7 96v398c-18 35 -57 41 -93 44v36c36 -1 73 -3 109 -4c42 1 83 3 125 4l196 -467l180 467c38 -1 76 -3 114 -4
c40 1 80 3 126 4v-36c-97 3 -93 -46 -94 -128v-314c0 -25 0 -68 7 -96c10 -42 48 -46 86 -52v-36c-60 1 -119 3 -179 4c-52 -1 -105 -3 -160 -4v36c38 6 76 10 86 52c7 28 7 71 7 96v316h-2l-199 -500h-48z" />
    <glyph glyph-name="N" unicode="N" horiz-adv-x="780" 
d="M618 -16l-454 517v-309c0 -76 0 -154 96 -158v-36c-40 1 -81 3 -121 4c-38 -1 -76 -3 -114 -4v36c83 8 89 49 89 120v402c-32 45 -45 63 -100 68v36c32 -1 63 -3 95 -4c38 1 75 3 113 4l395 -455v266c0 76 0 149 -95 153v36c38 -1 76 -3 114 -4c40 1 80 3 120 4v-36
c-28 -5 -60 -9 -74 -36c-15 -29 -15 -90 -15 -123v-481h-49z" />
    <glyph glyph-name="O" unicode="O" horiz-adv-x="840" 
d="M418 -13c-201 0 -369 130 -369 341c0 214 171 341 372 341c202 0 371 -128 371 -341s-172 -341 -374 -341zM418 623c-160 0 -196 -161 -196 -289s35 -301 196 -301c164 0 201 151 201 289c0 134 -35 301 -201 301z" />
    <glyph glyph-name="P" unicode="P" horiz-adv-x="620" 
d="M109 160v336c0 82 2 131 -94 128v36c58 0 112 -2 166 -4c52 1 105 3 157 4c119 -2 265 -32 265 -181c0 -137 -140 -178 -251 -178h-90v-141c0 -89 -1 -129 101 -126v-36c-61 1 -122 3 -183 4c-54 -1 -107 -3 -165 -4v36c96 -3 94 44 94 126zM262 347h21
c99 0 154 27 154 135c0 82 -40 132 -124 132c-22 0 -40 -2 -45 -6s-6 -15 -6 -43v-218z" />
    <glyph glyph-name="Q" unicode="Q" horiz-adv-x="840" 
d="M418 623c-154 0 -196 -160 -196 -284c0 -128 39 -312 200 -312c165 0 198 159 198 292c0 130 -40 304 -202 304zM317 -48l79 33v2c-190 7 -347 133 -347 333c0 212 169 349 373 349c201 0 371 -134 371 -344c0 -192 -151 -293 -314 -351l-135 -47l2 -2c15 0 30 1 45 1
c74 2 130 -14 178 -31s89 -34 132 -34c37 0 60 16 76 31c16 16 25 31 34 31s14 -9 14 -17c0 -86 -75 -169 -162 -169c-76 0 -131 38 -182 76c-52 38 -101 76 -165 76c-71 0 -115 -44 -143 -44c-13 0 -24 12 -24 25c0 23 28 32 46 38c41 15 81 29 122 44z" />
    <glyph glyph-name="R" unicode="R" horiz-adv-x="700" 
d="M262 339h38c96 0 145 37 145 136c0 91 -38 139 -132 139c-11 0 -45 1 -48 -11c-3 -11 -3 -79 -3 -93v-171zM454 328l137 -171c21 -29 43 -62 67 -88c21 -22 36 -29 64 -35v-36c-33 1 -66 3 -99 4c-33 -1 -66 -3 -99 -4l-142 201c-33 46 -76 96 -104 94
c-5 0 -11 -1 -16 -1v-132c0 -82 -1 -129 95 -126v-36c-57 1 -115 3 -172 4c-57 -1 -113 -3 -170 -4v36c96 -3 94 44 94 126v338c0 82 2 129 -94 126v36c57 -1 113 -3 170 -4c54 1 108 3 162 4c48 -2 121 -5 165 -24c65 -26 99 -80 99 -150c0 -89 -75 -145 -157 -158z" />
    <glyph glyph-name="S" unicode="S" horiz-adv-x="540" 
d="M94 55l-14 -55h-44v208h40c28 -91 74 -175 185 -175c58 0 114 38 114 100c0 93 -96 118 -166 148c-90 39 -163 89 -163 199c0 123 94 189 210 189c54 0 110 -12 150 -49l13 39h43l6 -180h-43c-18 77 -75 144 -162 144c-49 0 -99 -28 -99 -82c0 -75 76 -96 133 -122
c107 -46 208 -93 208 -227c0 -135 -114 -205 -237 -205c-64 0 -129 22 -174 68z" />
    <glyph glyph-name="T" unicode="T" horiz-adv-x="680" 
d="M662 660l6 -190h-43c-10 84 -59 140 -146 140c-32 0 -46 3 -55 -7c-10 -13 -5 -33 -5 -66v-377c0 -89 -2 -129 100 -126v-36c-59 1 -118 3 -177 4c-59 -1 -118 -3 -177 -4v36c102 -3 101 37 101 126v377c0 36 -1 56 -6 62c-7 8 -26 9 -54 11c-98 8 -135 -53 -151 -140
h-43l6 190h644z" />
    <glyph glyph-name="U" unicode="U" horiz-adv-x="780" 
d="M15 624v36c52 -1 105 -3 157 -4c62 1 124 3 186 4v-36c-97 3 -96 -46 -96 -128v-241c0 -127 30 -203 173 -203c125 0 191 64 191 185v208c0 36 1 107 -18 138c-17 28 -47 38 -77 41v36c38 -1 76 -3 114 -4c40 1 81 3 121 4v-36c-30 -5 -61 -12 -76 -41
c-18 -35 -14 -99 -14 -138v-187c0 -181 -94 -271 -277 -271c-175 0 -290 61 -290 269v240c0 83 3 128 -94 128z" />
    <glyph glyph-name="V" unicode="V" horiz-adv-x="660" 
d="M349 -13h-48l-210 530c-33 84 -32 93 -114 107v36c55 -1 109 -3 164 -4c60 1 120 3 180 4v-36c-35 -1 -84 -1 -84 -48c0 -16 13 -51 18 -67l124 -333l95 240c16 39 44 112 44 153c0 49 -45 52 -83 55v36c40 -1 80 -3 120 -4c43 1 86 3 129 4v-36
c-74 -4 -90 -47 -115 -108z" />
    <glyph glyph-name="W" unicode="W" horiz-adv-x="880" 
d="M595 -13l-146 431h-2l-148 -431h-49l-189 548c-22 61 -23 78 -92 89v36c50 -1 101 -3 151 -4c59 1 117 3 176 4v-36c-33 -6 -85 -2 -85 -49c0 -25 21 -86 29 -111l84 -266h2l143 462h45l156 -455h2l51 166c13 42 45 147 45 185c0 56 -37 61 -81 68v36c34 -1 68 -3 102 -4
c39 1 77 3 116 4v-36c-51 -6 -63 -31 -78 -78l-184 -559h-48z" />
    <glyph glyph-name="X" unicode="X" horiz-adv-x="680" 
d="M398 367l203 -265c31 -41 46 -67 101 -68v-36c-62 1 -124 3 -186 4c-54 -1 -109 -3 -163 -4v36c9 0 54 5 62 8c13 4 20 14 20 27c0 19 -33 58 -45 72l-89 114l-68 -81c-17 -22 -57 -69 -57 -97c0 -38 45 -39 73 -43v-36c-46 1 -91 3 -137 4c-40 -1 -80 -3 -120 -4v36
c57 3 96 46 130 87l149 173l-174 231c-15 21 -36 50 -54 67c-20 19 -38 25 -65 32v36c55 -1 109 -3 164 -4c61 1 121 3 182 4v-36c-24 -1 -74 -1 -74 -37c0 -25 42 -78 58 -100l63 -82l76 98c14 20 38 52 38 78c0 37 -50 41 -76 43v36c40 -1 81 -3 121 -4c45 1 89 3 134 4
v-36c-67 -6 -100 -50 -140 -100z" />
    <glyph glyph-name="Y" unicode="Y" horiz-adv-x="620" 
d="M389 268v-108c0 -86 -2 -129 98 -126v-36c-63 1 -125 3 -188 4c-53 -1 -107 -3 -160 -4v36c99 -1 95 40 97 126v88l-173 308c-27 45 -32 56 -84 68v36c50 -1 101 -3 151 -4c57 1 114 3 171 4v-36c-27 -2 -75 -5 -75 -43c0 -20 26 -65 36 -83l100 -181l96 161
c13 24 38 70 38 96c0 43 -38 50 -73 50v36c34 -1 67 -3 101 -4c39 1 79 3 118 4v-36c-45 -4 -63 -33 -84 -70z" />
    <glyph glyph-name="Z" unicode="Z" horiz-adv-x="580" 
d="M560 660v-40l-360 -570h98c107 0 209 12 220 147h42l-4 -197h-536v36l363 574h-103c-135 0 -176 -48 -186 -133h-43l6 183h503z" />
    <glyph glyph-name="bracketleft" unicode="[" horiz-adv-x="380" 
d="M198 -99h132v-36h-231v811h231v-36h-132v-739z" />
    <glyph glyph-name="backslash" unicode="\" horiz-adv-x="278" 
d="M323 -135l-421 811h53l421 -811h-53z" />
    <glyph glyph-name="bracketright" unicode="]" horiz-adv-x="380" 
d="M50 -99h132v739h-132v36h231v-811h-231v36z" />
    <glyph glyph-name="asciicircum" unicode="^" horiz-adv-x="581" 
d="M253 656h78l152 -400h-81l-111 290l-112 -290h-80z" />
    <glyph glyph-name="underscore" unicode="_" horiz-adv-x="500" 
d="M-4 -75h504v-50h-504v50z" />
    <glyph glyph-name="quoteleft" unicode="&#x2018;" horiz-adv-x="260" 
d="M199 676l14 -28c-56 -37 -115 -79 -113 -154c14 11 30 18 49 18c42 0 70 -28 70 -71s-32 -76 -76 -76c-66 0 -102 54 -102 115c0 109 77 147 158 196z" />
    <glyph glyph-name="a" unicode="a" horiz-adv-x="480" 
d="M284 124v119c-50 -22 -116 -49 -116 -113c0 -32 13 -68 49 -68c30 0 67 29 67 62zM470 76l20 -27c-21 -39 -78 -62 -120 -62c-48 0 -74 22 -87 67c-36 -38 -89 -67 -141 -67c-63 0 -115 43 -115 108c0 99 113 133 201 167c31 12 56 12 56 50c0 44 -4 88 -58 88
c-38 0 -49 -16 -63 -50c-12 -32 -25 -63 -65 -63c-31 0 -54 22 -54 54c0 85 131 99 193 99c86 0 178 -22 178 -124v-203c0 -17 0 -51 21 -51c16 0 23 5 34 14z" />
    <glyph glyph-name="b" unicode="b" horiz-adv-x="560" 
d="M172 37l-86 -52h-17v541c0 55 4 81 -63 87v33l194 30v-293c33 31 72 57 118 57c123 0 209 -106 209 -225c0 -127 -94 -228 -223 -228c-43 0 -100 18 -132 50zM202 281v-146c0 -59 12 -102 80 -102c88 0 100 109 100 175c0 68 -17 167 -104 167c-24 0 -50 -12 -63 -32
c-10 -16 -13 -44 -13 -62z" />
    <glyph glyph-name="c" unicode="c" horiz-adv-x="460" 
d="M415 114l31 -27c-45 -66 -113 -100 -192 -100c-131 0 -222 87 -222 220c0 144 113 233 250 233c55 0 158 -25 158 -96c0 -29 -23 -54 -52 -54c-80 0 -52 110 -122 110c-80 0 -89 -118 -89 -177c0 -81 19 -180 121 -180c53 0 84 33 117 71z" />
    <glyph glyph-name="d" unicode="d" horiz-adv-x="580" 
d="M280 375c-87 0 -105 -87 -105 -157c0 -69 13 -166 102 -166c96 0 96 98 96 170c0 70 -3 153 -93 153zM575 58v-33l-183 -39l-9 88c-38 -54 -83 -87 -152 -87c-125 0 -201 106 -201 223c0 120 84 230 209 230c53 0 101 -32 134 -69v155c0 55 4 81 -63 87v33l194 30v-552
c1 -52 20 -69 71 -66z" />
    <glyph glyph-name="e" unicode="e" horiz-adv-x="500" 
d="M431 231h-254c-2 -88 25 -188 131 -188c57 0 84 28 122 67l31 -25c-43 -66 -113 -98 -191 -98c-131 0 -232 83 -238 219c-6 139 100 234 236 234c107 0 203 -73 203 -185c0 -28 -16 -24 -40 -24zM178 271h133c21 0 29 7 29 28c0 46 -28 101 -80 101
c-61 0 -80 -76 -82 -129z" />
    <glyph glyph-name="f" unicode="f" horiz-adv-x="400" 
d="M364 373h-124v-244c0 -95 5 -95 98 -99v-32c-55 1 -109 3 -164 4c-46 -1 -91 -3 -137 -4v32c74 3 72 25 72 93v250h-67v40h67v71c0 44 5 89 30 124c38 53 111 68 173 68c46 0 126 -14 126 -75c0 -30 -22 -56 -53 -56c-67 0 -51 91 -99 91c-33 0 -46 -37 -46 -63v-160h124
v-40z" />
    <glyph glyph-name="g" unicode="g" horiz-adv-x="500" 
d="M229 400c-62 0 -63 -78 -63 -124c0 -41 7 -105 63 -108c55 -3 61 68 61 107s-4 125 -61 125zM356 403c27 25 61 43 99 43c31 0 61 -17 61 -51c0 -25 -18 -44 -44 -44c-31 0 -42 35 -68 35c-10 0 -14 -3 -19 -11c23 -25 36 -59 36 -93c0 -47 -19 -91 -59 -118
c-44 -29 -95 -34 -146 -36c-30 -2 -80 0 -80 -42s85 -34 111 -34c108 0 230 -16 230 -153c0 -131 -136 -169 -242 -169c-74 0 -215 19 -215 119c0 37 31 68 68 68c12 0 44 -9 44 -24c0 -5 -7 -9 -10 -12c-12 -11 -15 -15 -15 -32c0 -62 77 -79 125 -79c57 0 150 18 150 93
c0 78 -93 72 -148 72c-77 0 -193 -1 -193 106c0 54 46 93 96 102v2c-60 17 -102 67 -102 132c0 110 94 163 193 163c45 0 92 -9 128 -37z" />
    <glyph glyph-name="h" unicode="h" horiz-adv-x="560" 
d="M201 676v-317h2c29 54 90 81 150 81c72 0 138 -42 138 -120v-197c0 -17 0 -62 10 -75c11 -15 37 -18 53 -18v-32c-40 1 -78 3 -117 4c-47 -1 -93 -3 -140 -4v32c16 0 42 3 53 18c10 13 10 58 10 75v163c0 44 -15 89 -68 89c-61 0 -91 -74 -91 -124v-128
c0 -17 0 -62 10 -75c11 -15 37 -18 53 -18v-32c-43 1 -86 3 -129 4c-43 -1 -85 -3 -128 -4v32c16 0 42 3 53 18c10 13 10 58 10 75v413c-1 54 -6 71 -64 77v33z" />
    <glyph glyph-name="i" unicode="i" horiz-adv-x="280" 
d="M206 440v-317c0 -17 0 -62 10 -75c11 -15 37 -18 53 -18v-32c-40 1 -81 3 -123 4c-45 -1 -89 -3 -134 -4v32c16 0 42 3 53 18c10 13 10 58 10 75v173c0 60 -11 82 -64 81v33c65 5 129 14 195 30zM126 526c-38 0 -73 36 -73 74c0 42 34 76 76 76c43 0 74 -34 74 -76
c0 -43 -35 -74 -77 -74z" />
    <glyph glyph-name="j" unicode="j" horiz-adv-x="280" 
d="M11 410l195 30v-511c0 -43 -8 -85 -31 -124c-37 -61 -96 -75 -164 -75c-48 0 -134 8 -134 72c0 32 22 54 54 54c69 0 50 -86 94 -86c53 0 50 83 50 119v397c0 44 4 86 -64 91v33zM125 526c-39 0 -72 36 -72 74c0 42 32 76 75 76s75 -34 75 -76c0 -43 -37 -74 -78 -74z
" />
    <glyph glyph-name="k" unicode="k" horiz-adv-x="520" 
d="M375 -2l-138 188l-36 -31v-38c0 -65 -6 -79 63 -87v-32c-40 1 -79 3 -119 4c-43 -1 -87 -3 -138 -4v32c71 0 63 36 63 93v400c0 55 4 85 -64 90v33l195 30v-465l100 100c11 13 34 37 34 55c0 28 -40 33 -60 34v32c39 -1 79 -3 118 -4c33 1 67 3 100 4v-32
c-61 -10 -85 -41 -127 -81l-48 -46l136 -177c17 -23 38 -59 68 -66v-32c-24 1 -49 2 -73 4c-25 -2 -49 -3 -74 -4z" />
    <glyph glyph-name="l" unicode="l" horiz-adv-x="280" 
d="M75 123v405c0 54 2 79 -64 85v33l195 30v-553c0 -65 -6 -90 65 -93v-32c-42 1 -84 3 -127 4c-47 -1 -94 -3 -141 -4v32c76 2 72 23 72 93z" />
    <glyph glyph-name="m" unicode="m" horiz-adv-x="840" 
d="M205 207v-84c0 -50 -7 -93 56 -93v-32c-41 1 -81 3 -122 4c-43 -1 -85 -3 -128 -4v32c16 0 42 3 53 18c10 13 10 58 10 75v134c0 50 2 113 -66 110v33c62 7 125 16 185 40l5 -92h2c28 56 87 92 149 92c60 0 117 -27 129 -92c33 57 85 92 152 92c50 0 100 -18 124 -66
c17 -34 13 -111 13 -151v-100c0 -17 0 -62 10 -75c11 -15 37 -18 53 -18v-32c-43 1 -86 3 -129 4c-40 -1 -81 -3 -121 -4v32c64 3 56 40 56 93v127c0 45 4 126 -60 126c-35 0 -61 -27 -76 -57c-14 -29 -14 -74 -14 -107v-89c0 -50 -6 -94 56 -93v-32c-41 1 -81 3 -122 4
c-40 -1 -81 -3 -121 -4v32c63 0 56 43 56 93v127c0 45 4 125 -60 125c-34 0 -58 -26 -74 -56s-16 -78 -16 -112z" />
    <glyph glyph-name="n" unicode="n" horiz-adv-x="560" 
d="M201 209v-86c0 -17 0 -62 9 -75c11 -15 37 -18 53 -18v-32c-43 1 -85 3 -128 4c-42 -1 -85 -3 -127 -4v32c16 0 42 3 53 18c9 13 9 58 9 75v143c0 54 1 102 -65 102v33c62 6 124 15 184 39l11 -90c37 52 83 90 148 90c43 0 91 -16 119 -52c25 -33 24 -92 24 -133v-132
c0 -17 0 -62 9 -75c11 -15 37 -18 53 -18v-32c-39 1 -78 3 -117 4c-46 -1 -93 -3 -139 -4v34c16 0 42 1 53 16c10 13 10 58 10 75v125c0 47 3 127 -64 127c-39 0 -66 -29 -82 -62c-14 -29 -13 -72 -13 -104z" />
    <glyph glyph-name="o" unicode="o" horiz-adv-x="560" 
d="M282 440c128 0 240 -91 240 -225c0 -133 -109 -228 -237 -228c-132 0 -247 90 -247 229c0 132 120 224 244 224zM283 400c-89 0 -100 -117 -100 -183c0 -74 7 -190 107 -190c84 0 87 126 87 184c0 67 -3 189 -94 189z" />
    <glyph glyph-name="p" unicode="p" horiz-adv-x="580" 
d="M302 375c-52 0 -98 -51 -98 -95v-117c0 -64 23 -111 95 -111c90 0 105 94 105 164c0 66 -18 159 -102 159zM204 48v-187c0 -76 -2 -91 77 -92v-32c-47 1 -91 3 -135 4c-49 -1 -98 -3 -147 -4v32c78 2 74 19 74 92v371c0 60 0 83 -12 112c-9 22 -31 24 -53 24v33
c63 6 126 18 186 39l6 -84h2c31 53 85 84 147 84c119 0 200 -111 200 -223c0 -122 -86 -230 -213 -230c-51 0 -99 26 -132 61z" />
    <glyph glyph-name="q" unicode="q" horiz-adv-x="560" 
d="M357 -139v197h-2c-27 -43 -73 -71 -125 -71c-125 0 -204 105 -204 223c0 130 99 233 231 230c52 -1 97 -17 137 -51l78 51h16v-579c0 -64 -6 -89 65 -92v-32c-47 1 -91 3 -134 4c-45 -1 -90 -3 -135 -4v32c77 2 73 20 73 92zM278 400c-95 0 -107 -108 -107 -180
c0 -68 10 -168 100 -168c91 0 86 102 86 167c0 61 10 181 -79 181z" />
    <glyph glyph-name="r" unicode="r" horiz-adv-x="400" 
d="M9 368v33l183 39l7 -97h2c24 47 71 97 126 97c41 0 76 -34 76 -77c0 -33 -25 -51 -57 -51c-54 0 -46 43 -79 43c-54 0 -61 -97 -61 -132v-100c0 -73 0 -94 70 -93v-32c-46 1 -93 3 -139 4c-42 -1 -84 -3 -125 -4v32c16 0 42 3 53 18c10 13 10 58 10 75v162
c0 63 -15 79 -66 83z" />
    <glyph glyph-name="s" unicode="s" horiz-adv-x="400" 
d="M78 31l-16 -31h-40l-5 136h40c27 -56 68 -109 136 -109c38 0 78 19 78 62c0 45 -59 57 -92 67c-80 24 -152 54 -152 151c0 92 76 133 158 133c46 0 78 -11 117 -35l17 35h40v-131h-40c-22 48 -60 91 -116 91c-30 0 -70 -15 -70 -52c0 -44 48 -52 82 -62
c81 -26 167 -53 167 -155s-83 -144 -173 -144c-43 0 -98 13 -131 44z" />
    <glyph glyph-name="t" unicode="t" horiz-adv-x="320" 
d="M307 383h-101v-252c0 -39 0 -84 36 -84c25 0 45 20 59 39l34 -23c-32 -51 -82 -76 -141 -76c-98 0 -119 57 -119 144v252h-54v30c73 21 122 73 142 146h43v-136h101v-40z" />
    <glyph glyph-name="u" unicode="u" horiz-adv-x="560" 
d="M558 60v-32l-179 -41l-9 97h-2c-41 -66 -93 -97 -171 -97c-99 0 -127 61 -127 148v162c0 17 1 62 -9 75c-11 14 -37 14 -53 16v33l193 11v-273c0 -52 4 -107 67 -107c75 0 92 74 92 140v105c0 17 0 62 -9 75c-10 15 -37 14 -53 16v33l193 11v-288c0 -19 0 -53 10 -69
c12 -19 38 -15 57 -15z" />
    <glyph glyph-name="v" unicode="v" horiz-adv-x="460" 
d="M278 145l56 131c7 21 24 63 24 84c0 37 -36 39 -57 40v32c30 -1 61 -3 91 -4c28 1 55 3 83 4v-32c-26 -5 -40 -18 -56 -41c-19 -29 -115 -259 -124 -279l-44 -93h-41l-160 352c-16 34 -24 56 -64 61v32c43 -1 85 -3 128 -4c42 1 85 3 127 4v-32c-27 -1 -56 -1 -56 -35
c0 -13 18 -50 23 -62z" />
    <glyph glyph-name="w" unicode="w" horiz-adv-x="660" 
d="M326 247l-102 -260h-40l-110 273c-11 27 -35 92 -53 113c-13 19 -25 24 -44 27v32c45 -1 90 -3 135 -4c42 1 83 3 125 4v-32c-25 0 -62 -1 -62 -38c0 -17 9 -37 14 -53l59 -154l105 277h37l110 -286l52 141c7 20 17 48 17 69c0 38 -36 41 -61 44v32c31 -1 61 -3 92 -4
c28 1 55 3 83 4v-32c-53 -2 -68 -64 -83 -105l-124 -308h-39z" />
    <glyph glyph-name="x" unicode="x" horiz-adv-x="540" 
d="M319 247l135 -155c29 -34 38 -55 84 -62v-32c-43 1 -86 3 -129 4c-48 -1 -97 -3 -145 -4v32c13 0 44 1 44 19c0 17 -20 38 -30 50l-45 56l-38 -41c-18 -20 -38 -42 -38 -56c0 -24 33 -24 50 -28v-32c-31 1 -61 3 -92 4c-35 -1 -69 -3 -104 -4v32c68 16 91 44 136 91
l60 65l-125 146c-24 28 -40 65 -80 68v32c45 -1 90 -3 135 -4c43 1 87 3 130 4v-32c-16 -1 -42 -7 -42 -28c0 -11 20 -33 26 -40l45 -55l34 34c19 19 37 43 37 59c0 29 -33 26 -48 30v32c35 -1 70 -3 105 -4c28 1 56 3 84 4v-32c-47 -7 -69 -32 -101 -65z" />
    <glyph glyph-name="y" unicode="y" horiz-adv-x="440" 
d="M265 137l71 171c7 18 12 36 12 48c0 42 -30 41 -55 44v32c31 -1 61 -3 92 -4c27 1 53 3 80 4v-32c-17 -2 -33 -8 -47 -26c-23 -29 -71 -152 -82 -177l-160 -346c-26 -54 -51 -121 -121 -121c-32 0 -55 19 -55 51c0 47 44 55 79 63c43 10 65 37 82 73l34 72l-152 348
c-9 21 -19 37 -24 43c-13 16 -29 18 -44 20v32c43 -1 85 -3 128 -4c43 1 86 3 129 4v-32c-27 -3 -54 2 -54 -34c0 -19 22 -72 30 -92z" />
    <glyph glyph-name="z" unicode="z" horiz-adv-x="440" 
d="M415 149l-10 -149h-380v27l228 365h-18c-35 0 -77 2 -108 -16c-34 -18 -41 -56 -51 -90h-37l8 146h364v-38l-228 -354h26c95 0 142 -1 168 109h38z" />
    <glyph glyph-name="braceleft" unicode="{" horiz-adv-x="394" 
d="M342 676v-36h-42c-57 0 -63 -44 -63 -68v-165c0 -75 -85 -138 -138 -136v-2c53 2 138 -61 138 -136v-165c0 -24 6 -67 63 -67h42v-36h-87c-86 0 -124 83 -124 114v186c0 60 -39 83 -87 86v35c48 4 87 27 87 87v188c0 31 38 115 124 115h87z" />
    <glyph glyph-name="bar" unicode="|" horiz-adv-x="220" 
d="M73 750h74v-1000h-74v1000z" />
    <glyph glyph-name="braceright" unicode="}" horiz-adv-x="394" 
d="M263 165v-186c0 -31 -38 -114 -124 -114h-87v36h42c57 0 63 43 63 67v165c0 75 85 138 138 136v2c-53 -2 -138 61 -138 136v165c0 24 -6 68 -63 68h-42v36h87c86 0 124 -84 124 -115v-188c0 -60 39 -83 87 -87v-35c-48 -3 -87 -26 -87 -86z" />
    <glyph glyph-name="asciitilde" unicode="~" horiz-adv-x="520" 
d="M464 329l48 -55c-31 -55 -73 -113 -144 -113c-45 0 -100 31 -133 44c-26 10 -54 25 -83 25c-49 0 -75 -51 -96 -88l-48 55c31 57 73 120 145 120c36 0 77 -17 116 -34c40 -18 76 -35 101 -35c44 0 75 46 94 81z" />
    <glyph glyph-name="exclamdown" unicode="&#xa1;" horiz-adv-x="360" 
d="M162 220h40c0 -79 4 -146 24 -223l19 -75c7 -24 13 -51 13 -75c0 -44 -29 -92 -75 -92c-49 0 -78 48 -78 92c0 24 6 51 13 75l19 75c20 77 25 144 25 223zM180 273c-45 0 -81 37 -81 82s36 80 81 80c44 0 81 -34 81 -79s-35 -83 -81 -83z" />
    <glyph glyph-name="cent" unicode="&#xa2;" horiz-adv-x="520" 
d="M274 109l-55 5l-50 -128h-40l53 138c-88 37 -128 110 -128 205c0 137 107 229 240 229l52 -4l45 114h42l-49 -124c38 -11 77 -39 77 -82c0 -30 -25 -55 -55 -55c-27 0 -49 21 -59 45l-98 -262c16 -18 43 -25 67 -25c55 0 84 27 117 67l33 -27c-39 -66 -117 -96 -192 -96z
M221 225l103 273c-11 14 -26 18 -43 18c-75 0 -82 -122 -82 -175c0 -39 3 -81 22 -116z" />
    <glyph glyph-name="sterling" unicode="&#xa3;" horiz-adv-x="520" 
d="M101 129c-28 0 -55 -25 -55 -54c0 -30 23 -48 53 -48c40 0 84 33 84 71c0 8 -52 31 -82 31zM175 237l-26 81h-116l1 50h102c-11 37 -19 76 -19 116c0 120 83 185 197 185c61 0 172 -26 172 -105c0 -31 -23 -52 -53 -52c-42 0 -49 37 -56 70c-7 37 -27 47 -66 47
c-49 0 -83 -28 -83 -77c0 -23 5 -46 11 -68l31 -116h130l-1 -50h-122c2 -25 5 -51 7 -76c0 -36 -6 -84 -21 -118c42 -12 86 -22 131 -22c97 0 90 55 109 55c10 0 12 -9 12 -17c0 -73 -53 -153 -132 -153c-57 0 -108 39 -148 77c-33 -47 -74 -77 -133 -77
c-52 0 -96 34 -96 87c0 58 49 95 105 95c31 0 49 -11 78 -21c-1 30 -6 59 -14 89z" />
    <glyph glyph-name="fraction" unicode="&#x2044;" horiz-adv-x="140" 
d="M337 658l-480 -658h-53l481 658h52z" />
    <glyph glyph-name="yen" unicode="&#xa5;" horiz-adv-x="520" 
d="M320 267h157v-50h-157v-74c0 -95 3 -101 99 -109v-36c-51 1 -106 3 -161 4c-56 -1 -112 -3 -168 -4v36c94 9 99 16 99 109v74h-145v50h145v50l-24 42h-128v50h101l-70 117c-22 39 -46 95 -99 98v36c41 -1 82 -3 122 -4c44 1 88 3 132 4v-36c-14 -3 -63 0 -63 -31
c0 -30 58 -128 75 -157l49 -84l71 112c17 25 58 93 58 119c0 28 -36 41 -58 41v36c33 -1 65 -3 98 -4c33 1 65 3 98 4v-36c-47 -5 -62 -42 -85 -78l-91 -137h109v-50h-139l-25 -32v-60z" />
    <glyph glyph-name="florin" unicode="&#x192;" horiz-adv-x="520" 
d="M444 418h-95l-90 -415c-20 -90 -95 -175 -196 -175c-41 0 -95 20 -95 68c0 30 24 55 54 55c62 0 40 -83 76 -83c45 0 58 141 61 164c9 67 17 134 26 201l32 185h-88l11 40h86c14 59 27 121 58 174c39 65 100 106 176 106c39 0 93 -18 93 -65c0 -31 -24 -54 -55 -54
c-56 0 -41 79 -76 79c-18 0 -25 -20 -30 -35l-38 -205h102z" />
    <glyph glyph-name="section" unicode="&#xa7;" horiz-adv-x="520" 
d="M174 367c-29 -12 -59 -33 -59 -68c0 -45 82 -85 116 -103c46 -25 89 -53 134 -80c22 19 45 43 45 74c0 54 -112 102 -149 124c-29 17 -58 35 -87 53zM284 33l-76 40c-76 40 -152 92 -152 188c0 61 34 103 86 129c-43 35 -66 76 -66 132c0 109 91 154 188 154
c66 0 172 -30 172 -113c0 -35 -23 -64 -59 -64c-32 0 -59 23 -59 55c0 29 27 41 27 53c0 24 -69 33 -86 33c-46 0 -111 -21 -111 -77c0 -63 75 -97 122 -123l54 -28c73 -39 144 -90 144 -183c0 -62 -29 -98 -74 -136c42 -33 66 -79 66 -132c0 -119 -99 -170 -205 -170
c-84 0 -203 35 -203 137c0 37 27 69 65 69c33 0 60 -26 60 -59c0 -20 -5 -26 -18 -41c-4 -6 -18 -19 -18 -27c0 -35 93 -43 118 -43c62 0 129 24 129 97c0 57 -60 86 -104 109z" />
    <glyph glyph-name="currency" unicode="&#xa4;" horiz-adv-x="520" 
d="M13 536l67 68l79 -80c29 18 64 28 100 28c38 0 73 -10 103 -29l80 81l66 -68l-79 -80c18 -30 28 -65 28 -102c0 -38 -11 -73 -28 -102l79 -80l-66 -67l-81 79c-30 -18 -65 -28 -102 -28c-38 0 -73 11 -103 29l-76 -80l-67 67l76 80c-18 30 -28 65 -28 102
c0 38 11 73 29 103zM153 354c0 -59 47 -106 106 -106s106 47 106 106s-47 106 -106 106s-106 -47 -106 -106z" />
    <glyph glyph-name="quotesingle" unicode="'" horiz-adv-x="278" 
d="M162 357h-46l-44 239c-7 36 27 80 67 80s74 -44 67 -80z" />
    <glyph glyph-name="quotedblleft" unicode="&#x201c;" horiz-adv-x="500" 
d="M431 676l14 -28c-56 -37 -115 -79 -113 -154c14 11 30 18 49 18c42 0 70 -28 70 -71s-32 -76 -76 -76c-66 0 -102 54 -102 115c0 109 77 147 158 196zM207 676l14 -28c-56 -37 -115 -79 -113 -154c14 11 30 18 49 18c42 0 70 -28 70 -71s-32 -76 -76 -76
c-66 0 -102 54 -102 115c0 109 77 147 158 196z" />
    <glyph glyph-name="guillemotleft" unicode="&#xab;" horiz-adv-x="460" 
d="M235 231l72 59c30 26 81 74 89 74c5 0 7 -3 7 -7c0 -14 -90 -138 -93 -141c4 -5 92 -130 92 -142c0 -5 -4 -8 -9 -8c-4 0 -48 41 -85 75l-66 56c-3 2 -21 15 -21 20c0 4 12 12 14 14zM71 231l72 59c30 26 81 74 89 74c5 0 7 -3 7 -7c0 -14 -90 -138 -93 -141
c4 -5 92 -130 92 -142c0 -5 -4 -8 -9 -8c-4 0 -48 41 -85 75l-66 56c-3 2 -21 15 -21 20c0 4 12 12 14 14z" />
    <glyph glyph-name="guilsinglleft" unicode="&#x2039;" horiz-adv-x="300" 
d="M73 231l72 59c30 26 81 74 89 74c5 0 7 -3 7 -7c0 -14 -90 -138 -93 -141c4 -5 92 -130 92 -142c0 -5 -4 -8 -9 -8c-4 0 -48 41 -85 75l-66 56c-3 2 -21 15 -21 20c0 4 12 12 14 14z" />
    <glyph glyph-name="guilsinglright" unicode="&#x203a;" horiz-adv-x="300" 
d="M155 293l72 -59c2 -2 14 -10 14 -14c0 -5 -18 -18 -21 -20l-66 -56c-37 -34 -81 -75 -85 -75c-5 0 -9 3 -9 8c0 12 88 137 92 142c-3 3 -93 127 -93 141c0 4 2 7 7 7c8 0 59 -48 89 -74z" />
    <glyph glyph-name="endash" unicode="&#x2013;" horiz-adv-x="500" 
d="M500 179h-500v74h500v-74z" />
    <glyph glyph-name="dagger" unicode="&#x2020;" horiz-adv-x="520" 
d="M438 350c-22 0 -38 8 -52 17c-14 8 -26 16 -42 16c-22 0 -47 -16 -58 -36l41 -37c-21 -75 -30 -153 -38 -231l-17 -299h-23l-17 299c-8 78 -17 156 -38 231l40 37c-11 20 -35 36 -58 36c-31 0 -49 -33 -94 -33c-28 0 -47 25 -47 52c0 19 12 37 33 37c18 0 30 -12 30 -30
c0 -9 -4 -16 -4 -23c0 -4 3 -7 7 -7c12 0 19 18 24 26c10 19 18 38 43 38c39 0 57 -46 70 -46c5 0 9 3 9 8c0 16 -38 55 -38 105c0 25 7 42 23 61c3 4 15 14 15 20s-9 12 -12 15c-11 9 -20 16 -20 32c0 24 23 38 45 38s45 -14 45 -38c0 -14 -7 -22 -17 -30
c-4 -4 -14 -11 -14 -17c0 -5 8 -12 11 -16c18 -21 26 -36 26 -65c0 -49 -38 -91 -38 -104c0 -4 3 -9 8 -9c16 0 32 46 71 46c23 0 32 -16 41 -34c5 -9 14 -30 26 -30c5 0 7 3 7 8c0 6 -4 13 -4 22c0 18 13 30 30 30c21 0 34 -18 34 -37c0 -27 -20 -52 -48 -52z" />
    <glyph glyph-name="daggerdbl" unicode="&#x2021;" horiz-adv-x="520" 
d="M237 -22l-33 35c20 65 28 133 46 199h20c18 -66 26 -134 46 -199l-33 -35c7 -4 13 -5 21 -5c24 0 42 9 59 17c18 9 34 17 54 17c27 0 45 -22 45 -48c0 -21 -12 -39 -34 -39c-16 0 -30 13 -30 29c0 6 3 12 3 18c0 4 -3 9 -7 9c-10 0 -15 -14 -18 -21
c-8 -19 -20 -35 -42 -35c-13 0 -19 4 -31 8c-1 -20 -6 -42 -19 -59c-1 -3 -10 -13 -10 -17c0 -5 5 -7 9 -9c10 -7 17 -15 17 -29c0 -21 -21 -34 -40 -34c-20 0 -40 13 -40 34c0 12 6 21 16 27c3 3 9 6 9 11c0 4 -7 13 -10 17c-12 17 -17 39 -18 59c-12 -4 -18 -8 -31 -8
c-21 0 -34 15 -41 33c-4 7 -9 22 -19 22c-5 0 -7 -4 -7 -9s3 -11 3 -17c0 -16 -14 -29 -30 -29c-23 0 -33 18 -33 39c0 24 16 48 42 48c22 0 39 -8 56 -17c17 -8 35 -17 58 -17c9 0 14 1 22 5zM419 448c-22 0 -39 9 -56 18c-18 8 -35 17 -59 17c-8 0 -13 -1 -21 -5l33 -35
c-20 -65 -28 -133 -46 -199h-20c-18 66 -26 134 -46 199l33 35c-7 4 -13 5 -21 5c-23 0 -42 -9 -59 -17c-17 -9 -34 -18 -54 -18c-27 0 -44 23 -44 49c0 21 10 39 33 39c16 0 30 -13 30 -29c0 -6 -3 -12 -3 -18c0 -4 2 -9 7 -9c10 0 14 14 18 21c8 19 20 35 42 35
c13 0 19 -5 31 -9c1 21 6 43 18 60c2 3 10 13 10 17c0 5 -4 7 -8 9c-10 7 -17 15 -17 29c0 21 20 34 40 34c19 0 40 -13 40 -34c0 -13 -6 -21 -16 -28c-3 -2 -10 -5 -10 -10s8 -13 10 -17c13 -17 18 -39 19 -60c12 4 18 9 31 9c20 0 34 -15 41 -33c4 -7 9 -23 19 -23
c5 0 7 5 7 9c0 6 -3 12 -3 18c0 16 14 29 30 29c23 0 34 -18 34 -39c0 -24 -17 -49 -43 -49z" />
    <glyph glyph-name="periodcentered" unicode="&#xb7;" horiz-adv-x="260" 
d="M68 235c0 34 28 62 62 62s62 -28 62 -62s-28 -62 -62 -62s-62 28 -62 62z" />
    <glyph glyph-name="paragraph" unicode="&#xb6;" horiz-adv-x="540" 
d="M424 530v-526c0 -34 0 -106 11 -135c13 -33 54 -30 84 -31v-36h-178v810h-47v-810h-188v36c35 1 82 -5 96 34c9 26 9 100 9 132v304c-114 0 -187 48 -187 171c0 138 119 181 236 181c32 -1 64 -3 96 -4c48 1 95 3 163 4v-36c-33 -1 -69 -1 -86 -37c-6 -12 -9 -34 -9 -57z
" />
    <glyph glyph-name="bullet" unicode="&#x2022;" horiz-adv-x="350" 
d="M176 491c87 0 163 -70 163 -160c0 -92 -71 -168 -163 -168s-165 75 -165 165s73 163 165 163z" />
    <glyph glyph-name="quotesinglbase" unicode="&#x201a;" horiz-adv-x="260" 
d="M61 -170l-14 28c57 36 114 80 113 154c-14 -11 -30 -18 -49 -18c-43 0 -70 28 -70 71s32 76 76 76c66 0 102 -55 102 -116c0 -108 -77 -147 -158 -195z" />
    <glyph glyph-name="quotedblbase" unicode="&#x201e;" horiz-adv-x="500" 
d="M302 -167l-5 -3l-14 28l3 2c56 36 112 78 110 152c-14 -12 -30 -19 -49 -19c-43 0 -70 29 -70 71c0 44 32 76 76 76c66 0 98 -54 98 -115c0 -42 -15 -83 -42 -116c-26 -31 -72 -57 -107 -76zM74 -167l-5 -3l-14 28l3 2c56 36 111 78 110 152c-14 -12 -30 -19 -49 -19
c-43 0 -70 29 -70 71c0 44 32 76 76 76c66 0 98 -54 98 -115c0 -42 -16 -83 -42 -116c-26 -31 -72 -57 -107 -76z" />
    <glyph glyph-name="quotedblright" unicode="&#x201d;" horiz-adv-x="500" 
d="M69 365l-14 28c57 36 114 80 113 154c-14 -11 -30 -18 -49 -18c-43 0 -70 28 -70 71s32 76 76 76c66 0 102 -55 102 -116c0 -108 -77 -147 -158 -195zM293 365l-14 28c57 36 114 80 113 154c-14 -11 -30 -18 -49 -18c-43 0 -70 28 -70 71s32 76 76 76
c66 0 102 -55 102 -116c0 -108 -77 -147 -158 -195z" />
    <glyph glyph-name="guillemotright" unicode="&#xbb;" horiz-adv-x="460" 
d="M153 293l72 -59c2 -2 14 -10 14 -14c0 -5 -18 -18 -21 -20l-66 -56c-37 -34 -81 -75 -85 -75c-5 0 -9 3 -9 8c0 12 88 137 92 142c-3 3 -93 127 -93 141c0 4 2 7 7 7c8 0 59 -48 89 -74zM317 293l72 -59c2 -2 14 -10 14 -14c0 -5 -18 -18 -21 -20l-66 -56
c-37 -34 -81 -75 -85 -75c-5 0 -9 3 -9 8c0 12 88 137 92 142c-3 3 -93 127 -93 141c0 4 2 7 7 7c8 0 59 -48 89 -74z" />
    <glyph glyph-name="ellipsis" unicode="&#x2026;" horiz-adv-x="1000" 
d="M832 -7c-44 0 -81 37 -81 82s37 80 81 80s81 -34 81 -79s-35 -83 -81 -83zM499 -7c-45 0 -81 37 -81 82s36 80 81 80c44 0 81 -34 81 -79s-35 -83 -81 -83zM166 -7c-45 0 -81 37 -81 82s36 80 81 80c44 0 81 -34 81 -79s-35 -83 -81 -83z" />
    <glyph glyph-name="perthousand" unicode="&#x2030;" horiz-adv-x="1260" 
d="M602 -23c-88 0 -147 69 -147 154c0 113 88 224 208 224c83 0 132 -52 132 -133c0 -112 -67 -245 -193 -245zM628 17c83 0 127 142 127 208c0 36 -13 90 -58 90s-80 -58 -96 -94c-18 -42 -62 -204 27 -204zM995 -23c-87 0 -146 70 -146 154c0 113 88 224 208 224
c82 0 132 -52 132 -133c0 -113 -68 -245 -194 -245zM1021 17c83 0 128 142 128 208c0 36 -14 90 -58 90c-45 0 -80 -58 -96 -94c-18 -41 -62 -204 26 -204zM691 750l-480 -795h-53l419 691l-2 2c-30 -15 -60 -25 -95 -25c-26 0 -52 6 -76 13c5 -17 9 -35 9 -54
c0 -110 -68 -239 -191 -239c-84 0 -150 68 -150 150c0 106 84 230 198 230c33 0 52 -4 79 -21l48 -30c27 -16 43 -21 75 -21c75 0 136 43 182 99h37zM249 383c78 0 124 138 124 200c0 35 -11 100 -57 100c-82 0 -126 -159 -126 -224c0 -35 19 -76 59 -76z" />
    <glyph glyph-name="questiondown" unicode="&#xbf;" horiz-adv-x="400" 
d="M291 228v-200c-19 1 -41 3 -63 3c-54 0 -129 -9 -129 -79c0 -49 34 -96 86 -96c36 0 69 15 105 15c32 0 70 -17 70 -54c0 -41 -45 -54 -79 -54c-125 0 -241 115 -241 240c0 100 81 144 171 144c13 0 27 -1 40 -1v82h40zM263 273c-45 0 -81 37 -81 82s36 80 81 80
c44 0 81 -34 81 -79s-35 -83 -81 -83z" />
    <glyph glyph-name="grave" unicode="`" horiz-adv-x="340" 
d="M281 499h-32l-120 73l-24 16c-13 8 -39 24 -39 42c0 21 17 39 38 39c25 0 49 -31 65 -48z" />
    <glyph glyph-name="acute" unicode="&#xb4;" horiz-adv-x="340" 
d="M66 499l112 122c16 17 40 48 65 48c21 0 38 -18 38 -39c0 -18 -26 -34 -39 -42l-24 -16l-120 -73h-32z" />
    <glyph glyph-name="circumflex" unicode="&#x2c6;" horiz-adv-x="400" 
d="M327 499h-32l-99 94l-97 -94h-33l99 165h62z" />
    <glyph glyph-name="tilde" unicode="&#x2dc;" horiz-adv-x="400" 
d="M89 528l-23 3c6 42 43 98 91 98c23 0 37 -6 57 -15c19 -8 42 -19 63 -19c20 0 36 17 41 35l24 -3c-7 -44 -37 -97 -88 -97c-18 0 -38 8 -54 15c-18 6 -43 17 -62 17c-23 0 -42 -13 -49 -34z" />
    <glyph glyph-name="macron" unicode="&#xaf;" horiz-adv-x="500" 
d="M428 551h-362v60h362v-60z" />
    <glyph glyph-name="breve" unicode="&#x2d8;" horiz-adv-x="400" 
d="M305 669h24c-4 -72 -55 -127 -129 -127c-73 0 -133 53 -134 127h23c14 -48 65 -58 108 -58c45 0 92 10 108 58z" />
    <glyph glyph-name="dotaccent" unicode="&#x2d9;" horiz-adv-x="240" 
d="M119 527c-30 0 -53 24 -53 54c0 32 26 53 56 53c28 0 51 -25 51 -52c0 -30 -23 -55 -54 -55z" />
    <glyph glyph-name="dieresis" unicode="&#xa8;" horiz-adv-x="400" 
d="M283 527c-30 0 -53 24 -53 54c0 32 26 53 56 53c28 0 51 -25 51 -52c0 -30 -23 -55 -54 -55zM119 527c-30 0 -53 24 -53 54c0 32 26 53 56 53c28 0 51 -25 51 -52c0 -30 -23 -55 -54 -55z" />
    <glyph glyph-name="ring" unicode="&#x2da;" horiz-adv-x="340" 
d="M168 481c-55 0 -102 44 -102 100c0 58 49 99 105 99s100 -47 100 -103c0 -55 -50 -96 -103 -96zM168 521c31 0 58 26 58 58c0 30 -21 62 -54 62s-62 -24 -62 -58c0 -33 24 -62 58 -62z" />
    <glyph glyph-name="cedilla" unicode="&#xb8;" horiz-adv-x="300" 
d="M151 0l-7 -55l18 1c38 0 78 -14 78 -59c0 -43 -46 -65 -83 -65c-27 0 -77 13 -77 47c0 11 10 21 21 21c29 0 15 -41 58 -41c18 0 34 16 34 34c0 28 -33 38 -56 38c-10 0 -21 -3 -31 -3l11 82h34z" />
    <glyph glyph-name="hungarumlaut" unicode="&#x2dd;" horiz-adv-x="520" 
d="M230 499l112 122c16 17 40 48 65 48c21 0 38 -18 38 -39c0 -18 -26 -34 -39 -42l-24 -16l-120 -73h-32zM66 499l112 122c16 17 40 48 65 48c21 0 38 -18 38 -39c0 -18 -26 -34 -39 -42l-24 -16l-120 -73h-32z" />
    <glyph glyph-name="ogonek" unicode="&#x2db;" horiz-adv-x="320" 
d="M207 -2l-35 -23c-19 -13 -43 -29 -43 -55c0 -19 20 -38 39 -38c23 0 47 22 61 39l24 -25c-20 -32 -63 -55 -101 -55s-88 21 -88 65c0 59 97 86 141 94z" />
    <glyph glyph-name="caron" unicode="&#x2c7;" horiz-adv-x="400" 
d="M327 664l-100 -165h-62l-99 165h33l97 -95l99 95h32z" />
    <glyph glyph-name="emdash" unicode="&#x2014;" horiz-adv-x="1000" 
d="M1000 179h-1000v74h1000v-74z" />
    <glyph glyph-name="AE" unicode="&#xc6;" horiz-adv-x="880" 
d="M216 329h152v242c0 10 3 43 -13 43c-14 0 -23 -32 -27 -42zM274 -2v36c96 -3 93 44 94 126v119h-175l-53 -116c-8 -19 -27 -59 -27 -80c0 -39 51 -45 80 -49v-36c-36 1 -71 3 -107 4c-40 -1 -81 -3 -121 -4v36c70 4 98 74 123 129l166 354c8 17 26 51 26 70
c0 38 -62 32 -87 37v36h625v-177h-40c-17 98 -76 131 -172 131c-12 0 -75 -1 -82 -13c-3 -5 -3 -49 -3 -57v-185c81 0 133 15 137 108h40c-1 -46 -3 -92 -4 -138c1 -41 3 -83 4 -124h-40c-19 92 -45 108 -137 108v-117c0 -94 -3 -152 115 -152c113 0 158 32 182 145h41
l-6 -191c-140 1 -280 3 -419 4c-53 -1 -107 -3 -160 -4z" />
    <glyph glyph-name="ordfeminine" unicode="&#xaa;" horiz-adv-x="360" 
d="M280 574v-95c0 -8 -3 -33 11 -33c9 0 15 6 22 11l16 -21c-15 -25 -52 -38 -81 -38c-27 0 -47 9 -57 35c-24 -21 -57 -35 -89 -35c-39 0 -71 23 -71 66c0 61 78 84 125 101c17 6 34 6 34 27c0 26 -3 47 -34 47c-26 0 -30 -10 -40 -32c-9 -20 -17 -33 -42 -33
c-19 0 -38 12 -38 33c0 56 86 62 127 62c30 0 62 -2 88 -19c30 -20 29 -45 29 -76zM189 490v56c-27 -12 -67 -26 -67 -62c0 -18 8 -33 29 -33c25 0 39 15 38 39z" />
    <glyph glyph-name="Lslash" unicode="&#x141;" horiz-adv-x="620" 
d="M15 -2v36c96 -3 94 44 94 126v80l-82 -51v56l82 55v198c0 82 2 129 -94 126v36c53 -1 105 -3 158 -4c61 1 123 3 184 4v-36c-96 3 -95 -44 -95 -126v-109l140 92v-56l-140 -90v-128c0 -101 -2 -163 120 -163c113 0 162 32 190 145h43l-7 -191c-181 1 -363 3 -423 4
c-57 -1 -113 -3 -170 -4z" />
    <glyph glyph-name="Oslash" unicode="&#xd8;" horiz-adv-x="840" 
d="M717 725l-76 -113c101 -67 151 -168 151 -289c0 -208 -178 -336 -373 -336c-56 0 -136 11 -185 41l-75 -107h-55l89 129c-96 61 -144 162 -144 274c0 218 170 345 376 345c59 0 121 -11 175 -34l64 90h53zM257 143l297 424c-38 39 -83 56 -138 56
c-158 0 -194 -160 -194 -289c0 -61 7 -136 35 -191zM580 526l-297 -427c31 -46 90 -66 143 -66c161 0 193 159 193 287c0 69 -7 142 -39 206z" />
    <glyph glyph-name="OE" unicode="&#x152;" horiz-adv-x="1000" 
d="M506 242v177c0 42 1 109 -13 147c-20 44 -66 48 -109 48c-153 0 -169 -160 -169 -277c0 -118 16 -293 173 -293c57 0 95 5 112 62c8 35 7 98 6 136zM939 193h40l-5 -195c-132 1 -264 1 -396 2c-69 -1 -137 -1 -206 -2c-87 -5 -170 7 -235 70c-66 64 -95 154 -95 243
c0 198 123 352 330 349c75 -1 149 -3 224 -4c113 1 226 3 339 4v-171h-40c-20 112 -88 127 -186 125c-50 -1 -50 5 -50 -41v-210c88 0 114 19 127 107h40c-1 -46 -3 -92 -4 -138c1 -41 3 -83 4 -124h-40c-14 89 -38 109 -127 109v-132c0 -93 3 -141 111 -141s149 44 169 149
z" />
    <glyph glyph-name="ordmasculine" unicode="&#xba;" horiz-adv-x="360" 
d="M177 398c-78 0 -141 58 -141 137c0 78 68 134 143 134c77 0 144 -55 144 -135c0 -82 -68 -136 -146 -136zM180 639c-50 0 -53 -67 -53 -103s2 -108 53 -108s52 69 52 106c0 36 -2 105 -52 105z" />
    <glyph glyph-name="ae" unicode="&#xe6;" horiz-adv-x="720" 
d="M412 274h105c18 0 48 -4 48 24c0 48 -26 102 -80 102c-55 0 -73 -77 -73 -126zM281 234c-52 -14 -113 -44 -113 -106c0 -28 15 -66 48 -66c32 0 64 28 83 52c-14 39 -19 79 -18 120zM647 234h-235c2 -77 12 -191 117 -191c52 0 88 34 120 71l31 -31
c-50 -63 -109 -96 -189 -96c-65 0 -142 30 -174 91c-43 -47 -108 -91 -174 -91c-58 0 -116 42 -116 103c0 67 52 103 104 128c53 25 112 38 140 57c14 9 15 27 15 43c0 43 -5 82 -59 82c-41 0 -50 -25 -62 -59c-9 -27 -28 -51 -58 -51c-29 0 -58 17 -58 49
c0 76 108 101 168 101c54 0 107 -13 144 -56c33 37 87 56 136 56c125 0 199 -98 199 -176c0 -35 -19 -30 -49 -30z" />
    <glyph glyph-name="dotlessi" unicode="&#x131;" horiz-adv-x="280" 
d="M206 440v-317c0 -17 0 -62 10 -75c11 -15 37 -18 53 -18v-32c-40 1 -81 3 -123 4c-45 -1 -89 -3 -134 -4v32c16 0 42 3 53 18c10 13 10 58 10 75v173c0 60 -11 82 -64 81v33c65 5 129 14 195 30z" />
    <glyph glyph-name="lslash" unicode="&#x142;" horiz-adv-x="280" 
d="M75 297l-64 -46v51l64 46v180c0 54 2 79 -64 85v33l195 30v-248l71 51v-51l-71 -49v-256c0 -65 -6 -90 65 -93v-32c-42 1 -85 3 -127 4c-47 -1 -94 -3 -141 -4v32c76 2 72 23 72 93v174z" />
    <glyph glyph-name="oslash" unicode="&#xf8;" horiz-adv-x="560" 
d="M486 513l-68 -113c66 -32 107 -118 107 -189c0 -136 -120 -224 -248 -224c-34 0 -66 7 -98 21l-64 -106h-45l75 124c-66 36 -109 113 -109 186c0 138 119 228 249 228c34 0 68 -9 99 -21l58 94h44zM367 317l-154 -253c21 -23 34 -37 67 -37c92 0 100 115 100 183
c0 36 -4 72 -13 107zM195 109l155 258c-15 21 -37 33 -63 33c-96 0 -106 -114 -106 -186c0 -35 5 -71 14 -105z" />
    <glyph glyph-name="oe" unicode="&#x153;" horiz-adv-x="820" 
d="M503 271h122c17 0 40 -4 40 25c0 45 -25 104 -77 104c-62 0 -81 -75 -85 -129zM270 400c-86 0 -93 -128 -93 -191c0 -72 3 -182 99 -182c87 0 94 120 94 183c0 68 -6 190 -100 190zM774 231h-273c1 -38 2 -81 19 -116c21 -43 63 -72 111 -72c52 0 85 29 118 67l30 -27
c-42 -62 -115 -96 -188 -96c-56 0 -119 26 -161 63c-44 -41 -100 -63 -159 -63c-136 0 -239 93 -239 233c0 135 108 220 236 220c57 0 123 -21 162 -66c38 47 100 66 158 66c112 0 208 -69 208 -187c0 -18 -8 -22 -22 -22z" />
    <glyph glyph-name="germandbls" unicode="&#xdf;" horiz-adv-x="580" 
d="M206 429v-431c-31 1 -63 3 -94 4c-35 -1 -69 -3 -104 -4v32c67 11 67 4 67 93v286c0 65 1 130 38 184c40 60 108 83 177 83c91 0 203 -46 203 -154c0 -86 -62 -116 -134 -138v-2c107 -17 192 -83 192 -198c0 -109 -79 -197 -190 -197c-53 0 -114 27 -114 88
c0 31 20 60 52 60c27 0 48 -20 48 -47c0 -12 -2 -15 -7 -25c-4 -7 -9 -14 -9 -22c0 -10 13 -14 24 -14c57 0 51 115 51 148c0 41 -3 86 -16 125c-14 40 -41 54 -81 56c-18 0 -45 -5 -45 20c0 18 15 18 28 20c20 2 33 3 47 17c20 21 23 61 23 88c0 57 -10 135 -83 135
c-38 0 -59 -33 -67 -68c-8 -37 -6 -100 -6 -139z" />
    <glyph glyph-name="logicalnot" unicode="&#xac;" horiz-adv-x="520" 
d="M421 96v207h-396v74h470v-281h-74z" />
    <glyph glyph-name="mu" unicode="&#xb5;" horiz-adv-x="560" 
d="M558 60v-32l-179 -41l-9 97h-2c-47 -75 -101 -97 -179 -97l21 -83c7 -24 13 -51 13 -75c0 -44 -29 -92 -75 -92c-49 0 -78 48 -78 92v468c0 17 1 62 -9 75c-11 14 -37 14 -53 16v33l193 11v-273c0 -52 4 -107 67 -107c75 0 92 74 92 140v105c0 17 0 62 -9 75
c-10 15 -37 14 -53 16v33l193 11v-288c0 -19 0 -53 10 -69c12 -19 38 -15 57 -15z" />
    <glyph glyph-name="trademark" unicode="&#x2122;" horiz-adv-x="1000" 
d="M263 620v-297c2 -39 2 -44 62 -44v-27h-211v27c58 0 62 1 64 44v297h-39c-53 0 -74 -16 -74 -70h-35v106h385v-106h-35c0 54 -21 70 -74 70h-43zM603 656l111 -257l107 257h149v-27c-44 0 -50 2 -50 -37v-259c0 -48 3 -51 50 -54v-27h-186v27c46 1 51 5 51 53v262h-2
l-138 -342h-12l-146 342h-2v-280c0 -34 24 -35 49 -35v-27h-137v27c49 0 51 7 51 57v256c0 36 -1 37 -42 37v27h147z" />
    <glyph glyph-name="Eth" unicode="&#xd0;" horiz-adv-x="740" 
d="M262 581v-213h132v-50h-132v-99c0 -30 0 -100 10 -126c13 -35 45 -49 81 -49c155 0 170 154 170 275c0 67 -9 148 -40 208c-35 68 -105 87 -177 87c-8 0 -33 -2 -40 -9c-4 -4 -4 -18 -4 -24zM109 160v158h-80v50h80v130c0 90 0 126 -94 126v36h303c98 0 189 -19 265 -84
c80 -68 113 -160 113 -263c0 -92 -29 -175 -98 -238c-71 -64 -168 -77 -261 -77c-53 0 -106 4 -159 4c-54 0 -109 -3 -163 -4v36c94 0 94 39 94 126z" />
    <glyph glyph-name="onehalf" unicode="&#xbd;" horiz-adv-x="780" 
d="M163 658v-318c0 -14 0 -44 9 -56c10 -12 37 -11 52 -12v-21c-35 0 -72 2 -110 2c-33 0 -65 -2 -97 -2v21c12 0 40 0 49 10c11 11 11 39 11 53v224c0 13 -2 26 -6 31c-10 12 -41 12 -55 12v22c48 5 89 11 132 34h15zM654 658l-480 -658h-53l481 658h52zM674 161l-63 -46
c-17 -14 -36 -26 -47 -42h129l70 3l-24 -111h-22c0 7 0 15 1 22c1 13 -11 13 -22 13h-216c23 42 47 73 81 110l31 35c42 46 74 88 74 151c0 36 -14 86 -63 86c-33 0 -53 -29 -53 -59c0 -19 13 -42 36 -42c13 0 20 7 26 7c4 0 6 -5 6 -9c0 -26 -33 -46 -59 -46
c-43 0 -71 32 -71 70c0 68 73 103 138 103c74 0 139 -41 139 -116c0 -61 -42 -94 -91 -129z" />
    <glyph glyph-name="plusminus" unicode="&#xb1;" horiz-adv-x="520" 
d="M25 259v74h198v137h74v-137h198v-74h-198v-137h-74v137h-198zM25 0v74h470v-74h-470z" />
    <glyph glyph-name="Thorn" unicode="&#xde;" horiz-adv-x="620" 
d="M109 160v338c0 88 0 126 -94 126v36c58 -1 118 -4 165 -4c61 0 122 3 183 4v-36c-101 0 -101 -37 -101 -116c26 0 51 1 76 1c113 0 265 -32 265 -181c0 -137 -140 -178 -251 -178h-90c0 -79 0 -116 101 -116v-36c-61 1 -122 4 -183 4c-47 0 -107 -3 -165 -4v36
c94 0 94 38 94 126zM262 437v-241h21c99 0 154 27 154 135c0 82 -40 132 -124 132c-51 0 -51 -9 -51 -26z" />
    <glyph glyph-name="onequarter" unicode="&#xbc;" horiz-adv-x="780" 
d="M738 115h-66v-27c0 -14 0 -44 11 -56c12 -10 38 -10 52 -12v-21c-35 0 -70 2 -105 2s-70 -2 -104 -2v21c11 1 39 2 48 10c13 11 13 39 13 53v32h-162v34l203 247h44v-247h66v-34zM460 149h127v152h-2zM680 658l-480 -658h-53l481 658h52zM189 658v-318c0 -14 0 -44 9 -56
c10 -12 37 -11 52 -12v-21c-35 0 -72 2 -110 2c-33 0 -65 -2 -97 -2v21c12 0 40 0 49 10c11 11 11 39 11 53v224c0 13 -2 26 -6 31c-10 12 -41 12 -55 12v22c48 5 89 11 132 34h15z" />
    <glyph glyph-name="divide" unicode="&#xf7;" horiz-adv-x="520" 
d="M25 198v74h470v-74h-470zM260 363c-30 0 -53 24 -53 54c0 32 26 53 56 53c28 0 51 -25 51 -52c0 -30 -23 -55 -54 -55zM260 0c-30 0 -53 24 -53 54c0 32 26 53 56 53c28 0 51 -25 51 -52c0 -30 -23 -55 -54 -55z" />
    <glyph glyph-name="brokenbar" unicode="&#xa6;" horiz-adv-x="220" 
d="M73 675h74v-350h-74v350zM73 175h74v-350h-74v350z" />
    <glyph glyph-name="degree" unicode="&#xb0;" horiz-adv-x="400" 
d="M325 551c0 -69 -57 -125 -125 -125c-69 0 -125 56 -125 125c-1 68 56 125 125 125c68 0 125 -57 125 -125zM274 551c0 40 -34 74 -75 74c-40 0 -74 -34 -73 -74c0 -40 33 -74 74 -74c40 0 74 34 74 74z" />
    <glyph glyph-name="thorn" unicode="&#xfe;" horiz-adv-x="580" 
d="M302 375c-52 0 -98 -51 -98 -95v-117c0 -64 23 -111 95 -111c90 0 105 94 105 164c0 66 -18 159 -102 159zM204 660v-302h2c27 51 81 82 143 82c119 0 200 -111 200 -223c0 -122 -86 -230 -213 -230c-51 0 -99 26 -132 61v-187c0 -76 -2 -91 77 -92v-32
c-47 1 -91 3 -135 4c-49 -1 -98 -3 -147 -4v32c78 2 74 19 74 92v591c0 60 0 83 -12 112c-9 22 -31 24 -53 24v33c63 6 126 18 196 39z" />
    <glyph glyph-name="threequarters" unicode="&#xbe;" horiz-adv-x="780" 
d="M753 115h-66v-27c0 -14 0 -44 11 -56c12 -10 38 -10 52 -12v-21c-35 0 -70 2 -105 2s-70 -2 -104 -2v21c11 1 39 2 48 10c13 11 13 39 13 53v32h-162v34l203 247h44v-247h66v-34zM695 658l-480 -658h-53l481 658h52zM475 149h127v152h-2zM170 452c-17 0 -27 -10 -35 -21
c-7 -9 -13 -18 -26 -18c-10 0 -21 8 -21 18c0 14 15 22 26 27c49 25 88 56 88 111c0 29 -15 65 -51 65c-25 0 -50 -23 -50 -48c0 -13 10 -26 24 -26c8 0 18 6 21 6c5 0 6 -7 6 -11c0 -25 -29 -41 -53 -41c-31 0 -54 21 -54 49c0 62 77 95 134 95c52 0 108 -24 108 -79
c0 -58 -58 -84 -105 -102l1 -2c7 1 15 1 24 1c58 0 108 -38 108 -93c0 -85 -90 -139 -176 -139c-39 0 -112 16 -112 62c0 19 17 34 36 34c25 0 35 -16 44 -35c11 -21 17 -37 45 -37c53 0 63 66 63 103c0 27 -4 81 -45 81z" />
    <glyph glyph-name="registered" unicode="&#xae;" horiz-adv-x="860" 
d="M431 -13c-191 0 -345 152 -345 342c0 188 154 340 345 340c190 0 343 -152 343 -340c0 -190 -153 -342 -343 -342zM431 604c-155 0 -275 -123 -275 -275c0 -154 120 -277 275 -277c154 0 273 123 273 277c0 152 -119 275 -273 275zM394 315v-109c0 -30 12 -26 39 -26v-23
h-162v23c28 0 42 -5 42 23v272c0 21 -17 17 -40 17v25h170c64 0 132 -14 132 -93c0 -48 -44 -85 -89 -91v-2c67 -6 84 -151 132 -151v-23h-74c-40 0 -48 41 -65 76c-13 29 -27 82 -60 82h-25zM394 477v-132c7 -2 15 -3 22 -3c50 0 78 25 78 77c0 43 -24 71 -68 71h-16
c-18 0 -16 -6 -16 -13z" />
    <glyph glyph-name="minus" unicode="&#x2212;" horiz-adv-x="520" 
d="M25 198v74h470v-74h-470z" />
    <glyph glyph-name="eth" unicode="&#xf0;" horiz-adv-x="560" 
d="M280 400c-86 0 -97 -117 -97 -183c0 -65 7 -190 97 -190s97 125 97 190c0 66 -11 183 -97 183zM141 492l-38 38l133 54c-23 19 -61 36 -109 50l49 48c58 -13 110 -33 153 -59l127 52l38 -38l-115 -47c94 -77 143 -189 143 -339c0 -175 -127 -264 -242 -264
c-127 0 -242 90 -242 229c0 132 120 224 242 224c31 0 62 -13 73 -28l2 2c-8 39 -42 100 -80 133z" />
    <glyph glyph-name="multiply" unicode="&#xd7;" horiz-adv-x="520" 
d="M208 235l-158 158l53 52l157 -158l158 158l52 -52l-157 -158l157 -158l-52 -52l-158 158l-157 -158l-53 52z" />
    <glyph glyph-name="copyright" unicode="&#xa9;" horiz-adv-x="860" 
d="M430 -13c-190 0 -344 152 -344 341s154 341 344 341s344 -152 344 -341s-154 -341 -344 -341zM430 604c-154 0 -274 -123 -274 -276s120 -276 274 -276s274 123 274 276s-120 276 -274 276zM577 484v-99h-40c-16 44 -33 87 -91 87c-71 0 -99 -73 -99 -133
c0 -73 33 -163 119 -163c45 0 67 26 91 58l30 -12c-25 -61 -96 -86 -159 -86c-110 0 -179 80 -179 186c0 110 78 183 190 190c33 2 102 -10 138 -28z" />
    <glyph glyph-name="Aacute" unicode="&#xc1;" horiz-adv-x="640" 
d="M159 202l-12 -29c-9 -25 -24 -57 -24 -84c0 -49 46 -52 83 -55v-36c-42 1 -84 3 -126 4c-38 -1 -76 -3 -114 -4v36c82 1 111 97 137 159l198 476h48l206 -514c11 -27 31 -77 51 -97c18 -16 44 -21 68 -24v-36c-60 1 -120 3 -180 4c-52 -1 -105 -3 -157 -4v36
c30 4 83 2 83 45c0 16 -13 51 -19 66l-21 57h-221zM178 252h182l-88 230zM276 727l112 122c16 17 40 48 65 48c21 0 38 -18 38 -39c0 -18 -26 -34 -39 -42l-24 -16l-120 -73h-32z" />
    <glyph glyph-name="Acircumflex" unicode="&#xc2;" horiz-adv-x="640" 
d="M159 202l-12 -29c-9 -25 -24 -57 -24 -84c0 -49 46 -52 83 -55v-36c-42 1 -84 3 -126 4c-38 -1 -76 -3 -114 -4v36c82 1 111 97 137 159l198 476h48l206 -514c11 -27 31 -77 51 -97c18 -16 44 -21 68 -24v-36c-60 1 -120 3 -180 4c-52 -1 -105 -3 -157 -4v36
c30 4 83 2 83 45c0 16 -13 51 -19 66l-21 57h-221zM178 252h182l-88 230zM447 727h-32l-99 94l-97 -94h-33l99 165h62z" />
    <glyph glyph-name="Adieresis" unicode="&#xc4;" horiz-adv-x="640" 
d="M159 202l-12 -29c-9 -25 -24 -57 -24 -84c0 -49 46 -52 83 -55v-36c-42 1 -84 3 -126 4c-38 -1 -76 -3 -114 -4v36c82 1 111 97 137 159l198 476h48l206 -514c11 -27 31 -77 51 -97c18 -16 44 -21 68 -24v-36c-60 1 -120 3 -180 4c-52 -1 -105 -3 -157 -4v36
c30 4 83 2 83 45c0 16 -13 51 -19 66l-21 57h-221zM178 252h182l-88 230zM403 755c-30 0 -53 24 -53 54c0 32 26 53 56 53c28 0 51 -25 51 -52c0 -30 -23 -55 -54 -55zM239 755c-30 0 -53 24 -53 54c0 32 26 53 56 53c28 0 51 -25 51 -52c0 -30 -23 -55 -54 -55z" />
    <glyph glyph-name="Agrave" unicode="&#xc0;" horiz-adv-x="640" 
d="M159 202l-12 -29c-9 -25 -24 -57 -24 -84c0 -49 46 -52 83 -55v-36c-42 1 -84 3 -126 4c-38 -1 -76 -3 -114 -4v36c82 1 111 97 137 159l198 476h48l206 -514c11 -27 31 -77 51 -97c18 -16 44 -21 68 -24v-36c-60 1 -120 3 -180 4c-52 -1 -105 -3 -157 -4v36
c30 4 83 2 83 45c0 16 -13 51 -19 66l-21 57h-221zM178 252h182l-88 230zM431 727h-32l-120 73l-24 16c-13 8 -39 24 -39 42c0 21 17 39 38 39c25 0 49 -31 65 -48z" />
    <glyph glyph-name="Aring" unicode="&#xc5;" horiz-adv-x="640" 
d="M159 202l-12 -29c-9 -25 -24 -57 -24 -84c0 -49 46 -52 83 -55v-36c-42 1 -84 3 -126 4c-38 -1 -76 -3 -114 -4v36c82 1 111 97 137 159l198 476h48l206 -514c11 -27 31 -77 51 -97c18 -16 44 -21 68 -24v-36c-60 1 -120 3 -180 4c-52 -1 -105 -3 -157 -4v36
c30 4 83 2 83 45c0 16 -13 51 -19 66l-21 57h-221zM178 252h182l-88 230zM318 709c-55 0 -102 44 -102 100c0 58 49 99 105 99s100 -47 100 -103c0 -55 -50 -96 -103 -96zM318 749c31 0 58 26 58 58c0 30 -21 62 -54 62s-62 -24 -62 -58c0 -33 24 -62 58 -62z" />
    <glyph glyph-name="Atilde" unicode="&#xc3;" horiz-adv-x="640" 
d="M159 202l-12 -29c-9 -25 -24 -57 -24 -84c0 -49 46 -52 83 -55v-36c-42 1 -84 3 -126 4c-38 -1 -76 -3 -114 -4v36c82 1 111 97 137 159l198 476h48l206 -514c11 -27 31 -77 51 -97c18 -16 44 -21 68 -24v-36c-60 1 -120 3 -180 4c-52 -1 -105 -3 -157 -4v36
c30 4 83 2 83 45c0 16 -13 51 -19 66l-21 57h-221zM178 252h182l-88 230zM209 756l-23 3c6 42 43 98 91 98c23 0 37 -6 57 -15c19 -8 42 -19 63 -19c20 0 36 17 41 35l24 -3c-7 -44 -37 -97 -88 -97c-18 0 -38 8 -54 15c-18 6 -43 17 -62 17c-23 0 -42 -13 -49 -34z" />
    <glyph glyph-name="Ccedilla" unicode="&#xc7;" horiz-adv-x="700" 
d="M336 -82l10 71c-177 16 -297 140 -297 327c0 205 146 353 350 353c72 0 132 -18 189 -63l15 57h43l9 -210h-44c-21 96 -86 166 -189 166c-155 0 -200 -165 -200 -292c0 -137 47 -288 206 -290c115 -2 176 86 194 191h40v-225h-40l-19 58c-58 -54 -139 -74 -217 -74h-7
l-5 -42l18 1c38 0 78 -14 78 -59c0 -43 -46 -65 -83 -65c-27 0 -77 13 -77 47c0 11 10 21 21 21c29 0 15 -41 58 -41c18 0 34 16 34 34c0 28 -33 38 -56 38c-10 0 -21 -3 -31 -3z" />
    <glyph glyph-name="Eacute" unicode="&#xc9;" horiz-adv-x="620" 
d="M15 -2v36c96 -3 94 44 94 126v338c0 82 2 129 -94 126v36c57 -1 113 -3 170 -4c122 1 245 3 367 4l8 -176h-43c-17 99 -74 130 -170 130c-12 0 -76 0 -82 -11c-3 -5 -3 -49 -3 -57v-185c81 0 133 15 137 108h40c-1 -46 -3 -92 -4 -138c1 -41 3 -83 4 -124h-40
c-19 92 -45 108 -137 108v-117c0 -94 -3 -154 115 -154c113 0 157 34 182 147h40c-1 -38 -3 -75 -4 -113c1 -27 3 -53 4 -80c-138 1 -276 3 -414 4c-57 -1 -113 -3 -170 -4zM266 727l112 122c16 17 40 48 65 48c21 0 38 -18 38 -39c0 -18 -26 -34 -39 -42l-24 -16l-120 -73
h-32z" />
    <glyph glyph-name="Ecircumflex" unicode="&#xca;" horiz-adv-x="620" 
d="M15 -2v36c96 -3 94 44 94 126v338c0 82 2 129 -94 126v36c57 -1 113 -3 170 -4c122 1 245 3 367 4l8 -176h-43c-17 99 -74 130 -170 130c-12 0 -76 0 -82 -11c-3 -5 -3 -49 -3 -57v-185c81 0 133 15 137 108h40c-1 -46 -3 -92 -4 -138c1 -41 3 -83 4 -124h-40
c-19 92 -45 108 -137 108v-117c0 -94 -3 -154 115 -154c113 0 157 34 182 147h40c-1 -38 -3 -75 -4 -113c1 -27 3 -53 4 -80c-138 1 -276 3 -414 4c-57 -1 -113 -3 -170 -4zM437 727h-32l-99 94l-97 -94h-33l99 165h62z" />
    <glyph glyph-name="Edieresis" unicode="&#xcb;" horiz-adv-x="620" 
d="M15 -2v36c96 -3 94 44 94 126v338c0 82 2 129 -94 126v36c57 -1 113 -3 170 -4c122 1 245 3 367 4l8 -176h-43c-17 99 -74 130 -170 130c-12 0 -76 0 -82 -11c-3 -5 -3 -49 -3 -57v-185c81 0 133 15 137 108h40c-1 -46 -3 -92 -4 -138c1 -41 3 -83 4 -124h-40
c-19 92 -45 108 -137 108v-117c0 -94 -3 -154 115 -154c113 0 157 34 182 147h40c-1 -38 -3 -75 -4 -113c1 -27 3 -53 4 -80c-138 1 -276 3 -414 4c-57 -1 -113 -3 -170 -4zM393 755c-30 0 -53 24 -53 54c0 32 26 53 56 53c28 0 51 -25 51 -52c0 -30 -23 -55 -54 -55z
M229 755c-30 0 -53 24 -53 54c0 32 26 53 56 53c28 0 51 -25 51 -52c0 -30 -23 -55 -54 -55z" />
    <glyph glyph-name="Egrave" unicode="&#xc8;" horiz-adv-x="620" 
d="M15 -2v36c96 -3 94 44 94 126v338c0 82 2 129 -94 126v36c57 -1 113 -3 170 -4c122 1 245 3 367 4l8 -176h-43c-17 99 -74 130 -170 130c-12 0 -76 0 -82 -11c-3 -5 -3 -49 -3 -57v-185c81 0 133 15 137 108h40c-1 -46 -3 -92 -4 -138c1 -41 3 -83 4 -124h-40
c-19 92 -45 108 -137 108v-117c0 -94 -3 -154 115 -154c113 0 157 34 182 147h40c-1 -38 -3 -75 -4 -113c1 -27 3 -53 4 -80c-138 1 -276 3 -414 4c-57 -1 -113 -3 -170 -4zM421 727h-32l-120 73l-24 16c-13 8 -39 24 -39 42c0 21 17 39 38 39c25 0 49 -31 65 -48z" />
    <glyph glyph-name="Iacute" unicode="&#xcd;" horiz-adv-x="380" 
d="M114 160v336c0 83 3 130 -94 128v36c55 -1 109 -3 164 -4c59 1 119 3 177 4v-36c-97 1 -94 -46 -94 -128v-340c0 -82 -1 -124 94 -122v-36c-58 1 -117 3 -176 4c-55 -1 -110 -3 -165 -4v36c97 -3 94 44 94 126zM146 727l112 122c16 17 40 48 65 48c21 0 38 -18 38 -39
c0 -18 -26 -34 -39 -42l-24 -16l-120 -73h-32z" />
    <glyph glyph-name="Icircumflex" unicode="&#xce;" horiz-adv-x="380" 
d="M114 160v336c0 83 3 130 -94 128v36c55 -1 109 -3 164 -4c59 1 119 3 177 4v-36c-97 1 -94 -46 -94 -128v-340c0 -82 -1 -124 94 -122v-36c-58 1 -117 3 -176 4c-55 -1 -110 -3 -165 -4v36c97 -3 94 44 94 126zM317 727h-32l-99 94l-97 -94h-33l99 165h62z" />
    <glyph glyph-name="Idieresis" unicode="&#xcf;" horiz-adv-x="380" 
d="M114 160v336c0 83 3 130 -94 128v36c55 -1 109 -3 164 -4c59 1 119 3 177 4v-36c-97 1 -94 -46 -94 -128v-340c0 -82 -1 -124 94 -122v-36c-58 1 -117 3 -176 4c-55 -1 -110 -3 -165 -4v36c97 -3 94 44 94 126zM273 755c-30 0 -53 24 -53 54c0 32 26 53 56 53
c28 0 51 -25 51 -52c0 -30 -23 -55 -54 -55zM109 755c-30 0 -53 24 -53 54c0 32 26 53 56 53c28 0 51 -25 51 -52c0 -30 -23 -55 -54 -55z" />
    <glyph glyph-name="Igrave" unicode="&#xcc;" horiz-adv-x="380" 
d="M114 160v336c0 83 3 130 -94 128v36c55 -1 109 -3 164 -4c59 1 119 3 177 4v-36c-97 1 -94 -46 -94 -128v-340c0 -82 -1 -124 94 -122v-36c-58 1 -117 3 -176 4c-55 -1 -110 -3 -165 -4v36c97 -3 94 44 94 126zM301 727h-32l-120 73l-24 16c-13 8 -39 24 -39 42
c0 21 17 39 38 39c25 0 49 -31 65 -48z" />
    <glyph glyph-name="Ntilde" unicode="&#xd1;" horiz-adv-x="780" 
d="M618 -16l-454 517v-309c0 -76 0 -154 96 -158v-36c-40 1 -81 3 -121 4c-38 -1 -76 -3 -114 -4v36c83 8 89 49 89 120v402c-32 45 -45 63 -100 68v36c32 -1 63 -3 95 -4c38 1 75 3 113 4l395 -455v266c0 76 0 149 -95 153v36c38 -1 76 -3 114 -4c40 1 80 3 120 4v-36
c-28 -5 -60 -9 -74 -36c-15 -29 -15 -90 -15 -123v-481h-49zM279 756l-23 3c6 42 43 98 91 98c23 0 37 -6 57 -15c19 -8 42 -19 63 -19c20 0 36 17 41 35l24 -3c-7 -44 -37 -97 -88 -97c-18 0 -38 8 -54 15c-18 6 -43 17 -62 17c-23 0 -42 -13 -49 -34z" />
    <glyph glyph-name="Oacute" unicode="&#xd3;" horiz-adv-x="840" 
d="M418 -13c-201 0 -369 130 -369 341c0 214 171 341 372 341c202 0 371 -128 371 -341s-172 -341 -374 -341zM418 623c-160 0 -196 -161 -196 -289s35 -301 196 -301c164 0 201 151 201 289c0 134 -35 301 -201 301zM376 727l112 122c16 17 40 48 65 48c21 0 38 -18 38 -39
c0 -18 -26 -34 -39 -42l-24 -16l-120 -73h-32z" />
    <glyph glyph-name="Ocircumflex" unicode="&#xd4;" horiz-adv-x="840" 
d="M418 -13c-201 0 -369 130 -369 341c0 214 171 341 372 341c202 0 371 -128 371 -341s-172 -341 -374 -341zM418 623c-160 0 -196 -161 -196 -289s35 -301 196 -301c164 0 201 151 201 289c0 134 -35 301 -201 301zM547 727h-32l-99 94l-97 -94h-33l99 165h62z" />
    <glyph glyph-name="Odieresis" unicode="&#xd6;" horiz-adv-x="840" 
d="M418 -13c-201 0 -369 130 -369 341c0 214 171 341 372 341c202 0 371 -128 371 -341s-172 -341 -374 -341zM418 623c-160 0 -196 -161 -196 -289s35 -301 196 -301c164 0 201 151 201 289c0 134 -35 301 -201 301zM503 755c-30 0 -53 24 -53 54c0 32 26 53 56 53
c28 0 51 -25 51 -52c0 -30 -23 -55 -54 -55zM339 755c-30 0 -53 24 -53 54c0 32 26 53 56 53c28 0 51 -25 51 -52c0 -30 -23 -55 -54 -55z" />
    <glyph glyph-name="Ograve" unicode="&#xd2;" horiz-adv-x="840" 
d="M418 -13c-201 0 -369 130 -369 341c0 214 171 341 372 341c202 0 371 -128 371 -341s-172 -341 -374 -341zM418 623c-160 0 -196 -161 -196 -289s35 -301 196 -301c164 0 201 151 201 289c0 134 -35 301 -201 301zM531 727h-32l-120 73l-24 16c-13 8 -39 24 -39 42
c0 21 17 39 38 39c25 0 49 -31 65 -48z" />
    <glyph glyph-name="Otilde" unicode="&#xd5;" horiz-adv-x="840" 
d="M418 -13c-201 0 -369 130 -369 341c0 214 171 341 372 341c202 0 371 -128 371 -341s-172 -341 -374 -341zM418 623c-160 0 -196 -161 -196 -289s35 -301 196 -301c164 0 201 151 201 289c0 134 -35 301 -201 301zM309 756l-23 3c6 42 43 98 91 98c23 0 37 -6 57 -15
c19 -8 42 -19 63 -19c20 0 36 17 41 35l24 -3c-7 -44 -37 -97 -88 -97c-18 0 -38 8 -54 15c-18 6 -43 17 -62 17c-23 0 -42 -13 -49 -34z" />
    <glyph glyph-name="Scaron" unicode="&#x160;" horiz-adv-x="540" 
d="M94 55l-14 -55h-44v208h40c28 -91 74 -175 185 -175c58 0 114 38 114 100c0 93 -96 118 -166 148c-90 39 -163 89 -163 199c0 123 94 189 210 189c54 0 110 -12 150 -49l13 39h43l6 -180h-43c-18 77 -75 144 -162 144c-49 0 -99 -28 -99 -82c0 -75 76 -96 133 -122
c107 -46 208 -93 208 -227c0 -135 -114 -205 -237 -205c-64 0 -129 22 -174 68zM397 892l-100 -165h-62l-99 165h33l97 -95l99 95h32z" />
    <glyph glyph-name="Uacute" unicode="&#xda;" horiz-adv-x="780" 
d="M15 624v36c52 -1 105 -3 157 -4c62 1 124 3 186 4v-36c-97 3 -96 -46 -96 -128v-241c0 -127 30 -203 173 -203c125 0 191 64 191 185v208c0 36 1 107 -18 138c-17 28 -47 38 -77 41v36c38 -1 76 -3 114 -4c40 1 81 3 121 4v-36c-30 -5 -61 -12 -76 -41
c-18 -35 -14 -99 -14 -138v-187c0 -181 -94 -271 -277 -271c-175 0 -290 61 -290 269v240c0 83 3 128 -94 128zM346 727l112 122c16 17 40 48 65 48c21 0 38 -18 38 -39c0 -18 -26 -34 -39 -42l-24 -16l-120 -73h-32z" />
    <glyph glyph-name="Ucircumflex" unicode="&#xdb;" horiz-adv-x="780" 
d="M15 624v36c52 -1 105 -3 157 -4c62 1 124 3 186 4v-36c-97 3 -96 -46 -96 -128v-241c0 -127 30 -203 173 -203c125 0 191 64 191 185v208c0 36 1 107 -18 138c-17 28 -47 38 -77 41v36c38 -1 76 -3 114 -4c40 1 81 3 121 4v-36c-30 -5 -61 -12 -76 -41
c-18 -35 -14 -99 -14 -138v-187c0 -181 -94 -271 -277 -271c-175 0 -290 61 -290 269v240c0 83 3 128 -94 128zM517 727h-32l-99 94l-97 -94h-33l99 165h62z" />
    <glyph glyph-name="Udieresis" unicode="&#xdc;" horiz-adv-x="780" 
d="M15 624v36c52 -1 105 -3 157 -4c62 1 124 3 186 4v-36c-97 3 -96 -46 -96 -128v-241c0 -127 30 -203 173 -203c125 0 191 64 191 185v208c0 36 1 107 -18 138c-17 28 -47 38 -77 41v36c38 -1 76 -3 114 -4c40 1 81 3 121 4v-36c-30 -5 -61 -12 -76 -41
c-18 -35 -14 -99 -14 -138v-187c0 -181 -94 -271 -277 -271c-175 0 -290 61 -290 269v240c0 83 3 128 -94 128zM473 755c-30 0 -53 24 -53 54c0 32 26 53 56 53c28 0 51 -25 51 -52c0 -30 -23 -55 -54 -55zM309 755c-30 0 -53 24 -53 54c0 32 26 53 56 53
c28 0 51 -25 51 -52c0 -30 -23 -55 -54 -55z" />
    <glyph glyph-name="Ugrave" unicode="&#xd9;" horiz-adv-x="780" 
d="M15 624v36c52 -1 105 -3 157 -4c62 1 124 3 186 4v-36c-97 3 -96 -46 -96 -128v-241c0 -127 30 -203 173 -203c125 0 191 64 191 185v208c0 36 1 107 -18 138c-17 28 -47 38 -77 41v36c38 -1 76 -3 114 -4c40 1 81 3 121 4v-36c-30 -5 -61 -12 -76 -41
c-18 -35 -14 -99 -14 -138v-187c0 -181 -94 -271 -277 -271c-175 0 -290 61 -290 269v240c0 83 3 128 -94 128zM501 727h-32l-120 73l-24 16c-13 8 -39 24 -39 42c0 21 17 39 38 39c25 0 49 -31 65 -48z" />
    <glyph glyph-name="Yacute" unicode="&#xdd;" horiz-adv-x="620" 
d="M389 268v-108c0 -86 -2 -129 98 -126v-36c-63 1 -125 3 -188 4c-53 -1 -107 -3 -160 -4v36c99 -1 95 40 97 126v88l-173 308c-27 45 -32 56 -84 68v36c50 -1 101 -3 151 -4c57 1 114 3 171 4v-36c-27 -2 -75 -5 -75 -43c0 -20 26 -65 36 -83l100 -181l96 161
c13 24 38 70 38 96c0 43 -38 50 -73 50v36c34 -1 67 -3 101 -4c39 1 79 3 118 4v-36c-45 -4 -63 -33 -84 -70zM291 727l112 122c16 17 40 48 65 48c21 0 38 -18 38 -39c0 -18 -26 -34 -39 -42l-24 -16l-120 -73h-32z" />
    <glyph glyph-name="Ydieresis" unicode="&#x178;" horiz-adv-x="620" 
d="M389 268v-108c0 -86 -2 -129 98 -126v-36c-63 1 -125 3 -188 4c-53 -1 -107 -3 -160 -4v36c99 -1 95 40 97 126v88l-173 308c-27 45 -32 56 -84 68v36c50 -1 101 -3 151 -4c57 1 114 3 171 4v-36c-27 -2 -75 -5 -75 -43c0 -20 26 -65 36 -83l100 -181l96 161
c13 24 38 70 38 96c0 43 -38 50 -73 50v36c34 -1 67 -3 101 -4c39 1 79 3 118 4v-36c-45 -4 -63 -33 -84 -70zM393 755c-30 0 -53 24 -53 54c0 32 26 53 56 53c28 0 51 -25 51 -52c0 -30 -23 -55 -54 -55zM229 755c-30 0 -53 24 -53 54c0 32 26 53 56 53c28 0 51 -25 51 -52
c0 -30 -23 -55 -54 -55z" />
    <glyph glyph-name="Zcaron" unicode="&#x17d;" horiz-adv-x="580" 
d="M560 660v-40l-360 -570h98c107 0 209 12 220 147h42l-4 -197h-536v36l363 574h-103c-135 0 -176 -48 -186 -133h-43l6 183h503zM417 892l-100 -165h-62l-99 165h33l97 -95l99 95h32z" />
    <glyph glyph-name="aacute" unicode="&#xe1;" horiz-adv-x="480" 
d="M284 124v119c-50 -22 -116 -49 -116 -113c0 -32 13 -68 49 -68c30 0 67 29 67 62zM470 76l20 -27c-21 -39 -78 -62 -120 -62c-48 0 -74 22 -87 67c-36 -38 -89 -67 -141 -67c-63 0 -115 43 -115 108c0 99 113 133 201 167c31 12 56 12 56 50c0 44 -4 88 -58 88
c-38 0 -49 -16 -63 -50c-12 -32 -25 -63 -65 -63c-31 0 -54 22 -54 54c0 85 131 99 193 99c86 0 178 -22 178 -124v-203c0 -17 0 -51 21 -51c16 0 23 5 34 14zM136 499l112 122c16 17 40 48 65 48c21 0 38 -18 38 -39c0 -18 -26 -34 -39 -42l-24 -16l-120 -73h-32z" />
    <glyph glyph-name="acircumflex" unicode="&#xe2;" horiz-adv-x="480" 
d="M284 124v119c-50 -22 -116 -49 -116 -113c0 -32 13 -68 49 -68c30 0 67 29 67 62zM470 76l20 -27c-21 -39 -78 -62 -120 -62c-48 0 -74 22 -87 67c-36 -38 -89 -67 -141 -67c-63 0 -115 43 -115 108c0 99 113 133 201 167c31 12 56 12 56 50c0 44 -4 88 -58 88
c-38 0 -49 -16 -63 -50c-12 -32 -25 -63 -65 -63c-31 0 -54 22 -54 54c0 85 131 99 193 99c86 0 178 -22 178 -124v-203c0 -17 0 -51 21 -51c16 0 23 5 34 14zM367 499h-32l-99 94l-97 -94h-33l99 165h62z" />
    <glyph glyph-name="adieresis" unicode="&#xe4;" horiz-adv-x="480" 
d="M284 124v119c-50 -22 -116 -49 -116 -113c0 -32 13 -68 49 -68c30 0 67 29 67 62zM470 76l20 -27c-21 -39 -78 -62 -120 -62c-48 0 -74 22 -87 67c-36 -38 -89 -67 -141 -67c-63 0 -115 43 -115 108c0 99 113 133 201 167c31 12 56 12 56 50c0 44 -4 88 -58 88
c-38 0 -49 -16 -63 -50c-12 -32 -25 -63 -65 -63c-31 0 -54 22 -54 54c0 85 131 99 193 99c86 0 178 -22 178 -124v-203c0 -17 0 -51 21 -51c16 0 23 5 34 14zM323 527c-30 0 -53 24 -53 54c0 32 26 53 56 53c28 0 51 -25 51 -52c0 -30 -23 -55 -54 -55zM159 527
c-30 0 -53 24 -53 54c0 32 26 53 56 53c28 0 51 -25 51 -52c0 -30 -23 -55 -54 -55z" />
    <glyph glyph-name="agrave" unicode="&#xe0;" horiz-adv-x="480" 
d="M284 124v119c-50 -22 -116 -49 -116 -113c0 -32 13 -68 49 -68c30 0 67 29 67 62zM470 76l20 -27c-21 -39 -78 -62 -120 -62c-48 0 -74 22 -87 67c-36 -38 -89 -67 -141 -67c-63 0 -115 43 -115 108c0 99 113 133 201 167c31 12 56 12 56 50c0 44 -4 88 -58 88
c-38 0 -49 -16 -63 -50c-12 -32 -25 -63 -65 -63c-31 0 -54 22 -54 54c0 85 131 99 193 99c86 0 178 -22 178 -124v-203c0 -17 0 -51 21 -51c16 0 23 5 34 14zM303 499h-32l-120 73l-24 16c-13 8 -39 24 -39 42c0 21 17 39 38 39c25 0 49 -31 65 -48z" />
    <glyph glyph-name="aring" unicode="&#xe5;" horiz-adv-x="480" 
d="M284 124v119c-50 -22 -116 -49 -116 -113c0 -32 13 -68 49 -68c30 0 67 29 67 62zM470 76l20 -27c-21 -39 -78 -62 -120 -62c-48 0 -74 22 -87 67c-36 -38 -89 -67 -141 -67c-63 0 -115 43 -115 108c0 99 113 133 201 167c31 12 56 12 56 50c0 44 -4 88 -58 88
c-38 0 -49 -16 -63 -50c-12 -32 -25 -63 -65 -63c-31 0 -54 22 -54 54c0 85 131 99 193 99c86 0 178 -22 178 -124v-203c0 -17 0 -51 21 -51c16 0 23 5 34 14zM238 481c-55 0 -102 44 -102 100c0 58 49 99 105 99s100 -47 100 -103c0 -55 -50 -96 -103 -96zM238 521
c31 0 58 26 58 58c0 30 -21 62 -54 62s-62 -24 -62 -58c0 -33 24 -62 58 -62z" />
    <glyph glyph-name="atilde" unicode="&#xe3;" horiz-adv-x="480" 
d="M284 124v119c-50 -22 -116 -49 -116 -113c0 -32 13 -68 49 -68c30 0 67 29 67 62zM470 76l20 -27c-21 -39 -78 -62 -120 -62c-48 0 -74 22 -87 67c-36 -38 -89 -67 -141 -67c-63 0 -115 43 -115 108c0 99 113 133 201 167c31 12 56 12 56 50c0 44 -4 88 -58 88
c-38 0 -49 -16 -63 -50c-12 -32 -25 -63 -65 -63c-31 0 -54 22 -54 54c0 85 131 99 193 99c86 0 178 -22 178 -124v-203c0 -17 0 -51 21 -51c16 0 23 5 34 14zM129 528l-23 3c6 42 43 98 91 98c23 0 37 -6 57 -15c19 -8 42 -19 63 -19c20 0 36 17 41 35l24 -3
c-7 -44 -37 -97 -88 -97c-18 0 -38 8 -54 15c-18 6 -43 17 -62 17c-23 0 -42 -13 -49 -34z" />
    <glyph glyph-name="ccedilla" unicode="&#xe7;" horiz-adv-x="460" 
d="M186 -82l10 76c-99 21 -164 101 -164 213c0 144 113 233 250 233c55 0 158 -25 158 -96c0 -29 -23 -54 -52 -54c-80 0 -52 110 -122 110c-80 0 -89 -118 -89 -177c0 -81 19 -180 121 -180c53 0 84 33 117 71l31 -27c-45 -66 -113 -100 -192 -100c-8 0 -16 0 -24 1l-6 -43
l18 1c38 0 78 -14 78 -59c0 -43 -46 -65 -83 -65c-27 0 -77 13 -77 47c0 11 10 21 21 21c29 0 15 -41 58 -41c18 0 34 16 34 34c0 28 -33 38 -56 38c-10 0 -21 -3 -31 -3z" />
    <glyph glyph-name="eacute" unicode="&#xe9;" horiz-adv-x="500" 
d="M431 231h-254c-2 -88 25 -188 131 -188c57 0 84 28 122 67l31 -25c-43 -66 -113 -98 -191 -98c-131 0 -232 83 -238 219c-6 139 100 234 236 234c107 0 203 -73 203 -185c0 -28 -16 -24 -40 -24zM178 271h133c21 0 29 7 29 28c0 46 -28 101 -80 101
c-61 0 -80 -76 -82 -129zM146 499l112 122c16 17 40 48 65 48c21 0 38 -18 38 -39c0 -18 -26 -34 -39 -42l-24 -16l-120 -73h-32z" />
    <glyph glyph-name="ecircumflex" unicode="&#xea;" horiz-adv-x="500" 
d="M431 231h-254c-2 -88 25 -188 131 -188c57 0 84 28 122 67l31 -25c-43 -66 -113 -98 -191 -98c-131 0 -232 83 -238 219c-6 139 100 234 236 234c107 0 203 -73 203 -185c0 -28 -16 -24 -40 -24zM178 271h133c21 0 29 7 29 28c0 46 -28 101 -80 101
c-61 0 -80 -76 -82 -129zM377 499h-32l-99 94l-97 -94h-33l99 165h62z" />
    <glyph glyph-name="edieresis" unicode="&#xeb;" horiz-adv-x="500" 
d="M431 231h-254c-2 -88 25 -188 131 -188c57 0 84 28 122 67l31 -25c-43 -66 -113 -98 -191 -98c-131 0 -232 83 -238 219c-6 139 100 234 236 234c107 0 203 -73 203 -185c0 -28 -16 -24 -40 -24zM178 271h133c21 0 29 7 29 28c0 46 -28 101 -80 101
c-61 0 -80 -76 -82 -129zM333 527c-30 0 -53 24 -53 54c0 32 26 53 56 53c28 0 51 -25 51 -52c0 -30 -23 -55 -54 -55zM169 527c-30 0 -53 24 -53 54c0 32 26 53 56 53c28 0 51 -25 51 -52c0 -30 -23 -55 -54 -55z" />
    <glyph glyph-name="egrave" unicode="&#xe8;" horiz-adv-x="500" 
d="M431 231h-254c-2 -88 25 -188 131 -188c57 0 84 28 122 67l31 -25c-43 -66 -113 -98 -191 -98c-131 0 -232 83 -238 219c-6 139 100 234 236 234c107 0 203 -73 203 -185c0 -28 -16 -24 -40 -24zM178 271h133c21 0 29 7 29 28c0 46 -28 101 -80 101
c-61 0 -80 -76 -82 -129zM313 499h-32l-120 73l-24 16c-13 8 -39 24 -39 42c0 21 17 39 38 39c25 0 49 -31 65 -48z" />
    <glyph glyph-name="iacute" unicode="&#xed;" horiz-adv-x="280" 
d="M206 440v-317c0 -17 0 -62 10 -75c11 -15 37 -18 53 -18v-32c-40 1 -81 3 -123 4c-45 -1 -89 -3 -134 -4v32c16 0 42 3 53 18c10 13 10 58 10 75v173c0 60 -11 82 -64 81v33c65 5 129 14 195 30zM36 499l112 122c16 17 40 48 65 48c21 0 38 -18 38 -39
c0 -18 -26 -34 -39 -42l-24 -16l-120 -73h-32z" />
    <glyph glyph-name="icircumflex" unicode="&#xee;" horiz-adv-x="280" 
d="M206 440v-317c0 -17 0 -62 10 -75c11 -15 37 -18 53 -18v-32c-40 1 -81 3 -123 4c-45 -1 -89 -3 -134 -4v32c16 0 42 3 53 18c10 13 10 58 10 75v173c0 60 -11 82 -64 81v33c65 5 129 14 195 30zM267 499h-32l-99 94l-97 -94h-33l99 165h62z" />
    <glyph glyph-name="idieresis" unicode="&#xef;" horiz-adv-x="280" 
d="M206 440v-317c0 -17 0 -62 10 -75c11 -15 37 -18 53 -18v-32c-40 1 -81 3 -123 4c-45 -1 -89 -3 -134 -4v32c16 0 42 3 53 18c10 13 10 58 10 75v173c0 60 -11 82 -64 81v33c65 5 129 14 195 30zM223 527c-30 0 -53 24 -53 54c0 32 26 53 56 53c28 0 51 -25 51 -52
c0 -30 -23 -55 -54 -55zM59 527c-30 0 -53 24 -53 54c0 32 26 53 56 53c28 0 51 -25 51 -52c0 -30 -23 -55 -54 -55z" />
    <glyph glyph-name="igrave" unicode="&#xec;" horiz-adv-x="280" 
d="M206 440v-317c0 -17 0 -62 10 -75c11 -15 37 -18 53 -18v-32c-40 1 -81 3 -123 4c-45 -1 -89 -3 -134 -4v32c16 0 42 3 53 18c10 13 10 58 10 75v173c0 60 -11 82 -64 81v33c65 5 129 14 195 30zM203 499h-32l-120 73l-24 16c-13 8 -39 24 -39 42c0 21 17 39 38 39
c25 0 49 -31 65 -48z" />
    <glyph glyph-name="ntilde" unicode="&#xf1;" horiz-adv-x="560" 
d="M201 209v-86c0 -17 0 -62 9 -75c11 -15 37 -18 53 -18v-32c-43 1 -85 3 -128 4c-42 -1 -85 -3 -127 -4v32c16 0 42 3 53 18c9 13 9 58 9 75v143c0 54 1 102 -65 102v33c62 6 124 15 184 39l11 -90c37 52 83 90 148 90c43 0 91 -16 119 -52c25 -33 24 -92 24 -133v-132
c0 -17 0 -62 9 -75c11 -15 37 -18 53 -18v-32c-39 1 -78 3 -117 4c-46 -1 -93 -3 -139 -4v34c16 0 42 1 53 16c10 13 10 58 10 75v125c0 47 3 127 -64 127c-39 0 -66 -29 -82 -62c-14 -29 -13 -72 -13 -104zM169 528l-23 3c6 42 43 98 91 98c23 0 37 -6 57 -15
c19 -8 42 -19 63 -19c20 0 36 17 41 35l24 -3c-7 -44 -37 -97 -88 -97c-18 0 -38 8 -54 15c-18 6 -43 17 -62 17c-23 0 -42 -13 -49 -34z" />
    <glyph glyph-name="oacute" unicode="&#xf3;" horiz-adv-x="560" 
d="M282 440c128 0 240 -91 240 -225c0 -133 -109 -228 -237 -228c-132 0 -247 90 -247 229c0 132 120 224 244 224zM283 400c-89 0 -100 -117 -100 -183c0 -74 7 -190 107 -190c84 0 87 126 87 184c0 67 -3 189 -94 189zM176 499l112 122c16 17 40 48 65 48
c21 0 38 -18 38 -39c0 -18 -26 -34 -39 -42l-24 -16l-120 -73h-32z" />
    <glyph glyph-name="ocircumflex" unicode="&#xf4;" horiz-adv-x="560" 
d="M282 440c128 0 240 -91 240 -225c0 -133 -109 -228 -237 -228c-132 0 -247 90 -247 229c0 132 120 224 244 224zM283 400c-89 0 -100 -117 -100 -183c0 -74 7 -190 107 -190c84 0 87 126 87 184c0 67 -3 189 -94 189zM407 499h-32l-99 94l-97 -94h-33l99 165h62z" />
    <glyph glyph-name="odieresis" unicode="&#xf6;" horiz-adv-x="560" 
d="M282 440c128 0 240 -91 240 -225c0 -133 -109 -228 -237 -228c-132 0 -247 90 -247 229c0 132 120 224 244 224zM283 400c-89 0 -100 -117 -100 -183c0 -74 7 -190 107 -190c84 0 87 126 87 184c0 67 -3 189 -94 189zM363 527c-30 0 -53 24 -53 54c0 32 26 53 56 53
c28 0 51 -25 51 -52c0 -30 -23 -55 -54 -55zM199 527c-30 0 -53 24 -53 54c0 32 26 53 56 53c28 0 51 -25 51 -52c0 -30 -23 -55 -54 -55z" />
    <glyph glyph-name="ograve" unicode="&#xf2;" horiz-adv-x="560" 
d="M282 440c128 0 240 -91 240 -225c0 -133 -109 -228 -237 -228c-132 0 -247 90 -247 229c0 132 120 224 244 224zM283 400c-89 0 -100 -117 -100 -183c0 -74 7 -190 107 -190c84 0 87 126 87 184c0 67 -3 189 -94 189zM343 499h-32l-120 73l-24 16c-13 8 -39 24 -39 42
c0 21 17 39 38 39c25 0 49 -31 65 -48z" />
    <glyph glyph-name="otilde" unicode="&#xf5;" horiz-adv-x="560" 
d="M282 440c128 0 240 -91 240 -225c0 -133 -109 -228 -237 -228c-132 0 -247 90 -247 229c0 132 120 224 244 224zM283 400c-89 0 -100 -117 -100 -183c0 -74 7 -190 107 -190c84 0 87 126 87 184c0 67 -3 189 -94 189zM169 528l-23 3c6 42 43 98 91 98c23 0 37 -6 57 -15
c19 -8 42 -19 63 -19c20 0 36 17 41 35l24 -3c-7 -44 -37 -97 -88 -97c-18 0 -38 8 -54 15c-18 6 -43 17 -62 17c-23 0 -42 -13 -49 -34z" />
    <glyph glyph-name="scaron" unicode="&#x161;" horiz-adv-x="400" 
d="M78 31l-16 -31h-40l-5 136h40c27 -56 68 -109 136 -109c38 0 78 19 78 62c0 45 -59 57 -92 67c-80 24 -152 54 -152 151c0 92 76 133 158 133c46 0 78 -11 117 -35l17 35h40v-131h-40c-22 48 -60 91 -116 91c-30 0 -70 -15 -70 -52c0 -44 48 -52 82 -62
c81 -26 167 -53 167 -155s-83 -144 -173 -144c-43 0 -98 13 -131 44zM327 664l-100 -165h-62l-99 165h33l97 -95l99 95h32z" />
    <glyph glyph-name="uacute" unicode="&#xfa;" horiz-adv-x="560" 
d="M558 60v-32l-179 -41l-9 97h-2c-41 -66 -93 -97 -171 -97c-99 0 -127 61 -127 148v162c0 17 1 62 -9 75c-11 14 -37 14 -53 16v33l193 11v-273c0 -52 4 -107 67 -107c75 0 92 74 92 140v105c0 17 0 62 -9 75c-10 15 -37 14 -53 16v33l193 11v-288c0 -19 0 -53 10 -69
c12 -19 38 -15 57 -15zM176 499l112 122c16 17 40 48 65 48c21 0 38 -18 38 -39c0 -18 -26 -34 -39 -42l-24 -16l-120 -73h-32z" />
    <glyph glyph-name="ucircumflex" unicode="&#xfb;" horiz-adv-x="560" 
d="M558 60v-32l-179 -41l-9 97h-2c-41 -66 -93 -97 -171 -97c-99 0 -127 61 -127 148v162c0 17 1 62 -9 75c-11 14 -37 14 -53 16v33l193 11v-273c0 -52 4 -107 67 -107c75 0 92 74 92 140v105c0 17 0 62 -9 75c-10 15 -37 14 -53 16v33l193 11v-288c0 -19 0 -53 10 -69
c12 -19 38 -15 57 -15zM407 499h-32l-99 94l-97 -94h-33l99 165h62z" />
    <glyph glyph-name="udieresis" unicode="&#xfc;" horiz-adv-x="560" 
d="M558 60v-32l-179 -41l-9 97h-2c-41 -66 -93 -97 -171 -97c-99 0 -127 61 -127 148v162c0 17 1 62 -9 75c-11 14 -37 14 -53 16v33l193 11v-273c0 -52 4 -107 67 -107c75 0 92 74 92 140v105c0 17 0 62 -9 75c-10 15 -37 14 -53 16v33l193 11v-288c0 -19 0 -53 10 -69
c12 -19 38 -15 57 -15zM363 527c-30 0 -53 24 -53 54c0 32 26 53 56 53c28 0 51 -25 51 -52c0 -30 -23 -55 -54 -55zM199 527c-30 0 -53 24 -53 54c0 32 26 53 56 53c28 0 51 -25 51 -52c0 -30 -23 -55 -54 -55z" />
    <glyph glyph-name="ugrave" unicode="&#xf9;" horiz-adv-x="560" 
d="M558 60v-32l-179 -41l-9 97h-2c-41 -66 -93 -97 -171 -97c-99 0 -127 61 -127 148v162c0 17 1 62 -9 75c-11 14 -37 14 -53 16v33l193 11v-273c0 -52 4 -107 67 -107c75 0 92 74 92 140v105c0 17 0 62 -9 75c-10 15 -37 14 -53 16v33l193 11v-288c0 -19 0 -53 10 -69
c12 -19 38 -15 57 -15zM343 499h-32l-120 73l-24 16c-13 8 -39 24 -39 42c0 21 17 39 38 39c25 0 49 -31 65 -48z" />
    <glyph glyph-name="yacute" unicode="&#xfd;" horiz-adv-x="440" 
d="M265 137l71 171c7 18 12 36 12 48c0 42 -30 41 -55 44v32c31 -1 61 -3 92 -4c27 1 53 3 80 4v-32c-17 -2 -33 -8 -47 -26c-23 -29 -71 -152 -82 -177l-160 -346c-26 -54 -51 -121 -121 -121c-32 0 -55 19 -55 51c0 47 44 55 79 63c43 10 65 37 82 73l34 72l-152 348
c-9 21 -19 37 -24 43c-13 16 -29 18 -44 20v32c43 -1 85 -3 128 -4c43 1 86 3 129 4v-32c-27 -3 -54 2 -54 -34c0 -19 22 -72 30 -92zM116 499l112 122c16 17 40 48 65 48c21 0 38 -18 38 -39c0 -18 -26 -34 -39 -42l-24 -16l-120 -73h-32z" />
    <glyph glyph-name="ydieresis" unicode="&#xff;" horiz-adv-x="440" 
d="M265 137l71 171c7 18 12 36 12 48c0 42 -30 41 -55 44v32c31 -1 61 -3 92 -4c27 1 53 3 80 4v-32c-17 -2 -33 -8 -47 -26c-23 -29 -71 -152 -82 -177l-160 -346c-26 -54 -51 -121 -121 -121c-32 0 -55 19 -55 51c0 47 44 55 79 63c43 10 65 37 82 73l34 72l-152 348
c-9 21 -19 37 -24 43c-13 16 -29 18 -44 20v32c43 -1 85 -3 128 -4c43 1 86 3 129 4v-32c-27 -3 -54 2 -54 -34c0 -19 22 -72 30 -92zM303 527c-30 0 -53 24 -53 54c0 32 26 53 56 53c28 0 51 -25 51 -52c0 -30 -23 -55 -54 -55zM139 527c-30 0 -53 24 -53 54
c0 32 26 53 56 53c28 0 51 -25 51 -52c0 -30 -23 -55 -54 -55z" />
    <glyph glyph-name="zcaron" unicode="&#x17e;" horiz-adv-x="440" 
d="M415 149l-10 -149h-380v27l228 365h-18c-35 0 -77 2 -108 -16c-34 -18 -41 -56 -51 -90h-37l8 146h364v-38l-228 -354h26c95 0 142 -1 168 109h38zM347 664l-100 -165h-62l-99 165h33l97 -95l99 95h32z" />
    <glyph glyph-name="exclam.sc" unicode="&#xf721;" horiz-adv-x="360" 
d="M201 211h-40c0 79 -5 146 -25 223l-19 75c-7 24 -13 51 -13 75c0 44 29 92 76 92c49 0 77 -48 77 -92c0 -24 -5 -51 -12 -75l-19 -75c-20 -77 -25 -144 -25 -223zM180 -7c-45 0 -81 37 -81 82s36 80 81 80c44 0 81 -34 81 -79s-35 -83 -81 -83z" />
    <glyph glyph-name="hungarumlaut.sc" unicode="&#xf6f8;" horiz-adv-x="520" 
d="M230 499l112 122c16 17 40 48 65 48c21 0 38 -18 38 -39c0 -18 -26 -34 -39 -42l-24 -16l-120 -73h-32zM66 499l112 122c16 17 40 48 65 48c21 0 38 -18 38 -39c0 -18 -26 -34 -39 -42l-24 -16l-120 -73h-32z" />
    <glyph glyph-name="ampersand.sc" unicode="&#xf726;" horiz-adv-x="800" 
d="M322 428l12 -17c36 36 55 82 55 133c0 41 -23 86 -69 86c-37 0 -61 -34 -61 -68c0 -50 34 -95 63 -134zM359 378l127 -154l62 92c35 53 83 99 150 99c49 0 89 -35 89 -85c0 -40 -31 -79 -74 -79c-36 0 -64 22 -67 59c0 13 -2 22 -17 22c-17 0 -30 -22 -39 -35l-71 -107
c47 -52 104 -111 166 -111c38 0 56 24 83 48l30 -28l-1 -2c-54 -61 -94 -110 -183 -110s-134 40 -193 97c-60 -59 -133 -97 -217 -97c-76 0 -158 52 -158 135c0 101 91 167 168 213c-32 53 -58 106 -58 169c0 99 74 172 173 172c73 0 147 -48 147 -128s-54 -130 -117 -170z
M388 115l-150 184c-31 -30 -62 -61 -62 -107c0 -61 52 -124 115 -124c39 0 70 21 97 47z" />
    <glyph glyph-name="acute.sc" unicode="&#xf7b4;" horiz-adv-x="340" 
d="M66 529l112 122c16 17 40 48 65 48c21 0 38 -18 38 -39c0 -18 -26 -34 -39 -42l-24 -16l-120 -73h-32z" />
    <glyph glyph-name="question.sc" unicode="&#xf73f;" horiz-adv-x="400" 
d="M109 203v200c19 -1 41 -3 63 -3c54 0 129 9 129 79c0 49 -34 96 -86 96c-36 0 -69 -15 -105 -15c-32 0 -70 17 -70 54c0 41 45 54 79 54c125 0 241 -115 241 -240c0 -100 -81 -144 -171 -144c-13 0 -27 1 -40 1v-82h-40zM134 -7c-45 0 -81 37 -81 82s36 80 81 80
c44 0 81 -34 81 -79s-35 -83 -81 -83z" />
    <glyph glyph-name="circumflex.sc" unicode="&#xf6f6;" horiz-adv-x="400" 
d="M327 529h-32l-99 94l-97 -94h-33l99 165h62z" />
    <glyph glyph-name="grave.sc" unicode="&#xf760;" horiz-adv-x="340" 
d="M281 529h-32l-120 73l-24 16c-13 8 -39 24 -39 42c0 21 17 39 38 39c25 0 49 -31 65 -48z" />
    <glyph glyph-name="a.sc" unicode="&#xf761;" 
d="M345 136h-173l-11 -30c-6 -14 -10 -32 -10 -42c0 -22 11 -32 65 -34v-32c-20 0 -51 2 -95 2s-75 -2 -95 -2v32c46 6 66 32 93 93l168 377h48l168 -392c23 -55 36 -71 81 -78v-32c-18 0 -61 2 -140 2s-122 -2 -140 -2v32h25c31 0 38 10 38 23c0 9 -4 26 -9 42zM264 348
l-75 -172h141z" />
    <glyph glyph-name="b.sc" unicode="&#xf762;" horiz-adv-x="556" 
d="M93 108v272c0 66 -12 78 -52 78h-18v32c31 -1 69 -2 143 -2c54 0 108 2 153 2c124 0 175 -52 175 -117c0 -75 -72 -111 -156 -121v-2c118 -12 184 -46 184 -128c0 -76 -60 -124 -197 -124c-47 0 -100 2 -159 2c-74 0 -112 -1 -143 -2v32h18c40 0 52 12 52 78zM239 229
v-136c0 -35 18 -55 63 -55c49 0 74 39 74 89c0 57 -30 102 -107 102h-30zM239 426v-157h30c57 0 87 37 87 94c0 60 -38 87 -88 87c-27 0 -29 -7 -29 -24z" />
    <glyph glyph-name="c.sc" unicode="&#xf763;" horiz-adv-x="556" 
d="M449 454l12 41h40l5 -166h-40c-15 58 -52 125 -135 125c-81 0 -139 -56 -139 -213c0 -140 61 -201 137 -201c88 0 130 70 143 134h44v-174h-44l-16 43c-35 -28 -97 -59 -176 -59c-134 0 -246 94 -246 257c0 158 109 263 255 263c68 0 123 -27 160 -50z" />
    <glyph glyph-name="d.sc" unicode="&#xf764;" 
d="M102 108v272c0 66 -12 78 -52 78h-18v32c31 -1 69 -2 143 -2c39 0 83 2 127 2c172 0 279 -111 279 -247c0 -131 -91 -245 -256 -245c-39 0 -89 2 -150 2c-74 0 -112 -1 -143 -2v32h18c40 0 52 12 52 78zM248 419v-299c0 -66 23 -82 69 -82c78 0 106 82 106 205
c0 142 -39 207 -132 207c-34 0 -43 -4 -43 -31z" />
    <glyph glyph-name="e.sc" unicode="&#xf765;" horiz-adv-x="556" 
d="M381 353v-192h-32c-6 42 -27 73 -77 73h-24v-112c0 -60 18 -84 94 -84c86 0 118 37 140 124h32v-164c-66 0 -190 2 -339 2c-74 0 -112 -1 -143 -2v32h18c40 0 52 12 52 78v272c0 66 -12 78 -52 78h-18v32c31 -1 69 -2 143 -2c163 0 251 2 316 2v-140h-32
c-21 74 -46 100 -154 100c-54 0 -57 -4 -57 -25v-151h24c50 0 71 31 77 79h32z" />
    <glyph glyph-name="f.sc" unicode="&#xf766;" horiz-adv-x="500" 
d="M372 353v-192h-32c-6 42 -27 73 -77 73h-24v-126c0 -66 12 -78 52 -78h18v-32c-31 1 -69 2 -143 2s-112 -1 -143 -2v32h18c40 0 52 12 52 78v272c0 66 -12 78 -52 78h-18v32c31 -1 69 -2 143 -2c163 0 251 2 316 2v-140h-32c-21 74 -46 100 -154 100
c-54 0 -57 -4 -57 -25v-151h24c50 0 71 31 77 79h32z" />
    <glyph glyph-name="g.sc" unicode="&#xf767;" 
d="M596 208v-32h-8c-40 0 -52 -12 -52 -78c0 -20 2 -47 3 -60c-114 -14 -156 -54 -247 -54c-164 0 -266 101 -266 257c0 158 109 263 255 263c68 0 123 -27 160 -50l12 41h40l5 -166h-40c-15 58 -52 125 -135 125c-81 0 -139 -56 -139 -213c0 -150 51 -207 128 -207
c63 0 88 33 88 82c0 55 -23 60 -64 60v32c40 -1 83 -2 134 -2c67 0 105 1 126 2z" />
    <glyph glyph-name="h.sc" unicode="&#xf768;" horiz-adv-x="667" 
d="M239 274h188v106c0 66 -12 78 -52 78h-18v32c31 -1 69 -2 143 -2s112 1 143 2v-32h-18c-40 0 -52 -12 -52 -78v-272c0 -66 12 -78 52 -78h18v-32c-31 1 -69 2 -143 2s-112 -1 -143 -2v32h18c40 0 52 12 52 78v126h-188v-126c0 -66 12 -78 52 -78h18v-32
c-31 1 -69 2 -143 2s-112 -1 -143 -2v32h18c40 0 52 12 52 78v272c0 66 -12 78 -52 78h-18v32c31 -1 69 -2 143 -2s112 1 143 2v-32h-18c-40 0 -52 -12 -52 -78v-106z" />
    <glyph glyph-name="i.sc" unicode="&#xf769;" horiz-adv-x="333" 
d="M239 380v-272c0 -66 12 -78 52 -78h18v-32c-31 1 -69 2 -143 2s-112 -1 -143 -2v32h18c40 0 52 12 52 78v272c0 66 -12 78 -52 78h-18v32c31 -1 69 -2 143 -2s112 1 143 2v-32h-18c-40 0 -52 -12 -52 -78z" />
    <glyph glyph-name="j.sc" unicode="&#xf76a;" horiz-adv-x="333" 
d="M315 490v-32h-18c-40 0 -52 -12 -52 -78v-396c0 -163 -63 -230 -209 -230c-96 0 -151 40 -151 90c0 33 22 55 57 55c30 0 47 -17 61 -49c15 -35 19 -56 47 -56c33 0 49 38 49 140v446c0 66 -12 78 -52 78h-18v32c31 -1 69 -2 143 -2s112 1 143 2z" />
    <glyph glyph-name="k.sc" unicode="&#xf76b;" 
d="M239 380v-145l110 112c35 35 50 59 50 78c0 27 -18 33 -52 33v32c23 -1 61 -2 104 -2c49 0 81 1 102 2v-32c-42 -3 -71 -28 -117 -78l-56 -61l176 -240c26 -36 37 -48 56 -49v-32c-34 1 -78 2 -127 2c-55 0 -102 -1 -133 -2v32h10c24 0 38 6 38 24c0 17 -9 31 -38 69
l-77 102l-46 -46v-71c0 -66 12 -78 52 -78h6v-32c-19 1 -57 2 -131 2s-112 -1 -143 -2v32h18c40 0 52 12 52 78v272c0 66 -12 78 -52 78h-18v32c31 -1 69 -2 143 -2s112 1 131 2v-32h-6c-40 0 -52 -12 -52 -78z" />
    <glyph glyph-name="l.sc" unicode="&#xf76c;" horiz-adv-x="556" 
d="M102 108v272c0 66 -12 78 -52 78h-18v32c31 -1 69 -2 143 -2s112 1 143 2v-32h-18c-40 0 -52 -12 -52 -78v-258c0 -60 18 -84 98 -84c86 0 122 37 145 124h32l-8 -164c-67 0 -191 2 -340 2c-74 0 -112 -1 -143 -2v32h18c40 0 52 12 52 78z" />
    <glyph glyph-name="m.sc" unicode="&#xf76d;" horiz-adv-x="722" 
d="M367 179l128 311c24 -1 56 -2 102 -2c36 0 74 1 105 2v-32h-18c-40 0 -52 -12 -52 -78v-272c0 -66 12 -78 52 -78h18v-32c-31 1 -69 2 -132 2c-71 0 -118 -1 -138 -2v32c45 0 64 12 64 78v270h-2l-159 -378h-38l-162 384h-2v-255c0 -86 22 -99 72 -99v-32
c-21 1 -45 2 -94 2c-47 0 -68 -1 -87 -2v32c44 0 65 22 65 99v251c0 66 -12 78 -52 78h-18v32c31 -1 60 -2 104 -2s81 1 109 2z" />
    <glyph glyph-name="n.sc" unicode="&#xf76e;" 
d="M515 -16h-44l-331 379v-234c0 -86 22 -99 72 -99v-32c-21 1 -45 2 -94 2c-47 0 -68 -1 -93 -2v32c50 0 71 22 71 99v282c-23 36 -45 47 -71 47v32c29 -1 60 -2 93 -2c35 0 64 1 89 2l264 -304v173c0 86 -22 99 -72 99v32c21 -1 45 -2 94 -2c47 0 68 1 93 2v-32
c-50 0 -71 -22 -71 -99v-375z" />
    <glyph glyph-name="o.sc" unicode="&#xf76f;" 
d="M30 241c0 156 106 263 275 263s275 -107 275 -257c0 -156 -106 -263 -275 -263s-275 107 -275 257zM188 241c0 -135 35 -217 117 -217s117 82 117 223c0 135 -35 217 -117 217s-117 -82 -117 -223z" />
    <glyph glyph-name="p.sc" unicode="&#xf770;" horiz-adv-x="556" 
d="M248 423v-161h34c66 0 96 36 96 98c0 64 -34 90 -95 90c-30 0 -35 -8 -35 -27zM248 226v-118c0 -66 12 -78 52 -78h18v-32c-31 1 -69 2 -143 2s-112 -1 -143 -2v32h18c40 0 52 12 52 78v272c0 66 -12 78 -52 78h-18v32c31 -1 69 -2 143 -2c44 0 106 1 155 2
c110 2 194 -38 194 -132c0 -89 -69 -136 -215 -136c-19 0 -41 2 -61 4z" />
    <glyph glyph-name="q.sc" unicode="&#xf771;" 
d="M272 -44l47 27l-2 2c-2 -1 -7 -1 -12 -1c-169 0 -275 107 -275 257c0 156 106 263 275 263s275 -107 275 -257c0 -126 -69 -220 -185 -250c-35 -20 -60 -35 -85 -52l2 -2c25 4 46 5 76 5c59 0 101 -14 138 -29c37 -16 68 -31 104 -31c69 0 72 49 89 49c8 0 12 -6 12 -16
c0 -32 -32 -146 -142 -146c-64 0 -105 33 -145 66c-39 33 -77 67 -136 67c-78 0 -102 -49 -132 -49c-14 0 -20 10 -20 21c0 27 47 33 116 76zM188 241c0 -135 35 -217 117 -217s117 82 117 223c0 135 -35 217 -117 217s-117 -82 -117 -223z" />
    <glyph glyph-name="r.sc" unicode="&#xf772;" 
d="M248 422v-162c9 -1 20 -2 34 -2c62 0 94 30 94 96c0 72 -33 96 -97 96c-26 0 -31 -6 -31 -28zM248 218v-110c0 -66 12 -78 52 -78h18v-32c-31 1 -69 2 -143 2s-112 -1 -143 -2v32h18c40 0 52 12 52 78v272c0 66 -12 78 -52 78h-18v32c31 -1 69 -2 143 -2
c53 0 105 2 157 2c131 0 190 -47 190 -120c0 -71 -43 -107 -113 -121l138 -179c23 -31 33 -39 51 -40v-32c-19 1 -45 2 -76 2c-35 0 -63 -1 -83 -2l-155 220h-36z" />
    <glyph glyph-name="s.sc" unicode="&#xf773;" horiz-adv-x="444" 
d="M342 499h40l5 -148h-39c-35 81 -74 113 -137 113c-39 0 -65 -23 -65 -57c0 -109 265 -70 265 -265c0 -91 -71 -158 -198 -158c-55 0 -101 21 -132 44l-11 -32h-37v165h36c14 -74 67 -131 142 -131c51 0 84 27 84 69c0 105 -259 68 -259 259c0 84 70 146 174 146
c48 0 91 -19 120 -40z" />
    <glyph glyph-name="t.sc" unicode="&#xf774;" horiz-adv-x="556" 
d="M351 426v-318c0 -66 12 -78 52 -78h18v-32c-31 1 -69 2 -143 2s-112 -1 -143 -2v32h18c40 0 52 12 52 78v318c0 18 -3 24 -28 24c-77 -1 -100 -45 -114 -110h-40l7 150c84 -1 154 -2 248 -2s164 1 248 2l7 -150h-40c-14 65 -37 109 -114 110c-25 0 -28 -6 -28 -24z" />
    <glyph glyph-name="u.sc" unicode="&#xf775;" 
d="M589 490v-32c-46 0 -68 -13 -68 -99v-146c0 -159 -60 -229 -212 -229s-219 56 -219 209v187c0 66 -12 78 -52 78h-16v32c29 -1 67 -2 141 -2s112 1 143 2v-32h-18c-40 0 -52 -12 -52 -78v-207c0 -98 30 -133 111 -133c91 0 130 52 130 154v165c0 77 -21 99 -71 99v32
c25 -1 46 -2 93 -2c49 0 73 1 90 2z" />
    <glyph glyph-name="v.sc" unicode="&#xf776;" 
d="M28 458v32c30 -1 78 -2 139 -2c83 0 118 1 141 2v-32h-21c-31 0 -40 -14 -40 -30c0 -13 6 -29 19 -63l82 -213l88 208c13 30 18 48 18 64c0 25 -15 34 -51 34h-16v32c27 -1 60 -2 104 -2c41 0 67 1 92 2v-32c-44 -1 -58 -15 -83 -69l-184 -405h-40l-171 411
c-21 51 -35 63 -77 63z" />
    <glyph glyph-name="w.sc" unicode="&#xf777;" horiz-adv-x="778" 
d="M19 458v32c33 -1 80 -2 132 -2c63 0 109 1 134 2v-32h-16c-34 0 -47 -11 -47 -29c0 -9 5 -26 21 -70l64 -175h2l103 306h40l116 -307h2l57 165c12 35 17 57 17 72c0 31 -23 38 -59 38v32c24 -1 58 -2 92 -2c31 0 59 1 81 2v-32c-41 -3 -51 -16 -79 -92l-143 -382h-37
l-109 302h-2l-109 -302h-37l-152 404c-21 55 -31 66 -71 70z" />
    <glyph glyph-name="x.sc" unicode="&#xf778;" 
d="M21 458v32c34 -1 77 -2 139 -2c58 0 110 1 142 2v-32h-31c-20 0 -28 -8 -28 -20s9 -27 25 -47l59 -74l48 57c22 26 32 46 32 59c0 14 -9 25 -32 25h-20v32c27 -1 60 -2 104 -2c46 0 79 1 97 2v-32c-50 -3 -64 -15 -111 -69l-91 -105l168 -210c22 -28 42 -44 68 -44v-32
c-26 1 -74 2 -136 2c-66 0 -131 -1 -157 -2v32h18c28 0 36 9 36 24c0 13 -7 23 -23 44l-66 85l-57 -66c-22 -26 -28 -42 -28 -55c0 -20 13 -32 53 -32v-32c-29 1 -64 2 -106 2c-24 0 -65 -1 -93 -2v32c32 0 59 21 99 67l106 122l-141 186c-33 43 -43 50 -74 53z" />
    <glyph glyph-name="y.sc" unicode="&#xf779;" horiz-adv-x="556" 
d="M19 458v32c36 -1 85 -2 135 -2c54 0 106 1 128 2v-32h-20c-29 0 -38 -8 -38 -25c0 -8 6 -27 21 -52l79 -136l66 104c22 34 31 62 31 76c0 28 -20 33 -57 33v32c30 -1 62 -2 94 -2c26 0 50 1 79 2v-32c-34 -2 -41 -15 -79 -78l-107 -178v-94c0 -66 12 -78 52 -78h18v-32
c-31 1 -69 2 -143 2s-112 -1 -143 -2v32h18c40 0 52 12 52 78v79l-117 209c-30 52 -34 58 -69 62z" />
    <glyph glyph-name="z.sc" unicode="&#xf77a;" horiz-adv-x="500" 
d="M83 346h-34l4 144c36 -1 119 -2 211 -2c90 0 163 1 204 2v-31l-276 -421h108c68 0 107 30 131 124h35l-9 -164c-37 1 -125 2 -209 2c-106 0 -180 -1 -225 -2v37l282 415h-64c-108 0 -138 -26 -158 -104z" />
    <glyph glyph-name="tilde.sc" unicode="&#xf6fe;" horiz-adv-x="400" 
d="M89 558l-23 3c6 42 43 98 91 98c23 0 37 -6 57 -15c19 -8 42 -19 63 -19c20 0 36 17 41 35l24 -3c-7 -44 -37 -97 -88 -97c-18 0 -38 8 -54 15c-18 6 -43 17 -62 17c-23 0 -42 -13 -49 -34z" />
    <glyph glyph-name="exclamdown.sc" unicode="&#xf7a1;" horiz-adv-x="360" 
d="M162 220h40c0 -79 4 -146 24 -223l19 -75c7 -24 13 -51 13 -75c0 -44 -29 -92 -75 -92c-49 0 -78 48 -78 92c0 24 6 51 13 75l19 75c20 77 25 144 25 223zM180 273c-45 0 -81 37 -81 82s36 80 81 80c44 0 81 -34 81 -79s-35 -83 -81 -83z" />
    <glyph glyph-name="lslash.sc" unicode="&#xf6f9;" horiz-adv-x="556" 
d="M102 108v69l-70 -37v50l70 37v153c0 66 -12 78 -52 78h-18v32c31 -1 69 -2 143 -2s112 1 143 2v-32h-18c-40 0 -52 -12 -52 -78v-75l126 67v-50l-126 -67v-133c0 -60 18 -84 98 -84c86 0 122 37 145 124h32l-8 -164c-67 0 -191 2 -340 2c-74 0 -112 -1 -143 -2v32h18
c40 0 52 12 52 78z" />
    <glyph glyph-name="scaron.sc" unicode="&#xf6fd;" horiz-adv-x="444" 
d="M342 499h40l5 -148h-39c-35 81 -74 113 -137 113c-39 0 -65 -23 -65 -57c0 -109 265 -70 265 -265c0 -91 -71 -158 -198 -158c-55 0 -101 21 -132 44l-11 -32h-37v165h36c14 -74 67 -131 142 -131c51 0 84 27 84 69c0 105 -259 68 -259 259c0 84 70 146 174 146
c48 0 91 -19 120 -40zM349 694l-100 -165h-62l-99 165h33l97 -95l99 95h32z" />
    <glyph glyph-name="zcaron.sc" unicode="&#xf6ff;" horiz-adv-x="500" 
d="M83 346h-34l4 144c36 -1 119 -2 211 -2c90 0 163 1 204 2v-31l-276 -421h108c68 0 107 30 131 124h35l-9 -164c-37 1 -125 2 -209 2c-106 0 -180 -1 -225 -2v37l282 415h-64c-108 0 -138 -26 -158 -104zM377 694l-100 -165h-62l-99 165h33l97 -95l99 95h32z" />
    <glyph glyph-name="dieresis.sc" unicode="&#xf7a8;" horiz-adv-x="400" 
d="M283 557c-30 0 -53 24 -53 54c0 32 26 53 56 53c28 0 51 -25 51 -52c0 -30 -23 -55 -54 -55zM119 557c-30 0 -53 24 -53 54c0 32 26 53 56 53c28 0 51 -25 51 -52c0 -30 -23 -55 -54 -55z" />
    <glyph glyph-name="breve.sc" unicode="&#xf6f4;" horiz-adv-x="400" 
d="M305 669h24c-4 -72 -55 -127 -129 -127c-73 0 -133 53 -134 127h23c14 -48 65 -58 108 -58c45 0 92 10 108 58z" />
    <glyph glyph-name="caron.sc" unicode="&#xf6f5;" horiz-adv-x="400" 
d="M327 694l-100 -165h-62l-99 165h33l97 -95l99 95h32z" />
    <glyph glyph-name="dotaccent.sc" unicode="&#xf6f7;" horiz-adv-x="240" 
d="M119 557c-30 0 -53 24 -53 54c0 32 26 53 56 53c28 0 51 -25 51 -52c0 -30 -23 -55 -54 -55z" />
    <glyph glyph-name="macron.sc" unicode="&#xf7af;" horiz-adv-x="500" 
d="M428 581h-362v60h362v-60z" />
    <glyph glyph-name="ogonek.sc" unicode="&#xf6fb;" horiz-adv-x="320" 
d="M207 -2l-35 -23c-19 -13 -43 -29 -43 -55c0 -19 20 -38 39 -38c23 0 47 22 61 39l24 -25c-20 -32 -63 -55 -101 -55s-88 21 -88 65c0 59 97 86 141 94z" />
    <glyph glyph-name="ring.sc" unicode="&#xf6fc;" horiz-adv-x="340" 
d="M168 511c-55 0 -102 44 -102 100c0 58 49 99 105 99s100 -47 100 -103c0 -55 -50 -96 -103 -96zM168 551c31 0 58 26 58 58c0 30 -21 62 -54 62s-62 -24 -62 -58c0 -33 24 -62 58 -62z" />
    <glyph glyph-name="cedilla.sc" unicode="&#xf7b8;" horiz-adv-x="300" 
d="M151 0l-7 -55l18 1c38 0 78 -14 78 -59c0 -43 -46 -65 -83 -65c-27 0 -77 13 -77 47c0 11 10 21 21 21c29 0 15 -41 58 -41c18 0 34 16 34 34c0 28 -33 38 -56 38c-10 0 -21 -3 -31 -3l11 82h34z" />
    <glyph glyph-name="questiondown.sc" unicode="&#xf7bf;" horiz-adv-x="400" 
d="M291 228v-200c-19 1 -41 3 -63 3c-54 0 -129 -9 -129 -79c0 -49 34 -96 86 -96c36 0 69 15 105 15c32 0 70 -17 70 -54c0 -41 -45 -54 -79 -54c-125 0 -241 115 -241 240c0 100 81 144 171 144c13 0 27 -1 40 -1v82h40zM263 273c-45 0 -81 37 -81 82s36 80 81 80
c44 0 81 -34 81 -79s-35 -83 -81 -83z" />
    <glyph glyph-name="one.superior" unicode="&#xb9;" horiz-adv-x="312" 
d="M199 676v-318c0 -14 0 -44 9 -56c10 -12 37 -11 52 -12v-21c-35 0 -72 2 -110 2c-33 0 -65 -2 -97 -2v21c12 0 40 0 49 10c11 11 11 39 11 53v224c0 13 -2 26 -6 31c-10 12 -41 12 -55 12v22c48 5 89 11 132 34h15z" />
    <glyph glyph-name="two.superior" unicode="&#xb2;" horiz-adv-x="312" 
d="M208 431l-63 -46c-17 -14 -36 -26 -47 -42h129l70 3l-24 -111h-22c0 7 0 15 1 22c1 13 -11 13 -22 13h-216c23 42 47 73 81 110l31 35c42 46 74 88 74 151c0 36 -14 86 -63 86c-33 0 -53 -29 -53 -59c0 -19 13 -42 36 -42c13 0 20 7 26 7c4 0 6 -5 6 -9
c0 -26 -33 -46 -59 -46c-43 0 -71 32 -71 70c0 68 73 103 138 103c74 0 139 -41 139 -116c0 -61 -42 -94 -91 -129z" />
    <glyph glyph-name="three.superior" unicode="&#xb3;" horiz-adv-x="312" 
d="M155 470c-17 0 -27 -10 -35 -21c-7 -9 -13 -18 -26 -18c-10 0 -21 8 -21 18c0 14 15 22 26 27c49 25 88 56 88 111c0 29 -15 65 -51 65c-25 0 -50 -23 -50 -48c0 -13 10 -26 24 -26c8 0 18 6 21 6c5 0 6 -7 6 -11c0 -25 -29 -41 -53 -41c-31 0 -54 21 -54 49
c0 62 77 95 134 95c52 0 108 -24 108 -79c0 -58 -58 -84 -105 -102l1 -2c7 1 15 1 24 1c58 0 108 -38 108 -93c0 -85 -90 -139 -176 -139c-39 0 -112 16 -112 62c0 19 17 34 36 34c25 0 35 -16 44 -35c11 -21 17 -37 45 -37c53 0 63 66 63 103c0 27 -4 81 -45 81z" />
    <glyph glyph-name="agrave.sc" unicode="&#xf7e0;" 
d="M345 136h-173l-11 -30c-6 -14 -10 -32 -10 -42c0 -22 11 -32 65 -34v-32c-20 0 -51 2 -95 2s-75 -2 -95 -2v32c46 6 66 32 93 93l168 377h48l168 -392c23 -55 36 -71 81 -78v-32c-18 0 -61 2 -140 2s-122 -2 -140 -2v32h25c31 0 38 10 38 23c0 9 -4 26 -9 42zM264 348
l-75 -172h141zM417 529h-32l-120 73l-24 16c-13 8 -39 24 -39 42c0 21 17 39 38 39c25 0 49 -31 65 -48z" />
    <glyph glyph-name="aacute.sc" unicode="&#xf7e1;" 
d="M345 136h-173l-11 -30c-6 -14 -10 -32 -10 -42c0 -22 11 -32 65 -34v-32c-20 0 -51 2 -95 2s-75 -2 -95 -2v32c46 6 66 32 93 93l168 377h48l168 -392c23 -55 36 -71 81 -78v-32c-18 0 -61 2 -140 2s-122 -2 -140 -2v32h25c31 0 38 10 38 23c0 9 -4 26 -9 42zM264 348
l-75 -172h141zM202 529l112 122c16 17 40 48 65 48c21 0 38 -18 38 -39c0 -18 -26 -34 -39 -42l-24 -16l-120 -73h-32z" />
    <glyph glyph-name="acircumflex.sc" unicode="&#xf7e2;" 
d="M345 136h-173l-11 -30c-6 -14 -10 -32 -10 -42c0 -22 11 -32 65 -34v-32c-20 0 -51 2 -95 2s-75 -2 -95 -2v32c46 6 66 32 93 93l168 377h48l168 -392c23 -55 36 -71 81 -78v-32c-18 0 -61 2 -140 2s-122 -2 -140 -2v32h25c31 0 38 10 38 23c0 9 -4 26 -9 42zM264 348
l-75 -172h141zM433 529h-32l-99 94l-97 -94h-33l99 165h62z" />
    <glyph glyph-name="atilde.sc" unicode="&#xf7e3;" 
d="M345 136h-173l-11 -30c-6 -14 -10 -32 -10 -42c0 -22 11 -32 65 -34v-32c-20 0 -51 2 -95 2s-75 -2 -95 -2v32c46 6 66 32 93 93l168 377h48l168 -392c23 -55 36 -71 81 -78v-32c-18 0 -61 2 -140 2s-122 -2 -140 -2v32h25c31 0 38 10 38 23c0 9 -4 26 -9 42zM264 348
l-75 -172h141zM195 558l-23 3c6 42 43 98 91 98c23 0 37 -6 57 -15c19 -8 42 -19 63 -19c20 0 36 17 41 35l24 -3c-7 -44 -37 -97 -88 -97c-18 0 -38 8 -54 15c-18 6 -43 17 -62 17c-23 0 -42 -13 -49 -34z" />
    <glyph glyph-name="adieresis.sc" unicode="&#xf7e4;" 
d="M345 136h-173l-11 -30c-6 -14 -10 -32 -10 -42c0 -22 11 -32 65 -34v-32c-20 0 -51 2 -95 2s-75 -2 -95 -2v32c46 6 66 32 93 93l168 377h48l168 -392c23 -55 36 -71 81 -78v-32c-18 0 -61 2 -140 2s-122 -2 -140 -2v32h25c31 0 38 10 38 23c0 9 -4 26 -9 42zM264 348
l-75 -172h141zM389 557c-30 0 -53 24 -53 54c0 32 26 53 56 53c28 0 51 -25 51 -52c0 -30 -23 -55 -54 -55zM225 557c-30 0 -53 24 -53 54c0 32 26 53 56 53c28 0 51 -25 51 -52c0 -30 -23 -55 -54 -55z" />
    <glyph glyph-name="aring.sc" unicode="&#xf7e5;" 
d="M345 136h-173l-11 -30c-6 -14 -10 -32 -10 -42c0 -22 11 -32 65 -34v-32c-20 0 -51 2 -95 2s-75 -2 -95 -2v32c46 6 66 32 93 93l168 377h48l168 -392c23 -55 36 -71 81 -78v-32c-18 0 -61 2 -140 2s-122 -2 -140 -2v32h25c31 0 38 10 38 23c0 9 -4 26 -9 42zM264 348
l-75 -172h141zM304 511c-55 0 -102 44 -102 100c0 58 49 99 105 99s100 -47 100 -103c0 -55 -50 -96 -103 -96zM304 551c31 0 58 26 58 58c0 30 -21 62 -54 62s-62 -24 -62 -58c0 -33 24 -62 58 -62z" />
    <glyph glyph-name="ae.sc" unicode="&#xf7e6;" horiz-adv-x="778" 
d="M324 194h-146l-42 -82c-10 -19 -18 -39 -18 -52c0 -20 15 -30 51 -30v-32c-18 1 -51 1 -81 1c-34 0 -61 0 -83 -1v32c38 2 48 25 78 81l130 243c26 49 36 67 36 82c0 14 -9 22 -45 22h-23v32c54 -1 101 -2 141 -2c138 0 329 2 391 2v-140h-32c-21 74 -46 100 -154 100
c-54 0 -57 -4 -57 -25v-151h24c50 0 71 31 77 79h32v-192h-32c-6 42 -27 73 -77 73h-24v-112c0 -60 18 -84 94 -84c86 0 118 37 140 124h32v-164c-66 0 -190 2 -339 2c-74 0 -112 -1 -143 -2v32h18c40 0 52 12 52 78v86zM198 234h126v216h-12z" />
    <glyph glyph-name="ccedilla.sc" unicode="&#xf7e7;" horiz-adv-x="556" 
d="M516 174v-174h-44l-16 43c-35 -28 -97 -59 -176 -59h-3l-5 -39l18 1c38 0 78 -14 78 -59c0 -43 -46 -65 -83 -65c-27 0 -77 13 -77 47c0 11 10 21 21 21c29 0 15 -41 58 -41c18 0 34 16 34 34c0 28 -33 38 -56 38c-10 0 -21 -3 -31 -3l9 69c-117 15 -209 106 -209 254
c0 158 109 263 255 263c68 0 123 -27 160 -50l12 41h40l5 -166h-40c-15 58 -52 125 -135 125c-81 0 -139 -56 -139 -213c0 -140 61 -201 137 -201c88 0 130 70 143 134h44z" />
    <glyph glyph-name="egrave.sc" unicode="&#xf7e8;" horiz-adv-x="556" 
d="M381 353v-192h-32c-6 42 -27 73 -77 73h-24v-112c0 -60 18 -84 94 -84c86 0 118 37 140 124h32v-164c-66 0 -190 2 -339 2c-74 0 -112 -1 -143 -2v32h18c40 0 52 12 52 78v272c0 66 -12 78 -52 78h-18v32c31 -1 69 -2 143 -2c163 0 251 2 316 2v-140h-32
c-21 74 -46 100 -154 100c-54 0 -57 -4 -57 -25v-151h24c50 0 71 31 77 79h32zM389 529h-32l-120 73l-24 16c-13 8 -39 24 -39 42c0 21 17 39 38 39c25 0 49 -31 65 -48z" />
    <glyph glyph-name="eacute.sc" unicode="&#xf7e9;" horiz-adv-x="556" 
d="M381 353v-192h-32c-6 42 -27 73 -77 73h-24v-112c0 -60 18 -84 94 -84c86 0 118 37 140 124h32v-164c-66 0 -190 2 -339 2c-74 0 -112 -1 -143 -2v32h18c40 0 52 12 52 78v272c0 66 -12 78 -52 78h-18v32c31 -1 69 -2 143 -2c163 0 251 2 316 2v-140h-32
c-21 74 -46 100 -154 100c-54 0 -57 -4 -57 -25v-151h24c50 0 71 31 77 79h32zM174 529l112 122c16 17 40 48 65 48c21 0 38 -18 38 -39c0 -18 -26 -34 -39 -42l-24 -16l-120 -73h-32z" />
    <glyph glyph-name="ecircumflex.sc" unicode="&#xf7ea;" horiz-adv-x="556" 
d="M381 353v-192h-32c-6 42 -27 73 -77 73h-24v-112c0 -60 18 -84 94 -84c86 0 118 37 140 124h32v-164c-66 0 -190 2 -339 2c-74 0 -112 -1 -143 -2v32h18c40 0 52 12 52 78v272c0 66 -12 78 -52 78h-18v32c31 -1 69 -2 143 -2c163 0 251 2 316 2v-140h-32
c-21 74 -46 100 -154 100c-54 0 -57 -4 -57 -25v-151h24c50 0 71 31 77 79h32zM405 529h-32l-99 94l-97 -94h-33l99 165h62z" />
    <glyph glyph-name="edieresis.sc" unicode="&#xf7eb;" horiz-adv-x="556" 
d="M381 353v-192h-32c-6 42 -27 73 -77 73h-24v-112c0 -60 18 -84 94 -84c86 0 118 37 140 124h32v-164c-66 0 -190 2 -339 2c-74 0 -112 -1 -143 -2v32h18c40 0 52 12 52 78v272c0 66 -12 78 -52 78h-18v32c31 -1 69 -2 143 -2c163 0 251 2 316 2v-140h-32
c-21 74 -46 100 -154 100c-54 0 -57 -4 -57 -25v-151h24c50 0 71 31 77 79h32zM361 557c-30 0 -53 24 -53 54c0 32 26 53 56 53c28 0 51 -25 51 -52c0 -30 -23 -55 -54 -55zM197 557c-30 0 -53 24 -53 54c0 32 26 53 56 53c28 0 51 -25 51 -52c0 -30 -23 -55 -54 -55z" />
    <glyph glyph-name="igrave.sc" unicode="&#xf7ec;" horiz-adv-x="333" 
d="M239 380v-272c0 -66 12 -78 52 -78h18v-32c-31 1 -69 2 -143 2s-112 -1 -143 -2v32h18c40 0 52 12 52 78v272c0 66 -12 78 -52 78h-18v32c31 -1 69 -2 143 -2s112 1 143 2v-32h-18c-40 0 -52 -12 -52 -78zM265 529h-32l-120 73l-24 16c-13 8 -39 24 -39 42
c0 21 17 39 38 39c25 0 49 -31 65 -48z" />
    <glyph glyph-name="iacute.sc" unicode="&#xf7ed;" horiz-adv-x="333" 
d="M239 380v-272c0 -66 12 -78 52 -78h18v-32c-31 1 -69 2 -143 2s-112 -1 -143 -2v32h18c40 0 52 12 52 78v272c0 66 -12 78 -52 78h-18v32c31 -1 69 -2 143 -2s112 1 143 2v-32h-18c-40 0 -52 -12 -52 -78zM75 529l112 122c16 17 40 48 65 48c21 0 38 -18 38 -39
c0 -18 -26 -34 -39 -42l-24 -16l-120 -73h-32z" />
    <glyph glyph-name="icircumflex.sc" unicode="&#xf7ee;" horiz-adv-x="333" 
d="M239 380v-272c0 -66 12 -78 52 -78h18v-32c-31 1 -69 2 -143 2s-112 -1 -143 -2v32h18c40 0 52 12 52 78v272c0 66 -12 78 -52 78h-18v32c31 -1 69 -2 143 -2s112 1 143 2v-32h-18c-40 0 -52 -12 -52 -78zM294 529h-32l-99 94l-97 -94h-33l99 165h62z" />
    <glyph glyph-name="idieresis.sc" unicode="&#xf7ef;" horiz-adv-x="333" 
d="M239 380v-272c0 -66 12 -78 52 -78h18v-32c-31 1 -69 2 -143 2s-112 -1 -143 -2v32h18c40 0 52 12 52 78v272c0 66 -12 78 -52 78h-18v32c31 -1 69 -2 143 -2s112 1 143 2v-32h-18c-40 0 -52 -12 -52 -78zM250 557c-30 0 -53 24 -53 54c0 32 26 53 56 53
c28 0 51 -25 51 -52c0 -30 -23 -55 -54 -55zM86 557c-30 0 -53 24 -53 54c0 32 26 53 56 53c28 0 51 -25 51 -52c0 -30 -23 -55 -54 -55z" />
    <glyph glyph-name="eth.sc" unicode="&#xf7f0;" 
d="M102 108v132h-80v40h80v100c0 66 -12 78 -52 78h-18v32c31 -1 69 -2 143 -2c39 0 83 2 127 2c172 0 279 -111 279 -247c0 -131 -91 -245 -256 -245c-39 0 -89 2 -150 2c-74 0 -112 -1 -143 -2v32h18c40 0 52 12 52 78zM350 280v-40h-102v-120c0 -66 23 -82 69 -82
c78 0 106 82 106 205c0 142 -39 207 -132 207c-34 0 -43 -4 -43 -31v-139h102z" />
    <glyph glyph-name="ntilde.sc" unicode="&#xf7f1;" 
d="M515 -16h-44l-331 379v-234c0 -86 22 -99 72 -99v-32c-21 1 -45 2 -94 2c-47 0 -68 -1 -93 -2v32c50 0 71 22 71 99v282c-23 36 -45 47 -71 47v32c29 -1 60 -2 93 -2c35 0 64 1 89 2l264 -304v173c0 86 -22 99 -72 99v32c21 -1 45 -2 94 -2c47 0 68 1 93 2v-32
c-50 0 -71 -22 -71 -99v-375zM195 558l-23 3c6 42 43 98 91 98c23 0 37 -6 57 -15c19 -8 42 -19 63 -19c20 0 36 17 41 35l24 -3c-7 -44 -37 -97 -88 -97c-18 0 -38 8 -54 15c-18 6 -43 17 -62 17c-23 0 -42 -13 -49 -34z" />
    <glyph glyph-name="ograve.sc" unicode="&#xf7f2;" 
d="M30 241c0 156 106 263 275 263s275 -107 275 -257c0 -156 -106 -263 -275 -263s-275 107 -275 257zM188 241c0 -135 35 -217 117 -217s117 82 117 223c0 135 -35 217 -117 217s-117 -82 -117 -223zM417 529h-32l-120 73l-24 16c-13 8 -39 24 -39 42c0 21 17 39 38 39
c25 0 49 -31 65 -48z" />
    <glyph glyph-name="oacute.sc" unicode="&#xf7f3;" 
d="M30 241c0 156 106 263 275 263s275 -107 275 -257c0 -156 -106 -263 -275 -263s-275 107 -275 257zM188 241c0 -135 35 -217 117 -217s117 82 117 223c0 135 -35 217 -117 217s-117 -82 -117 -223zM202 529l112 122c16 17 40 48 65 48c21 0 38 -18 38 -39
c0 -18 -26 -34 -39 -42l-24 -16l-120 -73h-32z" />
    <glyph glyph-name="ocircumflex.sc" unicode="&#xf7f4;" 
d="M30 241c0 156 106 263 275 263s275 -107 275 -257c0 -156 -106 -263 -275 -263s-275 107 -275 257zM188 241c0 -135 35 -217 117 -217s117 82 117 223c0 135 -35 217 -117 217s-117 -82 -117 -223zM433 529h-32l-99 94l-97 -94h-33l99 165h62z" />
    <glyph glyph-name="otilde.sc" unicode="&#xf7f5;" 
d="M30 241c0 156 106 263 275 263s275 -107 275 -257c0 -156 -106 -263 -275 -263s-275 107 -275 257zM188 241c0 -135 35 -217 117 -217s117 82 117 223c0 135 -35 217 -117 217s-117 -82 -117 -223zM195 558l-23 3c6 42 43 98 91 98c23 0 37 -6 57 -15
c19 -8 42 -19 63 -19c20 0 36 17 41 35l24 -3c-7 -44 -37 -97 -88 -97c-18 0 -38 8 -54 15c-18 6 -43 17 -62 17c-23 0 -42 -13 -49 -34z" />
    <glyph glyph-name="odieresis.sc" unicode="&#xf7f6;" 
d="M30 241c0 156 106 263 275 263s275 -107 275 -257c0 -156 -106 -263 -275 -263s-275 107 -275 257zM188 241c0 -135 35 -217 117 -217s117 82 117 223c0 135 -35 217 -117 217s-117 -82 -117 -223zM389 557c-30 0 -53 24 -53 54c0 32 26 53 56 53c28 0 51 -25 51 -52
c0 -30 -23 -55 -54 -55zM225 557c-30 0 -53 24 -53 54c0 32 26 53 56 53c28 0 51 -25 51 -52c0 -30 -23 -55 -54 -55z" />
    <glyph glyph-name="oe.sc" unicode="&#xf6fa;" horiz-adv-x="833" 
d="M781 490v-140h-32c-21 74 -46 98 -144 98c-54 0 -57 -4 -57 -25v-149h24c50 0 71 31 77 79h32v-192h-32c-6 42 -27 73 -77 73h-24v-110c0 -60 18 -84 94 -84c86 0 108 35 130 122h32v-164c-51 0 -157 2 -311 2c-33 0 -61 -2 -88 -3c-27 -2 -55 -4 -89 -4
c-207 0 -304 113 -304 251s97 251 304 251c34 0 62 -2 89 -3c27 -2 55 -4 88 -4c155 0 236 2 288 2zM402 123v242c0 68 -27 90 -93 90c-88 0 -139 -61 -139 -211s51 -211 139 -211c66 0 93 22 93 90z" />
    <glyph glyph-name="oslash.sc" unicode="&#xf7f8;" 
d="M201 125l183 297c-18 27 -44 42 -79 42c-82 0 -117 -82 -117 -223c0 -45 4 -84 13 -116zM405 379l-186 -301c18 -35 46 -54 86 -54c82 0 117 82 117 223c0 53 -5 98 -17 132zM112 -96h-48l77 125c-71 45 -111 120 -111 212c0 156 106 263 275 263c44 0 84 -7 117 -20
l62 100h48l-73 -118c77 -43 121 -122 121 -219c0 -156 -106 -263 -275 -263c-49 0 -92 9 -128 26z" />
    <glyph glyph-name="ugrave.sc" unicode="&#xf7f9;" 
d="M589 490v-32c-46 0 -68 -13 -68 -99v-146c0 -159 -60 -229 -212 -229s-219 56 -219 209v187c0 66 -12 78 -52 78h-16v32c29 -1 67 -2 141 -2s112 1 143 2v-32h-18c-40 0 -52 -12 -52 -78v-207c0 -98 30 -133 111 -133c91 0 130 52 130 154v165c0 77 -21 99 -71 99v32
c25 -1 46 -2 93 -2c49 0 73 1 90 2zM417 529h-32l-120 73l-24 16c-13 8 -39 24 -39 42c0 21 17 39 38 39c25 0 49 -31 65 -48z" />
    <glyph glyph-name="uacute.sc" unicode="&#xf7fa;" 
d="M589 490v-32c-46 0 -68 -13 -68 -99v-146c0 -159 -60 -229 -212 -229s-219 56 -219 209v187c0 66 -12 78 -52 78h-16v32c29 -1 67 -2 141 -2s112 1 143 2v-32h-18c-40 0 -52 -12 -52 -78v-207c0 -98 30 -133 111 -133c91 0 130 52 130 154v165c0 77 -21 99 -71 99v32
c25 -1 46 -2 93 -2c49 0 73 1 90 2zM202 529l112 122c16 17 40 48 65 48c21 0 38 -18 38 -39c0 -18 -26 -34 -39 -42l-24 -16l-120 -73h-32z" />
    <glyph glyph-name="ucircumflex.sc" unicode="&#xf7fb;" 
d="M589 490v-32c-46 0 -68 -13 -68 -99v-146c0 -159 -60 -229 -212 -229s-219 56 -219 209v187c0 66 -12 78 -52 78h-16v32c29 -1 67 -2 141 -2s112 1 143 2v-32h-18c-40 0 -52 -12 -52 -78v-207c0 -98 30 -133 111 -133c91 0 130 52 130 154v165c0 77 -21 99 -71 99v32
c25 -1 46 -2 93 -2c49 0 73 1 90 2zM433 529h-32l-99 94l-97 -94h-33l99 165h62z" />
    <glyph glyph-name="udieresis.sc" unicode="&#xf7fc;" 
d="M589 490v-32c-46 0 -68 -13 -68 -99v-146c0 -159 -60 -229 -212 -229s-219 56 -219 209v187c0 66 -12 78 -52 78h-16v32c29 -1 67 -2 141 -2s112 1 143 2v-32h-18c-40 0 -52 -12 -52 -78v-207c0 -98 30 -133 111 -133c91 0 130 52 130 154v165c0 77 -21 99 -71 99v32
c25 -1 46 -2 93 -2c49 0 73 1 90 2zM389 557c-30 0 -53 24 -53 54c0 32 26 53 56 53c28 0 51 -25 51 -52c0 -30 -23 -55 -54 -55zM225 557c-30 0 -53 24 -53 54c0 32 26 53 56 53c28 0 51 -25 51 -52c0 -30 -23 -55 -54 -55z" />
    <glyph glyph-name="yacute.sc" unicode="&#xf7fd;" horiz-adv-x="556" 
d="M19 458v32c36 -1 85 -2 135 -2c54 0 106 1 128 2v-32h-20c-29 0 -38 -8 -38 -25c0 -8 6 -27 21 -52l79 -136l66 104c22 34 31 62 31 76c0 28 -20 33 -57 33v32c30 -1 62 -2 94 -2c26 0 50 1 79 2v-32c-34 -2 -41 -15 -79 -78l-107 -178v-94c0 -66 12 -78 52 -78h18v-32
c-31 1 -69 2 -143 2s-112 -1 -143 -2v32h18c40 0 52 12 52 78v79l-117 209c-30 52 -34 58 -69 62zM174 529l112 122c16 17 40 48 65 48c21 0 38 -18 38 -39c0 -18 -26 -34 -39 -42l-24 -16l-120 -73h-32z" />
    <glyph glyph-name="thorn.sc" unicode="&#xf7fe;" horiz-adv-x="556" 
d="M248 323v-161h34c66 0 96 36 96 98c0 64 -34 90 -95 90c-30 0 -35 -8 -35 -27zM248 126v-18c0 -66 12 -78 52 -78h18v-32c-31 1 -69 2 -143 2s-112 -1 -143 -2v32h18c40 0 52 12 52 78v272c0 66 -12 78 -52 78h-18v32c31 -1 69 -2 143 -2s112 1 143 2v-32h-18
c-40 0 -52 -12 -52 -70c17 0 45 1 76 2c119 2 200 -38 200 -132c0 -89 -69 -136 -215 -136c-19 0 -41 2 -61 4z" />
    <glyph glyph-name="ydieresis.sc" unicode="&#xf7ff;" horiz-adv-x="556" 
d="M19 458v32c36 -1 85 -2 135 -2c54 0 106 1 128 2v-32h-20c-29 0 -38 -8 -38 -25c0 -8 6 -27 21 -52l79 -136l66 104c22 34 31 62 31 76c0 28 -20 33 -57 33v32c30 -1 62 -2 94 -2c26 0 50 1 79 2v-32c-34 -2 -41 -15 -79 -78l-107 -178v-94c0 -66 12 -78 52 -78h18v-32
c-31 1 -69 2 -143 2s-112 -1 -143 -2v32h18c40 0 52 12 52 78v79l-117 209c-30 52 -34 58 -69 62zM361 557c-30 0 -53 24 -53 54c0 32 26 53 56 53c28 0 51 -25 51 -52c0 -30 -23 -55 -54 -55zM197 557c-30 0 -53 24 -53 54c0 32 26 53 56 53c28 0 51 -25 51 -52
c0 -30 -23 -55 -54 -55z" />
    <glyph glyph-name="Delta" unicode="&#x2206;" horiz-adv-x="618" 
d="M585 0h-553v36l243 624l55 13l255 -637v-36zM428 61l-167 431l-162 -431h329z" />
    <glyph glyph-name="Omega" unicode="&#x2126;" horiz-adv-x="681" 
d="M650 164l-26 -164h-237l-9 21c37 97 98 232 98 350c-1 198 -61 265 -138 265c-79 0 -134 -58 -134 -268c0 -116 51 -242 95 -347l-9 -21h-237l-23 164h33c19 -56 34 -66 74 -66h86c-67 53 -164 132 -164 279c0 181 122 297 283 297s278 -112 278 -292
c0 -134 -93 -216 -170 -284h97c37 0 50 9 69 66h34z" />
    <glyph glyph-name="uni03BC" unicode="&#x3bc;" horiz-adv-x="560" 
d="M558 60v-32l-179 -41l-9 97h-2c-47 -75 -101 -97 -179 -97l21 -83c7 -24 13 -51 13 -75c0 -44 -29 -92 -75 -92c-49 0 -78 48 -78 92v468c0 17 1 62 -9 75c-11 14 -37 14 -53 16v33l193 11v-273c0 -52 4 -107 67 -107c75 0 92 74 92 140v105c0 17 0 62 -9 75
c-10 15 -37 14 -53 16v33l193 11v-288c0 -19 0 -53 10 -69c12 -19 38 -15 57 -15z" />
    <glyph glyph-name="pi" unicode="&#x3c0;" horiz-adv-x="551" 
d="M499 458l29 -7c-5 -41 -23 -96 -36 -114c-15 -5 -35 -6 -58 -6c-6 -64 -5 -118 -5 -183c0 -62 13 -83 36 -83c16 0 26 7 41 19l12 -26c-23 -39 -70 -71 -113 -71c-53 0 -99 28 -99 132c0 90 4 142 9 214c-44 0 -78 2 -114 2v-9c0 -224 -46 -299 -62 -321
c-24 -10 -50 -16 -69 -18l-8 22c68 97 89 235 89 328c-55 1 -77 -10 -118 -35l-16 30c30 38 66 100 173 98c74 -1 166 -2 253 -2c32 0 43 6 56 30z" />
    <glyph glyph-name="Euro" unicode="&#x20ac;" horiz-adv-x="520" 
d="M384 250h-159c7 -110 32 -219 116 -219c58 0 101 59 111 185h41v-213h-37l-14 49c-37 -60 -86 -65 -132 -65c-120 0 -212 103 -228 263h-73v46h70c-1 8 -1 15 -1 23c0 17 1 34 2 51h-71v45h77c25 156 116 261 233 261c52 0 86 -17 120 -56l10 49h39c1 -92 1 -102 5 -196
h-43c-9 53 -36 163 -114 163c-72 0 -101 -115 -110 -221h158v-45h-161v-36v-38h161v-46z" />
    <glyph glyph-name="afii61289" unicode="&#x2113;" horiz-adv-x="423" 
d="M384 136l25 -22c-41 -78 -99 -126 -179 -126c-55 0 -89 16 -110 39c-23 29 -35 54 -35 143v64l-52 -34l-13 31l65 47v136c0 134 13 184 51 234c31 42 70 63 109 63c67 0 101 -59 101 -134c0 -110 -49 -183 -138 -271v-76c0 -123 19 -165 75 -165c44 0 76 34 101 71z
M208 464v-101c41 48 71 124 71 211c0 62 -11 102 -36 102c-29 0 -35 -40 -35 -212z" />
    <glyph glyph-name="estimated" unicode="&#x212e;" horiz-adv-x="829" 
d="M796 321h-618c-3 0 -5 -1 -5 -4v-187c0 -8 3 -15 8 -21c60 -62 142 -102 234 -102c98 0 186 45 246 114h55c-68 -81 -179 -133 -302 -133c-211 0 -382 153 -382 342c0 191 171 344 382 344s382 -153 382 -344v-9zM656 346v188c0 8 -3 16 -9 22c-60 59 -142 98 -232 98
c-91 0 -173 -40 -233 -101c-6 -6 -9 -14 -9 -23v-184c0 -2 2 -6 5 -6h474c3 0 4 4 4 6z" />
    <glyph glyph-name="partialdiff" unicode="&#x2202;" horiz-adv-x="523" 
d="M256 414h1c38 0 82 -16 109 -53c4 31 10 71 12 108c3 46 0 98 -22 144c-18 35 -52 61 -105 61s-103 -34 -137 -63c-17 0 -48 60 -38 87c33 19 76 38 138 38c96 0 167 -54 212 -140c39 -76 51 -167 51 -230c0 -78 -15 -167 -47 -232c-41 -86 -111 -146 -212 -146
c-107 0 -180 71 -180 190c0 68 28 128 59 164c37 43 95 72 159 72zM284 367h-1c-27 0 -55 -8 -81 -53c-27 -51 -42 -134 -42 -205c0 -55 21 -85 61 -85c39 0 70 57 89 102c23 56 35 109 46 188c-9 22 -36 53 -72 53z" />
    <glyph glyph-name="product" unicode="&#x220f;" horiz-adv-x="682" 
d="M656 670v-34c-82 -6 -88 -16 -88 -94v-490c0 -84 7 -93 87 -100v-34h-286v34c66 6 70 13 70 99v541c0 32 -5 36 -36 36h-128c-30 0 -33 -3 -33 -32v-545c0 -81 -1 -93 62 -99v-34h-279v34c79 6 87 17 87 99v491c0 79 -7 88 -90 94v34h634z" />
    <glyph glyph-name="summation" unicode="&#x2211;" horiz-adv-x="535" 
d="M515 122l-46 -211h-444v32l205 299l-202 394v34h442c1 -19 7 -103 11 -171l-34 -7c-9 40 -20 73 -34 99c-16 30 -33 38 -102 38h-129l155 -295l-210 -315h215c85 0 98 6 139 111z" />
    <glyph glyph-name="uni2219" unicode="&#x2219;" horiz-adv-x="260" 
d="M68 235c0 34 28 62 62 62s62 -28 62 -62s-28 -62 -62 -62s-62 28 -62 62z" />
    <glyph glyph-name="radical" unicode="&#x221a;" horiz-adv-x="536" 
d="M527 833l-170 -997l-28 -12l-199 520l-83 -37l-13 40l180 78l132 -368h2l130 785z" />
    <glyph glyph-name="infinity" unicode="&#x221e;" horiz-adv-x="722" 
d="M677 274v-1c0 -105 -75 -166 -152 -166c-51 0 -103 19 -163 103c-48 -60 -96 -103 -170 -103c-78 0 -150 64 -150 161c0 98 69 164 158 164c68 0 117 -37 165 -99c35 40 80 100 165 99c81 0 147 -62 147 -158zM201 180h1c49 0 85 42 120 85c-37 51 -66 96 -123 96
c-51 0 -82 -38 -82 -94c-1 -48 37 -87 84 -87zM523 361h-1c-54 0 -93 -55 -121 -89c54 -71 81 -92 126 -92c49 0 76 49 76 88c0 52 -31 93 -80 93z" />
    <glyph glyph-name="integral" unicode="&#x222b;" horiz-adv-x="391" 
d="M154 -14l-21 380c-19 359 95 431 174 431c32 0 74 -19 74 -57c0 -41 -31 -60 -60 -60c-39 0 -34 63 -54 63c-18 0 -29 -23 -23 -140l18 -348c18 -328 -74 -458 -180 -458c-40 0 -73 26 -73 59c-1 38 36 63 68 63c33 0 32 -69 52 -69c24 0 29 53 25 136z" />
    <glyph glyph-name="approxequal" unicode="&#x2248;" horiz-adv-x="499" 
d="M416 434l50 -44c-30 -58 -77 -100 -129 -100c-36 0 -61 11 -99 36c-26 17 -47 31 -76 31c-39 0 -61 -33 -82 -66l-50 44c26 55 79 98 138 98c44 0 72 -18 94 -32c33 -21 50 -33 75 -33c33 0 55 28 79 66zM416 256l50 -45c-30 -56 -76 -99 -129 -99c-36 0 -63 12 -99 35
c-27 19 -48 32 -75 32c-41 0 -62 -34 -83 -66l-50 43c26 55 80 99 138 99c45 0 72 -19 94 -32c27 -17 47 -34 74 -34c35 0 55 28 80 67z" />
    <glyph glyph-name="notequal" unicode="&#x2260;" horiz-adv-x="499" 
d="M372 485l-33 -78h116v-77h-144l-51 -122h195v-77h-224l-44 -103l-61 24l34 79h-117v77h146l51 122h-197v77h225l43 102z" />
    <glyph glyph-name="lessequal" unicode="&#x2264;" horiz-adv-x="499" 
d="M453 97l-405 208v84l405 206v-90l-330 -157v-2l330 -158v-91zM457 -15h-412v79h412v-79z" />
    <glyph glyph-name="greaterequal" unicode="&#x2265;" horiz-adv-x="499" 
d="M50 595l405 -207v-84l-406 -207v91l331 158v2l-330 157v90zM455 -15h-410v79h410v-79z" />
    <glyph glyph-name="lozenge" unicode="&#x25ca;" horiz-adv-x="540" 
d="M496 321l-178 -388h-96l-178 388l180 390h94zM409 321l-136 309h-4l-138 -309l139 -311h3z" />
    <glyph glyph-name="uni00A0" unicode="&#xa0;" horiz-adv-x="260" 
 />
    <glyph glyph-name="uni00AD" unicode="&#xad;" horiz-adv-x="240" 
d="M236 171h-232v90h232v-90z" />
    <glyph glyph-name="uni02C9" unicode="&#x2c9;" horiz-adv-x="500" 
d="M428 551h-362v60h362v-60z" />
    <glyph glyph-name="zero.taboldstyle" unicode="&#xf643;" horiz-adv-x="556" 
d="M42 219c0 128 85 232 236 232s236 -104 236 -232s-85 -232 -236 -232s-236 104 -236 232zM192 219c0 -132 22 -192 86 -192s86 60 86 192s-22 192 -86 192s-86 -60 -86 -192z" />
    <glyph glyph-name="one.taboldstyle" unicode="&#xf644;" horiz-adv-x="556" 
d="M120 396v36h31c70 0 138 6 178 15h30v-344c0 -57 9 -69 92 -69v-36c-33 1 -83 2 -163 2c-68 0 -134 -1 -168 -2v36c86 1 93 17 93 74v226c0 52 -7 57 -93 62z" />
    <glyph glyph-name="two.taboldstyle" unicode="&#xf645;" horiz-adv-x="556" 
d="M466 116l-33 -175h-37c2 14 4 26 4 35c0 15 -4 24 -32 24c-129 0 -238 -1 -301 -2c39 133 253 208 253 332c0 41 -25 81 -73 81c-49 0 -77 -34 -77 -72c0 -30 13 -45 37 -45c9 0 11 3 15 3c3 0 4 -2 4 -6c0 -24 -28 -53 -75 -53c-53 0 -79 42 -79 83c0 70 72 130 196 130
c126 0 202 -49 202 -134c0 -126 -181 -128 -255 -201c43 -1 88 -2 135 -2c38 0 76 1 116 2z" />
    <glyph glyph-name="three.taboldstyle" unicode="&#xf646;" horiz-adv-x="556" 
d="M341 -36c0 94 -31 144 -78 144c-46 0 -54 -71 -97 -71c-17 0 -28 15 -28 29c0 27 22 33 65 61c78 51 114 107 114 180c0 58 -33 94 -81 94c-49 0 -79 -28 -79 -70c0 -26 12 -43 38 -43c21 0 29 8 35 8c4 0 7 -4 7 -11c0 -36 -27 -77 -84 -77c-52 0 -86 36 -86 87
c0 85 82 156 207 156c114 0 182 -51 182 -130c0 -70 -57 -129 -126 -157c-20 -8 -28 -11 -28 -16c0 -4 3 -6 7 -6c6 0 13 2 31 2c79 0 154 -60 154 -164c0 -128 -125 -232 -274 -232c-99 0 -178 38 -178 101c0 36 24 61 56 61c84 0 58 -122 134 -122c60 0 109 54 109 176z
" />
    <glyph glyph-name="four.taboldstyle" unicode="&#xf647;" horiz-adv-x="556" 
d="M353 465h73v-409h102v-56h-102v-120c0 -67 11 -68 97 -71v-36c-22 0 -97 2 -171 2c-64 0 -145 -2 -171 -2v36c82 1 99 10 99 83v108h-261v64zM69 56h211v250h-2z" />
    <glyph glyph-name="five.taboldstyle" unicode="&#xf648;" horiz-adv-x="556" 
d="M163 301l-7 -162c32 32 80 53 143 53c108 0 199 -67 199 -196c0 -141 -114 -248 -273 -248c-128 0 -181 49 -181 102c0 31 21 57 57 57c82 0 55 -119 140 -119c51 0 107 51 107 189c0 93 -34 150 -102 150c-58 0 -85 -30 -85 -63c0 -11 1 -21 1 -30
c0 -17 -11 -27 -32 -27c-18 0 -30 10 -30 28c0 21 1 48 2 71l15 345h36c35 -27 77 -42 150 -42c74 0 115 19 137 49h28c-25 -123 -109 -167 -232 -167c-32 0 -57 3 -73 10z" />
    <glyph glyph-name="six.taboldstyle" unicode="&#xf649;" horiz-adv-x="556" 
d="M318 440c114 0 196 -84 196 -212c0 -134 -99 -241 -240 -241c-144 0 -233 123 -233 317c0 242 108 386 289 386c90 0 153 -39 153 -96c0 -29 -24 -55 -58 -55c-84 0 -52 111 -128 111c-82 0 -98 -114 -101 -250c31 23 75 40 122 40zM364 212c0 137 -31 172 -83 172
c-34 0 -72 -23 -82 -46c-8 -18 -8 -46 -8 -99c0 -169 30 -212 82 -212c62 0 91 48 91 185z" />
    <glyph glyph-name="seven.taboldstyle" unicode="&#xf64a;" horiz-adv-x="556" 
d="M51 218l59 289h36c-2 -16 -4 -27 -4 -44c0 -21 8 -25 31 -25h329v-32c-78 -164 -147 -350 -168 -510c-11 -85 -22 -148 -94 -148c-45 0 -70 29 -70 70c0 107 151 323 248 502h-233c-58 0 -69 -17 -94 -102h-40z" />
    <glyph glyph-name="eight.taboldstyle" unicode="&#xf64b;" horiz-adv-x="556" 
d="M340 414c32 27 49 71 49 108c0 81 -47 128 -115 128c-66 0 -102 -43 -102 -96c0 -63 46 -88 168 -140zM505 200c0 -127 -92 -213 -234 -213c-135 0 -219 79 -219 175c0 72 42 122 132 164c-84 50 -110 109 -110 179c0 103 81 185 211 185c120 0 198 -65 198 -154
c0 -60 -36 -106 -103 -141c80 -49 125 -106 125 -195zM407 145c0 72 -51 111 -180 161c-53 -38 -69 -84 -69 -140c0 -86 44 -139 123 -139c86 0 126 59 126 118z" />
    <glyph glyph-name="nine.taboldstyle" unicode="&#xf64c;" horiz-adv-x="556" 
d="M238 -2c-114 0 -196 84 -196 212c0 134 99 241 240 241c144 0 233 -123 233 -317c0 -242 -108 -386 -289 -386c-90 0 -153 39 -153 96c0 29 24 55 58 55c84 0 52 -111 128 -111c82 0 98 114 101 250c-31 -23 -75 -40 -122 -40zM192 226c0 -137 31 -172 83 -172
c34 0 72 23 82 46c8 18 8 46 8 99c0 169 -30 212 -82 212c-62 0 -91 -48 -91 -185z" />
    <glyph glyph-name="dollar.taboldstyle" unicode="&#xf653;" horiz-adv-x="556" 
d="M255 431v189c-49 -3 -91 -39 -91 -90c0 -54 48 -81 91 -99zM305 250v-223c52 4 97 48 97 102c0 68 -46 92 -97 121zM255 660v74h50v-74c64 2 186 -40 186 -119c0 -28 -21 -54 -50 -54c-35 0 -49 27 -56 56c-12 47 -23 76 -80 77v-211c96 -52 197 -99 197 -226
c0 -126 -83 -182 -197 -196v-139h-50v139c-66 5 -201 26 -201 118c0 30 22 56 53 56c41 0 54 -34 62 -68c5 -22 7 -40 29 -53c18 -11 38 -13 57 -13v245l-70 39c-68 38 -116 82 -116 166c0 110 83 177 186 183z" />
    <glyph glyph-name="cent.taboldstyle" unicode="&#xf654;" horiz-adv-x="556" 
d="M292 109l-55 5l-50 -128h-40l53 138c-88 37 -128 110 -128 205c0 137 107 229 240 229l52 -4l45 114h42l-49 -124c38 -11 77 -39 77 -82c0 -30 -25 -55 -55 -55c-27 0 -49 21 -59 45l-98 -262c16 -18 43 -25 67 -25c55 0 84 27 117 67l33 -27c-39 -66 -117 -96 -192 -96z
M239 225l103 273c-11 14 -26 18 -43 18c-75 0 -82 -122 -82 -175c0 -39 3 -81 22 -116z" />
    <glyph glyph-name="f_i.sc" unicode="&#xe03d;" horiz-adv-x="833" 
d="M372 353v-192h-32c-6 42 -27 73 -77 73h-24v-126c0 -66 12 -78 52 -78h18v-32c-31 1 -69 2 -143 2s-112 -1 -143 -2v32h18c40 0 52 12 52 78v272c0 66 -12 78 -52 78h-18v32c31 -1 69 -2 143 -2c163 0 251 2 316 2v-140h-32c-21 74 -46 100 -154 100
c-54 0 -57 -4 -57 -25v-151h24c50 0 71 31 77 79h32zM739 380v-272c0 -66 12 -78 52 -78h18v-32c-31 1 -69 2 -143 2s-112 -1 -143 -2v32h18c40 0 52 12 52 78v272c0 66 -12 78 -52 78h-18v32c31 -1 69 -2 143 -2s112 1 143 2v-32h-18c-40 0 -52 -12 -52 -78z" />
    <glyph glyph-name="f_l.sc" unicode="&#xe03e;" horiz-adv-x="1056" 
d="M372 353v-192h-32c-6 42 -27 73 -77 73h-24v-126c0 -66 12 -78 52 -78h18v-32c-31 1 -69 2 -143 2s-112 -1 -143 -2v32h18c40 0 52 12 52 78v272c0 66 -12 78 -52 78h-18v32c31 -1 69 -2 143 -2c163 0 251 2 316 2v-140h-32c-21 74 -46 100 -154 100
c-54 0 -57 -4 -57 -25v-151h24c50 0 71 31 77 79h32zM602 108v272c0 66 -12 78 -52 78h-18v32c31 -1 69 -2 143 -2s112 1 143 2v-32h-18c-40 0 -52 -12 -52 -78v-258c0 -60 18 -84 98 -84c86 0 122 37 145 124h32l-8 -164c-67 0 -191 2 -340 2c-74 0 -112 -1 -143 -2v32h18
c40 0 52 12 52 78z" />
    <glyph glyph-name="germandbls.sc" unicode="&#xe03f;" horiz-adv-x="888" 
d="M342 499h40l5 -148h-39c-35 81 -74 113 -137 113c-39 0 -65 -23 -65 -57c0 -109 265 -70 265 -265c0 -91 -71 -158 -198 -158c-55 0 -101 21 -132 44l-11 -32h-37v165h36c14 -74 67 -131 142 -131c51 0 84 27 84 69c0 105 -259 68 -259 259c0 84 70 146 174 146
c48 0 91 -19 120 -40zM786 499h40l5 -148h-39c-35 81 -74 113 -137 113c-39 0 -65 -23 -65 -57c0 -109 265 -70 265 -265c0 -91 -71 -158 -198 -158c-55 0 -101 21 -132 44l-11 -32h-37v165h36c14 -74 67 -131 142 -131c51 0 84 27 84 69c0 105 -259 68 -259 259
c0 84 70 146 174 146c48 0 91 -19 120 -40z" />
    <glyph glyph-name="uni2215" unicode="&#x2215;" horiz-adv-x="140" 
d="M337 658l-480 -658h-53l481 658h52z" />
    <glyph glyph-name="A.sc" unicode="&#xe000;" 
d="M345 136h-173l-11 -30c-6 -14 -10 -32 -10 -42c0 -22 11 -32 65 -34v-32c-20 0 -51 2 -95 2s-75 -2 -95 -2v32c46 6 66 32 93 93l168 377h48l168 -392c23 -55 36 -71 81 -78v-32c-18 0 -61 2 -140 2s-122 -2 -140 -2v32h25c31 0 38 10 38 23c0 9 -4 26 -9 42zM264 348
l-75 -172h141z" />
    <glyph glyph-name="B.sc" unicode="&#xe008;" horiz-adv-x="556" 
d="M93 108v272c0 66 -12 78 -52 78h-18v32c31 -1 69 -2 143 -2c54 0 108 2 153 2c124 0 175 -52 175 -117c0 -75 -72 -111 -156 -121v-2c118 -12 184 -46 184 -128c0 -76 -60 -124 -197 -124c-47 0 -100 2 -159 2c-74 0 -112 -1 -143 -2v32h18c40 0 52 12 52 78zM239 229
v-136c0 -35 18 -55 63 -55c49 0 74 39 74 89c0 57 -30 102 -107 102h-30zM239 426v-157h30c57 0 87 37 87 94c0 60 -38 87 -88 87c-27 0 -29 -7 -29 -24z" />
    <glyph glyph-name="C.sc" unicode="&#xe009;" horiz-adv-x="556" 
d="M449 454l12 41h40l5 -166h-40c-15 58 -52 125 -135 125c-81 0 -139 -56 -139 -213c0 -140 61 -201 137 -201c88 0 130 70 143 134h44v-174h-44l-16 43c-35 -28 -97 -59 -176 -59c-134 0 -246 94 -246 257c0 158 109 263 255 263c68 0 123 -27 160 -50z" />
    <glyph glyph-name="D.sc" unicode="&#xe00b;" 
d="M102 108v272c0 66 -12 78 -52 78h-18v32c31 -1 69 -2 143 -2c39 0 83 2 127 2c172 0 279 -111 279 -247c0 -131 -91 -245 -256 -245c-39 0 -89 2 -150 2c-74 0 -112 -1 -143 -2v32h18c40 0 52 12 52 78zM248 419v-299c0 -66 23 -82 69 -82c78 0 106 82 106 205
c0 142 -39 207 -132 207c-34 0 -43 -4 -43 -31z" />
    <glyph glyph-name="E.sc" unicode="&#xe00c;" horiz-adv-x="556" 
d="M381 353v-192h-32c-6 42 -27 73 -77 73h-24v-112c0 -60 18 -84 94 -84c86 0 118 37 140 124h32v-164c-66 0 -190 2 -339 2c-74 0 -112 -1 -143 -2v32h18c40 0 52 12 52 78v272c0 66 -12 78 -52 78h-18v32c31 -1 69 -2 143 -2c163 0 251 2 316 2v-140h-32
c-21 74 -46 100 -154 100c-54 0 -57 -4 -57 -25v-151h24c50 0 71 31 77 79h32z" />
    <glyph glyph-name="F.sc" unicode="&#xe012;" horiz-adv-x="500" 
d="M372 353v-192h-32c-6 42 -27 73 -77 73h-24v-126c0 -66 12 -78 52 -78h18v-32c-31 1 -69 2 -143 2s-112 -1 -143 -2v32h18c40 0 52 12 52 78v272c0 66 -12 78 -52 78h-18v32c31 -1 69 -2 143 -2c163 0 251 2 316 2v-140h-32c-21 74 -46 100 -154 100
c-54 0 -57 -4 -57 -25v-151h24c50 0 71 31 77 79h32z" />
    <glyph glyph-name="G.sc" unicode="&#xe013;" 
d="M596 208v-32h-8c-40 0 -52 -12 -52 -78c0 -20 2 -47 3 -60c-114 -14 -156 -54 -247 -54c-164 0 -266 101 -266 257c0 158 109 263 255 263c68 0 123 -27 160 -50l12 41h40l5 -166h-40c-15 58 -52 125 -135 125c-81 0 -139 -56 -139 -213c0 -150 51 -207 128 -207
c63 0 88 33 88 82c0 55 -23 60 -64 60v32c40 -1 83 -2 134 -2c67 0 105 1 126 2z" />
    <glyph glyph-name="H.sc" unicode="&#xe014;" horiz-adv-x="667" 
d="M239 274h188v106c0 66 -12 78 -52 78h-18v32c31 -1 69 -2 143 -2s112 1 143 2v-32h-18c-40 0 -52 -12 -52 -78v-272c0 -66 12 -78 52 -78h18v-32c-31 1 -69 2 -143 2s-112 -1 -143 -2v32h18c40 0 52 12 52 78v126h-188v-126c0 -66 12 -78 52 -78h18v-32
c-31 1 -69 2 -143 2s-112 -1 -143 -2v32h18c40 0 52 12 52 78v272c0 66 -12 78 -52 78h-18v32c31 -1 69 -2 143 -2s112 1 143 2v-32h-18c-40 0 -52 -12 -52 -78v-106z" />
    <glyph glyph-name="I.sc" unicode="&#xe015;" horiz-adv-x="333" 
d="M239 380v-272c0 -66 12 -78 52 -78h18v-32c-31 1 -69 2 -143 2s-112 -1 -143 -2v32h18c40 0 52 12 52 78v272c0 66 -12 78 -52 78h-18v32c31 -1 69 -2 143 -2s112 1 143 2v-32h-18c-40 0 -52 -12 -52 -78z" />
    <glyph glyph-name="J.sc" unicode="&#xe01a;" horiz-adv-x="333" 
d="M315 490v-32h-18c-40 0 -52 -12 -52 -78v-396c0 -163 -63 -230 -209 -230c-96 0 -151 40 -151 90c0 33 22 55 57 55c30 0 47 -17 61 -49c15 -35 19 -56 47 -56c33 0 49 38 49 140v446c0 66 -12 78 -52 78h-18v32c31 -1 69 -2 143 -2s112 1 143 2z" />
    <glyph glyph-name="K.sc" unicode="&#xe01b;" 
d="M239 380v-145l110 112c35 35 50 59 50 78c0 27 -18 33 -52 33v32c23 -1 61 -2 104 -2c49 0 81 1 102 2v-32c-42 -3 -71 -28 -117 -78l-56 -61l176 -240c26 -36 37 -48 56 -49v-32c-34 1 -78 2 -127 2c-55 0 -102 -1 -133 -2v32h10c24 0 38 6 38 24c0 17 -9 31 -38 69
l-77 102l-46 -46v-71c0 -66 12 -78 52 -78h6v-32c-19 1 -57 2 -131 2s-112 -1 -143 -2v32h18c40 0 52 12 52 78v272c0 66 -12 78 -52 78h-18v32c31 -1 69 -2 143 -2s112 1 131 2v-32h-6c-40 0 -52 -12 -52 -78z" />
    <glyph glyph-name="L.sc" unicode="&#xe01c;" horiz-adv-x="556" 
d="M102 108v272c0 66 -12 78 -52 78h-18v32c31 -1 69 -2 143 -2s112 1 143 2v-32h-18c-40 0 -52 -12 -52 -78v-258c0 -60 18 -84 98 -84c86 0 122 37 145 124h32l-8 -164c-67 0 -191 2 -340 2c-74 0 -112 -1 -143 -2v32h18c40 0 52 12 52 78z" />
    <glyph glyph-name="M.sc" unicode="&#xe01e;" horiz-adv-x="722" 
d="M367 179l128 311c24 -1 56 -2 102 -2c36 0 74 1 105 2v-32h-18c-40 0 -52 -12 -52 -78v-272c0 -66 12 -78 52 -78h18v-32c-31 1 -69 2 -132 2c-71 0 -118 -1 -138 -2v32c45 0 64 12 64 78v270h-2l-159 -378h-38l-162 384h-2v-255c0 -86 22 -99 72 -99v-32
c-21 1 -45 2 -94 2c-47 0 -68 -1 -87 -2v32c44 0 65 22 65 99v251c0 66 -12 78 -52 78h-18v32c31 -1 60 -2 104 -2s81 1 109 2z" />
    <glyph glyph-name="N.sc" unicode="&#xe01f;" 
d="M515 -16h-44l-331 379v-234c0 -86 22 -99 72 -99v-32c-21 1 -45 2 -94 2c-47 0 -68 -1 -93 -2v32c50 0 71 22 71 99v282c-23 36 -45 47 -71 47v32c29 -1 60 -2 93 -2c35 0 64 1 89 2l264 -304v173c0 86 -22 99 -72 99v32c21 -1 45 -2 94 -2c47 0 68 1 93 2v-32
c-50 0 -71 -22 -71 -99v-375z" />
    <glyph glyph-name="O.sc" unicode="&#xe021;" 
d="M30 241c0 156 106 263 275 263s275 -107 275 -257c0 -156 -106 -263 -275 -263s-275 107 -275 257zM188 241c0 -135 35 -217 117 -217s117 82 117 223c0 135 -35 217 -117 217s-117 -82 -117 -223z" />
    <glyph glyph-name="P.sc" unicode="&#xe029;" horiz-adv-x="556" 
d="M248 423v-161h34c66 0 96 36 96 98c0 64 -34 90 -95 90c-30 0 -35 -8 -35 -27zM248 226v-118c0 -66 12 -78 52 -78h18v-32c-31 1 -69 2 -143 2s-112 -1 -143 -2v32h18c40 0 52 12 52 78v272c0 66 -12 78 -52 78h-18v32c31 -1 69 -2 143 -2c44 0 106 1 155 2
c110 2 194 -38 194 -132c0 -89 -69 -136 -215 -136c-19 0 -41 2 -61 4z" />
    <glyph glyph-name="Q.sc" unicode="&#xe02a;" 
d="M272 -44l47 27l-2 2c-2 -1 -7 -1 -12 -1c-169 0 -275 107 -275 257c0 156 106 263 275 263s275 -107 275 -257c0 -126 -69 -220 -185 -250c-35 -20 -60 -35 -85 -52l2 -2c25 4 46 5 76 5c59 0 101 -14 138 -29c37 -16 68 -31 104 -31c69 0 72 49 89 49c8 0 12 -6 12 -16
c0 -32 -32 -146 -142 -146c-64 0 -105 33 -145 66c-39 33 -77 67 -136 67c-78 0 -102 -49 -132 -49c-14 0 -20 10 -20 21c0 27 47 33 116 76zM188 241c0 -135 35 -217 117 -217s117 82 117 223c0 135 -35 217 -117 217s-117 -82 -117 -223z" />
    <glyph glyph-name="R.sc" unicode="&#xe02b;" 
d="M248 422v-162c9 -1 20 -2 34 -2c62 0 94 30 94 96c0 72 -33 96 -97 96c-26 0 -31 -6 -31 -28zM248 218v-110c0 -66 12 -78 52 -78h18v-32c-31 1 -69 2 -143 2s-112 -1 -143 -2v32h18c40 0 52 12 52 78v272c0 66 -12 78 -52 78h-18v32c31 -1 69 -2 143 -2
c53 0 105 2 157 2c131 0 190 -47 190 -120c0 -71 -43 -107 -113 -121l138 -179c23 -31 33 -39 51 -40v-32c-19 1 -45 2 -76 2c-35 0 -63 -1 -83 -2l-155 220h-36z" />
    <glyph glyph-name="S.sc" unicode="&#xe02c;" horiz-adv-x="444" 
d="M342 499h40l5 -148h-39c-35 81 -74 113 -137 113c-39 0 -65 -23 -65 -57c0 -109 265 -70 265 -265c0 -91 -71 -158 -198 -158c-55 0 -101 21 -132 44l-11 -32h-37v165h36c14 -74 67 -131 142 -131c51 0 84 27 84 69c0 105 -259 68 -259 259c0 84 70 146 174 146
c48 0 91 -19 120 -40z" />
    <glyph glyph-name="T.sc" unicode="&#xe02e;" horiz-adv-x="556" 
d="M351 426v-318c0 -66 12 -78 52 -78h18v-32c-31 1 -69 2 -143 2s-112 -1 -143 -2v32h18c40 0 52 12 52 78v318c0 18 -3 24 -28 24c-77 -1 -100 -45 -114 -110h-40l7 150c84 -1 154 -2 248 -2s164 1 248 2l7 -150h-40c-14 65 -37 109 -114 110c-25 0 -28 -6 -28 -24z" />
    <glyph glyph-name="U.sc" unicode="&#xe030;" 
d="M589 490v-32c-46 0 -68 -13 -68 -99v-146c0 -159 -60 -229 -212 -229s-219 56 -219 209v187c0 66 -12 78 -52 78h-16v32c29 -1 67 -2 141 -2s112 1 143 2v-32h-18c-40 0 -52 -12 -52 -78v-207c0 -98 30 -133 111 -133c91 0 130 52 130 154v165c0 77 -21 99 -71 99v32
c25 -1 46 -2 93 -2c49 0 73 1 90 2z" />
    <glyph glyph-name="V.sc" unicode="&#xe035;" 
d="M28 458v32c30 -1 78 -2 139 -2c83 0 118 1 141 2v-32h-21c-31 0 -40 -14 -40 -30c0 -13 6 -29 19 -63l82 -213l88 208c13 30 18 48 18 64c0 25 -15 34 -51 34h-16v32c27 -1 60 -2 104 -2c41 0 67 1 92 2v-32c-44 -1 -58 -15 -83 -69l-184 -405h-40l-171 411
c-21 51 -35 63 -77 63z" />
    <glyph glyph-name="W.sc" unicode="&#xe036;" horiz-adv-x="778" 
d="M19 458v32c33 -1 80 -2 132 -2c63 0 109 1 134 2v-32h-16c-34 0 -47 -11 -47 -29c0 -9 5 -26 21 -70l64 -175h2l103 306h40l116 -307h2l57 165c12 35 17 57 17 72c0 31 -23 38 -59 38v32c24 -1 58 -2 92 -2c31 0 59 1 81 2v-32c-41 -3 -51 -16 -79 -92l-143 -382h-37
l-109 302h-2l-109 -302h-37l-152 404c-21 55 -31 66 -71 70z" />
    <glyph glyph-name="X.sc" unicode="&#xe037;" 
d="M21 458v32c34 -1 77 -2 139 -2c58 0 110 1 142 2v-32h-31c-20 0 -28 -8 -28 -20s9 -27 25 -47l59 -74l48 57c22 26 32 46 32 59c0 14 -9 25 -32 25h-20v32c27 -1 60 -2 104 -2c46 0 79 1 97 2v-32c-50 -3 -64 -15 -111 -69l-91 -105l168 -210c22 -28 42 -44 68 -44v-32
c-26 1 -74 2 -136 2c-66 0 -131 -1 -157 -2v32h18c28 0 36 9 36 24c0 13 -7 23 -23 44l-66 85l-57 -66c-22 -26 -28 -42 -28 -55c0 -20 13 -32 53 -32v-32c-29 1 -64 2 -106 2c-24 0 -65 -1 -93 -2v32c32 0 59 21 99 67l106 122l-141 186c-33 43 -43 50 -74 53z" />
    <glyph glyph-name="Y.sc" unicode="&#xe038;" horiz-adv-x="556" 
d="M19 458v32c36 -1 85 -2 135 -2c54 0 106 1 128 2v-32h-20c-29 0 -38 -8 -38 -25c0 -8 6 -27 21 -52l79 -136l66 104c22 34 31 62 31 76c0 28 -20 33 -57 33v32c30 -1 62 -2 94 -2c26 0 50 1 79 2v-32c-34 -2 -41 -15 -79 -78l-107 -178v-94c0 -66 12 -78 52 -78h18v-32
c-31 1 -69 2 -143 2s-112 -1 -143 -2v32h18c40 0 52 12 52 78v79l-117 209c-30 52 -34 58 -69 62z" />
    <glyph glyph-name="Z.sc" unicode="&#xe03b;" horiz-adv-x="500" 
d="M83 346h-34l4 144c36 -1 119 -2 211 -2c90 0 163 1 204 2v-31l-276 -421h108c68 0 107 30 131 124h35l-9 -164c-37 1 -125 2 -209 2c-106 0 -180 -1 -225 -2v37l282 415h-64c-108 0 -138 -26 -158 -104z" />
    <glyph glyph-name="Lslash.sc" unicode="&#xe01d;" horiz-adv-x="556" 
d="M102 108v69l-70 -37v50l70 37v153c0 66 -12 78 -52 78h-18v32c31 -1 69 -2 143 -2s112 1 143 2v-32h-18c-40 0 -52 -12 -52 -78v-75l126 67v-50l-126 -67v-133c0 -60 18 -84 98 -84c86 0 122 37 145 124h32l-8 -164c-67 0 -191 2 -340 2c-74 0 -112 -1 -143 -2v32h18
c40 0 52 12 52 78z" />
    <glyph glyph-name="Scaron.sc" unicode="&#xe02d;" horiz-adv-x="444" 
d="M342 499h40l5 -148h-39c-35 81 -74 113 -137 113c-39 0 -65 -23 -65 -57c0 -109 265 -70 265 -265c0 -91 -71 -158 -198 -158c-55 0 -101 21 -132 44l-11 -32h-37v165h36c14 -74 67 -131 142 -131c51 0 84 27 84 69c0 105 -259 68 -259 259c0 84 70 146 174 146
c48 0 91 -19 120 -40zM349 694l-100 -165h-62l-99 165h33l97 -95l99 95h32z" />
    <glyph glyph-name="Zcaron.sc" unicode="&#xe03c;" horiz-adv-x="500" 
d="M83 346h-34l4 144c36 -1 119 -2 211 -2c90 0 163 1 204 2v-31l-276 -421h108c68 0 107 30 131 124h35l-9 -164c-37 1 -125 2 -209 2c-106 0 -180 -1 -225 -2v37l282 415h-64c-108 0 -138 -26 -158 -104zM377 694l-100 -165h-62l-99 165h33l97 -95l99 95h32z" />
    <glyph glyph-name="Agrave.sc" unicode="&#xe005;" 
d="M345 136h-173l-11 -30c-6 -14 -10 -32 -10 -42c0 -22 11 -32 65 -34v-32c-20 0 -51 2 -95 2s-75 -2 -95 -2v32c46 6 66 32 93 93l168 377h48l168 -392c23 -55 36 -71 81 -78v-32c-18 0 -61 2 -140 2s-122 -2 -140 -2v32h25c31 0 38 10 38 23c0 9 -4 26 -9 42zM264 348
l-75 -172h141zM417 529h-32l-120 73l-24 16c-13 8 -39 24 -39 42c0 21 17 39 38 39c25 0 49 -31 65 -48z" />
    <glyph glyph-name="Aacute.sc" unicode="&#xe002;" 
d="M345 136h-173l-11 -30c-6 -14 -10 -32 -10 -42c0 -22 11 -32 65 -34v-32c-20 0 -51 2 -95 2s-75 -2 -95 -2v32c46 6 66 32 93 93l168 377h48l168 -392c23 -55 36 -71 81 -78v-32c-18 0 -61 2 -140 2s-122 -2 -140 -2v32h25c31 0 38 10 38 23c0 9 -4 26 -9 42zM264 348
l-75 -172h141zM202 529l112 122c16 17 40 48 65 48c21 0 38 -18 38 -39c0 -18 -26 -34 -39 -42l-24 -16l-120 -73h-32z" />
    <glyph glyph-name="Acircumflex.sc" unicode="&#xe003;" 
d="M345 136h-173l-11 -30c-6 -14 -10 -32 -10 -42c0 -22 11 -32 65 -34v-32c-20 0 -51 2 -95 2s-75 -2 -95 -2v32c46 6 66 32 93 93l168 377h48l168 -392c23 -55 36 -71 81 -78v-32c-18 0 -61 2 -140 2s-122 -2 -140 -2v32h25c31 0 38 10 38 23c0 9 -4 26 -9 42zM264 348
l-75 -172h141zM433 529h-32l-99 94l-97 -94h-33l99 165h62z" />
    <glyph glyph-name="Atilde.sc" unicode="&#xe007;" 
d="M345 136h-173l-11 -30c-6 -14 -10 -32 -10 -42c0 -22 11 -32 65 -34v-32c-20 0 -51 2 -95 2s-75 -2 -95 -2v32c46 6 66 32 93 93l168 377h48l168 -392c23 -55 36 -71 81 -78v-32c-18 0 -61 2 -140 2s-122 -2 -140 -2v32h25c31 0 38 10 38 23c0 9 -4 26 -9 42zM264 348
l-75 -172h141zM195 558l-23 3c6 42 43 98 91 98c23 0 37 -6 57 -15c19 -8 42 -19 63 -19c20 0 36 17 41 35l24 -3c-7 -44 -37 -97 -88 -97c-18 0 -38 8 -54 15c-18 6 -43 17 -62 17c-23 0 -42 -13 -49 -34z" />
    <glyph glyph-name="Adieresis.sc" unicode="&#xe004;" 
d="M345 136h-173l-11 -30c-6 -14 -10 -32 -10 -42c0 -22 11 -32 65 -34v-32c-20 0 -51 2 -95 2s-75 -2 -95 -2v32c46 6 66 32 93 93l168 377h48l168 -392c23 -55 36 -71 81 -78v-32c-18 0 -61 2 -140 2s-122 -2 -140 -2v32h25c31 0 38 10 38 23c0 9 -4 26 -9 42zM264 348
l-75 -172h141zM389 557c-30 0 -53 24 -53 54c0 32 26 53 56 53c28 0 51 -25 51 -52c0 -30 -23 -55 -54 -55zM225 557c-30 0 -53 24 -53 54c0 32 26 53 56 53c28 0 51 -25 51 -52c0 -30 -23 -55 -54 -55z" />
    <glyph glyph-name="Aring.sc" unicode="&#xe006;" 
d="M345 136h-173l-11 -30c-6 -14 -10 -32 -10 -42c0 -22 11 -32 65 -34v-32c-20 0 -51 2 -95 2s-75 -2 -95 -2v32c46 6 66 32 93 93l168 377h48l168 -392c23 -55 36 -71 81 -78v-32c-18 0 -61 2 -140 2s-122 -2 -140 -2v32h25c31 0 38 10 38 23c0 9 -4 26 -9 42zM264 348
l-75 -172h141zM304 511c-55 0 -102 44 -102 100c0 58 49 99 105 99s100 -47 100 -103c0 -55 -50 -96 -103 -96zM304 551c31 0 58 26 58 58c0 30 -21 62 -54 62s-62 -24 -62 -58c0 -33 24 -62 58 -62z" />
    <glyph glyph-name="AE.sc" unicode="&#xe001;" horiz-adv-x="778" 
d="M324 194h-146l-42 -82c-10 -19 -18 -39 -18 -52c0 -20 15 -30 51 -30v-32c-18 1 -51 1 -81 1c-34 0 -61 0 -83 -1v32c38 2 48 25 78 81l130 243c26 49 36 67 36 82c0 14 -9 22 -45 22h-23v32c54 -1 101 -2 141 -2c138 0 329 2 391 2v-140h-32c-21 74 -46 100 -154 100
c-54 0 -57 -4 -57 -25v-151h24c50 0 71 31 77 79h32v-192h-32c-6 42 -27 73 -77 73h-24v-112c0 -60 18 -84 94 -84c86 0 118 37 140 124h32v-164c-66 0 -190 2 -339 2c-74 0 -112 -1 -143 -2v32h18c40 0 52 12 52 78v86zM198 234h126v216h-12z" />
    <glyph glyph-name="Ccedilla.sc" unicode="&#xe00a;" horiz-adv-x="556" 
d="M516 174v-174h-44l-16 43c-35 -28 -97 -59 -176 -59h-3l-5 -39l18 1c38 0 78 -14 78 -59c0 -43 -46 -65 -83 -65c-27 0 -77 13 -77 47c0 11 10 21 21 21c29 0 15 -41 58 -41c18 0 34 16 34 34c0 28 -33 38 -56 38c-10 0 -21 -3 -31 -3l9 69c-117 15 -209 106 -209 254
c0 158 109 263 255 263c68 0 123 -27 160 -50l12 41h40l5 -166h-40c-15 58 -52 125 -135 125c-81 0 -139 -56 -139 -213c0 -140 61 -201 137 -201c88 0 130 70 143 134h44z" />
    <glyph glyph-name="Egrave.sc" unicode="&#xe010;" horiz-adv-x="556" 
d="M381 353v-192h-32c-6 42 -27 73 -77 73h-24v-112c0 -60 18 -84 94 -84c86 0 118 37 140 124h32v-164c-66 0 -190 2 -339 2c-74 0 -112 -1 -143 -2v32h18c40 0 52 12 52 78v272c0 66 -12 78 -52 78h-18v32c31 -1 69 -2 143 -2c163 0 251 2 316 2v-140h-32
c-21 74 -46 100 -154 100c-54 0 -57 -4 -57 -25v-151h24c50 0 71 31 77 79h32zM389 529h-32l-120 73l-24 16c-13 8 -39 24 -39 42c0 21 17 39 38 39c25 0 49 -31 65 -48z" />
    <glyph glyph-name="Eacute.sc" unicode="&#xe00d;" horiz-adv-x="556" 
d="M381 353v-192h-32c-6 42 -27 73 -77 73h-24v-112c0 -60 18 -84 94 -84c86 0 118 37 140 124h32v-164c-66 0 -190 2 -339 2c-74 0 -112 -1 -143 -2v32h18c40 0 52 12 52 78v272c0 66 -12 78 -52 78h-18v32c31 -1 69 -2 143 -2c163 0 251 2 316 2v-140h-32
c-21 74 -46 100 -154 100c-54 0 -57 -4 -57 -25v-151h24c50 0 71 31 77 79h32zM174 529l112 122c16 17 40 48 65 48c21 0 38 -18 38 -39c0 -18 -26 -34 -39 -42l-24 -16l-120 -73h-32z" />
    <glyph glyph-name="Ecircumflex.sc" unicode="&#xe00e;" horiz-adv-x="556" 
d="M381 353v-192h-32c-6 42 -27 73 -77 73h-24v-112c0 -60 18 -84 94 -84c86 0 118 37 140 124h32v-164c-66 0 -190 2 -339 2c-74 0 -112 -1 -143 -2v32h18c40 0 52 12 52 78v272c0 66 -12 78 -52 78h-18v32c31 -1 69 -2 143 -2c163 0 251 2 316 2v-140h-32
c-21 74 -46 100 -154 100c-54 0 -57 -4 -57 -25v-151h24c50 0 71 31 77 79h32zM405 529h-32l-99 94l-97 -94h-33l99 165h62z" />
    <glyph glyph-name="Edieresis.sc" unicode="&#xe00f;" horiz-adv-x="556" 
d="M381 353v-192h-32c-6 42 -27 73 -77 73h-24v-112c0 -60 18 -84 94 -84c86 0 118 37 140 124h32v-164c-66 0 -190 2 -339 2c-74 0 -112 -1 -143 -2v32h18c40 0 52 12 52 78v272c0 66 -12 78 -52 78h-18v32c31 -1 69 -2 143 -2c163 0 251 2 316 2v-140h-32
c-21 74 -46 100 -154 100c-54 0 -57 -4 -57 -25v-151h24c50 0 71 31 77 79h32zM361 557c-30 0 -53 24 -53 54c0 32 26 53 56 53c28 0 51 -25 51 -52c0 -30 -23 -55 -54 -55zM197 557c-30 0 -53 24 -53 54c0 32 26 53 56 53c28 0 51 -25 51 -52c0 -30 -23 -55 -54 -55z" />
    <glyph glyph-name="Igrave.sc" unicode="&#xe019;" horiz-adv-x="333" 
d="M239 380v-272c0 -66 12 -78 52 -78h18v-32c-31 1 -69 2 -143 2s-112 -1 -143 -2v32h18c40 0 52 12 52 78v272c0 66 -12 78 -52 78h-18v32c31 -1 69 -2 143 -2s112 1 143 2v-32h-18c-40 0 -52 -12 -52 -78zM265 529h-32l-120 73l-24 16c-13 8 -39 24 -39 42
c0 21 17 39 38 39c25 0 49 -31 65 -48z" />
    <glyph glyph-name="Iacute.sc" unicode="&#xe016;" horiz-adv-x="333" 
d="M239 380v-272c0 -66 12 -78 52 -78h18v-32c-31 1 -69 2 -143 2s-112 -1 -143 -2v32h18c40 0 52 12 52 78v272c0 66 -12 78 -52 78h-18v32c31 -1 69 -2 143 -2s112 1 143 2v-32h-18c-40 0 -52 -12 -52 -78zM75 529l112 122c16 17 40 48 65 48c21 0 38 -18 38 -39
c0 -18 -26 -34 -39 -42l-24 -16l-120 -73h-32z" />
    <glyph glyph-name="Icircumflex.sc" unicode="&#xe017;" horiz-adv-x="333" 
d="M239 380v-272c0 -66 12 -78 52 -78h18v-32c-31 1 -69 2 -143 2s-112 -1 -143 -2v32h18c40 0 52 12 52 78v272c0 66 -12 78 -52 78h-18v32c31 -1 69 -2 143 -2s112 1 143 2v-32h-18c-40 0 -52 -12 -52 -78zM294 529h-32l-99 94l-97 -94h-33l99 165h62z" />
    <glyph glyph-name="Idieresis.sc" unicode="&#xe018;" horiz-adv-x="333" 
d="M239 380v-272c0 -66 12 -78 52 -78h18v-32c-31 1 -69 2 -143 2s-112 -1 -143 -2v32h18c40 0 52 12 52 78v272c0 66 -12 78 -52 78h-18v32c31 -1 69 -2 143 -2s112 1 143 2v-32h-18c-40 0 -52 -12 -52 -78zM250 557c-30 0 -53 24 -53 54c0 32 26 53 56 53
c28 0 51 -25 51 -52c0 -30 -23 -55 -54 -55zM86 557c-30 0 -53 24 -53 54c0 32 26 53 56 53c28 0 51 -25 51 -52c0 -30 -23 -55 -54 -55z" />
    <glyph glyph-name="Eth.sc" unicode="&#xe011;" 
d="M102 108v132h-80v40h80v100c0 66 -12 78 -52 78h-18v32c31 -1 69 -2 143 -2c39 0 83 2 127 2c172 0 279 -111 279 -247c0 -131 -91 -245 -256 -245c-39 0 -89 2 -150 2c-74 0 -112 -1 -143 -2v32h18c40 0 52 12 52 78zM350 280v-40h-102v-120c0 -66 23 -82 69 -82
c78 0 106 82 106 205c0 142 -39 207 -132 207c-34 0 -43 -4 -43 -31v-139h102z" />
    <glyph glyph-name="Ntilde.sc" unicode="&#xe020;" 
d="M515 -16h-44l-331 379v-234c0 -86 22 -99 72 -99v-32c-21 1 -45 2 -94 2c-47 0 -68 -1 -93 -2v32c50 0 71 22 71 99v282c-23 36 -45 47 -71 47v32c29 -1 60 -2 93 -2c35 0 64 1 89 2l264 -304v173c0 86 -22 99 -72 99v32c21 -1 45 -2 94 -2c47 0 68 1 93 2v-32
c-50 0 -71 -22 -71 -99v-375zM195 558l-23 3c6 42 43 98 91 98c23 0 37 -6 57 -15c19 -8 42 -19 63 -19c20 0 36 17 41 35l24 -3c-7 -44 -37 -97 -88 -97c-18 0 -38 8 -54 15c-18 6 -43 17 -62 17c-23 0 -42 -13 -49 -34z" />
    <glyph glyph-name="Ograve.sc" unicode="&#xe026;" 
d="M30 241c0 156 106 263 275 263s275 -107 275 -257c0 -156 -106 -263 -275 -263s-275 107 -275 257zM188 241c0 -135 35 -217 117 -217s117 82 117 223c0 135 -35 217 -117 217s-117 -82 -117 -223zM417 529h-32l-120 73l-24 16c-13 8 -39 24 -39 42c0 21 17 39 38 39
c25 0 49 -31 65 -48z" />
    <glyph glyph-name="Oacute.sc" unicode="&#xe023;" 
d="M30 241c0 156 106 263 275 263s275 -107 275 -257c0 -156 -106 -263 -275 -263s-275 107 -275 257zM188 241c0 -135 35 -217 117 -217s117 82 117 223c0 135 -35 217 -117 217s-117 -82 -117 -223zM202 529l112 122c16 17 40 48 65 48c21 0 38 -18 38 -39
c0 -18 -26 -34 -39 -42l-24 -16l-120 -73h-32z" />
    <glyph glyph-name="Ocircumflex.sc" unicode="&#xe024;" 
d="M30 241c0 156 106 263 275 263s275 -107 275 -257c0 -156 -106 -263 -275 -263s-275 107 -275 257zM188 241c0 -135 35 -217 117 -217s117 82 117 223c0 135 -35 217 -117 217s-117 -82 -117 -223zM433 529h-32l-99 94l-97 -94h-33l99 165h62z" />
    <glyph glyph-name="Otilde.sc" unicode="&#xe028;" 
d="M30 241c0 156 106 263 275 263s275 -107 275 -257c0 -156 -106 -263 -275 -263s-275 107 -275 257zM188 241c0 -135 35 -217 117 -217s117 82 117 223c0 135 -35 217 -117 217s-117 -82 -117 -223zM195 558l-23 3c6 42 43 98 91 98c23 0 37 -6 57 -15
c19 -8 42 -19 63 -19c20 0 36 17 41 35l24 -3c-7 -44 -37 -97 -88 -97c-18 0 -38 8 -54 15c-18 6 -43 17 -62 17c-23 0 -42 -13 -49 -34z" />
    <glyph glyph-name="Odieresis.sc" unicode="&#xe025;" 
d="M30 241c0 156 106 263 275 263s275 -107 275 -257c0 -156 -106 -263 -275 -263s-275 107 -275 257zM188 241c0 -135 35 -217 117 -217s117 82 117 223c0 135 -35 217 -117 217s-117 -82 -117 -223zM389 557c-30 0 -53 24 -53 54c0 32 26 53 56 53c28 0 51 -25 51 -52
c0 -30 -23 -55 -54 -55zM225 557c-30 0 -53 24 -53 54c0 32 26 53 56 53c28 0 51 -25 51 -52c0 -30 -23 -55 -54 -55z" />
    <glyph glyph-name="OE.sc" unicode="&#xe022;" horiz-adv-x="833" 
d="M781 490v-140h-32c-21 74 -46 98 -144 98c-54 0 -57 -4 -57 -25v-149h24c50 0 71 31 77 79h32v-192h-32c-6 42 -27 73 -77 73h-24v-110c0 -60 18 -84 94 -84c86 0 108 35 130 122h32v-164c-51 0 -157 2 -311 2c-33 0 -61 -2 -88 -3c-27 -2 -55 -4 -89 -4
c-207 0 -304 113 -304 251s97 251 304 251c34 0 62 -2 89 -3c27 -2 55 -4 88 -4c155 0 236 2 288 2zM402 123v242c0 68 -27 90 -93 90c-88 0 -139 -61 -139 -211s51 -211 139 -211c66 0 93 22 93 90z" />
    <glyph glyph-name="Oslash.sc" unicode="&#xe027;" 
d="M201 125l183 297c-18 27 -44 42 -79 42c-82 0 -117 -82 -117 -223c0 -45 4 -84 13 -116zM405 379l-186 -301c18 -35 46 -54 86 -54c82 0 117 82 117 223c0 53 -5 98 -17 132zM112 -96h-48l77 125c-71 45 -111 120 -111 212c0 156 106 263 275 263c44 0 84 -7 117 -20
l62 100h48l-73 -118c77 -43 121 -122 121 -219c0 -156 -106 -263 -275 -263c-49 0 -92 9 -128 26z" />
    <glyph glyph-name="Ugrave.sc" unicode="&#xe034;" 
d="M589 490v-32c-46 0 -68 -13 -68 -99v-146c0 -159 -60 -229 -212 -229s-219 56 -219 209v187c0 66 -12 78 -52 78h-16v32c29 -1 67 -2 141 -2s112 1 143 2v-32h-18c-40 0 -52 -12 -52 -78v-207c0 -98 30 -133 111 -133c91 0 130 52 130 154v165c0 77 -21 99 -71 99v32
c25 -1 46 -2 93 -2c49 0 73 1 90 2zM417 529h-32l-120 73l-24 16c-13 8 -39 24 -39 42c0 21 17 39 38 39c25 0 49 -31 65 -48z" />
    <glyph glyph-name="Uacute.sc" unicode="&#xe031;" 
d="M589 490v-32c-46 0 -68 -13 -68 -99v-146c0 -159 -60 -229 -212 -229s-219 56 -219 209v187c0 66 -12 78 -52 78h-16v32c29 -1 67 -2 141 -2s112 1 143 2v-32h-18c-40 0 -52 -12 -52 -78v-207c0 -98 30 -133 111 -133c91 0 130 52 130 154v165c0 77 -21 99 -71 99v32
c25 -1 46 -2 93 -2c49 0 73 1 90 2zM202 529l112 122c16 17 40 48 65 48c21 0 38 -18 38 -39c0 -18 -26 -34 -39 -42l-24 -16l-120 -73h-32z" />
    <glyph glyph-name="Ucircumflex.sc" unicode="&#xe032;" 
d="M589 490v-32c-46 0 -68 -13 -68 -99v-146c0 -159 -60 -229 -212 -229s-219 56 -219 209v187c0 66 -12 78 -52 78h-16v32c29 -1 67 -2 141 -2s112 1 143 2v-32h-18c-40 0 -52 -12 -52 -78v-207c0 -98 30 -133 111 -133c91 0 130 52 130 154v165c0 77 -21 99 -71 99v32
c25 -1 46 -2 93 -2c49 0 73 1 90 2zM433 529h-32l-99 94l-97 -94h-33l99 165h62z" />
    <glyph glyph-name="Udieresis.sc" unicode="&#xe033;" 
d="M589 490v-32c-46 0 -68 -13 -68 -99v-146c0 -159 -60 -229 -212 -229s-219 56 -219 209v187c0 66 -12 78 -52 78h-16v32c29 -1 67 -2 141 -2s112 1 143 2v-32h-18c-40 0 -52 -12 -52 -78v-207c0 -98 30 -133 111 -133c91 0 130 52 130 154v165c0 77 -21 99 -71 99v32
c25 -1 46 -2 93 -2c49 0 73 1 90 2zM389 557c-30 0 -53 24 -53 54c0 32 26 53 56 53c28 0 51 -25 51 -52c0 -30 -23 -55 -54 -55zM225 557c-30 0 -53 24 -53 54c0 32 26 53 56 53c28 0 51 -25 51 -52c0 -30 -23 -55 -54 -55z" />
    <glyph glyph-name="Yacute.sc" unicode="&#xe039;" horiz-adv-x="556" 
d="M19 458v32c36 -1 85 -2 135 -2c54 0 106 1 128 2v-32h-20c-29 0 -38 -8 -38 -25c0 -8 6 -27 21 -52l79 -136l66 104c22 34 31 62 31 76c0 28 -20 33 -57 33v32c30 -1 62 -2 94 -2c26 0 50 1 79 2v-32c-34 -2 -41 -15 -79 -78l-107 -178v-94c0 -66 12 -78 52 -78h18v-32
c-31 1 -69 2 -143 2s-112 -1 -143 -2v32h18c40 0 52 12 52 78v79l-117 209c-30 52 -34 58 -69 62zM174 529l112 122c16 17 40 48 65 48c21 0 38 -18 38 -39c0 -18 -26 -34 -39 -42l-24 -16l-120 -73h-32z" />
    <glyph glyph-name="Thorn.sc" unicode="&#xe02f;" horiz-adv-x="556" 
d="M248 323v-161h34c66 0 96 36 96 98c0 64 -34 90 -95 90c-30 0 -35 -8 -35 -27zM248 126v-18c0 -66 12 -78 52 -78h18v-32c-31 1 -69 2 -143 2s-112 -1 -143 -2v32h18c40 0 52 12 52 78v272c0 66 -12 78 -52 78h-18v32c31 -1 69 -2 143 -2s112 1 143 2v-32h-18
c-40 0 -52 -12 -52 -70c17 0 45 1 76 2c119 2 200 -38 200 -132c0 -89 -69 -136 -215 -136c-19 0 -41 2 -61 4z" />
    <glyph glyph-name="Ydieresis.sc" unicode="&#xe03a;" horiz-adv-x="556" 
d="M19 458v32c36 -1 85 -2 135 -2c54 0 106 1 128 2v-32h-20c-29 0 -38 -8 -38 -25c0 -8 6 -27 21 -52l79 -136l66 104c22 34 31 62 31 76c0 28 -20 33 -57 33v32c30 -1 62 -2 94 -2c26 0 50 1 79 2v-32c-34 -2 -41 -15 -79 -78l-107 -178v-94c0 -66 12 -78 52 -78h18v-32
c-31 1 -69 2 -143 2s-112 -1 -143 -2v32h18c40 0 52 12 52 78v79l-117 209c-30 52 -34 58 -69 62zM361 557c-30 0 -53 24 -53 54c0 32 26 53 56 53c28 0 51 -25 51 -52c0 -30 -23 -55 -54 -55zM197 557c-30 0 -53 24 -53 54c0 32 26 53 56 53c28 0 51 -25 51 -52
c0 -30 -23 -55 -54 -55z" />
    <glyph glyph-name="uni03A9" unicode="&#x3a9;" horiz-adv-x="681" 
d="M650 164l-26 -164h-237l-9 21c37 97 98 232 98 350c-1 198 -61 265 -138 265c-79 0 -134 -58 -134 -268c0 -116 51 -242 95 -347l-9 -21h-237l-23 164h33c19 -56 34 -66 74 -66h86c-67 53 -164 132 -164 279c0 181 122 297 283 297s278 -112 278 -292
c0 -134 -93 -216 -170 -284h97c37 0 50 9 69 66h34z" />
    </font>
</defs>
</svg>
