<?xml version="1.0" standalone="no"?>
<!DOCTYPE svg PUBLIC "-//W3C//DTD SVG 1.1//EN" "http://www.w3.org/Graphics/SVG/1.1/DTD/svg11.dtd" >
<svg xmlns="http://www.w3.org/2000/svg" xmlns:xlink="http://www.w3.org/1999/xlink" version="1.1">
<metadata>
Created by FontForge 20161003 at Wed May 16 12:26:50 2018
 By www-data
Copyright 1985, 1987, 1990, 1994, 2002 Adobe Systems Incorporated. All Rights Reserved. ITC New Baskerville is a trademark of International Typeface Corporation.
</metadata>
<defs>
<font id="NewBaskervilleStd-BoldIt" horiz-adv-x="520" >
  <font-face 
    font-family="ITC New Baskerville Std"
    font-weight="700"
    font-style="italic"
    font-stretch="normal"
    units-per-em="1000"
    panose-1="2 3 7 3 6 5 6 9 3 4"
    ascent="682"
    descent="-318"
    x-height="431"
    cap-height="660"
    bbox="-208 -270 1316 899"
    underline-thickness="50"
    underline-position="-100"
    slope="-16"
    stemh="34"
    stemv="131"
    unicode-range="U+0020-FB02"
  />
<missing-glyph horiz-adv-x="659" 
d="M159 0v700h500v-700h-500zM409 395l170 255h-340zM439 350l170 -255v510zM239 50h340l-170 255zM209 605v-510l170 255z" />
    <glyph glyph-name="f_i" unicode="fi" 
d="M530 420l-66 -267c-4 -16 -16 -59 -16 -77c0 -14 7 -23 23 -23c27 0 54 59 65 80l23 -7c-21 -58 -79 -139 -146 -139c-44 0 -80 24 -80 69c0 26 6 50 12 75l47 194c2 10 6 20 6 30c0 27 -35 21 -53 21h-73l-111 -452c-19 -78 -85 -194 -192 -194c-41 0 -87 20 -87 66
c0 25 21 48 47 48c27 0 41 -21 43 -44c1 -12 4 -30 21 -30c26 0 31 31 36 49c14 58 29 115 43 173l90 384h-83l10 40h84c16 55 32 105 63 156c38 63 110 97 183 97c44 0 124 -17 124 -72c0 -27 -20 -48 -47 -48c-30 0 -43 23 -53 47c-10 22 -16 39 -44 39
c-72 0 -105 -170 -117 -219z" />
    <glyph glyph-name="f_l" unicode="fl" horiz-adv-x="540" 
d="M602 663l-121 -434c-8 -28 -34 -114 -34 -141c0 -11 2 -35 18 -35c31 0 60 73 71 99l22 -7c-22 -68 -73 -158 -155 -158c-45 0 -71 29 -71 73c0 39 16 94 26 133l99 382c-6 29 -19 60 -55 60c-82 0 -106 -166 -122 -219h74l-10 -40h-73l-106 -427
c-22 -88 -80 -219 -189 -219c-38 0 -94 22 -94 66c0 26 20 50 47 50c56 0 36 -76 68 -76c26 0 36 58 40 75l124 531h-83l10 40h83c19 57 38 129 76 176c42 53 103 77 170 77c46 0 81 -17 89 -16l28 2l42 5z" />
    <glyph glyph-name=".notdef" horiz-adv-x="659" 
d="M159 0v700h500v-700h-500zM409 395l170 255h-340zM439 350l170 -255v510zM239 50h340l-170 255zM209 605v-510l170 255z" />
    <glyph glyph-name="space" unicode=" " horiz-adv-x="260" 
 />
    <glyph glyph-name="exclam" unicode="!" horiz-adv-x="340" 
d="M201 218l40 312c7 54 11 139 83 139c35 0 64 -26 64 -62c0 -41 -26 -99 -42 -136l-116 -260zM174 -7c-40 0 -73 31 -73 72c0 40 34 69 72 69s69 -33 69 -70s-30 -71 -68 -71z" />
    <glyph glyph-name="quotedbl" unicode="&#x22;" horiz-adv-x="480" 
d="M217 443l27 178c6 37 31 72 73 72c32 0 40 -25 32 -54c-5 -18 -11 -33 -19 -50l-61 -138c-7 -15 -16 -44 -37 -44c-20 0 -17 21 -15 36zM389 443l27 178c6 37 31 72 73 72c32 0 40 -25 32 -54c-5 -18 -11 -33 -19 -50l-61 -138c-7 -15 -16 -44 -37 -44
c-20 0 -17 21 -15 36z" />
    <glyph glyph-name="numbersign" unicode="#" horiz-adv-x="500" 
d="M534 286v-76h-103l-31 -210h-77l31 210h-111l-31 -210h-77l31 210h-100v76h111l16 109h-99v76h110l29 198h77l-29 -198h112l29 198h77l-29 -198h91v-76h-103l-16 -109h92zM381 395h-111l-16 -109h111z" />
    <glyph glyph-name="dollar" unicode="$" horiz-adv-x="500" 
d="M315 274l-63 -252c75 2 133 59 133 135c0 57 -22 89 -70 117zM372 662l23 84h47l-24 -84c56 -11 131 -43 131 -111c0 -25 -20 -49 -46 -49c-42 0 -44 38 -49 69c-5 30 -15 46 -46 52l-63 -225c77 -44 146 -104 146 -200c0 -134 -125 -212 -249 -210l-39 -142h-47l40 142
c-58 5 -155 43 -155 113c0 27 15 52 45 52c36 0 49 -28 54 -60c6 -44 18 -63 65 -71l71 278c-75 49 -133 87 -133 185c0 126 119 180 229 177zM305 422l57 206c-64 2 -124 -41 -124 -109c0 -45 31 -75 67 -97z" />
    <glyph glyph-name="percent" unicode="%" horiz-adv-x="980" 
d="M815 724l-486 -805h-52l415 688c-30 -8 -59 -17 -90 -17c-28 0 -52 7 -77 17c3 -18 6 -36 6 -55c0 -104 -66 -240 -186 -240c-88 0 -153 69 -153 155c0 103 84 232 195 232c93 0 111 -75 210 -75c75 0 136 49 185 100h33zM363 352c82 0 128 144 128 208
c0 37 -14 95 -60 95c-81 0 -124 -163 -124 -225c0 -34 14 -78 56 -78zM732 -54c-94 0 -151 67 -151 159c0 112 86 228 204 228c85 0 135 -58 135 -141c0 -107 -66 -246 -188 -246zM752 -14c82 0 128 144 128 208c0 37 -14 99 -60 99c-81 0 -124 -167 -124 -229
c0 -34 14 -78 56 -78z" />
    <glyph glyph-name="ampersand" unicode="&#x26;" horiz-adv-x="920" 
d="M522 319c0 -11 11 -20 21 -20c18 0 35 14 59 14c27 0 48 -16 48 -43c0 -39 -43 -66 -81 -66c-56 0 -91 34 -91 86c0 95 95 164 190 164c31 0 62 -4 93 -8c31 -5 62 -9 93 -9c61 0 138 21 138 97c0 21 -8 40 -32 40c-35 0 -44 -52 -93 -52c-24 0 -46 15 -46 39
c0 49 57 73 101 73c61 0 114 -36 114 -98s-35 -118 -90 -151c-50 -30 -111 -35 -169 -33c13 -27 21 -52 21 -83c0 -181 -209 -282 -366 -282c-141 0 -320 65 -320 223c0 101 64 190 157 235c-3 15 -5 30 -5 46c0 96 89 178 190 178c36 0 104 -13 104 -58
c0 -27 -25 -45 -52 -45c-46 0 -51 50 -98 50c-50 0 -91 -48 -91 -92c0 -20 7 -35 18 -52c13 4 27 5 40 5c31 0 60 -17 60 -47c0 -39 -39 -62 -76 -62c-32 0 -62 18 -73 46c-56 -25 -89 -74 -89 -133c0 -141 193 -174 307 -174c99 0 250 53 250 174c0 65 -64 97 -126 97
c-32 0 -106 -14 -106 -59z" />
    <glyph glyph-name="quoteright" unicode="&#x2019;" horiz-adv-x="260" 
d="M164 373l-10 25c69 31 129 74 136 156c-14 -8 -27 -15 -44 -15c-36 0 -61 31 -61 65c0 40 33 65 70 65c55 0 90 -44 90 -97c0 -99 -93 -173 -181 -199z" />
    <glyph glyph-name="parenleft" unicode="(" horiz-adv-x="400" 
d="M439 669l17 -22c-143 -134 -205 -380 -205 -570c0 -94 14 -189 57 -274l-23 -13c-73 107 -124 236 -124 368c0 212 115 384 278 511z" />
    <glyph glyph-name="parenright" unicode=")" horiz-adv-x="400" 
d="M76 -210l-17 22c142 134 205 380 205 570c0 95 -15 189 -57 275l22 12c74 -107 125 -236 125 -367c0 -213 -115 -385 -278 -512z" />
    <glyph glyph-name="asterisk" unicode="*" 
d="M300 575c8 -24 13 -39 26 -61c4 -6 18 -26 26 -26c12 0 13 47 13 54c0 22 -10 46 -10 70c0 27 21 57 50 57c27 0 45 -23 45 -49c0 -27 -17 -44 -34 -62c-15 -15 -41 -51 -41 -73c0 -5 5 -5 9 -5c24 0 61 28 78 43c17 14 32 28 55 28c27 0 49 -23 49 -50
c0 -29 -27 -46 -54 -46c-23 0 -50 13 -83 13c-6 0 -47 0 -47 -10c0 -8 18 -22 24 -26c25 -16 30 -18 58 -28c26 -9 57 -25 57 -57c0 -26 -21 -47 -47 -47c-37 0 -49 33 -58 62c-6 20 -9 29 -20 47c-4 6 -21 33 -30 33c-10 0 -14 -48 -14 -54c0 -26 10 -49 10 -71
c0 -27 -16 -56 -47 -56c-27 0 -47 19 -47 46c0 24 15 42 31 58c18 18 44 53 44 80c0 4 -4 5 -7 5c-24 0 -61 -26 -80 -42c-15 -13 -34 -29 -55 -29c-26 0 -49 20 -49 47c0 30 25 47 53 47s53 -11 81 -11c7 0 51 -1 51 12c0 9 -34 28 -39 32c-34 22 -102 24 -102 77
c0 26 25 46 51 46c31 0 45 -28 53 -54z" />
    <glyph glyph-name="plus" unicode="+" 
d="M87 262h180v180h82v-180h180v-82h-180v-180h-82v180h-180v82z" />
    <glyph glyph-name="comma" unicode="," horiz-adv-x="280" 
d="M51 -181l-11 24c66 31 140 83 141 163c-13 -6 -26 -13 -42 -13c-37 0 -63 32 -63 67c0 41 28 70 70 70c61 0 92 -54 92 -110c0 -98 -101 -175 -187 -201z" />
    <glyph glyph-name="hyphen" unicode="-" horiz-adv-x="220" 
d="M261 251l-25 -82h-216l25 82h216z" />
    <glyph glyph-name="period" unicode="." horiz-adv-x="280" 
d="M151 -7c-40 0 -73 31 -73 72c0 40 34 69 72 69s69 -33 69 -70s-30 -71 -68 -71z" />
    <glyph glyph-name="slash" unicode="/" horiz-adv-x="440" 
d="M512 669l-436 -804h-83l437 804h82z" />
    <glyph glyph-name="zero" unicode="0" horiz-adv-x="500" 
d="M243 -13c-121 0 -163 123 -163 222c0 148 113 460 300 460c117 0 165 -102 165 -207c0 -155 -102 -475 -302 -475zM339 136l49 145c23 69 51 212 51 284c0 33 -18 64 -55 64c-43 0 -67 -39 -83 -73l-55 -150c-28 -76 -60 -223 -60 -303c0 -36 11 -76 57 -76
c54 0 82 66 96 109z" />
    <glyph glyph-name="one" unicode="1" horiz-adv-x="500" 
d="M475 669l-137 -495c-6 -23 -23 -79 -23 -103c0 -45 42 -37 93 -39l-9 -34c-58 1 -115 4 -173 4c-51 0 -101 -3 -152 -4l10 34c29 2 70 0 91 30c13 19 22 51 28 74l93 343c5 17 12 45 12 61c0 44 -61 35 -97 36l9 34c78 6 157 22 228 59h27z" />
    <glyph glyph-name="two" unicode="2" horiz-adv-x="500" 
d="M43 0l3 13l300 303c42 43 78 99 78 163c0 61 -39 100 -101 100c-69 0 -108 -48 -108 -114c0 -11 2 -22 2 -33c0 -8 -4 -14 -12 -14c-28 0 -33 56 -33 75c0 110 82 176 188 176c105 0 179 -69 179 -176s-77 -169 -154 -228c-47 -36 -93 -73 -140 -109l-61 -56h127
c82 0 123 -7 154 86h35l-61 -186h-396z" />
    <glyph glyph-name="three" unicode="3" horiz-adv-x="500" 
d="M194 532l32 118c44 13 90 19 135 19c76 0 171 -31 171 -122c0 -80 -77 -129 -143 -155v-2c56 -14 96 -60 96 -120c0 -103 -74 -180 -161 -226c-98 -50 -183 -58 -290 -63l-20 -1l9 36c70 9 145 19 207 53c69 37 125 99 125 181c0 51 -28 90 -82 90c-37 0 -71 -18 -89 -18
c-10 0 -22 9 -22 21c0 25 37 28 56 31c65 10 208 47 208 127c0 49 -46 68 -88 68c-56 0 -93 -20 -144 -37z" />
    <glyph glyph-name="four" unicode="4" horiz-adv-x="500" 
d="M349 0h-116l65 231h-251l15 55l402 383h71l-106 -383h49c15 0 32 6 38 6c5 0 11 -1 11 -7c0 -3 -2 -10 -5 -17l-15 -37h-93zM313 286l68 245l-2 2l-256 -247h190z" />
    <glyph glyph-name="five" unicode="5" horiz-adv-x="500" 
d="M272 544l-24 -84c46 -2 99 -4 141 -20c64 -24 109 -78 109 -147c0 -110 -80 -193 -171 -243c-94 -52 -194 -61 -299 -72l9 34c69 13 140 27 204 60c67 34 142 101 142 183c0 79 -68 103 -134 98l-85 -6l97 322h20c53 -19 106 -32 164 -32c29 0 82 5 109 16c4 2 12 5 17 5
c6 0 10 -6 10 -11c0 -16 -20 -35 -30 -45c-48 -45 -111 -68 -176 -64z" />
    <glyph glyph-name="six" unicode="6" horiz-adv-x="500" 
d="M556 679l11 -30c-112 -40 -196 -91 -264 -190c-64 -92 -109 -231 -109 -343c0 -43 15 -89 67 -89c90 0 130 183 130 253c0 26 -9 59 -40 59c-50 0 -45 -64 -72 -64c-9 0 -14 7 -14 16c0 44 63 103 125 103c75 0 126 -61 126 -133c0 -135 -100 -274 -243 -274
c-124 0 -190 97 -190 213c0 126 65 238 156 321c92 84 197 127 317 158z" />
    <glyph glyph-name="seven" unicode="7" horiz-adv-x="500" 
d="M139 -12l377 564h-175c-88 0 -107 -7 -139 -92h-35l68 247h35c-1 -9 -2 -18 -2 -27c0 -32 48 -24 69 -24h266l4 -7l-310 -661h-158z" />
    <glyph glyph-name="eight" unicode="8" horiz-adv-x="500" 
d="M380 388c55 26 103 81 103 145c0 58 -39 96 -97 96c-60 0 -100 -36 -100 -96c0 -62 45 -98 94 -145zM283 308c-71 -32 -126 -94 -126 -175c0 -77 46 -106 117 -106s116 52 116 121c0 68 -58 120 -107 160zM408 363c49 -47 97 -102 97 -174c0 -130 -118 -202 -238 -202
c-96 0 -205 48 -205 159c0 104 104 167 194 189c-44 43 -81 87 -81 152c0 117 102 182 209 182c85 0 189 -39 189 -140c0 -92 -88 -141 -165 -166z" />
    <glyph glyph-name="nine" unicode="9" horiz-adv-x="500" 
d="M89 -23l-11 30c111 40 195 91 264 190c63 92 108 232 108 344c0 42 -15 88 -66 88c-90 0 -130 -183 -130 -253c0 -25 9 -60 40 -59c49 2 44 65 71 65c10 0 14 -8 14 -17c0 -43 -61 -103 -125 -103c-74 0 -125 61 -125 134c0 134 99 273 242 273c124 0 190 -97 190 -213
c0 -126 -64 -237 -155 -320c-93 -85 -198 -128 -317 -159z" />
    <glyph glyph-name="colon" unicode=":" horiz-adv-x="280" 
d="M223 290c-40 0 -73 31 -73 72c0 40 34 69 72 69s69 -33 69 -70s-30 -71 -68 -71zM151 -7c-40 0 -73 31 -73 72c0 40 34 69 72 69s69 -33 69 -70s-30 -71 -68 -71z" />
    <glyph glyph-name="semicolon" unicode=";" horiz-adv-x="280" 
d="M51 -181l-11 24c66 31 140 83 141 163c-13 -6 -26 -13 -42 -13c-37 0 -63 32 -63 67c0 41 28 70 70 70c61 0 92 -54 92 -110c0 -98 -101 -175 -187 -201zM223 290c-40 0 -73 31 -73 72c0 40 34 69 72 69s69 -33 69 -70s-30 -71 -68 -71z" />
    <glyph glyph-name="less" unicode="&#x3c;" 
d="M84 182v78l415 184v-73l-336 -151l336 -149v-73z" />
    <glyph glyph-name="equal" unicode="=" 
d="M87 340h442v-82h-442v82zM87 184h442v-82h-442v82z" />
    <glyph glyph-name="greater" unicode="&#x3e;" 
d="M514 260v-78l-415 -184v73l336 149l-336 151v73z" />
    <glyph glyph-name="question" unicode="?" horiz-adv-x="440" 
d="M383 244l17 -29c-27 -22 -64 -41 -100 -41c-50 0 -93 37 -93 89c0 129 219 165 219 276c0 54 -40 90 -94 90c-23 0 -72 -11 -72 -42c0 -11 8 -13 18 -13c33 -2 54 -13 54 -50c0 -33 -28 -56 -60 -56c-46 0 -75 39 -75 83c0 80 76 118 147 118c96 0 167 -66 167 -162
c0 -166 -226 -201 -226 -272c0 -15 13 -21 26 -21c27 0 50 16 72 30zM240 -7c-40 0 -73 31 -73 72c0 40 34 69 72 69s69 -33 69 -70s-30 -71 -68 -71z" />
    <glyph glyph-name="at" unicode="@" horiz-adv-x="700" 
d="M509 494h103l-88 -221c-12 -29 -32 -64 7 -64c26 0 142 39 142 185c0 122 -102 210 -242 210c-155 0 -278 -121 -278 -271c0 -161 117 -281 283 -281c101 0 199 44 249 129h71c-59 -131 -185 -194 -326 -194c-194 0 -357 141 -357 340c0 191 159 342 357 342
c187 0 323 -122 323 -271c0 -183 -161 -254 -249 -254c-33 0 -66 13 -67 49c-30 -26 -66 -49 -107 -49c-70 0 -105 51 -105 114c0 108 83 252 208 252c28 0 51 -10 71 -28zM470 423c0 12 -5 22 -20 22c-48 0 -119 -148 -119 -212c0 -11 6 -24 18 -24c58 0 121 188 121 214z
" />
    <glyph glyph-name="A" unicode="A" horiz-adv-x="600" 
d="M469 669l80 -495c4 -26 18 -102 31 -123c10 -16 38 -16 55 -19l-9 -34c-49 1 -97 4 -146 4c-46 0 -92 -3 -138 -4l9 34c32 2 80 -1 80 44c0 20 -4 44 -7 64l-11 68h-216c-17 -30 -60 -102 -60 -132c0 -40 47 -40 76 -44l-9 -34c-38 1 -76 4 -114 4c-40 0 -81 -3 -121 -4
l9 34c67 6 93 56 124 109l177 305c44 76 96 147 144 223h46zM407 252l-36 250h-2l-146 -250h184z" />
    <glyph glyph-name="B" unicode="B" horiz-adv-x="600" 
d="M380 568l-52 -189h21c101 0 169 36 169 148c0 56 -32 89 -89 89c-42 0 -39 -12 -49 -48zM316 335l-47 -170c-5 -17 -13 -45 -13 -64c0 -42 26 -59 66 -59c99 0 139 101 139 187c0 79 -50 106 -122 106h-23zM16 -2l9 34c70 0 76 34 93 95l99 356c7 24 24 79 24 103
c0 48 -44 38 -85 40l9 34c51 -1 102 -4 153 -4c35 0 70 2 105 4c101 4 235 -24 235 -152c0 -112 -131 -156 -218 -157v-2c87 -12 167 -57 167 -155c0 -155 -163 -197 -288 -196c-54 0 -109 4 -163 4c-47 0 -93 -3 -140 -4z" />
    <glyph glyph-name="C" unicode="C" horiz-adv-x="620" 
d="M626 609l29 51h37l-39 -203h-40c-1 88 -30 168 -132 168c-171 0 -255 -285 -255 -423c0 -88 38 -171 138 -171c107 0 182 87 220 179h40l-60 -216h-40l-1 58c-47 -42 -130 -65 -191 -65c-152 0 -252 104 -252 255c0 210 165 427 385 427c61 0 118 -17 161 -60z" />
    <glyph glyph-name="D" unicode="D" horiz-adv-x="700" 
d="M374 552l-107 -387c-6 -20 -14 -49 -14 -70c0 -41 38 -53 73 -53c103 0 165 58 205 148c33 75 57 174 57 255c0 101 -53 171 -159 171c-45 0 -45 -27 -55 -64zM16 -2l9 34c70 0 76 34 93 95l97 356c7 24 24 79 24 103c0 48 -44 38 -85 40l9 34c52 -1 103 -4 155 -4
c32 0 64 4 96 4c171 -1 320 -89 320 -275c0 -205 -153 -392 -408 -387c-56 1 -111 4 -167 4c-48 0 -96 -3 -143 -4z" />
    <glyph glyph-name="E" unicode="E" horiz-adv-x="600" 
d="M16 -2l9 34c70 0 76 35 93 96l98 355c7 24 24 79 24 103c0 48 -44 38 -85 40l9 34c48 -1 97 -4 145 -4c118 0 235 3 353 4l11 -169h-39c-26 111 -75 125 -178 125c-61 0 -61 3 -78 -57l-51 -185h40c58 0 100 5 136 96h36l-66 -260h-36c1 58 19 120 -83 120h-39l-43 -155
c-4 -16 -16 -55 -16 -71c0 -57 57 -62 102 -62c118 0 176 28 230 139h35l-50 -183c-137 1 -275 4 -412 4c-48 0 -97 -3 -145 -4z" />
    <glyph glyph-name="F" unicode="F" horiz-adv-x="540" 
d="M376 554l-51 -183h30c62 0 110 10 140 95h38l-64 -257h-38c11 81 4 118 -85 118h-33l-42 -154c-7 -24 -24 -79 -24 -103c0 -46 44 -36 85 -38l-9 -34c-54 1 -109 4 -163 4c-48 0 -97 -3 -144 -4l9 34c70 0 76 34 93 95l99 356c7 24 24 79 24 103c0 48 -44 38 -85 40l9 34
c52 -1 104 -4 156 -4c110 0 221 3 331 4l11 -168h-39c-23 98 -70 124 -165 124c-34 0 -51 1 -61 -7c-9 -7 -13 -22 -22 -55z" />
    <glyph glyph-name="G" unicode="G" horiz-adv-x="720" 
d="M626 613l25 47h41l-37 -202h-39c2 90 -36 167 -138 167c-170 0 -252 -297 -252 -432c0 -93 51 -162 150 -162c94 0 149 69 149 160c0 45 -50 35 -81 40l8 34h299l-10 -34c-16 -1 -47 -2 -59 -14c-17 -15 -27 -72 -32 -94l-18 -80c-25 -1 -64 -1 -85 -9
c-74 -30 -120 -47 -202 -47c-154 0 -265 99 -265 258c0 206 165 424 381 424c59 0 120 -17 165 -56z" />
    <glyph glyph-name="H" unicode="H" horiz-adv-x="760" 
d="M574 314h-273l-38 -141c-7 -24 -24 -79 -24 -103c0 -46 44 -36 85 -38l-9 -34c-55 1 -111 4 -166 4c-48 0 -95 -3 -143 -4l9 34c70 0 76 34 93 95l99 356c7 24 24 79 24 103c0 48 -44 38 -85 40l9 34c50 -1 100 -4 150 -4c53 0 106 3 159 4l-9 -34c-70 0 -75 -34 -93 -97
l-48 -171h273l35 125c7 24 24 79 24 103c0 48 -44 38 -85 40l9 34c50 -1 99 -4 149 -4c52 0 104 3 158 4l-9 -34c-70 0 -76 -36 -93 -97l-99 -356c-7 -24 -24 -79 -24 -103c0 -46 44 -36 88 -38l-9 -34c-52 1 -103 4 -155 4s-104 -3 -155 -4l9 34c70 0 76 34 93 95z" />
    <glyph glyph-name="I" unicode="I" horiz-adv-x="340" 
d="M108 129l99 354c7 24 24 79 24 103c0 48 -44 38 -85 40l9 34c50 -1 100 -4 150 -4c52 0 105 3 157 4l-9 -34c-70 0 -76 -36 -93 -97l-99 -356c-7 -26 -21 -77 -21 -103c0 -45 46 -38 86 -38l-9 -34c-52 1 -104 4 -156 4s-103 -3 -155 -4l9 34c70 0 76 36 93 97z" />
    <glyph glyph-name="J" unicode="J" horiz-adv-x="340" 
d="M360 529l-115 -412c-20 -72 -48 -181 -79 -247c-41 -88 -116 -140 -215 -140c-60 0 -159 29 -159 105c0 31 26 57 57 57c39 0 57 -31 63 -64c5 -29 15 -54 48 -54c57 0 77 95 89 138l160 571c7 24 24 79 24 103c0 48 -44 38 -85 40l9 34c48 -1 95 -4 143 -4
c54 0 108 3 162 4l-9 -34c-70 0 -76 -36 -93 -97z" />
    <glyph glyph-name="K" unicode="K" horiz-adv-x="660" 
d="M460 393l103 -213c15 -32 40 -86 62 -112c19 -24 39 -32 68 -36l-9 -34c-44 1 -89 4 -133 4c-53 0 -105 -3 -158 -4l10 34c18 1 68 -3 68 28c0 22 -42 105 -52 127l-63 134l-55 -34l-31 -114c-7 -24 -24 -79 -24 -103c0 -46 44 -36 85 -38l-9 -34c-53 1 -106 4 -159 4
c-49 0 -98 -3 -147 -4l9 34c70 0 76 34 93 95l99 356c7 24 24 79 24 103c0 48 -44 38 -85 40l9 34c50 -1 100 -4 150 -4c52 0 104 3 156 4l-9 -34c-70 0 -77 -36 -94 -97l-50 -178l2 -2l165 123c15 14 114 89 114 122s-47 32 -68 32l10 34c41 -1 81 -4 122 -4
c40 0 81 3 121 4v-34c-59 -12 -87 -38 -132 -75z" />
    <glyph glyph-name="L" unicode="L" horiz-adv-x="580" 
d="M16 -2l9 34c70 0 76 34 93 95l99 356c7 24 24 79 24 103c0 48 -44 38 -85 40l9 34c51 -1 102 -4 153 -4c52 0 105 3 156 4l-9 -34c-70 0 -76 -36 -93 -97l-94 -342c-6 -22 -18 -64 -18 -85c0 -55 61 -60 103 -60c115 0 172 43 218 147h38l-53 -191c-136 1 -271 4 -407 4
c-48 0 -95 -3 -143 -4z" />
    <glyph glyph-name="M" unicode="M" horiz-adv-x="880" 
d="M414 -2h-49l-81 554h-2l-97 -356c-9 -33 -20 -74 -20 -108c0 -50 48 -53 86 -56l-10 -34c-37 1 -74 4 -111 4c-41 0 -81 -3 -122 -4l1 34c80 3 93 57 112 122l100 341c6 21 21 72 21 92c0 40 -49 36 -76 39l10 34c36 -1 71 -4 107 -4s72 3 108 4l72 -480h2l288 480
c36 -1 71 -4 107 -4c33 0 67 3 100 4v-34c-19 -2 -46 -6 -61 -18c-23 -18 -31 -76 -36 -104l-60 -359c-3 -19 -9 -47 -9 -65c0 -51 51 -45 88 -48l-9 -34c-55 1 -111 4 -166 4c-50 0 -101 -3 -151 -4l10 34c24 2 63 1 77 26c14 22 20 62 25 87l76 405l-2 2z" />
    <glyph glyph-name="N" unicode="N" horiz-adv-x="700" 
d="M138 205l100 379c-18 40 -52 40 -90 42l10 34c33 -1 67 -4 100 -4c32 0 63 3 95 4l232 -478l79 312c6 24 10 47 10 70c0 51 -44 60 -84 62l9 34c36 -1 72 -4 108 -4c38 0 75 3 113 4v-34c-80 -6 -94 -90 -110 -153l-125 -491h-46l-268 536l-81 -313
c-7 -29 -21 -87 -21 -117c0 -51 42 -49 81 -56l-9 -34c-37 1 -73 4 -110 4c-40 0 -81 -3 -120 -4v34c97 10 101 74 127 173z" />
    <glyph glyph-name="O" unicode="O" horiz-adv-x="700" 
d="M338 -13c-151 0 -258 95 -258 249c0 211 178 433 398 433c155 0 259 -101 259 -255c0 -210 -181 -427 -399 -427zM484 625c-165 0 -258 -339 -258 -459c0 -68 29 -135 107 -135c172 0 258 339 258 463c0 71 -28 131 -107 131z" />
    <glyph glyph-name="P" unicode="P" horiz-adv-x="580" 
d="M307 309l-38 -136c-7 -24 -24 -79 -24 -103c0 -46 44 -36 85 -38l-9 -34c-54 1 -107 4 -161 4c-48 0 -96 -3 -144 -4l9 34c70 0 76 34 93 95l98 356c7 24 24 79 24 103c0 48 -44 38 -85 40l9 34c47 -1 96 -4 144 -4c40 0 80 4 120 4c105 1 257 -25 257 -160
c0 -159 -166 -198 -293 -194zM374 550l-56 -197v-2c17 1 35 -1 52 -1c104 -1 169 67 169 173c0 71 -44 93 -108 93c-48 0 -46 -26 -57 -66z" />
    <glyph glyph-name="Q" unicode="Q" horiz-adv-x="680" 
d="M323 -17l-78 -45l2 -2c15 1 30 4 45 4c139 1 243 -101 366 -101c84 0 102 53 120 53c8 0 13 -7 13 -15c0 -85 -90 -147 -169 -147c-160 0 -237 170 -375 170c-86 0 -122 -51 -156 -51c-12 0 -22 11 -22 23c0 25 31 31 50 35c59 13 101 46 149 80
c-130 21 -198 119 -198 248c0 216 175 434 399 434c154 0 253 -103 253 -256c0 -103 -44 -202 -108 -280c-78 -95 -148 -123 -266 -144c-8 -1 -17 -3 -25 -6zM470 625c-162 0 -254 -325 -254 -454c0 -63 26 -141 102 -141c170 0 258 324 258 459c0 70 -25 136 -106 136z" />
    <glyph glyph-name="R" unicode="R" horiz-adv-x="640" 
d="M108 127l99 356c7 24 24 79 24 103c0 48 -44 38 -85 40l9 34c51 -1 102 -4 153 -4c44 0 88 4 132 4c95 1 233 -28 233 -149c0 -127 -131 -177 -238 -186v-2c128 -31 130 -89 132 -203c1 -26 0 -73 38 -73c29 0 48 22 66 42l30 -22c-35 -51 -87 -80 -149 -80
c-82 0 -136 45 -133 128l4 105c3 81 -44 88 -92 88h-32l-37 -135c-7 -24 -24 -79 -24 -103c0 -46 44 -36 85 -38l-9 -34c-55 1 -109 4 -164 4c-48 0 -96 -3 -144 -4l9 34c70 0 76 34 93 95zM373 573l-62 -221c49 -1 106 0 148 27c47 30 68 94 68 148c0 71 -52 89 -113 89
c-36 0 -32 -11 -41 -43z" />
    <glyph glyph-name="S" unicode="S" horiz-adv-x="480" 
d="M496 611l25 49h39c-8 -36 -17 -72 -25 -108c-6 -29 -13 -57 -19 -86l-37 7c5 72 -31 152 -113 152c-46 0 -97 -30 -97 -81c0 -58 41 -99 80 -136l36 -35c57 -55 105 -107 105 -192c0 -122 -92 -194 -210 -194c-65 0 -132 24 -177 72l-26 -52h-42l40 206l37 -5
c-2 -94 48 -177 146 -177c55 0 107 39 107 96c0 63 -37 99 -78 142l-40 41c-51 53 -93 99 -93 177c0 112 83 182 192 182c58 0 107 -20 150 -58z" />
    <glyph glyph-name="T" unicode="T" horiz-adv-x="620" 
d="M521 614l-116 -441c-7 -25 -23 -78 -23 -103c0 -47 47 -38 95 -38l-9 -34c-57 1 -115 4 -172 4s-115 -3 -172 -4l9 34c89 -1 96 12 118 95l128 487h-14c-116 0 -170 -10 -214 -131h-40l49 177c99 -1 199 -4 298 -4c91 0 181 3 274 4c-1 -27 -4 -55 -4 -82
c0 -35 3 -69 4 -104h-40c-13 108 -45 140 -155 140h-16z" />
    <glyph glyph-name="U" unicode="U" horiz-adv-x="700" 
d="M354 529l-60 -216c-12 -45 -31 -106 -31 -152c0 -75 68 -114 136 -114c143 0 193 141 234 300l35 137c6 25 13 53 13 78c0 51 -40 59 -81 64l9 34c39 -1 77 -4 116 -4c35 0 71 3 106 4v-34c-66 -7 -83 -46 -99 -103l-56 -199c-53 -190 -93 -337 -325 -337
c-112 0 -228 68 -228 190c0 40 21 106 32 145l45 161c7 24 23 78 23 103c0 43 -43 40 -75 40l10 34c49 -1 97 -4 146 -4c51 0 102 3 153 4l-10 -34c-69 0 -76 -37 -93 -97z" />
    <glyph glyph-name="V" unicode="V" horiz-adv-x="580" 
d="M153 -18l43 563c5 70 -13 75 -80 81l10 34c48 -1 95 -4 143 -4c54 0 107 3 161 4l-10 -34c-20 -2 -57 -4 -73 -20c-18 -17 -21 -81 -23 -106l-29 -328l2 -2l203 264c21 28 89 114 89 147c0 39 -48 40 -76 45l10 34c45 -1 90 -4 135 -4c32 0 65 3 97 4l-9 -34
c-19 -4 -33 -10 -49 -21c-26 -20 -66 -76 -87 -104c-58 -78 -116 -158 -178 -234l-231 -285h-48z" />
    <glyph glyph-name="W" unicode="W" horiz-adv-x="840" 
d="M181 -18l15 536c2 76 6 103 -81 108l9 34c43 -1 88 -4 134 -4c51 0 102 3 153 4l-10 -34c-20 -2 -51 -3 -63 -22c-14 -20 -14 -52 -15 -75l-13 -325l2 -2l151 249c15 25 68 108 68 135c0 33 -42 38 -66 40l10 34c43 -1 86 -4 129 -4c49 0 97 3 147 4l-10 -34
c-22 -3 -57 -7 -70 -28c-14 -22 -12 -92 -12 -118v-278h2l88 151c25 43 115 192 115 232c0 33 -36 38 -60 41l10 34c35 -1 69 -4 104 -4c33 0 66 3 99 4l-1 -34c-42 -6 -64 -28 -87 -63c-69 -107 -128 -220 -195 -328l-157 -253h-43l-4 491h-2l-305 -491h-42z" />
    <glyph glyph-name="X" unicode="X" horiz-adv-x="600" 
d="M328 307l-90 204c-11 26 -32 73 -52 93c-19 19 -45 19 -68 22l10 34c48 -1 95 -4 143 -4c51 0 103 3 154 4l-10 -34c-19 -1 -64 -4 -64 -33c0 -13 31 -81 37 -96l35 -87l61 71c16 19 76 86 76 111c0 38 -45 29 -67 34l9 34c41 -1 83 -4 124 -4c38 0 76 3 114 4v-34
c-26 -5 -53 -10 -76 -28c-30 -23 -80 -74 -106 -104l-112 -129l92 -213c12 -27 36 -79 57 -99c17 -15 40 -18 62 -21l-10 -34c-43 1 -86 4 -129 4c-58 0 -116 -3 -174 -4l10 35c20 -1 73 -3 73 28c0 19 -13 44 -20 61l-61 140c-24 -34 -140 -156 -140 -193
c0 -36 53 -32 77 -37l-10 -34c-41 1 -81 4 -122 4s-81 -3 -122 -4l1 34c75 6 125 73 170 126z" />
    <glyph glyph-name="Y" unicode="Y" horiz-adv-x="560" 
d="M268 293l-72 239c-20 65 -23 88 -96 94l10 34c48 -1 95 -4 143 -4c53 0 107 3 160 4l-9 -34c-31 -6 -77 -1 -77 -46c0 -20 11 -57 17 -77l46 -162l15 19c30 37 151 186 151 225c0 37 -46 37 -71 41l10 34c40 -1 81 -4 121 -4c37 0 73 3 110 4v-34
c-68 -9 -93 -47 -133 -98l-187 -240l-32 -115c-7 -24 -24 -79 -24 -103c0 -46 44 -36 85 -38l-9 -34c-52 1 -105 4 -157 4s-104 -3 -156 -4l9 34c77 0 83 34 100 95z" />
    <glyph glyph-name="Z" unicode="Z" horiz-adv-x="560" 
d="M40 0l7 26l402 590h-27c-133 0 -190 -5 -275 -120h-39l61 164h460l-7 -25l-405 -591h61c126 0 217 23 283 140h40l-66 -184h-495z" />
    <glyph glyph-name="bracketleft" unicode="[" horiz-adv-x="400" 
d="M345 635l-172 -736h111l-10 -34h-198l187 804h200l-9 -34h-109z" />
    <glyph glyph-name="backslash" unicode="\" horiz-adv-x="260" 
d="M242 -135l-155 804h82l156 -804h-83z" />
    <glyph glyph-name="bracketright" unicode="]" horiz-adv-x="400" 
d="M160 -101l172 736h-111l10 34h198l-187 -804h-200l9 34h109z" />
    <glyph glyph-name="asciicircum" unicode="^" 
d="M187 279h-80l183 390h77l183 -390h-80l-142 305z" />
    <glyph glyph-name="underscore" unicode="_" horiz-adv-x="500" 
d="M0 -75h500v-50h-500v50z" />
    <glyph glyph-name="quoteleft" unicode="&#x2018;" horiz-adv-x="260" 
d="M333 669l10 -25c-69 -31 -129 -74 -136 -156c14 8 27 15 44 15c36 0 61 -31 61 -65c0 -40 -33 -65 -70 -65c-55 0 -90 44 -90 97c0 99 93 173 181 199z" />
    <glyph glyph-name="a" unicode="a" 
d="M327 376c-88 0 -147 -193 -147 -264c0 -29 14 -65 48 -65c91 0 152 200 152 272c0 32 -18 57 -53 57zM404 366l22 64h104l-75 -268c-5 -17 -16 -58 -16 -74c0 -12 5 -35 19 -35c31 0 60 67 74 90l21 -9c-27 -63 -80 -147 -156 -147c-38 0 -67 30 -64 67l3 36l-2 2
c-30 -56 -82 -105 -150 -105c-84 0 -124 67 -124 145c0 129 101 299 245 299c47 0 81 -23 99 -65z" />
    <glyph glyph-name="b" unicode="b" horiz-adv-x="480" 
d="M331 669l-83 -296l2 -2c28 38 69 60 119 60c78 0 120 -60 120 -133c0 -153 -111 -311 -274 -311c-77 0 -136 45 -136 125c0 47 17 111 29 157l52 193c6 24 28 102 28 127c0 36 -50 37 -75 37l7 30zM321 376c-92 -5 -147 -233 -147 -299c0 -30 16 -56 49 -56
c94 0 151 224 151 293c0 34 -15 64 -53 62z" />
    <glyph glyph-name="c" unicode="c" horiz-adv-x="380" 
d="M379 136l23 -17c-39 -71 -109 -132 -193 -132c-96 0 -149 67 -149 158c0 143 107 286 257 286c52 0 120 -26 120 -88c0 -31 -23 -60 -55 -60c-31 0 -56 21 -56 52c0 29 18 35 18 49c0 13 -16 17 -27 17c-90 0 -137 -207 -137 -277c0 -41 21 -82 68 -82
c58 0 102 48 131 94z" />
    <glyph glyph-name="d" unicode="d" 
d="M321 376c-93 0 -146 -184 -146 -257c0 -37 13 -72 56 -72c93 0 144 205 144 274c0 33 -18 55 -54 55zM395 370l42 163c4 16 10 43 10 59c0 34 -50 34 -75 34l7 30l206 13l-113 -420c-10 -39 -34 -130 -34 -167c0 -11 5 -26 18 -26c29 0 58 61 72 84l20 -9
c-25 -58 -83 -141 -152 -141c-52 0 -69 52 -62 95h-2c-31 -49 -86 -98 -146 -98c-85 0 -126 65 -126 145c0 118 93 299 231 299c48 0 83 -18 102 -61h2z" />
    <glyph glyph-name="e" unicode="e" horiz-adv-x="400" 
d="M375 136l25 -19c-46 -68 -110 -130 -196 -130c-91 0 -144 57 -144 149c0 149 110 295 265 295c52 0 122 -21 122 -84c0 -113 -177 -151 -264 -173c-3 -19 -6 -38 -6 -57c0 -39 21 -75 64 -75c56 0 101 54 134 94zM192 206c67 20 160 75 160 154c0 23 -13 41 -37 41
c-72 0 -109 -140 -123 -195z" />
    <glyph glyph-name="f" unicode="f" horiz-adv-x="260" 
d="M252 376l-110 -450c-23 -96 -78 -196 -192 -196c-41 0 -87 20 -87 67c0 25 21 48 47 48c27 0 41 -21 43 -44c1 -13 4 -31 21 -31c26 0 31 32 36 50c14 58 29 116 43 174l89 382h-84l11 40h83c29 114 87 253 229 253c39 0 99 -11 99 -61c0 -24 -21 -48 -46 -48
c-57 0 -44 69 -84 69c-28 0 -40 -32 -48 -53c-19 -52 -29 -107 -40 -160h95l-10 -40h-95z" />
    <glyph glyph-name="g" unicode="g" horiz-adv-x="440" 
d="M212 -236c56 0 128 19 128 88c0 116 -300 33 -300 180c0 63 57 95 112 106c-38 24 -65 58 -65 105c0 117 101 188 210 188c41 0 81 -8 114 -34c20 23 51 48 83 48c27 0 51 -16 51 -46c0 -20 -17 -34 -37 -34c-27 0 -33 23 -50 23c-9 0 -19 -8 -26 -14
c17 -24 25 -50 25 -79c0 -78 -54 -152 -129 -174c-24 -7 -50 -9 -78 -9h-46c-22 0 -79 0 -79 -34c0 -35 57 -38 80 -41c92 -12 230 -25 230 -147c0 -113 -123 -160 -219 -160c-77 0 -225 27 -225 128c0 38 26 67 64 67c22 0 40 -10 53 -27c-22 -3 -40 -23 -40 -46
c0 -69 91 -88 144 -88zM303 401c-75 3 -105 -157 -105 -198c0 -28 15 -57 47 -57c71 0 101 139 101 192c0 28 -9 61 -43 63z" />
    <glyph glyph-name="h" unicode="h" 
d="M42 0l125 463c7 25 29 103 29 129c0 34 -52 34 -76 34l8 30l207 13l-98 -369l2 -2c32 66 95 133 175 133c51 0 85 -35 85 -86c0 -30 -10 -68 -19 -97l-32 -101c-4 -14 -18 -54 -18 -67c0 -12 8 -27 20 -27c35 0 66 66 81 93l19 -6c-27 -65 -86 -153 -163 -153
c-39 0 -73 31 -73 71c0 31 13 69 22 99l31 100c6 19 18 56 18 76s-11 33 -32 33c-37 0 -76 -48 -94 -76c-29 -46 -51 -104 -68 -156l-43 -134h-106z" />
    <glyph glyph-name="i" unicode="i" horiz-adv-x="300" 
d="M308 143l19 -9c-31 -63 -89 -147 -167 -147c-45 0 -72 31 -72 76c0 36 15 79 27 113l22 65c8 22 31 84 31 105c0 14 -8 25 -22 25c-29 0 -68 -64 -82 -88l-19 11c35 60 88 137 165 137c41 0 73 -25 73 -69c0 -33 -14 -74 -25 -106l-40 -121c-5 -15 -15 -41 -15 -57
c0 -12 10 -25 23 -25c35 0 65 65 82 90zM267 554c-36 0 -65 28 -65 64s29 64 65 64c35 0 63 -29 63 -64c0 -34 -28 -64 -63 -64z" />
    <glyph glyph-name="j" unicode="j" horiz-adv-x="260" 
d="M70 278l-21 12c30 61 80 141 156 141c40 0 70 -25 70 -66c0 -47 -24 -129 -37 -176l-32 -120c-34 -127 -86 -339 -255 -339c-41 0 -111 23 -111 75c0 28 23 49 51 49c60 0 39 -90 77 -90c35 0 55 72 63 97l53 177c35 118 76 268 76 307c0 11 -3 26 -17 26
c-24 0 -60 -73 -73 -93zM272 554c-35 0 -64 28 -64 64s28 64 64 64c35 0 64 -29 64 -64c0 -34 -29 -64 -64 -64z" />
    <glyph glyph-name="k" unicode="k" horiz-adv-x="460" 
d="M197 198c58 16 178 71 178 139c0 22 -16 39 -38 39c-73 0 -123 -118 -140 -178zM278 198l-91 -40l-43 -158h-110l123 458c7 25 31 108 31 134c0 34 -52 34 -76 34l8 30l203 13l-83 -322l2 -2c34 50 90 86 153 86c46 0 86 -26 86 -75c0 -76 -108 -118 -166 -146v-2
c50 0 80 -31 80 -81c0 -17 -3 -33 -3 -49c0 -11 5 -31 20 -31c31 0 53 66 64 90l18 -7c-19 -65 -59 -143 -136 -143c-46 0 -79 33 -79 79c0 34 18 74 18 101c0 16 -6 23 -19 31z" />
    <glyph glyph-name="l" unicode="l" horiz-adv-x="260" 
d="M338 669l-139 -494c-7 -24 -18 -62 -18 -86c0 -12 1 -36 18 -36c29 0 61 77 70 102l23 -7c-24 -67 -72 -161 -154 -161c-47 0 -72 30 -72 77c0 31 11 72 19 103l90 335c6 21 19 70 19 90c0 34 -52 34 -76 34l8 30z" />
    <glyph glyph-name="m" unicode="m" horiz-adv-x="740" 
d="M72 0l38 124c15 48 48 170 48 216c0 10 -5 24 -18 24c-25 0 -56 -66 -66 -86l-21 10c28 60 73 143 149 143c42 0 66 -30 66 -71c0 -22 -3 -44 -8 -63l2 -2c31 60 90 136 166 136c43 0 73 -25 73 -70c0 -22 -5 -44 -9 -64l2 -2c34 62 84 136 165 136c51 0 81 -28 81 -78
c0 -33 -14 -81 -24 -113l-19 -58c-7 -21 -33 -88 -33 -108c0 -9 7 -22 17 -22c28 0 61 65 73 84l20 -11c-29 -59 -79 -138 -153 -138c-42 0 -72 29 -72 71c0 28 16 83 25 111l20 60c8 25 33 94 33 117c0 13 -9 25 -22 25c-69 0 -143 -205 -160 -258l-36 -113h-108l71 240
c7 24 25 75 25 99c0 15 -4 32 -21 32c-76 0 -135 -190 -154 -247l-41 -124h-109z" />
    <glyph glyph-name="n" unicode="n" horiz-adv-x="500" 
d="M60 0l43 159c12 45 41 134 41 179c0 11 -5 27 -19 27c-27 0 -56 -62 -67 -84l-20 8c27 64 72 142 150 142c44 0 64 -26 64 -69l-5 -57l-3 -19l2 -2c33 71 94 147 180 147c51 0 81 -28 81 -78c0 -33 -14 -81 -24 -113l-19 -58c-7 -21 -33 -88 -33 -108c0 -9 7 -22 17 -22
c28 0 61 65 73 84l20 -11c-29 -59 -79 -138 -153 -138c-42 0 -72 29 -72 71c0 28 16 83 25 111l20 60c8 25 33 94 33 117c0 13 -9 25 -22 25c-87 -2 -141 -182 -163 -244l-44 -127h-105z" />
    <glyph glyph-name="o" unicode="o" horiz-adv-x="460" 
d="M226 -13c-102 0 -166 72 -166 172c0 140 105 272 249 272c102 0 166 -75 166 -173c0 -135 -109 -271 -249 -271zM313 397c-59 0 -87 -81 -103 -127c-17 -50 -39 -126 -39 -180c0 -31 12 -69 50 -69c92 0 143 242 143 313c0 32 -15 63 -51 63z" />
    <glyph glyph-name="p" unicode="p" 
d="M338 569l-55 -202l2 -2c30 40 74 66 126 66c86 0 124 -64 124 -144c0 -127 -84 -300 -229 -300c-46 0 -80 24 -98 65h-2l-53 -201c-4 -15 -11 -35 -11 -51c0 -37 39 -37 67 -40l-8 -30c-41 1 -81 4 -122 4s-81 -3 -122 -4l7 30c19 3 43 1 54 18c15 20 26 68 33 93
l128 475c-59 -27 -93 -55 -113 -118l-26 10c13 58 46 91 94 124c62 45 65 59 84 131l25 93zM279 42c90 0 141 200 141 272c0 33 -18 62 -55 62c-89 0 -136 -208 -136 -269c0 -31 14 -65 50 -65z" />
    <glyph glyph-name="q" unicode="q" horiz-adv-x="480" 
d="M228 47c86 0 141 205 141 274c0 31 -18 55 -51 55c-93 0 -143 -190 -143 -259c0 -33 16 -70 53 -70zM393 358l19 65h101l-149 -552c-5 -17 -14 -51 -14 -69c0 -43 38 -38 70 -42l-7 -30c-44 1 -88 4 -132 4c-43 0 -85 -3 -128 -4l7 30c75 2 76 39 92 101l50 194l-2 2
c-27 -36 -68 -70 -117 -70c-83 0 -123 68 -123 145c0 126 95 299 236 299c52 0 80 -27 95 -73h2z" />
    <glyph glyph-name="r" unicode="r" horiz-adv-x="380" 
d="M203 107l-36 -107h-112l39 125c17 55 43 156 43 213c0 11 -2 25 -15 25c-28 0 -56 -65 -66 -87l-22 10c28 61 75 145 152 145c41 0 61 -33 61 -70c0 -29 -6 -57 -9 -83l2 -2c28 60 69 155 148 155c40 0 71 -26 71 -67c0 -36 -25 -59 -60 -59c-43 0 -41 41 -65 41
c-54 0 -116 -194 -131 -239z" />
    <glyph glyph-name="s" unicode="s" horiz-adv-x="340" 
d="M187 160c-34 40 -81 87 -81 142c0 87 83 129 160 129c49 0 120 -17 120 -79c0 -24 -18 -42 -42 -42c-30 0 -42 27 -43 52c-1 24 -8 35 -35 35c-32 0 -54 -16 -54 -47c0 -37 31 -64 54 -87c39 -40 72 -80 72 -139c0 -86 -88 -137 -165 -137c-56 0 -135 27 -135 96
c0 27 16 47 44 47c25 0 48 -17 46 -44l-1 -17l-1 -16c-1 -22 23 -32 41 -32c34 0 60 29 60 62c0 34 -19 53 -40 77z" />
    <glyph glyph-name="t" unicode="t" horiz-adv-x="280" 
d="M308 568l-42 -157h95l-11 -40h-95l-46 -173c-7 -28 -25 -88 -25 -116c0 -15 4 -35 23 -35c34 0 68 61 82 85l8 14l19 -10c-31 -62 -85 -149 -162 -149c-45 0 -81 33 -81 78c0 43 19 108 30 150l42 156h-79l9 40h80l51 157h102z" />
    <glyph glyph-name="u" unicode="u" 
d="M531 423l-56 -181c-12 -40 -32 -120 -32 -159c0 -12 2 -31 18 -31c28 0 57 69 67 88l19 -7c-24 -63 -71 -146 -148 -146c-41 0 -65 35 -65 73c0 26 4 51 9 74l-2 2c-31 -68 -94 -149 -176 -149c-46 0 -82 30 -82 79c0 35 18 86 28 120l31 106c4 14 15 42 15 58
c0 11 -5 21 -17 21c-30 0 -60 -61 -75 -83l-18 9c33 63 78 134 157 134c38 0 68 -25 68 -64c0 -33 -16 -83 -27 -116l-24 -72c-7 -21 -28 -79 -28 -101c0 -18 12 -26 29 -26c82 0 150 215 171 280l30 91h108z" />
    <glyph glyph-name="v" unicode="v" horiz-adv-x="460" 
d="M492 357c0 -146 -132 -370 -297 -370c-60 0 -121 32 -121 100c0 92 95 181 155 242l-2 2c-13 -4 -31 -10 -45 -10c-29 0 -52 12 -69 12c-31 0 -26 -31 -38 -31s-16 26 -16 35c0 42 26 86 72 86c50 0 64 -46 100 -46c21 0 27 14 32 27c6 14 11 27 29 27
c13 0 20 -10 20 -22c0 -28 -108 -167 -108 -281c0 -37 23 -75 63 -75c78 0 137 121 134 226c-1 39 -9 78 -9 101s13 51 44 51c42 0 56 -38 56 -74z" />
    <glyph glyph-name="w" unicode="w" horiz-adv-x="680" 
d="M360 185l52 206h111l-41 -155c-9 -34 -24 -89 -24 -124c0 -29 15 -59 48 -59c82 0 118 141 118 204c-1 6 -11 95 -11 112c0 34 13 62 52 62c40 0 49 -49 49 -79c0 -122 -104 -365 -254 -365c-70 0 -99 43 -101 108h-2c-34 -65 -95 -108 -170 -108c-61 0 -107 39 -107 104
c0 83 85 179 142 233l-2 2c-15 -3 -32 -6 -50 -6c-21 0 -40 9 -58 9c-28 0 -24 -32 -37 -32c-14 0 -16 34 -16 44c0 40 22 78 66 78c54 0 60 -46 96 -46c42 0 18 58 58 58c13 0 20 -9 20 -21c0 -28 -104 -176 -104 -272c0 -36 19 -76 61 -76c64 0 91 72 104 123z" />
    <glyph glyph-name="x" unicode="x" horiz-adv-x="420" 
d="M131 70l75 110l-43 108c-3 11 -18 68 -35 68c-23 0 -30 -60 -36 -78l-28 6c9 59 34 147 109 147c62 0 77 -54 97 -103l12 -30l15 21c29 40 75 112 130 112c24 0 46 -17 46 -42c0 -38 -30 -76 -53 -105l-22 16c11 16 27 46 27 65c0 10 -7 20 -18 20c-21 0 -63 -63 -74 -77
l-40 -52l56 -139c5 -11 16 -45 32 -45c23 0 39 62 44 76l26 -8c-16 -59 -51 -153 -123 -153c-60 0 -81 76 -97 122l-11 31l-35 -52c-25 -37 -55 -101 -106 -101c-28 0 -49 22 -49 51c0 35 30 82 52 110l21 -15c-11 -18 -25 -42 -25 -64c0 -11 8 -22 20 -22c14 0 26 12 33 23
z" />
    <glyph glyph-name="y" unicode="y" horiz-adv-x="400" 
d="M249 272c22 -81 35 -164 38 -247h2c32 65 71 158 71 231c0 71 -42 100 -42 133c0 25 21 42 45 42c43 0 57 -47 57 -82c0 -174 -122 -399 -239 -524c-44 -47 -98 -95 -166 -95c-31 0 -57 11 -57 45c0 25 25 46 49 46c23 0 46 -16 72 -16c32 0 57 18 78 41
c28 33 35 65 35 108c0 65 -13 181 -35 244l-43 123c-4 12 -15 30 -31 30c-27 0 -23 -91 -24 -106h-22c0 62 -2 186 89 186c74 0 107 -101 123 -159z" />
    <glyph glyph-name="z" unicode="z" horiz-adv-x="360" 
d="M380 386l-247 -281l2 -2c23 8 48 11 73 11c30 0 58 -12 87 -12s48 16 48 47v11c0 6 1 11 8 11c19 0 26 -47 26 -61c0 -68 -31 -123 -107 -123c-82 0 -107 77 -156 77c-26 0 -37 -19 -46 -38c-9 -20 -16 -39 -34 -39c-12 0 -20 15 -20 26c0 15 15 32 25 43l242 268l-2 2
c-19 -11 -38 -14 -62 -14s-48 8 -72 8c-23 0 -42 -11 -42 -36l1 -10c0 -6 -3 -10 -9 -10c-20 0 -26 54 -26 66c0 55 30 101 89 101c68 0 105 -64 141 -64c24 0 34 16 42 32c9 16 15 32 32 32c11 0 22 -8 22 -20c0 -9 -9 -19 -15 -25z" />
    <glyph glyph-name="braceleft" unicode="{" horiz-adv-x="440" 
d="M292 149l-49 -173c-5 -19 -8 -35 -8 -48c0 -30 16 -48 55 -60l-2 -2c-105 -3 -150 16 -148 77c1 13 4 30 9 49l49 173c18 65 5 87 -48 104l2 2c69 13 88 42 105 102l43 153c26 93 64 141 169 144c13 0 28 -1 44 -2l-2 -2c-61 -15 -87 -48 -103 -106l-45 -161
c-19 -67 -43 -115 -120 -128l-2 -2c38 -9 61 -24 60 -66c0 -14 -3 -32 -9 -54z" />
    <glyph glyph-name="bar" unicode="|" horiz-adv-x="260" 
d="M158 750h82v-1000h-82v1000z" />
    <glyph glyph-name="braceright" unicode="}" horiz-adv-x="440" 
d="M243 386l49 173c5 19 8 35 8 48c0 30 -16 48 -55 60l2 2c105 3 150 -16 148 -77c-1 -13 -4 -30 -9 -49l-49 -173c-18 -65 -5 -87 48 -104l-2 -2c-69 -13 -88 -42 -105 -102l-43 -153c-26 -93 -64 -141 -169 -144c-13 0 -28 1 -44 2l2 2c61 15 87 48 103 106l45 161
c19 67 43 115 120 128l2 2c-38 9 -61 24 -60 66c0 14 3 32 9 54z" />
    <glyph glyph-name="asciitilde" unicode="~" 
d="M192 292c37 0 76 -19 113 -31s71 -27 96 -27c38 0 60 39 79 66l63 -40c-36 -51 -72 -104 -142 -104c-33 0 -73 16 -110 30s-72 29 -97 29c-45 0 -65 -40 -87 -73l-62 41c34 55 76 109 147 109z" />
    <glyph glyph-name="exclamdown" unicode="&#xa1;" horiz-adv-x="340" 
d="M242 211l-40 -312c-7 -53 -11 -139 -83 -139c-35 0 -64 26 -64 62c0 41 27 99 43 136l115 260zM269 290c-40 0 -73 31 -73 72c0 40 34 69 72 69s69 -33 69 -70s-30 -71 -68 -71z" />
    <glyph glyph-name="cent" unicode="&#xa2;" horiz-adv-x="500" 
d="M496 669l-45 -124c29 -13 53 -45 53 -76c0 -35 -23 -63 -59 -63c-16 0 -26 6 -39 14l-92 -254c66 -4 105 44 141 92l24 -16c-38 -65 -100 -130 -180 -131l-48 -124h-37l48 124c-83 3 -140 72 -140 154c0 135 106 307 252 295l49 -4l41 113h32zM283 173l102 284
c5 14 11 27 19 39c3 3 4 4 4 9c0 16 -16 21 -29 21c-89 0 -137 -207 -137 -276c0 -34 9 -62 41 -77z" />
    <glyph glyph-name="sterling" unicode="&#xa3;" horiz-adv-x="500" 
d="M179 82c-19 16 -41 30 -67 30c-27 0 -48 -20 -48 -47c0 -26 19 -44 45 -44c36 0 58 31 70 61zM189 187v144h-121l12 44h112c6 143 82 294 245 294c45 0 139 -20 139 -79c0 -30 -24 -53 -54 -53c-71 0 -45 98 -96 98c-78 0 -90 -153 -97 -207l-7 -53h141l-12 -44h-141
c-11 -70 -26 -142 -58 -207c43 -16 98 -31 144 -31c109 0 111 87 137 87c8 0 12 -9 12 -15c0 -39 -62 -178 -174 -178c-61 0 -110 32 -156 67c-20 -34 -59 -67 -100 -67c-47 0 -85 34 -85 81c0 53 46 88 97 88c21 0 41 -6 61 -12c1 14 1 29 1 43z" />
    <glyph glyph-name="fraction" unicode="&#x2044;" horiz-adv-x="140" 
d="M421 669l-481 -669h-87l480 669h88z" />
    <glyph glyph-name="yen" unicode="&#xa5;" horiz-adv-x="500" 
d="M215 406l-36 119c-11 38 -21 102 -72 101l10 34c40 -1 80 -4 120 -4c44 0 88 3 132 4l-10 -34c-36 -1 -72 0 -72 -50c0 -28 25 -112 34 -142l25 -82l152 170c11 13 42 49 42 67c0 31 -29 36 -49 37l11 34l97 -4l98 4l-10 -34c-47 -4 -75 -46 -104 -78l-130 -142h108
l-12 -44h-138l-32 -35l-18 -67h153l-12 -44h-153l-21 -73c-4 -13 -15 -52 -15 -65c0 -46 53 -40 84 -46l-10 -34c-55 1 -109 4 -164 4c-56 0 -113 -3 -169 -4l10 34c31 2 72 4 96 29c14 16 20 39 26 60l27 95h-145l12 44h145l16 57l-12 45h-127l12 44h101z" />
    <glyph glyph-name="florin" unicode="&#x192;" horiz-adv-x="500" 
d="M379 389l-57 -324c-23 -128 -58 -293 -222 -293c-36 0 -115 12 -115 62c0 24 15 51 42 51c64 0 29 -87 83 -87c77 0 98 197 106 243l59 348h-98l11 30h92l13 64c17 85 59 239 204 239c39 0 122 -11 122 -64c0 -26 -22 -49 -50 -49c-25 0 -35 25 -40 46
c-4 21 -10 41 -36 41c-29 0 -53 -39 -63 -62c-16 -38 -29 -117 -36 -160l-9 -55h113l-11 -30h-108z" />
    <glyph glyph-name="section" unicode="&#xa7;" horiz-adv-x="580" 
d="M271 229l157 -145c29 16 61 36 61 74c0 40 -60 89 -87 114l-121 114c-33 -12 -65 -37 -65 -75c0 -33 33 -61 55 -82zM392 -38l-121 113c-59 55 -125 109 -125 197c0 74 45 116 113 136c-28 31 -53 61 -53 105c0 112 108 156 205 156c66 0 174 -29 174 -112
c0 -35 -26 -64 -62 -64c-31 0 -57 23 -57 55c0 31 26 37 26 54c0 24 -77 33 -93 33c-42 0 -114 -22 -114 -74c0 -23 9 -39 25 -54l122 -113c56 -52 127 -118 127 -199c0 -68 -50 -115 -110 -138c31 -34 55 -77 55 -124c0 -110 -115 -156 -209 -156c-81 0 -182 42 -182 137
c0 34 22 71 60 71c33 0 60 -26 60 -60c0 -36 -35 -52 -35 -68c0 -36 79 -46 102 -46c47 0 124 25 124 82c0 29 -12 51 -32 69z" />
    <glyph glyph-name="currency" unicode="&#xa4;" horiz-adv-x="500" 
d="M97 153l36 37c-26 39 -39 76 -39 124c0 49 11 87 39 127l-36 36l50 52l37 -37c38 28 83 40 130 40c46 0 85 -14 123 -40l37 37l51 -52l-37 -36c28 -42 39 -81 39 -131c0 -47 -14 -82 -39 -120l37 -37l-51 -51l-37 37c-38 -27 -84 -41 -130 -41s-86 15 -123 41l-37 -37z
M313 183c69 0 124 66 124 133s-51 131 -123 131c-74 0 -130 -59 -130 -134c0 -72 59 -130 129 -130z" />
    <glyph glyph-name="quotesingle" unicode="'" horiz-adv-x="280" 
d="M193 443l27 178c6 37 31 72 73 72c32 0 40 -25 32 -54c-5 -18 -11 -33 -19 -50l-61 -138c-7 -15 -16 -44 -37 -44c-20 0 -17 21 -15 36z" />
    <glyph glyph-name="quotedblleft" unicode="&#x201c;" horiz-adv-x="460" 
d="M323 669l10 -25c-69 -31 -129 -74 -136 -156c14 8 27 15 44 15c36 0 61 -31 61 -65c0 -40 -33 -65 -70 -65c-55 0 -90 44 -90 97c0 99 93 173 181 199zM519 669l10 -25c-69 -31 -129 -74 -136 -156c14 8 27 15 44 15c36 0 61 -31 61 -65c0 -40 -33 -65 -70 -65
c-55 0 -90 44 -90 97c0 99 93 173 181 199z" />
    <glyph glyph-name="guillemotleft" unicode="&#xab;" horiz-adv-x="460" 
d="M104 227l182 132c5 4 15 14 22 14c3 0 6 -4 6 -8c0 -9 -26 -38 -31 -44l-93 -98c15 -24 64 -112 64 -134c0 -4 -2 -9 -7 -9c-6 0 -14 12 -18 16c-25 33 -79 85 -110 116zM268 227l182 132c5 4 15 14 22 14c3 0 6 -4 6 -8c0 -9 -26 -38 -31 -44l-93 -98
c15 -24 64 -112 64 -134c0 -4 -2 -9 -7 -9c-6 0 -14 12 -18 16c-25 33 -79 85 -110 116z" />
    <glyph glyph-name="guilsinglleft" unicode="&#x2039;" horiz-adv-x="300" 
d="M111 227l182 132c5 4 15 14 22 14c4 0 7 -4 7 -8c0 -9 -27 -38 -31 -44l-93 -98c14 -24 63 -112 63 -134c0 -4 -2 -9 -6 -9c-7 0 -15 12 -17 16c-26 33 -81 85 -112 116z" />
    <glyph glyph-name="guilsinglright" unicode="&#x203a;" horiz-adv-x="300" 
d="M298 226l-182 -132c-5 -4 -15 -14 -22 -14c-3 0 -7 4 -7 8c0 9 27 38 31 43l93 99c-14 24 -63 112 -63 134c0 4 2 9 6 9c7 0 15 -12 17 -16c26 -33 81 -85 112 -116z" />
    <glyph glyph-name="endash" unicode="&#x2013;" horiz-adv-x="500" 
d="M540 251l-24 -82h-501l25 82h500z" />
    <glyph glyph-name="dagger" unicode="&#x2020;" horiz-adv-x="560" 
d="M366 340l33 -45c-62 -183 -121 -335 -169 -529h-19c43 203 54 420 61 505c1 12 -1 24 -1 36l56 33c-3 21 -20 42 -42 42c-15 0 -31 -11 -49 -21c-18 -11 -37 -22 -57 -22c-28 0 -51 28 -51 55c0 18 13 33 32 33c12 0 24 -7 24 -20c0 -7 -3 -15 -3 -22c0 -8 5 -13 13 -13
c13 0 23 14 35 29c11 14 25 28 43 28c33 0 59 -29 70 -29c5 0 8 6 8 11c0 12 -19 51 -19 81c0 39 14 59 27 71c14 13 27 18 27 27s-19 21 -19 44c0 22 21 35 41 35c21 0 45 -14 45 -38c0 -17 -10 -26 -19 -33c-10 -6 -20 -10 -20 -18c0 -13 24 -31 24 -67
c0 -56 -53 -92 -53 -105c0 -5 5 -7 9 -7c8 0 18 7 29 14c12 6 25 13 38 13c19 0 30 -19 37 -34c5 -10 15 -31 29 -31c4 0 9 4 9 9c0 7 -9 14 -9 28c0 15 12 25 26 25c22 0 34 -19 34 -38c0 -27 -20 -54 -49 -54c-21 0 -39 12 -56 23c-17 12 -33 23 -54 23
c-25 0 -49 -17 -61 -39z" />
    <glyph glyph-name="daggerdbl" unicode="&#x2021;" horiz-adv-x="540" 
d="M427 -17c25 0 45 -25 45 -48c0 -19 -16 -34 -35 -34c-18 0 -26 13 -26 29c0 7 2 12 2 18c0 3 -2 6 -5 6c-9 0 -13 -13 -21 -27c-7 -13 -17 -28 -39 -28c-13 0 -26 8 -38 13c-3 -35 -14 -49 -40 -71c-2 -1 -6 -5 -6 -7c0 -5 19 -18 19 -38c0 -19 -23 -30 -39 -30
c-21 0 -41 13 -41 36c0 14 9 23 21 29c4 1 13 5 13 10c0 3 -3 10 -5 13c-6 13 -8 17 -8 32c0 9 3 17 5 26c-11 -4 -22 -9 -34 -9c-17 0 -24 12 -29 24c-4 11 -6 22 -15 22c-5 0 -5 -5 -5 -8c0 -18 0 -39 -24 -39c-19 0 -36 14 -36 33c0 26 18 48 46 48c30 0 56 -33 87 -33
c13 0 22 4 33 9l-23 38c36 67 68 134 100 203h13c0 -72 -8 -144 -8 -216l-34 -25c9 -5 20 -10 30 -10c33 0 71 34 97 34zM347 452l34 25c-9 4 -20 10 -30 10c-16 0 -33 -8 -50 -16c-17 -9 -33 -17 -47 -17c-24 0 -44 24 -44 47c0 18 16 33 35 33c18 0 26 -12 26 -29
c0 -6 -3 -12 -3 -17c0 -3 2 -7 5 -7c10 0 14 14 21 28s17 28 39 28c13 0 27 -9 38 -14c3 35 14 49 40 71c2 2 6 5 6 8c0 4 -19 17 -19 38c0 19 23 29 39 29c21 0 41 -13 41 -36c0 -13 -9 -23 -20 -28c-4 -2 -14 -5 -14 -11c0 -3 4 -10 5 -13c5 -13 8 -17 8 -32
c0 -9 -2 -17 -5 -26c11 4 23 9 35 9c17 0 24 -11 28 -23c5 -11 7 -23 16 -23c4 0 4 5 4 8c0 18 0 40 25 40c19 0 35 -15 35 -34c0 -26 -18 -47 -45 -47c-15 0 -30 8 -44 17c-14 8 -28 16 -43 16c-13 0 -22 -4 -34 -9l24 -39c-36 -67 -68 -134 -100 -203h-14
c6 72 8 145 8 217z" />
    <glyph glyph-name="periodcentered" unicode="&#xb7;" horiz-adv-x="260" 
d="M174 148c-40 0 -73 34 -73 72s31 74 73 74c40 0 73 -31 73 -74c0 -41 -35 -72 -73 -72z" />
    <glyph glyph-name="paragraph" unicode="&#xb6;" horiz-adv-x="580" 
d="M571 454l-125 -449c-8 -30 -27 -96 -27 -124c0 -45 43 -39 77 -42l-10 -34h-174l223 805h-49l-224 -805h-184l10 34c41 1 81 -2 106 35c18 27 35 97 45 131l85 302c-89 1 -150 27 -150 124c0 73 36 142 97 181c78 51 164 53 254 48c19 -1 39 -4 58 -4c42 0 83 3 140 4
l-10 -34c-38 -1 -74 -1 -96 -35c-21 -32 -37 -103 -46 -137z" />
    <glyph glyph-name="bullet" unicode="&#x2022;" 
d="M314 164c-87 0 -163 73 -163 164c0 92 76 164 169 164c87 0 162 -72 162 -164c0 -91 -75 -164 -168 -164z" />
    <glyph glyph-name="quotesinglbase" unicode="&#x201a;" horiz-adv-x="260" 
d="M31 -173l-10 25c69 31 129 74 136 156c-14 -8 -27 -15 -44 -15c-36 0 -61 31 -61 65c0 40 33 65 70 65c55 0 90 -44 90 -97c0 -99 -93 -173 -181 -199z" />
    <glyph glyph-name="quotedblbase" unicode="&#x201e;" horiz-adv-x="460" 
d="M228 -173l-10 25c69 31 129 74 136 156c-14 -8 -27 -15 -44 -15c-36 0 -61 31 -61 65c0 40 33 65 70 65c55 0 90 -44 90 -97c0 -99 -93 -173 -181 -199zM31 -173l-10 25c69 31 129 74 136 156c-14 -8 -27 -15 -44 -15c-36 0 -61 31 -61 65c0 40 33 65 70 65
c55 0 90 -44 90 -97c0 -99 -93 -173 -181 -199z" />
    <glyph glyph-name="quotedblright" unicode="&#x201d;" horiz-adv-x="460" 
d="M360 373l-10 25c69 31 129 74 136 156c-14 -8 -27 -15 -44 -15c-36 0 -61 31 -61 65c0 40 33 65 70 65c55 0 90 -44 90 -97c0 -99 -93 -173 -181 -199zM163 373l-10 25c69 31 129 74 136 156c-14 -8 -27 -15 -44 -15c-36 0 -61 31 -61 65c0 40 33 65 70 65
c55 0 90 -44 90 -97c0 -99 -93 -173 -181 -199z" />
    <glyph glyph-name="guillemotright" unicode="&#xbb;" horiz-adv-x="460" 
d="M462 226l-182 -132c-5 -4 -15 -14 -22 -14c-3 0 -7 4 -7 8c0 9 27 38 31 43l93 99c-14 24 -63 112 -63 134c0 4 2 9 6 9c7 0 15 -12 17 -16c26 -33 81 -85 112 -116zM298 226l-182 -132c-5 -4 -15 -14 -22 -14c-3 0 -7 4 -7 8c0 9 27 38 31 43l93 99
c-14 24 -63 112 -63 134c0 4 2 9 6 9c7 0 15 -12 17 -16c26 -33 81 -85 112 -116z" />
    <glyph glyph-name="ellipsis" unicode="&#x2026;" horiz-adv-x="1000" 
d="M834 -7c-40 0 -72 31 -72 72c0 40 33 69 72 69c37 0 69 -33 69 -70s-30 -71 -69 -71zM502 -7c-41 0 -73 31 -73 72c0 40 33 69 72 69c38 0 69 -33 69 -70s-30 -71 -68 -71zM169 -7c-40 0 -73 31 -73 72c0 40 34 69 72 69s69 -33 69 -70s-30 -71 -68 -71z" />
    <glyph glyph-name="perthousand" unicode="&#x2030;" horiz-adv-x="1360" 
d="M730 -50c-89 0 -146 69 -146 154c0 113 87 229 207 229c82 0 132 -57 132 -138c0 -112 -67 -245 -193 -245zM755 -10c82 0 128 144 128 208c0 37 -14 95 -60 95c-81 0 -124 -163 -124 -225c0 -34 14 -78 56 -78zM1123 -50c-89 0 -146 69 -146 154c0 113 87 229 207 229
c82 0 132 -57 132 -138c0 -112 -67 -245 -193 -245zM1148 -10c82 0 128 144 128 208c0 37 -14 95 -60 95c-81 0 -124 -163 -124 -225c0 -34 14 -78 56 -78zM819 723l-481 -795h-52l419 691l-2 2c-30 -15 -60 -27 -96 -27c-26 0 -51 8 -75 15c5 -17 9 -35 9 -54
c0 -106 -71 -243 -191 -243c-84 0 -148 72 -148 154c0 106 81 233 196 233c33 0 52 -7 79 -24l48 -30c27 -17 43 -21 75 -21c74 0 136 43 182 99h37zM373 352c82 0 128 144 128 208c0 37 -14 95 -60 95c-81 0 -124 -163 -124 -225c0 -34 14 -78 56 -78z" />
    <glyph glyph-name="questiondown" unicode="&#xbf;" horiz-adv-x="440" 
d="M169 178l-17 29c27 22 64 41 100 41c50 0 93 -37 93 -89c0 -129 -219 -165 -219 -276c0 -54 40 -90 94 -90c23 0 72 11 72 42c0 11 -8 13 -18 13c-33 2 -54 13 -54 50c0 33 28 56 60 56c46 0 75 -39 75 -83c0 -80 -76 -118 -147 -118c-96 0 -167 66 -167 162
c0 166 226 201 226 272c0 15 -13 21 -26 21c-27 0 -50 -16 -72 -30zM312 290c-40 0 -73 31 -73 72c0 40 34 69 72 69s69 -33 69 -70s-30 -71 -68 -71z" />
    <glyph glyph-name="grave" unicode="`" horiz-adv-x="380" 
d="M435 506l-137 76c-20 11 -51 22 -51 49c0 20 15 38 36 38c19 0 31 -13 45 -26l21 -20l116 -117h-30z" />
    <glyph glyph-name="acute" unicode="&#xb4;" horiz-adv-x="320" 
d="M210 503l120 121c16 16 42 45 67 45c20 0 38 -17 38 -38c0 -24 -30 -39 -48 -49l-140 -79h-37z" />
    <glyph glyph-name="circumflex" unicode="&#x2c6;" horiz-adv-x="400" 
d="M401 659l78 -165h-29l-83 97l-113 -97h-47l142 165h52z" />
    <glyph glyph-name="tilde" unicode="&#x2dc;" horiz-adv-x="400" 
d="M481 628l24 -1c-11 -55 -33 -94 -94 -94c-22 0 -38 7 -59 14c-18 6 -51 18 -70 18c-27 0 -29 -15 -37 -36l-24 2c2 47 33 91 84 91c25 0 53 -11 77 -19c18 -6 33 -11 52 -11c25 0 38 14 47 36z" />
    <glyph glyph-name="macron" unicode="&#xaf;" horiz-adv-x="400" 
d="M500 545h-261v60h261v-60z" />
    <glyph glyph-name="breve" unicode="&#x2d8;" horiz-adv-x="400" 
d="M496 641h25c-24 -67 -94 -128 -167 -128c-69 0 -113 42 -107 109l1 12h25c7 -45 42 -58 84 -58c49 0 108 25 139 65z" />
    <glyph glyph-name="dotaccent" unicode="&#x2d9;" horiz-adv-x="240" 
d="M282 525c-28 0 -51 22 -51 51c0 28 22 50 51 50c28 0 50 -23 50 -51c0 -27 -22 -50 -50 -50z" />
    <glyph glyph-name="dieresis" unicode="&#xa8;" horiz-adv-x="400" 
d="M282 525c-28 0 -51 22 -51 51c0 28 22 50 51 50c28 0 50 -23 50 -51c0 -27 -22 -50 -50 -50zM446 525c-28 0 -51 22 -51 51c0 28 22 50 51 50c28 0 50 -23 50 -51c0 -27 -22 -50 -50 -50z" />
    <glyph glyph-name="ring" unicode="&#x2da;" horiz-adv-x="340" 
d="M335 510c-55 0 -104 41 -104 98s49 98 105 98c55 0 101 -43 101 -99c0 -55 -48 -97 -102 -97zM336 548c32 0 58 28 58 59c0 32 -26 60 -59 60c-32 0 -60 -25 -60 -58c0 -35 27 -61 61 -61z" />
    <glyph glyph-name="cedilla" unicode="&#xb8;" horiz-adv-x="300" 
d="M107 -73l22 73h32l-14 -48c33 0 71 -21 71 -58c0 -46 -45 -68 -85 -68c-27 0 -87 12 -87 48c0 13 9 23 22 23c35 0 16 -43 52 -43c25 0 49 15 49 42c0 25 -22 31 -42 31h-20z" />
    <glyph glyph-name="hungarumlaut" unicode="&#x2dd;" horiz-adv-x="480" 
d="M368 505l120 121c15 16 42 45 66 45c20 0 38 -17 38 -38c0 -24 -29 -38 -48 -49l-140 -79h-36zM210 505l120 121c16 16 42 45 67 45c20 0 38 -17 38 -38c0 -24 -30 -39 -48 -49l-140 -79h-37z" />
    <glyph glyph-name="ogonek" unicode="&#x2db;" horiz-adv-x="320" 
d="M215 -2l-45 -23c-22 -11 -64 -35 -64 -65c0 -16 12 -28 28 -28c23 0 56 24 74 39l15 -25c-28 -29 -79 -55 -120 -55c-27 0 -69 12 -69 46c0 69 126 105 179 113z" />
    <glyph glyph-name="caron" unicode="&#x2c7;" horiz-adv-x="400" 
d="M333 494l-78 165h29l83 -97l113 97h46l-142 -165h-51z" />
    <glyph glyph-name="emdash" unicode="&#x2014;" horiz-adv-x="1000" 
d="M1041 251l-25 -82h-1001l25 82h1001z" />
    <glyph glyph-name="AE" unicode="&#xc6;" horiz-adv-x="940" 
d="M354 328h161l64 233c2 7 7 22 7 30c0 7 -4 14 -11 14c-21 0 -48 -45 -59 -59zM998 660l15 -171h-38c-31 108 -76 127 -177 127c-60 0 -62 1 -78 -55l-52 -188h31c66 0 112 5 142 95h37l-64 -258h-36l4 44c0 72 -53 75 -100 75h-26l-44 -158c-6 -20 -13 -47 -13 -68
c0 -57 65 -61 108 -61c110 0 175 41 221 141h39l-52 -185c-139 1 -278 4 -407 4c-57 0 -105 -3 -152 -4l10 34c69 0 76 34 93 95l43 157h-181l-8 -11c-27 -37 -122 -159 -122 -199c0 -34 44 -40 69 -42l-10 -34c-37 1 -75 4 -112 4c-34 0 -67 -3 -101 -4l10 34
c53 13 81 63 111 105l154 216l127 169c13 17 38 47 38 69c0 38 -61 34 -83 35l11 34c70 -1 141 -4 251 -4c87 0 215 3 342 4z" />
    <glyph glyph-name="ordfeminine" unicode="&#xaa;" horiz-adv-x="400" 
d="M315 635c-52 0 -91 -117 -91 -160c0 -17 9 -36 28 -36c53 0 93 113 93 158c0 18 -11 38 -30 38zM364 632l12 33h73l-54 -177c-1 -7 -5 -20 -5 -27c0 -6 2 -15 9 -15c18 0 37 38 46 51l19 -8c-19 -41 -54 -90 -104 -90c-25 0 -44 16 -44 41v10h-2c-20 -30 -53 -51 -91 -51
c-52 0 -82 36 -82 87c0 84 70 183 160 183c26 0 50 -13 63 -37z" />
    <glyph glyph-name="Lslash" unicode="&#x141;" horiz-adv-x="580" 
d="M16 -1l9 34c70 0 76 34 93 95l40 143l-88 -41l17 60l88 41l42 152c7 24 24 79 24 103c0 48 -44 38 -85 40l9 34c51 -1 102 -4 153 -4c52 0 105 3 156 4l-9 -34c-70 0 -76 -36 -93 -97l-36 -131l145 64l-9 -55l-152 -67l-42 -152c-6 -22 -18 -64 -18 -85
c0 -55 61 -60 103 -60c115 0 172 43 218 147h38l-53 -191c-136 1 -271 4 -407 4c-48 0 -95 -3 -143 -4z" />
    <glyph glyph-name="Oslash" unicode="&#xd8;" horiz-adv-x="700" 
d="M568 582l-292 -538c19 -10 33 -13 56 -13c168 0 258 330 258 463c0 32 -6 60 -22 88zM612 745h43l-53 -101c87 -43 134 -129 134 -225c0 -212 -177 -432 -399 -432c-30 0 -58 4 -87 11l-77 -136h-41l82 148c-91 38 -134 130 -134 225c0 214 178 434 400 434
c29 0 57 -4 84 -10zM248 76l291 536c-19 11 -34 13 -57 13c-93 0 -157 -110 -190 -183c-36 -79 -66 -184 -66 -270c0 -36 6 -65 22 -96z" />
    <glyph glyph-name="OE" unicode="&#x152;" horiz-adv-x="980" 
d="M518 183l67 244c9 33 22 85 22 118c0 56 -39 75 -89 75c-106 0 -172 -81 -215 -169c-37 -76 -64 -172 -64 -257c0 -93 51 -156 148 -156c94 0 110 70 131 145zM1027 660l16 -170h-38c-30 101 -75 126 -173 126c-28 0 -38 2 -51 -5c-11 -7 -10 -17 -17 -44l-54 -196h28
c67 0 105 8 139 96h37l-35 -137l-28 -120h-36c0 66 15 117 -81 117h-36l-45 -161c-6 -20 -13 -51 -13 -71c0 -49 54 -55 92 -55c112 0 180 35 225 141h40l-51 -183c-135 1 -269 4 -404 4c-57 0 -113 -4 -170 -4c-163 -1 -279 62 -279 239c0 261 190 424 442 423
c56 0 112 -4 168 -4c108 0 216 3 324 4z" />
    <glyph glyph-name="ordmasculine" unicode="&#xba;" horiz-adv-x="360" 
d="M262 399c-65 0 -113 37 -113 105c0 88 74 162 163 162c63 0 109 -41 109 -105c0 -83 -75 -162 -159 -162zM256 426c54 0 87 137 87 180c0 18 -8 33 -29 33c-34 0 -52 -42 -62 -68c-13 -32 -25 -76 -25 -110c0 -18 9 -35 29 -35z" />
    <glyph glyph-name="ae" unicode="&#xe6;" horiz-adv-x="740" 
d="M491 202c67 21 161 79 161 158c0 24 -16 41 -40 41c-71 0 -108 -143 -121 -199zM499 385l-1 1c-72 -1 -143 -27 -197 -77c-52 -48 -101 -134 -101 -207c0 -31 18 -59 53 -59c37 0 81 27 109 50c-3 15 -6 30 -6 44c0 107 61 188 143 248zM677 135l24 -18
c-47 -67 -109 -130 -197 -130c-52 0 -111 27 -131 78c-52 -40 -113 -78 -181 -78c-67 0 -112 58 -112 121c0 86 53 159 117 209c74 58 158 80 250 91l90 11c32 4 63 12 96 12c51 0 109 -25 109 -85c0 -107 -174 -153 -258 -173c-5 -17 -8 -34 -8 -52c0 -41 20 -79 66 -79
c54 0 106 51 135 93z" />
    <glyph glyph-name="dotlessi" unicode="&#x131;" horiz-adv-x="300" 
d="M308 143l19 -9c-31 -63 -89 -147 -167 -147c-45 0 -72 31 -72 76c0 36 15 79 27 113l22 65c8 22 31 84 31 105c0 14 -8 25 -22 25c-29 0 -68 -64 -82 -88l-19 11c35 60 88 137 165 137c41 0 73 -25 73 -69c0 -33 -14 -74 -25 -106l-40 -121c-5 -15 -15 -41 -15 -57
c0 -12 10 -25 23 -25c35 0 65 65 82 90z" />
    <glyph glyph-name="lslash" unicode="&#x142;" horiz-adv-x="260" 
d="M338 669l-72 -242l99 55l-15 -55l-98 -53l-53 -199c-6 -24 -18 -62 -18 -86c0 -12 1 -36 18 -36c29 0 61 77 70 102l23 -7c-24 -67 -72 -161 -154 -161c-47 0 -72 30 -72 77c0 31 11 72 19 103l38 141l-85 -50l15 57l85 49l37 137c6 21 19 70 19 90c0 35 -52 35 -76 35
l8 30z" />
    <glyph glyph-name="oslash" unicode="&#xf8;" horiz-adv-x="460" 
d="M441 559l-60 -140c66 -26 103 -92 103 -162c0 -136 -111 -270 -254 -270c-14 0 -27 2 -40 4l-60 -136h-35l63 146c-68 31 -106 86 -106 161c0 142 126 269 267 269c9 0 19 -1 28 -4l60 132h34zM180 45l156 349c-7 3 -11 3 -20 3c-60 0 -89 -61 -110 -109
c-21 -50 -43 -127 -43 -182c0 -18 3 -47 17 -61zM358 373l-156 -346c7 -5 12 -6 21 -6c97 0 150 214 150 291c0 21 -2 42 -15 61z" />
    <glyph glyph-name="oe" unicode="&#x153;" horiz-adv-x="700" 
d="M470 202c41 14 82 32 115 61c24 22 48 63 48 96c0 23 -14 42 -39 42c-75 0 -110 -142 -124 -199zM328 401c-59 0 -85 -76 -102 -122c-19 -54 -41 -128 -41 -185c0 -33 14 -73 53 -73c92 0 141 241 141 312c0 33 -12 68 -51 68zM74 156c0 135 97 275 242 275
c48 0 101 -16 130 -57c44 36 98 57 155 57c50 0 122 -21 122 -82c0 -110 -158 -149 -242 -172l-18 -5c-5 -19 -9 -39 -9 -60c0 -43 28 -70 71 -70c53 0 101 52 131 91l23 -18c-43 -64 -109 -128 -192 -128c-51 0 -92 21 -116 67c-36 -35 -83 -67 -135 -67
c-99 0 -162 72 -162 169z" />
    <glyph glyph-name="germandbls" unicode="&#xdf;" horiz-adv-x="560" 
d="M336 367c0 10 7 17 17 16l17 -1c84 -5 104 105 104 171c0 40 -15 82 -63 82c-62 0 -87 -55 -100 -106l-46 -178l-114 -449c-10 -41 -32 -85 -63 -116c-35 -35 -81 -56 -131 -56c-43 0 -92 20 -92 70c0 23 19 45 44 45c26 0 40 -21 46 -43c4 -18 8 -32 30 -32
c33 0 43 39 49 64c14 53 28 106 40 159l71 305c15 67 39 174 68 234c41 82 105 137 202 137c90 0 170 -45 170 -143c0 -93 -84 -146 -165 -162v-2c80 -15 143 -55 143 -146c0 -109 -98 -229 -212 -229c-43 0 -102 28 -102 78c0 31 22 59 55 59c24 0 40 -20 40 -44
c0 -21 -16 -33 -16 -47c0 -10 11 -12 20 -12c67 0 100 192 100 241c0 116 -112 64 -112 105z" />
    <glyph glyph-name="logicalnot" unicode="&#xac;" 
d="M447 71v187h-360v82h442v-269h-82z" />
    <glyph glyph-name="mu" unicode="&#xb5;" 
d="M531 423l-56 -181c-12 -40 -32 -120 -32 -159c0 -12 2 -31 18 -31c28 0 57 69 67 88l19 -7c-24 -63 -71 -146 -148 -146c-41 0 -65 35 -65 73c0 26 4 51 9 74l-2 2c-31 -68 -94 -149 -176 -149c-6 0 -13 1 -19 2l-16 -124c-7 -53 -11 -135 -83 -135c-35 0 -62 26 -54 55
l149 507c4 14 15 42 15 58c0 11 -5 21 -17 21c-30 0 -60 -61 -75 -83l-18 9c33 63 78 134 157 134c38 0 68 -25 68 -64c0 -33 -16 -83 -27 -116l-24 -72c-7 -21 -28 -79 -28 -101c0 -18 12 -26 29 -26c82 0 150 215 171 280l30 91h108z" />
    <glyph glyph-name="trademark" unicode="&#x2122;" horiz-adv-x="880" 
d="M331 643v-267c0 -24 29 -24 49 -24v-26h-164v26c16 0 49 0 49 24v267c-64 0 -93 2 -93 -57h-26v83h304v-83h-26c0 54 -21 57 -93 57zM882 615v-216c0 -36 15 -47 36 -47v-26h-137v26c33 0 35 17 35 46v221h-2l-114 -293h-14l-120 293h-2v-233c0 -34 18 -34 38 -34v-26
h-107v26c24 0 37 5 37 44v229c0 19 -13 18 -30 18v26h100l106 -253l100 253h110v-26c-20 0 -36 -6 -36 -28z" />
    <glyph glyph-name="Eth" unicode="&#xd0;" horiz-adv-x="700" 
d="M374 552l-48 -174h123l-14 -52h-123l-45 -161c-6 -20 -14 -49 -14 -70c0 -41 38 -53 73 -53c103 0 165 58 205 148c33 75 57 174 57 255c0 101 -53 171 -159 171c-38 0 -41 -15 -55 -64zM16 -2l9 34c67 0 75 28 93 95l54 199h-85l14 52h85l29 105c7 24 24 83 24 108
c0 26 -15 35 -69 35h-16l9 34c52 -1 103 -4 155 -4c32 0 64 4 96 4c168 0 320 -89 320 -275c0 -205 -153 -387 -401 -387c-63 0 -118 4 -174 4c-48 0 -96 -3 -143 -4z" />
    <glyph glyph-name="onehalf" unicode="&#xbd;" horiz-adv-x="750" 
d="M743 669l-481 -669h-87l480 669h88zM334 669l-89 -297c-4 -13 -15 -47 -15 -61c0 -27 27 -23 60 -24l-6 -20c-37 0 -74 2 -112 2c-33 0 -66 -2 -99 -2l7 20c18 1 46 0 58 18c9 11 15 31 19 45l60 205c3 11 8 27 8 37c0 26 -39 21 -63 22l6 20c51 4 102 13 148 35h18z
M483 0l2 8l195 182c27 25 51 59 51 97c0 37 -26 60 -66 60c-45 0 -70 -28 -70 -68c0 -7 1 -13 1 -20c0 -5 -3 -8 -8 -8c-18 0 -21 33 -21 45c0 66 53 105 122 105c68 0 116 -41 116 -105s-50 -102 -100 -137c-30 -22 -60 -44 -91 -65l-39 -34h82c53 0 80 -4 100 52h23
l-40 -112h-257z" />
    <glyph glyph-name="plusminus" unicode="&#xb1;" 
d="M87 323h180v119h82v-119h180v-82h-180v-119h-82v119h-180v82zM529 0h-442v82h442v-82z" />
    <glyph glyph-name="Thorn" unicode="&#xde;" horiz-adv-x="580" 
d="M339 423l-64 -226c14 -1 35 -2 52 -2c104 0 169 67 169 173c0 71 -44 93 -108 93c-39 0 -42 -13 -49 -38zM16 -2l9 34c67 0 75 28 93 95l98 356c7 24 24 79 24 103c0 38 -27 40 -58 40h-27l9 34c47 -1 96 -4 144 -4c57 0 110 3 162 4l-9 -34c-70 0 -76 -37 -93 -98
l-7 -25c7 2 15 2 24 2c105 0 257 -25 257 -160c0 -159 -166 -194 -293 -194c-28 0 -57 2 -85 3c-8 -25 -19 -65 -19 -84c0 -38 24 -38 85 -38l-9 -34c-54 1 -107 4 -161 4c-48 0 -96 -3 -144 -4z" />
    <glyph glyph-name="onequarter" unicode="&#xbc;" horiz-adv-x="750" 
d="M685 0h-75l42 139h-163l10 33l261 229h46l-69 -229h32c10 0 21 3 25 3c3 0 7 0 7 -4c0 -2 -1 -6 -3 -10l-10 -22h-60zM662 172l44 146l-2 2l-166 -148h124zM748 669l-481 -669h-87l480 669h88zM334 669l-89 -297c-4 -13 -15 -47 -15 -61c0 -27 27 -23 60 -24l-6 -20
c-37 0 -74 2 -112 2c-33 0 -66 -2 -99 -2l7 20c18 1 46 0 58 18c9 11 15 31 19 45l60 205c3 11 8 27 8 37c0 26 -39 21 -63 22l6 20c51 4 102 13 148 35h18z" />
    <glyph glyph-name="divide" unicode="&#xf7;" 
d="M87 262h442v-82h-442v82zM308 341c-28 0 -51 22 -51 51c0 28 22 50 51 50c28 0 50 -23 50 -51c0 -27 -22 -50 -50 -50zM308 0c-28 0 -51 22 -51 51c0 28 22 50 51 50c28 0 50 -23 50 -51c0 -27 -22 -50 -50 -50z" />
    <glyph glyph-name="brokenbar" unicode="&#xa6;" horiz-adv-x="260" 
d="M158 675h82v-350h-82v350zM158 175h82v-350h-82v350z" />
    <glyph glyph-name="degree" unicode="&#xb0;" horiz-adv-x="400" 
d="M435 544c0 -69 -57 -125 -125 -125c-69 0 -124 56 -125 125c0 68 56 125 125 125c68 0 125 -57 125 -125zM384 544c0 40 -34 74 -75 74c-40 0 -74 -34 -73 -74c0 -40 33 -74 74 -74c40 0 74 34 74 74z" />
    <glyph glyph-name="thorn" unicode="&#xfe;" 
d="M51 -129l167 622c8 30 21 79 21 99c0 34 -52 34 -76 34l8 30l194 13l-82 -302l2 -2c30 40 74 66 126 66c86 0 124 -64 124 -144c0 -127 -84 -300 -229 -300c-46 0 -80 24 -98 65h-2l-53 -201c-4 -15 -11 -35 -11 -51c0 -37 39 -37 67 -40l-8 -30c-41 1 -81 4 -122 4
s-81 -3 -122 -4l7 30c19 3 43 1 54 18c15 20 26 68 33 93zM279 42c90 0 141 200 141 272c0 33 -18 62 -55 62c-89 0 -136 -208 -136 -269c0 -31 14 -65 50 -65z" />
    <glyph glyph-name="threequarters" unicode="&#xbe;" horiz-adv-x="750" 
d="M685 0h-75l42 139h-163l10 33l261 229h46l-69 -229h32c10 0 21 3 25 3c3 0 7 0 7 -4c0 -2 -1 -6 -3 -10l-10 -22h-60zM743 669l-481 -669h-87l480 669h88zM662 172l44 146l-2 2l-166 -148h124zM156 587l21 71c29 8 58 11 88 11c49 0 111 -18 111 -73
c0 -48 -50 -77 -93 -92v-2c36 -8 62 -36 62 -72c0 -62 -48 -108 -104 -136c-64 -30 -119 -32 -189 -37l-13 -1l6 22c45 5 94 10 135 31c44 22 81 60 81 109c0 31 -18 54 -54 54c-24 0 -46 -11 -57 -11c-7 0 -15 6 -15 13c0 15 24 16 37 18c42 5 135 29 135 77
c0 29 -30 40 -57 40c-37 0 -61 -12 -94 -22z" />
    <glyph glyph-name="registered" unicode="&#xae;" horiz-adv-x="780" 
d="M442 -13c-193 0 -352 156 -352 341c0 186 157 341 353 341c199 0 359 -149 359 -341s-164 -341 -360 -341zM449 52c148 0 270 127 270 277c0 153 -123 275 -275 275c-148 0 -271 -126 -271 -275c0 -154 125 -277 276 -277zM311 201v261c0 22 -9 27 -36 27v29h178
c62 0 140 -3 140 -92c0 -54 -50 -94 -100 -98v-2c50 -9 65 -57 83 -93c13 -26 29 -60 55 -60v-28h-24c-23 0 -55 -3 -83 20c-40 32 -48 155 -118 143v-107c0 -17 11 -28 37 -28v-28h-168v28c27 0 36 5 36 28zM406 462v-117h9c48 0 83 2 83 76c0 55 -27 68 -66 68
c-17 0 -26 -1 -26 -27z" />
    <glyph glyph-name="minus" unicode="&#x2212;" 
d="M529 180h-442v82h442v-82z" />
    <glyph glyph-name="eth" unicode="&#xf0;" horiz-adv-x="460" 
d="M171 90c0 -31 12 -69 50 -69c92 0 143 242 143 313c0 32 -15 63 -51 63c-59 0 -87 -81 -103 -127c-17 -50 -39 -126 -39 -180zM166 537l122 51c-22 27 -49 52 -78 76l23 25c40 -22 79 -48 111 -77l124 52l33 -33l-123 -52c64 -71 97 -158 97 -260
c0 -79 -21 -168 -58 -224c-42 -63 -111 -108 -191 -108c-102 0 -166 72 -166 172c0 140 105 272 249 272c24 0 48 -8 59 -25l2 2c-4 48 -24 99 -54 145l-117 -49z" />
    <glyph glyph-name="multiply" unicode="&#xd7;" 
d="M250 221l-145 145l58 58l145 -145l145 145l58 -58l-145 -145l145 -145l-58 -58l-145 145l-145 -145l-58 58z" />
    <glyph glyph-name="copyright" unicode="&#xa9;" horiz-adv-x="780" 
d="M442 -13c-193 0 -352 156 -352 341c0 186 157 341 353 341c199 0 359 -149 359 -341s-164 -341 -360 -341zM449 52c148 0 270 127 270 277c0 153 -123 275 -275 275c-148 0 -271 -126 -271 -275c0 -154 125 -277 276 -277zM600 510v-108h-56c-1 62 -26 82 -85 82
c-78 0 -114 -61 -114 -145c0 -90 43 -164 121 -164c56 0 76 34 92 65l56 -21c-44 -81 -112 -98 -177 -98c-124 0 -205 90 -205 207c0 124 88 209 218 209c51 0 102 -11 150 -27z" />
    <glyph glyph-name="Aacute" unicode="&#xc1;" horiz-adv-x="600" 
d="M469 669l80 -495c4 -26 18 -102 31 -123c10 -16 38 -16 55 -19l-9 -34c-49 1 -97 4 -146 4c-46 0 -92 -3 -138 -4l9 34c32 2 80 -1 80 44c0 20 -4 44 -7 64l-11 68h-216c-17 -30 -60 -102 -60 -132c0 -40 47 -40 76 -44l-9 -34c-38 1 -76 4 -114 4c-40 0 -81 -3 -121 -4
l9 34c67 6 93 56 124 109l177 305c44 76 96 147 144 223h46zM407 252l-36 250h-2l-146 -250h184zM410 732l120 121c16 16 42 45 67 45c20 0 38 -17 38 -38c0 -24 -30 -39 -48 -49l-140 -79h-37z" />
    <glyph glyph-name="Acircumflex" unicode="&#xc2;" horiz-adv-x="600" 
d="M469 669l80 -495c4 -26 18 -102 31 -123c10 -16 38 -16 55 -19l-9 -34c-49 1 -97 4 -146 4c-46 0 -92 -3 -138 -4l9 34c32 2 80 -1 80 44c0 20 -4 44 -7 64l-11 68h-216c-17 -30 -60 -102 -60 -132c0 -40 47 -40 76 -44l-9 -34c-38 1 -76 4 -114 4c-40 0 -81 -3 -121 -4
l9 34c67 6 93 56 124 109l177 305c44 76 96 147 144 223h46zM407 252l-36 250h-2l-146 -250h184zM501 888l78 -165h-29l-83 97l-113 -97h-47l142 165h52z" />
    <glyph glyph-name="Adieresis" unicode="&#xc4;" horiz-adv-x="600" 
d="M469 669l80 -495c4 -26 18 -102 31 -123c10 -16 38 -16 55 -19l-9 -34c-49 1 -97 4 -146 4c-46 0 -92 -3 -138 -4l9 34c32 2 80 -1 80 44c0 20 -4 44 -7 64l-11 68h-216c-17 -30 -60 -102 -60 -132c0 -40 47 -40 76 -44l-9 -34c-38 1 -76 4 -114 4c-40 0 -81 -3 -121 -4
l9 34c67 6 93 56 124 109l177 305c44 76 96 147 144 223h46zM407 252l-36 250h-2l-146 -250h184zM382 754c-28 0 -51 22 -51 51c0 28 22 50 51 50c28 0 50 -23 50 -51c0 -27 -22 -50 -50 -50zM546 754c-28 0 -51 22 -51 51c0 28 22 50 51 50c28 0 50 -23 50 -51
c0 -27 -22 -50 -50 -50z" />
    <glyph glyph-name="Agrave" unicode="&#xc0;" horiz-adv-x="600" 
d="M469 669l80 -495c4 -26 18 -102 31 -123c10 -16 38 -16 55 -19l-9 -34c-49 1 -97 4 -146 4c-46 0 -92 -3 -138 -4l9 34c32 2 80 -1 80 44c0 20 -4 44 -7 64l-11 68h-216c-17 -30 -60 -102 -60 -132c0 -40 47 -40 76 -44l-9 -34c-38 1 -76 4 -114 4c-40 0 -81 -3 -121 -4
l9 34c67 6 93 56 124 109l177 305c44 76 96 147 144 223h46zM407 252l-36 250h-2l-146 -250h184zM545 735l-137 76c-20 11 -51 22 -51 49c0 20 15 38 36 38c19 0 31 -13 45 -26l21 -20l116 -117h-30z" />
    <glyph glyph-name="Aring" unicode="&#xc5;" horiz-adv-x="600" 
d="M469 669l80 -495c4 -26 18 -102 31 -123c10 -16 38 -16 55 -19l-9 -34c-49 1 -97 4 -146 4c-46 0 -92 -3 -138 -4l9 34c32 2 80 -1 80 44c0 20 -4 44 -7 64l-11 68h-216c-17 -30 -60 -102 -60 -132c0 -40 47 -40 76 -44l-9 -34c-38 1 -76 4 -114 4c-40 0 -81 -3 -121 -4
l9 34c67 6 93 56 124 109l177 305c44 76 96 147 144 223h46zM407 252l-36 250h-2l-146 -250h184zM465 703c-55 0 -104 41 -104 98s49 98 105 98c55 0 101 -43 101 -99c0 -55 -48 -97 -102 -97zM466 741c32 0 58 28 58 59c0 32 -26 60 -59 60c-32 0 -60 -25 -60 -58
c0 -35 27 -61 61 -61z" />
    <glyph glyph-name="Atilde" unicode="&#xc3;" horiz-adv-x="600" 
d="M469 669l80 -495c4 -26 18 -102 31 -123c10 -16 38 -16 55 -19l-9 -34c-49 1 -97 4 -146 4c-46 0 -92 -3 -138 -4l9 34c32 2 80 -1 80 44c0 20 -4 44 -7 64l-11 68h-216c-17 -30 -60 -102 -60 -132c0 -40 47 -40 76 -44l-9 -34c-38 1 -76 4 -114 4c-40 0 -81 -3 -121 -4
l9 34c67 6 93 56 124 109l177 305c44 76 96 147 144 223h46zM407 252l-36 250h-2l-146 -250h184zM581 857l24 -1c-11 -55 -33 -94 -94 -94c-22 0 -38 7 -59 14c-18 6 -51 18 -70 18c-27 0 -29 -15 -37 -36l-24 2c2 47 33 91 84 91c25 0 53 -11 77 -19c18 -6 33 -11 52 -11
c25 0 38 14 47 36z" />
    <glyph glyph-name="Ccedilla" unicode="&#xc7;" horiz-adv-x="620" 
d="M267 -73l20 65c-127 18 -207 115 -207 250c0 210 165 427 385 427c61 0 118 -17 161 -60l29 51h37l-39 -203h-40c-1 88 -30 168 -132 168c-171 0 -255 -285 -255 -423c0 -88 38 -171 138 -171c107 0 182 87 220 179h40l-60 -216h-40l-1 58c-47 -42 -130 -65 -191 -65
c-5 0 -10 0 -14 1l-11 -36c33 0 71 -21 71 -58c0 -46 -45 -68 -85 -68c-27 0 -87 12 -87 48c0 13 9 23 22 23c35 0 16 -43 52 -43c25 0 49 15 49 42c0 25 -22 31 -42 31h-20z" />
    <glyph glyph-name="Eacute" unicode="&#xc9;" horiz-adv-x="600" 
d="M16 -2l9 34c70 0 76 35 93 96l98 355c7 24 24 79 24 103c0 48 -44 38 -85 40l9 34c48 -1 97 -4 145 -4c118 0 235 3 353 4l11 -169h-39c-26 111 -75 125 -178 125c-61 0 -61 3 -78 -57l-51 -185h40c58 0 100 5 136 96h36l-66 -260h-36c1 58 19 120 -83 120h-39l-43 -155
c-4 -16 -16 -55 -16 -71c0 -57 57 -62 102 -62c118 0 176 28 230 139h35l-50 -183c-137 1 -275 4 -412 4c-48 0 -97 -3 -145 -4zM410 732l120 121c16 16 42 45 67 45c20 0 38 -17 38 -38c0 -24 -30 -39 -48 -49l-140 -79h-37z" />
    <glyph glyph-name="Ecircumflex" unicode="&#xca;" horiz-adv-x="600" 
d="M16 -2l9 34c70 0 76 35 93 96l98 355c7 24 24 79 24 103c0 48 -44 38 -85 40l9 34c48 -1 97 -4 145 -4c118 0 235 3 353 4l11 -169h-39c-26 111 -75 125 -178 125c-61 0 -61 3 -78 -57l-51 -185h40c58 0 100 5 136 96h36l-66 -260h-36c1 58 19 120 -83 120h-39l-43 -155
c-4 -16 -16 -55 -16 -71c0 -57 57 -62 102 -62c118 0 176 28 230 139h35l-50 -183c-137 1 -275 4 -412 4c-48 0 -97 -3 -145 -4zM501 888l78 -165h-29l-83 97l-113 -97h-47l142 165h52z" />
    <glyph glyph-name="Edieresis" unicode="&#xcb;" horiz-adv-x="600" 
d="M16 -2l9 34c70 0 76 35 93 96l98 355c7 24 24 79 24 103c0 48 -44 38 -85 40l9 34c48 -1 97 -4 145 -4c118 0 235 3 353 4l11 -169h-39c-26 111 -75 125 -178 125c-61 0 -61 3 -78 -57l-51 -185h40c58 0 100 5 136 96h36l-66 -260h-36c1 58 19 120 -83 120h-39l-43 -155
c-4 -16 -16 -55 -16 -71c0 -57 57 -62 102 -62c118 0 176 28 230 139h35l-50 -183c-137 1 -275 4 -412 4c-48 0 -97 -3 -145 -4zM382 754c-28 0 -51 22 -51 51c0 28 22 50 51 50c28 0 50 -23 50 -51c0 -27 -22 -50 -50 -50zM546 754c-28 0 -51 22 -51 51c0 28 22 50 51 50
c28 0 50 -23 50 -51c0 -27 -22 -50 -50 -50z" />
    <glyph glyph-name="Egrave" unicode="&#xc8;" horiz-adv-x="600" 
d="M16 -2l9 34c70 0 76 35 93 96l98 355c7 24 24 79 24 103c0 48 -44 38 -85 40l9 34c48 -1 97 -4 145 -4c118 0 235 3 353 4l11 -169h-39c-26 111 -75 125 -178 125c-61 0 -61 3 -78 -57l-51 -185h40c58 0 100 5 136 96h36l-66 -260h-36c1 58 19 120 -83 120h-39l-43 -155
c-4 -16 -16 -55 -16 -71c0 -57 57 -62 102 -62c118 0 176 28 230 139h35l-50 -183c-137 1 -275 4 -412 4c-48 0 -97 -3 -145 -4zM545 735l-137 76c-20 11 -51 22 -51 49c0 20 15 38 36 38c19 0 31 -13 45 -26l21 -20l116 -117h-30z" />
    <glyph glyph-name="Iacute" unicode="&#xcd;" horiz-adv-x="340" 
d="M108 129l99 354c7 24 24 79 24 103c0 48 -44 38 -85 40l9 34c50 -1 100 -4 150 -4c52 0 105 3 157 4l-9 -34c-70 0 -76 -36 -93 -97l-99 -356c-7 -26 -21 -77 -21 -103c0 -45 46 -38 86 -38l-9 -34c-52 1 -104 4 -156 4s-103 -3 -155 -4l9 34c70 0 76 36 93 97zM245 732
l120 121c16 16 42 45 67 45c20 0 38 -17 38 -38c0 -24 -30 -39 -48 -49l-140 -79h-37z" />
    <glyph glyph-name="Icircumflex" unicode="&#xce;" horiz-adv-x="340" 
d="M108 129l99 354c7 24 24 79 24 103c0 48 -44 38 -85 40l9 34c50 -1 100 -4 150 -4c52 0 105 3 157 4l-9 -34c-70 0 -76 -36 -93 -97l-99 -356c-7 -26 -21 -77 -21 -103c0 -45 46 -38 86 -38l-9 -34c-52 1 -104 4 -156 4s-103 -3 -155 -4l9 34c70 0 76 36 93 97zM371 888
l78 -165h-29l-83 97l-113 -97h-47l142 165h52z" />
    <glyph glyph-name="Idieresis" unicode="&#xcf;" horiz-adv-x="340" 
d="M108 129l99 354c7 24 24 79 24 103c0 48 -44 38 -85 40l9 34c50 -1 100 -4 150 -4c52 0 105 3 157 4l-9 -34c-70 0 -76 -36 -93 -97l-99 -356c-7 -26 -21 -77 -21 -103c0 -45 46 -38 86 -38l-9 -34c-52 1 -104 4 -156 4s-103 -3 -155 -4l9 34c70 0 76 36 93 97zM252 754
c-28 0 -51 22 -51 51c0 28 22 50 51 50c28 0 50 -23 50 -51c0 -27 -22 -50 -50 -50zM416 754c-28 0 -51 22 -51 51c0 28 22 50 51 50c28 0 50 -23 50 -51c0 -27 -22 -50 -50 -50z" />
    <glyph glyph-name="Igrave" unicode="&#xcc;" horiz-adv-x="340" 
d="M108 129l99 354c7 24 24 79 24 103c0 48 -44 38 -85 40l9 34c50 -1 100 -4 150 -4c52 0 105 3 157 4l-9 -34c-70 0 -76 -36 -93 -97l-99 -356c-7 -26 -21 -77 -21 -103c0 -45 46 -38 86 -38l-9 -34c-52 1 -104 4 -156 4s-103 -3 -155 -4l9 34c70 0 76 36 93 97zM415 735
l-137 76c-20 11 -51 22 -51 49c0 20 15 38 36 38c19 0 31 -13 45 -26l21 -20l116 -117h-30z" />
    <glyph glyph-name="Ntilde" unicode="&#xd1;" horiz-adv-x="700" 
d="M138 205l100 379c-18 40 -52 40 -90 42l10 34c33 -1 67 -4 100 -4c32 0 63 3 95 4l232 -478l79 312c6 24 10 47 10 70c0 51 -44 60 -84 62l9 34c36 -1 72 -4 108 -4c38 0 75 3 113 4v-34c-80 -6 -94 -90 -110 -153l-125 -491h-46l-268 536l-81 -313
c-7 -29 -21 -87 -21 -117c0 -51 42 -49 81 -56l-9 -34c-37 1 -73 4 -110 4c-40 0 -81 -3 -120 -4v34c97 10 101 74 127 173zM631 857l24 -1c-11 -55 -33 -94 -94 -94c-22 0 -38 7 -59 14c-18 6 -51 18 -70 18c-27 0 -29 -15 -37 -36l-24 2c2 47 33 91 84 91
c25 0 53 -11 77 -19c18 -6 33 -11 52 -11c25 0 38 14 47 36z" />
    <glyph glyph-name="Oacute" unicode="&#xd3;" horiz-adv-x="700" 
d="M338 -13c-151 0 -258 95 -258 249c0 211 178 433 398 433c155 0 259 -101 259 -255c0 -210 -181 -427 -399 -427zM484 625c-165 0 -258 -339 -258 -459c0 -68 29 -135 107 -135c172 0 258 339 258 463c0 71 -28 131 -107 131zM460 732l120 121c16 16 42 45 67 45
c20 0 38 -17 38 -38c0 -24 -30 -39 -48 -49l-140 -79h-37z" />
    <glyph glyph-name="Ocircumflex" unicode="&#xd4;" horiz-adv-x="700" 
d="M338 -13c-151 0 -258 95 -258 249c0 211 178 433 398 433c155 0 259 -101 259 -255c0 -210 -181 -427 -399 -427zM484 625c-165 0 -258 -339 -258 -459c0 -68 29 -135 107 -135c172 0 258 339 258 463c0 71 -28 131 -107 131zM591 888l78 -165h-29l-83 97l-113 -97h-47
l142 165h52z" />
    <glyph glyph-name="Odieresis" unicode="&#xd6;" horiz-adv-x="700" 
d="M338 -13c-151 0 -258 95 -258 249c0 211 178 433 398 433c155 0 259 -101 259 -255c0 -210 -181 -427 -399 -427zM484 625c-165 0 -258 -339 -258 -459c0 -68 29 -135 107 -135c172 0 258 339 258 463c0 71 -28 131 -107 131zM472 754c-28 0 -51 22 -51 51
c0 28 22 50 51 50c28 0 50 -23 50 -51c0 -27 -22 -50 -50 -50zM636 754c-28 0 -51 22 -51 51c0 28 22 50 51 50c28 0 50 -23 50 -51c0 -27 -22 -50 -50 -50z" />
    <glyph glyph-name="Ograve" unicode="&#xd2;" horiz-adv-x="700" 
d="M338 -13c-151 0 -258 95 -258 249c0 211 178 433 398 433c155 0 259 -101 259 -255c0 -210 -181 -427 -399 -427zM484 625c-165 0 -258 -339 -258 -459c0 -68 29 -135 107 -135c172 0 258 339 258 463c0 71 -28 131 -107 131zM595 735l-137 76c-20 11 -51 22 -51 49
c0 20 15 38 36 38c19 0 31 -13 45 -26l21 -20l116 -117h-30z" />
    <glyph glyph-name="Otilde" unicode="&#xd5;" horiz-adv-x="700" 
d="M338 -13c-151 0 -258 95 -258 249c0 211 178 433 398 433c155 0 259 -101 259 -255c0 -210 -181 -427 -399 -427zM484 625c-165 0 -258 -339 -258 -459c0 -68 29 -135 107 -135c172 0 258 339 258 463c0 71 -28 131 -107 131zM631 857l24 -1c-11 -55 -33 -94 -94 -94
c-22 0 -38 7 -59 14c-18 6 -51 18 -70 18c-27 0 -29 -15 -37 -36l-24 2c2 47 33 91 84 91c25 0 53 -11 77 -19c18 -6 33 -11 52 -11c25 0 38 14 47 36z" />
    <glyph glyph-name="Scaron" unicode="&#x160;" horiz-adv-x="480" 
d="M496 611l25 49h39c-8 -36 -17 -72 -25 -108c-6 -29 -13 -57 -19 -86l-37 7c5 72 -31 152 -113 152c-46 0 -97 -30 -97 -81c0 -58 41 -99 80 -136l36 -35c57 -55 105 -107 105 -192c0 -122 -92 -194 -210 -194c-65 0 -132 24 -177 72l-26 -52h-42l40 206l37 -5
c-2 -94 48 -177 146 -177c55 0 107 39 107 96c0 63 -37 99 -78 142l-40 41c-51 53 -93 99 -93 177c0 112 83 182 192 182c58 0 107 -20 150 -58zM373 723l-78 165h29l83 -97l113 97h46l-142 -165h-51z" />
    <glyph glyph-name="Uacute" unicode="&#xda;" horiz-adv-x="700" 
d="M354 529l-60 -216c-12 -45 -31 -106 -31 -152c0 -75 68 -114 136 -114c143 0 193 141 234 300l35 137c6 25 13 53 13 78c0 51 -40 59 -81 64l9 34c39 -1 77 -4 116 -4c35 0 71 3 106 4v-34c-66 -7 -83 -46 -99 -103l-56 -199c-53 -190 -93 -337 -325 -337
c-112 0 -228 68 -228 190c0 40 21 106 32 145l45 161c7 24 23 78 23 103c0 43 -43 40 -75 40l10 34c49 -1 97 -4 146 -4c51 0 102 3 153 4l-10 -34c-69 0 -76 -37 -93 -97zM460 732l120 121c16 16 42 45 67 45c20 0 38 -17 38 -38c0 -24 -30 -39 -48 -49l-140 -79h-37z" />
    <glyph glyph-name="Ucircumflex" unicode="&#xdb;" horiz-adv-x="700" 
d="M354 529l-60 -216c-12 -45 -31 -106 -31 -152c0 -75 68 -114 136 -114c143 0 193 141 234 300l35 137c6 25 13 53 13 78c0 51 -40 59 -81 64l9 34c39 -1 77 -4 116 -4c35 0 71 3 106 4v-34c-66 -7 -83 -46 -99 -103l-56 -199c-53 -190 -93 -337 -325 -337
c-112 0 -228 68 -228 190c0 40 21 106 32 145l45 161c7 24 23 78 23 103c0 43 -43 40 -75 40l10 34c49 -1 97 -4 146 -4c51 0 102 3 153 4l-10 -34c-69 0 -76 -37 -93 -97zM551 888l78 -165h-29l-83 97l-113 -97h-47l142 165h52z" />
    <glyph glyph-name="Udieresis" unicode="&#xdc;" horiz-adv-x="700" 
d="M354 529l-60 -216c-12 -45 -31 -106 -31 -152c0 -75 68 -114 136 -114c143 0 193 141 234 300l35 137c6 25 13 53 13 78c0 51 -40 59 -81 64l9 34c39 -1 77 -4 116 -4c35 0 71 3 106 4v-34c-66 -7 -83 -46 -99 -103l-56 -199c-53 -190 -93 -337 -325 -337
c-112 0 -228 68 -228 190c0 40 21 106 32 145l45 161c7 24 23 78 23 103c0 43 -43 40 -75 40l10 34c49 -1 97 -4 146 -4c51 0 102 3 153 4l-10 -34c-69 0 -76 -37 -93 -97zM472 754c-28 0 -51 22 -51 51c0 28 22 50 51 50c28 0 50 -23 50 -51c0 -27 -22 -50 -50 -50z
M636 754c-28 0 -51 22 -51 51c0 28 22 50 51 50c28 0 50 -23 50 -51c0 -27 -22 -50 -50 -50z" />
    <glyph glyph-name="Ugrave" unicode="&#xd9;" horiz-adv-x="700" 
d="M354 529l-60 -216c-12 -45 -31 -106 -31 -152c0 -75 68 -114 136 -114c143 0 193 141 234 300l35 137c6 25 13 53 13 78c0 51 -40 59 -81 64l9 34c39 -1 77 -4 116 -4c35 0 71 3 106 4v-34c-66 -7 -83 -46 -99 -103l-56 -199c-53 -190 -93 -337 -325 -337
c-112 0 -228 68 -228 190c0 40 21 106 32 145l45 161c7 24 23 78 23 103c0 43 -43 40 -75 40l10 34c49 -1 97 -4 146 -4c51 0 102 3 153 4l-10 -34c-69 0 -76 -37 -93 -97zM595 735l-137 76c-20 11 -51 22 -51 49c0 20 15 38 36 38c19 0 31 -13 45 -26l21 -20l116 -117h-30z
" />
    <glyph glyph-name="Yacute" unicode="&#xdd;" horiz-adv-x="560" 
d="M268 293l-72 239c-20 65 -23 88 -96 94l10 34c48 -1 95 -4 143 -4c53 0 107 3 160 4l-9 -34c-31 -6 -77 -1 -77 -46c0 -20 11 -57 17 -77l46 -162l15 19c30 37 151 186 151 225c0 37 -46 37 -71 41l10 34c40 -1 81 -4 121 -4c37 0 73 3 110 4v-34
c-68 -9 -93 -47 -133 -98l-187 -240l-32 -115c-7 -24 -24 -79 -24 -103c0 -46 44 -36 85 -38l-9 -34c-52 1 -105 4 -157 4s-104 -3 -156 -4l9 34c77 0 83 34 100 95zM330 732l120 121c16 16 42 45 67 45c20 0 38 -17 38 -38c0 -24 -30 -39 -48 -49l-140 -79h-37z" />
    <glyph glyph-name="Ydieresis" unicode="&#x178;" horiz-adv-x="560" 
d="M268 293l-72 239c-20 65 -23 88 -96 94l10 34c48 -1 95 -4 143 -4c53 0 107 3 160 4l-9 -34c-31 -6 -77 -1 -77 -46c0 -20 11 -57 17 -77l46 -162l15 19c30 37 151 186 151 225c0 37 -46 37 -71 41l10 34c40 -1 81 -4 121 -4c37 0 73 3 110 4v-34
c-68 -9 -93 -47 -133 -98l-187 -240l-32 -115c-7 -24 -24 -79 -24 -103c0 -46 44 -36 85 -38l-9 -34c-52 1 -105 4 -157 4s-104 -3 -156 -4l9 34c77 0 83 34 100 95zM362 754c-28 0 -51 22 -51 51c0 28 22 50 51 50c28 0 50 -23 50 -51c0 -27 -22 -50 -50 -50zM526 754
c-28 0 -51 22 -51 51c0 28 22 50 51 50c28 0 50 -23 50 -51c0 -27 -22 -50 -50 -50z" />
    <glyph glyph-name="Zcaron" unicode="&#x17d;" horiz-adv-x="560" 
d="M40 0l7 26l402 590h-27c-133 0 -190 -5 -275 -120h-39l61 164h460l-7 -25l-405 -591h61c126 0 217 23 283 140h40l-66 -184h-495zM413 723l-78 165h29l83 -97l113 97h46l-142 -165h-51z" />
    <glyph glyph-name="aacute" unicode="&#xe1;" 
d="M327 376c-88 0 -147 -193 -147 -264c0 -29 14 -65 48 -65c91 0 152 200 152 272c0 32 -18 57 -53 57zM404 366l22 64h104l-75 -268c-5 -17 -16 -58 -16 -74c0 -12 5 -35 19 -35c31 0 60 67 74 90l21 -9c-27 -63 -80 -147 -156 -147c-38 0 -67 30 -64 67l3 36l-2 2
c-30 -56 -82 -105 -150 -105c-84 0 -124 67 -124 145c0 129 101 299 245 299c47 0 81 -23 99 -65zM310 503l120 121c16 16 42 45 67 45c20 0 38 -17 38 -38c0 -24 -30 -39 -48 -49l-140 -79h-37z" />
    <glyph glyph-name="acircumflex" unicode="&#xe2;" 
d="M327 376c-88 0 -147 -193 -147 -264c0 -29 14 -65 48 -65c91 0 152 200 152 272c0 32 -18 57 -53 57zM404 366l22 64h104l-75 -268c-5 -17 -16 -58 -16 -74c0 -12 5 -35 19 -35c31 0 60 67 74 90l21 -9c-27 -63 -80 -147 -156 -147c-38 0 -67 30 -64 67l3 36l-2 2
c-30 -56 -82 -105 -150 -105c-84 0 -124 67 -124 145c0 129 101 299 245 299c47 0 81 -23 99 -65zM461 659l78 -165h-29l-83 97l-113 -97h-47l142 165h52z" />
    <glyph glyph-name="adieresis" unicode="&#xe4;" 
d="M327 376c-88 0 -147 -193 -147 -264c0 -29 14 -65 48 -65c91 0 152 200 152 272c0 32 -18 57 -53 57zM404 366l22 64h104l-75 -268c-5 -17 -16 -58 -16 -74c0 -12 5 -35 19 -35c31 0 60 67 74 90l21 -9c-27 -63 -80 -147 -156 -147c-38 0 -67 30 -64 67l3 36l-2 2
c-30 -56 -82 -105 -150 -105c-84 0 -124 67 -124 145c0 129 101 299 245 299c47 0 81 -23 99 -65zM317 525c-28 0 -51 22 -51 51c0 28 22 50 51 50c28 0 50 -23 50 -51c0 -27 -22 -50 -50 -50zM481 525c-28 0 -51 22 -51 51c0 28 22 50 51 50c28 0 50 -23 50 -51
c0 -27 -22 -50 -50 -50z" />
    <glyph glyph-name="agrave" unicode="&#xe0;" 
d="M327 376c-88 0 -147 -193 -147 -264c0 -29 14 -65 48 -65c91 0 152 200 152 272c0 32 -18 57 -53 57zM404 366l22 64h104l-75 -268c-5 -17 -16 -58 -16 -74c0 -12 5 -35 19 -35c31 0 60 67 74 90l21 -9c-27 -63 -80 -147 -156 -147c-38 0 -67 30 -64 67l3 36l-2 2
c-30 -56 -82 -105 -150 -105c-84 0 -124 67 -124 145c0 129 101 299 245 299c47 0 81 -23 99 -65zM415 506l-137 76c-20 11 -51 22 -51 49c0 20 15 38 36 38c19 0 31 -13 45 -26l21 -20l116 -117h-30z" />
    <glyph glyph-name="aring" unicode="&#xe5;" 
d="M327 376c-88 0 -147 -193 -147 -264c0 -29 14 -65 48 -65c91 0 152 200 152 272c0 32 -18 57 -53 57zM404 366l22 64h104l-75 -268c-5 -17 -16 -58 -16 -74c0 -12 5 -35 19 -35c31 0 60 67 74 90l21 -9c-27 -63 -80 -147 -156 -147c-38 0 -67 30 -64 67l3 36l-2 2
c-30 -56 -82 -105 -150 -105c-84 0 -124 67 -124 145c0 129 101 299 245 299c47 0 81 -23 99 -65zM389 510c-55 0 -104 41 -104 98s49 98 105 98c55 0 101 -43 101 -99c0 -55 -48 -97 -102 -97zM390 548c32 0 58 28 58 59c0 32 -26 60 -59 60c-32 0 -60 -25 -60 -58
c0 -35 27 -61 61 -61z" />
    <glyph glyph-name="atilde" unicode="&#xe3;" 
d="M327 376c-88 0 -147 -193 -147 -264c0 -29 14 -65 48 -65c91 0 152 200 152 272c0 32 -18 57 -53 57zM404 366l22 64h104l-75 -268c-5 -17 -16 -58 -16 -74c0 -12 5 -35 19 -35c31 0 60 67 74 90l21 -9c-27 -63 -80 -147 -156 -147c-38 0 -67 30 -64 67l3 36l-2 2
c-30 -56 -82 -105 -150 -105c-84 0 -124 67 -124 145c0 129 101 299 245 299c47 0 81 -23 99 -65zM501 628l24 -1c-11 -55 -33 -94 -94 -94c-22 0 -38 7 -59 14c-18 6 -51 18 -70 18c-27 0 -29 -15 -37 -36l-24 2c2 47 33 91 84 91c25 0 53 -11 77 -19c18 -6 33 -11 52 -11
c25 0 38 14 47 36z" />
    <glyph glyph-name="ccedilla" unicode="&#xe7;" horiz-adv-x="380" 
d="M171 -73l19 61c-84 8 -130 72 -130 157c0 143 107 286 257 286c52 0 120 -26 120 -88c0 -31 -23 -60 -55 -60c-31 0 -56 21 -56 52c0 29 18 35 18 49c0 13 -16 17 -27 17c-90 0 -137 -207 -137 -277c0 -41 21 -82 68 -82c58 0 102 48 131 94l23 -17
c-37 -67 -101 -125 -180 -132l-11 -35c33 0 71 -21 71 -58c0 -46 -45 -68 -85 -68c-27 0 -87 12 -87 48c0 13 9 23 22 23c35 0 16 -43 52 -43c25 0 49 15 49 42c0 25 -22 31 -42 31h-20z" />
    <glyph glyph-name="eacute" unicode="&#xe9;" horiz-adv-x="400" 
d="M375 136l25 -19c-46 -68 -110 -130 -196 -130c-91 0 -144 57 -144 149c0 149 110 295 265 295c52 0 122 -21 122 -84c0 -113 -177 -151 -264 -173c-3 -19 -6 -38 -6 -57c0 -39 21 -75 64 -75c56 0 101 54 134 94zM192 206c67 20 160 75 160 154c0 23 -13 41 -37 41
c-72 0 -109 -140 -123 -195zM250 503l120 121c16 16 42 45 67 45c20 0 38 -17 38 -38c0 -24 -30 -39 -48 -49l-140 -79h-37z" />
    <glyph glyph-name="ecircumflex" unicode="&#xea;" horiz-adv-x="400" 
d="M375 136l25 -19c-46 -68 -110 -130 -196 -130c-91 0 -144 57 -144 149c0 149 110 295 265 295c52 0 122 -21 122 -84c0 -113 -177 -151 -264 -173c-3 -19 -6 -38 -6 -57c0 -39 21 -75 64 -75c56 0 101 54 134 94zM192 206c67 20 160 75 160 154c0 23 -13 41 -37 41
c-72 0 -109 -140 -123 -195zM361 659l78 -165h-29l-83 97l-113 -97h-47l142 165h52z" />
    <glyph glyph-name="edieresis" unicode="&#xeb;" horiz-adv-x="400" 
d="M375 136l25 -19c-46 -68 -110 -130 -196 -130c-91 0 -144 57 -144 149c0 149 110 295 265 295c52 0 122 -21 122 -84c0 -113 -177 -151 -264 -173c-3 -19 -6 -38 -6 -57c0 -39 21 -75 64 -75c56 0 101 54 134 94zM192 206c67 20 160 75 160 154c0 23 -13 41 -37 41
c-72 0 -109 -140 -123 -195zM270 525c-28 0 -51 22 -51 51c0 28 22 50 51 50c28 0 50 -23 50 -51c0 -27 -22 -50 -50 -50zM434 525c-28 0 -51 22 -51 51c0 28 22 50 51 50c28 0 50 -23 50 -51c0 -27 -22 -50 -50 -50z" />
    <glyph glyph-name="egrave" unicode="&#xe8;" horiz-adv-x="400" 
d="M375 136l25 -19c-46 -68 -110 -130 -196 -130c-91 0 -144 57 -144 149c0 149 110 295 265 295c52 0 122 -21 122 -84c0 -113 -177 -151 -264 -173c-3 -19 -6 -38 -6 -57c0 -39 21 -75 64 -75c56 0 101 54 134 94zM192 206c67 20 160 75 160 154c0 23 -13 41 -37 41
c-72 0 -109 -140 -123 -195zM355 506l-137 76c-20 11 -51 22 -51 49c0 20 15 38 36 38c19 0 31 -13 45 -26l21 -20l116 -117h-30z" />
    <glyph glyph-name="iacute" unicode="&#xed;" horiz-adv-x="300" 
d="M308 143l19 -9c-31 -63 -89 -147 -167 -147c-45 0 -72 31 -72 76c0 36 15 79 27 113l22 65c8 22 31 84 31 105c0 14 -8 25 -22 25c-29 0 -68 -64 -82 -88l-19 11c35 60 88 137 165 137c41 0 73 -25 73 -69c0 -33 -14 -74 -25 -106l-40 -121c-5 -15 -15 -41 -15 -57
c0 -12 10 -25 23 -25c35 0 65 65 82 90zM200 503l120 121c16 16 42 45 67 45c20 0 38 -17 38 -38c0 -24 -30 -39 -48 -49l-140 -79h-37z" />
    <glyph glyph-name="icircumflex" unicode="&#xee;" horiz-adv-x="300" 
d="M308 143l19 -9c-31 -63 -89 -147 -167 -147c-45 0 -72 31 -72 76c0 36 15 79 27 113l22 65c8 22 31 84 31 105c0 14 -8 25 -22 25c-29 0 -68 -64 -82 -88l-19 11c35 60 88 137 165 137c41 0 73 -25 73 -69c0 -33 -14 -74 -25 -106l-40 -121c-5 -15 -15 -41 -15 -57
c0 -12 10 -25 23 -25c35 0 65 65 82 90zM311 659l78 -165h-29l-83 97l-113 -97h-47l142 165h52z" />
    <glyph glyph-name="idieresis" unicode="&#xef;" horiz-adv-x="300" 
d="M308 143l19 -9c-31 -63 -89 -147 -167 -147c-45 0 -72 31 -72 76c0 36 15 79 27 113l22 65c8 22 31 84 31 105c0 14 -8 25 -22 25c-29 0 -68 -64 -82 -88l-19 11c35 60 88 137 165 137c41 0 73 -25 73 -69c0 -33 -14 -74 -25 -106l-40 -121c-5 -15 -15 -41 -15 -57
c0 -12 10 -25 23 -25c35 0 65 65 82 90zM182 525c-28 0 -51 22 -51 51c0 28 22 50 51 50c28 0 50 -23 50 -51c0 -27 -22 -50 -50 -50zM346 525c-28 0 -51 22 -51 51c0 28 22 50 51 50c28 0 50 -23 50 -51c0 -27 -22 -50 -50 -50z" />
    <glyph glyph-name="igrave" unicode="&#xec;" horiz-adv-x="300" 
d="M308 143l19 -9c-31 -63 -89 -147 -167 -147c-45 0 -72 31 -72 76c0 36 15 79 27 113l22 65c8 22 31 84 31 105c0 14 -8 25 -22 25c-29 0 -68 -64 -82 -88l-19 11c35 60 88 137 165 137c41 0 73 -25 73 -69c0 -33 -14 -74 -25 -106l-40 -121c-5 -15 -15 -41 -15 -57
c0 -12 10 -25 23 -25c35 0 65 65 82 90zM335 506l-137 76c-20 11 -51 22 -51 49c0 20 15 38 36 38c19 0 31 -13 45 -26l21 -20l116 -117h-30z" />
    <glyph glyph-name="ntilde" unicode="&#xf1;" horiz-adv-x="500" 
d="M60 0l43 159c12 45 41 134 41 179c0 11 -5 27 -19 27c-27 0 -56 -62 -67 -84l-20 8c27 64 72 142 150 142c44 0 64 -26 64 -69l-5 -57l-3 -19l2 -2c33 71 94 147 180 147c51 0 81 -28 81 -78c0 -33 -14 -81 -24 -113l-19 -58c-7 -21 -33 -88 -33 -108c0 -9 7 -22 17 -22
c28 0 61 65 73 84l20 -11c-29 -59 -79 -138 -153 -138c-42 0 -72 29 -72 71c0 28 16 83 25 111l20 60c8 25 33 94 33 117c0 13 -9 25 -22 25c-87 -2 -141 -182 -163 -244l-44 -127h-105zM491 628l24 -1c-11 -55 -33 -94 -94 -94c-22 0 -38 7 -59 14c-18 6 -51 18 -70 18
c-27 0 -29 -15 -37 -36l-24 2c2 47 33 91 84 91c25 0 53 -11 77 -19c18 -6 33 -11 52 -11c25 0 38 14 47 36z" />
    <glyph glyph-name="oacute" unicode="&#xf3;" horiz-adv-x="460" 
d="M226 -13c-102 0 -166 72 -166 172c0 140 105 272 249 272c102 0 166 -75 166 -173c0 -135 -109 -271 -249 -271zM313 397c-59 0 -87 -81 -103 -127c-17 -50 -39 -126 -39 -180c0 -31 12 -69 50 -69c92 0 143 242 143 313c0 32 -15 63 -51 63zM230 503l120 121
c16 16 42 45 67 45c20 0 38 -17 38 -38c0 -24 -30 -39 -48 -49l-140 -79h-37z" />
    <glyph glyph-name="ocircumflex" unicode="&#xf4;" horiz-adv-x="460" 
d="M226 -13c-102 0 -166 72 -166 172c0 140 105 272 249 272c102 0 166 -75 166 -173c0 -135 -109 -271 -249 -271zM313 397c-59 0 -87 -81 -103 -127c-17 -50 -39 -126 -39 -180c0 -31 12 -69 50 -69c92 0 143 242 143 313c0 32 -15 63 -51 63zM371 659l78 -165h-29l-83 97
l-113 -97h-47l142 165h52z" />
    <glyph glyph-name="odieresis" unicode="&#xf6;" horiz-adv-x="460" 
d="M226 -13c-102 0 -166 72 -166 172c0 140 105 272 249 272c102 0 166 -75 166 -173c0 -135 -109 -271 -249 -271zM313 397c-59 0 -87 -81 -103 -127c-17 -50 -39 -126 -39 -180c0 -31 12 -69 50 -69c92 0 143 242 143 313c0 32 -15 63 -51 63zM287 525
c-28 0 -51 22 -51 51c0 28 22 50 51 50c28 0 50 -23 50 -51c0 -27 -22 -50 -50 -50zM451 525c-28 0 -51 22 -51 51c0 28 22 50 51 50c28 0 50 -23 50 -51c0 -27 -22 -50 -50 -50z" />
    <glyph glyph-name="ograve" unicode="&#xf2;" horiz-adv-x="460" 
d="M226 -13c-102 0 -166 72 -166 172c0 140 105 272 249 272c102 0 166 -75 166 -173c0 -135 -109 -271 -249 -271zM313 397c-59 0 -87 -81 -103 -127c-17 -50 -39 -126 -39 -180c0 -31 12 -69 50 -69c92 0 143 242 143 313c0 32 -15 63 -51 63zM435 506l-137 76
c-20 11 -51 22 -51 49c0 20 15 38 36 38c19 0 31 -13 45 -26l21 -20l116 -117h-30z" />
    <glyph glyph-name="otilde" unicode="&#xf5;" horiz-adv-x="460" 
d="M226 -13c-102 0 -166 72 -166 172c0 140 105 272 249 272c102 0 166 -75 166 -173c0 -135 -109 -271 -249 -271zM313 397c-59 0 -87 -81 -103 -127c-17 -50 -39 -126 -39 -180c0 -31 12 -69 50 -69c92 0 143 242 143 313c0 32 -15 63 -51 63zM471 628l24 -1
c-11 -55 -33 -94 -94 -94c-22 0 -38 7 -59 14c-18 6 -51 18 -70 18c-27 0 -29 -15 -37 -36l-24 2c2 47 33 91 84 91c25 0 53 -11 77 -19c18 -6 33 -11 52 -11c25 0 38 14 47 36z" />
    <glyph glyph-name="scaron" unicode="&#x161;" horiz-adv-x="340" 
d="M187 160c-34 40 -81 87 -81 142c0 87 83 129 160 129c49 0 120 -17 120 -79c0 -24 -18 -42 -42 -42c-30 0 -42 27 -43 52c-1 24 -8 35 -35 35c-32 0 -54 -16 -54 -47c0 -37 31 -64 54 -87c39 -40 72 -80 72 -139c0 -86 -88 -137 -165 -137c-56 0 -135 27 -135 96
c0 27 16 47 44 47c25 0 48 -17 46 -44l-1 -17l-1 -16c-1 -22 23 -32 41 -32c34 0 60 29 60 62c0 34 -19 53 -40 77zM243 494l-78 165h29l83 -97l113 97h46l-142 -165h-51z" />
    <glyph glyph-name="uacute" unicode="&#xfa;" 
d="M531 423l-56 -181c-12 -40 -32 -120 -32 -159c0 -12 2 -31 18 -31c28 0 57 69 67 88l19 -7c-24 -63 -71 -146 -148 -146c-41 0 -65 35 -65 73c0 26 4 51 9 74l-2 2c-31 -68 -94 -149 -176 -149c-46 0 -82 30 -82 79c0 35 18 86 28 120l31 106c4 14 15 42 15 58
c0 11 -5 21 -17 21c-30 0 -60 -61 -75 -83l-18 9c33 63 78 134 157 134c38 0 68 -25 68 -64c0 -33 -16 -83 -27 -116l-24 -72c-7 -21 -28 -79 -28 -101c0 -18 12 -26 29 -26c82 0 150 215 171 280l30 91h108zM310 503l120 121c16 16 42 45 67 45c20 0 38 -17 38 -38
c0 -24 -30 -39 -48 -49l-140 -79h-37z" />
    <glyph glyph-name="ucircumflex" unicode="&#xfb;" 
d="M531 423l-56 -181c-12 -40 -32 -120 -32 -159c0 -12 2 -31 18 -31c28 0 57 69 67 88l19 -7c-24 -63 -71 -146 -148 -146c-41 0 -65 35 -65 73c0 26 4 51 9 74l-2 2c-31 -68 -94 -149 -176 -149c-46 0 -82 30 -82 79c0 35 18 86 28 120l31 106c4 14 15 42 15 58
c0 11 -5 21 -17 21c-30 0 -60 -61 -75 -83l-18 9c33 63 78 134 157 134c38 0 68 -25 68 -64c0 -33 -16 -83 -27 -116l-24 -72c-7 -21 -28 -79 -28 -101c0 -18 12 -26 29 -26c82 0 150 215 171 280l30 91h108zM411 659l78 -165h-29l-83 97l-113 -97h-47l142 165h52z" />
    <glyph glyph-name="udieresis" unicode="&#xfc;" 
d="M531 423l-56 -181c-12 -40 -32 -120 -32 -159c0 -12 2 -31 18 -31c28 0 57 69 67 88l19 -7c-24 -63 -71 -146 -148 -146c-41 0 -65 35 -65 73c0 26 4 51 9 74l-2 2c-31 -68 -94 -149 -176 -149c-46 0 -82 30 -82 79c0 35 18 86 28 120l31 106c4 14 15 42 15 58
c0 11 -5 21 -17 21c-30 0 -60 -61 -75 -83l-18 9c33 63 78 134 157 134c38 0 68 -25 68 -64c0 -33 -16 -83 -27 -116l-24 -72c-7 -21 -28 -79 -28 -101c0 -18 12 -26 29 -26c82 0 150 215 171 280l30 91h108zM257 525c-28 0 -51 22 -51 51c0 28 22 50 51 50
c28 0 50 -23 50 -51c0 -27 -22 -50 -50 -50zM421 525c-28 0 -51 22 -51 51c0 28 22 50 51 50c28 0 50 -23 50 -51c0 -27 -22 -50 -50 -50z" />
    <glyph glyph-name="ugrave" unicode="&#xf9;" 
d="M531 423l-56 -181c-12 -40 -32 -120 -32 -159c0 -12 2 -31 18 -31c28 0 57 69 67 88l19 -7c-24 -63 -71 -146 -148 -146c-41 0 -65 35 -65 73c0 26 4 51 9 74l-2 2c-31 -68 -94 -149 -176 -149c-46 0 -82 30 -82 79c0 35 18 86 28 120l31 106c4 14 15 42 15 58
c0 11 -5 21 -17 21c-30 0 -60 -61 -75 -83l-18 9c33 63 78 134 157 134c38 0 68 -25 68 -64c0 -33 -16 -83 -27 -116l-24 -72c-7 -21 -28 -79 -28 -101c0 -18 12 -26 29 -26c82 0 150 215 171 280l30 91h108zM395 506l-137 76c-20 11 -51 22 -51 49c0 20 15 38 36 38
c19 0 31 -13 45 -26l21 -20l116 -117h-30z" />
    <glyph glyph-name="yacute" unicode="&#xfd;" horiz-adv-x="400" 
d="M249 272c22 -81 35 -164 38 -247h2c32 65 71 158 71 231c0 71 -42 100 -42 133c0 25 21 42 45 42c43 0 57 -47 57 -82c0 -174 -122 -399 -239 -524c-44 -47 -98 -95 -166 -95c-31 0 -57 11 -57 45c0 25 25 46 49 46c23 0 46 -16 72 -16c32 0 57 18 78 41
c28 33 35 65 35 108c0 65 -13 181 -35 244l-43 123c-4 12 -15 30 -31 30c-27 0 -23 -91 -24 -106h-22c0 62 -2 186 89 186c74 0 107 -101 123 -159zM250 503l120 121c16 16 42 45 67 45c20 0 38 -17 38 -38c0 -24 -30 -39 -48 -49l-140 -79h-37z" />
    <glyph glyph-name="ydieresis" unicode="&#xff;" horiz-adv-x="400" 
d="M249 272c22 -81 35 -164 38 -247h2c32 65 71 158 71 231c0 71 -42 100 -42 133c0 25 21 42 45 42c43 0 57 -47 57 -82c0 -174 -122 -399 -239 -524c-44 -47 -98 -95 -166 -95c-31 0 -57 11 -57 45c0 25 25 46 49 46c23 0 46 -16 72 -16c32 0 57 18 78 41
c28 33 35 65 35 108c0 65 -13 181 -35 244l-43 123c-4 12 -15 30 -31 30c-27 0 -23 -91 -24 -106h-22c0 62 -2 186 89 186c74 0 107 -101 123 -159zM197 525c-28 0 -51 22 -51 51c0 28 22 50 51 50c28 0 50 -23 50 -51c0 -27 -22 -50 -50 -50zM361 525c-28 0 -51 22 -51 51
c0 28 22 50 51 50c28 0 50 -23 50 -51c0 -27 -22 -50 -50 -50z" />
    <glyph glyph-name="zcaron" unicode="&#x17e;" horiz-adv-x="360" 
d="M380 386l-247 -281l2 -2c23 8 48 11 73 11c30 0 58 -12 87 -12s48 16 48 47v11c0 6 1 11 8 11c19 0 26 -47 26 -61c0 -68 -31 -123 -107 -123c-82 0 -107 77 -156 77c-26 0 -37 -19 -46 -38c-9 -20 -16 -39 -34 -39c-12 0 -20 15 -20 26c0 15 15 32 25 43l242 268l-2 2
c-19 -11 -38 -14 -62 -14s-48 8 -72 8c-23 0 -42 -11 -42 -36l1 -10c0 -6 -3 -10 -9 -10c-20 0 -26 54 -26 66c0 55 30 101 89 101c68 0 105 -64 141 -64c24 0 34 16 42 32c9 16 15 32 32 32c11 0 22 -8 22 -20c0 -9 -9 -19 -15 -25zM253 494l-78 165h29l83 -97l113 97h46
l-142 -165h-51z" />
    <glyph glyph-name="one.superior" unicode="&#xb9;" horiz-adv-x="300" 
d="M359 669l-89 -297c-4 -13 -15 -47 -15 -61c0 -27 27 -23 60 -24l-6 -20c-37 0 -74 2 -112 2c-33 0 -66 -2 -99 -2l7 20c18 1 46 0 58 18c9 11 15 31 19 45l60 205c3 11 8 27 8 37c0 26 -39 21 -63 22l6 20c51 4 102 13 148 35h18z" />
    <glyph glyph-name="two.superior" unicode="&#xb2;" horiz-adv-x="300" 
d="M68 268l2 8l195 182c27 25 51 59 51 97c0 37 -26 60 -66 60c-45 0 -70 -28 -70 -68c0 -7 1 -13 1 -20c0 -5 -3 -8 -8 -8c-18 0 -21 33 -21 45c0 66 53 105 122 105c68 0 116 -41 116 -105s-50 -102 -100 -137c-30 -22 -60 -44 -91 -65l-39 -34h82c53 0 80 -4 100 52h23
l-40 -112h-257z" />
    <glyph glyph-name="three.superior" unicode="&#xb3;" horiz-adv-x="300" 
d="M176 587l21 71c29 8 58 11 88 11c49 0 111 -18 111 -73c0 -48 -50 -77 -93 -92v-2c36 -8 62 -36 62 -72c0 -62 -48 -108 -104 -136c-64 -30 -119 -32 -189 -37l-13 -1l6 22c45 5 94 10 135 31c44 22 81 60 81 109c0 31 -18 54 -54 54c-24 0 -46 -11 -57 -11
c-7 0 -15 6 -15 13c0 15 24 16 37 18c42 5 135 29 135 77c0 29 -30 40 -57 40c-37 0 -61 -12 -94 -22z" />
    <glyph glyph-name="Delta" unicode="&#x2206;" horiz-adv-x="583" 
d="M520 0h-520l7 28l415 627l45 11l61 -638zM415 50l-41 470l-305 -470h346z" />
    <glyph glyph-name="Omega" unicode="&#x2126;" horiz-adv-x="654" 
d="M633 144l-64 -144h-218l-3 18c64 89 171 220 207 348c57 199 3 269 -79 269c-87 0 -174 -66 -233 -273c-36 -125 -11 -246 7 -344l-13 -18h-218l20 144l27 1c2 -59 14 -69 50 -69h90c-45 53 -114 143 -71 293c52 183 202 298 353 298c152 0 232 -110 180 -292
c-39 -136 -157 -230 -246 -299h97c37 0 50 8 87 69z" />
    <glyph glyph-name="uni03BC" unicode="&#x3bc;" 
d="M531 423l-56 -181c-12 -40 -32 -120 -32 -159c0 -12 2 -31 18 -31c28 0 57 69 67 88l19 -7c-24 -63 -71 -146 -148 -146c-41 0 -65 35 -65 73c0 26 4 51 9 74l-2 2c-31 -68 -94 -149 -176 -149c-6 0 -13 1 -19 2l-16 -124c-7 -53 -11 -135 -83 -135c-35 0 -62 26 -54 55
l149 507c4 14 15 42 15 58c0 11 -5 21 -17 21c-30 0 -60 -61 -75 -83l-18 9c33 63 78 134 157 134c38 0 68 -25 68 -64c0 -33 -16 -83 -27 -116l-24 -72c-7 -21 -28 -79 -28 -101c0 -18 12 -26 29 -26c82 0 150 215 171 280l30 91h108z" />
    <glyph glyph-name="pi" unicode="&#x3c0;" horiz-adv-x="521" 
d="M569 449l22 -8c-16 -37 -43 -76 -60 -94c-16 -4 -37 -5 -61 -5c-23 -60 -45 -141 -63 -206c-17 -58 -13 -85 13 -85c17 0 31 9 51 25l5 -22c-34 -41 -82 -66 -119 -66c-49 0 -79 26 -51 125c26 89 50 157 76 232c-48 0 -92 1 -129 1l-4 -14c-63 -220 -134 -308 -154 -327
c-21 -8 -48 -15 -65 -17l-1 18c94 92 157 246 184 342c-58 1 -84 -14 -127 -39l-7 24c36 33 87 89 185 88c69 0 155 -3 242 -3c30 0 42 6 63 31z" />
    <glyph glyph-name="Euro" unicode="&#x20ac;" horiz-adv-x="500" 
d="M432 301l-13 -46h-152c-5 -32 -9 -68 -9 -91c0 -85 13 -137 74 -137c72 0 119 78 149 166h37l-55 -199h-28l-3 38c-40 -40 -90 -45 -128 -45c-94 0 -161 85 -161 210c0 19 0 39 2 58h-81l15 46h72c4 22 10 46 17 70h-81l14 46h82c40 108 135 252 262 252
c47 0 80 -10 105 -57l21 45h29l-36 -185h-37c1 19 0 19 0 30c0 81 -15 127 -66 127c-77 0 -134 -145 -155 -212h156l-12 -46h-158c-6 -23 -12 -47 -17 -70h157z" />
    <glyph glyph-name="afii61289" unicode="&#x2113;" horiz-adv-x="389" 
d="M355 118l15 -18c-56 -70 -121 -111 -191 -111c-48 0 -75 14 -88 37c-13 28 -15 56 8 139l22 74l-64 -38l-4 26l78 50l37 127c42 147 66 196 118 244c36 35 72 52 105 52c58 0 72 -56 52 -128c-32 -111 -110 -193 -212 -275l-25 -85c-35 -124 -22 -162 31 -162
c42 0 83 31 118 68zM276 457l-31 -111c62 56 119 141 143 225c17 60 16 98 -11 98c-31 0 -53 -47 -101 -212z" />
    <glyph glyph-name="estimated" unicode="&#x212e;" horiz-adv-x="980" 
d="M948 318h-613c-3 0 -5 -1 -5 -4v-185c0 -9 3 -16 8 -22c60 -61 141 -100 232 -100c98 0 184 44 244 112h54c-67 -79 -177 -131 -299 -131c-209 0 -378 152 -378 339c0 188 169 340 378 340s379 -152 379 -340v-9zM809 342v186c0 9 -3 17 -9 23c-60 58 -140 96 -230 96
s-171 -39 -231 -99c-6 -6 -9 -14 -9 -24v-182c0 -2 2 -6 5 -6h470c3 0 4 4 4 6z" />
    <glyph glyph-name="partialdiff" unicode="&#x2202;" horiz-adv-x="491" 
d="M327 407h1c40 0 81 -18 98 -59c13 31 27 67 39 104c16 47 26 99 20 147c-6 40 -35 78 -91 78c-50 0 -103 -27 -143 -55c-16 -1 -26 45 -11 68c37 21 85 38 140 38c89 0 137 -51 156 -136c16 -73 -1 -164 -18 -224c-21 -73 -61 -167 -111 -235
c-63 -85 -144 -144 -235 -144c-101 0 -149 69 -115 188c19 66 61 123 101 159c46 41 110 71 169 71zM338 367h-1c-32 0 -66 -12 -106 -55c-40 -47 -76 -121 -95 -188c-18 -61 -3 -105 46 -105c44 0 92 55 126 102c40 56 65 107 97 184c-3 24 -24 62 -67 62z" />
    <glyph glyph-name="product" unicode="&#x220f;" horiz-adv-x="793" 
d="M769 660v-28c-79 -6 -84 -14 -84 -77v-525c0 -70 6 -78 82 -84v-28h-251v28c67 5 72 10 72 84v562c0 29 -5 33 -34 33h-160c-27 0 -31 -3 -31 -29v-566c0 -68 -1 -78 65 -84v-28h-245v28c75 6 82 14 82 84v525c0 64 -6 71 -85 77v28h589z" />
    <glyph glyph-name="summation" unicode="&#x2211;" horiz-adv-x="664" 
d="M645 100l-42 -187h-420v26l202 316l-198 378v27h417c1 -18 6 -94 11 -157l-29 -5c-8 41 -18 71 -31 94c-13 26 -28 34 -97 34h-153l164 -303l-205 -325h222c80 0 92 5 130 109z" />
    <glyph glyph-name="uni2219" unicode="&#x2219;" horiz-adv-x="260" 
d="M174 148c-40 0 -73 34 -73 72s31 74 73 74c40 0 73 -31 73 -74c0 -41 -35 -72 -73 -72z" />
    <glyph glyph-name="radical" unicode="&#x221a;" horiz-adv-x="670" 
d="M657 834l-158 -984l-22 -11l-195 518l-80 -37l-12 34l156 70l142 -394h2l126 813z" />
    <glyph glyph-name="infinity" unicode="&#x221e;" horiz-adv-x="785" 
d="M743 272v-1c0 -96 -70 -153 -143 -153c-53 0 -101 25 -161 103c-47 -57 -95 -103 -167 -103c-75 0 -141 61 -141 149c0 90 63 152 148 152c67 0 116 -42 162 -101c40 44 85 102 164 101c79 0 138 -58 138 -147zM279 176h1c52 0 91 47 126 89c-37 49 -71 97 -131 97
c-52 0 -84 -42 -84 -96c0 -49 38 -90 88 -90zM599 362h-1c-55 0 -98 -59 -127 -92c55 -67 85 -94 131 -94c52 0 81 49 81 91c0 57 -34 95 -84 95z" />
    <glyph glyph-name="integral" unicode="&#x222b;" horiz-adv-x="519" 
d="M309 2l-19 385c-17 339 75 407 152 407c27 0 63 -16 63 -48s-24 -48 -48 -48c-34 0 -29 51 -50 51c-19 0 -38 -27 -33 -150l18 -355c17 -334 -65 -435 -156 -435c-36 0 -62 23 -62 50c-1 30 27 51 55 51s28 -55 48 -55c26 0 36 58 32 147z" />
    <glyph glyph-name="approxequal" unicode="&#x2248;" horiz-adv-x="572" 
d="M499 415l39 -35c-26 -52 -67 -92 -119 -92c-36 0 -61 12 -99 35c-26 17 -49 31 -77 31c-39 0 -61 -32 -83 -66l-40 34c26 54 74 92 129 92c42 0 72 -21 94 -34c32 -19 50 -32 76 -32c34 0 56 26 80 67zM499 251l39 -35c-26 -51 -67 -92 -120 -92c-35 0 -60 13 -98 36
c-27 17 -49 31 -77 31c-40 0 -62 -34 -83 -67l-40 34c26 54 75 92 129 92c44 0 72 -21 94 -33c27 -16 48 -33 76 -33c35 0 55 26 80 67z" />
    <glyph glyph-name="notequal" unicode="&#x2260;" horiz-adv-x="594" 
d="M464 470l-35 -80h123v-62h-146l-54 -123h200v-62h-223l-44 -101l-48 19l36 82h-122v62h145l53 123h-198v62h221l44 100z" />
    <glyph glyph-name="lessequal" unicode="&#x2264;" horiz-adv-x="616" 
d="M572 96l-393 204v65l393 203v-72l-332 -162v-2l332 -163v-73zM575 -1h-400v62h400v-62z" />
    <glyph glyph-name="greaterequal" unicode="&#x2265;" horiz-adv-x="616" 
d="M180 568l393 -203v-66l-393 -203v73l332 163v2l-332 162v72zM574 -1h-398v62h398v-62z" />
    <glyph glyph-name="lozenge" unicode="&#x25ca;" horiz-adv-x="673" 
d="M630 318l-176 -383h-75l-175 383l177 385h74zM561 318l-142 318h-3l-143 -317l144 -319h2z" />
    <glyph glyph-name="uni00A0" unicode="&#xa0;" horiz-adv-x="260" 
 />
    <glyph glyph-name="uni00AD" unicode="&#xad;" horiz-adv-x="220" 
d="M261 251l-25 -82h-216l25 82h216z" />
    <glyph glyph-name="uni02C9" unicode="&#x2c9;" horiz-adv-x="400" 
d="M500 545h-261v60h261v-60z" />
    <glyph glyph-name="zero.taboldstyle" unicode="&#xf643;" horiz-adv-x="556" 
d="M558 265c0 -145 -122 -278 -275 -278c-128 0 -189 82 -189 179c0 145 122 278 275 278c128 0 189 -82 189 -179zM438 315c0 59 -22 95 -66 95c-99 0 -158 -219 -158 -294c0 -59 22 -95 66 -95c99 0 158 219 158 294z" />
    <glyph glyph-name="one.taboldstyle" unicode="&#xf644;" horiz-adv-x="556" 
d="M534 433l-7 -34c-69 0 -87 -11 -108 -83l-50 -172c-9 -31 -14 -55 -14 -71c0 -30 23 -41 86 -41l-7 -34c-11 1 -52 2 -150 2c-116 0 -141 -1 -167 -2l7 34c69 0 87 11 108 83l50 172c9 31 14 55 14 71c0 30 -23 41 -86 41l7 34c26 -1 52 -2 173 -2c107 0 131 1 144 2z
" />
    <glyph glyph-name="two.taboldstyle" unicode="&#xf645;" horiz-adv-x="556" 
d="M502 153l-49 -155c-10 1 -39 2 -187 2c-134 0 -172 -1 -188 -2v23l181 132c80 58 118 91 118 133s-32 72 -87 72c-62 0 -96 -35 -96 -91c0 -15 -6 -24 -18 -24c-13 0 -20 12 -20 36c0 95 64 165 185 165c94 0 156 -53 156 -127c0 -109 -130 -136 -249 -219v-2h138
c46 0 56 8 79 57h37z" />
    <glyph glyph-name="three.taboldstyle" unicode="&#xf646;" horiz-adv-x="556" 
d="M6 -258l6 34c271 27 331 148 331 235c0 60 -33 95 -83 95c-33 0 -77 -20 -93 -20c-9 0 -15 8 -15 23c0 17 8 21 27 24c161 25 236 75 236 137c0 42 -35 65 -89 65c-37 0 -91 -17 -141 -34l34 120c47 15 90 23 127 23c103 0 173 -41 173 -129c0 -74 -48 -120 -141 -157v-2
c59 -17 97 -61 97 -128c0 -148 -173 -286 -469 -286z" />
    <glyph glyph-name="four.taboldstyle" unicode="&#xf647;" horiz-adv-x="556" 
d="M66 56h196l69 245l-2 2zM502 63l-18 -57c-12 -4 -33 -6 -58 -6h-58l-68 -252h-123l70 252h-252l14 66l415 385h70l-111 -395h60c29 0 45 3 59 7z" />
    <glyph glyph-name="five.taboldstyle" unicode="&#xf648;" horiz-adv-x="556" 
d="M144 116l98 330c55 -19 127 -34 194 -34c46 0 71 4 87 9c15 5 24 10 32 10c7 0 12 -5 12 -13c0 -33 -80 -110 -221 -110c-37 0 -67 5 -93 9l-28 -88h26c157 0 232 -59 232 -171c0 -189 -212 -316 -445 -316h-20l7 34c224 15 343 148 343 250c0 62 -37 94 -120 94
c-40 0 -72 -2 -104 -4z" />
    <glyph glyph-name="six.taboldstyle" unicode="&#xf649;" horiz-adv-x="556" 
d="M586 690l8 -36c-251 -71 -377 -320 -377 -532c0 -60 19 -101 66 -101c91 0 130 194 130 255c0 49 -19 63 -40 63c-22 0 -32 -12 -47 -37c-10 -17 -15 -28 -25 -28s-13 6 -13 16c0 25 30 109 129 109c73 0 128 -56 128 -144c0 -111 -92 -268 -254 -268
c-118 0 -189 78 -189 218c0 181 149 403 484 485z" />
    <glyph glyph-name="seven.taboldstyle" unicode="&#xf64a;" horiz-adv-x="556" 
d="M161 241h-34l69 247h34c-1 -8 -2 -19 -2 -31c0 -18 9 -26 35 -26h312l-328 -677h-161c112 152 263 359 395 579h-214c-55 0 -74 -18 -93 -63z" />
    <glyph glyph-name="eight.taboldstyle" unicode="&#xf64b;" horiz-adv-x="556" 
d="M296 -13c-121 0 -203 64 -203 156c0 82 55 163 193 200c-59 55 -82 99 -82 159c0 99 73 179 204 179c129 0 193 -55 193 -140c0 -109 -105 -146 -160 -173c61 -54 94 -112 94 -175c0 -112 -91 -206 -239 -206zM191 136c0 -65 38 -115 105 -115c79 0 124 64 124 131
c0 48 -20 88 -104 163c-92 -51 -125 -110 -125 -179zM490 544c0 62 -38 103 -95 103c-62 0 -97 -43 -97 -103s52 -108 90 -145c63 29 102 87 102 145z" />
    <glyph glyph-name="nine.taboldstyle" unicode="&#xf64c;" horiz-adv-x="556" 
d="M66 -258l-8 36c251 71 377 320 377 532c0 60 -19 101 -66 101c-91 0 -130 -194 -130 -255c0 -49 19 -63 40 -63c22 0 32 12 47 37c10 17 15 28 25 28s13 -6 13 -16c0 -25 -30 -109 -129 -109c-73 0 -128 56 -128 144c0 111 92 267 254 267c118 0 189 -77 189 -217
c0 -181 -149 -403 -484 -485z" />
    <glyph glyph-name="dollar.taboldstyle" unicode="&#xf653;" horiz-adv-x="556" 
d="M343 274l-63 -252c75 2 133 59 133 135c0 57 -22 89 -70 117zM400 662l23 84h47l-24 -84c56 -11 131 -43 131 -111c0 -25 -20 -49 -46 -49c-42 0 -44 38 -49 69c-5 30 -15 46 -46 52l-63 -225c77 -44 146 -104 146 -200c0 -134 -125 -212 -249 -210l-39 -142h-47l40 142
c-58 5 -155 43 -155 113c0 27 15 52 45 52c36 0 50 -28 54 -60c7 -44 18 -63 65 -71l71 278c-75 49 -133 87 -133 185c0 126 119 180 229 177zM333 422l57 206c-64 2 -124 -41 -124 -109c0 -45 31 -75 67 -97z" />
    <glyph glyph-name="cent.taboldstyle" unicode="&#xf654;" horiz-adv-x="556" 
d="M524 669l-45 -124c29 -13 53 -45 53 -76c0 -35 -23 -63 -59 -63c-16 0 -26 6 -39 14l-92 -254c66 -4 105 44 141 92l24 -16c-38 -65 -100 -130 -180 -131l-48 -124h-37l48 124c-83 3 -140 72 -140 154c0 135 106 295 252 295l49 -4l41 113h32zM311 173l102 284
c5 14 11 27 19 39c3 3 4 4 4 9c0 16 -16 21 -29 21c-89 0 -137 -207 -137 -276c0 -34 9 -62 41 -77z" />
    <glyph glyph-name="uni2215" unicode="&#x2215;" horiz-adv-x="140" 
d="M421 669l-481 -669h-87l480 669h88z" />
    <glyph glyph-name="uni03A9" unicode="&#x3a9;" horiz-adv-x="654" 
d="M633 144l-64 -144h-218l-3 18c64 89 171 220 207 348c57 199 3 269 -79 269c-87 0 -174 -66 -233 -273c-36 -125 -11 -246 7 -344l-13 -18h-218l20 144l27 1c2 -59 14 -69 50 -69h90c-45 53 -114 143 -71 293c52 183 202 298 353 298c152 0 232 -110 180 -292
c-39 -136 -157 -230 -246 -299h97c37 0 50 8 87 69z" />
    </font>
</defs>
</svg>
