<?xml version="1.0" standalone="no"?>
<!DOCTYPE svg PUBLIC "-//W3C//DTD SVG 20010904//EN"
 "http://www.w3.org/TR/2001/REC-SVG-20010904/DTD/svg10.dtd">
<svg version="1.0" xmlns="http://www.w3.org/2000/svg"
 width="506.000000pt" height="506.000000pt" viewBox="0 0 506.000000 506.000000"
 preserveAspectRatio="xMidYMid meet">
<metadata>
Created by potrace 1.11, written by Peter Selinger 2001-2013
</metadata>
<g transform="translate(0.000000,506.000000) scale(0.100000,-0.100000)"
fill="#000000" stroke="none">
<path d="M2698 4378 c-136 -17 -273 -69 -459 -172 -119 -66 -141 -90 -92 -100
59 -13 128 10 264 86 165 92 255 117 439 122 216 6 407 -128 529 -371 36 -72
76 -184 87 -243 3 -14 7 -32 9 -40 9 -30 25 -162 31 -252 4 -51 8 -94 9 -96 2
-2 13 23 26 55 20 51 22 77 23 223 l1 165 -38 80 c-107 224 -290 431 -442 500
-93 42 -256 60 -387 43z"/>
<path d="M3933 3535 c68 -146 88 -222 88 -329 0 -189 -57 -352 -199 -566 -72
-108 -178 -241 -198 -247 -16 -5 -23 17 -31 95 -11 108 -8 257 6 290 20 49 7
60 -20 17 -13 -21 -26 -42 -30 -47 -3 -4 -42 8 -86 26 -154 65 -350 117 -498
131 -32 3 -77 10 -98 16 -42 11 -42 12 -16 126 6 27 13 62 15 78 7 43 15 289
9 283 -3 -2 -12 -42 -21 -89 -33 -176 -104 -349 -158 -384 -13 -9 -72 -22
-132 -30 -183 -24 -337 -70 -704 -209 -80 -30 -167 -56 -195 -59 -175 -15
-425 123 -587 324 -19 24 -54 77 -78 117 -59 101 -68 80 -30 -73 19 -79 104
-244 161 -315 129 -160 253 -228 418 -228 104 0 207 33 486 158 162 73 396
148 550 176 143 26 356 30 477 8 139 -25 376 -110 405 -146 12 -13 37 -117 49
-198 3 -19 7 -42 9 -50 2 -8 7 -35 10 -60 6 -48 45 -295 50 -320 2 -8 4 -19 5
-25 5 -33 19 63 21 148 l3 101 81 95 c348 409 473 709 400 954 -17 58 -63 131
-125 197 -23 25 -40 41 -37 35z"/>
<path d="M2588 2196 c-1 -2 -46 -6 -98 -9 -186 -12 -372 -61 -563 -151 -104
-48 -117 -61 -126 -127 -4 -30 -6 -60 -4 -65 2 -5 77 27 167 71 261 129 551
216 764 229 46 2 86 7 89 10 11 11 -53 27 -126 32 -42 3 -81 7 -88 9 -6 2 -13
2 -15 1z"/>
<path d="M1670 1201 c-16 -32 -26 -41 -47 -41 -36 0 -96 -64 -161 -171 -44
-74 -98 -189 -88 -189 2 0 -3 -26 -10 -57 -21 -87 -18 -154 10 -215 30 -67 68
-91 146 -91 60 0 175 37 164 54 -3 5 -19 2 -37 -8 -18 -9 -62 -17 -103 -19
-65 -3 -73 -1 -103 24 -100 83 -59 329 86 524 49 66 73 89 84 82 11 -6 3 -57
-17 -115 -10 -30 -17 -58 -16 -63 2 -5 0 -16 -4 -25 -8 -19 -16 -77 -10 -70 5
4 76 205 81 229 2 8 17 43 34 78 18 35 32 73 34 84 4 37 -21 30 -43 -11z"/>
<path d="M858 1140 c-74 -49 -95 -127 -76 -289 3 -22 -6 -30 -70 -61 -40 -20
-69 -39 -66 -43 4 -4 0 -7 -9 -7 -21 0 -34 -26 -33 -65 1 -24 8 -34 36 -48 42
-22 113 -16 143 11 43 38 63 122 35 150 -9 9 -3 15 24 26 19 8 47 18 62 21 14
3 37 7 51 10 13 3 36 10 50 15 33 13 32 7 -10 -44 -35 -43 -40 -81 -13 -113
27 -33 137 6 238 86 43 34 17 31 -40 -5 -123 -76 -172 -89 -178 -47 -2 16 7
28 36 47 38 24 112 102 112 118 0 15 -45 8 -78 -12 -18 -11 -38 -18 -43 -14
-10 6 -163 -24 -191 -38 -22 -11 -29 2 -32 55 -1 23 -4 47 -7 52 -6 12 -3 49
8 93 16 63 135 130 151 84 2 -7 -19 -36 -48 -64 -28 -27 -49 -52 -46 -55 15
-15 89 39 121 90 16 25 16 29 1 52 -23 35 -70 33 -128 -5z m222 -284 c0 -2 -8
-10 -17 -17 -16 -13 -17 -12 -4 4 13 16 21 21 21 13z m-284 -108 c1 -30 -6
-45 -33 -73 -37 -38 -49 -41 -88 -23 -50 23 -27 81 50 122 48 25 70 18 71 -26z"/>
<path d="M3410 1113 c-13 -32 -33 -74 -45 -93 -11 -19 -31 -58 -43 -85 l-23
-51 -75 -2 c-41 -2 -78 0 -84 3 -8 5 25 71 83 162 31 48 33 63 12 63 -16 0
-75 -86 -75 -111 0 -8 -8 -24 -18 -35 -10 -10 -19 -23 -20 -29 -10 -46 -35
-65 -87 -65 -32 0 -75 -20 -75 -35 0 -7 7 -18 15 -25 12 -10 18 -8 33 9 9 12
30 24 45 25 25 3 27 1 24 -23 -3 -14 -19 -56 -36 -94 -35 -76 -37 -87 -17 -87
8 0 23 24 34 58 33 95 47 129 59 143 7 9 39 15 92 17 l81 3 -22 -53 c-30 -76
-69 -181 -73 -198 -2 -8 -11 -35 -19 -59 -23 -63 -21 -83 7 -79 17 2 23 10 25
38 6 74 87 319 112 341 11 10 40 16 76 18 67 2 96 9 90 20 -3 4 -37 6 -76 4
-57 -4 -70 -2 -70 10 0 21 66 144 102 190 31 39 34 70 7 75 -10 2 -23 -16 -39
-55z"/>
<path d="M3824 1043 c-9 -15 -25 -40 -35 -54 -13 -20 -15 -29 -6 -38 8 -8 7
-11 -6 -11 -15 0 -22 -17 -18 -42 0 -5 -3 -8 -8 -8 -5 0 -14 -13 -21 -30 -7
-16 -16 -30 -21 -30 -5 0 -9 -7 -9 -15 0 -24 29 -17 61 14 39 39 93 46 97 13
2 -12 -3 -24 -10 -27 -7 -2 -39 -14 -71 -26 -95 -34 -136 -99 -63 -99 43 0
103 33 153 85 24 24 51 44 60 44 22 -1 73 10 85 17 5 3 6 10 2 15 -3 5 -10 6
-17 2 -6 -4 -20 -8 -31 -9 -12 -1 -30 -5 -41 -8 -15 -5 -24 0 -37 24 -13 23
-24 30 -48 30 -17 0 -40 -5 -52 -11 -18 -10 -19 -8 -13 13 5 12 25 55 47 95
22 41 34 74 29 78 -6 3 -18 -7 -27 -22z m16 -258 c0 -11 -84 -65 -102 -65 -15
0 -16 3 -7 18 15 24 109 65 109 47z"/>
<path d="M2221 884 c-56 -55 -99 -86 -196 -139 -36 -20 -64 -23 -75 -9 -16 18
-3 52 21 59 12 4 46 32 76 62 49 50 53 57 37 66 -28 16 -97 -27 -145 -90 -30
-40 -56 -62 -95 -80 -30 -13 -58 -22 -63 -19 -14 9 0 53 25 77 29 27 33 62 7
52 -10 -3 -32 -20 -49 -38 -48 -48 -111 -95 -117 -88 -6 5 27 70 43 83 8 7 40
58 40 64 0 2 -8 3 -17 2 -23 -3 -112 -135 -109 -160 5 -37 53 -33 101 9 28 23
30 24 37 6 13 -37 53 -48 80 -24 10 9 18 12 18 8 0 -4 8 -1 18 7 27 23 52 30
52 13 0 -8 11 -22 25 -31 31 -20 62 -13 128 27 l47 29 0 -24 c0 -29 26 -52 54
-48 24 4 138 61 147 74 3 4 11 -8 18 -27 12 -33 18 -37 66 -38 21 -1 92 33
137 64 36 26 41 24 23 -11 -15 -30 -13 -50 5 -50 5 0 32 22 59 50 l49 50 -1
-50 c-1 -39 3 -55 20 -72 20 -20 26 -20 62 -9 40 12 106 59 97 69 -3 2 -18 -4
-33 -14 -15 -10 -30 -19 -33 -20 -3 0 -18 -4 -33 -9 -22 -6 -31 -3 -42 11 -17
23 -11 55 22 112 21 37 22 43 8 48 -16 6 -30 -3 -92 -60 -18 -16 -35 -28 -37
-25 -2 2 4 21 15 43 20 41 18 56 -8 56 -9 0 -14 -3 -10 -6 17 -18 -28 -63
-105 -107 -93 -51 -132 -59 -141 -27 -4 16 6 28 46 56 59 41 112 103 99 116
-17 17 -64 -5 -113 -52 -27 -26 -49 -52 -49 -57 0 -5 -39 -29 -86 -53 -82 -43
-86 -44 -100 -26 -14 20 -3 56 16 56 6 0 10 6 10 13 0 7 13 23 30 35 l30 22
-9 -22 c-4 -13 -6 -28 -4 -35 7 -19 32 -3 28 18 -2 10 0 21 6 24 10 7 49 83
49 97 0 20 -30 1 -89 -58z m-201 -18 c0 -2 -12 -11 -27 -20 l-28 -17 24 20
c23 21 31 25 31 17z m410 1 c0 -2 -10 -12 -22 -23 l-23 -19 19 23 c18 21 26
27 26 19z"/>
<path d="M4314 913 c-9 -16 -24 -39 -34 -53 -33 -50 -33 -51 -6 -40 20 7 24 6
19 -5 -3 -8 -10 -15 -16 -15 -6 0 -41 -18 -78 -40 -77 -46 -84 -47 -99 -21
-10 21 1 60 26 91 7 8 10 27 7 43 -7 33 -41 37 -68 7 -10 -11 -24 -20 -32 -20
-8 0 -12 -4 -9 -9 5 -8 -22 -43 -74 -96 -24 -25 -26 -51 -4 -59 11 -4 34 7 63
29 l46 36 8 -25 c12 -36 58 -43 103 -17 19 12 33 17 29 11 -9 -14 32 -50 56
-50 28 0 77 53 75 82 -1 19 9 26 62 45 35 12 66 24 70 27 13 14 -7 14 -62 1
-33 -8 -63 -12 -68 -9 -10 6 20 66 38 77 7 4 11 14 8 22 -10 24 -42 17 -60
-12z m-224 -73 c0 -13 -72 -85 -100 -100 -32 -17 -23 1 30 60 42 47 70 63 70
40z m190 -101 c-22 -30 -35 -36 -45 -19 -8 12 44 62 56 54 5 -3 0 -19 -11 -35z"/>
<path d="M3489 840 c-29 -34 -64 -72 -76 -86 -27 -30 -29 -49 -7 -58 18 -7 51
11 86 46 l20 20 19 -31 c11 -18 27 -31 38 -31 25 0 71 20 71 32 0 4 5 8 11 8
11 0 49 37 49 48 0 3 -8 -2 -18 -11 -10 -10 -24 -17 -30 -17 -7 0 -12 -4 -12
-9 0 -5 -14 -14 -31 -21 -26 -11 -33 -11 -46 3 -15 14 -14 20 9 67 30 60 27
100 -6 100 -14 0 -41 -22 -77 -60z m51 -12 c-13 -25 -88 -98 -102 -98 -17 0
-6 18 48 73 58 59 75 67 54 25z"/>
<path d="M1852 522 c-16 -11 -23 -81 -11 -103 5 -11 16 -15 28 -12 20 5 38 33
22 33 -5 0 -11 -6 -14 -12 -9 -25 -29 9 -25 43 2 25 8 34 21 33 9 -1 17 4 17
12 0 16 -18 18 -38 6z"/>
<path d="M2000 489 c-6 -24 -13 -52 -16 -61 -7 -23 3 -23 24 -1 16 16 17 16
20 0 3 -15 22 -25 22 -11 0 16 -24 100 -31 108 -4 5 -13 -11 -19 -35z m30 -31
c0 -5 -6 -8 -14 -8 -9 0 -12 7 -9 21 4 16 8 17 14 7 5 -7 9 -16 9 -20z"/>
<path d="M2130 520 c0 -5 4 -10 9 -10 6 0 10 -23 9 -51 0 -28 3 -53 6 -56 6
-6 9 16 8 75 0 17 4 32 9 32 5 0 9 5 9 10 0 6 -11 10 -25 10 -14 0 -25 -4 -25
-10z"/>
<path d="M2279 525 c-1 0 -2 -26 -3 -57 -2 -47 1 -58 16 -61 10 -3 21 -1 24 4
3 5 -2 9 -10 9 -21 0 -20 27 2 39 16 10 16 10 0 11 -11 0 -18 8 -18 20 0 11 7
20 15 20 8 0 15 4 15 9 0 7 -26 11 -41 6z"/>
<path d="M2419 513 c-4 -69 -1 -103 10 -103 4 0 7 12 5 28 -2 26 -2 26 12 8 8
-11 14 -23 14 -28 0 -4 3 -8 8 -8 10 0 9 92 -1 108 -12 18 -47 15 -48 -5z m39
-20 c-4 -24 -23 -27 -25 -3 -1 12 4 20 13 20 9 0 14 -7 12 -17z"/>
<path d="M2579 523 c-6 -33 -3 -113 3 -113 4 0 8 27 8 60 0 33 -2 60 -5 60 -3
0 -6 -3 -6 -7z"/>
<path d="M2690 473 c0 -35 4 -63 9 -63 5 0 8 15 6 33 l-4 32 17 -32 c8 -18 19
-33 24 -33 4 0 8 28 8 63 0 39 -3 57 -9 48 -5 -8 -8 -24 -6 -37 1 -13 -2 -21
-6 -18 -5 3 -9 11 -9 18 0 7 -7 21 -15 32 -13 17 -14 14 -15 -43z"/>
<path d="M2861 521 c-12 -8 -16 -40 -12 -93 1 -12 9 -18 26 -18 14 0 25 3 26
8 0 4 2 17 5 30 2 14 -1 22 -10 22 -9 0 -12 -8 -8 -26 4 -20 1 -25 -9 -22 -20
7 -19 83 1 84 32 3 34 5 20 14 -18 12 -21 12 -39 1z"/>
</g>
</svg>
